<svg width="1280" height="129" viewBox="0 0 1280 129" fill="none" xmlns="http://www.w3.org/2000/svg">
<g filter="url(#filter0_d)">
<path d="M22.4 71.6C17.4667 71.6 13.3667 70.1 10.1 67.1C6.9 64.1 5.3 59.9667 5.3 54.7V7.9H8.5V26H22.3V28.8H8.5V54.7C8.5 59.1 9.8 62.5667 12.4 65.1C15.0667 67.5667 18.4 68.8 22.4 68.8V71.6Z" transform="translate(104.659 98.8518) rotate(179.735)" fill="#FF0000"/>
<path d="M22.4 71.6V72.6H23.4V71.6H22.4ZM10.1 67.1L9.41602 67.8296L9.4236 67.8365L10.1 67.1ZM5.3 7.9V6.9H4.3V7.9H5.3ZM8.5 7.9H9.5V6.9H8.5V7.9ZM8.5 26H7.5V27H8.5V26ZM22.3 26H23.3V25H22.3V26ZM22.3 28.8V29.8H23.3V28.8H22.3ZM8.5 28.8V27.8H7.5V28.8H8.5ZM12.4 65.1L11.7021 65.8162L11.7114 65.8253L11.721 65.8341L12.4 65.1ZM22.4 68.8H23.4V67.8H22.4V68.8ZM22.4 70.6C17.6868 70.6 13.8373 69.1745 10.7764 66.3635L9.4236 67.8365C12.896 71.0255 17.2466 72.6 22.4 72.6V70.6ZM10.7839 66.3705C7.82553 63.597 6.3 59.7502 6.3 54.7H4.3C4.3 60.1831 5.97447 64.603 9.41606 67.8295L10.7839 66.3705ZM6.3 54.7V7.9H4.3V54.7H6.3ZM5.3 8.9H8.5V6.9H5.3V8.9ZM7.5 7.9V26H9.5V7.9H7.5ZM8.5 27H22.3V25H8.5V27ZM21.3 26V28.8H23.3V26H21.3ZM22.3 27.8H8.5V29.8H22.3V27.8ZM7.5 28.8V54.7H9.5V28.8H7.5ZM7.5 54.7C7.5 59.3084 8.86908 63.0558 11.7021 65.8162L13.0979 64.3838C10.7309 62.0775 9.5 58.8916 9.5 54.7H7.5ZM11.721 65.8341C14.5918 68.4896 18.1759 69.8 22.4 69.8V67.8C18.6241 67.8 15.5416 66.6437 13.079 64.3659L11.721 65.8341ZM21.4 68.8V71.6H23.4V68.8H21.4Z" transform="translate(104.659 98.8518) rotate(179.735)" fill="black"/>
</g>
<g filter="url(#filter1_d)">
<path d="M19.7566 88.1C16.5566 88.1 13.7233 87.5667 11.2566 86.5C8.78997 85.3667 7.02331 83.9333 5.95664 82.2V76.9C7.22331 79.7667 8.95664 81.9 11.1566 83.3C13.3566 84.6333 16.1566 85.3 19.5566 85.3C22.8233 85.3 25.4566 84.3 27.4566 82.3C29.4566 80.2333 30.4566 77.6 30.4566 74.4C30.4566 71.6667 29.89 69.5667 28.7566 68.1C27.6233 66.5667 25.79 65.0333 23.2566 63.5L19.4566 61.3C16.7233 59.6333 14.6566 58.3333 13.2566 57.4C11.9233 56.4 10.8566 55.3 10.0566 54.1C9.25664 52.8333 8.85664 51.3667 8.85664 49.7C8.85664 47.0333 9.78997 44.9 11.6566 43.3C13.5233 41.7 15.9566 40.9 18.9566 40.9C22.6233 40.9 25.69 41.7333 28.1566 43.4V47.8C26.09 45.0667 23.1233 43.7 19.2566 43.7C17.1233 43.7 15.39 44.2333 14.0566 45.3C12.7233 46.3667 12.0566 47.7333 12.0566 49.4C12.0566 50.8667 12.4566 52.1667 13.2566 53.3C14.0566 54.3667 15.1566 55.3667 16.5566 56.3C18.0233 57.2333 20.4233 58.6333 23.7566 60.5C27.1566 62.4333 29.6566 64.4333 31.2566 66.5C32.8566 68.5 33.6566 71.1333 33.6566 74.4C33.6566 78.5333 32.29 81.8667 29.5566 84.4C26.89 86.8667 23.6233 88.1 19.7566 88.1ZM149.495 31.7C148.562 31.7 147.728 31.3667 146.995 30.7C146.328 30.0333 145.995 29.2 145.995 28.2C145.995 27.2667 146.328 26.4667 146.995 25.8C147.728 25.1333 148.562 24.8 149.495 24.8C150.428 24.8 151.228 25.1333 151.895 25.8C152.628 26.4667 152.995 27.2667 152.995 28.2C152.995 29.2 152.628 30.0333 151.895 30.7C151.228 31.3667 150.428 31.7 149.495 31.7ZM147.895 42H151.095V87H147.895V42ZM223.105 87.9C219.972 87.9 217.105 87.2 214.505 85.8C211.905 84.3333 209.838 82.3 208.305 79.7C206.772 77.1 206.005 74.2 206.005 71V12H209.205V71C209.205 73.6667 209.805 76.0667 211.005 78.2C212.272 80.3333 213.972 82.0333 216.105 83.3C218.238 84.5 220.572 85.1 223.105 85.1V87.9ZM297.046 88.1C292.98 88.1 289.046 87 285.246 84.8C281.513 82.6 278.646 79.7 276.646 76.1V87H273.446V12H276.646V53.4C278.446 49.6 281.246 46.5667 285.046 44.3C288.846 42.0333 292.846 40.9 297.046 40.9C301.38 40.9 305.346 41.9667 308.946 44.1C312.613 46.2333 315.513 49.1 317.646 52.7C319.78 56.3 320.846 60.2333 320.846 64.5C320.846 68.7667 319.78 72.7 317.646 76.3C315.513 79.9 312.613 82.7667 308.946 84.9C305.346 87.0333 301.38 88.1 297.046 88.1ZM297.246 85.3C300.913 85.3 304.313 84.3667 307.446 82.5C310.58 80.5667 313.046 78.0333 314.846 74.9C316.713 71.7 317.646 68.2333 317.646 64.5C317.646 60.8333 316.713 57.4 314.846 54.2C312.98 51 310.48 48.4667 307.346 46.6C304.213 44.6667 300.813 43.7 297.146 43.7C293.48 43.7 290.046 44.6667 286.846 46.6C283.713 48.5333 281.18 51.1 279.246 54.3C277.38 57.5 276.446 60.9333 276.446 64.6C276.446 68.2667 277.38 71.7 279.246 74.9C281.18 78.0333 283.746 80.5667 286.946 82.5C290.146 84.3667 293.58 85.3 297.246 85.3ZM369.892 42H373.092V52.4C374.425 49.1333 376.358 46.5667 378.892 44.7C381.492 42.8333 384.425 41.9 387.692 41.9C389.758 41.9 391.858 42.3333 393.992 43.2V46.9C392.058 45.4333 389.892 44.7 387.492 44.7C385.092 44.7 382.758 45.4333 380.492 46.9C378.292 48.3667 376.492 50.3333 375.092 52.8C373.758 55.2667 373.092 57.9 373.092 60.7V87H369.892V42ZM461.723 88.1C455.39 88.1 450.49 86.3667 447.023 82.9C443.623 79.4333 441.923 74.5333 441.923 68.2V42H445.123V68.2C445.123 73.6667 446.556 77.9 449.423 80.9C452.356 83.8333 456.456 85.3 461.723 85.3C464.923 85.3 467.856 84.6 470.523 83.2C473.19 81.7333 475.29 79.7 476.823 77.1C478.356 74.5 479.123 71.5333 479.123 68.2V42H482.323V87H479.123V78.6C477.59 81.4 475.29 83.7 472.223 85.5C469.156 87.2333 465.656 88.1 461.723 88.1ZM556.15 88.3C551.817 88.3 547.817 87.2667 544.15 85.2C540.55 83.1333 537.684 80.3 535.55 76.7C533.417 73.1 532.35 69.0333 532.35 64.5C532.35 60.3 533.417 56.4333 535.55 52.9C537.684 49.3 540.584 46.4333 544.25 44.3C547.984 42.1667 552.084 41.1 556.55 41.1C560.284 41.1 563.484 41.7 566.15 42.9C568.817 44.1 571.417 45.9667 573.95 48.5V53.9C571.75 50.6333 569.284 48.1667 566.55 46.5C563.884 44.7667 560.55 43.9 556.55 43.9C552.884 43.9 549.417 44.8667 546.15 46.8C542.95 48.6667 540.384 51.2 538.45 54.4C536.517 57.6 535.55 61.0333 535.55 64.7C535.55 68.7 536.484 72.3 538.35 75.5C540.217 78.6333 542.717 81.1 545.85 82.9C549.05 84.6333 552.484 85.5 556.15 85.5C563.617 85.5 569.55 82.1333 573.95 75.4V80.8C571.55 83.3333 568.884 85.2333 565.95 86.5C563.084 87.7 559.817 88.3 556.15 88.3ZM622.802 12H626.002V51.3C627.402 48.3 629.769 45.8333 633.102 43.9C636.502 41.9 639.935 40.9 643.402 40.9C649.735 40.9 654.602 42.6333 658.002 46.1C661.469 49.5667 663.202 54.4667 663.202 60.8V87H660.002V60.8C660.002 55.3333 658.535 51.1333 655.602 48.2C652.735 45.2 648.669 43.7 643.402 43.7C640.202 43.7 637.269 44.4667 634.602 46C631.935 47.4667 629.835 49.5333 628.302 52.2C626.769 54.8 626.002 57.6667 626.002 60.8V87H622.802V12ZM716.429 87.9C715.496 87.9 714.663 87.5667 713.929 86.9C713.263 86.2333 712.929 85.4 712.929 84.4C712.929 83.4667 713.263 82.6667 713.929 82C714.663 81.3333 715.496 81 716.429 81C717.363 81 718.163 81.3333 718.829 82C719.563 82.6667 719.929 83.4667 719.929 84.4C719.929 85.4 719.563 86.2333 718.829 86.9C718.163 87.5667 717.363 87.9 716.429 87.9ZM790.896 88.1C786.563 88.1 782.563 87.0333 778.896 84.9C775.296 82.7667 772.43 79.9 770.296 76.3C768.163 72.7 767.096 68.7667 767.096 64.5C767.096 60.2333 768.163 56.3 770.296 52.7C772.43 49.1 775.296 46.2333 778.896 44.1C782.563 41.9667 786.563 40.9 790.896 40.9C795.096 40.9 799.096 42.0333 802.896 44.3C806.696 46.5 809.496 49.4 811.296 53V12H814.496V87H811.296V76.1C809.296 79.7 806.396 82.6 802.596 84.8C798.863 87 794.963 88.1 790.896 88.1ZM790.796 85.3C794.463 85.3 797.863 84.3667 800.996 82.5C804.196 80.5667 806.73 78.0333 808.596 74.9C810.53 71.7 811.496 68.2667 811.496 64.6C811.496 60.9333 810.53 57.5 808.596 54.3C806.73 51.1 804.196 48.5333 800.996 46.6C797.863 44.6667 794.463 43.7 790.796 43.7C787.13 43.7 783.73 44.6667 780.596 46.6C777.463 48.4667 774.963 51 773.096 54.2C771.23 57.4 770.296 60.8333 770.296 64.5C770.296 68.2333 771.196 71.7 772.996 74.9C774.863 78.0333 777.363 80.5667 780.496 82.5C783.696 84.3667 787.13 85.3 790.796 85.3ZM889.018 85.4C892.485 85.4 895.785 84.5 898.918 82.7C902.052 80.9 904.652 78.4333 906.718 75.3V80.4C904.252 83.1333 901.552 85.1333 898.618 86.4C895.685 87.6 892.352 88.2 888.618 88.2C884.485 88.2 880.585 87.1 876.918 84.9C873.318 82.7 870.418 79.7667 868.218 76.1C866.085 72.4333 865.018 68.5333 865.018 64.4C865.018 59.9333 866.085 55.9333 868.218 52.4C870.352 48.8 873.252 46 876.918 44C880.652 42 884.785 41 889.318 41C896.252 41 902.152 43.7333 907.018 49.2L875.618 80.2C877.818 82 879.952 83.3333 882.018 84.2C884.085 85 886.418 85.4 889.018 85.4ZM868.218 64.1C868.218 69.6333 870.052 74.3667 873.718 78.3L903.018 49.2C900.818 47.2667 898.685 45.9 896.618 45.1C894.552 44.2333 892.085 43.8 889.218 43.8C885.152 43.8 881.518 44.7 878.318 46.5C875.185 48.2333 872.718 50.6333 870.918 53.7C869.118 56.7667 868.218 60.2333 868.218 64.1ZM967.921 88.1C964.721 88.1 961.887 87.5667 959.421 86.5C956.954 85.3667 955.187 83.9333 954.121 82.2V76.9C955.387 79.7667 957.121 81.9 959.321 83.3C961.521 84.6333 964.321 85.3 967.721 85.3C970.987 85.3 973.621 84.3 975.621 82.3C977.621 80.2333 978.621 77.6 978.621 74.4C978.621 71.6667 978.054 69.5667 976.921 68.1C975.787 66.5667 973.954 65.0333 971.421 63.5L967.621 61.3C964.887 59.6333 962.821 58.3333 961.421 57.4C960.087 56.4 959.021 55.3 958.221 54.1C957.421 52.8333 957.021 51.3667 957.021 49.7C957.021 47.0333 957.954 44.9 959.821 43.3C961.687 41.7 964.121 40.9 967.121 40.9C970.787 40.9 973.854 41.7333 976.321 43.4V47.8C974.254 45.0667 971.287 43.7 967.421 43.7C965.287 43.7 963.554 44.2333 962.221 45.3C960.887 46.3667 960.221 47.7333 960.221 49.4C960.221 50.8667 960.621 52.1667 961.421 53.3C962.221 54.3667 963.321 55.3667 964.721 56.3C966.187 57.2333 968.587 58.6333 971.921 60.5C975.321 62.4333 977.821 64.4333 979.421 66.5C981.021 68.5 981.821 71.1333 981.821 74.4C981.821 78.5333 980.454 81.8667 977.721 84.4C975.054 86.8667 971.787 88.1 967.921 88.1ZM1035.69 31.7C1034.75 31.7 1033.92 31.3667 1033.19 30.7C1032.52 30.0333 1032.19 29.2 1032.19 28.2C1032.19 27.2667 1032.52 26.4667 1033.19 25.8C1033.92 25.1333 1034.75 24.8 1035.69 24.8C1036.62 24.8 1037.42 25.1333 1038.09 25.8C1038.82 26.4667 1039.19 27.2667 1039.19 28.2C1039.19 29.2 1038.82 30.0333 1038.09 30.7C1037.42 31.3667 1036.62 31.7 1035.69 31.7ZM1034.09 42H1037.29V87H1034.09V42ZM1113.9 107.8C1110.1 107.8 1106.4 106.933 1102.8 105.2C1099.2 103.467 1096.4 101.2 1094.4 98.4V93.8C1096.13 97 1098.83 99.6667 1102.5 101.8C1106.23 103.933 1110.03 105 1113.9 105C1120.3 105 1125.23 103.1 1128.7 99.3C1132.16 95.5667 1133.9 90.0667 1133.9 82.8V76.1C1132.1 79.7 1129.26 82.6333 1125.4 84.9C1121.6 87.1 1117.6 88.2 1113.4 88.2C1109.13 88.2 1105.16 87.1333 1101.5 85C1097.83 82.8667 1094.93 80 1092.8 76.4C1090.66 72.7333 1089.6 68.8 1089.6 64.6C1089.6 60.4 1090.66 56.5 1092.8 52.9C1094.93 49.2333 1097.83 46.3333 1101.5 44.2C1105.16 42.0667 1109.13 41 1113.4 41C1117.8 41 1121.86 42.1 1125.6 44.3C1129.33 46.5 1132.1 49.4667 1133.9 53.2V42H1137.1V82.8C1137.1 91 1135.1 97.2 1131.1 101.4C1127.16 105.667 1121.43 107.8 1113.9 107.8ZM1113.6 85.4C1117.26 85.4 1120.66 84.4667 1123.8 82.6C1126.93 80.6667 1129.4 78.1333 1131.2 75C1133.06 71.8 1134 68.3333 1134 64.6C1134 60.8667 1133.06 57.4333 1131.2 54.3C1129.4 51.1 1126.93 48.5667 1123.8 46.7C1120.66 44.7667 1117.26 43.8 1113.6 43.8C1109.86 43.8 1106.4 44.7667 1103.2 46.7C1100.06 48.5667 1097.53 51.1 1095.6 54.3C1093.73 57.4333 1092.8 60.8667 1092.8 64.6C1092.8 68.3333 1093.73 71.8 1095.6 75C1097.53 78.1333 1100.06 80.6667 1103.2 82.6C1106.4 84.4667 1109.86 85.4 1113.6 85.4ZM1189.72 42H1192.92V52C1194.38 48.6667 1196.88 46 1200.42 44C1203.95 41.9333 1207.85 40.9 1212.12 40.9C1217.65 40.9 1222.02 42.6667 1225.22 46.2C1228.48 49.6667 1230.12 54.5333 1230.12 60.8V87H1226.92V60.8C1226.92 55.4 1225.58 51.2 1222.92 48.2C1220.32 45.2 1216.65 43.7 1211.92 43.7C1208.45 43.7 1205.25 44.5 1202.32 46.1C1199.45 47.6333 1197.15 49.7667 1195.42 52.5C1193.75 55.2333 1192.92 58.3333 1192.92 61.8V87H1189.72V42Z" transform="translate(1)" fill="#FF0000"/>
<path d="M11.2566 86.5L10.8391 87.4087L10.8494 87.4134L10.8597 87.4179L11.2566 86.5ZM5.95664 82.2H4.95664V82.483L5.10498 82.7241L5.95664 82.2ZM5.95664 76.9L6.87133 76.4958L4.95664 76.9H5.95664ZM11.1566 83.3L10.6198 84.1437L10.629 84.1495L10.6383 84.1552L11.1566 83.3ZM27.4566 82.3L28.1637 83.0071L28.1695 83.0013L28.1752 82.9954L27.4566 82.3ZM28.7566 68.1L27.9525 68.6944L27.9588 68.703L27.9654 68.7114L28.7566 68.1ZM23.2566 63.5L23.7744 62.6445L23.7661 62.6395L23.7577 62.6346L23.2566 63.5ZM19.4566 61.3L18.936 62.1538L18.9458 62.1597L18.9556 62.1654L19.4566 61.3ZM13.2566 57.4L12.6566 58.2L12.6788 58.2167L12.7019 58.232L13.2566 57.4ZM10.0566 54.1L9.21115 54.634L9.21774 54.6444L9.22459 54.6547L10.0566 54.1ZM11.6566 43.3L12.3074 44.0593L12.3074 44.0593L11.6566 43.3ZM28.1566 43.4H29.1566V42.8688L28.7165 42.5714L28.1566 43.4ZM28.1566 47.8L27.359 48.4031L29.1566 50.7807V47.8H28.1566ZM14.0566 45.3L13.4319 44.5191L13.4319 44.5191L14.0566 45.3ZM13.2566 53.3L12.4397 53.8767L12.448 53.8885L12.4566 53.9L13.2566 53.3ZM16.5566 56.3L16.0019 57.132L16.0108 57.1379L16.0198 57.1437L16.5566 56.3ZM23.7566 60.5L24.251 59.6307L24.2452 59.6275L23.7566 60.5ZM31.2566 66.5L30.4659 67.1122L30.4708 67.1185L30.4758 67.1247L31.2566 66.5ZM29.5566 84.4L30.2357 85.1341L30.2364 85.1334L29.5566 84.4ZM19.7566 87.1C16.6676 87.1 13.9734 86.5853 11.6536 85.5821L10.8597 87.4179C13.4732 88.548 16.4457 89.1 19.7566 89.1V87.1ZM11.6741 85.5913C9.32828 84.5135 7.74206 83.1933 6.8083 81.6759L5.10498 82.7241C6.30455 84.6734 8.25167 86.2198 10.8391 87.4087L11.6741 85.5913ZM6.95664 82.2V76.9H4.95664V82.2H6.95664ZM5.04195 77.3042C6.37208 80.3144 8.22209 82.6179 10.6198 84.1437L11.6935 82.4563C9.69119 81.1821 8.07454 79.2189 6.87133 76.4958L5.04195 77.3042ZM10.6383 84.1552C13.0373 85.6091 16.0311 86.3 19.5566 86.3V84.3C16.2821 84.3 13.676 83.6576 11.6749 82.4448L10.6383 84.1552ZM19.5566 86.3C23.044 86.3 25.9469 85.2239 28.1637 83.0071L26.7495 81.5929C24.9664 83.3761 22.6026 84.3 19.5566 84.3V86.3ZM28.1752 82.9954C30.3767 80.7205 31.4566 77.8277 31.4566 74.4H29.4566C29.4566 77.3723 28.5365 79.7461 26.738 81.6046L28.1752 82.9954ZM31.4566 74.4C31.4566 71.5462 30.8675 69.1962 29.5479 67.4886L27.9654 68.7114C28.9125 69.9371 29.4566 71.7871 29.4566 74.4H31.4566ZM29.5608 67.5056C28.3192 65.8257 26.3643 64.212 23.7744 62.6445L22.7388 64.3555C25.2157 65.8546 26.9274 67.3076 27.9525 68.6944L29.5608 67.5056ZM23.7577 62.6346L19.9577 60.4346L18.9556 62.1654L22.7556 64.3654L23.7577 62.6346ZM19.9772 60.4462C17.2472 58.7815 15.1942 57.4899 13.8113 56.5679L12.7019 58.232C14.1191 59.1768 16.1995 60.4852 18.936 62.1538L19.9772 60.4462ZM13.8566 56.6C12.6001 55.6576 11.6169 54.6376 10.8887 53.5453L9.22459 54.6547C10.0964 55.9624 11.2465 57.1424 12.6566 58.2L13.8566 56.6ZM10.9021 53.566C10.2142 52.4768 9.85664 51.1996 9.85664 49.7H7.85664C7.85664 51.5337 8.2991 53.1899 9.21115 54.634L10.9021 53.566ZM9.85664 49.7C9.85664 47.2973 10.6828 45.4518 12.3074 44.0593L11.0059 42.5407C8.89715 44.3482 7.85664 46.7694 7.85664 49.7H9.85664ZM12.3074 44.0593C13.9552 42.6469 16.1406 41.9 18.9566 41.9V39.9C15.7726 39.9 13.0914 40.7531 11.0058 42.5407L12.3074 44.0593ZM18.9566 41.9C22.4704 41.9 25.3303 42.6971 27.5968 44.2286L28.7165 42.5714C26.0497 40.7695 22.7763 39.9 18.9566 39.9V41.9ZM27.1566 43.4V47.8H29.1566V43.4H27.1566ZM28.9543 47.1969C26.6725 44.179 23.3907 42.7 19.2566 42.7V44.7C22.8559 44.7 25.5075 45.9543 27.359 48.4031L28.9543 47.1969ZM19.2566 42.7C16.9542 42.7 14.9831 43.2782 13.4319 44.5191L14.6813 46.0809C15.7969 45.1885 17.2924 44.7 19.2566 44.7V42.7ZM13.4319 44.5191C11.8682 45.7702 11.0566 47.421 11.0566 49.4H13.0566C13.0566 48.0457 13.5785 46.9632 14.6813 46.0809L13.4319 44.5191ZM11.0566 49.4C11.0566 51.0607 11.5136 52.5647 12.4397 53.8767L14.0736 52.7233C13.3997 51.7687 13.0566 50.6727 13.0566 49.4H11.0566ZM12.4566 53.9C13.3398 55.0776 14.5312 56.1516 16.0019 57.132L17.1113 55.4679C15.7821 54.5818 14.7735 53.6557 14.0566 52.7L12.4566 53.9ZM16.0198 57.1437C17.5119 58.0932 19.9329 59.5048 23.268 61.3725L24.2452 59.6275C20.9137 57.7618 18.5347 56.3735 17.0935 55.4563L16.0198 57.1437ZM23.2623 61.3693C26.5992 63.2667 28.9766 65.1884 30.4659 67.1122L32.0474 65.8878C30.3367 63.6782 27.7141 61.6 24.2509 59.6307L23.2623 61.3693ZM30.4758 67.1247C31.8987 68.9034 32.6566 71.2968 32.6566 74.4H34.6566C34.6566 70.9698 33.8145 68.0966 32.0375 65.8753L30.4758 67.1247ZM32.6566 74.4C32.6566 78.2886 31.3826 81.3442 28.8769 83.6666L30.2364 85.1334C33.1974 82.3891 34.6566 78.778 34.6566 74.4H32.6566ZM28.8776 83.6659C26.4084 85.9499 23.3893 87.1 19.7566 87.1V89.1C23.8573 89.1 27.3716 87.7834 30.2357 85.1341L28.8776 83.6659ZM146.995 30.7L146.288 31.4071L146.305 31.4239L146.322 31.4399L146.995 30.7ZM146.995 25.8L146.322 25.0601L146.305 25.0761L146.288 25.0929L146.995 25.8ZM151.895 25.8L151.188 26.5071L151.205 26.5239L151.222 26.5399L151.895 25.8ZM151.895 30.7L151.222 29.9601L151.205 29.9761L151.188 29.9929L151.895 30.7ZM147.895 42V41H146.895V42H147.895ZM151.095 42H152.095V41H151.095V42ZM151.095 87V88H152.095V87H151.095ZM147.895 87H146.895V88H147.895V87ZM149.495 30.7C148.827 30.7 148.229 30.4707 147.668 29.9601L146.322 31.4399C147.227 32.2626 148.296 32.7 149.495 32.7V30.7ZM147.702 29.9929C147.235 29.526 146.995 28.9526 146.995 28.2H144.995C144.995 29.4474 145.421 30.5406 146.288 31.4071L147.702 29.9929ZM146.995 28.2C146.995 27.5349 147.221 26.9884 147.702 26.5071L146.288 25.0929C145.436 25.945 144.995 26.9984 144.995 28.2H146.995ZM147.668 26.5399C148.229 26.0293 148.827 25.8 149.495 25.8V23.8C148.296 23.8 147.227 24.2374 146.322 25.0601L147.668 26.5399ZM149.495 25.8C150.16 25.8 150.707 26.0258 151.188 26.5071L152.602 25.0929C151.75 24.2408 150.696 23.8 149.495 23.8V25.8ZM151.222 26.5399C151.762 27.0303 151.995 27.5675 151.995 28.2H153.995C153.995 26.9659 153.495 25.903 152.568 25.0601L151.222 26.5399ZM151.995 28.2C151.995 28.9212 151.745 29.4849 151.222 29.9601L152.568 31.4399C153.512 30.5818 153.995 29.4788 153.995 28.2H151.995ZM151.188 29.9929C150.707 30.4742 150.16 30.7 149.495 30.7V32.7C150.696 32.7 151.75 32.2592 152.602 31.4071L151.188 29.9929ZM147.895 43H151.095V41H147.895V43ZM150.095 42V87H152.095V42H150.095ZM151.095 86H147.895V88H151.095V86ZM148.895 87V42H146.895V87H148.895ZM223.105 87.9V88.9H224.105V87.9H223.105ZM214.505 85.8L214.014 86.671L214.022 86.6758L214.031 86.6805L214.505 85.8ZM208.305 79.7L209.166 79.192L209.166 79.192L208.305 79.7ZM206.005 12V11H205.005V12H206.005ZM209.205 12H210.205V11H209.205V12ZM211.005 78.2L210.134 78.6903L210.139 78.7005L210.145 78.7105L211.005 78.2ZM216.105 83.3L215.595 84.1599L215.605 84.1658L215.615 84.1716L216.105 83.3ZM223.105 85.1H224.105V84.1H223.105V85.1ZM223.105 86.9C220.127 86.9 217.425 86.2363 214.979 84.9195L214.031 86.6805C216.786 88.1637 219.817 88.9 223.105 88.9V86.9ZM214.996 84.929C212.551 83.5497 210.612 81.6424 209.166 79.192L207.444 80.208C209.065 82.9576 211.259 85.1169 214.014 86.671L214.996 84.929ZM209.166 79.192C207.729 76.7553 207.005 74.0325 207.005 71H205.005C205.005 74.3675 205.814 77.4447 207.444 80.208L209.166 79.192ZM207.005 71V12H205.005V71H207.005ZM206.005 13H209.205V11H206.005V13ZM208.205 12V71H210.205V12H208.205ZM208.205 71C208.205 73.8226 208.842 76.3941 210.134 78.6903L211.877 77.7097C210.768 75.7393 210.205 73.5107 210.205 71H208.205ZM210.145 78.7105C211.497 80.9877 213.317 82.8078 215.595 84.1599L216.616 82.4401C214.626 81.2589 213.046 79.679 211.865 77.6895L210.145 78.7105ZM215.615 84.1716C217.903 85.4588 220.406 86.1 223.105 86.1V84.1C220.737 84.1 218.574 83.5412 216.595 82.4284L215.615 84.1716ZM222.105 85.1V87.9H224.105V85.1H222.105ZM285.246 84.8L284.739 85.6616L284.745 85.6654L285.246 84.8ZM276.646 76.1L277.521 75.6144L275.646 72.2409V76.1H276.646ZM276.646 87V88H277.646V87H276.646ZM273.446 87H272.446V88H273.446V87ZM273.446 12V11H272.446V12H273.446ZM276.646 12H277.646V11H276.646V12ZM276.646 53.4H275.646L277.55 53.8281L276.646 53.4ZM285.046 44.3L284.534 43.4412L284.534 43.4412L285.046 44.3ZM308.946 44.1L308.437 44.9603L308.444 44.9643L308.946 44.1ZM317.646 52.7L316.786 53.2098L316.786 53.2098L317.646 52.7ZM317.646 76.3L316.786 75.7902L316.786 75.7902L317.646 76.3ZM308.946 84.9L308.444 84.0356L308.437 84.0397L308.946 84.9ZM307.446 82.5L307.958 83.3591L307.965 83.3551L307.972 83.351L307.446 82.5ZM314.846 74.9L313.983 74.3961L313.979 74.4019L314.846 74.9ZM314.846 54.2L315.71 53.6961L315.71 53.6961L314.846 54.2ZM307.346 46.6L306.821 47.451L306.828 47.4551L306.835 47.4591L307.346 46.6ZM286.846 46.6L286.329 45.744L286.321 45.749L286.846 46.6ZM279.246 54.3L278.391 53.7829L278.387 53.7895L278.383 53.7961L279.246 54.3ZM279.246 74.9L278.383 75.4039L278.389 75.4146L278.395 75.4251L279.246 74.9ZM286.946 82.5L286.429 83.3559L286.436 83.3599L286.443 83.3638L286.946 82.5ZM297.046 87.1C293.17 87.1 289.408 86.0537 285.748 83.9346L284.745 85.6654C288.685 87.9463 292.79 89.1 297.046 89.1V87.1ZM285.754 83.9385C282.166 81.824 279.43 79.0504 277.521 75.6144L275.772 76.5856C277.863 80.3496 280.86 83.376 284.739 85.6615L285.754 83.9385ZM275.646 76.1V87H277.646V76.1H275.646ZM276.646 86H273.446V88H276.646V86ZM274.446 87V12H272.446V87H274.446ZM273.446 13H276.646V11H273.446V13ZM275.646 12V53.4H277.646V12H275.646ZM277.55 53.8281C279.261 50.2169 281.92 47.3295 285.559 45.1588L284.534 43.4412C280.573 45.8038 277.632 48.9831 275.743 52.9719L277.55 53.8281ZM285.559 45.1588C289.212 42.9794 293.037 41.9 297.046 41.9V39.9C292.656 39.9 288.48 41.0873 284.534 43.4412L285.559 45.1588ZM297.046 41.9C301.207 41.9 304.997 42.9218 308.437 44.9603L309.456 43.2397C305.696 41.0116 301.553 39.9 297.046 39.9V41.9ZM308.444 44.9643C311.965 47.0131 314.741 49.7586 316.786 53.2098L318.507 52.1902C316.285 48.4414 313.261 45.4535 309.449 43.2356L308.444 44.9643ZM316.786 53.2098C318.826 56.6523 319.846 60.409 319.846 64.5H321.846C321.846 60.0576 320.733 55.9477 318.507 52.1902L316.786 53.2098ZM319.846 64.5C319.846 68.591 318.826 72.3477 316.786 75.7902L318.507 76.8098C320.733 73.0523 321.846 68.9424 321.846 64.5H319.846ZM316.786 75.7902C314.741 79.2414 311.965 81.9869 308.444 84.0357L309.449 85.7643C313.261 83.5465 316.285 80.5586 318.507 76.8098L316.786 75.7902ZM308.437 84.0397C304.997 86.0782 301.207 87.1 297.046 87.1V89.1C301.553 89.1 305.696 87.9884 309.456 85.7603L308.437 84.0397ZM297.246 86.3C301.092 86.3 304.669 85.3185 307.958 83.3591L306.935 81.6409C303.957 83.4148 300.734 84.3 297.246 84.3V86.3ZM307.972 83.351C311.244 81.3321 313.829 78.6785 315.714 75.3981L313.979 74.4019C312.264 77.3881 309.916 79.8013 306.921 81.649L307.972 83.351ZM315.71 75.4039C317.667 72.0497 318.646 68.4089 318.646 64.5H316.646C316.646 68.0577 315.759 71.3503 313.983 74.3961L315.71 75.4039ZM318.646 64.5C318.646 60.6544 317.665 57.0474 315.71 53.6961L313.983 54.7039C315.761 57.7526 316.646 61.0123 316.646 64.5H318.646ZM315.71 53.6961C313.76 50.3522 311.14 47.6957 307.858 45.7409L306.835 47.4591C309.82 49.2377 312.2 51.6478 313.983 54.7039L315.71 53.6961ZM307.872 45.749C304.581 43.7187 300.999 42.7 297.146 42.7V44.7C300.627 44.7 303.845 45.6147 306.821 47.451L307.872 45.749ZM297.146 42.7C293.294 42.7 289.682 43.7184 286.329 45.7441L287.364 47.4559C290.411 45.6149 293.666 44.7 297.146 44.7V42.7ZM286.321 45.749C283.051 47.7671 280.405 50.4491 278.391 53.7829L280.102 54.8171C281.955 51.7509 284.376 49.2996 287.372 47.451L286.321 45.749ZM278.383 53.7961C276.428 57.1474 275.446 60.7544 275.446 64.6H277.446C277.446 61.1123 278.332 57.8526 280.11 54.8039L278.383 53.7961ZM275.446 64.6C275.446 68.4456 276.428 72.0526 278.383 75.4039L280.11 74.3961C278.332 71.3474 277.446 68.0877 277.446 64.6H275.446ZM278.395 75.4251C280.414 78.6958 283.096 81.3417 286.429 83.3559L287.464 81.6441C284.397 79.7916 281.946 77.3708 280.098 74.3749L278.395 75.4251ZM286.443 83.3638C289.794 85.3187 293.401 86.3 297.246 86.3V84.3C293.759 84.3 290.499 83.4146 287.45 81.6362L286.443 83.3638ZM369.892 42V41H368.892V42H369.892ZM373.092 42H374.092V41H373.092V42ZM373.092 52.4H372.092L374.018 52.7779L373.092 52.4ZM378.892 44.7L378.309 43.8876L378.299 43.8949L378.892 44.7ZM393.992 43.2H394.992V42.5269L394.368 42.2735L393.992 43.2ZM393.992 46.9L393.387 47.6967L394.992 48.9138V46.9H393.992ZM380.492 46.9L379.948 46.0603L379.937 46.0679L380.492 46.9ZM375.092 52.8L374.222 52.3064L374.217 52.3154L374.212 52.3245L375.092 52.8ZM373.092 87V88H374.092V87H373.092ZM369.892 87H368.892V88H369.892V87ZM369.892 43H373.092V41H369.892V43ZM372.092 42V52.4H374.092V42H372.092ZM374.018 52.7779C375.29 49.6603 377.117 47.2498 379.485 45.5051L378.299 43.8949C375.6 45.8835 373.56 48.6064 372.166 52.0221L374.018 52.7779ZM379.475 45.5123C381.901 43.7704 384.63 42.9 387.692 42.9V40.9C384.221 40.9 381.082 41.8963 378.309 43.8877L379.475 45.5123ZM387.692 42.9C389.615 42.9 391.588 43.3028 393.615 44.1265L394.368 42.2735C392.129 41.3638 389.901 40.9 387.692 40.9V42.9ZM392.992 43.2V46.9H394.992V43.2H392.992ZM394.596 46.1033C392.491 44.5063 390.113 43.7 387.492 43.7V45.7C389.671 45.7 391.626 46.3603 393.387 47.6967L394.596 46.1033ZM387.492 43.7C384.876 43.7 382.356 44.5025 379.949 46.0604L381.035 47.7396C383.161 46.3641 385.308 45.7 387.492 45.7V43.7ZM379.937 46.0679C377.598 47.6275 375.693 49.714 374.222 52.3064L375.961 53.2936C377.29 50.9527 378.986 49.1058 381.046 47.732L379.937 46.0679ZM374.212 52.3245C372.8 54.937 372.092 57.7337 372.092 60.7H374.092C374.092 58.0663 374.717 55.5963 375.972 53.2755L374.212 52.3245ZM372.092 60.7V87H374.092V60.7H372.092ZM373.092 86H369.892V88H373.092V86ZM370.892 87V42H368.892V87H370.892ZM447.023 82.9L446.309 83.6002L446.316 83.6071L447.023 82.9ZM441.923 42V41H440.923V42H441.923ZM445.123 42H446.123V41H445.123V42ZM449.423 80.9L448.7 81.5909L448.708 81.5991L448.716 81.6071L449.423 80.9ZM470.523 83.2L470.988 84.0854L470.996 84.0809L471.005 84.0762L470.523 83.2ZM479.123 42V41H478.123V42H479.123ZM482.323 42H483.323V41H482.323V42ZM482.323 87V88H483.323V87H482.323ZM479.123 87H478.123V88H479.123V87ZM479.123 78.6H480.123L478.246 78.1197L479.123 78.6ZM472.223 85.5L472.715 86.3706L472.722 86.3665L472.729 86.3624L472.223 85.5ZM461.723 87.1C455.574 87.1 450.959 85.4217 447.73 82.1929L446.316 83.6071C450.02 87.3116 455.205 89.1 461.723 89.1V87.1ZM447.737 82.1998C444.571 78.9718 442.923 74.3542 442.923 68.2H440.923C440.923 74.7125 442.675 79.8949 446.309 83.6002L447.737 82.1998ZM442.923 68.2V42H440.923V68.2H442.923ZM441.923 43H445.123V41H441.923V43ZM444.123 42V68.2H446.123V42H444.123ZM444.123 68.2C444.123 73.8398 445.605 78.3517 448.7 81.5909L450.146 80.2091C447.508 77.4483 446.123 73.4935 446.123 68.2H444.123ZM448.716 81.6071C451.884 84.7751 456.266 86.3 461.723 86.3V84.3C456.646 84.3 452.829 82.8915 450.13 80.1929L448.716 81.6071ZM461.723 86.3C465.075 86.3 468.169 85.5654 470.988 84.0854L470.058 82.3146C467.544 83.6346 464.772 84.3 461.723 84.3V86.3ZM471.005 84.0762C473.827 82.5238 476.059 80.3639 477.684 77.608L475.962 76.592C474.52 79.0361 472.552 80.9428 470.041 82.3238L471.005 84.0762ZM477.684 77.608C479.318 74.8384 480.123 71.6928 480.123 68.2H478.123C478.123 71.3738 477.395 74.1616 475.962 76.592L477.684 77.608ZM480.123 68.2V42H478.123V68.2H480.123ZM479.123 43H482.323V41H479.123V43ZM481.323 42V87H483.323V42H481.323ZM482.323 86H479.123V88H482.323V86ZM480.123 87V78.6H478.123V87H480.123ZM478.246 78.1197C476.809 80.7436 474.646 82.9184 471.717 84.6376L472.729 86.3624C475.934 84.4816 478.37 82.0564 480 79.0803L478.246 78.1197ZM471.731 84.6294C468.831 86.2684 465.504 87.1 461.723 87.1V89.1C465.808 89.1 469.481 88.1983 472.715 86.3706L471.731 84.6294ZM544.15 85.2L543.653 86.0673L543.659 86.0712L544.15 85.2ZM535.55 76.7L536.411 76.1902L536.411 76.1902L535.55 76.7ZM535.55 52.9L536.406 53.4169L536.411 53.4098L535.55 52.9ZM544.25 44.3L543.754 43.4317L543.747 43.4357L544.25 44.3ZM566.15 42.9L566.561 41.9881L566.561 41.9881L566.15 42.9ZM573.95 48.5H574.95V48.0858L574.657 47.7929L573.95 48.5ZM573.95 53.9L573.121 54.4586L574.95 57.175V53.9H573.95ZM566.55 46.5L566.005 47.3384L566.017 47.3463L566.03 47.3538L566.55 46.5ZM546.15 46.8L546.654 47.6638L546.66 47.6606L546.15 46.8ZM538.45 54.4L539.306 54.9171L539.306 54.9171L538.45 54.4ZM538.35 75.5L537.487 76.0039L537.491 76.0118L538.35 75.5ZM545.85 82.9L545.352 83.7671L545.363 83.7733L545.374 83.7793L545.85 82.9ZM573.95 75.4H574.95V72.0416L573.113 74.853L573.95 75.4ZM573.95 80.8L574.676 81.4877L574.95 81.1985V80.8H573.95ZM565.95 86.5L566.337 87.4225L566.347 87.4181L565.95 86.5ZM556.15 87.3C551.984 87.3 548.154 86.3085 544.641 84.3288L543.659 86.0712C547.48 88.2249 551.65 89.3 556.15 89.3V87.3ZM544.648 84.3327C541.199 82.3527 538.457 79.643 536.411 76.1902L534.69 77.2098C536.911 80.957 539.902 83.914 543.653 86.0673L544.648 84.3327ZM536.411 76.1902C534.376 72.7573 533.35 68.8694 533.35 64.5H531.35C531.35 69.1973 532.458 73.4427 534.69 77.2098L536.411 76.1902ZM533.35 64.5C533.35 60.4788 534.369 56.7914 536.406 53.4169L534.694 52.3831C532.465 56.0753 531.35 60.1212 531.35 64.5H533.35ZM536.411 53.4098C538.456 49.9586 541.232 47.2131 544.753 45.1643L543.747 43.4357C539.936 45.6535 536.912 48.6414 534.69 52.3902L536.411 53.4098ZM544.747 45.1682C548.323 43.1247 552.251 42.1 556.55 42.1V40.1C551.917 40.1 547.645 41.2087 543.754 43.4318L544.747 45.1682ZM556.55 42.1C560.18 42.1 563.233 42.6837 565.74 43.8119L566.561 41.9881C563.735 40.7163 560.387 40.1 556.55 40.1V42.1ZM565.74 43.8119C568.274 44.9524 570.777 46.7408 573.243 49.2071L574.657 47.7929C572.057 45.1925 569.36 43.2476 566.561 41.9881L565.74 43.8119ZM572.95 48.5V53.9H574.95V48.5H572.95ZM574.78 53.3414C572.517 49.9821 569.952 47.4031 567.071 45.6462L566.03 47.3538C568.615 48.9303 570.983 51.2846 573.121 54.4586L574.78 53.3414ZM567.095 45.6616C564.229 43.7986 560.694 42.9 556.55 42.9V44.9C560.407 44.9 563.538 45.7347 566.005 47.3384L567.095 45.6616ZM556.55 42.9C552.698 42.9 549.056 43.9182 545.641 45.9394L546.66 47.6606C549.778 45.8151 553.069 44.9 556.55 44.9V42.9ZM545.647 45.9362C542.301 47.888 539.613 50.5411 537.594 53.8829L539.306 54.9171C541.154 51.8589 543.6 49.4453 546.654 47.6638L545.647 45.9362ZM537.594 53.8829C535.569 57.2357 534.55 60.8473 534.55 64.7H536.55C536.55 61.2193 537.465 57.9643 539.306 54.9171L537.594 53.8829ZM534.55 64.7C534.55 68.8625 535.524 72.6388 537.487 76.0039L539.214 74.9961C537.444 71.9612 536.55 68.5375 536.55 64.7H534.55ZM537.491 76.0118C539.445 79.2911 542.069 81.8808 545.352 83.7671L546.349 82.0329C543.365 80.3192 540.989 77.9755 539.209 74.9882L537.491 76.0118ZM545.374 83.7793C548.722 85.5925 552.319 86.5 556.15 86.5V84.5C552.649 84.5 549.379 83.6742 546.327 82.0207L545.374 83.7793ZM556.15 86.5C563.985 86.5 570.22 82.937 574.788 75.947L573.113 74.853C568.881 81.3297 563.25 84.5 556.15 84.5V86.5ZM572.95 75.4V80.8H574.95V75.4H572.95ZM573.224 80.1123C570.909 82.5564 568.352 84.3737 565.554 85.5819L566.347 87.4181C569.416 86.093 572.192 84.1102 574.676 81.4877L573.224 80.1123ZM565.564 85.5776C562.84 86.718 559.708 87.3 556.15 87.3V89.3C559.926 89.3 563.328 88.682 566.337 87.4224L565.564 85.5776ZM622.802 12V11H621.802V12H622.802ZM626.002 12H627.002V11H626.002V12ZM626.002 51.3H625.002L626.908 51.7229L626.002 51.3ZM633.102 43.9L633.604 44.765L633.609 44.7619L633.102 43.9ZM658.002 46.1L657.288 46.8002L657.295 46.8071L658.002 46.1ZM663.202 87V88H664.202V87H663.202ZM660.002 87H659.002V88H660.002V87ZM655.602 48.2L654.879 48.8909L654.887 48.8991L654.895 48.9071L655.602 48.2ZM634.602 46L635.084 46.8762L635.092 46.8716L635.1 46.8669L634.602 46ZM628.302 52.2L629.163 52.708L629.169 52.6985L628.302 52.2ZM626.002 87V88H627.002V87H626.002ZM622.802 87H621.802V88H622.802V87ZM622.802 13H626.002V11H622.802V13ZM625.002 12V51.3H627.002V12H625.002ZM626.908 51.7229C628.208 48.9371 630.417 46.6131 633.604 44.765L632.6 43.035C629.12 45.0536 626.596 47.6629 625.096 50.8771L626.908 51.7229ZM633.609 44.7619C636.877 42.8396 640.137 41.9 643.402 41.9V39.9C639.734 39.9 636.127 40.9604 632.595 43.0381L633.609 44.7619ZM643.402 41.9C649.552 41.9 654.128 43.5787 657.288 46.8002L658.716 45.3998C655.075 41.688 649.919 39.9 643.402 39.9V41.9ZM657.295 46.8071C660.524 50.0359 662.202 54.651 662.202 60.8H664.202C664.202 54.2823 662.414 49.0974 658.709 45.3929L657.295 46.8071ZM662.202 60.8V87H664.202V60.8H662.202ZM663.202 86H660.002V88H663.202V86ZM661.002 87V60.8H659.002V87H661.002ZM661.002 60.8C661.002 55.1556 659.484 50.6677 656.309 47.4929L654.895 48.9071C657.587 51.599 659.002 55.5111 659.002 60.8H661.002ZM656.325 47.5091C653.222 44.2617 648.864 42.7 643.402 42.7V44.7C648.473 44.7 652.249 46.1383 654.879 48.8909L656.325 47.5091ZM643.402 42.7C640.034 42.7 636.928 43.509 634.103 45.1331L635.1 46.8669C637.609 45.4244 640.37 44.7 643.402 44.7V42.7ZM634.12 45.1238C631.291 46.6797 629.059 48.8779 627.435 51.7015L629.169 52.6985C630.612 50.1888 632.58 48.2536 635.084 46.8762L634.12 45.1238ZM627.441 51.692C625.813 54.4519 625.002 57.4951 625.002 60.8H627.002C627.002 57.8382 627.724 55.1481 629.163 52.708L627.441 51.692ZM625.002 60.8V87H627.002V60.8H625.002ZM626.002 86H622.802V88H626.002V86ZM623.802 87V12H621.802V87H623.802ZM713.929 86.9L713.222 87.6071L713.239 87.6239L713.257 87.6399L713.929 86.9ZM713.929 82L713.257 81.2601L713.239 81.2761L713.222 81.2929L713.929 82ZM718.829 82L718.122 82.7071L718.139 82.7239L718.157 82.7399L718.829 82ZM718.829 86.9L718.157 86.1601L718.139 86.1761L718.122 86.1929L718.829 86.9ZM716.429 86.9C715.761 86.9 715.164 86.6707 714.602 86.1601L713.257 87.6399C714.162 88.4626 715.231 88.9 716.429 88.9V86.9ZM714.636 86.1929C714.17 85.726 713.929 85.1526 713.929 84.4H711.929C711.929 85.6474 712.356 86.7406 713.222 87.6071L714.636 86.1929ZM713.929 84.4C713.929 83.7349 714.155 83.1884 714.636 82.7071L713.222 81.2929C712.37 82.145 711.929 83.1984 711.929 84.4H713.929ZM714.602 82.7399C715.164 82.2293 715.761 82 716.429 82V80C715.231 80 714.162 80.4374 713.257 81.2601L714.602 82.7399ZM716.429 82C717.094 82 717.641 82.2258 718.122 82.7071L719.536 81.2929C718.684 80.4408 717.631 80 716.429 80V82ZM718.157 82.7399C718.696 83.2303 718.929 83.7675 718.929 84.4H720.929C720.929 83.1659 720.429 82.103 719.502 81.2601L718.157 82.7399ZM718.929 84.4C718.929 85.1212 718.679 85.6849 718.157 86.1601L719.502 87.6399C720.446 86.7818 720.929 85.6788 720.929 84.4H718.929ZM718.122 86.1929C717.641 86.6742 717.094 86.9 716.429 86.9V88.9C717.631 88.9 718.684 88.4592 719.536 87.6071L718.122 86.1929ZM778.896 84.9L778.387 85.7603L778.394 85.7643L778.896 84.9ZM770.296 76.3L771.157 75.7902L771.157 75.7902L770.296 76.3ZM770.296 52.7L769.436 52.1902L769.436 52.1902L770.296 52.7ZM778.896 44.1L778.394 43.2356L778.387 43.2397L778.896 44.1ZM802.896 44.3L802.384 45.1589L802.395 45.1654L802.896 44.3ZM811.296 53L810.402 53.4472L812.296 53H811.296ZM811.296 12V11H810.296V12H811.296ZM814.496 12H815.496V11H814.496V12ZM814.496 87V88H815.496V87H814.496ZM811.296 87H810.296V88H811.296V87ZM811.296 76.1H812.296V72.2409L810.422 75.6144L811.296 76.1ZM802.596 84.8L802.095 83.9345L802.089 83.9385L802.596 84.8ZM800.996 82.5L801.508 83.3591L801.514 83.3559L800.996 82.5ZM808.596 74.9L807.741 74.3829L807.737 74.3882L808.596 74.9ZM808.596 54.3L807.733 54.8039L807.737 54.8105L807.741 54.8171L808.596 54.3ZM800.996 46.6L800.471 47.4511L800.479 47.4559L800.996 46.6ZM780.596 46.6L781.108 47.4591L781.115 47.4551L781.122 47.451L780.596 46.6ZM773.096 54.2L772.233 53.6961L773.096 54.2ZM772.996 74.9L772.125 75.3903L772.131 75.4011L772.137 75.4118L772.996 74.9ZM780.496 82.5L779.971 83.351L779.982 83.3575L779.993 83.3638L780.496 82.5ZM790.896 87.1C786.736 87.1 782.91 86.0782 779.399 84.0357L778.394 85.7643C782.216 87.9885 786.39 89.1 790.896 89.1V87.1ZM779.406 84.0397C775.951 81.9919 773.205 79.2458 771.157 75.7902L769.436 76.8098C771.655 80.5542 774.642 83.5414 778.387 85.7603L779.406 84.0397ZM771.157 75.7902C769.117 72.3477 768.096 68.591 768.096 64.5H766.096C766.096 68.9424 767.21 73.0523 769.436 76.8098L771.157 75.7902ZM768.096 64.5C768.096 60.409 769.117 56.6523 771.157 53.2098L769.436 52.1902C767.21 55.9477 766.096 60.0576 766.096 64.5H768.096ZM771.157 53.2098C773.205 49.7542 775.951 47.0081 779.406 44.9603L778.387 43.2397C774.642 45.4586 771.655 48.4458 769.436 52.1902L771.157 53.2098ZM779.399 44.9643C782.91 42.9218 786.736 41.9 790.896 41.9V39.9C786.39 39.9 782.216 41.0115 778.394 43.2356L779.399 44.9643ZM790.896 41.9C794.906 41.9 798.73 42.9794 802.384 45.1588L803.409 43.4412C799.463 41.0873 795.287 39.9 790.896 39.9V41.9ZM802.395 45.1654C806.042 47.2768 808.697 50.0379 810.402 53.4472L812.191 52.5528C810.296 48.7621 807.351 45.7232 803.398 43.4346L802.395 45.1654ZM812.296 53V12H810.296V53H812.296ZM811.296 13H814.496V11H811.296V13ZM813.496 12V87H815.496V12H813.496ZM814.496 86H811.296V88H814.496V86ZM812.296 87V76.1H810.296V87H812.296ZM810.422 75.6144C808.516 79.0458 805.75 81.8189 802.095 83.9346L803.098 85.6654C807.043 83.3811 810.077 80.3542 812.171 76.5856L810.422 75.6144ZM802.089 83.9385C798.499 86.054 794.773 87.1 790.896 87.1V89.1C795.153 89.1 799.227 87.946 803.104 85.6615L802.089 83.9385ZM790.796 86.3C794.642 86.3 798.219 85.3185 801.508 83.3591L800.485 81.6409C797.507 83.4148 794.284 84.3 790.796 84.3V86.3ZM801.514 83.3559C804.85 81.3399 807.503 78.6898 809.456 75.4118L807.737 74.3882C805.957 77.3769 803.543 79.7934 800.479 81.6441L801.514 83.3559ZM809.452 75.4171C811.478 72.0643 812.496 68.4527 812.496 64.6H810.496C810.496 68.0807 809.582 71.3357 807.741 74.3829L809.452 75.4171ZM812.496 64.6C812.496 60.7473 811.478 57.1357 809.452 53.7829L807.741 54.8171C809.582 57.8643 810.496 61.1193 810.496 64.6H812.496ZM809.46 53.7961C807.509 50.4502 804.855 47.7631 801.514 45.7441L800.479 47.4559C803.538 49.3036 805.951 51.7497 807.733 54.8039L809.46 53.7961ZM801.522 45.749C798.231 43.7187 794.649 42.7 790.796 42.7V44.7C794.277 44.7 797.495 45.6147 800.471 47.451L801.522 45.749ZM790.796 42.7C786.944 42.7 783.362 43.7187 780.071 45.749L781.122 47.451C784.098 45.6147 787.316 44.7 790.796 44.7V42.7ZM780.085 45.7409C776.803 47.6957 774.183 50.3522 772.233 53.6961L773.96 54.7039C775.743 51.6478 778.123 49.2377 781.108 47.4591L780.085 45.7409ZM772.233 53.6961C770.278 57.0474 769.296 60.6544 769.296 64.5H771.296C771.296 61.0123 772.182 57.7526 773.96 54.7039L772.233 53.6961ZM769.296 64.5C769.296 68.402 770.239 72.038 772.125 75.3903L773.868 74.4097C772.154 71.362 771.296 68.0646 771.296 64.5H769.296ZM772.137 75.4118C774.087 78.6848 776.702 81.334 779.971 83.351L781.022 81.649C778.024 79.7993 775.639 77.3819 773.856 74.3882L772.137 75.4118ZM779.993 83.3638C783.344 85.3187 786.951 86.3 790.796 86.3V84.3C787.309 84.3 784.049 83.4146 781 81.6362L779.993 83.3638ZM898.918 82.7L898.42 81.8329L898.42 81.8329L898.918 82.7ZM906.718 75.3H907.718V71.9677L905.884 74.7494L906.718 75.3ZM906.718 80.4L907.461 81.07L907.718 80.7845V80.4H906.718ZM898.618 86.4L898.997 87.3255L899.006 87.3219L899.015 87.3181L898.618 86.4ZM876.918 84.9L876.397 85.7533L876.404 85.7575L876.918 84.9ZM868.218 76.1L867.354 76.6029L867.361 76.6145L868.218 76.1ZM868.218 52.4L869.074 52.9169L869.079 52.9098L868.218 52.4ZM876.918 44L876.446 43.1185L876.44 43.1221L876.918 44ZM907.018 49.2L907.721 49.9116L908.397 49.2444L907.765 48.5351L907.018 49.2ZM875.618 80.2L874.916 79.4884L874.124 80.2697L874.985 80.974L875.618 80.2ZM882.018 84.2L881.632 85.1222L881.644 85.1276L881.657 85.1326L882.018 84.2ZM873.718 78.3L872.987 78.9819L873.691 79.7369L874.423 79.0095L873.718 78.3ZM903.018 49.2L903.723 49.9095L904.482 49.1553L903.678 48.4488L903.018 49.2ZM896.618 45.1L896.232 46.0222L896.244 46.0276L896.257 46.0326L896.618 45.1ZM878.318 46.5L878.802 47.3751L878.809 47.3716L878.318 46.5ZM870.918 53.7L870.056 53.1938L870.918 53.7ZM889.018 86.4C892.667 86.4 896.138 85.4503 899.416 83.5671L898.42 81.8329C895.432 83.5497 892.303 84.4 889.018 84.4V86.4ZM899.416 83.5671C902.691 81.6863 905.404 79.1091 907.553 75.8506L905.884 74.7494C903.899 77.7576 901.413 80.1137 898.42 81.8329L899.416 83.5671ZM905.718 75.3V80.4H907.718V75.3H905.718ZM905.976 79.73C903.591 82.373 901.005 84.2802 898.222 85.4819L899.015 87.3181C902.099 85.9864 904.913 83.8937 907.461 81.07L905.976 79.73ZM898.24 85.4745C895.446 86.6174 892.245 87.2 888.618 87.2V89.2C892.459 89.2 895.924 88.5826 898.997 87.3255L898.24 85.4745ZM888.618 87.2C884.673 87.2 880.95 86.1526 877.433 84.0425L876.404 85.7575C880.22 88.0474 884.297 89.2 888.618 89.2V87.2ZM877.44 84.0467C873.979 81.9321 871.194 79.1157 869.076 75.5855L867.361 76.6145C869.643 80.4176 872.657 83.4679 876.397 85.7533L877.44 84.0467ZM869.083 75.5971C867.036 72.0789 866.018 68.3519 866.018 64.4H864.018C864.018 68.7148 865.134 72.7877 867.354 76.6029L869.083 75.5971ZM866.018 64.4C866.018 60.1 867.043 56.2815 869.074 52.9169L867.362 51.8831C865.127 55.5852 864.018 59.7667 864.018 64.4H866.018ZM869.079 52.9098C871.12 49.4643 873.889 46.7916 877.397 44.8779L876.44 43.1221C872.615 45.2084 869.583 48.1357 867.358 51.8902L869.079 52.9098ZM877.391 44.8815C880.969 42.9647 884.938 42 889.318 42V40C884.632 40 880.335 41.0353 876.446 43.1185L877.391 44.8815ZM889.318 42C895.949 42 901.583 44.598 906.271 49.8649L907.765 48.5351C902.721 42.8687 896.555 40 889.318 40V42ZM906.316 48.4884L874.916 79.4884L876.321 80.9116L907.721 49.9116L906.316 48.4884ZM874.985 80.974C877.241 82.8195 879.456 84.2098 881.632 85.1222L882.405 83.2778C880.447 82.4568 878.396 81.1805 876.252 79.426L874.985 80.974ZM881.657 85.1326C883.857 85.9841 886.316 86.4 889.018 86.4V84.4C886.521 84.4 884.313 84.0159 882.379 83.2674L881.657 85.1326ZM867.218 64.1C867.218 69.8783 869.142 74.8576 872.987 78.9819L874.45 77.6181C870.961 73.8758 869.218 69.3884 869.218 64.1H867.218ZM874.423 79.0095L903.723 49.9095L902.314 48.4905L873.014 77.5905L874.423 79.0095ZM903.678 48.4488C901.417 46.4614 899.185 45.021 896.979 44.1674L896.257 46.0326C898.186 46.779 900.22 48.0719 902.358 49.9512L903.678 48.4488ZM897.005 44.1778C894.787 43.2476 892.182 42.8 889.218 42.8V44.8C891.988 44.8 894.316 45.219 896.232 46.0222L897.005 44.1778ZM889.218 42.8C884.999 42.8 881.193 43.7354 877.828 45.6284L878.809 47.3716C881.843 45.6646 885.305 44.8 889.218 44.8V42.8ZM877.834 45.625C874.545 47.4445 871.947 49.9714 870.056 53.1938L871.781 54.2062C873.489 51.2953 875.825 49.0222 878.802 47.375L877.834 45.625ZM870.056 53.1938C868.158 56.4272 867.218 60.0714 867.218 64.1H869.218C869.218 60.3953 870.079 57.1061 871.781 54.2062L870.056 53.1938ZM959.421 86.5L959.003 87.4087L959.013 87.4134L959.024 87.4179L959.421 86.5ZM954.121 82.2H953.121V82.483L953.269 82.7241L954.121 82.2ZM954.121 76.9L955.035 76.4958L953.121 76.9H954.121ZM959.321 83.3L958.784 84.1437L958.793 84.1495L958.802 84.1552L959.321 83.3ZM975.621 82.3L976.328 83.0071L976.334 83.0013L976.339 82.9954L975.621 82.3ZM976.921 68.1L976.117 68.6944L976.123 68.703L976.129 68.7114L976.921 68.1ZM971.421 63.5L971.939 62.6445L971.93 62.6395L971.922 62.6346L971.421 63.5ZM967.621 61.3L967.1 62.1538L967.11 62.1597L967.12 62.1654L967.621 61.3ZM961.421 57.4L960.821 58.2L960.843 58.2167L960.866 58.232L961.421 57.4ZM958.221 54.1L957.375 54.634L957.382 54.6444L957.389 54.6547L958.221 54.1ZM959.821 43.3L960.471 44.0593L960.471 44.0593L959.821 43.3ZM976.321 43.4H977.321V42.8688L976.881 42.5714L976.321 43.4ZM976.321 47.8L975.523 48.4031L977.321 50.7807V47.8H976.321ZM962.221 45.3L961.596 44.5191L961.596 44.5191L962.221 45.3ZM961.421 53.3L960.604 53.8767L960.612 53.8885L960.621 53.9L961.421 53.3ZM964.721 56.3L964.166 57.132L964.175 57.1379L964.184 57.1437L964.721 56.3ZM971.921 60.5L972.415 59.6307L972.409 59.6275L971.921 60.5ZM979.421 66.5L978.63 67.1122L978.635 67.1185L978.64 67.1247L979.421 66.5ZM977.721 84.4L978.4 85.1341L978.4 85.1334L977.721 84.4ZM967.921 87.1C964.832 87.1 962.137 86.5853 959.818 85.5821L959.024 87.4179C961.637 88.548 964.61 89.1 967.921 89.1V87.1ZM959.838 85.5913C957.492 84.5135 955.906 83.1933 954.972 81.6759L953.269 82.7241C954.469 84.6734 956.416 86.2198 959.003 87.4087L959.838 85.5913ZM955.121 82.2V76.9H953.121V82.2H955.121ZM953.206 77.3042C954.536 80.3144 956.386 82.6179 958.784 84.1437L959.858 82.4563C957.855 81.1821 956.239 79.2189 955.035 76.4958L953.206 77.3042ZM958.802 84.1552C961.201 85.6091 964.195 86.3 967.721 86.3V84.3C964.446 84.3 961.84 83.6576 959.839 82.4448L958.802 84.1552ZM967.721 86.3C971.208 86.3 974.111 85.2239 976.328 83.0071L974.914 81.5929C973.13 83.3761 970.767 84.3 967.721 84.3V86.3ZM976.339 82.9954C978.541 80.7205 979.621 77.8277 979.621 74.4H977.621C977.621 77.3723 976.701 79.7461 974.902 81.6046L976.339 82.9954ZM979.621 74.4C979.621 71.5462 979.032 69.1962 977.712 67.4886L976.129 68.7114C977.077 69.9371 977.621 71.7871 977.621 74.4H979.621ZM977.725 67.5056C976.483 65.8257 974.528 64.212 971.939 62.6445L970.903 64.3555C973.38 65.8546 975.092 67.3076 976.117 68.6944L977.725 67.5056ZM971.922 62.6346L968.122 60.4346L967.12 62.1654L970.92 64.3654L971.922 62.6346ZM968.141 60.4462C965.411 58.7815 963.358 57.4899 961.975 56.5679L960.866 58.232C962.283 59.1768 964.364 60.4852 967.1 62.1538L968.141 60.4462ZM962.021 56.6C960.764 55.6576 959.781 54.6376 959.053 53.5453L957.389 54.6547C958.26 55.9624 959.411 57.1424 960.821 58.2L962.021 56.6ZM959.066 53.566C958.378 52.4768 958.021 51.1996 958.021 49.7H956.021C956.021 51.5337 956.463 53.1899 957.375 54.634L959.066 53.566ZM958.021 49.7C958.021 47.2973 958.847 45.4518 960.471 44.0593L959.17 42.5407C957.061 44.3482 956.021 46.7694 956.021 49.7H958.021ZM960.471 44.0593C962.119 42.6469 964.305 41.9 967.121 41.9V39.9C963.937 39.9 961.255 40.7531 959.17 42.5407L960.471 44.0593ZM967.121 41.9C970.634 41.9 973.494 42.6971 975.761 44.2286L976.881 42.5714C974.214 40.7695 970.94 39.9 967.121 39.9V41.9ZM975.321 43.4V47.8H977.321V43.4H975.321ZM977.118 47.1969C974.837 44.179 971.555 42.7 967.421 42.7V44.7C971.02 44.7 973.672 45.9543 975.523 48.4031L977.118 47.1969ZM967.421 42.7C965.118 42.7 963.147 43.2782 961.596 44.5191L962.845 46.0809C963.961 45.1885 965.456 44.7 967.421 44.7V42.7ZM961.596 44.5191C960.032 45.7702 959.221 47.421 959.221 49.4H961.221C961.221 48.0457 961.743 46.9632 962.845 46.0809L961.596 44.5191ZM959.221 49.4C959.221 51.0607 959.678 52.5647 960.604 53.8767L962.238 52.7233C961.564 51.7687 961.221 50.6727 961.221 49.4H959.221ZM960.621 53.9C961.504 55.0776 962.695 56.1516 964.166 57.132L965.275 55.4679C963.946 54.5818 962.938 53.6557 962.221 52.7L960.621 53.9ZM964.184 57.1437C965.676 58.0932 968.097 59.5048 971.432 61.3725L972.409 59.6275C969.078 57.7618 966.699 56.3735 965.258 55.4563L964.184 57.1437ZM971.426 61.3693C974.763 63.2667 977.141 65.1884 978.63 67.1122L980.211 65.8878C978.501 63.6782 975.878 61.6 972.415 59.6307L971.426 61.3693ZM978.64 67.1247C980.063 68.9034 980.821 71.2968 980.821 74.4H982.821C982.821 70.9698 981.979 68.0966 980.202 65.8753L978.64 67.1247ZM980.821 74.4C980.821 78.2886 979.547 81.3442 977.041 83.6666L978.4 85.1334C981.361 82.3891 982.821 78.778 982.821 74.4H980.821ZM977.042 83.6659C974.572 85.9499 971.553 87.1 967.921 87.1V89.1C972.021 89.1 975.536 87.7834 978.4 85.1341L977.042 83.6659ZM1033.19 30.7L1032.48 31.4071L1032.5 31.4239L1032.51 31.4399L1033.19 30.7ZM1033.19 25.8L1032.51 25.0601L1032.5 25.0761L1032.48 25.0929L1033.19 25.8ZM1038.09 25.8L1037.38 26.5071L1037.4 26.5239L1037.41 26.5399L1038.09 25.8ZM1038.09 30.7L1037.41 29.9601L1037.4 29.9761L1037.38 29.9929L1038.09 30.7ZM1034.09 42V41H1033.09V42H1034.09ZM1037.29 42H1038.29V41H1037.29V42ZM1037.29 87V88H1038.29V87H1037.29ZM1034.09 87H1033.09V88H1034.09V87ZM1035.69 30.7C1035.02 30.7 1034.42 30.4707 1033.86 29.9601L1032.51 31.4399C1033.42 32.2626 1034.49 32.7 1035.69 32.7V30.7ZM1033.89 29.9929C1033.43 29.526 1033.19 28.9526 1033.19 28.2H1031.19C1031.19 29.4474 1031.61 30.5406 1032.48 31.4071L1033.89 29.9929ZM1033.19 28.2C1033.19 27.5349 1033.41 26.9884 1033.89 26.5071L1032.48 25.0929C1031.63 25.945 1031.19 26.9984 1031.19 28.2H1033.19ZM1033.86 26.5399C1034.42 26.0293 1035.02 25.8 1035.69 25.8V23.8C1034.49 23.8 1033.42 24.2374 1032.51 25.0601L1033.86 26.5399ZM1035.69 25.8C1036.35 25.8 1036.9 26.0258 1037.38 26.5071L1038.79 25.0929C1037.94 24.2408 1036.89 23.8 1035.69 23.8V25.8ZM1037.41 26.5399C1037.95 27.0303 1038.19 27.5675 1038.19 28.2H1040.19C1040.19 26.9659 1039.69 25.903 1038.76 25.0601L1037.41 26.5399ZM1038.19 28.2C1038.19 28.9212 1037.94 29.4849 1037.41 29.9601L1038.76 31.4399C1039.7 30.5818 1040.19 29.4788 1040.19 28.2H1038.19ZM1037.38 29.9929C1036.9 30.4742 1036.35 30.7 1035.69 30.7V32.7C1036.89 32.7 1037.94 32.2592 1038.79 31.4071L1037.38 29.9929ZM1034.09 43H1037.29V41H1034.09V43ZM1036.29 42V87H1038.29V42H1036.29ZM1037.29 86H1034.09V88H1037.29V86ZM1035.09 87V42H1033.09V87H1035.09ZM1102.8 105.2L1102.36 106.101L1102.36 106.101L1102.8 105.2ZM1094.4 98.4H1093.4V98.7205L1093.58 98.9812L1094.4 98.4ZM1094.4 93.8L1095.28 93.3237L1093.4 93.8H1094.4ZM1102.5 101.8L1101.99 102.664L1102 102.668L1102.5 101.8ZM1128.7 99.3L1127.96 98.6195L1127.96 98.626L1128.7 99.3ZM1133.9 76.1H1134.9L1133 75.6528L1133.9 76.1ZM1125.4 84.9L1125.9 85.7654L1125.9 85.7627L1125.4 84.9ZM1101.5 85L1100.99 85.8643L1100.99 85.8643L1101.5 85ZM1092.8 76.4L1091.93 76.9029L1091.94 76.9098L1092.8 76.4ZM1092.8 52.9L1093.66 53.4098L1093.66 53.4029L1092.8 52.9ZM1101.5 44.2L1100.99 43.3356L1100.99 43.3356L1101.5 44.2ZM1133.9 53.2L1133 53.6343L1134.9 53.2H1133.9ZM1133.9 42V41H1132.9V42H1133.9ZM1137.1 42H1138.1V41H1137.1V42ZM1131.1 101.4L1130.37 100.71L1130.37 100.716L1130.36 100.722L1131.1 101.4ZM1123.8 82.6L1124.31 83.4591L1124.31 83.4551L1124.32 83.451L1123.8 82.6ZM1131.2 75L1130.33 74.4961L1130.33 74.5019L1131.2 75ZM1131.2 54.3L1130.32 54.7903L1130.33 54.8011L1130.34 54.8118L1131.2 54.3ZM1123.8 46.7L1123.27 47.551L1123.28 47.5551L1123.28 47.5591L1123.8 46.7ZM1103.2 46.7L1103.71 47.5591L1103.71 47.5559L1103.2 46.7ZM1095.6 54.3L1094.74 53.7829L1094.74 53.7882L1095.6 54.3ZM1095.6 75L1094.73 75.5039L1094.74 75.5146L1094.75 75.5251L1095.6 75ZM1103.2 82.6L1102.67 83.451L1102.68 83.4575L1102.69 83.4638L1103.2 82.6ZM1113.9 106.8C1110.25 106.8 1106.7 105.971 1103.23 104.299L1102.36 106.101C1106.09 107.896 1109.94 108.8 1113.9 108.8V106.8ZM1103.23 104.299C1099.76 102.627 1097.1 100.461 1095.21 97.8188L1093.58 98.9812C1095.7 101.939 1098.64 104.307 1102.36 106.101L1103.23 104.299ZM1095.4 98.4V93.8H1093.4V98.4H1095.4ZM1093.52 94.2763C1095.35 97.6629 1098.19 100.454 1101.99 102.664L1103 100.936C1099.46 98.8791 1096.91 96.3371 1095.28 93.3237L1093.52 94.2763ZM1102 102.668C1105.87 104.878 1109.84 106 1113.9 106V104C1110.22 104 1106.59 102.989 1102.99 100.932L1102 102.668ZM1113.9 106C1120.5 106 1125.73 104.031 1129.44 99.974L1127.96 98.626C1124.73 102.169 1120.09 104 1113.9 104V106ZM1129.43 99.9805C1133.13 95.9962 1134.9 90.2118 1134.9 82.8H1132.9C1132.9 89.9215 1131.2 95.1371 1127.96 98.6195L1129.43 99.9805ZM1134.9 82.8V76.1H1132.9V82.8H1134.9ZM1133 75.6528C1131.3 79.0603 1128.61 81.8571 1124.89 84.0373L1125.9 85.7627C1129.92 83.4096 1132.89 80.3397 1134.79 76.5472L1133 75.6528ZM1124.9 84.0346C1121.24 86.1506 1117.41 87.2 1113.4 87.2V89.2C1117.78 89.2 1121.95 88.0494 1125.9 85.7654L1124.9 84.0346ZM1113.4 87.2C1109.31 87.2 1105.51 86.1796 1102 84.1357L1100.99 85.8643C1104.81 88.0871 1108.95 89.2 1113.4 89.2V87.2ZM1102 84.1357C1098.48 82.0869 1095.7 79.3414 1093.66 75.8902L1091.94 76.9098C1094.16 80.6586 1097.18 83.6465 1100.99 85.8643L1102 84.1357ZM1093.66 75.8971C1091.62 72.3815 1090.6 68.6215 1090.6 64.6H1088.6C1088.6 68.9785 1089.71 73.0851 1091.93 76.9029L1093.66 75.8971ZM1090.6 64.6C1090.6 60.5787 1091.62 56.8549 1093.66 53.4098L1091.94 52.3902C1089.71 56.1451 1088.6 60.2213 1088.6 64.6H1090.6ZM1093.66 53.4029C1095.71 49.886 1098.48 47.1105 1102 45.0643L1100.99 43.3356C1097.18 45.5561 1094.15 48.5807 1091.93 52.3971L1093.66 53.4029ZM1102 45.0643C1105.51 43.0204 1109.31 42 1113.4 42V40C1108.95 40 1104.81 41.1129 1100.99 43.3356L1102 45.0643ZM1113.4 42C1117.62 42 1121.51 43.0536 1125.09 45.1615L1126.1 43.4385C1122.21 41.1464 1117.97 40 1113.4 40V42ZM1125.09 45.1615C1128.66 47.266 1131.29 50.0875 1133 53.6343L1134.8 52.7657C1132.91 48.8458 1130 45.734 1126.1 43.4385L1125.09 45.1615ZM1134.9 53.2V42H1132.9V53.2H1134.9ZM1133.9 43H1137.1V41H1133.9V43ZM1136.1 42V82.8H1138.1V42H1136.1ZM1136.1 82.8C1136.1 90.8499 1134.13 96.7613 1130.37 100.71L1131.82 102.09C1136.06 97.6387 1138.1 91.1501 1138.1 82.8H1136.1ZM1130.36 100.722C1126.67 104.727 1121.24 106.8 1113.9 106.8V108.8C1121.62 108.8 1127.66 106.607 1131.83 102.078L1130.36 100.722ZM1113.6 86.4C1117.44 86.4 1121.02 85.4185 1124.31 83.4591L1123.28 81.7409C1120.31 83.5148 1117.08 84.4 1113.6 84.4V86.4ZM1124.32 83.451C1127.59 81.4321 1130.18 78.7785 1132.06 75.4981L1130.33 74.5019C1128.61 77.4881 1126.27 79.9013 1123.27 81.749L1124.32 83.451ZM1132.06 75.5039C1134.02 72.1497 1135 68.5089 1135 64.6H1133C1133 68.1577 1132.11 71.4503 1130.33 74.4961L1132.06 75.5039ZM1135 64.6C1135 60.691 1134.02 57.0801 1132.06 53.7882L1130.34 54.8118C1132.11 57.7866 1133 61.0424 1133 64.6H1135ZM1132.07 53.8097C1130.18 50.4585 1127.59 47.7976 1124.31 45.8409L1123.28 47.5591C1126.27 49.3357 1128.61 51.7415 1130.32 54.7903L1132.07 53.8097ZM1124.32 45.849C1121.03 43.8187 1117.45 42.8 1113.6 42.8V44.8C1117.08 44.8 1120.3 45.7147 1123.27 47.551L1124.32 45.849ZM1113.6 42.8C1109.68 42.8 1106.04 43.8166 1102.68 45.8441L1103.71 47.5559C1106.76 45.7167 1110.05 44.8 1113.6 44.8V42.8ZM1102.68 45.8409C1099.41 47.7937 1096.76 50.446 1094.74 53.7829L1096.45 54.8171C1098.3 51.754 1100.72 49.3396 1103.71 47.5591L1102.68 45.8409ZM1094.74 53.7882C1092.78 57.0801 1091.8 60.691 1091.8 64.6H1093.8C1093.8 61.0424 1094.68 57.7866 1096.46 54.8118L1094.74 53.7882ZM1091.8 64.6C1091.8 68.5089 1092.78 72.1497 1094.73 75.5039L1096.46 74.4961C1094.68 71.4503 1093.8 68.1577 1093.8 64.6H1091.8ZM1094.75 75.5251C1096.76 78.791 1099.41 81.4359 1102.67 83.451L1103.72 81.749C1100.72 79.8974 1098.3 77.4757 1096.45 74.4749L1094.75 75.5251ZM1102.69 83.4638C1106.05 85.4204 1109.69 86.4 1113.6 86.4V84.4C1110.04 84.4 1106.75 83.513 1103.7 81.7362L1102.69 83.4638ZM1189.72 42V41H1188.72V42H1189.72ZM1192.92 42H1193.92V41H1192.92V42ZM1192.92 52H1191.92L1193.83 52.4027L1192.92 52ZM1200.42 44L1200.91 44.8703L1200.91 44.8668L1200.92 44.8632L1200.42 44ZM1225.22 46.2L1224.47 46.8713L1224.48 46.8786L1224.49 46.8858L1225.22 46.2ZM1230.12 87V88H1231.12V87H1230.12ZM1226.92 87H1225.92V88H1226.92V87ZM1222.92 48.2L1222.16 48.855L1222.17 48.8644L1222.92 48.2ZM1202.32 46.1L1202.79 46.9818L1202.79 46.9779L1202.32 46.1ZM1195.42 52.5L1194.57 51.9645L1194.57 51.9719L1194.56 51.9794L1195.42 52.5ZM1192.92 87V88H1193.92V87H1192.92ZM1189.72 87H1188.72V88H1189.72V87ZM1189.72 43H1192.92V41H1189.72V43ZM1191.92 42V52H1193.92V42H1191.92ZM1193.83 52.4027C1195.2 49.2893 1197.54 46.7769 1200.91 44.8703L1199.92 43.1297C1196.23 45.2231 1193.56 48.044 1192 51.5973L1193.83 52.4027ZM1200.92 44.8632C1204.29 42.89 1208.02 41.9 1212.12 41.9V39.9C1207.68 39.9 1203.6 40.9767 1199.91 43.1368L1200.92 44.8632ZM1212.12 41.9C1217.42 41.9 1221.5 43.5816 1224.47 46.8713L1225.96 45.5287C1222.54 41.7517 1217.88 39.9 1212.12 39.9V41.9ZM1224.49 46.8858C1227.53 50.1144 1229.12 54.7055 1229.12 60.8H1231.12C1231.12 54.3612 1229.43 49.219 1225.94 45.5142L1224.49 46.8858ZM1229.12 60.8V87H1231.12V60.8H1229.12ZM1230.12 86H1226.92V88H1230.12V86ZM1227.92 87V60.8H1225.92V87H1227.92ZM1227.92 60.8C1227.92 55.2407 1226.54 50.7739 1223.66 47.5356L1222.17 48.8644C1224.62 51.6261 1225.92 55.5593 1225.92 60.8H1227.92ZM1223.67 47.5451C1220.85 44.2835 1216.88 42.7 1211.92 42.7V44.7C1216.42 44.7 1219.79 46.1165 1222.16 48.8549L1223.67 47.5451ZM1211.92 42.7C1208.29 42.7 1204.92 43.5389 1201.84 45.2221L1202.79 46.9779C1205.58 45.4611 1208.61 44.7 1211.92 44.7V42.7ZM1201.84 45.2182C1198.83 46.8325 1196.4 49.0848 1194.57 51.9645L1196.26 53.0355C1197.9 50.4485 1200.07 48.4342 1202.79 46.9818L1201.84 45.2182ZM1194.56 51.9794C1192.79 54.8825 1191.92 58.1654 1191.92 61.8H1193.92C1193.92 58.5012 1194.71 55.5842 1196.27 53.0206L1194.56 51.9794ZM1191.92 61.8V87H1193.92V61.8H1191.92ZM1192.92 86H1189.72V88H1192.92V86ZM1190.72 87V42H1188.72V87H1190.72Z" transform="translate(1)" fill="black"/>
</g>
<defs>
<filter id="filter0_d" x="75.9238" y="26.3568" width="39.4033" height="85.6394" filterUnits="userSpaceOnUse" color-interpolation-filters="sRGB">
<feFlood flood-opacity="0" result="BackgroundImageFix"/>
<feColorMatrix in="SourceAlpha" type="matrix" values="0 0 0 0 0 0 0 0 0 0 0 0 0 0 0 0 0 0 255 0"/>
<feOffset dx="5" dy="10"/>
<feGaussianBlur stdDeviation="5"/>
<feColorMatrix type="matrix" values="0 0 0 0 0 0 0 0 0 0 0 0 0 0 0 0 0 0 1 0"/>
<feBlend mode="normal" in2="BackgroundImageFix" result="effect1_dropShadow"/>
<feBlend mode="normal" in="SourceGraphic" in2="effect1_dropShadow" result="shape"/>
</filter>
<filter id="filter1_d" x="0.956665" y="11" width="1246.16" height="117.8" filterUnits="userSpaceOnUse" color-interpolation-filters="sRGB">
<feFlood flood-opacity="0" result="BackgroundImageFix"/>
<feColorMatrix in="SourceAlpha" type="matrix" values="0 0 0 0 0 0 0 0 0 0 0 0 0 0 0 0 0 0 255 0"/>
<feOffset dx="5" dy="10"/>
<feGaussianBlur stdDeviation="5"/>
<feColorMatrix type="matrix" values="0 0 0 0 0 0 0 0 0 0 0 0 0 0 0 0 0 0 1 0"/>
<feBlend mode="normal" in2="BackgroundImageFix" result="effect1_dropShadow"/>
<feBlend mode="normal" in="SourceGraphic" in2="effect1_dropShadow" result="shape"/>
</filter>
</defs>
</svg>
