<svg width="1278" height="155" viewBox="0 0 1278 155" fill="none" xmlns="http://www.w3.org/2000/svg">
<rect width="1278" height="151" fill="black" fill-opacity="0"/>
<rect width="38" height="74" fill="black" fill-opacity="0" transform="translate(89 53)"/>
<g filter="url(#filter0_d)">
<path d="M96.8955 51.4C101.829 51.4 105.929 52.9 109.195 55.9C112.395 58.9 113.995 63.0333 113.995 68.3L113.992 115.1H110.792L110.793 97H96.993L96.9931 94.2H110.793L110.795 68.3C110.795 63.9 109.495 60.4333 106.895 57.9C104.229 55.4333 100.895 54.2 96.8954 54.2L96.8955 51.4Z" fill="#FF0000"/>
<path d="M96.8955 51.4L96.8956 50.4H95.8956L95.8955 51.4H96.8955ZM109.195 55.9L109.879 55.1704L109.872 55.1635L109.195 55.9ZM113.992 115.1L113.992 116.1H114.992L114.992 115.1H113.992ZM110.792 115.1H109.792L109.792 116.1H110.792L110.792 115.1ZM110.793 97H111.793L111.793 96H110.793L110.793 97ZM96.993 97H95.993L95.9929 98H96.9929L96.993 97ZM96.9931 94.2L96.9932 93.2H95.9932L95.9931 94.2H96.9931ZM110.793 94.2L110.793 95.2H111.793L111.793 94.2H110.793ZM106.895 57.9L107.593 57.1838L107.584 57.1747L107.574 57.1659L106.895 57.9ZM96.8954 54.2H95.8954L95.8953 55.2H96.8953L96.8954 54.2ZM96.8955 52.4C101.609 52.4 105.458 53.8255 108.519 56.6365L109.872 55.1635C106.399 51.9745 102.049 50.4 96.8956 50.4L96.8955 52.4ZM108.511 56.6295C111.47 59.403 112.995 63.2498 112.995 68.3H114.995C114.995 62.8169 113.321 58.397 109.879 55.1705L108.511 56.6295ZM112.995 68.3L112.992 115.1H114.992L114.995 68.3H112.995ZM113.992 114.1H110.792L110.792 116.1H113.992L113.992 114.1ZM111.792 115.1L111.793 97H109.793L109.792 115.1H111.792ZM110.793 96H96.993L96.9929 98H110.793L110.793 96ZM97.993 97L97.9931 94.2H95.9931L95.993 97H97.993ZM96.9931 95.2H110.793L110.793 93.2H96.9932L96.9931 95.2ZM111.793 94.2L111.795 68.3H109.795L109.793 94.2H111.793ZM111.795 68.3C111.795 63.6916 110.426 59.9442 107.593 57.1838L106.197 58.6162C108.564 60.9225 109.795 64.1084 109.795 68.3H111.795ZM107.574 57.1659C104.704 54.5104 101.12 53.2 96.8954 53.2L96.8953 55.2C100.671 55.2 103.754 56.3563 106.216 58.6341L107.574 57.1659ZM97.8954 54.2L97.8955 51.4H95.8955L95.8954 54.2H97.8954Z" fill="#FF0000"/>
</g>
<g filter="url(#filter1_d)">
<path d="M39.2566 114.1C36.0566 114.1 33.2233 113.567 30.7566 112.5C28.29 111.367 26.5233 109.933 25.4566 108.2V102.9C26.7233 105.767 28.4566 107.9 30.6566 109.3C32.8566 110.633 35.6566 111.3 39.0566 111.3C42.3233 111.3 44.9566 110.3 46.9566 108.3C48.9566 106.233 49.9566 103.6 49.9566 100.4C49.9566 97.6667 49.39 95.5667 48.2566 94.1C47.1233 92.5667 45.29 91.0333 42.7566 89.5L38.9566 87.3C36.2233 85.6333 34.1566 84.3333 32.7566 83.4C31.4233 82.4 30.3566 81.3 29.5566 80.1C28.7566 78.8333 28.3566 77.3667 28.3566 75.7C28.3566 73.0333 29.29 70.9 31.1566 69.3C33.0233 67.7 35.4566 66.9 38.4566 66.9C42.1233 66.9 45.19 67.7333 47.6566 69.4V73.8C45.59 71.0667 42.6233 69.7 38.7566 69.7C36.6233 69.7 34.89 70.2333 33.5566 71.3C32.2233 72.3667 31.5566 73.7333 31.5566 75.4C31.5566 76.8667 31.9566 78.1667 32.7566 79.3C33.5566 80.3667 34.6566 81.3667 36.0566 82.3C37.5233 83.2333 39.9233 84.6333 43.2566 86.5C46.6566 88.4333 49.1566 90.4333 50.7566 92.5C52.3566 94.5 53.1566 97.1333 53.1566 100.4C53.1566 104.533 51.79 107.867 49.0566 110.4C46.39 112.867 43.1233 114.1 39.2566 114.1ZM168.995 57.7C168.062 57.7 167.228 57.3667 166.495 56.7C165.828 56.0333 165.495 55.2 165.495 54.2C165.495 53.2667 165.828 52.4667 166.495 51.8C167.228 51.1333 168.062 50.8 168.995 50.8C169.928 50.8 170.728 51.1333 171.395 51.8C172.128 52.4667 172.495 53.2667 172.495 54.2C172.495 55.2 172.128 56.0333 171.395 56.7C170.728 57.3667 169.928 57.7 168.995 57.7ZM167.395 68H170.595V113H167.395V68ZM242.605 113.9C239.472 113.9 236.605 113.2 234.005 111.8C231.405 110.333 229.338 108.3 227.805 105.7C226.272 103.1 225.505 100.2 225.505 97V38H228.705V97C228.705 99.6667 229.305 102.067 230.505 104.2C231.772 106.333 233.472 108.033 235.605 109.3C237.738 110.5 240.072 111.1 242.605 111.1V113.9ZM316.546 114.1C312.48 114.1 308.546 113 304.746 110.8C301.013 108.6 298.146 105.7 296.146 102.1V113H292.946V38H296.146V79.4C297.946 75.6 300.746 72.5667 304.546 70.3C308.346 68.0333 312.346 66.9 316.546 66.9C320.88 66.9 324.846 67.9667 328.446 70.1C332.113 72.2333 335.013 75.1 337.146 78.7C339.28 82.3 340.346 86.2333 340.346 90.5C340.346 94.7667 339.28 98.7 337.146 102.3C335.013 105.9 332.113 108.767 328.446 110.9C324.846 113.033 320.88 114.1 316.546 114.1ZM316.746 111.3C320.413 111.3 323.813 110.367 326.946 108.5C330.08 106.567 332.546 104.033 334.346 100.9C336.213 97.7 337.146 94.2333 337.146 90.5C337.146 86.8333 336.213 83.4 334.346 80.2C332.48 77 329.98 74.4667 326.846 72.6C323.713 70.6667 320.313 69.7 316.646 69.7C312.98 69.7 309.546 70.6667 306.346 72.6C303.213 74.5333 300.68 77.1 298.746 80.3C296.88 83.5 295.946 86.9333 295.946 90.6C295.946 94.2667 296.88 97.7 298.746 100.9C300.68 104.033 303.246 106.567 306.446 108.5C309.646 110.367 313.08 111.3 316.746 111.3ZM389.392 68H392.592V78.4C393.925 75.1333 395.858 72.5667 398.392 70.7C400.992 68.8333 403.925 67.9 407.192 67.9C409.258 67.9 411.358 68.3333 413.492 69.2V72.9C411.558 71.4333 409.392 70.7 406.992 70.7C404.592 70.7 402.258 71.4333 399.992 72.9C397.792 74.3667 395.992 76.3333 394.592 78.8C393.258 81.2667 392.592 83.9 392.592 86.7V113H389.392V68ZM481.223 114.1C474.89 114.1 469.99 112.367 466.523 108.9C463.123 105.433 461.423 100.533 461.423 94.2V68H464.623V94.2C464.623 99.6667 466.056 103.9 468.923 106.9C471.856 109.833 475.956 111.3 481.223 111.3C484.423 111.3 487.356 110.6 490.023 109.2C492.69 107.733 494.79 105.7 496.323 103.1C497.856 100.5 498.623 97.5333 498.623 94.2V68H501.823V113H498.623V104.6C497.09 107.4 494.79 109.7 491.723 111.5C488.656 113.233 485.156 114.1 481.223 114.1ZM575.65 114.3C571.317 114.3 567.317 113.267 563.65 111.2C560.05 109.133 557.184 106.3 555.05 102.7C552.917 99.1 551.85 95.0333 551.85 90.5C551.85 86.3 552.917 82.4333 555.05 78.9C557.184 75.3 560.084 72.4333 563.75 70.3C567.484 68.1667 571.584 67.1 576.05 67.1C579.784 67.1 582.984 67.7 585.65 68.9C588.317 70.1 590.917 71.9667 593.45 74.5V79.9C591.25 76.6333 588.784 74.1667 586.05 72.5C583.384 70.7667 580.05 69.9 576.05 69.9C572.384 69.9 568.917 70.8667 565.65 72.8C562.45 74.6667 559.884 77.2 557.95 80.4C556.017 83.6 555.05 87.0333 555.05 90.7C555.05 94.7 555.984 98.3 557.85 101.5C559.717 104.633 562.217 107.1 565.35 108.9C568.55 110.633 571.984 111.5 575.65 111.5C583.117 111.5 589.05 108.133 593.45 101.4V106.8C591.05 109.333 588.384 111.233 585.45 112.5C582.584 113.7 579.317 114.3 575.65 114.3ZM642.302 38H645.502V77.3C646.902 74.3 649.269 71.8333 652.602 69.9C656.002 67.9 659.435 66.9 662.902 66.9C669.235 66.9 674.102 68.6333 677.502 72.1C680.969 75.5667 682.702 80.4667 682.702 86.8V113H679.502V86.8C679.502 81.3333 678.035 77.1333 675.102 74.2C672.235 71.2 668.169 69.7 662.902 69.7C659.702 69.7 656.769 70.4667 654.102 72C651.435 73.4667 649.335 75.5333 647.802 78.2C646.269 80.8 645.502 83.6667 645.502 86.8V113H642.302V38ZM735.929 113.9C734.996 113.9 734.163 113.567 733.429 112.9C732.763 112.233 732.429 111.4 732.429 110.4C732.429 109.467 732.763 108.667 733.429 108C734.163 107.333 734.996 107 735.929 107C736.863 107 737.663 107.333 738.329 108C739.063 108.667 739.429 109.467 739.429 110.4C739.429 111.4 739.063 112.233 738.329 112.9C737.663 113.567 736.863 113.9 735.929 113.9ZM810.396 114.1C806.063 114.1 802.063 113.033 798.396 110.9C794.796 108.767 791.93 105.9 789.796 102.3C787.663 98.7 786.596 94.7667 786.596 90.5C786.596 86.2333 787.663 82.3 789.796 78.7C791.93 75.1 794.796 72.2333 798.396 70.1C802.063 67.9667 806.063 66.9 810.396 66.9C814.596 66.9 818.596 68.0333 822.396 70.3C826.196 72.5 828.996 75.4 830.796 79V38H833.996V113H830.796V102.1C828.796 105.7 825.896 108.6 822.096 110.8C818.363 113 814.463 114.1 810.396 114.1ZM810.296 111.3C813.963 111.3 817.363 110.367 820.496 108.5C823.696 106.567 826.23 104.033 828.096 100.9C830.03 97.7 830.996 94.2667 830.996 90.6C830.996 86.9333 830.03 83.5 828.096 80.3C826.23 77.1 823.696 74.5333 820.496 72.6C817.363 70.6667 813.963 69.7 810.296 69.7C806.63 69.7 803.23 70.6667 800.096 72.6C796.963 74.4667 794.463 77 792.596 80.2C790.73 83.4 789.796 86.8333 789.796 90.5C789.796 94.2333 790.696 97.7 792.496 100.9C794.363 104.033 796.863 106.567 799.996 108.5C803.196 110.367 806.63 111.3 810.296 111.3ZM908.518 111.4C911.985 111.4 915.285 110.5 918.418 108.7C921.552 106.9 924.152 104.433 926.218 101.3V106.4C923.752 109.133 921.052 111.133 918.118 112.4C915.185 113.6 911.852 114.2 908.118 114.2C903.985 114.2 900.085 113.1 896.418 110.9C892.818 108.7 889.918 105.767 887.718 102.1C885.585 98.4333 884.518 94.5333 884.518 90.4C884.518 85.9333 885.585 81.9333 887.718 78.4C889.852 74.8 892.752 72 896.418 70C900.152 68 904.285 67 908.818 67C915.752 67 921.652 69.7333 926.518 75.2L895.118 106.2C897.318 108 899.452 109.333 901.518 110.2C903.585 111 905.918 111.4 908.518 111.4ZM887.718 90.1C887.718 95.6333 889.552 100.367 893.218 104.3L922.518 75.2C920.318 73.2667 918.185 71.9 916.118 71.1C914.052 70.2333 911.585 69.8 908.718 69.8C904.652 69.8 901.018 70.7 897.818 72.5C894.685 74.2333 892.218 76.6333 890.418 79.7C888.618 82.7667 887.718 86.2333 887.718 90.1ZM987.421 114.1C984.221 114.1 981.387 113.567 978.921 112.5C976.454 111.367 974.687 109.933 973.621 108.2V102.9C974.887 105.767 976.621 107.9 978.821 109.3C981.021 110.633 983.821 111.3 987.221 111.3C990.487 111.3 993.121 110.3 995.121 108.3C997.121 106.233 998.121 103.6 998.121 100.4C998.121 97.6667 997.554 95.5667 996.421 94.1C995.287 92.5667 993.454 91.0333 990.921 89.5L987.121 87.3C984.387 85.6333 982.321 84.3333 980.921 83.4C979.587 82.4 978.521 81.3 977.721 80.1C976.921 78.8333 976.521 77.3667 976.521 75.7C976.521 73.0333 977.454 70.9 979.321 69.3C981.187 67.7 983.621 66.9 986.621 66.9C990.287 66.9 993.354 67.7333 995.821 69.4V73.8C993.754 71.0667 990.787 69.7 986.921 69.7C984.787 69.7 983.054 70.2333 981.721 71.3C980.387 72.3667 979.721 73.7333 979.721 75.4C979.721 76.8667 980.121 78.1667 980.921 79.3C981.721 80.3667 982.821 81.3667 984.221 82.3C985.687 83.2333 988.087 84.6333 991.421 86.5C994.821 88.4333 997.321 90.4333 998.921 92.5C1000.52 94.5 1001.32 97.1333 1001.32 100.4C1001.32 104.533 999.954 107.867 997.221 110.4C994.554 112.867 991.287 114.1 987.421 114.1ZM1055.19 57.7C1054.25 57.7 1053.42 57.3667 1052.69 56.7C1052.02 56.0333 1051.69 55.2 1051.69 54.2C1051.69 53.2667 1052.02 52.4667 1052.69 51.8C1053.42 51.1333 1054.25 50.8 1055.19 50.8C1056.12 50.8 1056.92 51.1333 1057.59 51.8C1058.32 52.4667 1058.69 53.2667 1058.69 54.2C1058.69 55.2 1058.32 56.0333 1057.59 56.7C1056.92 57.3667 1056.12 57.7 1055.19 57.7ZM1053.59 68H1056.79V113H1053.59V68ZM1133.4 133.8C1129.6 133.8 1125.9 132.933 1122.3 131.2C1118.7 129.467 1115.9 127.2 1113.9 124.4V119.8C1115.63 123 1118.33 125.667 1122 127.8C1125.73 129.933 1129.53 131 1133.4 131C1139.8 131 1144.73 129.1 1148.2 125.3C1151.66 121.567 1153.4 116.067 1153.4 108.8V102.1C1151.6 105.7 1148.76 108.633 1144.9 110.9C1141.1 113.1 1137.1 114.2 1132.9 114.2C1128.63 114.2 1124.66 113.133 1121 111C1117.33 108.867 1114.43 106 1112.3 102.4C1110.16 98.7333 1109.1 94.8 1109.1 90.6C1109.1 86.4 1110.16 82.5 1112.3 78.9C1114.43 75.2333 1117.33 72.3333 1121 70.2C1124.66 68.0667 1128.63 67 1132.9 67C1137.3 67 1141.36 68.1 1145.1 70.3C1148.83 72.5 1151.6 75.4667 1153.4 79.2V68H1156.6V108.8C1156.6 117 1154.6 123.2 1150.6 127.4C1146.66 131.667 1140.93 133.8 1133.4 133.8ZM1133.1 111.4C1136.76 111.4 1140.16 110.467 1143.3 108.6C1146.43 106.667 1148.9 104.133 1150.7 101C1152.56 97.8 1153.5 94.3333 1153.5 90.6C1153.5 86.8667 1152.56 83.4333 1150.7 80.3C1148.9 77.1 1146.43 74.5667 1143.3 72.7C1140.16 70.7667 1136.76 69.8 1133.1 69.8C1129.36 69.8 1125.9 70.7667 1122.7 72.7C1119.56 74.5667 1117.03 77.1 1115.1 80.3C1113.23 83.4333 1112.3 86.8667 1112.3 90.6C1112.3 94.3333 1113.23 97.8 1115.1 101C1117.03 104.133 1119.56 106.667 1122.7 108.6C1125.9 110.467 1129.36 111.4 1133.1 111.4ZM1209.22 68H1212.42V78C1213.88 74.6667 1216.38 72 1219.92 70C1223.45 67.9333 1227.35 66.9 1231.62 66.9C1237.15 66.9 1241.52 68.6667 1244.72 72.2C1247.98 75.6667 1249.62 80.5333 1249.62 86.8V113H1246.42V86.8C1246.42 81.4 1245.08 77.2 1242.42 74.2C1239.82 71.2 1236.15 69.7 1231.42 69.7C1227.95 69.7 1224.75 70.5 1221.82 72.1C1218.95 73.6333 1216.65 75.7667 1214.92 78.5C1213.25 81.2333 1212.42 84.3333 1212.42 87.8V113H1209.22V68Z" fill="#FF0000"/>
<path d="M30.7566 112.5L30.3391 113.409L30.3494 113.413L30.3597 113.418L30.7566 112.5ZM25.4566 108.2H24.4566V108.483L24.605 108.724L25.4566 108.2ZM25.4566 102.9L26.3713 102.496L24.4566 102.9H25.4566ZM30.6566 109.3L30.1198 110.144L30.129 110.15L30.1383 110.155L30.6566 109.3ZM46.9566 108.3L47.6637 109.007L47.6695 109.001L47.6752 108.995L46.9566 108.3ZM48.2566 94.1L47.4525 94.6944L47.4588 94.703L47.4654 94.7114L48.2566 94.1ZM42.7566 89.5L43.2744 88.6445L43.2661 88.6395L43.2577 88.6346L42.7566 89.5ZM38.9566 87.3L38.436 88.1538L38.4458 88.1597L38.4556 88.1654L38.9566 87.3ZM32.7566 83.4L32.1566 84.2L32.1788 84.2167L32.2019 84.232L32.7566 83.4ZM29.5566 80.1L28.7112 80.634L28.7177 80.6444L28.7246 80.6547L29.5566 80.1ZM31.1566 69.3L31.8074 70.0593L31.8074 70.0593L31.1566 69.3ZM47.6566 69.4H48.6566V68.8688L48.2165 68.5714L47.6566 69.4ZM47.6566 73.8L46.859 74.4031L48.6566 76.7807V73.8H47.6566ZM33.5566 71.3L32.9319 70.5191L32.9319 70.5191L33.5566 71.3ZM32.7566 79.3L31.9397 79.8767L31.948 79.8885L31.9566 79.9L32.7566 79.3ZM36.0566 82.3L35.5019 83.132L35.5108 83.1379L35.5198 83.1437L36.0566 82.3ZM43.2566 86.5L43.751 85.6307L43.7452 85.6275L43.2566 86.5ZM50.7566 92.5L49.9659 93.1122L49.9708 93.1185L49.9758 93.1247L50.7566 92.5ZM49.0566 110.4L49.7357 111.134L49.7364 111.133L49.0566 110.4ZM39.2566 113.1C36.1676 113.1 33.4734 112.585 31.1536 111.582L30.3597 113.418C32.9732 114.548 35.9457 115.1 39.2566 115.1V113.1ZM31.1741 111.591C28.8283 110.513 27.2421 109.193 26.3083 107.676L24.605 108.724C25.8046 110.673 27.7517 112.22 30.3391 113.409L31.1741 111.591ZM26.4566 108.2V102.9H24.4566V108.2H26.4566ZM24.542 103.304C25.8721 106.314 27.7221 108.618 30.1198 110.144L31.1935 108.456C29.1912 107.182 27.5745 105.219 26.3713 102.496L24.542 103.304ZM30.1383 110.155C32.5373 111.609 35.5311 112.3 39.0566 112.3V110.3C35.7821 110.3 33.176 109.658 31.1749 108.445L30.1383 110.155ZM39.0566 112.3C42.544 112.3 45.4469 111.224 47.6637 109.007L46.2495 107.593C44.4664 109.376 42.1026 110.3 39.0566 110.3V112.3ZM47.6752 108.995C49.8767 106.721 50.9566 103.828 50.9566 100.4H48.9566C48.9566 103.372 48.0365 105.746 46.238 107.605L47.6752 108.995ZM50.9566 100.4C50.9566 97.5462 50.3675 95.1962 49.0479 93.4886L47.4654 94.7114C48.4125 95.9371 48.9566 97.7871 48.9566 100.4H50.9566ZM49.0608 93.5056C47.8192 91.8257 45.8643 90.212 43.2744 88.6445L42.2388 90.3555C44.7157 91.8546 46.4274 93.3076 47.4525 94.6944L49.0608 93.5056ZM43.2577 88.6346L39.4577 86.4346L38.4556 88.1654L42.2556 90.3654L43.2577 88.6346ZM39.4772 86.4462C36.7472 84.7815 34.6942 83.4899 33.3113 82.5679L32.2019 84.232C33.6191 85.1768 35.6995 86.4852 38.436 88.1538L39.4772 86.4462ZM33.3566 82.6C32.1001 81.6576 31.1169 80.6376 30.3887 79.5453L28.7246 80.6547C29.5964 81.9624 30.7465 83.1424 32.1566 84.2L33.3566 82.6ZM30.4021 79.566C29.7142 78.4768 29.3566 77.1996 29.3566 75.7H27.3566C27.3566 77.5337 27.7991 79.1899 28.7112 80.634L30.4021 79.566ZM29.3566 75.7C29.3566 73.2973 30.1828 71.4518 31.8074 70.0593L30.5059 68.5407C28.3972 70.3482 27.3566 72.7694 27.3566 75.7H29.3566ZM31.8074 70.0593C33.4552 68.6469 35.6406 67.9 38.4566 67.9V65.9C35.2726 65.9 32.5914 66.7531 30.5058 68.5407L31.8074 70.0593ZM38.4566 67.9C41.9704 67.9 44.8303 68.6971 47.0968 70.2286L48.2165 68.5714C45.5497 66.7695 42.2763 65.9 38.4566 65.9V67.9ZM46.6566 69.4V73.8H48.6566V69.4H46.6566ZM48.4543 73.1969C46.1725 70.179 42.8907 68.7 38.7566 68.7V70.7C42.3559 70.7 45.0075 71.9543 46.859 74.4031L48.4543 73.1969ZM38.7566 68.7C36.4542 68.7 34.4831 69.2782 32.9319 70.5191L34.1813 72.0809C35.2969 71.1885 36.7924 70.7 38.7566 70.7V68.7ZM32.9319 70.5191C31.3682 71.7702 30.5566 73.421 30.5566 75.4H32.5566C32.5566 74.0457 33.0785 72.9632 34.1813 72.0809L32.9319 70.5191ZM30.5566 75.4C30.5566 77.0607 31.0136 78.5647 31.9397 79.8767L33.5736 78.7233C32.8997 77.7687 32.5566 76.6727 32.5566 75.4H30.5566ZM31.9566 79.9C32.8398 81.0776 34.0312 82.1516 35.5019 83.132L36.6113 81.4679C35.2821 80.5818 34.2735 79.6557 33.5566 78.7L31.9566 79.9ZM35.5198 83.1437C37.0119 84.0932 39.4329 85.5048 42.768 87.3725L43.7452 85.6275C40.4137 83.7618 38.0347 82.3735 36.5935 81.4563L35.5198 83.1437ZM42.7623 87.3693C46.0992 89.2667 48.4766 91.1884 49.9659 93.1122L51.5474 91.8878C49.8367 89.6782 47.2141 87.6 43.7509 85.6307L42.7623 87.3693ZM49.9758 93.1247C51.3987 94.9034 52.1566 97.2968 52.1566 100.4H54.1566C54.1566 96.9698 53.3145 94.0966 51.5375 91.8753L49.9758 93.1247ZM52.1566 100.4C52.1566 104.289 50.8826 107.344 48.3769 109.667L49.7364 111.133C52.6974 108.389 54.1566 104.778 54.1566 100.4H52.1566ZM48.3776 109.666C45.9084 111.95 42.8893 113.1 39.2566 113.1V115.1C43.3573 115.1 46.8716 113.783 49.7357 111.134L48.3776 109.666ZM166.495 56.7L165.788 57.4071L165.805 57.4239L165.822 57.4399L166.495 56.7ZM166.495 51.8L165.822 51.0601L165.805 51.0761L165.788 51.0929L166.495 51.8ZM171.395 51.8L170.688 52.5071L170.705 52.5239L170.722 52.5399L171.395 51.8ZM171.395 56.7L170.722 55.9601L170.705 55.9761L170.688 55.9929L171.395 56.7ZM167.395 68V67H166.395V68H167.395ZM170.595 68H171.595V67H170.595V68ZM170.595 113V114H171.595V113H170.595ZM167.395 113H166.395V114H167.395V113ZM168.995 56.7C168.327 56.7 167.729 56.4707 167.168 55.9601L165.822 57.4399C166.727 58.2626 167.796 58.7 168.995 58.7V56.7ZM167.202 55.9929C166.735 55.526 166.495 54.9526 166.495 54.2H164.495C164.495 55.4474 164.921 56.5406 165.788 57.4071L167.202 55.9929ZM166.495 54.2C166.495 53.5349 166.721 52.9884 167.202 52.5071L165.788 51.0929C164.936 51.945 164.495 52.9984 164.495 54.2H166.495ZM167.168 52.5399C167.729 52.0293 168.327 51.8 168.995 51.8V49.8C167.796 49.8 166.727 50.2374 165.822 51.0601L167.168 52.5399ZM168.995 51.8C169.66 51.8 170.207 52.0258 170.688 52.5071L172.102 51.0929C171.25 50.2408 170.196 49.8 168.995 49.8V51.8ZM170.722 52.5399C171.262 53.0303 171.495 53.5675 171.495 54.2H173.495C173.495 52.9659 172.995 51.903 172.068 51.0601L170.722 52.5399ZM171.495 54.2C171.495 54.9212 171.245 55.4849 170.722 55.9601L172.068 57.4399C173.012 56.5818 173.495 55.4788 173.495 54.2H171.495ZM170.688 55.9929C170.207 56.4742 169.66 56.7 168.995 56.7V58.7C170.196 58.7 171.25 58.2592 172.102 57.4071L170.688 55.9929ZM167.395 69H170.595V67H167.395V69ZM169.595 68V113H171.595V68H169.595ZM170.595 112H167.395V114H170.595V112ZM168.395 113V68H166.395V113H168.395ZM242.605 113.9V114.9H243.605V113.9H242.605ZM234.005 111.8L233.514 112.671L233.522 112.676L233.531 112.68L234.005 111.8ZM227.805 105.7L228.666 105.192L228.666 105.192L227.805 105.7ZM225.505 38V37H224.505V38H225.505ZM228.705 38H229.705V37H228.705V38ZM230.505 104.2L229.634 104.69L229.639 104.7L229.645 104.711L230.505 104.2ZM235.605 109.3L235.095 110.16L235.105 110.166L235.115 110.172L235.605 109.3ZM242.605 111.1H243.605V110.1H242.605V111.1ZM242.605 112.9C239.627 112.9 236.925 112.236 234.479 110.92L233.531 112.68C236.286 114.164 239.317 114.9 242.605 114.9V112.9ZM234.496 110.929C232.051 109.55 230.112 107.642 228.666 105.192L226.944 106.208C228.565 108.958 230.759 111.117 233.514 112.671L234.496 110.929ZM228.666 105.192C227.229 102.755 226.505 100.032 226.505 97H224.505C224.505 100.368 225.314 103.445 226.944 106.208L228.666 105.192ZM226.505 97V38H224.505V97H226.505ZM225.505 39H228.705V37H225.505V39ZM227.705 38V97H229.705V38H227.705ZM227.705 97C227.705 99.8226 228.342 102.394 229.634 104.69L231.377 103.71C230.268 101.739 229.705 99.5107 229.705 97H227.705ZM229.645 104.711C230.997 106.988 232.817 108.808 235.095 110.16L236.116 108.44C234.126 107.259 232.546 105.679 231.365 103.689L229.645 104.711ZM235.115 110.172C237.403 111.459 239.906 112.1 242.605 112.1V110.1C240.237 110.1 238.074 109.541 236.095 108.428L235.115 110.172ZM241.605 111.1V113.9H243.605V111.1H241.605ZM304.746 110.8L304.239 111.662L304.245 111.665L304.746 110.8ZM296.146 102.1L297.021 101.614L295.146 98.2409V102.1H296.146ZM296.146 113V114H297.146V113H296.146ZM292.946 113H291.946V114H292.946V113ZM292.946 38V37H291.946V38H292.946ZM296.146 38H297.146V37H296.146V38ZM296.146 79.4H295.146L297.05 79.8281L296.146 79.4ZM304.546 70.3L304.034 69.4412L304.034 69.4412L304.546 70.3ZM328.446 70.1L327.937 70.9603L327.944 70.9643L328.446 70.1ZM337.146 78.7L336.286 79.2098L336.286 79.2098L337.146 78.7ZM337.146 102.3L336.286 101.79L336.286 101.79L337.146 102.3ZM328.446 110.9L327.944 110.036L327.937 110.04L328.446 110.9ZM326.946 108.5L327.458 109.359L327.465 109.355L327.472 109.351L326.946 108.5ZM334.346 100.9L333.483 100.396L333.479 100.402L334.346 100.9ZM334.346 80.2L335.21 79.6961L335.21 79.6961L334.346 80.2ZM326.846 72.6L326.321 73.451L326.328 73.4551L326.335 73.4591L326.846 72.6ZM306.346 72.6L305.829 71.744L305.821 71.749L306.346 72.6ZM298.746 80.3L297.891 79.7829L297.887 79.7895L297.883 79.7961L298.746 80.3ZM298.746 100.9L297.883 101.404L297.889 101.415L297.895 101.425L298.746 100.9ZM306.446 108.5L305.929 109.356L305.936 109.36L305.943 109.364L306.446 108.5ZM316.546 113.1C312.67 113.1 308.908 112.054 305.248 109.935L304.245 111.665C308.185 113.946 312.29 115.1 316.546 115.1V113.1ZM305.254 109.938C301.666 107.824 298.93 105.05 297.021 101.614L295.272 102.586C297.363 106.35 300.36 109.376 304.239 111.662L305.254 109.938ZM295.146 102.1V113H297.146V102.1H295.146ZM296.146 112H292.946V114H296.146V112ZM293.946 113V38H291.946V113H293.946ZM292.946 39H296.146V37H292.946V39ZM295.146 38V79.4H297.146V38H295.146ZM297.05 79.8281C298.761 76.2169 301.42 73.3295 305.059 71.1588L304.034 69.4412C300.073 71.8038 297.132 74.9831 295.243 78.9719L297.05 79.8281ZM305.059 71.1588C308.712 68.9794 312.537 67.9 316.546 67.9V65.9C312.156 65.9 307.98 67.0873 304.034 69.4412L305.059 71.1588ZM316.546 67.9C320.707 67.9 324.497 68.9218 327.937 70.9603L328.956 69.2397C325.196 67.0116 321.053 65.9 316.546 65.9V67.9ZM327.944 70.9643C331.465 73.0131 334.241 75.7586 336.286 79.2098L338.007 78.1902C335.785 74.4414 332.761 71.4535 328.949 69.2356L327.944 70.9643ZM336.286 79.2098C338.326 82.6523 339.346 86.409 339.346 90.5H341.346C341.346 86.0576 340.233 81.9477 338.007 78.1902L336.286 79.2098ZM339.346 90.5C339.346 94.591 338.326 98.3477 336.286 101.79L338.007 102.81C340.233 99.0523 341.346 94.9424 341.346 90.5H339.346ZM336.286 101.79C334.241 105.241 331.465 107.987 327.944 110.036L328.949 111.764C332.761 109.546 335.785 106.559 338.007 102.81L336.286 101.79ZM327.937 110.04C324.497 112.078 320.707 113.1 316.546 113.1V115.1C321.053 115.1 325.196 113.988 328.956 111.76L327.937 110.04ZM316.746 112.3C320.592 112.3 324.169 111.319 327.458 109.359L326.435 107.641C323.457 109.415 320.234 110.3 316.746 110.3V112.3ZM327.472 109.351C330.744 107.332 333.329 104.679 335.214 101.398L333.479 100.402C331.764 103.388 329.416 105.801 326.421 107.649L327.472 109.351ZM335.21 101.404C337.167 98.0497 338.146 94.4089 338.146 90.5H336.146C336.146 94.0577 335.259 97.3503 333.483 100.396L335.21 101.404ZM338.146 90.5C338.146 86.6544 337.165 83.0474 335.21 79.6961L333.483 80.7039C335.261 83.7526 336.146 87.0123 336.146 90.5H338.146ZM335.21 79.6961C333.26 76.3522 330.64 73.6957 327.358 71.7409L326.335 73.4591C329.32 75.2377 331.7 77.6478 333.483 80.7039L335.21 79.6961ZM327.372 71.749C324.081 69.7187 320.499 68.7 316.646 68.7V70.7C320.127 70.7 323.345 71.6147 326.321 73.451L327.372 71.749ZM316.646 68.7C312.794 68.7 309.182 69.7184 305.829 71.7441L306.864 73.4559C309.911 71.6149 313.166 70.7 316.646 70.7V68.7ZM305.821 71.749C302.551 73.7671 299.905 76.4491 297.891 79.7829L299.602 80.8171C301.455 77.7509 303.876 75.2996 306.872 73.451L305.821 71.749ZM297.883 79.7961C295.928 83.1474 294.946 86.7544 294.946 90.6H296.946C296.946 87.1123 297.832 83.8526 299.61 80.8039L297.883 79.7961ZM294.946 90.6C294.946 94.4456 295.928 98.0526 297.883 101.404L299.61 100.396C297.832 97.3474 296.946 94.0877 296.946 90.6H294.946ZM297.895 101.425C299.914 104.696 302.596 107.342 305.929 109.356L306.964 107.644C303.897 105.792 301.446 103.371 299.598 100.375L297.895 101.425ZM305.943 109.364C309.294 111.319 312.901 112.3 316.746 112.3V110.3C313.259 110.3 309.999 109.415 306.95 107.636L305.943 109.364ZM389.392 68V67H388.392V68H389.392ZM392.592 68H393.592V67H392.592V68ZM392.592 78.4H391.592L393.518 78.7779L392.592 78.4ZM398.392 70.7L397.809 69.8876L397.799 69.8949L398.392 70.7ZM413.492 69.2H414.492V68.5269L413.868 68.2735L413.492 69.2ZM413.492 72.9L412.887 73.6967L414.492 74.9138V72.9H413.492ZM399.992 72.9L399.448 72.0603L399.437 72.0679L399.992 72.9ZM394.592 78.8L393.722 78.3064L393.717 78.3154L393.712 78.3245L394.592 78.8ZM392.592 113V114H393.592V113H392.592ZM389.392 113H388.392V114H389.392V113ZM389.392 69H392.592V67H389.392V69ZM391.592 68V78.4H393.592V68H391.592ZM393.518 78.7779C394.79 75.6603 396.617 73.2498 398.985 71.5051L397.799 69.8949C395.1 71.8835 393.06 74.6064 391.666 78.0221L393.518 78.7779ZM398.975 71.5123C401.401 69.7704 404.13 68.9 407.192 68.9V66.9C403.721 66.9 400.582 67.8963 397.809 69.8877L398.975 71.5123ZM407.192 68.9C409.115 68.9 411.088 69.3028 413.115 70.1265L413.868 68.2735C411.629 67.3638 409.401 66.9 407.192 66.9V68.9ZM412.492 69.2V72.9H414.492V69.2H412.492ZM414.096 72.1033C411.991 70.5063 409.613 69.7 406.992 69.7V71.7C409.171 71.7 411.126 72.3603 412.887 73.6967L414.096 72.1033ZM406.992 69.7C404.376 69.7 401.856 70.5025 399.449 72.0604L400.535 73.7396C402.661 72.3641 404.808 71.7 406.992 71.7V69.7ZM399.437 72.0679C397.098 73.6275 395.193 75.714 393.722 78.3064L395.461 79.2936C396.79 76.9527 398.486 75.1058 400.546 73.732L399.437 72.0679ZM393.712 78.3245C392.3 80.937 391.592 83.7337 391.592 86.7H393.592C393.592 84.0663 394.217 81.5963 395.472 79.2755L393.712 78.3245ZM391.592 86.7V113H393.592V86.7H391.592ZM392.592 112H389.392V114H392.592V112ZM390.392 113V68H388.392V113H390.392ZM466.523 108.9L465.809 109.6L465.816 109.607L466.523 108.9ZM461.423 68V67H460.423V68H461.423ZM464.623 68H465.623V67H464.623V68ZM468.923 106.9L468.2 107.591L468.208 107.599L468.216 107.607L468.923 106.9ZM490.023 109.2L490.488 110.085L490.496 110.081L490.505 110.076L490.023 109.2ZM498.623 68V67H497.623V68H498.623ZM501.823 68H502.823V67H501.823V68ZM501.823 113V114H502.823V113H501.823ZM498.623 113H497.623V114H498.623V113ZM498.623 104.6H499.623L497.746 104.12L498.623 104.6ZM491.723 111.5L492.215 112.371L492.222 112.367L492.229 112.362L491.723 111.5ZM481.223 113.1C475.074 113.1 470.459 111.422 467.23 108.193L465.816 109.607C469.52 113.312 474.705 115.1 481.223 115.1V113.1ZM467.237 108.2C464.071 104.972 462.423 100.354 462.423 94.2H460.423C460.423 100.712 462.175 105.895 465.809 109.6L467.237 108.2ZM462.423 94.2V68H460.423V94.2H462.423ZM461.423 69H464.623V67H461.423V69ZM463.623 68V94.2H465.623V68H463.623ZM463.623 94.2C463.623 99.8398 465.105 104.352 468.2 107.591L469.646 106.209C467.008 103.448 465.623 99.4935 465.623 94.2H463.623ZM468.216 107.607C471.384 110.775 475.766 112.3 481.223 112.3V110.3C476.146 110.3 472.329 108.892 469.63 106.193L468.216 107.607ZM481.223 112.3C484.575 112.3 487.669 111.565 490.488 110.085L489.558 108.315C487.044 109.635 484.272 110.3 481.223 110.3V112.3ZM490.505 110.076C493.327 108.524 495.559 106.364 497.184 103.608L495.462 102.592C494.02 105.036 492.052 106.943 489.541 108.324L490.505 110.076ZM497.184 103.608C498.818 100.838 499.623 97.6928 499.623 94.2H497.623C497.623 97.3738 496.895 100.162 495.462 102.592L497.184 103.608ZM499.623 94.2V68H497.623V94.2H499.623ZM498.623 69H501.823V67H498.623V69ZM500.823 68V113H502.823V68H500.823ZM501.823 112H498.623V114H501.823V112ZM499.623 113V104.6H497.623V113H499.623ZM497.746 104.12C496.309 106.744 494.146 108.918 491.217 110.638L492.229 112.362C495.434 110.482 497.87 108.056 499.5 105.08L497.746 104.12ZM491.231 110.629C488.331 112.268 485.004 113.1 481.223 113.1V115.1C485.308 115.1 488.981 114.198 492.215 112.371L491.231 110.629ZM563.65 111.2L563.153 112.067L563.159 112.071L563.65 111.2ZM555.05 102.7L555.911 102.19L555.911 102.19L555.05 102.7ZM555.05 78.9L555.906 79.4169L555.911 79.4098L555.05 78.9ZM563.75 70.3L563.254 69.4317L563.247 69.4357L563.75 70.3ZM585.65 68.9L586.061 67.9881L586.061 67.9881L585.65 68.9ZM593.45 74.5H594.45V74.0858L594.157 73.7929L593.45 74.5ZM593.45 79.9L592.621 80.4586L594.45 83.175V79.9H593.45ZM586.05 72.5L585.505 73.3384L585.517 73.3463L585.53 73.3538L586.05 72.5ZM565.65 72.8L566.154 73.6638L566.16 73.6606L565.65 72.8ZM557.95 80.4L558.806 80.9171L558.806 80.9171L557.95 80.4ZM557.85 101.5L556.987 102.004L556.991 102.012L557.85 101.5ZM565.35 108.9L564.852 109.767L564.863 109.773L564.874 109.779L565.35 108.9ZM593.45 101.4H594.45V98.0416L592.613 100.853L593.45 101.4ZM593.45 106.8L594.176 107.488L594.45 107.198V106.8H593.45ZM585.45 112.5L585.837 113.422L585.847 113.418L585.45 112.5ZM575.65 113.3C571.484 113.3 567.654 112.308 564.141 110.329L563.159 112.071C566.98 114.225 571.15 115.3 575.65 115.3V113.3ZM564.148 110.333C560.699 108.353 557.957 105.643 555.911 102.19L554.19 103.21C556.411 106.957 559.402 109.914 563.153 112.067L564.148 110.333ZM555.911 102.19C553.876 98.7573 552.85 94.8694 552.85 90.5H550.85C550.85 95.1973 551.958 99.4427 554.19 103.21L555.911 102.19ZM552.85 90.5C552.85 86.4788 553.869 82.7914 555.906 79.4169L554.194 78.3831C551.965 82.0753 550.85 86.1212 550.85 90.5H552.85ZM555.911 79.4098C557.956 75.9586 560.732 73.2131 564.253 71.1643L563.247 69.4357C559.436 71.6535 556.412 74.6414 554.19 78.3902L555.911 79.4098ZM564.247 71.1682C567.823 69.1247 571.751 68.1 576.05 68.1V66.1C571.417 66.1 567.145 67.2087 563.254 69.4318L564.247 71.1682ZM576.05 68.1C579.68 68.1 582.733 68.6837 585.24 69.8119L586.061 67.9881C583.235 66.7163 579.887 66.1 576.05 66.1V68.1ZM585.24 69.8119C587.774 70.9524 590.277 72.7408 592.743 75.2071L594.157 73.7929C591.557 71.1925 588.86 69.2476 586.061 67.9881L585.24 69.8119ZM592.45 74.5V79.9H594.45V74.5H592.45ZM594.28 79.3414C592.017 75.9821 589.452 73.4031 586.571 71.6462L585.53 73.3538C588.115 74.9303 590.483 77.2846 592.621 80.4586L594.28 79.3414ZM586.595 71.6616C583.729 69.7986 580.194 68.9 576.05 68.9V70.9C579.907 70.9 583.038 71.7347 585.505 73.3384L586.595 71.6616ZM576.05 68.9C572.198 68.9 568.556 69.9182 565.141 71.9394L566.16 73.6606C569.278 71.8151 572.569 70.9 576.05 70.9V68.9ZM565.147 71.9362C561.801 73.888 559.113 76.5411 557.094 79.8829L558.806 80.9171C560.654 77.8589 563.1 75.4453 566.154 73.6638L565.147 71.9362ZM557.094 79.8829C555.069 83.2357 554.05 86.8473 554.05 90.7H556.05C556.05 87.2193 556.965 83.9643 558.806 80.9171L557.094 79.8829ZM554.05 90.7C554.05 94.8625 555.024 98.6388 556.987 102.004L558.714 100.996C556.944 97.9612 556.05 94.5375 556.05 90.7H554.05ZM556.991 102.012C558.945 105.291 561.569 107.881 564.852 109.767L565.849 108.033C562.865 106.319 560.489 103.976 558.709 100.988L556.991 102.012ZM564.874 109.779C568.222 111.592 571.819 112.5 575.65 112.5V110.5C572.149 110.5 568.879 109.674 565.827 108.021L564.874 109.779ZM575.65 112.5C583.485 112.5 589.72 108.937 594.288 101.947L592.613 100.853C588.381 107.33 582.75 110.5 575.65 110.5V112.5ZM592.45 101.4V106.8H594.45V101.4H592.45ZM592.724 106.112C590.409 108.556 587.852 110.374 585.054 111.582L585.847 113.418C588.916 112.093 591.692 110.11 594.176 107.488L592.724 106.112ZM585.064 111.578C582.34 112.718 579.208 113.3 575.65 113.3V115.3C579.426 115.3 582.828 114.682 585.837 113.422L585.064 111.578ZM642.302 38V37H641.302V38H642.302ZM645.502 38H646.502V37H645.502V38ZM645.502 77.3H644.502L646.408 77.7229L645.502 77.3ZM652.602 69.9L653.104 70.765L653.109 70.7619L652.602 69.9ZM677.502 72.1L676.788 72.8002L676.795 72.8071L677.502 72.1ZM682.702 113V114H683.702V113H682.702ZM679.502 113H678.502V114H679.502V113ZM675.102 74.2L674.379 74.8909L674.387 74.8991L674.395 74.9071L675.102 74.2ZM654.102 72L654.584 72.8762L654.592 72.8716L654.6 72.8669L654.102 72ZM647.802 78.2L648.663 78.708L648.669 78.6985L647.802 78.2ZM645.502 113V114H646.502V113H645.502ZM642.302 113H641.302V114H642.302V113ZM642.302 39H645.502V37H642.302V39ZM644.502 38V77.3H646.502V38H644.502ZM646.408 77.7229C647.708 74.9371 649.917 72.6131 653.104 70.765L652.1 69.035C648.62 71.0536 646.096 73.6629 644.596 76.8771L646.408 77.7229ZM653.109 70.7619C656.377 68.8396 659.637 67.9 662.902 67.9V65.9C659.234 65.9 655.627 66.9604 652.095 69.0381L653.109 70.7619ZM662.902 67.9C669.052 67.9 673.628 69.5787 676.788 72.8002L678.216 71.3998C674.575 67.688 669.419 65.9 662.902 65.9V67.9ZM676.795 72.8071C680.024 76.0359 681.702 80.651 681.702 86.8H683.702C683.702 80.2823 681.914 75.0974 678.209 71.3929L676.795 72.8071ZM681.702 86.8V113H683.702V86.8H681.702ZM682.702 112H679.502V114H682.702V112ZM680.502 113V86.8H678.502V113H680.502ZM680.502 86.8C680.502 81.1556 678.984 76.6677 675.809 73.4929L674.395 74.9071C677.087 77.599 678.502 81.5111 678.502 86.8H680.502ZM675.825 73.5091C672.722 70.2617 668.364 68.7 662.902 68.7V70.7C667.973 70.7 671.749 72.1383 674.379 74.8909L675.825 73.5091ZM662.902 68.7C659.534 68.7 656.428 69.509 653.603 71.1331L654.6 72.8669C657.109 71.4244 659.87 70.7 662.902 70.7V68.7ZM653.62 71.1238C650.791 72.6797 648.559 74.8779 646.935 77.7015L648.669 78.6985C650.112 76.1888 652.08 74.2536 654.584 72.8762L653.62 71.1238ZM646.941 77.692C645.313 80.4519 644.502 83.4951 644.502 86.8H646.502C646.502 83.8382 647.224 81.1481 648.663 78.708L646.941 77.692ZM644.502 86.8V113H646.502V86.8H644.502ZM645.502 112H642.302V114H645.502V112ZM643.302 113V38H641.302V113H643.302ZM733.429 112.9L732.722 113.607L732.739 113.624L732.757 113.64L733.429 112.9ZM733.429 108L732.757 107.26L732.739 107.276L732.722 107.293L733.429 108ZM738.329 108L737.622 108.707L737.639 108.724L737.657 108.74L738.329 108ZM738.329 112.9L737.657 112.16L737.639 112.176L737.622 112.193L738.329 112.9ZM735.929 112.9C735.261 112.9 734.664 112.671 734.102 112.16L732.757 113.64C733.662 114.463 734.731 114.9 735.929 114.9V112.9ZM734.136 112.193C733.67 111.726 733.429 111.153 733.429 110.4H731.429C731.429 111.647 731.856 112.741 732.722 113.607L734.136 112.193ZM733.429 110.4C733.429 109.735 733.655 109.188 734.136 108.707L732.722 107.293C731.87 108.145 731.429 109.198 731.429 110.4H733.429ZM734.102 108.74C734.664 108.229 735.261 108 735.929 108V106C734.731 106 733.662 106.437 732.757 107.26L734.102 108.74ZM735.929 108C736.594 108 737.141 108.226 737.622 108.707L739.036 107.293C738.184 106.441 737.131 106 735.929 106V108ZM737.657 108.74C738.196 109.23 738.429 109.767 738.429 110.4H740.429C740.429 109.166 739.929 108.103 739.002 107.26L737.657 108.74ZM738.429 110.4C738.429 111.121 738.179 111.685 737.657 112.16L739.002 113.64C739.946 112.782 740.429 111.679 740.429 110.4H738.429ZM737.622 112.193C737.141 112.674 736.594 112.9 735.929 112.9V114.9C737.131 114.9 738.184 114.459 739.036 113.607L737.622 112.193ZM798.396 110.9L797.887 111.76L797.894 111.764L798.396 110.9ZM789.796 102.3L790.657 101.79L790.657 101.79L789.796 102.3ZM789.796 78.7L788.936 78.1902L788.936 78.1902L789.796 78.7ZM798.396 70.1L797.894 69.2356L797.887 69.2397L798.396 70.1ZM822.396 70.3L821.884 71.1589L821.895 71.1654L822.396 70.3ZM830.796 79L829.902 79.4472L831.796 79H830.796ZM830.796 38V37H829.796V38H830.796ZM833.996 38H834.996V37H833.996V38ZM833.996 113V114H834.996V113H833.996ZM830.796 113H829.796V114H830.796V113ZM830.796 102.1H831.796V98.2409L829.922 101.614L830.796 102.1ZM822.096 110.8L821.595 109.935L821.589 109.938L822.096 110.8ZM820.496 108.5L821.008 109.359L821.014 109.356L820.496 108.5ZM828.096 100.9L827.241 100.383L827.237 100.388L828.096 100.9ZM828.096 80.3L827.233 80.8039L827.237 80.8105L827.241 80.8171L828.096 80.3ZM820.496 72.6L819.971 73.4511L819.979 73.4559L820.496 72.6ZM800.096 72.6L800.608 73.4591L800.615 73.4551L800.622 73.451L800.096 72.6ZM792.596 80.2L791.733 79.6961L792.596 80.2ZM792.496 100.9L791.625 101.39L791.631 101.401L791.637 101.412L792.496 100.9ZM799.996 108.5L799.471 109.351L799.482 109.358L799.493 109.364L799.996 108.5ZM810.396 113.1C806.236 113.1 802.41 112.078 798.899 110.036L797.894 111.764C801.716 113.989 805.89 115.1 810.396 115.1V113.1ZM798.906 110.04C795.451 107.992 792.705 105.246 790.657 101.79L788.936 102.81C791.155 106.554 794.142 109.541 797.887 111.76L798.906 110.04ZM790.657 101.79C788.617 98.3477 787.596 94.591 787.596 90.5H785.596C785.596 94.9424 786.71 99.0523 788.936 102.81L790.657 101.79ZM787.596 90.5C787.596 86.409 788.617 82.6523 790.657 79.2098L788.936 78.1902C786.71 81.9477 785.596 86.0576 785.596 90.5H787.596ZM790.657 79.2098C792.705 75.7542 795.451 73.0081 798.906 70.9603L797.887 69.2397C794.142 71.4586 791.155 74.4458 788.936 78.1902L790.657 79.2098ZM798.899 70.9643C802.41 68.9218 806.236 67.9 810.396 67.9V65.9C805.89 65.9 801.716 67.0115 797.894 69.2356L798.899 70.9643ZM810.396 67.9C814.406 67.9 818.23 68.9794 821.884 71.1588L822.909 69.4412C818.963 67.0873 814.787 65.9 810.396 65.9V67.9ZM821.895 71.1654C825.542 73.2768 828.197 76.0379 829.902 79.4472L831.691 78.5528C829.796 74.7621 826.851 71.7232 822.898 69.4346L821.895 71.1654ZM831.796 79V38H829.796V79H831.796ZM830.796 39H833.996V37H830.796V39ZM832.996 38V113H834.996V38H832.996ZM833.996 112H830.796V114H833.996V112ZM831.796 113V102.1H829.796V113H831.796ZM829.922 101.614C828.016 105.046 825.25 107.819 821.595 109.935L822.598 111.665C826.543 109.381 829.577 106.354 831.671 102.586L829.922 101.614ZM821.589 109.938C817.999 112.054 814.273 113.1 810.396 113.1V115.1C814.653 115.1 818.727 113.946 822.604 111.662L821.589 109.938ZM810.296 112.3C814.142 112.3 817.719 111.319 821.008 109.359L819.985 107.641C817.007 109.415 813.784 110.3 810.296 110.3V112.3ZM821.014 109.356C824.35 107.34 827.003 104.69 828.956 101.412L827.237 100.388C825.457 103.377 823.043 105.793 819.979 107.644L821.014 109.356ZM828.952 101.417C830.978 98.0643 831.996 94.4527 831.996 90.6H829.996C829.996 94.0807 829.082 97.3357 827.241 100.383L828.952 101.417ZM831.996 90.6C831.996 86.7473 830.978 83.1357 828.952 79.7829L827.241 80.8171C829.082 83.8643 829.996 87.1193 829.996 90.6H831.996ZM828.96 79.7961C827.009 76.4502 824.355 73.7631 821.014 71.7441L819.979 73.4559C823.038 75.3036 825.451 77.7497 827.233 80.8039L828.96 79.7961ZM821.022 71.749C817.731 69.7187 814.149 68.7 810.296 68.7V70.7C813.777 70.7 816.995 71.6147 819.971 73.451L821.022 71.749ZM810.296 68.7C806.444 68.7 802.862 69.7187 799.571 71.749L800.622 73.451C803.598 71.6147 806.816 70.7 810.296 70.7V68.7ZM799.585 71.7409C796.303 73.6957 793.683 76.3522 791.733 79.6961L793.46 80.7039C795.243 77.6478 797.623 75.2377 800.608 73.4591L799.585 71.7409ZM791.733 79.6961C789.778 83.0474 788.796 86.6544 788.796 90.5H790.796C790.796 87.0123 791.682 83.7526 793.46 80.7039L791.733 79.6961ZM788.796 90.5C788.796 94.402 789.739 98.038 791.625 101.39L793.368 100.41C791.654 97.362 790.796 94.0646 790.796 90.5H788.796ZM791.637 101.412C793.587 104.685 796.202 107.334 799.471 109.351L800.522 107.649C797.524 105.799 795.139 103.382 793.356 100.388L791.637 101.412ZM799.493 109.364C802.844 111.319 806.451 112.3 810.296 112.3V110.3C806.809 110.3 803.549 109.415 800.5 107.636L799.493 109.364ZM918.418 108.7L917.92 107.833L917.92 107.833L918.418 108.7ZM926.218 101.3H927.218V97.9677L925.384 100.749L926.218 101.3ZM926.218 106.4L926.961 107.07L927.218 106.785V106.4H926.218ZM918.118 112.4L918.497 113.326L918.506 113.322L918.515 113.318L918.118 112.4ZM896.418 110.9L895.897 111.753L895.904 111.757L896.418 110.9ZM887.718 102.1L886.854 102.603L886.861 102.614L887.718 102.1ZM887.718 78.4L888.574 78.9169L888.579 78.9098L887.718 78.4ZM896.418 70L895.946 69.1185L895.94 69.1221L896.418 70ZM926.518 75.2L927.221 75.9116L927.897 75.2444L927.265 74.5351L926.518 75.2ZM895.118 106.2L894.416 105.488L893.624 106.27L894.485 106.974L895.118 106.2ZM901.518 110.2L901.132 111.122L901.144 111.128L901.157 111.133L901.518 110.2ZM893.218 104.3L892.487 104.982L893.191 105.737L893.923 105.01L893.218 104.3ZM922.518 75.2L923.223 75.9095L923.982 75.1553L923.178 74.4488L922.518 75.2ZM916.118 71.1L915.732 72.0222L915.744 72.0276L915.757 72.0326L916.118 71.1ZM897.818 72.5L898.302 73.3751L898.309 73.3716L897.818 72.5ZM890.418 79.7L889.556 79.1938L890.418 79.7ZM908.518 112.4C912.167 112.4 915.638 111.45 918.916 109.567L917.92 107.833C914.932 109.55 911.803 110.4 908.518 110.4V112.4ZM918.916 109.567C922.191 107.686 924.904 105.109 927.053 101.851L925.384 100.749C923.399 103.758 920.913 106.114 917.92 107.833L918.916 109.567ZM925.218 101.3V106.4H927.218V101.3H925.218ZM925.476 105.73C923.091 108.373 920.505 110.28 917.722 111.482L918.515 113.318C921.599 111.986 924.413 109.894 926.961 107.07L925.476 105.73ZM917.74 111.474C914.946 112.617 911.745 113.2 908.118 113.2V115.2C911.959 115.2 915.424 114.583 918.497 113.326L917.74 111.474ZM908.118 113.2C904.173 113.2 900.45 112.153 896.933 110.043L895.904 111.757C899.72 114.047 903.797 115.2 908.118 115.2V113.2ZM896.94 110.047C893.479 107.932 890.694 105.116 888.576 101.586L886.861 102.614C889.143 106.418 892.157 109.468 895.897 111.753L896.94 110.047ZM888.583 101.597C886.536 98.0789 885.518 94.3519 885.518 90.4H883.518C883.518 94.7148 884.634 98.7877 886.854 102.603L888.583 101.597ZM885.518 90.4C885.518 86.1 886.543 82.2815 888.574 78.9169L886.862 77.8831C884.627 81.5852 883.518 85.7667 883.518 90.4H885.518ZM888.579 78.9098C890.62 75.4643 893.389 72.7916 896.897 70.8779L895.94 69.1221C892.115 71.2084 889.083 74.1357 886.858 77.8902L888.579 78.9098ZM896.891 70.8815C900.469 68.9647 904.438 68 908.818 68V66C904.132 66 899.835 67.0353 895.946 69.1185L896.891 70.8815ZM908.818 68C915.449 68 921.083 70.598 925.771 75.8649L927.265 74.5351C922.221 68.8687 916.055 66 908.818 66V68ZM925.816 74.4884L894.416 105.488L895.821 106.912L927.221 75.9116L925.816 74.4884ZM894.485 106.974C896.741 108.819 898.956 110.21 901.132 111.122L901.905 109.278C899.947 108.457 897.896 107.181 895.752 105.426L894.485 106.974ZM901.157 111.133C903.357 111.984 905.816 112.4 908.518 112.4V110.4C906.021 110.4 903.813 110.016 901.879 109.267L901.157 111.133ZM886.718 90.1C886.718 95.8783 888.642 100.858 892.487 104.982L893.95 103.618C890.461 99.8758 888.718 95.3884 888.718 90.1H886.718ZM893.923 105.01L923.223 75.9095L921.814 74.4905L892.514 103.59L893.923 105.01ZM923.178 74.4488C920.917 72.4614 918.685 71.021 916.479 70.1674L915.757 72.0326C917.686 72.779 919.72 74.0719 921.858 75.9512L923.178 74.4488ZM916.505 70.1778C914.287 69.2476 911.682 68.8 908.718 68.8V70.8C911.488 70.8 913.816 71.219 915.732 72.0222L916.505 70.1778ZM908.718 68.8C904.499 68.8 900.693 69.7354 897.328 71.6284L898.309 73.3716C901.343 71.6646 904.805 70.8 908.718 70.8V68.8ZM897.334 71.625C894.045 73.4445 891.447 75.9714 889.556 79.1938L891.281 80.2062C892.989 77.2953 895.325 75.0222 898.302 73.375L897.334 71.625ZM889.556 79.1938C887.658 82.4272 886.718 86.0714 886.718 90.1H888.718C888.718 86.3953 889.579 83.1061 891.281 80.2062L889.556 79.1938ZM978.921 112.5L978.503 113.409L978.513 113.413L978.524 113.418L978.921 112.5ZM973.621 108.2H972.621V108.483L972.769 108.724L973.621 108.2ZM973.621 102.9L974.535 102.496L972.621 102.9H973.621ZM978.821 109.3L978.284 110.144L978.293 110.15L978.302 110.155L978.821 109.3ZM995.121 108.3L995.828 109.007L995.834 109.001L995.839 108.995L995.121 108.3ZM996.421 94.1L995.617 94.6944L995.623 94.703L995.629 94.7114L996.421 94.1ZM990.921 89.5L991.439 88.6445L991.43 88.6395L991.422 88.6346L990.921 89.5ZM987.121 87.3L986.6 88.1538L986.61 88.1597L986.62 88.1654L987.121 87.3ZM980.921 83.4L980.321 84.2L980.343 84.2167L980.366 84.232L980.921 83.4ZM977.721 80.1L976.875 80.634L976.882 80.6444L976.889 80.6547L977.721 80.1ZM979.321 69.3L979.971 70.0593L979.971 70.0593L979.321 69.3ZM995.821 69.4H996.821V68.8688L996.381 68.5714L995.821 69.4ZM995.821 73.8L995.023 74.4031L996.821 76.7807V73.8H995.821ZM981.721 71.3L981.096 70.5191L981.096 70.5191L981.721 71.3ZM980.921 79.3L980.104 79.8767L980.112 79.8885L980.121 79.9L980.921 79.3ZM984.221 82.3L983.666 83.132L983.675 83.1379L983.684 83.1437L984.221 82.3ZM991.421 86.5L991.915 85.6307L991.909 85.6275L991.421 86.5ZM998.921 92.5L998.13 93.1122L998.135 93.1185L998.14 93.1247L998.921 92.5ZM997.221 110.4L997.9 111.134L997.9 111.133L997.221 110.4ZM987.421 113.1C984.332 113.1 981.637 112.585 979.318 111.582L978.524 113.418C981.137 114.548 984.11 115.1 987.421 115.1V113.1ZM979.338 111.591C976.992 110.513 975.406 109.193 974.472 107.676L972.769 108.724C973.969 110.673 975.916 112.22 978.503 113.409L979.338 111.591ZM974.621 108.2V102.9H972.621V108.2H974.621ZM972.706 103.304C974.036 106.314 975.886 108.618 978.284 110.144L979.358 108.456C977.355 107.182 975.739 105.219 974.535 102.496L972.706 103.304ZM978.302 110.155C980.701 111.609 983.695 112.3 987.221 112.3V110.3C983.946 110.3 981.34 109.658 979.339 108.445L978.302 110.155ZM987.221 112.3C990.708 112.3 993.611 111.224 995.828 109.007L994.414 107.593C992.63 109.376 990.267 110.3 987.221 110.3V112.3ZM995.839 108.995C998.041 106.721 999.121 103.828 999.121 100.4H997.121C997.121 103.372 996.201 105.746 994.402 107.605L995.839 108.995ZM999.121 100.4C999.121 97.5462 998.532 95.1962 997.212 93.4886L995.629 94.7114C996.577 95.9371 997.121 97.7871 997.121 100.4H999.121ZM997.225 93.5056C995.983 91.8257 994.028 90.212 991.439 88.6445L990.403 90.3555C992.88 91.8546 994.592 93.3076 995.617 94.6944L997.225 93.5056ZM991.422 88.6346L987.622 86.4346L986.62 88.1654L990.42 90.3654L991.422 88.6346ZM987.641 86.4462C984.911 84.7815 982.858 83.4899 981.475 82.5679L980.366 84.232C981.783 85.1768 983.864 86.4852 986.6 88.1538L987.641 86.4462ZM981.521 82.6C980.264 81.6576 979.281 80.6376 978.553 79.5453L976.889 80.6547C977.76 81.9624 978.911 83.1424 980.321 84.2L981.521 82.6ZM978.566 79.566C977.878 78.4768 977.521 77.1996 977.521 75.7H975.521C975.521 77.5337 975.963 79.1899 976.875 80.634L978.566 79.566ZM977.521 75.7C977.521 73.2973 978.347 71.4518 979.971 70.0593L978.67 68.5407C976.561 70.3482 975.521 72.7694 975.521 75.7H977.521ZM979.971 70.0593C981.619 68.6469 983.805 67.9 986.621 67.9V65.9C983.437 65.9 980.755 66.7531 978.67 68.5407L979.971 70.0593ZM986.621 67.9C990.134 67.9 992.994 68.6971 995.261 70.2286L996.381 68.5714C993.714 66.7695 990.44 65.9 986.621 65.9V67.9ZM994.821 69.4V73.8H996.821V69.4H994.821ZM996.618 73.1969C994.337 70.179 991.055 68.7 986.921 68.7V70.7C990.52 70.7 993.172 71.9543 995.023 74.4031L996.618 73.1969ZM986.921 68.7C984.618 68.7 982.647 69.2782 981.096 70.5191L982.345 72.0809C983.461 71.1885 984.956 70.7 986.921 70.7V68.7ZM981.096 70.5191C979.532 71.7702 978.721 73.421 978.721 75.4H980.721C980.721 74.0457 981.243 72.9632 982.345 72.0809L981.096 70.5191ZM978.721 75.4C978.721 77.0607 979.178 78.5647 980.104 79.8767L981.738 78.7233C981.064 77.7687 980.721 76.6727 980.721 75.4H978.721ZM980.121 79.9C981.004 81.0776 982.195 82.1516 983.666 83.132L984.775 81.4679C983.446 80.5818 982.438 79.6557 981.721 78.7L980.121 79.9ZM983.684 83.1437C985.176 84.0932 987.597 85.5048 990.932 87.3725L991.909 85.6275C988.578 83.7618 986.199 82.3735 984.758 81.4563L983.684 83.1437ZM990.926 87.3693C994.263 89.2667 996.641 91.1884 998.13 93.1122L999.711 91.8878C998.001 89.6782 995.378 87.6 991.915 85.6307L990.926 87.3693ZM998.14 93.1247C999.563 94.9034 1000.32 97.2968 1000.32 100.4H1002.32C1002.32 96.9698 1001.48 94.0966 999.702 91.8753L998.14 93.1247ZM1000.32 100.4C1000.32 104.289 999.047 107.344 996.541 109.667L997.9 111.133C1000.86 108.389 1002.32 104.778 1002.32 100.4H1000.32ZM996.542 109.666C994.072 111.95 991.053 113.1 987.421 113.1V115.1C991.521 115.1 995.036 113.783 997.9 111.134L996.542 109.666ZM1052.69 56.7L1051.98 57.4071L1052 57.4239L1052.01 57.4399L1052.69 56.7ZM1052.69 51.8L1052.01 51.0601L1052 51.0761L1051.98 51.0929L1052.69 51.8ZM1057.59 51.8L1056.88 52.5071L1056.9 52.5239L1056.91 52.5399L1057.59 51.8ZM1057.59 56.7L1056.91 55.9601L1056.9 55.9761L1056.88 55.9929L1057.59 56.7ZM1053.59 68V67H1052.59V68H1053.59ZM1056.79 68H1057.79V67H1056.79V68ZM1056.79 113V114H1057.79V113H1056.79ZM1053.59 113H1052.59V114H1053.59V113ZM1055.19 56.7C1054.52 56.7 1053.92 56.4707 1053.36 55.9601L1052.01 57.4399C1052.92 58.2626 1053.99 58.7 1055.19 58.7V56.7ZM1053.39 55.9929C1052.93 55.526 1052.69 54.9526 1052.69 54.2H1050.69C1050.69 55.4474 1051.11 56.5406 1051.98 57.4071L1053.39 55.9929ZM1052.69 54.2C1052.69 53.5349 1052.91 52.9884 1053.39 52.5071L1051.98 51.0929C1051.13 51.945 1050.69 52.9984 1050.69 54.2H1052.69ZM1053.36 52.5399C1053.92 52.0293 1054.52 51.8 1055.19 51.8V49.8C1053.99 49.8 1052.92 50.2374 1052.01 51.0601L1053.36 52.5399ZM1055.19 51.8C1055.85 51.8 1056.4 52.0258 1056.88 52.5071L1058.29 51.0929C1057.44 50.2408 1056.39 49.8 1055.19 49.8V51.8ZM1056.91 52.5399C1057.45 53.0303 1057.69 53.5675 1057.69 54.2H1059.69C1059.69 52.9659 1059.19 51.903 1058.26 51.0601L1056.91 52.5399ZM1057.69 54.2C1057.69 54.9212 1057.44 55.4849 1056.91 55.9601L1058.26 57.4399C1059.2 56.5818 1059.69 55.4788 1059.69 54.2H1057.69ZM1056.88 55.9929C1056.4 56.4742 1055.85 56.7 1055.19 56.7V58.7C1056.39 58.7 1057.44 58.2592 1058.29 57.4071L1056.88 55.9929ZM1053.59 69H1056.79V67H1053.59V69ZM1055.79 68V113H1057.79V68H1055.79ZM1056.79 112H1053.59V114H1056.79V112ZM1054.59 113V68H1052.59V113H1054.59ZM1122.3 131.2L1121.86 132.101L1121.86 132.101L1122.3 131.2ZM1113.9 124.4H1112.9V124.72L1113.08 124.981L1113.9 124.4ZM1113.9 119.8L1114.78 119.324L1112.9 119.8H1113.9ZM1122 127.8L1121.49 128.664L1121.5 128.668L1122 127.8ZM1148.2 125.3L1147.46 124.62L1147.46 124.626L1148.2 125.3ZM1153.4 102.1H1154.4L1152.5 101.653L1153.4 102.1ZM1144.9 110.9L1145.4 111.765L1145.4 111.763L1144.9 110.9ZM1121 111L1120.49 111.864L1120.49 111.864L1121 111ZM1112.3 102.4L1111.43 102.903L1111.44 102.91L1112.3 102.4ZM1112.3 78.9L1113.16 79.4098L1113.16 79.4029L1112.3 78.9ZM1121 70.2L1120.49 69.3356L1120.49 69.3356L1121 70.2ZM1153.4 79.2L1152.5 79.6343L1154.4 79.2H1153.4ZM1153.4 68V67H1152.4V68H1153.4ZM1156.6 68H1157.6V67H1156.6V68ZM1150.6 127.4L1149.87 126.71L1149.87 126.716L1149.86 126.722L1150.6 127.4ZM1143.3 108.6L1143.81 109.459L1143.81 109.455L1143.82 109.451L1143.3 108.6ZM1150.7 101L1149.83 100.496L1149.83 100.502L1150.7 101ZM1150.7 80.3L1149.82 80.7903L1149.83 80.8011L1149.84 80.8118L1150.7 80.3ZM1143.3 72.7L1142.77 73.551L1142.78 73.5551L1142.78 73.5591L1143.3 72.7ZM1122.7 72.7L1123.21 73.5591L1123.21 73.5559L1122.7 72.7ZM1115.1 80.3L1114.24 79.7829L1114.24 79.7882L1115.1 80.3ZM1115.1 101L1114.23 101.504L1114.24 101.515L1114.25 101.525L1115.1 101ZM1122.7 108.6L1122.17 109.451L1122.18 109.458L1122.19 109.464L1122.7 108.6ZM1133.4 132.8C1129.75 132.8 1126.2 131.971 1122.73 130.299L1121.86 132.101C1125.59 133.896 1129.44 134.8 1133.4 134.8V132.8ZM1122.73 130.299C1119.26 128.627 1116.6 126.461 1114.71 123.819L1113.08 124.981C1115.2 127.939 1118.14 130.307 1121.86 132.101L1122.73 130.299ZM1114.9 124.4V119.8H1112.9V124.4H1114.9ZM1113.02 120.276C1114.85 123.663 1117.69 126.454 1121.49 128.664L1122.5 126.936C1118.96 124.879 1116.41 122.337 1114.78 119.324L1113.02 120.276ZM1121.5 128.668C1125.37 130.878 1129.34 132 1133.4 132V130C1129.72 130 1126.09 128.989 1122.49 126.932L1121.5 128.668ZM1133.4 132C1140 132 1145.23 130.031 1148.94 125.974L1147.46 124.626C1144.23 128.169 1139.59 130 1133.4 130V132ZM1148.93 125.98C1152.63 121.996 1154.4 116.212 1154.4 108.8H1152.4C1152.4 115.922 1150.7 121.137 1147.46 124.62L1148.93 125.98ZM1154.4 108.8V102.1H1152.4V108.8H1154.4ZM1152.5 101.653C1150.8 105.06 1148.11 107.857 1144.39 110.037L1145.4 111.763C1149.42 109.41 1152.39 106.34 1154.29 102.547L1152.5 101.653ZM1144.4 110.035C1140.74 112.151 1136.91 113.2 1132.9 113.2V115.2C1137.28 115.2 1141.45 114.049 1145.4 111.765L1144.4 110.035ZM1132.9 113.2C1128.81 113.2 1125.01 112.18 1121.5 110.136L1120.49 111.864C1124.31 114.087 1128.45 115.2 1132.9 115.2V113.2ZM1121.5 110.136C1117.98 108.087 1115.2 105.341 1113.16 101.89L1111.44 102.91C1113.66 106.659 1116.68 109.646 1120.49 111.864L1121.5 110.136ZM1113.16 101.897C1111.12 98.3815 1110.1 94.6215 1110.1 90.6H1108.1C1108.1 94.9785 1109.21 99.0851 1111.43 102.903L1113.16 101.897ZM1110.1 90.6C1110.1 86.5787 1111.12 82.8549 1113.16 79.4098L1111.44 78.3902C1109.21 82.1451 1108.1 86.2213 1108.1 90.6H1110.1ZM1113.16 79.4029C1115.21 75.886 1117.98 73.1105 1121.5 71.0643L1120.49 69.3356C1116.68 71.5561 1113.65 74.5807 1111.43 78.3971L1113.16 79.4029ZM1121.5 71.0643C1125.01 69.0204 1128.81 68 1132.9 68V66C1128.45 66 1124.31 67.1129 1120.49 69.3356L1121.5 71.0643ZM1132.9 68C1137.12 68 1141.01 69.0536 1144.59 71.1615L1145.6 69.4385C1141.71 67.1464 1137.47 66 1132.9 66V68ZM1144.59 71.1615C1148.16 73.266 1150.79 76.0875 1152.5 79.6343L1154.3 78.7657C1152.41 74.8458 1149.5 71.734 1145.6 69.4385L1144.59 71.1615ZM1154.4 79.2V68H1152.4V79.2H1154.4ZM1153.4 69H1156.6V67H1153.4V69ZM1155.6 68V108.8H1157.6V68H1155.6ZM1155.6 108.8C1155.6 116.85 1153.63 122.761 1149.87 126.71L1151.32 128.09C1155.56 123.639 1157.6 117.15 1157.6 108.8H1155.6ZM1149.86 126.722C1146.17 130.727 1140.74 132.8 1133.4 132.8V134.8C1141.12 134.8 1147.16 132.607 1151.33 128.078L1149.86 126.722ZM1133.1 112.4C1136.94 112.4 1140.52 111.419 1143.81 109.459L1142.78 107.741C1139.81 109.515 1136.58 110.4 1133.1 110.4V112.4ZM1143.82 109.451C1147.09 107.432 1149.68 104.779 1151.56 101.498L1149.83 100.502C1148.11 103.488 1145.77 105.901 1142.77 107.749L1143.82 109.451ZM1151.56 101.504C1153.52 98.1497 1154.5 94.5089 1154.5 90.6H1152.5C1152.5 94.1577 1151.61 97.4503 1149.83 100.496L1151.56 101.504ZM1154.5 90.6C1154.5 86.691 1153.52 83.0801 1151.56 79.7882L1149.84 80.8118C1151.61 83.7866 1152.5 87.0424 1152.5 90.6H1154.5ZM1151.57 79.8097C1149.68 76.4585 1147.09 73.7976 1143.81 71.8409L1142.78 73.5591C1145.77 75.3357 1148.11 77.7415 1149.82 80.7903L1151.57 79.8097ZM1143.82 71.849C1140.53 69.8187 1136.95 68.8 1133.1 68.8V70.8C1136.58 70.8 1139.8 71.7147 1142.77 73.551L1143.82 71.849ZM1133.1 68.8C1129.18 68.8 1125.54 69.8166 1122.18 71.8441L1123.21 73.5559C1126.26 71.7167 1129.55 70.8 1133.1 70.8V68.8ZM1122.18 71.8409C1118.91 73.7937 1116.26 76.446 1114.24 79.7829L1115.95 80.8171C1117.8 77.754 1120.22 75.3396 1123.21 73.5591L1122.18 71.8409ZM1114.24 79.7882C1112.28 83.0801 1111.3 86.691 1111.3 90.6H1113.3C1113.3 87.0424 1114.18 83.7866 1115.96 80.8118L1114.24 79.7882ZM1111.3 90.6C1111.3 94.5089 1112.28 98.1497 1114.23 101.504L1115.96 100.496C1114.18 97.4503 1113.3 94.1577 1113.3 90.6H1111.3ZM1114.25 101.525C1116.26 104.791 1118.91 107.436 1122.17 109.451L1123.22 107.749C1120.22 105.897 1117.8 103.476 1115.95 100.475L1114.25 101.525ZM1122.19 109.464C1125.55 111.42 1129.19 112.4 1133.1 112.4V110.4C1129.54 110.4 1126.25 109.513 1123.2 107.736L1122.19 109.464ZM1209.22 68V67H1208.22V68H1209.22ZM1212.42 68H1213.42V67H1212.42V68ZM1212.42 78H1211.42L1213.33 78.4027L1212.42 78ZM1219.92 70L1220.41 70.8703L1220.41 70.8668L1220.42 70.8632L1219.92 70ZM1244.72 72.2L1243.97 72.8713L1243.98 72.8786L1243.99 72.8858L1244.72 72.2ZM1249.62 113V114H1250.62V113H1249.62ZM1246.42 113H1245.42V114H1246.42V113ZM1242.42 74.2L1241.66 74.855L1241.67 74.8644L1242.42 74.2ZM1221.82 72.1L1222.29 72.9818L1222.29 72.9779L1221.82 72.1ZM1214.92 78.5L1214.07 77.9645L1214.07 77.9719L1214.06 77.9794L1214.92 78.5ZM1212.42 113V114H1213.42V113H1212.42ZM1209.22 113H1208.22V114H1209.22V113ZM1209.22 69H1212.42V67H1209.22V69ZM1211.42 68V78H1213.42V68H1211.42ZM1213.33 78.4027C1214.7 75.2893 1217.04 72.7769 1220.41 70.8703L1219.42 69.1297C1215.73 71.2231 1213.06 74.044 1211.5 77.5973L1213.33 78.4027ZM1220.42 70.8632C1223.79 68.89 1227.52 67.9 1231.62 67.9V65.9C1227.18 65.9 1223.1 66.9767 1219.41 69.1368L1220.42 70.8632ZM1231.62 67.9C1236.92 67.9 1241 69.5816 1243.97 72.8713L1245.46 71.5287C1242.04 67.7517 1237.38 65.9 1231.62 65.9V67.9ZM1243.99 72.8858C1247.03 76.1144 1248.62 80.7055 1248.62 86.8H1250.62C1250.62 80.3612 1248.93 75.219 1245.44 71.5142L1243.99 72.8858ZM1248.62 86.8V113H1250.62V86.8H1248.62ZM1249.62 112H1246.42V114H1249.62V112ZM1247.42 113V86.8H1245.42V113H1247.42ZM1247.42 86.8C1247.42 81.2407 1246.04 76.7739 1243.16 73.5356L1241.67 74.8644C1244.12 77.6261 1245.42 81.5593 1245.42 86.8H1247.42ZM1243.17 73.5451C1240.35 70.2835 1236.38 68.7 1231.42 68.7V70.7C1235.92 70.7 1239.29 72.1165 1241.66 74.8549L1243.17 73.5451ZM1231.42 68.7C1227.79 68.7 1224.42 69.5389 1221.34 71.2221L1222.29 72.9779C1225.08 71.4611 1228.11 70.7 1231.42 70.7V68.7ZM1221.34 71.2182C1218.33 72.8325 1215.9 75.0848 1214.07 77.9645L1215.76 79.0355C1217.4 76.4485 1219.57 74.4342 1222.29 72.9818L1221.34 71.2182ZM1214.06 77.9794C1212.29 80.8825 1211.42 84.1654 1211.42 87.8H1213.42C1213.42 84.5012 1214.21 81.5842 1215.77 79.0206L1214.06 77.9794ZM1211.42 87.8V113H1213.42V87.8H1211.42ZM1212.42 112H1209.22V114H1212.42V112ZM1210.22 113V68H1208.22V113H1210.22Z" fill="#FF0000"/>
</g>
<defs>
<filter id="filter0_d" x="90.8953" y="50.4" width="39.0993" height="85.7" filterUnits="userSpaceOnUse" color-interpolation-filters="sRGB">
<feFlood flood-opacity="0" result="BackgroundImageFix"/>
<feColorMatrix in="SourceAlpha" type="matrix" values="0 0 0 0 0 0 0 0 0 0 0 0 0 0 0 0 0 0 255 0"/>
<feOffset dx="5" dy="10"/>
<feGaussianBlur stdDeviation="5"/>
<feColorMatrix type="matrix" values="0 0 0 0 0 0 0 0 0 0 0 0 0 0 0 0 0 0 1 0"/>
<feBlend mode="normal" in2="BackgroundImageFix" result="effect1_dropShadow"/>
<feBlend mode="normal" in="SourceGraphic" in2="effect1_dropShadow" result="shape"/>
</filter>
<filter id="filter1_d" x="19.4567" y="37" width="1246.16" height="117.8" filterUnits="userSpaceOnUse" color-interpolation-filters="sRGB">
<feFlood flood-opacity="0" result="BackgroundImageFix"/>
<feColorMatrix in="SourceAlpha" type="matrix" values="0 0 0 0 0 0 0 0 0 0 0 0 0 0 0 0 0 0 255 0"/>
<feOffset dx="5" dy="10"/>
<feGaussianBlur stdDeviation="5"/>
<feColorMatrix type="matrix" values="0 0 0 0 0 0 0 0 0 0 0 0 0 0 0 0 0 0 1 0"/>
<feBlend mode="normal" in2="BackgroundImageFix" result="effect1_dropShadow"/>
<feBlend mode="normal" in="SourceGraphic" in2="effect1_dropShadow" result="shape"/>
</filter>
</defs>
</svg>
