<svg width="773" height="105" viewBox="0 0 773 105" fill="none" xmlns="http://www.w3.org/2000/svg">
<g filter="url(#filter0_d)">
<g filter="url(#filter1_d)">
<path d="M74.6731 19.4C79.6064 19.4 83.7063 20.9 86.9728 23.9C90.1726 26.9 91.7724 31.0333 91.772 36.3L91.7691 83.1H88.5691L88.5702 65H74.7702L74.7704 62.2L88.5704 62.2L88.572 36.3C88.5723 31.9 87.2725 28.4333 84.6727 25.9C82.0062 23.4333 78.6729 22.2 74.6729 22.2L74.6731 19.4Z" fill="#FF0000"/>
<path d="M74.6731 19.4L74.6732 18.4H73.6732L73.6731 19.4H74.6731ZM86.9728 23.9L87.6568 23.1704L87.6493 23.1635L86.9728 23.9ZM91.7691 83.1L91.769 84.1H92.769L92.7691 83.1H91.7691ZM88.5691 83.1H87.5691L87.569 84.1H88.569L88.5691 83.1ZM88.5702 65H89.5702L89.5703 64H88.5703L88.5702 65ZM74.7702 65H73.7702L73.7701 66H74.7701L74.7702 65ZM74.7704 62.2L74.7704 61.2H73.7704L73.7704 62.2H74.7704ZM88.5704 62.2L88.5703 63.2H89.5703L89.5704 62.2H88.5704ZM84.6727 25.9L85.3706 25.1838L85.3613 25.1747L85.3518 25.1659L84.6727 25.9ZM74.6729 22.2H73.6729L73.6729 23.2H74.6729L74.6729 22.2ZM74.673 20.4C79.3863 20.4 83.2356 21.8255 86.2964 24.6365L87.6493 23.1635C84.1771 19.9745 79.8266 18.4 74.6732 18.4L74.673 20.4ZM86.2888 24.6295C89.2471 27.403 90.7723 31.2498 90.772 36.3H92.772C92.7724 30.8169 91.0982 26.397 87.6568 23.1705L86.2888 24.6295ZM90.772 36.3L90.7691 83.1H92.7691L92.772 36.3H90.772ZM91.7691 82.1H88.5691L88.569 84.1H91.769L91.7691 82.1ZM89.5691 83.1L89.5702 65H87.5702L87.5691 83.1H89.5691ZM88.5703 64H74.7703L74.7701 66H88.5701L88.5703 64ZM75.7702 65L75.7704 62.2H73.7704L73.7702 65H75.7702ZM74.7703 63.2L88.5703 63.2L88.5704 61.2L74.7704 61.2L74.7703 63.2ZM89.5704 62.2L89.572 36.3H87.572L87.5704 62.2H89.5704ZM89.572 36.3C89.5723 31.6916 88.2035 27.9442 85.3706 25.1838L83.9748 26.6162C86.3416 28.9225 87.5723 32.1084 87.572 36.3H89.572ZM85.3518 25.1659C82.4811 22.5104 78.8971 21.2 74.673 21.2L74.6729 23.2C78.4487 23.2 81.5312 24.3563 83.9936 26.6341L85.3518 25.1659ZM75.6729 22.2L75.6731 19.4H73.6731L73.6729 22.2H75.6729Z" fill="#FF0000"/>
</g>
<g filter="url(#filter2_d)">
<path d="M20.2 78.1C17 78.1 14.1667 77.5667 11.7 76.5C9.23333 75.3667 7.46667 73.9333 6.4 72.2V66.9C7.66667 69.7667 9.4 71.9 11.6 73.3C13.8 74.6333 16.6 75.3 20 75.3C23.2667 75.3 25.9 74.3 27.9 72.3C29.9 70.2333 30.9 67.6 30.9 64.4C30.9 61.6667 30.3333 59.5667 29.2 58.1C28.0667 56.5667 26.2333 55.0333 23.7 53.5L19.9 51.3C17.1667 49.6333 15.1 48.3333 13.7 47.4C12.3667 46.4 11.3 45.3 10.5 44.1C9.7 42.8333 9.3 41.3667 9.3 39.7C9.3 37.0333 10.2333 34.9 12.1 33.3C13.9667 31.7 16.4 30.9 19.4 30.9C23.0667 30.9 26.1333 31.7333 28.6 33.4V37.8C26.5333 35.0667 23.5667 33.7 19.7 33.7C17.5667 33.7 15.8333 34.2333 14.5 35.3C13.1667 36.3667 12.5 37.7333 12.5 39.4C12.5 40.8667 12.9 42.1667 13.7 43.3C14.5 44.3667 15.6 45.3667 17 46.3C18.4667 47.2333 20.8667 48.6333 24.2 50.5C27.6 52.4333 30.1 54.4333 31.7 56.5C33.3 58.5 34.1 61.1333 34.1 64.4C34.1 68.5333 32.7333 71.8667 30 74.4C27.3333 76.8667 24.0667 78.1 20.2 78.1ZM149.938 21.7C149.005 21.7 148.172 21.3667 147.438 20.7C146.772 20.0333 146.438 19.2 146.438 18.2C146.438 17.2667 146.772 16.4667 147.438 15.8C148.172 15.1333 149.005 14.8 149.938 14.8C150.872 14.8 151.672 15.1333 152.338 15.8C153.072 16.4667 153.438 17.2667 153.438 18.2C153.438 19.2 153.072 20.0333 152.338 20.7C151.672 21.3667 150.872 21.7 149.938 21.7ZM148.338 32H151.538V77H148.338V32ZM223.548 77.9C220.415 77.9 217.548 77.2 214.948 75.8C212.348 74.3333 210.282 72.3 208.748 69.7C207.215 67.1 206.448 64.2 206.448 61V1.99999H209.648V61C209.648 63.6667 210.248 66.0667 211.448 68.2C212.715 70.3333 214.415 72.0333 216.548 73.3C218.682 74.5 221.015 75.1 223.548 75.1V77.9ZM297.49 78.1C293.423 78.1 289.49 77 285.69 74.8C281.957 72.6 279.09 69.7 277.09 66.1V77H273.89V1.99999H277.09V43.4C278.89 39.6 281.69 36.5667 285.49 34.3C289.29 32.0333 293.29 30.9 297.49 30.9C301.823 30.9 305.79 31.9667 309.39 34.1C313.057 36.2333 315.957 39.1 318.09 42.7C320.223 46.3 321.29 50.2333 321.29 54.5C321.29 58.7667 320.223 62.7 318.09 66.3C315.957 69.9 313.057 72.7667 309.39 74.9C305.79 77.0333 301.823 78.1 297.49 78.1ZM297.69 75.3C301.357 75.3 304.757 74.3667 307.89 72.5C311.023 70.5667 313.49 68.0333 315.29 64.9C317.157 61.7 318.09 58.2333 318.09 54.5C318.09 50.8333 317.157 47.4 315.29 44.2C313.423 41 310.923 38.4667 307.79 36.6C304.657 34.6667 301.257 33.7 297.59 33.7C293.923 33.7 290.49 34.6667 287.29 36.6C284.157 38.5333 281.623 41.1 279.69 44.3C277.823 47.5 276.89 50.9333 276.89 54.6C276.89 58.2667 277.823 61.7 279.69 64.9C281.623 68.0333 284.19 70.5667 287.39 72.5C290.59 74.3667 294.023 75.3 297.69 75.3ZM370.335 32H373.535V42.4C374.868 39.1333 376.802 36.5667 379.335 34.7C381.935 32.8333 384.868 31.9 388.135 31.9C390.202 31.9 392.302 32.3333 394.435 33.2V36.9C392.502 35.4333 390.335 34.7 387.935 34.7C385.535 34.7 383.202 35.4333 380.935 36.9C378.735 38.3667 376.935 40.3333 375.535 42.8C374.202 45.2667 373.535 47.9 373.535 50.7V77H370.335V32ZM458.166 21.4C457.366 21.4 456.666 21.1333 456.066 20.6C455.533 20 455.266 19.3 455.266 18.5C455.266 17.7667 455.533 17.1333 456.066 16.6C456.666 16 457.366 15.7 458.166 15.7C458.9 15.7 459.533 16 460.066 16.6C460.666 17.1333 460.966 17.7667 460.966 18.5C460.966 19.3 460.666 20 460.066 20.6C459.533 21.1333 458.9 21.4 458.166 21.4ZM468.766 21.4C467.966 21.4 467.266 21.1333 466.666 20.6C466.133 20 465.866 19.3 465.866 18.5C465.866 17.7667 466.133 17.1333 466.666 16.6C467.266 16 467.966 15.7 468.766 15.7C469.5 15.7 470.133 16 470.666 16.6C471.266 17.1333 471.566 17.7667 471.566 18.5C471.566 19.3 471.266 20 470.666 20.6C470.133 21.1333 469.5 21.4 468.766 21.4ZM462.166 78.1C455.833 78.1 450.933 76.3667 447.466 72.9C444.066 69.4333 442.366 64.5333 442.366 58.2V32H445.566V58.2C445.566 63.6667 447 67.9 449.866 70.9C452.8 73.8333 456.9 75.3 462.166 75.3C465.366 75.3 468.3 74.6 470.966 73.2C473.633 71.7333 475.733 69.7 477.266 67.1C478.8 64.5 479.566 61.5333 479.566 58.2V32H482.766V77H479.566V68.6C478.033 71.4 475.733 73.7 472.666 75.5C469.6 77.2333 466.1 78.1 462.166 78.1ZM556.594 78.3C552.26 78.3 548.26 77.2667 544.594 75.2C540.994 73.1333 538.127 70.3 535.994 66.7C533.86 63.1 532.794 59.0333 532.794 54.5C532.794 50.3 533.86 46.4333 535.994 42.9C538.127 39.3 541.027 36.4333 544.694 34.3C548.427 32.1667 552.527 31.1 556.994 31.1C560.727 31.1 563.927 31.7 566.594 32.9C569.26 34.1 571.86 35.9667 574.394 38.5V43.9C572.194 40.6333 569.727 38.1667 566.994 36.5C564.327 34.7667 560.994 33.9 556.994 33.9C553.327 33.9 549.86 34.8667 546.594 36.8C543.394 38.6667 540.827 41.2 538.894 44.4C536.96 47.6 535.994 51.0333 535.994 54.7C535.994 58.7 536.927 62.3 538.794 65.5C540.66 68.6333 543.16 71.1 546.294 72.9C549.494 74.6333 552.927 75.5 556.594 75.5C564.06 75.5 569.994 72.1333 574.394 65.4V70.8C571.994 73.3333 569.327 75.2333 566.394 76.5C563.527 77.7 560.26 78.3 556.594 78.3ZM623.245 1.99999H626.445V41.3C627.845 38.3 630.212 35.8333 633.545 33.9C636.945 31.9 640.379 30.9 643.845 30.9C650.179 30.9 655.045 32.6333 658.445 36.1C661.912 39.5667 663.645 44.4667 663.645 50.8V77H660.445V50.8C660.445 45.3333 658.979 41.1333 656.045 38.2C653.179 35.2 649.112 33.7 643.845 33.7C640.645 33.7 637.712 34.4667 635.045 36C632.379 37.4667 630.279 39.5333 628.745 42.2C627.212 44.8 626.445 47.6667 626.445 50.8V77H623.245V1.99999ZM738.173 75.4C741.639 75.4 744.939 74.5 748.073 72.7C751.206 70.9 753.806 68.4333 755.873 65.3V70.4C753.406 73.1333 750.706 75.1333 747.773 76.4C744.839 77.6 741.506 78.2 737.773 78.2C733.639 78.2 729.739 77.1 726.073 74.9C722.473 72.7 719.573 69.7667 717.373 66.1C715.239 62.4333 714.173 58.5333 714.173 54.4C714.173 49.9333 715.239 45.9333 717.373 42.4C719.506 38.8 722.406 36 726.073 34C729.806 32 733.939 31 738.473 31C745.406 31 751.306 33.7333 756.173 39.2L724.773 70.2C726.973 72 729.106 73.3333 731.173 74.2C733.239 75 735.573 75.4 738.173 75.4ZM717.373 54.1C717.373 59.6333 719.206 64.3667 722.873 68.3L752.173 39.2C749.973 37.2667 747.839 35.9 745.773 35.1C743.706 34.2333 741.239 33.8 738.373 33.8C734.306 33.8 730.673 34.7 727.473 36.5C724.339 38.2333 721.873 40.6333 720.073 43.7C718.273 46.7667 717.373 50.2333 717.373 54.1Z" fill="#FF0000"/>
<path d="M11.7 76.5L11.2825 77.4087L11.2927 77.4134L11.3031 77.4179L11.7 76.5ZM6.4 72.2H5.4V72.483L5.54834 72.7241L6.4 72.2ZM6.4 66.9L7.31469 66.4958L5.4 66.9H6.4ZM11.6 73.3L11.0631 74.1437L11.0723 74.1495L11.0817 74.1552L11.6 73.3ZM27.9 72.3L28.6071 73.0071L28.6129 73.0013L28.6186 72.9954L27.9 72.3ZM29.2 58.1L28.3958 58.6944L28.4022 58.703L28.4087 58.7114L29.2 58.1ZM23.7 53.5L24.2178 52.6445L24.2095 52.6395L24.201 52.6346L23.7 53.5ZM19.9 51.3L19.3794 52.1538L19.3891 52.1597L19.399 52.1654L19.9 51.3ZM13.7 47.4L13.1 48.2L13.1222 48.2167L13.1453 48.232L13.7 47.4ZM10.5 44.1L9.65451 44.634L9.6611 44.6444L9.66795 44.6547L10.5 44.1ZM12.1 33.3L12.7508 34.0593L12.7508 34.0593L12.1 33.3ZM28.6 33.4H29.6V32.8688L29.1599 32.5714L28.6 33.4ZM28.6 37.8L27.8023 38.4031L29.6 40.7807V37.8H28.6ZM14.5 35.3L13.8753 34.5191L13.8753 34.5191L14.5 35.3ZM13.7 43.3L12.883 43.8767L12.8913 43.8885L12.9 43.9L13.7 43.3ZM17 46.3L16.4453 47.132L16.4542 47.1379L16.4631 47.1437L17 46.3ZM24.2 50.5L24.6943 49.6307L24.6886 49.6275L24.2 50.5ZM31.7 56.5L30.9093 57.1122L30.9142 57.1185L30.9191 57.1247L31.7 56.5ZM30 74.4L30.679 75.1341L30.6798 75.1334L30 74.4ZM20.2 77.1C17.1109 77.1 14.4167 76.5853 12.0969 75.5821L11.3031 77.4179C13.9166 78.548 16.8891 79.1 20.2 79.1V77.1ZM12.1175 75.5913C9.77164 74.5135 8.18542 73.1933 7.25166 71.6759L5.54834 72.7241C6.74791 74.6734 8.69503 76.2198 11.2825 77.4087L12.1175 75.5913ZM7.4 72.2V66.9H5.4V72.2H7.4ZM5.48531 67.3042C6.81543 70.3144 8.66545 72.6179 11.0631 74.1437L12.1369 72.4563C10.1346 71.1821 8.5179 69.2189 7.31469 66.4958L5.48531 67.3042ZM11.0817 74.1552C13.4806 75.6091 16.4745 76.3 20 76.3V74.3C16.7255 74.3 14.1194 73.6576 12.1183 72.4448L11.0817 74.1552ZM20 76.3C23.4874 76.3 26.3903 75.2239 28.6071 73.0071L27.1929 71.5929C25.4097 73.3761 23.046 74.3 20 74.3V76.3ZM28.6186 72.9954C30.8201 70.7205 31.9 67.8277 31.9 64.4H29.9C29.9 67.3723 28.9799 69.7461 27.1814 71.6046L28.6186 72.9954ZM31.9 64.4C31.9 61.5462 31.3108 59.1962 29.9913 57.4886L28.4087 58.7114C29.3558 59.9371 29.9 61.7871 29.9 64.4H31.9ZM30.0042 57.5056C28.7625 55.8257 26.8076 54.212 24.2178 52.6445L23.1822 54.3555C25.659 55.8546 27.3708 57.3076 28.3958 58.6944L30.0042 57.5056ZM24.201 52.6346L20.401 50.4346L19.399 52.1654L23.199 54.3654L24.201 52.6346ZM20.4206 50.4462C17.6905 48.7815 15.6376 47.4899 14.2547 46.5679L13.1453 48.232C14.5624 49.1768 16.6428 50.4852 19.3794 52.1538L20.4206 50.4462ZM14.3 46.6C13.0435 45.6576 12.0602 44.6376 11.3321 43.5453L9.66795 44.6547C10.5398 45.9624 11.6898 47.1424 13.1 48.2L14.3 46.6ZM11.3455 43.566C10.6575 42.4768 10.3 41.1996 10.3 39.7H8.3C8.3 41.5337 8.74246 43.1899 9.65451 44.634L11.3455 43.566ZM10.3 39.7C10.3 37.2973 11.1262 35.4518 12.7508 34.0593L11.4492 32.5407C9.34051 34.3482 8.3 36.7694 8.3 39.7H10.3ZM12.7508 34.0593C14.3986 32.6469 16.584 31.9 19.4 31.9V29.9C16.216 29.9 13.5347 30.7531 11.4492 32.5407L12.7508 34.0593ZM19.4 31.9C22.9137 31.9 25.7736 32.6971 28.0401 34.2286L29.1599 32.5714C26.4931 30.7695 23.2196 29.9 19.4 29.9V31.9ZM27.6 33.4V37.8H29.6V33.4H27.6ZM29.3977 37.1969C27.1159 34.179 23.834 32.7 19.7 32.7V34.7C23.2993 34.7 25.9508 35.9543 27.8023 38.4031L29.3977 37.1969ZM19.7 32.7C17.3975 32.7 15.4265 33.2782 13.8753 34.5191L15.1247 36.0809C16.2402 35.1885 17.7358 34.7 19.7 34.7V32.7ZM13.8753 34.5191C12.3115 35.7702 11.5 37.421 11.5 39.4H13.5C13.5 38.0457 14.0218 36.9632 15.1247 36.0809L13.8753 34.5191ZM11.5 39.4C11.5 41.0607 11.9569 42.5647 12.883 43.8767L14.517 42.7233C13.8431 41.7687 13.5 40.6727 13.5 39.4H11.5ZM12.9 43.9C13.7832 45.0776 14.9746 46.1516 16.4453 47.132L17.5547 45.4679C16.2254 44.5818 15.2168 43.6557 14.5 42.7L12.9 43.9ZM16.4631 47.1437C17.9552 48.0932 20.3763 49.5048 23.7114 51.3725L24.6886 49.6275C21.3571 47.7618 18.9781 46.3735 17.5369 45.4563L16.4631 47.1437ZM23.7057 51.3693C27.0425 53.2667 29.4199 55.1884 30.9093 57.1122L32.4907 55.8878C30.7801 53.6782 28.1575 51.6 24.6943 49.6307L23.7057 51.3693ZM30.9191 57.1247C32.3421 58.9034 33.1 61.2968 33.1 64.4H35.1C35.1 60.9698 34.2579 58.0966 32.4809 55.8753L30.9191 57.1247ZM33.1 64.4C33.1 68.2886 31.8259 71.3442 29.3202 73.6666L30.6798 75.1334C33.6408 72.3891 35.1 68.778 35.1 64.4H33.1ZM29.321 73.6659C26.8517 75.9499 23.8327 77.1 20.2 77.1V79.1C24.3006 79.1 27.8149 77.7834 30.679 75.1341L29.321 73.6659ZM147.438 20.7L146.731 21.4071L146.748 21.4239L146.766 21.4399L147.438 20.7ZM147.438 15.8L146.766 15.0601L146.748 15.0761L146.731 15.0929L147.438 15.8ZM152.338 15.8L151.631 16.5071L151.648 16.5239L151.666 16.5399L152.338 15.8ZM152.338 20.7L151.666 19.9601L151.648 19.9761L151.631 19.9929L152.338 20.7ZM148.338 32V31H147.338V32H148.338ZM151.538 32H152.538V31H151.538V32ZM151.538 77V78H152.538V77H151.538ZM148.338 77H147.338V78H148.338V77ZM149.938 20.7C149.27 20.7 148.673 20.4707 148.111 19.9601L146.766 21.4399C147.671 22.2626 148.74 22.7 149.938 22.7V20.7ZM148.145 19.9929C147.679 19.526 147.438 18.9526 147.438 18.2H145.438C145.438 19.4474 145.865 20.5406 146.731 21.4071L148.145 19.9929ZM147.438 18.2C147.438 17.5349 147.664 16.9884 148.145 16.5071L146.731 15.0929C145.879 15.945 145.438 16.9984 145.438 18.2H147.438ZM148.111 16.5399C148.673 16.0293 149.27 15.8 149.938 15.8V13.8C148.74 13.8 147.671 14.2374 146.766 15.0601L148.111 16.5399ZM149.938 15.8C150.603 15.8 151.15 16.0258 151.631 16.5071L153.045 15.0929C152.193 14.2408 151.14 13.8 149.938 13.8V15.8ZM151.666 16.5399C152.205 17.0303 152.438 17.5675 152.438 18.2H154.438C154.438 16.9659 153.938 15.903 153.011 15.0601L151.666 16.5399ZM152.438 18.2C152.438 18.9212 152.188 19.4849 151.666 19.9601L153.011 21.4399C153.955 20.5818 154.438 19.4788 154.438 18.2H152.438ZM151.631 19.9929C151.15 20.4742 150.603 20.7 149.938 20.7V22.7C151.14 22.7 152.193 22.2592 153.045 21.4071L151.631 19.9929ZM148.338 33H151.538V31H148.338V33ZM150.538 32V77H152.538V32H150.538ZM151.538 76H148.338V78H151.538V76ZM149.338 77V32H147.338V77H149.338ZM223.548 77.9V78.9H224.548V77.9H223.548ZM214.948 75.8L214.457 76.671L214.466 76.6758L214.474 76.6805L214.948 75.8ZM208.748 69.7L209.61 69.192L209.61 69.192L208.748 69.7ZM206.448 1.99999V0.999994H205.448V1.99999H206.448ZM209.648 1.99999H210.648V0.999994H209.648V1.99999ZM211.448 68.2L210.577 68.6903L210.583 68.7005L210.589 68.7105L211.448 68.2ZM216.548 73.3L216.038 74.1599L216.048 74.1658L216.058 74.1716L216.548 73.3ZM223.548 75.1H224.548V74.1H223.548V75.1ZM223.548 76.9C220.57 76.9 217.868 76.2363 215.423 74.9195L214.474 76.6805C217.229 78.1637 220.26 78.9 223.548 78.9V76.9ZM215.44 74.929C212.995 73.5497 211.055 71.6424 209.61 69.192L207.887 70.208C209.509 72.9576 211.702 75.1169 214.457 76.671L215.44 74.929ZM209.61 69.192C208.173 66.7553 207.448 64.0325 207.448 61H205.448C205.448 64.3675 206.257 67.4447 207.887 70.208L209.61 69.192ZM207.448 61V1.99999H205.448V61H207.448ZM206.448 2.99999H209.648V0.999994H206.448V2.99999ZM208.648 1.99999V61H210.648V1.99999H208.648ZM208.648 61C208.648 63.8226 209.285 66.3941 210.577 68.6903L212.32 67.7097C211.212 65.7393 210.648 63.5107 210.648 61H208.648ZM210.589 68.7105C211.941 70.9877 213.761 72.8078 216.038 74.1599L217.059 72.4401C215.069 71.2589 213.49 69.679 212.308 67.6895L210.589 68.7105ZM216.058 74.1716C218.347 75.4588 220.85 76.1 223.548 76.1V74.1C221.181 74.1 219.017 73.5412 217.039 72.4284L216.058 74.1716ZM222.548 75.1V77.9H224.548V75.1H222.548ZM285.69 74.8L285.182 75.6616L285.189 75.6654L285.69 74.8ZM277.09 66.1L277.964 65.6144L276.09 62.2409V66.1H277.09ZM277.09 77V78H278.09V77H277.09ZM273.89 77H272.89V78H273.89V77ZM273.89 1.99999V0.999994H272.89V1.99999H273.89ZM277.09 1.99999H278.09V0.999994H277.09V1.99999ZM277.09 43.4H276.09L277.994 43.8281L277.09 43.4ZM285.49 34.3L284.978 33.4412L284.978 33.4412L285.49 34.3ZM309.39 34.1L308.88 34.9603L308.887 34.9643L309.39 34.1ZM318.09 42.7L317.23 43.2098L317.23 43.2098L318.09 42.7ZM318.09 66.3L317.23 65.7902L317.23 65.7902L318.09 66.3ZM309.39 74.9L308.887 74.0356L308.88 74.0397L309.39 74.9ZM307.89 72.5L308.402 73.3591L308.408 73.3551L308.415 73.351L307.89 72.5ZM315.29 64.9L314.426 64.3961L314.423 64.4019L315.29 64.9ZM315.29 44.2L316.154 43.6961L316.154 43.6961L315.29 44.2ZM307.79 36.6L307.265 37.451L307.271 37.4551L307.278 37.4591L307.79 36.6ZM287.29 36.6L286.773 35.744L286.765 35.749L287.29 36.6ZM279.69 44.3L278.834 43.7829L278.83 43.7895L278.826 43.7961L279.69 44.3ZM279.69 64.9L278.826 65.4039L278.832 65.4146L278.839 65.4251L279.69 64.9ZM287.39 72.5L286.873 73.3559L286.879 73.3599L286.886 73.3638L287.39 72.5ZM297.49 77.1C293.613 77.1 289.851 76.0537 286.191 73.9346L285.189 75.6654C289.129 77.9463 293.233 79.1 297.49 79.1V77.1ZM286.198 73.9385C282.609 71.824 279.873 69.0504 277.964 65.6144L276.216 66.5856C278.307 70.3496 281.304 73.376 285.182 75.6615L286.198 73.9385ZM276.09 66.1V77H278.09V66.1H276.09ZM277.09 76H273.89V78H277.09V76ZM274.89 77V1.99999H272.89V77H274.89ZM273.89 2.99999H277.09V0.999994H273.89V2.99999ZM276.09 1.99999V43.4H278.09V1.99999H276.09ZM277.994 43.8281C279.704 40.2169 282.363 37.3295 286.002 35.1588L284.978 33.4412C281.017 35.8038 278.076 38.9831 276.186 42.9719L277.994 43.8281ZM286.002 35.1588C289.656 32.9794 293.48 31.9 297.49 31.9V29.9C293.1 29.9 288.924 31.0873 284.978 33.4412L286.002 35.1588ZM297.49 31.9C301.65 31.9 305.44 32.9218 308.88 34.9603L309.9 33.2397C306.14 31.0116 301.996 29.9 297.49 29.9V31.9ZM308.887 34.9643C312.408 37.0131 315.184 39.7586 317.23 43.2098L318.95 42.1902C316.729 38.4414 313.705 35.4535 309.893 33.2356L308.887 34.9643ZM317.23 43.2098C319.27 46.6523 320.29 50.409 320.29 54.5H322.29C322.29 50.0576 321.177 45.9477 318.95 42.1902L317.23 43.2098ZM320.29 54.5C320.29 58.591 319.27 62.3477 317.23 65.7902L318.95 66.8098C321.177 63.0523 322.29 58.9424 322.29 54.5H320.29ZM317.23 65.7902C315.184 69.2414 312.408 71.9869 308.887 74.0357L309.893 75.7643C313.705 73.5465 316.729 70.5586 318.95 66.8098L317.23 65.7902ZM308.88 74.0397C305.44 76.0782 301.65 77.1 297.49 77.1V79.1C301.996 79.1 306.14 77.9884 309.9 75.7603L308.88 74.0397ZM297.69 76.3C301.536 76.3 305.113 75.3185 308.402 73.3591L307.378 71.6409C304.4 73.4148 301.177 74.3 297.69 74.3V76.3ZM308.415 73.351C311.687 71.3321 314.272 68.6785 316.157 65.3981L314.423 64.4019C312.707 67.3881 310.359 69.8013 307.365 71.649L308.415 73.351ZM316.154 65.4039C318.11 62.0497 319.09 58.4089 319.09 54.5H317.09C317.09 58.0577 316.203 61.3503 314.426 64.3961L316.154 65.4039ZM319.09 54.5C319.09 50.6544 318.109 47.0474 316.154 43.6961L314.426 44.7039C316.204 47.7526 317.09 51.0123 317.09 54.5H319.09ZM316.154 43.6961C314.203 40.3522 311.583 37.6957 308.302 35.7409L307.278 37.4591C310.263 39.2377 312.643 41.6478 314.426 44.7039L316.154 43.6961ZM308.315 35.749C305.024 33.7187 301.443 32.7 297.59 32.7V34.7C301.07 34.7 304.289 35.6147 307.265 37.451L308.315 35.749ZM297.59 32.7C293.737 32.7 290.126 33.7184 286.773 35.7441L287.807 37.4559C290.854 35.6149 294.109 34.7 297.59 34.7V32.7ZM286.765 35.749C283.494 37.7671 280.848 40.4491 278.834 43.7829L280.546 44.8171C282.398 41.7509 284.819 39.2996 287.815 37.451L286.765 35.749ZM278.826 43.7961C276.871 47.1474 275.89 50.7544 275.89 54.6H277.89C277.89 51.1123 278.775 47.8526 280.554 44.8039L278.826 43.7961ZM275.89 54.6C275.89 58.4456 276.871 62.0526 278.826 65.4039L280.554 64.3961C278.775 61.3474 277.89 58.0877 277.89 54.6H275.89ZM278.839 65.4251C280.857 68.6958 283.539 71.3417 286.873 73.3559L287.907 71.6441C284.841 69.7916 282.389 67.3708 280.541 64.3749L278.839 65.4251ZM286.886 73.3638C290.237 75.3187 293.844 76.3 297.69 76.3V74.3C294.202 74.3 290.942 73.4146 287.894 71.6362L286.886 73.3638ZM370.335 32V31H369.335V32H370.335ZM373.535 32H374.535V31H373.535V32ZM373.535 42.4H372.535L374.461 42.7779L373.535 42.4ZM379.335 34.7L378.752 33.8876L378.742 33.8949L379.335 34.7ZM394.435 33.2H395.435V32.5269L394.812 32.2735L394.435 33.2ZM394.435 36.9L393.831 37.6967L395.435 38.9138V36.9H394.435ZM380.935 36.9L380.392 36.0603L380.38 36.0679L380.935 36.9ZM375.535 42.8L374.665 42.3064L374.66 42.3154L374.655 42.3245L375.535 42.8ZM373.535 77V78H374.535V77H373.535ZM370.335 77H369.335V78H370.335V77ZM370.335 33H373.535V31H370.335V33ZM372.535 32V42.4H374.535V32H372.535ZM374.461 42.7779C375.733 39.6603 377.56 37.2498 379.928 35.5051L378.742 33.8949C376.043 35.8835 374.003 38.6064 372.609 42.0221L374.461 42.7779ZM379.918 35.5123C382.345 33.7704 385.073 32.9 388.135 32.9V30.9C384.664 30.9 381.526 31.8963 378.752 33.8877L379.918 35.5123ZM388.135 32.9C390.059 32.9 392.031 33.3028 394.059 34.1265L394.812 32.2735C392.572 31.3638 390.345 30.9 388.135 30.9V32.9ZM393.435 33.2V36.9H395.435V33.2H393.435ZM395.04 36.1033C392.934 34.5063 390.556 33.7 387.935 33.7V35.7C390.114 35.7 392.069 36.3603 393.831 37.6967L395.04 36.1033ZM387.935 33.7C385.319 33.7 382.8 34.5025 380.392 36.0604L381.478 37.7396C383.604 36.3641 385.751 35.7 387.935 35.7V33.7ZM380.38 36.0679C378.041 37.6275 376.137 39.714 374.665 42.3064L376.405 43.2936C377.733 40.9527 379.429 39.1058 381.49 37.732L380.38 36.0679ZM374.655 42.3245C373.243 44.937 372.535 47.7337 372.535 50.7H374.535C374.535 48.0663 375.16 45.5963 376.415 43.2755L374.655 42.3245ZM372.535 50.7V77H374.535V50.7H372.535ZM373.535 76H370.335V78H373.535V76ZM371.335 77V32H369.335V77H371.335ZM456.066 20.6L455.319 21.2644L455.358 21.3083L455.402 21.3474L456.066 20.6ZM456.066 16.6L455.359 15.8929L455.359 15.8929L456.066 16.6ZM460.066 16.6L459.319 17.2644L459.358 17.3083L459.402 17.3474L460.066 16.6ZM460.066 20.6L460.774 21.3071L460.774 21.3071L460.066 20.6ZM466.666 20.6L465.919 21.2644L465.958 21.3083L466.002 21.3474L466.666 20.6ZM466.666 16.6L467.374 17.3071L466.666 16.6ZM470.666 16.6L469.919 17.2644L469.958 17.3083L470.002 17.3474L470.666 16.6ZM470.666 20.6L471.374 21.3071L471.374 21.3071L470.666 20.6ZM447.466 72.9L446.752 73.6002L446.759 73.6071L447.466 72.9ZM442.366 32V31H441.366V32H442.366ZM445.566 32H446.566V31H445.566V32ZM449.866 70.9L449.143 71.5909L449.151 71.5991L449.159 71.6071L449.866 70.9ZM470.966 73.2L471.431 74.0854L471.44 74.0809L471.448 74.0762L470.966 73.2ZM479.566 32V31H478.566V32H479.566ZM482.766 32H483.766V31H482.766V32ZM482.766 77V78H483.766V77H482.766ZM479.566 77H478.566V78H479.566V77ZM479.566 68.6H480.566L478.689 68.1197L479.566 68.6ZM472.666 75.5L473.158 76.3706L473.166 76.3665L473.173 76.3624L472.666 75.5ZM458.166 20.4C457.612 20.4 457.148 20.2238 456.731 19.8526L455.402 21.3474C456.184 22.0428 457.121 22.4 458.166 22.4V20.4ZM456.814 19.9356C456.443 19.518 456.266 19.0541 456.266 18.5H454.266C454.266 19.5458 454.624 20.482 455.319 21.2644L456.814 19.9356ZM456.266 18.5C456.266 18.0402 456.422 17.6589 456.774 17.3071L455.359 15.8929C454.644 16.6078 454.266 17.4931 454.266 18.5H456.266ZM456.774 17.3071C457.199 16.882 457.649 16.7 458.166 16.7V14.7C457.084 14.7 456.134 15.118 455.359 15.8929L456.774 17.3071ZM458.166 16.7C458.585 16.7 458.955 16.8552 459.319 17.2644L460.814 15.9356C460.111 15.1448 459.214 14.7 458.166 14.7V16.7ZM459.402 17.3474C459.811 17.7111 459.966 18.0813 459.966 18.5H461.966C461.966 17.452 461.522 16.5555 460.731 15.8526L459.402 17.3474ZM459.966 18.5C459.966 19.0174 459.784 19.4678 459.359 19.8929L460.774 21.3071C461.548 20.5322 461.966 19.5826 461.966 18.5H459.966ZM459.359 19.8929C459.008 20.2447 458.626 20.4 458.166 20.4V22.4C459.173 22.4 460.059 22.022 460.774 21.3071L459.359 19.8929ZM468.766 20.4C468.212 20.4 467.748 20.2238 467.331 19.8526L466.002 21.3474C466.784 22.0428 467.721 22.4 468.766 22.4V20.4ZM467.414 19.9356C467.043 19.518 466.866 19.0541 466.866 18.5H464.866C464.866 19.5458 465.224 20.482 465.919 21.2644L467.414 19.9356ZM466.866 18.5C466.866 18.0402 467.022 17.6589 467.374 17.3071L465.959 15.8929C465.244 16.6078 464.866 17.4931 464.866 18.5H466.866ZM467.374 17.3071C467.799 16.882 468.249 16.7 468.766 16.7V14.7C467.684 14.7 466.734 15.118 465.959 15.8929L467.374 17.3071ZM468.766 16.7C469.185 16.7 469.555 16.8552 469.919 17.2644L471.414 15.9356C470.711 15.1448 469.814 14.7 468.766 14.7V16.7ZM470.002 17.3474C470.411 17.7111 470.566 18.0813 470.566 18.5H472.566C472.566 17.452 472.122 16.5555 471.331 15.8526L470.002 17.3474ZM470.566 18.5C470.566 19.0174 470.384 19.4678 469.959 19.8929L471.374 21.3071C472.148 20.5322 472.566 19.5826 472.566 18.5H470.566ZM469.959 19.8929C469.608 20.2447 469.226 20.4 468.766 20.4V22.4C469.773 22.4 470.659 22.022 471.374 21.3071L469.959 19.8929ZM462.166 77.1C456.017 77.1 451.402 75.4217 448.174 72.1929L446.759 73.6071C450.464 77.3116 455.649 79.1 462.166 79.1V77.1ZM448.18 72.1998C445.014 68.9718 443.366 64.3542 443.366 58.2H441.366C441.366 64.7125 443.118 69.8949 446.752 73.6002L448.18 72.1998ZM443.366 58.2V32H441.366V58.2H443.366ZM442.366 33H445.566V31H442.366V33ZM444.566 32V58.2H446.566V32H444.566ZM444.566 58.2C444.566 63.8398 446.048 68.3517 449.143 71.5909L450.589 70.2091C447.951 67.4483 446.566 63.4935 446.566 58.2H444.566ZM449.159 71.6071C452.327 74.7751 456.71 76.3 462.166 76.3V74.3C457.09 74.3 453.272 72.8915 450.574 70.1929L449.159 71.6071ZM462.166 76.3C465.518 76.3 468.612 75.5654 471.431 74.0854L470.502 72.3146C467.987 73.6346 465.215 74.3 462.166 74.3V76.3ZM471.448 74.0762C474.271 72.5238 476.502 70.3639 478.128 67.608L476.405 66.592C474.964 69.0361 472.995 70.9428 470.484 72.3238L471.448 74.0762ZM478.128 67.608C479.761 64.8384 480.566 61.6928 480.566 58.2H478.566C478.566 61.3738 477.838 64.1616 476.405 66.592L478.128 67.608ZM480.566 58.2V32H478.566V58.2H480.566ZM479.566 33H482.766V31H479.566V33ZM481.766 32V77H483.766V32H481.766ZM482.766 76H479.566V78H482.766V76ZM480.566 77V68.6H478.566V77H480.566ZM478.689 68.1197C477.252 70.7436 475.089 72.9184 472.16 74.6376L473.173 76.3624C476.377 74.4816 478.814 72.0564 480.444 69.0803L478.689 68.1197ZM472.174 74.6294C469.275 76.2684 465.948 77.1 462.166 77.1V79.1C466.252 79.1 469.925 78.1983 473.158 76.3706L472.174 74.6294ZM544.594 75.2L544.096 76.0673L544.103 76.0712L544.594 75.2ZM535.994 66.7L536.854 66.1902L536.854 66.1902L535.994 66.7ZM535.994 42.9L536.85 43.4169L536.854 43.4098L535.994 42.9ZM544.694 34.3L544.198 33.4317L544.191 33.4357L544.694 34.3ZM566.594 32.9L567.004 31.9881L567.004 31.9881L566.594 32.9ZM574.394 38.5H575.394V38.0858L575.101 37.7929L574.394 38.5ZM574.394 43.9L573.564 44.4586L575.394 47.175V43.9H574.394ZM566.994 36.5L566.449 37.3384L566.461 37.3463L566.473 37.3538L566.994 36.5ZM546.594 36.8L547.098 37.6638L547.103 37.6606L546.594 36.8ZM538.894 44.4L539.75 44.9171L539.75 44.9171L538.894 44.4ZM538.794 65.5L537.93 66.0039L537.935 66.0118L538.794 65.5ZM546.294 72.9L545.796 73.7671L545.806 73.7733L545.817 73.7793L546.294 72.9ZM574.394 65.4H575.394V62.0416L573.557 64.853L574.394 65.4ZM574.394 70.8L575.12 71.4877L575.394 71.1985V70.8H574.394ZM566.394 76.5L566.78 77.4225L566.79 77.4181L566.394 76.5ZM556.594 77.3C552.427 77.3 548.597 76.3085 545.085 74.3288L544.103 76.0712C547.924 78.2249 552.094 79.3 556.594 79.3V77.3ZM545.092 74.3327C541.643 72.3527 538.9 69.643 536.854 66.1902L535.133 67.2098C537.354 70.957 540.345 73.914 544.096 76.0673L545.092 74.3327ZM536.854 66.1902C534.82 62.7573 533.794 58.8694 533.794 54.5H531.794C531.794 59.1973 532.901 63.4427 535.133 67.2098L536.854 66.1902ZM533.794 54.5C533.794 50.4788 534.812 46.7914 536.85 43.4169L535.138 42.3831C532.908 46.0753 531.794 50.1212 531.794 54.5H533.794ZM536.854 43.4098C538.899 39.9586 541.675 37.2131 545.197 35.1643L544.191 33.4357C540.379 35.6535 537.355 38.6414 535.133 42.3902L536.854 43.4098ZM545.19 35.1682C548.766 33.1247 552.694 32.1 556.994 32.1V30.1C552.36 30.1 548.088 31.2087 544.198 33.4318L545.19 35.1682ZM556.994 32.1C560.623 32.1 563.676 32.6837 566.183 33.8119L567.004 31.9881C564.178 30.7163 560.831 30.1 556.994 30.1V32.1ZM566.183 33.8119C568.718 34.9524 571.22 36.7408 573.687 39.2071L575.101 37.7929C572.501 35.1925 569.803 33.2476 567.004 31.9881L566.183 33.8119ZM573.394 38.5V43.9H575.394V38.5H573.394ZM575.223 43.3414C572.961 39.9821 570.396 37.4031 567.514 35.6462L566.473 37.3538C569.059 38.9303 571.427 41.2846 573.564 44.4586L575.223 43.3414ZM567.539 35.6616C564.673 33.7986 561.138 32.9 556.994 32.9V34.9C560.85 34.9 563.981 35.7347 566.449 37.3384L567.539 35.6616ZM556.994 32.9C553.141 32.9 549.5 33.9182 546.084 35.9394L547.103 37.6606C550.221 35.8151 553.513 34.9 556.994 34.9V32.9ZM546.09 35.9362C542.744 37.888 540.057 40.5411 538.038 43.8829L539.75 44.9171C541.597 41.8589 544.044 39.4453 547.098 37.6638L546.09 35.9362ZM538.038 43.8829C536.012 47.2357 534.994 50.8473 534.994 54.7H536.994C536.994 51.2193 537.909 47.9643 539.75 44.9171L538.038 43.8829ZM534.994 54.7C534.994 58.8625 535.967 62.6388 537.93 66.0039L539.658 64.9961C537.887 61.9612 536.994 58.5375 536.994 54.7H534.994ZM537.935 66.0118C539.888 69.2911 542.512 71.8808 545.796 73.7671L546.792 72.0329C543.809 70.3192 541.433 67.9755 539.653 64.9882L537.935 66.0118ZM545.817 73.7793C549.165 75.5925 552.762 76.5 556.594 76.5V74.5C553.092 74.5 549.823 73.6742 546.77 72.0207L545.817 73.7793ZM556.594 76.5C564.428 76.5 570.663 72.937 575.231 65.947L573.557 64.853C569.324 71.3297 563.693 74.5 556.594 74.5V76.5ZM573.394 65.4V70.8H575.394V65.4H573.394ZM573.668 70.1123C571.352 72.5564 568.795 74.3737 565.997 75.5819L566.79 77.4181C569.859 76.093 572.635 74.1102 575.12 71.4877L573.668 70.1123ZM566.008 75.5776C563.283 76.718 560.151 77.3 556.594 77.3V79.3C560.37 79.3 563.771 78.682 566.78 77.4224L566.008 75.5776ZM623.245 1.99999V0.999994H622.245V1.99999H623.245ZM626.445 1.99999H627.445V0.999994H626.445V1.99999ZM626.445 41.3H625.445L627.351 41.7229L626.445 41.3ZM633.545 33.9L634.047 34.765L634.052 34.7619L633.545 33.9ZM658.445 36.1L657.731 36.8002L657.738 36.8071L658.445 36.1ZM663.645 77V78H664.645V77H663.645ZM660.445 77H659.445V78H660.445V77ZM656.045 38.2L655.322 38.8909L655.33 38.8991L655.338 38.9071L656.045 38.2ZM635.045 36L635.527 36.8762L635.536 36.8716L635.544 36.8669L635.045 36ZM628.745 42.2L629.607 42.708L629.612 42.6985L628.745 42.2ZM626.445 77V78H627.445V77H626.445ZM623.245 77H622.245V78H623.245V77ZM623.245 2.99999H626.445V0.999994H623.245V2.99999ZM625.445 1.99999V41.3H627.445V1.99999H625.445ZM627.351 41.7229C628.652 38.9371 630.861 36.6131 634.047 34.765L633.044 33.035C629.563 35.0536 627.039 37.6629 625.539 40.8771L627.351 41.7229ZM634.052 34.7619C637.32 32.8396 640.58 31.9 643.845 31.9V29.9C640.177 29.9 636.57 30.9604 633.038 33.0381L634.052 34.7619ZM643.845 31.9C649.995 31.9 654.572 33.5787 657.731 36.8002L659.159 35.3998C655.519 31.688 650.362 29.9 643.845 29.9V31.9ZM657.738 36.8071C660.967 40.0359 662.645 44.651 662.645 50.8H664.645C664.645 44.2823 662.857 39.0974 659.152 35.3929L657.738 36.8071ZM662.645 50.8V77H664.645V50.8H662.645ZM663.645 76H660.445V78H663.645V76ZM661.445 77V50.8H659.445V77H661.445ZM661.445 50.8C661.445 45.1556 659.927 40.6677 656.752 37.4929L655.338 38.9071C658.03 41.599 659.445 45.5111 659.445 50.8H661.445ZM656.768 37.5091C653.665 34.2617 649.307 32.7 643.845 32.7V34.7C648.917 34.7 652.692 36.1383 655.322 38.8909L656.768 37.5091ZM643.845 32.7C640.478 32.7 637.371 33.509 634.547 35.1331L635.544 36.8669C638.053 35.4244 640.813 34.7 643.845 34.7V32.7ZM634.563 35.1238C631.734 36.6797 629.502 38.8779 627.878 41.7015L629.612 42.6985C631.055 40.1888 633.023 38.2536 635.527 36.8762L634.563 35.1238ZM627.884 41.692C626.256 44.4519 625.445 47.4951 625.445 50.8H627.445C627.445 47.8382 628.168 45.1481 629.607 42.708L627.884 41.692ZM625.445 50.8V77H627.445V50.8H625.445ZM626.445 76H623.245V78H626.445V76ZM624.245 77V1.99999H622.245V77H624.245ZM748.073 72.7L747.575 71.8329L747.575 71.8329L748.073 72.7ZM755.873 65.3H756.873V61.9677L755.038 64.7494L755.873 65.3ZM755.873 70.4L756.615 71.07L756.873 70.7845V70.4H755.873ZM747.773 76.4L748.151 77.3255L748.16 77.3219L748.169 77.3181L747.773 76.4ZM726.073 74.9L725.551 75.7533L725.558 75.7575L726.073 74.9ZM717.373 66.1L716.508 66.6029L716.515 66.6145L717.373 66.1ZM717.373 42.4L718.229 42.9169L718.233 42.9098L717.373 42.4ZM726.073 34L725.6 33.1185L725.594 33.1221L726.073 34ZM756.173 39.2L756.875 39.9116L757.551 39.2444L756.92 38.5351L756.173 39.2ZM724.773 70.2L724.07 69.4884L723.279 70.2697L724.139 70.974L724.773 70.2ZM731.173 74.2L730.786 75.1222L730.799 75.1276L730.812 75.1326L731.173 74.2ZM722.873 68.3L722.141 68.9819L722.845 69.7369L723.577 69.0095L722.873 68.3ZM752.173 39.2L752.877 39.9095L753.637 39.1553L752.833 38.4488L752.173 39.2ZM745.773 35.1L745.386 36.0222L745.399 36.0276L745.412 36.0326L745.773 35.1ZM727.473 36.5L727.957 37.3751L727.963 37.3716L727.473 36.5ZM720.073 43.7L719.21 43.1938L720.073 43.7ZM738.173 76.4C741.822 76.4 745.293 75.4503 748.571 73.5671L747.575 71.8329C744.586 73.5497 741.457 74.4 738.173 74.4V76.4ZM748.571 73.5671C751.845 71.6863 754.558 69.1091 756.707 65.8506L755.038 64.7494C753.054 67.7576 750.567 70.1137 747.575 71.8329L748.571 73.5671ZM754.873 65.3V70.4H756.873V65.3H754.873ZM755.13 69.73C752.745 72.373 750.159 74.2802 747.376 75.4819L748.169 77.3181C751.253 75.9864 754.067 73.8937 756.615 71.07L755.13 69.73ZM747.394 75.4745C744.6 76.6174 741.399 77.2 737.773 77.2V79.2C741.613 79.2 745.078 78.5826 748.151 77.3255L747.394 75.4745ZM737.773 77.2C733.827 77.2 730.104 76.1526 726.587 74.0425L725.558 75.7575C729.375 78.0474 733.452 79.2 737.773 79.2V77.2ZM726.594 74.0467C723.134 71.9321 720.348 69.1157 718.23 65.5855L716.515 66.6145C718.797 70.4176 721.812 73.4679 725.551 75.7533L726.594 74.0467ZM718.237 65.5971C716.19 62.0789 715.173 58.3519 715.173 54.4H713.173C713.173 58.7148 714.289 62.7877 716.508 66.6029L718.237 65.5971ZM715.173 54.4C715.173 50.1 716.197 46.2815 718.229 42.9169L716.517 41.8831C714.281 45.5852 713.173 49.7667 713.173 54.4H715.173ZM718.233 42.9098C720.275 39.4643 723.043 36.7916 726.552 34.8779L725.594 33.1221C721.769 35.2084 718.737 38.1357 716.512 41.8902L718.233 42.9098ZM726.545 34.8815C730.123 32.9647 734.092 32 738.473 32V30C733.786 30 729.489 31.0353 725.6 33.1185L726.545 34.8815ZM738.473 32C745.103 32 750.737 34.598 755.426 39.8649L756.92 38.5351C751.875 32.8687 745.709 30 738.473 30V32ZM755.47 38.4884L724.07 69.4884L725.475 70.9116L756.875 39.9116L755.47 38.4884ZM724.139 70.974C726.395 72.8195 728.61 74.2098 730.786 75.1222L731.559 73.2778C729.602 72.4568 727.55 71.1805 725.406 69.426L724.139 70.974ZM730.812 75.1326C733.012 75.9841 735.47 76.4 738.173 76.4V74.4C735.675 74.4 733.467 74.0159 731.534 73.2674L730.812 75.1326ZM716.373 54.1C716.373 59.8783 718.296 64.8576 722.141 68.9819L723.604 67.6181C720.115 63.8758 718.373 59.3884 718.373 54.1H716.373ZM723.577 69.0095L752.877 39.9095L751.468 38.4905L722.168 67.5905L723.577 69.0095ZM752.833 38.4488C750.571 36.4614 748.339 35.021 746.134 34.1674L745.412 36.0326C747.34 36.779 749.374 38.0719 751.513 39.9512L752.833 38.4488ZM746.159 34.1778C743.941 33.2476 741.337 32.8 738.373 32.8V34.8C741.142 34.8 743.471 35.219 745.386 36.0222L746.159 34.1778ZM738.373 32.8C734.153 32.8 730.348 33.7354 726.982 35.6284L727.963 37.3716C730.998 35.6646 734.459 34.8 738.373 34.8V32.8ZM726.989 35.625C723.7 37.4445 721.102 39.9714 719.21 43.1938L720.935 44.2062C722.644 41.2953 724.979 39.0222 727.957 37.375L726.989 35.625ZM719.21 43.1938C717.312 46.4272 716.373 50.0714 716.373 54.1H718.373C718.373 50.3953 719.233 47.1061 720.935 44.2062L719.21 43.1938Z" fill="#FF0000"/>
</g>
</g>
<defs>
<filter id="filter0_d" x="-1" y="0" width="775" height="103" filterUnits="userSpaceOnUse" color-interpolation-filters="sRGB">
<feFlood flood-opacity="0" result="BackgroundImageFix"/>
<feColorMatrix in="SourceAlpha" type="matrix" values="0 0 0 0 0 0 0 0 0 0 0 0 0 0 0 0 0 0 127 0"/>
<feOffset dy="4"/>
<feGaussianBlur stdDeviation="2"/>
<feColorMatrix type="matrix" values="0 0 0 0 0 0 0 0 0 0 0 0 0 0 0 0 0 0 0.25 0"/>
<feBlend mode="normal" in2="BackgroundImageFix" result="effect1_dropShadow"/>
<feBlend mode="normal" in="SourceGraphic" in2="effect1_dropShadow" result="shape"/>
</filter>
<filter id="filter1_d" x="68.6729" y="18.4" width="39.0992" height="85.7" filterUnits="userSpaceOnUse" color-interpolation-filters="sRGB">
<feFlood flood-opacity="0" result="BackgroundImageFix"/>
<feColorMatrix in="SourceAlpha" type="matrix" values="0 0 0 0 0 0 0 0 0 0 0 0 0 0 0 0 0 0 127 0"/>
<feOffset dx="5" dy="10"/>
<feGaussianBlur stdDeviation="5"/>
<feColorMatrix type="matrix" values="0 0 0 0 0 0 0 0 0 0 0 0 0 0 0 0 0 0 1 0"/>
<feBlend mode="normal" in2="BackgroundImageFix" result="effect1_dropShadow"/>
<feBlend mode="normal" in="SourceGraphic" in2="effect1_dropShadow" result="shape"/>
</filter>
<filter id="filter2_d" x="0.400024" y="0.999992" width="772.151" height="98.3" filterUnits="userSpaceOnUse" color-interpolation-filters="sRGB">
<feFlood flood-opacity="0" result="BackgroundImageFix"/>
<feColorMatrix in="SourceAlpha" type="matrix" values="0 0 0 0 0 0 0 0 0 0 0 0 0 0 0 0 0 0 127 0"/>
<feOffset dx="5" dy="10"/>
<feGaussianBlur stdDeviation="5"/>
<feColorMatrix type="matrix" values="0 0 0 0 0 0 0 0 0 0 0 0 0 0 0 0 0 0 1 0"/>
<feBlend mode="normal" in2="BackgroundImageFix" result="effect1_dropShadow"/>
<feBlend mode="normal" in="SourceGraphic" in2="effect1_dropShadow" result="shape"/>
</filter>
</defs>
</svg>
