<svg width="1005" height="270" viewBox="0 0 1005 270" fill="none" xmlns="http://www.w3.org/2000/svg">
<path d="M37.2 230C38.2 226.8 40.1 224.233 42.9 222.3C45.7667 220.367 49.2333 219.4 53.3 219.4C57.3667 219.4 60.9333 220.867 64 223.8C67.0667 226.733 68.6 230.7 68.6 235.7V265.5H65.4V235.7C65.4 231.833 64.1333 228.633 61.6 226.1C59.0667 223.5 56 222.2 52.4 222.2C48.8667 222.2 45.7 223.533 42.9 226.2C40.1667 228.867 38.8 231.967 38.8 235.5V265.5H35.6V235.5C35.6 231.9 34.3333 228.8 31.8 226.2C29.2667 223.533 26.2 222.2 22.6 222.2C19 222.2 15.8667 223.533 13.2 226.2C10.5333 228.867 9.2 231.967 9.2 235.5V265.5H6V220.5H9.2V226.8C10.5333 224.8 12.5 223.067 15.1 221.6C17.7667 220.133 20.5 219.4 23.3 219.4C26.1667 219.4 28.9 220.4 31.5 222.4C34.1 224.333 36 226.867 37.2 230ZM93.1094 220.6V265.5H89.9094V220.6H93.1094ZM91.5094 209.6C89.576 209.6 88.6094 208.7 88.6094 206.9C88.6094 205.1 89.576 204.2 91.5094 204.2C93.4427 204.2 94.4094 205.1 94.4094 206.9C94.4094 208.7 93.4427 209.6 91.5094 209.6ZM136.183 266.8H135.283C128.883 266.8 123.383 264.433 118.783 259.7C114.183 254.967 111.883 249.433 111.883 243.1C111.883 236.7 114.216 231.2 118.883 226.6C123.549 221.933 129.283 219.6 136.083 219.6C142.883 219.6 148.683 222.167 153.483 227.3V232.4C151.416 229.333 148.783 226.9 145.583 225.1C142.449 223.3 139.149 222.4 135.683 222.4C130.149 222.4 125.316 224.467 121.183 228.6C117.116 232.667 115.083 237.533 115.083 243.2C115.083 248.867 117.116 253.767 121.183 257.9C125.316 261.967 130.149 264 135.683 264C139.149 264 142.449 263.1 145.583 261.3C148.783 259.5 151.416 257.033 153.483 253.9V259.1C148.816 264.233 143.049 266.8 136.183 266.8ZM173.141 265.5H169.941V190.6H173.141V229.2C176.475 222.667 182.241 219.4 190.441 219.4C196.041 219.4 200.741 221.333 204.541 225.2C208.408 229.067 210.341 233.767 210.341 239.3V265.5H207.141V239.3C207.141 234.633 205.508 230.633 202.241 227.3C198.975 223.9 195.041 222.2 190.441 222.2C185.841 222.2 181.808 223.9 178.341 227.3C174.875 230.7 173.141 234.7 173.141 239.3V265.5ZM274.209 220.5V265.5H271.009V254.3C269.142 258.1 266.342 261.1 262.609 263.3C258.875 265.5 254.875 266.6 250.609 266.6C244.075 266.6 238.475 264.3 233.809 259.7C229.142 255.033 226.809 249.467 226.809 243C226.809 236.533 229.142 231 233.809 226.4C238.475 221.733 244.075 219.4 250.609 219.4C254.875 219.4 258.942 220.533 262.809 222.8C266.742 225.067 269.475 228.067 271.009 231.8V220.5H274.209ZM230.009 243.1C230.009 248.7 232.042 253.567 236.109 257.7C240.242 261.767 245.109 263.8 250.709 263.8C256.375 263.8 261.209 261.767 265.209 257.7C269.209 253.567 271.209 248.7 271.209 243.1C271.209 237.433 269.175 232.533 265.109 228.4C261.109 224.267 256.309 222.2 250.709 222.2C245.109 222.2 240.242 224.3 236.109 228.5C232.042 232.633 230.009 237.5 230.009 243.1ZM316.742 266.7H315.842C309.509 266.7 303.976 264.333 299.242 259.6C294.576 254.8 292.242 249.233 292.242 242.9C292.242 236.567 294.576 231.1 299.242 226.5C303.909 221.833 309.676 219.5 316.542 219.5C323.409 219.5 329.309 222.233 334.242 227.7L302.842 258.7C307.176 262.167 311.342 263.9 315.342 263.9C319.342 263.9 322.909 263 326.042 261.2C329.242 259.333 331.876 256.867 333.942 253.8V258.9C329.209 264.1 323.476 266.7 316.742 266.7ZM315.642 222.3C310.376 222.3 305.676 224.367 301.542 228.5C297.476 232.567 295.442 237.267 295.442 242.6C295.442 247.933 297.209 252.6 300.742 256.6L329.842 227.7C325.709 224.1 320.976 222.3 315.642 222.3ZM368.854 263.6V266.4C364.121 266.4 360.087 264.833 356.754 261.7C353.421 258.5 351.754 254.433 351.754 249.5V190.5H354.954V249.5C354.954 253.567 356.287 256.933 358.954 259.6C361.687 262.267 364.987 263.6 368.854 263.6ZM423.552 266.8H422.052C411.718 266.8 402.752 262.9 395.152 255.1C387.618 247.3 383.852 238.2 383.852 227.8C383.852 217.333 387.685 208.3 395.352 200.7C403.018 193.033 412.218 189.2 422.952 189.2C433.685 189.2 442.852 193 450.452 200.6C458.052 208.2 461.852 217.267 461.852 227.8C461.852 238.267 458.085 247.4 450.552 255.2C443.018 262.933 434.018 266.8 423.552 266.8ZM458.552 228C458.552 218.133 455.052 209.7 448.052 202.7C441.118 195.633 432.718 192.1 422.852 192.1C413.052 192.1 404.652 195.633 397.652 202.7C390.652 209.7 387.152 218.133 387.152 228C387.152 237.8 390.652 246.233 397.652 253.3C404.652 260.367 413.052 263.9 422.852 263.9C432.652 263.9 441.052 260.367 448.052 253.3C455.052 246.233 458.552 237.8 458.552 228ZM446.452 205.5V250.5H443.252V240C441.118 243.6 438.218 246.433 434.552 248.5C430.885 250.567 426.985 251.6 422.852 251.6C416.318 251.6 410.718 249.3 406.052 244.7C401.385 240.033 399.052 234.467 399.052 228C399.052 221.533 401.385 216 406.052 211.4C410.718 206.733 416.318 204.4 422.852 204.4C426.985 204.4 430.885 205.433 434.552 207.5C438.218 209.567 441.118 212.4 443.252 216V205.5H446.452ZM402.252 228.1C402.252 233.7 404.285 238.567 408.352 242.7C412.485 246.767 417.352 248.8 422.952 248.8C428.618 248.8 433.452 246.767 437.452 242.7C441.452 238.567 443.452 233.7 443.452 228.1C443.452 222.433 441.418 217.533 437.352 213.4C433.352 209.267 428.552 207.2 422.952 207.2C417.352 207.2 412.485 209.3 408.352 213.5C404.285 217.633 402.252 222.5 402.252 228.1ZM518.74 220.5H521.64L499.54 266.8L477.34 220.5H480.84L499.84 260L518.74 220.5ZM542.656 220.6V265.5H539.456V220.6H542.656ZM541.056 209.6C539.123 209.6 538.156 208.7 538.156 206.9C538.156 205.1 539.123 204.2 541.056 204.2C542.99 204.2 543.956 205.1 543.956 206.9C543.956 208.7 542.99 209.6 541.056 209.6ZM573.73 222.1C571.996 222.1 570.463 222.667 569.13 223.8C567.796 224.933 567.13 226.333 567.13 228C567.13 229.667 567.863 231.2 569.33 232.6C570.863 234 572.663 235.3 574.73 236.5C576.863 237.633 578.996 238.867 581.13 240.2C583.263 241.533 585.063 243.233 586.53 245.3C588.063 247.367 588.83 249.733 588.83 252.4C588.83 256.333 587.33 259.7 584.33 262.5C581.396 265.233 577.83 266.6 573.63 266.6C570.963 266.6 568.463 266.033 566.13 264.9C563.863 263.7 562.196 262.133 561.13 260.2V255.4C563.663 261 567.73 263.8 573.33 263.8C576.796 263.8 579.696 262.733 582.03 260.6C584.43 258.467 585.63 256.1 585.63 253.5C585.63 250.833 584.863 248.6 583.33 246.8C581.863 245 580.063 243.467 577.93 242.2C575.796 240.933 573.663 239.7 571.53 238.5C569.463 237.233 567.663 235.733 566.13 234C564.663 232.2 563.93 230.133 563.93 227.8C563.93 225.4 564.863 223.4 566.73 221.8C568.663 220.133 571.13 219.3 574.13 219.3C577.13 219.3 579.696 220.467 581.83 222.8V226.9C579.696 223.7 576.996 222.1 573.73 222.1ZM610.805 220.6V265.5H607.605V220.6H610.805ZM609.205 209.6C607.271 209.6 606.305 208.7 606.305 206.9C606.305 205.1 607.271 204.2 609.205 204.2C611.138 204.2 612.105 205.1 612.105 206.9C612.105 208.7 611.138 209.6 609.205 209.6ZM652.978 266.6C646.578 266.6 641.078 264.233 636.478 259.5C631.878 254.7 629.578 249.133 629.578 242.8C629.578 236.467 631.911 231 636.578 226.4C641.245 221.733 646.845 219.4 653.378 219.4C659.978 219.4 665.578 221.733 670.178 226.4C674.845 231 677.178 236.5 677.178 242.9C677.178 249.233 674.911 254.767 670.378 259.5C665.845 264.233 660.345 266.6 653.878 266.6H652.978ZM673.978 243.1C673.978 237.433 671.945 232.533 667.878 228.4C663.878 224.267 659.078 222.2 653.478 222.2C647.878 222.2 643.011 224.3 638.878 228.5C634.811 232.633 632.778 237.5 632.778 243.1C632.778 248.7 634.811 253.567 638.878 257.7C643.011 261.767 647.878 263.8 653.478 263.8C659.145 263.8 663.978 261.767 667.978 257.7C671.978 253.567 673.978 248.7 673.978 243.1ZM697.868 265.5H694.668V220.5H697.868V229.6C701.268 222.8 707.068 219.4 715.268 219.4C720.868 219.4 725.568 221.333 729.368 225.2C733.168 229.067 735.068 233.767 735.068 239.3V265.5H731.868V239.3C731.868 234.7 730.235 230.7 726.968 227.3C723.768 223.9 719.868 222.2 715.268 222.2C710.668 222.2 706.601 223.9 703.068 227.3C699.601 230.7 697.868 234.7 697.868 239.3V265.5ZM772.309 238.2L790.409 265.5H786.709L770.509 241L754.409 265.5H751.209L768.909 238.5L757.009 220.5H760.709L770.709 235.7L780.709 220.5H783.909L772.309 238.2ZM807.271 266.2C805.004 266.2 803.871 265.167 803.871 263.1C803.871 261.033 805.004 260 807.271 260C809.604 260 810.771 261.033 810.771 263.1C810.771 265.167 809.604 266.2 807.271 266.2ZM873.138 190.5V265.5H869.938V254.6C867.938 258.267 865.038 261.2 861.238 263.4C857.438 265.533 853.538 266.6 849.538 266.6C842.938 266.6 837.305 264.3 832.638 259.7C828.038 255.033 825.738 249.467 825.738 243C825.738 236.533 828.038 231 832.638 226.4C837.305 221.733 842.938 219.4 849.538 219.4C853.672 219.4 857.638 220.5 861.438 222.7C865.305 224.9 868.138 227.833 869.938 231.5V190.5H873.138ZM828.938 243.1C828.938 248.7 830.938 253.567 834.938 257.7C838.938 261.767 843.738 263.8 849.338 263.8C855.005 263.8 859.872 261.767 863.938 257.7C868.072 253.567 870.138 248.7 870.138 243.1C870.138 237.5 868.072 232.633 863.938 228.5C859.872 224.3 855.038 222.2 849.438 222.2C843.838 222.2 839.005 224.267 834.938 228.4C830.938 232.533 828.938 237.433 828.938 243.1ZM915.672 266.7H914.772C908.439 266.7 902.905 264.333 898.172 259.6C893.505 254.8 891.172 249.233 891.172 242.9C891.172 236.567 893.505 231.1 898.172 226.5C902.839 221.833 908.605 219.5 915.472 219.5C922.339 219.5 928.239 222.233 933.172 227.7L901.772 258.7C906.105 262.167 910.272 263.9 914.272 263.9C918.272 263.9 921.839 263 924.972 261.2C928.172 259.333 930.805 256.867 932.872 253.8V258.9C928.139 264.1 922.405 266.7 915.672 266.7ZM914.572 222.3C909.305 222.3 904.605 224.367 900.472 228.5C896.405 232.567 894.372 237.267 894.372 242.6C894.372 247.933 896.139 252.6 899.672 256.6L928.772 227.7C924.639 224.1 919.905 222.3 914.572 222.3ZM988.584 220.5H991.484L969.384 266.8L947.184 220.5H950.684L969.684 260L988.584 220.5Z" fill="#FF0000"/>
<path d="M37.2 230L36.2661 230.358L37.2958 233.046L38.1545 230.298L37.2 230ZM42.9 222.3L42.3408 221.471L42.3318 221.477L42.9 222.3ZM64 223.8L63.3088 224.523L64 223.8ZM68.6 265.5V266.5H69.6V265.5H68.6ZM65.4 265.5H64.4V266.5H65.4V265.5ZM61.6 226.1L60.8837 226.798L60.8929 226.807L61.6 226.1ZM42.9 226.2L42.2103 225.476L42.2017 225.484L42.9 226.2ZM38.8 265.5V266.5H39.8V265.5H38.8ZM35.6 265.5H34.6V266.5H35.6V265.5ZM31.8 226.2L31.0749 226.889L31.0838 226.898L31.8 226.2ZM13.2 226.2L13.9071 226.907L13.9071 226.907L13.2 226.2ZM9.2 265.5V266.5H10.2V265.5H9.2ZM6 265.5H5V266.5H6V265.5ZM6 220.5V219.5H5V220.5H6ZM9.2 220.5H10.2V219.5H9.2V220.5ZM9.2 226.8H8.2V230.103L10.0321 227.355L9.2 226.8ZM15.1 221.6L14.6181 220.724L14.6087 220.729L15.1 221.6ZM31.5 222.4L30.8903 223.193L30.8968 223.198L30.9033 223.202L31.5 222.4ZM38.1545 230.298C39.0868 227.315 40.8489 224.931 43.4682 223.123L42.3318 221.477C39.3511 223.535 37.3132 226.285 36.2455 229.702L38.1545 230.298ZM43.4591 223.129C46.1332 221.326 49.3967 220.4 53.3 220.4V218.4C49.07 218.4 45.4002 219.408 42.3409 221.471L43.4591 223.129ZM53.3 220.4C57.097 220.4 60.4192 221.759 63.3088 224.523L64.6912 223.077C61.4474 219.975 57.6363 218.4 53.3 218.4V220.4ZM63.3088 224.523C66.1431 227.234 67.6 230.92 67.6 235.7H69.6C69.6 230.48 67.9902 226.233 64.6912 223.077L63.3088 224.523ZM67.6 235.7V265.5H69.6V235.7H67.6ZM68.6 264.5H65.4V266.5H68.6V264.5ZM66.4 265.5V235.7H64.4V265.5H66.4ZM66.4 235.7C66.4 231.591 65.0438 228.13 62.3071 225.393L60.8929 226.807C63.2229 229.137 64.4 232.075 64.4 235.7H66.4ZM62.3162 225.402C59.5964 222.611 56.2723 221.2 52.4 221.2V223.2C55.7277 223.2 58.5369 224.389 60.8838 226.798L62.3162 225.402ZM52.4 221.2C48.5846 221.2 45.1771 222.65 42.2103 225.476L43.5897 226.924C46.2229 224.416 49.1487 223.2 52.4 223.2V221.2ZM42.2017 225.484C39.2927 228.322 37.8 231.674 37.8 235.5H39.8C39.8 232.259 41.0406 229.411 43.5983 226.916L42.2017 225.484ZM37.8 235.5V265.5H39.8V235.5H37.8ZM38.8 264.5H35.6V266.5H38.8V264.5ZM36.6 265.5V235.5H34.6V265.5H36.6ZM36.6 235.5C36.6 231.637 35.2298 228.287 32.5162 225.502L31.0838 226.898C33.4369 229.313 34.6 232.163 34.6 235.5H36.6ZM32.525 225.511C29.8075 222.651 26.4808 221.2 22.6 221.2V223.2C25.9192 223.2 28.7258 224.416 31.075 226.889L32.525 225.511ZM22.6 221.2C18.7211 221.2 15.3372 222.649 12.4929 225.493L13.9071 226.907C16.3962 224.418 19.2789 223.2 22.6 223.2V221.2ZM12.4929 225.493C9.65268 228.333 8.2 231.682 8.2 235.5H10.2C10.2 232.251 11.414 229.4 13.9071 226.907L12.4929 225.493ZM8.2 235.5V265.5H10.2V235.5H8.2ZM9.2 264.5H6V266.5H9.2V264.5ZM7 265.5V220.5H5V265.5H7ZM6 221.5H9.2V219.5H6V221.5ZM8.2 220.5V226.8H10.2V220.5H8.2ZM10.0321 227.355C11.2597 225.513 13.0957 223.879 15.5913 222.471L14.6087 220.729C11.9043 222.255 9.80698 224.087 8.36795 226.245L10.0321 227.355ZM15.5819 222.476C18.1141 221.084 20.6829 220.4 23.3 220.4V218.4C20.3171 218.4 17.4192 219.183 14.6181 220.724L15.5819 222.476ZM23.3 220.4C25.915 220.4 28.4387 221.307 30.8903 223.193L32.1097 221.607C29.3613 219.493 26.4183 218.4 23.3 218.4V220.4ZM30.9033 223.202C33.3454 225.018 35.1315 227.395 36.2661 230.358L38.1339 229.642C36.8685 226.338 34.8546 223.648 32.0967 221.598L30.9033 223.202ZM93.1094 220.6H94.1094V219.6H93.1094V220.6ZM93.1094 265.5V266.5H94.1094V265.5H93.1094ZM89.9094 265.5H88.9094V266.5H89.9094V265.5ZM89.9094 220.6V219.6H88.9094V220.6H89.9094ZM92.1094 220.6V265.5H94.1094V220.6H92.1094ZM93.1094 264.5H89.9094V266.5H93.1094V264.5ZM90.9094 265.5V220.6H88.9094V265.5H90.9094ZM89.9094 221.6H93.1094V219.6H89.9094V221.6ZM91.5094 208.6C90.6798 208.6 90.2439 208.405 90.0158 208.193C89.8012 207.993 89.6094 207.627 89.6094 206.9H87.6094C87.6094 207.973 87.9009 208.957 88.653 209.657C89.3915 210.345 90.4056 210.6 91.5094 210.6V208.6ZM89.6094 206.9C89.6094 206.173 89.8012 205.807 90.0158 205.607C90.2439 205.395 90.6798 205.2 91.5094 205.2V203.2C90.4056 203.2 89.3915 203.455 88.653 204.143C87.9009 204.843 87.6094 205.827 87.6094 206.9H89.6094ZM91.5094 205.2C92.339 205.2 92.7749 205.395 93.003 205.607C93.2176 205.807 93.4094 206.173 93.4094 206.9H95.4094C95.4094 205.827 95.1178 204.843 94.3658 204.143C93.6272 203.455 92.6131 203.2 91.5094 203.2V205.2ZM93.4094 206.9C93.4094 207.627 93.2176 207.993 93.003 208.193C92.7749 208.405 92.339 208.6 91.5094 208.6V210.6C92.6131 210.6 93.6272 210.345 94.3658 209.657C95.1178 208.957 95.4094 207.973 95.4094 206.9H93.4094ZM118.783 259.7L118.066 260.397L118.066 260.397L118.783 259.7ZM118.883 226.6L119.585 227.312L119.59 227.307L118.883 226.6ZM153.483 227.3H154.483V226.905L154.213 226.617L153.483 227.3ZM153.483 232.4L152.654 232.959L154.483 235.673V232.4H153.483ZM145.583 225.1L145.085 225.967L145.093 225.972L145.583 225.1ZM121.183 228.6L121.89 229.307L121.89 229.307L121.183 228.6ZM121.183 257.9L120.47 258.601L120.476 258.607L120.481 258.613L121.183 257.9ZM145.583 261.3L145.093 260.428L145.085 260.433L145.583 261.3ZM153.483 253.9H154.483V250.568L152.648 253.349L153.483 253.9ZM153.483 259.1L154.223 259.773L154.483 259.487V259.1H153.483ZM136.183 265.8H135.283V267.8H136.183V265.8ZM135.283 265.8C129.162 265.8 123.918 263.549 119.5 259.003L118.066 260.397C122.847 265.317 128.603 267.8 135.283 267.8V265.8ZM119.5 259.003C115.073 254.448 112.883 249.161 112.883 243.1H110.883C110.883 249.706 113.293 255.486 118.066 260.397L119.5 259.003ZM112.883 243.1C112.883 236.975 115.104 231.729 119.585 227.312L118.181 225.888C113.329 230.671 110.883 236.425 110.883 243.1H112.883ZM119.59 227.307C124.063 222.834 129.539 220.6 136.083 220.6V218.6C129.027 218.6 123.036 221.032 118.176 225.893L119.59 227.307ZM136.083 220.6C142.596 220.6 148.134 223.044 152.752 227.983L154.213 226.617C149.231 221.289 143.17 218.6 136.083 218.6V220.6ZM152.483 227.3V232.4H154.483V227.3H152.483ZM154.312 231.841C152.159 228.646 149.41 226.105 146.073 224.228L145.093 225.972C148.156 227.695 150.673 230.02 152.654 232.959L154.312 231.841ZM146.081 224.233C142.803 222.35 139.332 221.4 135.683 221.4V223.4C138.967 223.4 142.096 224.25 145.085 225.967L146.081 224.233ZM135.683 221.4C129.868 221.4 124.785 223.584 120.476 227.893L121.89 229.307C125.847 225.35 130.431 223.4 135.683 223.4V221.4ZM120.476 227.893C116.225 232.144 114.083 237.264 114.083 243.2H116.083C116.083 237.803 118.008 233.189 121.89 229.307L120.476 227.893ZM114.083 243.2C114.083 249.136 116.224 254.286 120.47 258.601L121.896 257.199C118.008 253.248 116.083 248.598 116.083 243.2H114.083ZM120.481 258.613C124.792 262.854 129.873 265 135.683 265V263C130.426 263 125.84 261.08 121.884 257.187L120.481 258.613ZM135.683 265C139.332 265 142.803 264.05 146.081 262.167L145.085 260.433C142.096 262.15 138.967 263 135.683 263V265ZM146.073 262.172C149.415 260.292 152.165 257.714 154.318 254.451L152.648 253.349C150.667 256.353 148.151 258.708 145.093 260.428L146.073 262.172ZM152.483 253.9V259.1H154.483V253.9H152.483ZM152.743 258.427C148.263 263.355 142.764 265.8 136.183 265.8V267.8C143.335 267.8 149.369 265.112 154.223 259.773L152.743 258.427ZM173.141 265.5V266.5H174.141V265.5H173.141ZM169.941 265.5H168.941V266.5H169.941V265.5ZM169.941 190.6V189.6H168.941V190.6H169.941ZM173.141 190.6H174.141V189.6H173.141V190.6ZM173.141 229.2H172.141L174.032 229.654L173.141 229.2ZM204.541 225.2L203.828 225.901L203.834 225.907L204.541 225.2ZM210.341 265.5V266.5H211.341V265.5H210.341ZM207.141 265.5H206.141V266.5H207.141V265.5ZM202.241 227.3L201.52 227.993L201.527 228L202.241 227.3ZM173.141 264.5H169.941V266.5H173.141V264.5ZM170.941 265.5V190.6H168.941V265.5H170.941ZM169.941 191.6H173.141V189.6H169.941V191.6ZM172.141 190.6V229.2H174.141V190.6H172.141ZM174.032 229.654C175.62 226.543 177.764 224.247 180.459 222.72C183.161 221.19 186.474 220.4 190.441 220.4V218.4C186.209 218.4 182.539 219.243 179.474 220.98C176.402 222.72 173.996 225.324 172.251 228.746L174.032 229.654ZM190.441 220.4C195.783 220.4 200.223 222.233 203.828 225.901L205.255 224.499C201.26 220.434 196.3 218.4 190.441 218.4V220.4ZM203.834 225.907C207.511 229.584 209.341 234.028 209.341 239.3H211.341C211.341 233.505 209.305 228.55 205.249 224.493L203.834 225.907ZM209.341 239.3V265.5H211.341V239.3H209.341ZM210.341 264.5H207.141V266.5H210.341V264.5ZM208.141 265.5V239.3H206.141V265.5H208.141ZM208.141 239.3C208.141 234.372 206.405 230.12 202.956 226.6L201.527 228C204.611 231.146 206.141 234.895 206.141 239.3H208.141ZM202.963 226.607C199.513 223.016 195.321 221.2 190.441 221.2V223.2C194.762 223.2 198.437 224.784 201.52 227.993L202.963 226.607ZM190.441 221.2C185.564 221.2 181.283 223.014 177.641 226.586L179.042 228.014C182.333 224.786 186.119 223.2 190.441 223.2V221.2ZM177.641 226.586C173.995 230.162 172.141 234.415 172.141 239.3H174.141C174.141 234.985 175.755 231.238 179.042 228.014L177.641 226.586ZM172.141 239.3V265.5H174.141V239.3H172.141ZM274.209 220.5H275.209V219.5H274.209V220.5ZM274.209 265.5V266.5H275.209V265.5H274.209ZM271.009 265.5H270.009V266.5H271.009V265.5ZM271.009 254.3H272.009L270.111 253.859L271.009 254.3ZM262.609 263.3L262.101 262.438L262.101 262.438L262.609 263.3ZM233.809 259.7L233.101 260.407L233.107 260.412L233.809 259.7ZM233.809 226.4L234.511 227.112L234.516 227.107L233.809 226.4ZM262.809 222.8L262.303 223.663L262.309 223.666L262.809 222.8ZM271.009 231.8L270.084 232.18L272.009 231.8H271.009ZM271.009 220.5V219.5H270.009V220.5H271.009ZM236.109 257.7L235.396 258.401L235.401 258.407L235.407 258.413L236.109 257.7ZM265.209 257.7L265.922 258.401L265.927 258.395L265.209 257.7ZM265.109 228.4L264.39 229.095L264.396 229.101L265.109 228.4ZM236.109 228.5L235.396 227.799L235.396 227.799L236.109 228.5ZM273.209 220.5V265.5H275.209V220.5H273.209ZM274.209 264.5H271.009V266.5H274.209V264.5ZM272.009 265.5V254.3H270.009V265.5H272.009ZM270.111 253.859C268.333 257.48 265.67 260.335 262.101 262.438L263.116 264.162C267.014 261.865 269.951 258.72 271.906 254.741L270.111 253.859ZM262.101 262.438C258.519 264.549 254.694 265.6 250.609 265.6V267.6C255.057 267.6 259.232 266.451 263.116 264.162L262.101 262.438ZM250.609 265.6C244.339 265.6 238.991 263.404 234.511 258.988L233.107 260.412C237.96 265.196 243.812 267.6 250.609 267.6V265.6ZM234.516 258.993C230.032 254.509 227.809 249.195 227.809 243H225.809C225.809 249.738 228.252 255.557 233.101 260.407L234.516 258.993ZM227.809 243C227.809 236.805 230.032 231.527 234.511 227.112L233.107 225.688C228.252 230.473 225.809 236.262 225.809 243H227.809ZM234.516 227.107C238.997 222.626 244.343 220.4 250.609 220.4V218.4C243.807 218.4 237.954 220.841 233.101 225.693L234.516 227.107ZM250.609 220.4C254.688 220.4 258.582 221.481 262.303 223.663L263.314 221.937C259.302 219.585 255.062 218.4 250.609 218.4V220.4ZM262.309 223.666C266.076 225.837 268.645 228.677 270.084 232.18L271.934 231.42C270.306 227.457 267.408 224.296 263.308 221.934L262.309 223.666ZM272.009 231.8V220.5H270.009V231.8H272.009ZM271.009 221.5H274.209V219.5H271.009V221.5ZM229.009 243.1C229.009 248.973 231.152 254.088 235.396 258.401L236.821 256.999C232.932 253.045 231.009 248.427 231.009 243.1H229.009ZM235.407 258.413C239.72 262.656 244.836 264.8 250.709 264.8V262.8C245.381 262.8 240.764 260.877 236.81 256.987L235.407 258.413ZM250.709 264.8C256.645 264.8 261.735 262.658 265.922 258.401L264.496 256.999C260.682 260.876 256.105 262.8 250.709 262.8V264.8ZM265.927 258.395C270.102 254.081 272.209 248.967 272.209 243.1H270.209C270.209 248.433 268.315 253.052 264.49 257.005L265.927 258.395ZM272.209 243.1C272.209 237.164 270.067 232.014 265.821 227.699L264.396 229.101C268.283 233.052 270.209 237.702 270.209 243.1H272.209ZM265.827 227.705C261.645 223.383 256.588 221.2 250.709 221.2V223.2C256.03 223.2 260.573 225.151 264.39 229.095L265.827 227.705ZM250.709 221.2C244.825 221.2 239.706 223.419 235.396 227.799L236.821 229.201C240.778 225.181 245.392 223.2 250.709 223.2V221.2ZM235.396 227.799C231.152 232.112 229.009 237.227 229.009 243.1H231.009C231.009 237.773 232.932 233.155 236.821 229.201L235.396 227.799ZM299.242 259.6L298.525 260.297L298.535 260.307L299.242 259.6ZM299.242 226.5L299.944 227.212L299.949 227.207L299.242 226.5ZM334.242 227.7L334.945 228.412L335.625 227.74L334.985 227.03L334.242 227.7ZM302.842 258.7L302.14 257.988L301.339 258.778L302.217 259.481L302.842 258.7ZM326.042 261.2L326.54 262.067L326.546 262.064L326.042 261.2ZM333.942 253.8H334.942V250.527L333.113 253.241L333.942 253.8ZM333.942 258.9L334.682 259.573L334.942 259.287V258.9H333.942ZM301.542 228.5L302.249 229.207L302.249 229.207L301.542 228.5ZM300.742 256.6L299.993 257.262L300.695 258.057L301.447 257.31L300.742 256.6ZM329.842 227.7L330.547 228.41L331.31 227.652L330.499 226.946L329.842 227.7ZM316.742 265.7H315.842V267.7H316.742V265.7ZM315.842 265.7C309.79 265.7 304.507 263.451 299.949 258.893L298.535 260.307C303.444 265.216 309.227 267.7 315.842 267.7V265.7ZM299.959 258.903C295.463 254.278 293.242 248.957 293.242 242.9H291.242C291.242 249.51 293.688 255.322 298.525 260.297L299.959 258.903ZM293.242 242.9C293.242 236.845 295.461 231.632 299.944 227.212L298.54 225.788C293.69 230.568 291.242 236.289 291.242 242.9H293.242ZM299.949 227.207C304.42 222.736 309.929 220.5 316.542 220.5V218.5C309.422 218.5 303.398 220.93 298.535 225.793L299.949 227.207ZM316.542 220.5C323.104 220.5 328.741 223.096 333.5 228.37L334.985 227.03C329.877 221.37 323.714 218.5 316.542 218.5V220.5ZM333.54 226.988L302.14 257.988L303.545 259.412L334.945 228.412L333.54 226.988ZM302.217 259.481C306.66 263.035 311.041 264.9 315.342 264.9V262.9C311.643 262.9 307.691 261.298 303.467 257.919L302.217 259.481ZM315.342 264.9C319.498 264.9 323.24 263.963 326.54 262.067L325.544 260.333C322.578 262.037 319.187 262.9 315.342 262.9V264.9ZM326.546 262.064C329.876 260.121 332.621 257.551 334.771 254.359L333.113 253.241C331.131 256.183 328.609 258.545 325.538 260.336L326.546 262.064ZM332.942 253.8V258.9H334.942V253.8H332.942ZM333.203 258.227C328.649 263.229 323.18 265.7 316.742 265.7V267.7C323.771 267.7 329.768 264.971 334.682 259.573L333.203 258.227ZM315.642 221.3C310.08 221.3 305.133 223.495 300.835 227.793L302.249 229.207C306.218 225.239 310.671 223.3 315.642 223.3V221.3ZM300.835 227.793C296.597 232.031 294.442 236.979 294.442 242.6H296.442C296.442 237.554 298.354 233.102 302.249 229.207L300.835 227.793ZM294.442 242.6C294.442 248.177 296.298 253.079 299.993 257.262L301.492 255.938C298.12 252.121 296.442 247.689 296.442 242.6H294.442ZM301.447 257.31L330.547 228.41L329.138 226.99L300.038 255.89L301.447 257.31ZM330.499 226.946C326.189 223.192 321.224 221.3 315.642 221.3V223.3C320.727 223.3 325.229 225.008 329.185 228.454L330.499 226.946ZM368.854 263.6H369.854V262.6H368.854V263.6ZM368.854 266.4V267.4H369.854V266.4H368.854ZM356.754 261.7L356.061 262.421L356.069 262.429L356.754 261.7ZM351.754 190.5V189.5H350.754V190.5H351.754ZM354.954 190.5H355.954V189.5H354.954V190.5ZM358.954 259.6L358.247 260.307L358.256 260.316L358.954 259.6ZM367.854 263.6V266.4H369.854V263.6H367.854ZM368.854 265.4C364.365 265.4 360.58 263.924 357.439 260.971L356.069 262.429C359.595 265.743 363.876 267.4 368.854 267.4V265.4ZM357.446 260.979C354.324 257.981 352.754 254.182 352.754 249.5H350.754C350.754 254.685 352.517 259.019 356.061 262.421L357.446 260.979ZM352.754 249.5V190.5H350.754V249.5H352.754ZM351.754 191.5H354.954V189.5H351.754V191.5ZM353.954 190.5V249.5H355.954V190.5H353.954ZM353.954 249.5C353.954 253.809 355.377 257.437 358.247 260.307L359.661 258.893C357.198 256.429 355.954 253.324 355.954 249.5H353.954ZM358.256 260.316C361.178 263.167 364.73 264.6 368.854 264.6V262.6C365.245 262.6 362.196 261.366 359.652 258.884L358.256 260.316ZM395.152 255.1L394.432 255.795L394.435 255.798L395.152 255.1ZM395.352 200.7L396.056 201.41L396.059 201.407L395.352 200.7ZM450.552 255.2L451.268 255.898L451.271 255.895L450.552 255.2ZM448.052 202.7L447.338 203.4L447.344 203.407L448.052 202.7ZM397.652 202.7L398.359 203.407L398.362 203.404L397.652 202.7ZM397.652 253.3L398.362 252.596L397.652 253.3ZM448.052 253.3L447.341 252.596L448.052 253.3ZM446.452 205.5H447.452V204.5H446.452V205.5ZM446.452 250.5V251.5H447.452V250.5H446.452ZM443.252 250.5H442.252V251.5H443.252V250.5ZM443.252 240H444.252V236.351L442.391 239.49L443.252 240ZM434.552 248.5L435.043 249.371L435.043 249.371L434.552 248.5ZM406.052 244.7L405.344 245.407L405.35 245.412L406.052 244.7ZM406.052 211.4L406.754 212.112L406.759 212.107L406.052 211.4ZM434.552 207.5L435.043 206.629L435.043 206.629L434.552 207.5ZM443.252 216L442.391 216.51L444.252 219.649V216H443.252ZM443.252 205.5V204.5H442.252V205.5H443.252ZM408.352 242.7L407.639 243.401L407.644 243.407L407.65 243.413L408.352 242.7ZM437.452 242.7L438.165 243.401L438.17 243.395L437.452 242.7ZM437.352 213.4L436.633 214.095L436.639 214.101L437.352 213.4ZM408.352 213.5L407.639 212.799L407.639 212.799L408.352 213.5ZM423.552 265.8H422.052V267.8H423.552V265.8ZM422.052 265.8C412.004 265.8 403.291 262.021 395.868 254.402L394.435 255.798C402.212 263.779 411.433 267.8 422.052 267.8V265.8ZM395.871 254.405C388.509 246.783 384.852 237.929 384.852 227.8H382.852C382.852 238.471 386.727 247.817 394.432 255.795L395.871 254.405ZM384.852 227.8C384.852 217.609 388.572 208.829 396.056 201.41L394.648 199.99C386.798 207.771 382.852 217.057 382.852 227.8H384.852ZM396.059 201.407C403.54 193.926 412.486 190.2 422.952 190.2V188.2C411.95 188.2 402.497 192.141 394.644 199.993L396.059 201.407ZM422.952 190.2C433.419 190.2 442.332 193.894 449.744 201.307L451.159 199.893C443.371 192.106 433.951 188.2 422.952 188.2V190.2ZM449.744 201.307C457.161 208.724 460.852 217.538 460.852 227.8H462.852C462.852 216.995 458.942 207.676 451.159 199.893L449.744 201.307ZM460.852 227.8C460.852 237.997 457.193 246.884 449.832 254.505L451.271 255.895C458.977 247.916 462.852 238.536 462.852 227.8H460.852ZM449.835 254.502C442.484 262.049 433.739 265.8 423.552 265.8V267.8C434.297 267.8 443.553 263.818 451.268 255.898L449.835 254.502ZM459.552 228C459.552 217.867 455.946 209.18 448.759 201.993L447.344 203.407C454.158 210.22 457.552 218.4 457.552 228H459.552ZM448.765 202C441.645 194.742 432.988 191.1 422.852 191.1V193.1C432.449 193.1 440.592 196.525 447.338 203.4L448.765 202ZM422.852 191.1C412.78 191.1 404.126 194.743 396.941 201.996L398.362 203.404C405.177 196.523 413.323 193.1 422.852 193.1V191.1ZM396.944 201.993C389.758 209.18 386.152 217.867 386.152 228H388.152C388.152 218.4 391.546 210.22 398.359 203.407L396.944 201.993ZM386.152 228C386.152 238.068 389.759 246.753 396.941 254.004L398.362 252.596C391.544 245.714 388.152 237.532 388.152 228H386.152ZM396.941 254.004C404.126 261.257 412.78 264.9 422.852 264.9V262.9C413.323 262.9 405.177 259.477 398.362 252.596L396.941 254.004ZM422.852 264.9C432.923 264.9 441.577 261.257 448.762 254.004L447.341 252.596C440.526 259.477 432.38 262.9 422.852 262.9V264.9ZM448.762 254.004C455.944 246.753 459.552 238.068 459.552 228H457.552C457.552 237.532 454.159 245.714 447.341 252.596L448.762 254.004ZM445.452 205.5V250.5H447.452V205.5H445.452ZM446.452 249.5H443.252V251.5H446.452V249.5ZM444.252 250.5V240H442.252V250.5H444.252ZM442.391 239.49C440.348 242.939 437.576 245.648 434.061 247.629L435.043 249.371C438.861 247.219 441.889 244.261 444.112 240.51L442.391 239.49ZM434.061 247.629C430.541 249.613 426.81 250.6 422.852 250.6V252.6C427.16 252.6 431.229 251.521 435.043 249.371L434.061 247.629ZM422.852 250.6C416.582 250.6 411.234 248.404 406.754 243.988L405.35 245.412C410.203 250.196 416.055 252.6 422.852 252.6V250.6ZM406.759 243.993C402.275 239.509 400.052 234.195 400.052 228H398.052C398.052 234.738 400.495 240.557 405.344 245.407L406.759 243.993ZM400.052 228C400.052 221.805 402.275 216.527 406.754 212.112L405.35 210.688C400.495 215.473 398.052 221.262 398.052 228H400.052ZM406.759 212.107C411.24 207.626 416.586 205.4 422.852 205.4V203.4C416.05 203.4 410.197 205.841 405.344 210.693L406.759 212.107ZM422.852 205.4C426.81 205.4 430.541 206.387 434.061 208.371L435.043 206.629C431.229 204.479 427.16 203.4 422.852 203.4V205.4ZM434.061 208.371C437.576 210.352 440.348 213.061 442.391 216.51L444.112 215.49C441.889 211.739 438.861 208.781 435.043 206.629L434.061 208.371ZM444.252 216V205.5H442.252V216H444.252ZM443.252 206.5H446.452V204.5H443.252V206.5ZM401.252 228.1C401.252 233.973 403.395 239.088 407.639 243.401L409.064 241.999C405.174 238.045 403.252 233.427 403.252 228.1H401.252ZM407.65 243.413C411.963 247.656 417.079 249.8 422.952 249.8V247.8C417.624 247.8 413.007 245.877 409.053 241.987L407.65 243.413ZM422.952 249.8C428.888 249.8 433.978 247.658 438.164 243.401L436.739 241.999C432.925 245.876 428.348 247.8 422.952 247.8V249.8ZM438.17 243.395C442.345 239.081 444.452 233.967 444.452 228.1H442.452C442.452 233.433 440.558 238.052 436.733 242.005L438.17 243.395ZM444.452 228.1C444.452 222.164 442.31 217.014 438.064 212.699L436.639 214.101C440.526 218.052 442.452 222.702 442.452 228.1H444.452ZM438.07 212.705C433.888 208.383 428.831 206.2 422.952 206.2V208.2C428.273 208.2 432.816 210.151 436.633 214.095L438.07 212.705ZM422.952 206.2C417.068 206.2 411.949 208.419 407.639 212.799L409.064 214.201C413.021 210.181 417.635 208.2 422.952 208.2V206.2ZM407.639 212.799C403.395 217.112 401.252 222.227 401.252 228.1H403.252C403.252 222.773 405.174 218.155 409.064 214.201L407.639 212.799ZM518.74 220.5V219.5H518.11L517.838 220.068L518.74 220.5ZM521.64 220.5L522.542 220.931L523.225 219.5H521.64V220.5ZM499.54 266.8L498.638 267.232L499.542 269.117L500.442 267.231L499.54 266.8ZM477.34 220.5V219.5H475.751L476.438 220.932L477.34 220.5ZM480.84 220.5L481.741 220.067L481.469 219.5H480.84V220.5ZM499.84 260L498.939 260.433L499.842 262.312L500.742 260.432L499.84 260ZM518.74 221.5H521.64V219.5H518.74V221.5ZM520.737 220.069L498.637 266.369L500.442 267.231L522.542 220.931L520.737 220.069ZM500.442 266.368L478.242 220.068L476.438 220.932L498.638 267.232L500.442 266.368ZM477.34 221.5H480.84V219.5H477.34V221.5ZM479.939 220.933L498.939 260.433L500.741 259.567L481.741 220.067L479.939 220.933ZM500.742 260.432L519.642 220.932L517.838 220.068L498.938 259.568L500.742 260.432ZM542.656 220.6H543.656V219.6H542.656V220.6ZM542.656 265.5V266.5H543.656V265.5H542.656ZM539.456 265.5H538.456V266.5H539.456V265.5ZM539.456 220.6V219.6H538.456V220.6H539.456ZM541.656 220.6V265.5H543.656V220.6H541.656ZM542.656 264.5H539.456V266.5H542.656V264.5ZM540.456 265.5V220.6H538.456V265.5H540.456ZM539.456 221.6H542.656V219.6H539.456V221.6ZM541.056 208.6C540.227 208.6 539.791 208.405 539.563 208.193C539.348 207.993 539.156 207.627 539.156 206.9H537.156C537.156 207.973 537.448 208.957 538.2 209.657C538.938 210.345 539.952 210.6 541.056 210.6V208.6ZM539.156 206.9C539.156 206.173 539.348 205.807 539.563 205.607C539.791 205.395 540.227 205.2 541.056 205.2V203.2C539.952 203.2 538.938 203.455 538.2 204.143C537.448 204.843 537.156 205.827 537.156 206.9H539.156ZM541.056 205.2C541.886 205.2 542.322 205.395 542.55 205.607C542.764 205.807 542.956 206.173 542.956 206.9H544.956C544.956 205.827 544.665 204.843 543.913 204.143C543.174 203.455 542.16 203.2 541.056 203.2V205.2ZM542.956 206.9C542.956 207.627 542.764 207.993 542.55 208.193C542.322 208.405 541.886 208.6 541.056 208.6V210.6C542.16 210.6 543.174 210.345 543.913 209.657C544.665 208.957 544.956 207.973 544.956 206.9H542.956ZM569.13 223.8L568.482 223.038L568.482 223.038L569.13 223.8ZM569.33 232.6L568.639 233.323L568.647 233.331L568.655 233.338L569.33 232.6ZM574.73 236.5L574.228 237.365L574.244 237.374L574.261 237.383L574.73 236.5ZM581.13 240.2L581.66 239.352L581.66 239.352L581.13 240.2ZM586.53 245.3L585.714 245.879L585.72 245.887L585.727 245.896L586.53 245.3ZM584.33 262.5L585.011 263.232L585.012 263.231L584.33 262.5ZM566.13 264.9L565.662 265.784L565.677 265.792L565.693 265.8L566.13 264.9ZM561.13 260.2H560.13V260.458L560.254 260.683L561.13 260.2ZM561.13 255.4L562.041 254.988L560.13 255.4H561.13ZM582.03 260.6L581.365 259.853L581.355 259.862L582.03 260.6ZM583.33 246.8L582.554 247.432L582.561 247.44L582.568 247.448L583.33 246.8ZM577.93 242.2L577.419 243.06L577.419 243.06L577.93 242.2ZM571.53 238.5L571.007 239.353L571.023 239.362L571.039 239.372L571.53 238.5ZM566.13 234L565.354 234.632L565.367 234.647L565.381 234.663L566.13 234ZM566.73 221.8L567.38 222.559L567.383 222.557L566.73 221.8ZM581.83 222.8H582.83V222.412L582.568 222.125L581.83 222.8ZM581.83 226.9L580.998 227.455L582.83 230.203V226.9H581.83ZM573.73 221.1C571.757 221.1 569.994 221.753 568.482 223.038L569.777 224.562C570.932 223.581 572.236 223.1 573.73 223.1V221.1ZM568.482 223.038C566.938 224.351 566.13 226.024 566.13 228H568.13C568.13 226.643 568.655 225.516 569.777 224.562L568.482 223.038ZM566.13 228C566.13 229.998 567.021 231.779 568.639 233.323L570.02 231.877C568.705 230.621 568.13 229.336 568.13 228H566.13ZM568.655 233.338C570.249 234.793 572.108 236.134 574.228 237.365L575.232 235.635C573.218 234.466 571.477 233.207 570.004 231.862L568.655 233.338ZM574.261 237.383C576.372 238.505 578.485 239.727 580.6 241.048L581.66 239.352C579.507 238.007 577.354 236.762 575.199 235.617L574.261 237.383ZM580.6 241.048C582.62 242.311 584.323 243.919 585.714 245.879L587.345 244.721C585.803 242.548 583.906 240.756 581.66 239.352L580.6 241.048ZM585.727 245.896C587.127 247.784 587.83 249.94 587.83 252.4H589.83C589.83 249.527 588.999 246.95 587.333 244.704L585.727 245.896ZM587.83 252.4C587.83 256.043 586.455 259.149 583.647 261.769L585.012 263.231C588.205 260.251 589.83 256.624 589.83 252.4H587.83ZM583.648 261.768C580.909 264.32 577.59 265.6 573.63 265.6V267.6C578.069 267.6 581.884 266.146 585.011 263.232L583.648 261.768ZM573.63 265.6C571.11 265.6 568.76 265.066 566.567 264L565.693 265.8C568.166 267.001 570.816 267.6 573.63 267.6V265.6ZM566.598 264.016C564.474 262.892 562.964 261.454 562.005 259.717L560.254 260.683C561.429 262.813 563.252 264.508 565.662 265.784L566.598 264.016ZM562.13 260.2V255.4H560.13V260.2H562.13ZM560.219 255.812C561.542 258.738 563.297 260.998 565.513 262.524C567.735 264.053 570.355 264.8 573.33 264.8V262.8C570.704 262.8 568.492 262.147 566.647 260.876C564.796 259.602 563.251 257.662 562.041 254.988L560.219 255.812ZM573.33 264.8C577.02 264.8 580.168 263.657 582.704 261.338L581.355 259.862C579.224 261.81 576.573 262.8 573.33 262.8V264.8ZM582.694 261.347C585.253 259.073 586.63 256.451 586.63 253.5H584.63C584.63 255.749 583.606 257.861 581.365 259.853L582.694 261.347ZM586.63 253.5C586.63 250.628 585.798 248.156 584.091 246.152L582.568 247.448C583.928 249.044 584.63 251.039 584.63 253.5H586.63ZM584.105 246.168C582.559 244.271 580.668 242.663 578.44 241.34L577.419 243.06C579.459 244.271 581.167 245.729 582.554 247.432L584.105 246.168ZM578.44 241.34C576.3 240.07 574.16 238.832 572.02 237.628L571.039 239.372C573.166 240.568 575.292 241.797 577.419 243.06L578.44 241.34ZM572.052 237.647C570.066 236.43 568.343 234.993 566.879 233.337L565.381 234.663C566.983 236.474 568.86 238.037 571.007 239.353L572.052 237.647ZM566.905 233.368C565.584 231.748 564.93 229.904 564.93 227.8H562.93C562.93 230.362 563.742 232.652 565.354 234.632L566.905 233.368ZM564.93 227.8C564.93 225.7 565.729 223.975 567.38 222.559L566.079 221.041C563.997 222.825 562.93 225.1 562.93 227.8H564.93ZM567.383 222.557C569.103 221.074 571.325 220.3 574.13 220.3V218.3C570.934 218.3 568.223 219.193 566.077 221.043L567.383 222.557ZM574.13 220.3C576.832 220.3 579.136 221.336 581.092 223.475L582.568 222.125C580.256 219.597 577.427 218.3 574.13 218.3V220.3ZM580.83 222.8V226.9H582.83V222.8H580.83ZM582.662 226.345C580.381 222.924 577.394 221.1 573.73 221.1V223.1C576.599 223.1 579.012 224.476 580.998 227.455L582.662 226.345ZM610.805 220.6H611.805V219.6H610.805V220.6ZM610.805 265.5V266.5H611.805V265.5H610.805ZM607.605 265.5H606.605V266.5H607.605V265.5ZM607.605 220.6V219.6H606.605V220.6H607.605ZM609.805 220.6V265.5H611.805V220.6H609.805ZM610.805 264.5H607.605V266.5H610.805V264.5ZM608.605 265.5V220.6H606.605V265.5H608.605ZM607.605 221.6H610.805V219.6H607.605V221.6ZM609.205 208.6C608.375 208.6 607.939 208.405 607.711 208.193C607.496 207.993 607.305 207.627 607.305 206.9H605.305C605.305 207.973 605.596 208.957 606.348 209.657C607.087 210.345 608.101 210.6 609.205 210.6V208.6ZM607.305 206.9C607.305 206.173 607.496 205.807 607.711 205.607C607.939 205.395 608.375 205.2 609.205 205.2V203.2C608.101 203.2 607.087 203.455 606.348 204.143C605.596 204.843 605.305 205.827 605.305 206.9H607.305ZM609.205 205.2C610.034 205.2 610.47 205.395 610.698 205.607C610.913 205.807 611.105 206.173 611.105 206.9H613.105C613.105 205.827 612.813 204.843 612.061 204.143C611.323 203.455 610.308 203.2 609.205 203.2V205.2ZM611.105 206.9C611.105 207.627 610.913 207.993 610.698 208.193C610.47 208.405 610.034 208.6 609.205 208.6V210.6C610.308 210.6 611.323 210.345 612.061 209.657C612.813 208.957 613.105 207.973 613.105 206.9H611.105ZM636.478 259.5L635.756 260.192L635.761 260.197L636.478 259.5ZM636.578 226.4L637.28 227.112L637.285 227.107L636.578 226.4ZM670.178 226.4L669.466 227.102L669.471 227.107L669.476 227.112L670.178 226.4ZM670.378 259.5L669.656 258.808L669.656 258.808L670.378 259.5ZM667.878 228.4L667.159 229.095L667.165 229.101L667.878 228.4ZM638.878 228.5L638.165 227.799L638.165 227.799L638.878 228.5ZM638.878 257.7L638.165 258.401L638.171 258.407L638.177 258.413L638.878 257.7ZM667.978 257.7L668.691 258.401L668.697 258.395L667.978 257.7ZM652.978 265.6C646.858 265.6 641.614 263.349 637.195 258.803L635.761 260.197C640.543 265.117 646.299 267.6 652.978 267.6V265.6ZM637.2 258.808C632.769 254.184 630.578 248.862 630.578 242.8H628.578C628.578 249.405 630.988 255.216 635.756 260.192L637.2 258.808ZM630.578 242.8C630.578 236.745 632.797 231.532 637.28 227.112L635.876 225.688C631.026 230.468 628.578 236.189 628.578 242.8H630.578ZM637.285 227.107C641.767 222.626 647.113 220.4 653.378 220.4V218.4C646.577 218.4 640.723 220.841 635.871 225.693L637.285 227.107ZM653.378 220.4C659.713 220.4 665.055 222.628 669.466 227.102L670.89 225.698C666.101 220.839 660.244 218.4 653.378 218.4V220.4ZM669.476 227.112C673.957 231.529 676.178 236.775 676.178 242.9H678.178C678.178 236.225 675.732 230.471 670.88 225.688L669.476 227.112ZM676.178 242.9C676.178 248.966 674.018 254.254 669.656 258.808L671.1 260.192C675.805 255.279 678.178 249.501 678.178 242.9H676.178ZM669.656 258.808C665.308 263.348 660.068 265.6 653.878 265.6V267.6C660.622 267.6 666.381 265.119 671.1 260.192L669.656 258.808ZM653.878 265.6H652.978V267.6H653.878V265.6ZM674.978 243.1C674.978 237.164 672.837 232.014 668.591 227.699L667.165 229.101C671.053 233.052 672.978 237.702 672.978 243.1H674.978ZM668.597 227.705C664.414 223.383 659.357 221.2 653.478 221.2V223.2C658.799 223.2 663.342 225.151 667.16 229.095L668.597 227.705ZM653.478 221.2C647.595 221.2 642.476 223.419 638.165 227.799L639.591 229.201C643.547 225.181 648.161 223.2 653.478 223.2V221.2ZM638.165 227.799C633.922 232.112 631.778 237.227 631.778 243.1H633.778C633.778 237.773 635.701 233.155 639.591 229.201L638.165 227.799ZM631.778 243.1C631.778 248.973 633.922 254.088 638.165 258.401L639.591 256.999C635.701 253.045 633.778 248.427 633.778 243.1H631.778ZM638.177 258.413C642.49 262.656 647.606 264.8 653.478 264.8V262.8C648.151 262.8 643.533 260.877 639.579 256.987L638.177 258.413ZM653.478 264.8C659.415 264.8 664.504 262.658 668.691 258.401L667.265 256.999C663.452 260.876 658.875 262.8 653.478 262.8V264.8ZM668.697 258.395C672.872 254.081 674.978 248.967 674.978 243.1H672.978C672.978 248.433 671.084 253.052 667.26 257.005L668.697 258.395ZM697.868 265.5V266.5H698.868V265.5H697.868ZM694.668 265.5H693.668V266.5H694.668V265.5ZM694.668 220.5V219.5H693.668V220.5H694.668ZM697.868 220.5H698.868V219.5H697.868V220.5ZM697.868 229.6H696.868L698.762 230.047L697.868 229.6ZM729.368 225.2L728.655 225.901L728.655 225.901L729.368 225.2ZM735.068 265.5V266.5H736.068V265.5H735.068ZM731.868 265.5H730.868V266.5H731.868V265.5ZM726.968 227.3L726.24 227.985L726.247 227.993L726.968 227.3ZM703.068 227.3L702.375 226.579L702.368 226.586L703.068 227.3ZM697.868 264.5H694.668V266.5H697.868V264.5ZM695.668 265.5V220.5H693.668V265.5H695.668ZM694.668 221.5H697.868V219.5H694.668V221.5ZM696.868 220.5V229.6H698.868V220.5H696.868ZM698.762 230.047C700.387 226.797 702.562 224.402 705.274 222.813C707.99 221.22 711.307 220.4 715.268 220.4V218.4C711.029 218.4 707.346 219.28 704.262 221.087C701.174 222.898 698.748 225.603 696.974 229.153L698.762 230.047ZM715.268 220.4C720.61 220.4 725.05 222.233 728.655 225.901L730.081 224.499C726.086 220.434 721.126 218.4 715.268 218.4V220.4ZM728.655 225.901C732.267 229.576 734.068 234.023 734.068 239.3H736.068C736.068 233.511 734.069 228.557 730.081 224.499L728.655 225.901ZM734.068 239.3V265.5H736.068V239.3H734.068ZM735.068 264.5H731.868V266.5H735.068V264.5ZM732.868 265.5V239.3H730.868V265.5H732.868ZM732.868 239.3C732.868 234.435 731.13 230.188 727.689 226.607L726.247 227.993C729.34 231.212 730.868 234.965 730.868 239.3H732.868ZM727.696 226.615C724.31 223.017 720.148 221.2 715.268 221.2V223.2C719.588 223.2 723.226 224.783 726.24 227.985L727.696 226.615ZM715.268 221.2C710.391 221.2 706.081 223.013 702.375 226.579L703.761 228.021C707.122 224.787 710.945 223.2 715.268 223.2V221.2ZM702.368 226.586C698.721 230.162 696.868 234.415 696.868 239.3H698.868C698.868 234.985 700.481 231.238 703.768 228.014L702.368 226.586ZM696.868 239.3V265.5H698.868V239.3H696.868ZM772.309 238.2L771.473 237.652L771.112 238.203L771.476 238.753L772.309 238.2ZM790.409 265.5V266.5H792.272L791.243 264.947L790.409 265.5ZM786.709 265.5L785.875 266.052L786.172 266.5H786.709V265.5ZM770.509 241L771.344 240.448L770.507 239.183L769.674 240.451L770.509 241ZM754.409 265.5V266.5H754.949L755.245 266.049L754.409 265.5ZM751.209 265.5L750.373 264.952L749.358 266.5H751.209V265.5ZM768.909 238.5L769.746 239.048L770.107 238.498L769.744 237.949L768.909 238.5ZM757.009 220.5V219.5H755.149L756.175 221.051L757.009 220.5ZM760.709 220.5L761.545 219.95L761.248 219.5H760.709V220.5ZM770.709 235.7L769.874 236.25L770.709 237.519L771.545 236.25L770.709 235.7ZM780.709 220.5V219.5H780.17L779.874 219.95L780.709 220.5ZM783.909 220.5L784.746 221.048L785.76 219.5H783.909V220.5ZM771.476 238.753L789.576 266.053L791.243 264.947L773.143 237.647L771.476 238.753ZM790.409 264.5H786.709V266.5H790.409V264.5ZM787.544 264.948L771.344 240.448L769.675 241.552L785.875 266.052L787.544 264.948ZM769.674 240.451L753.574 264.951L755.245 266.049L771.345 241.549L769.674 240.451ZM754.409 264.5H751.209V266.5H754.409V264.5ZM752.046 266.048L769.746 239.048L768.073 237.952L750.373 264.952L752.046 266.048ZM769.744 237.949L757.844 219.949L756.175 221.051L768.075 239.051L769.744 237.949ZM757.009 221.5H760.709V219.5H757.009V221.5ZM759.874 221.05L769.874 236.25L771.545 235.15L761.545 219.95L759.874 221.05ZM771.545 236.25L781.545 221.05L779.874 219.95L769.874 235.15L771.545 236.25ZM780.709 221.5H783.909V219.5H780.709V221.5ZM783.073 219.952L771.473 237.652L773.146 238.748L784.746 221.048L783.073 219.952ZM807.271 265.2C806.27 265.2 805.706 264.97 805.395 264.686C805.101 264.418 804.871 263.954 804.871 263.1H802.871C802.871 264.312 803.208 265.398 804.047 266.164C804.869 266.913 806.005 267.2 807.271 267.2V265.2ZM804.871 263.1C804.871 262.246 805.101 261.782 805.395 261.514C805.706 261.23 806.27 261 807.271 261V259C806.005 259 804.869 259.287 804.047 260.036C803.208 260.802 802.871 261.888 802.871 263.1H804.871ZM807.271 261C808.311 261 808.905 261.233 809.233 261.524C809.538 261.794 809.771 262.254 809.771 263.1H811.771C811.771 261.879 811.421 260.79 810.559 260.026C809.721 259.284 808.564 259 807.271 259V261ZM809.771 263.1C809.771 263.946 809.538 264.406 809.233 264.676C808.905 264.967 808.311 265.2 807.271 265.2V267.2C808.564 267.2 809.721 266.916 810.559 266.174C811.421 265.41 811.771 264.321 811.771 263.1H809.771ZM873.138 190.5H874.138V189.5H873.138V190.5ZM873.138 265.5V266.5H874.138V265.5H873.138ZM869.938 265.5H868.938V266.5H869.938V265.5ZM869.938 254.6H870.938L869.06 254.121L869.938 254.6ZM861.238 263.4L861.728 264.272L861.739 264.265L861.238 263.4ZM832.638 259.7L831.926 260.402L831.931 260.407L831.936 260.412L832.638 259.7ZM832.638 226.4L831.931 225.693L831.931 225.693L832.638 226.4ZM861.438 222.7L860.937 223.565L860.944 223.569L861.438 222.7ZM869.938 231.5L869.041 231.941L870.938 231.5H869.938ZM869.938 190.5V189.5H868.938V190.5H869.938ZM834.938 257.7L834.22 258.395L834.225 258.401L834.938 257.7ZM863.938 257.7L864.645 258.407L864.645 258.407L863.938 257.7ZM863.938 228.5L863.22 229.196L863.225 229.201L863.231 229.207L863.938 228.5ZM834.938 228.4L834.225 227.699L834.22 227.705L834.938 228.4ZM872.138 190.5V265.5H874.138V190.5H872.138ZM873.138 264.5H869.938V266.5H873.138V264.5ZM870.938 265.5V254.6H868.938V265.5H870.938ZM869.06 254.121C867.153 257.618 864.387 260.422 860.737 262.535L861.739 264.265C865.689 261.978 868.724 258.915 870.816 255.079L869.06 254.121ZM860.749 262.528C857.085 264.585 853.352 265.6 849.538 265.6V267.6C853.725 267.6 857.792 266.482 861.728 264.272L860.749 262.528ZM849.538 265.6C843.199 265.6 837.818 263.402 833.34 258.988L831.936 260.412C836.792 265.198 842.678 267.6 849.538 267.6V265.6ZM833.35 258.998C828.932 254.516 826.738 249.2 826.738 243H824.738C824.738 249.733 827.144 255.551 831.926 260.402L833.35 258.998ZM826.738 243C826.738 236.8 828.932 231.521 833.345 227.107L831.931 225.693C827.145 230.479 824.738 236.266 824.738 243H826.738ZM833.345 227.107C837.825 222.628 843.203 220.4 849.538 220.4V218.4C842.673 218.4 836.785 220.839 831.931 225.693L833.345 227.107ZM849.538 220.4C853.485 220.4 857.28 221.448 860.937 223.565L861.939 221.835C857.997 219.552 853.859 218.4 849.538 218.4V220.4ZM860.944 223.569C864.652 225.679 867.337 228.47 869.041 231.941L870.836 231.059C868.94 227.197 865.958 224.121 861.933 221.831L860.944 223.569ZM870.938 231.5V190.5H868.938V231.5H870.938ZM869.938 191.5H873.138V189.5H869.938V191.5ZM827.938 243.1C827.938 248.967 830.045 254.081 834.22 258.395L835.657 257.005C831.832 253.052 829.938 248.433 829.938 243.1H827.938ZM834.225 258.401C838.409 262.655 843.465 264.8 849.338 264.8V262.8C844.012 262.8 839.467 260.878 835.651 256.999L834.225 258.401ZM849.338 264.8C855.275 264.8 860.394 262.658 864.645 258.407L863.231 256.993C859.349 260.875 854.735 262.8 849.338 262.8V264.8ZM864.645 258.407C868.957 254.095 871.138 248.978 871.138 243.1H869.138C869.138 248.422 867.186 253.038 863.231 256.993L864.645 258.407ZM871.138 243.1C871.138 237.222 868.957 232.105 864.645 227.793L863.231 229.207C867.186 233.162 869.138 237.778 869.138 243.1H871.138ZM864.657 227.804C860.411 223.419 855.322 221.2 849.438 221.2V223.2C854.754 223.2 859.332 225.181 863.22 229.196L864.657 227.804ZM849.438 221.2C843.56 221.2 838.473 223.382 834.225 227.699L835.651 229.101C839.537 225.151 844.117 223.2 849.438 223.2V221.2ZM834.22 227.705C830.042 232.021 827.938 237.169 827.938 243.1H829.938C829.938 237.697 831.834 233.045 835.657 229.095L834.22 227.705ZM898.172 259.6L897.455 260.297L897.465 260.307L898.172 259.6ZM898.172 226.5L898.874 227.212L898.879 227.207L898.172 226.5ZM933.172 227.7L933.874 228.412L934.555 227.74L933.914 227.03L933.172 227.7ZM901.772 258.7L901.069 257.988L900.269 258.778L901.147 259.481L901.772 258.7ZM924.972 261.2L925.47 262.067L925.476 262.064L924.972 261.2ZM932.872 253.8H933.872V250.527L932.043 253.241L932.872 253.8ZM932.872 258.9L933.611 259.573L933.872 259.287V258.9H932.872ZM900.472 228.5L901.179 229.207L901.179 229.207L900.472 228.5ZM899.672 256.6L898.922 257.262L899.624 258.057L900.377 257.31L899.672 256.6ZM928.772 227.7L929.477 228.41L930.239 227.652L929.429 226.946L928.772 227.7ZM915.672 265.7H914.772V267.7H915.672V265.7ZM914.772 265.7C908.72 265.7 903.437 263.451 898.879 258.893L897.465 260.307C902.374 265.216 908.157 267.7 914.772 267.7V265.7ZM898.889 258.903C894.392 254.278 892.172 248.957 892.172 242.9H890.172C890.172 249.51 892.618 255.322 897.455 260.297L898.889 258.903ZM892.172 242.9C892.172 236.845 894.39 231.632 898.874 227.212L897.47 225.788C892.62 230.568 890.172 236.289 890.172 242.9H892.172ZM898.879 227.207C903.35 222.736 908.858 220.5 915.472 220.5V218.5C908.352 218.5 902.327 220.93 897.465 225.793L898.879 227.207ZM915.472 220.5C922.033 220.5 927.67 223.096 932.429 228.37L933.914 227.03C928.807 221.37 922.644 218.5 915.472 218.5V220.5ZM932.469 226.988L901.069 257.988L902.474 259.412L933.874 228.412L932.469 226.988ZM901.147 259.481C905.59 263.035 909.971 264.9 914.272 264.9V262.9C910.573 262.9 906.62 261.298 902.397 257.919L901.147 259.481ZM914.272 264.9C918.428 264.9 922.169 263.963 925.47 262.067L924.474 260.333C921.508 262.037 918.116 262.9 914.272 262.9V264.9ZM925.476 262.064C928.806 260.121 931.55 257.551 933.701 254.359L932.043 253.241C930.06 256.183 927.538 258.545 924.468 260.336L925.476 262.064ZM931.872 253.8V258.9H933.872V253.8H931.872ZM932.132 258.227C927.579 263.229 922.11 265.7 915.672 265.7V267.7C922.701 267.7 928.698 264.971 933.611 259.573L932.132 258.227ZM914.572 221.3C909.01 221.3 904.063 223.495 899.765 227.793L901.179 229.207C905.147 225.239 909.601 223.3 914.572 223.3V221.3ZM899.765 227.793C895.527 232.031 893.372 236.979 893.372 242.6H895.372C895.372 237.554 897.284 233.102 901.179 229.207L899.765 227.793ZM893.372 242.6C893.372 248.177 895.228 253.079 898.922 257.262L900.421 255.938C897.049 252.121 895.372 247.689 895.372 242.6H893.372ZM900.377 257.31L929.477 228.41L928.067 226.99L898.967 255.89L900.377 257.31ZM929.429 226.946C925.119 223.192 920.154 221.3 914.572 221.3V223.3C919.657 223.3 924.158 225.008 928.115 228.454L929.429 226.946ZM988.584 220.5V219.5H987.953L987.682 220.068L988.584 220.5ZM991.484 220.5L992.386 220.931L993.069 219.5H991.484V220.5ZM969.384 266.8L968.482 267.232L969.386 269.117L970.286 267.231L969.384 266.8ZM947.184 220.5V219.5H945.595L946.282 220.932L947.184 220.5ZM950.684 220.5L951.585 220.067L951.312 219.5H950.684V220.5ZM969.684 260L968.782 260.433L969.686 262.312L970.586 260.432L969.684 260ZM988.584 221.5H991.484V219.5H988.584V221.5ZM990.581 220.069L968.481 266.369L970.286 267.231L992.386 220.931L990.581 220.069ZM970.285 266.368L948.085 220.068L946.282 220.932L968.482 267.232L970.285 266.368ZM947.184 221.5H950.684V219.5H947.184V221.5ZM949.782 220.933L968.782 260.433L970.585 259.567L951.585 220.067L949.782 220.933ZM970.586 260.432L989.486 220.932L987.682 220.068L968.782 259.568L970.586 260.432Z" fill="#FF0000"/>
<path d="M84.4 1.49877V76.4988H81.1V5.39878L45.7 77.8988L10.5 5.39878V76.4988H7.5V1.49877H12.3L46 70.6988L79.8 1.49877H84.4ZM110.395 31.5988V76.4988H107.195V31.5988H110.395ZM108.795 20.5988C106.861 20.5988 105.895 19.6988 105.895 17.8988C105.895 16.0988 106.861 15.1988 108.795 15.1988C110.728 15.1988 111.695 16.0988 111.695 17.8988C111.695 19.6988 110.728 20.5988 108.795 20.5988ZM153.468 77.7988H152.568C146.168 77.7988 140.668 75.4321 136.068 70.6988C131.468 65.9654 129.168 60.4321 129.168 54.0988C129.168 47.6988 131.501 42.1988 136.168 37.5988C140.835 32.9321 146.568 30.5988 153.368 30.5988C160.168 30.5988 165.968 33.1654 170.768 38.2988V43.3988C168.701 40.3321 166.068 37.8988 162.868 36.0988C159.735 34.2988 156.435 33.3988 152.968 33.3988C147.435 33.3988 142.601 35.4654 138.468 39.5988C134.401 43.6654 132.368 48.5321 132.368 54.1988C132.368 59.8654 134.401 64.7654 138.468 68.8988C142.601 72.9654 147.435 74.9988 152.968 74.9988C156.435 74.9988 159.735 74.0988 162.868 72.2988C166.068 70.4988 168.701 68.0321 170.768 64.8988V70.0988C166.101 75.2321 160.335 77.7988 153.468 77.7988ZM190.427 76.4988H187.227V1.59878H190.427V40.1988C193.76 33.6654 199.527 30.3988 207.727 30.3988C213.327 30.3988 218.027 32.3321 221.827 36.1988C225.693 40.0654 227.627 44.7654 227.627 50.2988V76.4988H224.427V50.2988C224.427 45.6321 222.793 41.6321 219.527 38.2988C216.26 34.8988 212.327 33.1988 207.727 33.1988C203.127 33.1988 199.093 34.8988 195.627 38.2988C192.16 41.6988 190.427 45.6988 190.427 50.2988V76.4988ZM291.494 31.4988V76.4988H288.294V65.2988C286.427 69.0988 283.627 72.0988 279.894 74.2988C276.16 76.4988 272.16 77.5988 267.894 77.5988C261.36 77.5988 255.76 75.2988 251.094 70.6988C246.427 66.0321 244.094 60.4654 244.094 53.9988C244.094 47.5321 246.427 41.9988 251.094 37.3988C255.76 32.7321 261.36 30.3988 267.894 30.3988C272.16 30.3988 276.227 31.5321 280.094 33.7988C284.027 36.0654 286.76 39.0654 288.294 42.7988V31.4988H291.494ZM247.294 54.0988C247.294 59.6988 249.327 64.5654 253.394 68.6988C257.527 72.7654 262.394 74.7988 267.994 74.7988C273.66 74.7988 278.494 72.7654 282.494 68.6988C286.494 64.5654 288.494 59.6988 288.494 54.0988C288.494 48.4321 286.46 43.5321 282.394 39.3988C278.394 35.2654 273.594 33.1988 267.994 33.1988C262.394 33.1988 257.527 35.2988 253.394 39.4988C249.327 43.6321 247.294 48.4988 247.294 54.0988ZM334.027 77.6988H333.127C326.794 77.6988 321.261 75.3321 316.527 70.5988C311.861 65.7988 309.527 60.2321 309.527 53.8988C309.527 47.5654 311.861 42.0988 316.527 37.4988C321.194 32.8321 326.961 30.4988 333.827 30.4988C340.694 30.4988 346.594 33.2321 351.527 38.6988L320.127 69.6988C324.461 73.1654 328.627 74.8988 332.627 74.8988C336.627 74.8988 340.194 73.9988 343.327 72.1988C346.527 70.3321 349.161 67.8654 351.227 64.7988V69.8988C346.494 75.0988 340.761 77.6988 334.027 77.6988ZM332.927 33.2988C327.661 33.2988 322.961 35.3654 318.827 39.4988C314.761 43.5654 312.727 48.2654 312.727 53.5988C312.727 58.9321 314.494 63.5988 318.027 67.5988L347.127 38.6988C342.994 35.0988 338.261 33.2988 332.927 33.2988ZM386.139 74.5988V77.3988C381.406 77.3988 377.372 75.8321 374.039 72.6988C370.706 69.4988 369.039 65.4321 369.039 60.4988V1.49877H372.239V60.4988C372.239 64.5654 373.572 67.9321 376.239 70.5988C378.972 73.2654 382.272 74.5988 386.139 74.5988ZM501.298 1.49877H504.598V76.4988H501.298V47.8988H449.898V76.4988H446.598V1.49877H449.898V44.9988H501.298V1.49877ZM563.345 31.4988H566.545V76.4988H563.345V67.3988C559.945 74.1988 554.145 77.5988 545.945 77.5988C540.345 77.5988 535.645 75.6654 531.845 71.7988C528.045 67.9321 526.145 63.2321 526.145 57.6988V31.4988H529.345V57.6988C529.345 62.2988 530.945 66.2988 534.145 69.6988C537.411 73.0988 541.345 74.7988 545.945 74.7988C550.545 74.7988 554.578 73.0988 558.045 69.6988C561.578 66.2988 563.345 62.2988 563.345 57.6988V31.4988ZM541.145 20.6988C539.211 20.6988 538.245 19.7988 538.245 17.9988C538.245 16.1988 539.211 15.2988 541.145 15.2988C543.078 15.2988 544.045 16.1988 544.045 17.9988C544.045 19.7988 543.078 20.6988 541.145 20.6988ZM551.645 20.6988C549.845 20.6988 548.945 19.7988 548.945 17.9988C548.945 16.1988 549.845 15.2988 551.645 15.2988C553.511 15.2988 554.445 16.1988 554.445 17.9988C554.445 19.7988 553.511 20.6988 551.645 20.6988ZM586.586 76.4988V1.49877H589.786V42.4988C591.586 38.8321 594.386 35.8988 598.186 33.6988C602.053 31.4988 606.053 30.3988 610.186 30.3988C616.786 30.3988 622.386 32.7321 626.986 37.3988C631.653 41.9988 633.986 47.5321 633.986 53.9988C633.986 60.4654 631.653 66.0321 626.986 70.6988C622.386 75.2988 616.786 77.5988 610.186 77.5988C606.186 77.5988 602.286 76.5321 598.486 74.3988C594.686 72.1988 591.786 69.2654 589.786 65.5988V76.4988H586.586ZM589.586 54.0988C589.586 59.6988 591.619 64.5654 595.686 68.6988C599.819 72.7654 604.686 74.7988 610.286 74.7988C615.953 74.7988 620.786 72.7654 624.786 68.6988C628.786 64.5654 630.786 59.6988 630.786 54.0988C630.786 48.4321 628.753 43.5321 624.686 39.3988C620.686 35.2654 615.886 33.1988 610.286 33.1988C604.686 33.1988 599.819 35.2988 595.686 39.4988C591.619 43.6321 589.586 48.4988 589.586 54.0988ZM654.72 76.4988H651.52V31.4988H654.72V40.5988C658.12 33.7988 663.92 30.3988 672.12 30.3988C677.72 30.3988 682.42 32.3321 686.22 36.1988C690.02 40.0654 691.92 44.7654 691.92 50.2988V76.4988H688.72V50.2988C688.72 45.6988 687.086 41.6988 683.82 38.2988C680.62 34.8988 676.72 33.1988 672.12 33.1988C667.52 33.1988 663.453 34.8988 659.92 38.2988C656.453 41.6988 654.72 45.6988 654.72 50.2988V76.4988ZM734.461 77.6988H733.561C727.228 77.6988 721.694 75.3321 716.961 70.5988C712.294 65.7988 709.961 60.2321 709.961 53.8988C709.961 47.5654 712.294 42.0988 716.961 37.4988C721.628 32.8321 727.394 30.4988 734.261 30.4988C741.128 30.4988 747.028 33.2321 751.961 38.6988L720.561 69.6988C724.894 73.1654 729.061 74.8988 733.061 74.8988C737.061 74.8988 740.628 73.9988 743.761 72.1988C746.961 70.3321 749.594 67.8654 751.661 64.7988V69.8988C746.928 75.0988 741.194 77.6988 734.461 77.6988ZM733.361 33.2988C728.094 33.2988 723.394 35.3654 719.261 39.4988C715.194 43.5654 713.161 48.2654 713.161 53.5988C713.161 58.9321 714.928 63.5988 718.461 67.5988L747.561 38.6988C743.428 35.0988 738.694 33.2988 733.361 33.2988ZM795.773 37.5988C792.839 34.6654 789.606 33.1988 786.073 33.1988C782.539 33.1988 779.406 34.5321 776.673 37.1988C774.006 39.8654 772.673 42.9654 772.673 46.4988V76.4988H769.473V31.4988H772.673V38.1988C773.873 35.9321 775.739 34.0654 778.273 32.5988C780.806 31.1321 783.639 30.3988 786.773 30.3988C789.906 30.3988 792.906 31.4654 795.773 33.5988V37.5988Z" fill="#FF0000"/>
<path d="M84.4 1.49877H85.4V0.498773H84.4V1.49877ZM84.4 76.4988V77.4988H85.4V76.4988H84.4ZM81.1 76.4988H80.1V77.4988H81.1V76.4988ZM81.1 5.39878H82.1L80.2014 4.96001L81.1 5.39878ZM45.7 77.8988L44.8004 78.3355L45.6975 80.1831L46.5986 78.3375L45.7 77.8988ZM10.5 5.39878L11.3996 4.96202L9.5 5.39878H10.5ZM10.5 76.4988V77.4988H11.5V76.4988H10.5ZM7.5 76.4988H6.5V77.4988H7.5V76.4988ZM7.5 1.49877V0.498773H6.5V1.49877H7.5ZM12.3 1.49877L13.1991 1.06094L12.9253 0.498773H12.3V1.49877ZM46 70.6988L45.1009 71.1366L45.9987 72.98L46.8985 71.1377L46 70.6988ZM79.8 1.49877V0.498773H79.1755L78.9015 1.05989L79.8 1.49877ZM83.4 1.49877V76.4988H85.4V1.49877H83.4ZM84.4 75.4988H81.1V77.4988H84.4V75.4988ZM82.1 76.4988V5.39878H80.1V76.4988H82.1ZM80.2014 4.96001L44.8014 77.46L46.5986 78.3375L81.9986 5.83754L80.2014 4.96001ZM46.5996 77.462L11.3996 4.96202L9.60042 5.83554L44.8004 78.3355L46.5996 77.462ZM9.5 5.39878V76.4988H11.5V5.39878H9.5ZM10.5 75.4988H7.5V77.4988H10.5V75.4988ZM8.5 76.4988V1.49877H6.5V76.4988H8.5ZM7.5 2.49877H12.3V0.498773H7.5V2.49877ZM11.4009 1.93661L45.1009 71.1366L46.8991 70.2609L13.1991 1.06094L11.4009 1.93661ZM46.8985 71.1377L80.6985 1.93766L78.9015 1.05989L45.1015 70.2599L46.8985 71.1377ZM79.8 2.49877H84.4V0.498773H79.8V2.49877ZM110.395 31.5988H111.395V30.5988H110.395V31.5988ZM110.395 76.4988V77.4988H111.395V76.4988H110.395ZM107.195 76.4988H106.195V77.4988H107.195V76.4988ZM107.195 31.5988V30.5988H106.195V31.5988H107.195ZM109.395 31.5988V76.4988H111.395V31.5988H109.395ZM110.395 75.4988H107.195V77.4988H110.395V75.4988ZM108.195 76.4988V31.5988H106.195V76.4988H108.195ZM107.195 32.5988H110.395V30.5988H107.195V32.5988ZM108.795 19.5988C107.965 19.5988 107.529 19.4042 107.301 19.1919C107.086 18.9921 106.895 18.6256 106.895 17.8988H104.895C104.895 18.972 105.186 19.9555 105.938 20.6557C106.677 21.3433 107.691 21.5988 108.795 21.5988V19.5988ZM106.895 17.8988C106.895 17.172 107.086 16.8055 107.301 16.6057C107.529 16.3933 107.965 16.1988 108.795 16.1988V14.1988C107.691 14.1988 106.677 14.4542 105.938 15.1419C105.186 15.8421 104.895 16.8256 104.895 17.8988H106.895ZM108.795 16.1988C109.624 16.1988 110.06 16.3933 110.288 16.6057C110.503 16.8055 110.695 17.172 110.695 17.8988H112.695C112.695 16.8256 112.403 15.8421 111.651 15.1419C110.912 14.4542 109.898 14.1988 108.795 14.1988V16.1988ZM110.695 17.8988C110.695 18.6256 110.503 18.9921 110.288 19.1919C110.06 19.4042 109.624 19.5988 108.795 19.5988V21.5988C109.898 21.5988 110.912 21.3433 111.651 20.6557C112.403 19.9555 112.695 18.972 112.695 17.8988H110.695ZM136.068 70.6988L135.351 71.3957L135.351 71.3957L136.068 70.6988ZM136.168 37.5988L136.87 38.311L136.875 38.3059L136.168 37.5988ZM170.768 38.2988H171.768V37.9041L171.498 37.6158L170.768 38.2988ZM170.768 43.3988L169.939 43.9576L171.768 46.672V43.3988H170.768ZM162.868 36.0988L162.37 36.9659L162.378 36.9704L162.868 36.0988ZM138.468 39.5988L139.175 40.3059L139.175 40.3059L138.468 39.5988ZM138.468 68.8988L137.755 69.6001L137.761 69.6059L137.767 69.6116L138.468 68.8988ZM162.868 72.2988L162.378 71.4272L162.37 71.4317L162.868 72.2988ZM170.768 64.8988H171.768V61.5664L169.933 64.3482L170.768 64.8988ZM170.768 70.0988L171.508 70.7715L171.768 70.4854V70.0988H170.768ZM153.468 76.7988H152.568V78.7988H153.468V76.7988ZM152.568 76.7988C146.447 76.7988 141.203 74.5482 136.785 70.0018L135.351 71.3957C140.133 76.316 145.888 78.7988 152.568 78.7988V76.7988ZM136.785 70.0018C132.358 65.4464 130.168 60.1599 130.168 54.0988H128.168C128.168 60.7043 130.578 66.4845 135.351 71.3957L136.785 70.0018ZM130.168 54.0988C130.168 47.9736 132.389 42.7281 136.87 38.311L135.466 36.8866C130.614 41.6695 128.168 47.424 128.168 54.0988H130.168ZM136.875 38.3059C141.348 33.833 146.824 31.5988 153.368 31.5988V29.5988C146.312 29.5988 140.321 32.0312 135.461 36.8917L136.875 38.3059ZM153.368 31.5988C159.881 31.5988 165.419 34.043 170.038 38.9818L171.498 37.6158C166.516 32.2879 160.455 29.5988 153.368 29.5988V31.5988ZM169.768 38.2988V43.3988H171.768V38.2988H169.768ZM171.597 42.8399C169.444 39.645 166.695 37.1042 163.358 35.2272L162.378 36.9704C165.441 38.6934 167.958 41.0192 169.939 43.9576L171.597 42.8399ZM163.366 35.2317C160.088 33.3484 156.617 32.3988 152.968 32.3988V34.3988C156.252 34.3988 159.381 35.2491 162.37 36.9659L163.366 35.2317ZM152.968 32.3988C147.153 32.3988 142.07 34.5826 137.761 38.8917L139.175 40.3059C143.133 36.3483 147.716 34.3988 152.968 34.3988V32.3988ZM137.761 38.8917C133.51 43.1427 131.368 48.2625 131.368 54.1988H133.368C133.368 48.8017 135.293 44.1882 139.175 40.3059L137.761 38.8917ZM131.368 54.1988C131.368 60.1346 133.509 65.2846 137.755 69.6001L139.181 68.1974C135.293 64.2463 133.368 59.5963 133.368 54.1988H131.368ZM137.767 69.6116C142.077 73.8525 147.159 75.9988 152.968 75.9988V73.9988C147.711 73.9988 143.126 72.0784 139.169 68.1859L137.767 69.6116ZM152.968 75.9988C156.617 75.9988 160.088 75.0491 163.366 73.1659L162.37 71.4317C159.381 73.1484 156.252 73.9988 152.968 73.9988V75.9988ZM163.358 73.1704C166.7 71.2905 169.45 68.7125 171.603 65.4494L169.933 64.3482C167.952 67.3517 165.436 69.707 162.378 71.4272L163.358 73.1704ZM169.768 64.8988V70.0988H171.768V64.8988H169.768ZM170.028 69.4261C165.549 74.3534 160.05 76.7988 153.468 76.7988V78.7988C160.62 78.7988 166.654 76.1108 171.508 70.7715L170.028 69.4261ZM190.427 76.4988V77.4988H191.427V76.4988H190.427ZM187.227 76.4988H186.227V77.4988H187.227V76.4988ZM187.227 1.59878V0.598778H186.227V1.59878H187.227ZM190.427 1.59878H191.427V0.598778H190.427V1.59878ZM190.427 40.1988H189.427L191.317 40.6532L190.427 40.1988ZM221.827 36.1988L221.113 36.8997L221.119 36.9059L221.827 36.1988ZM227.627 76.4988V77.4988H228.627V76.4988H227.627ZM224.427 76.4988H223.427V77.4988H224.427V76.4988ZM219.527 38.2988L218.805 38.9916L218.812 38.9987L219.527 38.2988ZM190.427 75.4988H187.227V77.4988H190.427V75.4988ZM188.227 76.4988V1.59878H186.227V76.4988H188.227ZM187.227 2.59878H190.427V0.598778H187.227V2.59878ZM189.427 1.59878V40.1988H191.427V1.59878H189.427ZM191.317 40.6532C192.905 37.5418 195.05 35.2455 197.744 33.7189C200.446 32.1887 203.759 31.3988 207.727 31.3988V29.3988C203.494 29.3988 199.824 30.2422 196.759 31.9787C193.687 33.7188 191.282 36.3224 189.536 39.7443L191.317 40.6532ZM207.727 31.3988C213.068 31.3988 217.508 33.2313 221.113 36.8997L222.54 35.4978C218.545 31.4329 213.585 29.3988 207.727 29.3988V31.3988ZM221.119 36.9059C224.796 40.5825 226.627 45.0271 226.627 50.2988H228.627C228.627 44.5038 226.59 39.5484 222.534 35.4917L221.119 36.9059ZM226.627 50.2988V76.4988H228.627V50.2988H226.627ZM227.627 75.4988H224.427V77.4988H227.627V75.4988ZM225.427 76.4988V50.2988H223.427V76.4988H225.427ZM225.427 50.2988C225.427 45.3704 223.691 41.1191 220.241 37.5988L218.812 38.9987C221.896 42.1451 223.427 45.8939 223.427 50.2988H225.427ZM220.248 37.606C216.798 34.0152 212.606 32.1988 207.727 32.1988V34.1988C212.047 34.1988 215.722 35.7823 218.805 38.9916L220.248 37.606ZM207.727 32.1988C202.849 32.1988 198.568 34.0128 194.926 37.5848L196.327 39.0127C199.618 35.7848 203.404 34.1988 207.727 34.1988V32.1988ZM194.926 37.5848C191.28 41.1612 189.427 45.414 189.427 50.2988H191.427C191.427 45.9836 193.04 42.2363 196.327 39.0127L194.926 37.5848ZM189.427 50.2988V76.4988H191.427V50.2988H189.427ZM291.494 31.4988H292.494V30.4988H291.494V31.4988ZM291.494 76.4988V77.4988H292.494V76.4988H291.494ZM288.294 76.4988H287.294V77.4988H288.294V76.4988ZM288.294 65.2988H289.294L287.396 64.8579L288.294 65.2988ZM279.894 74.2988L279.386 73.4372L279.386 73.4372L279.894 74.2988ZM251.094 70.6988L250.387 71.4059L250.392 71.411L251.094 70.6988ZM251.094 37.3988L251.796 38.111L251.801 38.1059L251.094 37.3988ZM280.094 33.7988L279.588 34.6615L279.594 34.6652L280.094 33.7988ZM288.294 42.7988L287.369 43.1787L289.294 42.7988H288.294ZM288.294 31.4988V30.4988H287.294V31.4988H288.294ZM253.394 68.6988L252.681 69.4001L252.687 69.4059L252.692 69.4116L253.394 68.6988ZM282.494 68.6988L283.207 69.4L283.212 69.3942L282.494 68.6988ZM282.394 39.3988L281.675 40.0942L281.681 40.1001L282.394 39.3988ZM253.394 39.4988L252.681 38.7974L252.681 38.7974L253.394 39.4988ZM290.494 31.4988V76.4988H292.494V31.4988H290.494ZM291.494 75.4988H288.294V77.4988H291.494V75.4988ZM289.294 76.4988V65.2988H287.294V76.4988H289.294ZM287.396 64.8579C285.618 68.4783 282.955 71.3339 279.386 73.4372L280.401 75.1603C284.299 72.8637 287.236 69.7193 289.191 65.7397L287.396 64.8579ZM279.386 73.4372C275.804 75.5481 271.979 76.5988 267.894 76.5988V78.5988C272.342 78.5988 276.517 77.4495 280.401 75.1603L279.386 73.4372ZM267.894 76.5988C261.624 76.5988 256.276 74.4028 251.796 69.9866L250.392 71.411C255.245 76.1948 261.097 78.5988 267.894 78.5988V76.5988ZM251.801 69.9917C247.317 65.5082 245.094 60.1942 245.094 53.9988H243.094C243.094 60.7367 245.537 66.556 250.387 71.4059L251.801 69.9917ZM245.094 53.9988C245.094 47.8038 247.317 42.5258 251.796 38.111L250.392 36.6866C245.537 41.4717 243.094 47.2604 243.094 53.9988H245.094ZM251.801 38.1059C256.282 33.6246 261.629 31.3988 267.894 31.3988V29.3988C261.092 29.3988 255.239 31.8396 250.387 36.6917L251.801 38.1059ZM267.894 31.3988C271.974 31.3988 275.867 32.48 279.588 34.6615L280.599 32.9361C276.587 30.5842 272.347 29.3988 267.894 29.3988V31.3988ZM279.594 34.6652C283.361 36.8358 285.93 39.6756 287.369 43.1787L289.219 42.4189C287.591 38.4553 284.693 35.2951 280.593 32.9323L279.594 34.6652ZM289.294 42.7988V31.4988H287.294V42.7988H289.294ZM288.294 32.4988H291.494V30.4988H288.294V32.4988ZM246.294 54.0988C246.294 59.9714 248.437 65.0871 252.681 69.4001L254.107 67.9974C250.217 64.0438 248.294 59.4262 248.294 54.0988H246.294ZM252.692 69.4116C257.005 73.655 262.121 75.7988 267.994 75.7988V73.7988C262.666 73.7988 258.049 71.8758 254.095 67.9859L252.692 69.4116ZM267.994 75.7988C273.93 75.7988 279.02 73.6564 283.207 69.4L281.781 67.9975C277.967 71.8745 273.39 73.7988 267.994 73.7988V75.7988ZM283.212 69.3942C287.387 65.08 289.494 59.9661 289.494 54.0988H287.494C287.494 59.4315 285.6 64.0509 281.775 68.0034L283.212 69.3942ZM289.494 54.0988C289.494 48.163 287.352 43.013 283.107 38.6974L281.681 40.1001C285.568 44.0513 287.494 48.7013 287.494 54.0988H289.494ZM283.112 38.7034C278.93 34.3813 273.873 32.1988 267.994 32.1988V34.1988C273.315 34.1988 277.858 36.1496 281.675 40.0942L283.112 38.7034ZM267.994 32.1988C262.111 32.1988 256.991 34.4175 252.681 38.7974L254.106 40.2002C258.063 36.1801 262.677 34.1988 267.994 34.1988V32.1988ZM252.681 38.7974C248.437 43.1104 246.294 48.2262 246.294 54.0988H248.294C248.294 48.7714 250.217 44.1538 254.107 40.2001L252.681 38.7974ZM316.527 70.5988L315.81 71.2959L315.82 71.3059L316.527 70.5988ZM316.527 37.4988L317.229 38.211L317.234 38.2059L316.527 37.4988ZM351.527 38.6988L352.23 39.4104L352.91 38.7387L352.27 38.0288L351.527 38.6988ZM320.127 69.6988L319.425 68.9872L318.625 69.7772L319.503 70.4796L320.127 69.6988ZM343.327 72.1988L343.825 73.0659L343.831 73.0626L343.327 72.1988ZM351.227 64.7988H352.227V61.5255L350.398 64.2399L351.227 64.7988ZM351.227 69.8988L351.967 70.5719L352.227 70.2858V69.8988H351.227ZM318.827 39.4988L319.534 40.2059L319.534 40.2059L318.827 39.4988ZM318.027 67.5988L317.278 68.2608L317.98 69.0554L318.732 68.3083L318.027 67.5988ZM347.127 38.6988L347.832 39.4083L348.595 38.6508L347.784 37.9447L347.127 38.6988ZM334.027 76.6988H333.127V78.6988H334.027V76.6988ZM333.127 76.6988C327.076 76.6988 321.792 74.4493 317.234 69.8917L315.82 71.3059C320.729 76.2149 326.512 78.6988 333.127 78.6988V76.6988ZM317.244 69.9017C312.748 65.2766 310.527 59.9558 310.527 53.8988H308.527C308.527 60.5084 310.974 66.321 315.81 71.2959L317.244 69.9017ZM310.527 53.8988C310.527 47.8434 312.746 42.6303 317.229 38.211L315.825 36.7866C310.975 41.5672 308.527 47.2875 308.527 53.8988H310.527ZM317.234 38.2059C321.705 33.7351 327.214 31.4988 333.827 31.4988V29.4988C326.707 29.4988 320.683 31.9292 315.82 36.7917L317.234 38.2059ZM333.827 31.4988C340.389 31.4988 346.026 34.0951 350.785 39.3687L352.27 38.0288C347.162 32.3691 340.999 29.4988 333.827 29.4988V31.4988ZM350.825 37.9872L319.425 68.9872L320.83 70.4104L352.23 39.4104L350.825 37.9872ZM319.503 70.4796C323.946 74.0339 328.326 75.8988 332.627 75.8988V73.8988C328.928 73.8988 324.976 72.2969 320.752 68.9179L319.503 70.4796ZM332.627 75.8988C336.783 75.8988 340.525 74.962 343.825 73.0659L342.829 71.3317C339.863 73.0355 336.472 73.8988 332.627 73.8988V75.8988ZM343.831 73.0626C347.161 71.1202 349.906 68.5494 352.057 65.3576L350.398 64.2399C348.416 67.1815 345.894 69.544 342.823 71.335L343.831 73.0626ZM350.227 64.7988V69.8988H352.227V64.7988H350.227ZM350.488 69.2256C345.935 74.2279 340.465 76.6988 334.027 76.6988V78.6988C341.056 78.6988 347.054 75.9697 351.967 70.5719L350.488 69.2256ZM332.927 32.2988C327.365 32.2988 322.419 34.4934 318.12 38.7917L319.534 40.2059C323.503 36.2375 327.956 34.2988 332.927 34.2988V32.2988ZM318.12 38.7917C313.882 43.0296 311.727 47.9781 311.727 53.5988H313.727C313.727 48.5528 315.639 44.1012 319.534 40.2059L318.12 38.7917ZM311.727 53.5988C311.727 59.1761 313.583 64.0782 317.278 68.2608L318.777 66.9367C315.405 63.1194 313.727 58.6881 313.727 53.5988H311.727ZM318.732 68.3083L347.832 39.4083L346.423 37.9892L317.323 66.8892L318.732 68.3083ZM347.784 37.9447C343.474 34.1909 338.509 32.2988 332.927 32.2988V34.2988C338.012 34.2988 342.514 36.0066 346.471 39.4529L347.784 37.9447ZM386.139 74.5988H387.139V73.5988H386.139V74.5988ZM386.139 77.3988V78.3988H387.139V77.3988H386.139ZM374.039 72.6988L373.346 73.4202L373.354 73.4274L374.039 72.6988ZM369.039 1.49877V0.498773H368.039V1.49877H369.039ZM372.239 1.49877H373.239V0.498773H372.239V1.49877ZM376.239 70.5988L375.532 71.3059L375.541 71.3146L376.239 70.5988ZM385.139 74.5988V77.3988H387.139V74.5988H385.139ZM386.139 76.3988C381.65 76.3988 377.865 74.9226 374.724 71.9702L373.354 73.4274C376.88 76.7416 381.161 78.3988 386.139 78.3988V76.3988ZM374.732 71.9774C371.609 68.9797 370.039 65.1804 370.039 60.4988H368.039C368.039 65.6839 369.802 70.0178 373.347 73.4202L374.732 71.9774ZM370.039 60.4988V1.49877H368.039V60.4988H370.039ZM369.039 2.49877H372.239V0.498773H369.039V2.49877ZM371.239 1.49877V60.4988H373.239V1.49877H371.239ZM371.239 60.4988C371.239 64.8077 372.662 68.4361 375.532 71.3059L376.946 69.8917C374.483 67.4282 373.239 64.3232 373.239 60.4988H371.239ZM375.541 71.3146C378.463 74.166 382.015 75.5988 386.139 75.5988V73.5988C382.53 73.5988 379.481 72.3649 376.937 69.883L375.541 71.3146ZM501.298 1.49877V0.498773H500.298V1.49877H501.298ZM504.598 1.49877H505.598V0.498773H504.598V1.49877ZM504.598 76.4988V77.4988H505.598V76.4988H504.598ZM501.298 76.4988H500.298V77.4988H501.298V76.4988ZM501.298 47.8988H502.298V46.8988H501.298V47.8988ZM449.898 47.8988V46.8988H448.898V47.8988H449.898ZM449.898 76.4988V77.4988H450.898V76.4988H449.898ZM446.598 76.4988H445.598V77.4988H446.598V76.4988ZM446.598 1.49877V0.498773H445.598V1.49877H446.598ZM449.898 1.49877H450.898V0.498773H449.898V1.49877ZM449.898 44.9988H448.898V45.9988H449.898V44.9988ZM501.298 44.9988V45.9988H502.298V44.9988H501.298ZM501.298 2.49877H504.598V0.498773H501.298V2.49877ZM503.598 1.49877V76.4988H505.598V1.49877H503.598ZM504.598 75.4988H501.298V77.4988H504.598V75.4988ZM502.298 76.4988V47.8988H500.298V76.4988H502.298ZM501.298 46.8988H449.898V48.8988H501.298V46.8988ZM448.898 47.8988V76.4988H450.898V47.8988H448.898ZM449.898 75.4988H446.598V77.4988H449.898V75.4988ZM447.598 76.4988V1.49877H445.598V76.4988H447.598ZM446.598 2.49877H449.898V0.498773H446.598V2.49877ZM448.898 1.49877V44.9988H450.898V1.49877H448.898ZM449.898 45.9988H501.298V43.9988H449.898V45.9988ZM502.298 44.9988V1.49877H500.298V44.9988H502.298ZM563.345 31.4988V30.4988H562.345V31.4988H563.345ZM566.545 31.4988H567.545V30.4988H566.545V31.4988ZM566.545 76.4988V77.4988H567.545V76.4988H566.545ZM563.345 76.4988H562.345V77.4988H563.345V76.4988ZM563.345 67.3988H564.345L562.45 66.9516L563.345 67.3988ZM531.845 71.7988L532.558 71.0978L531.845 71.7988ZM526.145 31.4988V30.4988H525.145V31.4988H526.145ZM529.345 31.4988H530.345V30.4988H529.345V31.4988ZM534.145 69.6988L533.416 70.3842L533.423 70.3916L534.145 69.6988ZM558.045 69.6988L557.351 68.9782L557.344 68.9848L558.045 69.6988ZM563.345 32.4988H566.545V30.4988H563.345V32.4988ZM565.545 31.4988V76.4988H567.545V31.4988H565.545ZM566.545 75.4988H563.345V77.4988H566.545V75.4988ZM564.345 76.4988V67.3988H562.345V76.4988H564.345ZM562.45 66.9516C560.825 70.2017 558.651 72.5964 555.939 74.1861C553.223 75.7783 549.906 76.5988 545.945 76.5988V78.5988C550.183 78.5988 553.866 77.7192 556.95 75.9115C560.039 74.1011 562.464 71.3958 564.239 67.846L562.45 66.9516ZM545.945 76.5988C540.603 76.5988 536.163 74.7663 532.558 71.0978L531.131 72.4997C535.126 76.5646 540.086 78.5988 545.945 78.5988V76.5988ZM532.558 71.0978C528.946 67.4225 527.145 62.976 527.145 57.6988H525.145C525.145 63.4883 527.143 68.4418 531.131 72.4997L532.558 71.0978ZM527.145 57.6988V31.4988H525.145V57.6988H527.145ZM526.145 32.4988H529.345V30.4988H526.145V32.4988ZM528.345 31.4988V57.6988H530.345V31.4988H528.345ZM528.345 57.6988C528.345 62.5577 530.045 66.8017 533.416 70.3841L534.873 69.0134C531.844 65.7958 530.345 62.0398 530.345 57.6988H528.345ZM533.423 70.3916C536.873 73.9823 541.065 75.7988 545.945 75.7988V73.7988C541.624 73.7988 537.949 72.2152 534.866 69.006L533.423 70.3916ZM545.945 75.7988C550.822 75.7988 555.103 73.9848 558.745 70.4127L557.344 68.9848C554.053 72.2128 550.267 73.7988 545.945 73.7988V75.7988ZM558.738 70.4194C562.453 66.8447 564.345 62.59 564.345 57.6988H562.345C562.345 62.0075 560.703 65.7529 557.351 68.9782L558.738 70.4194ZM564.345 57.6988V31.4988H562.345V57.6988H564.345ZM541.145 19.6988C540.315 19.6988 539.879 19.5042 539.651 19.2919C539.436 19.0921 539.245 18.7256 539.245 17.9988H537.245C537.245 19.072 537.536 20.0555 538.288 20.7557C539.027 21.4433 540.041 21.6988 541.145 21.6988V19.6988ZM539.245 17.9988C539.245 17.272 539.436 16.9055 539.651 16.7057C539.879 16.4933 540.315 16.2988 541.145 16.2988V14.2988C540.041 14.2988 539.027 14.5542 538.288 15.2419C537.536 15.9421 537.245 16.9256 537.245 17.9988H539.245ZM541.145 16.2988C541.974 16.2988 542.41 16.4933 542.638 16.7057C542.853 16.9055 543.045 17.272 543.045 17.9988H545.045C545.045 16.9256 544.753 15.9421 544.001 15.2419C543.262 14.5542 542.248 14.2988 541.145 14.2988V16.2988ZM543.045 17.9988C543.045 18.7256 542.853 19.0921 542.638 19.2919C542.41 19.5042 541.974 19.6988 541.145 19.6988V21.6988C542.248 21.6988 543.262 21.4433 544.001 20.7557C544.753 20.0555 545.045 19.072 545.045 17.9988H543.045ZM551.645 19.6988C550.899 19.6988 550.523 19.513 550.327 19.3167C550.13 19.1203 549.945 18.7446 549.945 17.9988H547.945C547.945 19.0529 548.209 20.0272 548.912 20.7309C549.616 21.4346 550.59 21.6988 551.645 21.6988V19.6988ZM549.945 17.9988C549.945 17.2529 550.13 16.8772 550.327 16.6809C550.523 16.4846 550.899 16.2988 551.645 16.2988V14.2988C550.59 14.2988 549.616 14.563 548.912 15.2667C548.209 15.9703 547.945 16.9446 547.945 17.9988H549.945ZM551.645 16.2988C552.433 16.2988 552.838 16.4892 553.05 16.6936C553.256 16.8915 553.445 17.2624 553.445 17.9988H555.445C555.445 16.9352 555.167 15.9561 554.439 15.2539C553.717 14.5583 552.723 14.2988 551.645 14.2988V16.2988ZM553.445 17.9988C553.445 18.7352 553.256 19.1061 553.05 19.3039C552.838 19.5083 552.433 19.6988 551.645 19.6988V21.6988C552.723 21.6988 553.717 21.4392 554.439 20.7436C555.167 20.0415 555.445 19.0624 555.445 17.9988H553.445ZM586.586 76.4988H585.586V77.4988H586.586V76.4988ZM586.586 1.49877V0.498773H585.586V1.49877H586.586ZM589.786 1.49877H590.786V0.498773H589.786V1.49877ZM589.786 42.4988H588.786L590.684 42.9395L589.786 42.4988ZM598.186 33.6988L597.691 32.8296L597.685 32.8333L598.186 33.6988ZM626.986 37.3988L626.274 38.1008L626.279 38.1059L626.284 38.111L626.986 37.3988ZM626.986 70.6988L626.279 69.9917L626.279 69.9917L626.986 70.6988ZM598.486 74.3988L597.985 75.2643L597.996 75.2708L598.486 74.3988ZM589.786 65.5988L590.664 65.1199L588.786 65.5988H589.786ZM589.786 76.4988V77.4988H590.786V76.4988H589.786ZM595.686 68.6988L594.973 69.4001L594.979 69.4059L594.985 69.4116L595.686 68.6988ZM624.786 68.6988L625.499 69.4L625.505 69.3942L624.786 68.6988ZM624.686 39.3988L623.967 40.0942L623.973 40.1001L624.686 39.3988ZM595.686 39.4988L594.973 38.7974L594.973 38.7974L595.686 39.4988ZM587.586 76.4988V1.49877H585.586V76.4988H587.586ZM586.586 2.49877H589.786V0.498773H586.586V2.49877ZM588.786 1.49877V42.4988H590.786V1.49877H588.786ZM590.684 42.9395C592.39 39.464 595.045 36.6728 598.687 34.5642L597.685 32.8333C593.727 35.1248 590.782 38.2002 588.888 42.0581L590.684 42.9395ZM598.68 34.5679C602.408 32.4469 606.239 31.3988 610.186 31.3988V29.3988C605.866 29.3988 601.697 30.5506 597.691 32.8296L598.68 34.5679ZM610.186 31.3988C616.52 31.3988 621.863 33.6263 626.274 38.1008L627.698 36.6968C622.909 31.8379 617.051 29.3988 610.186 29.3988V31.3988ZM626.284 38.111C630.763 42.5258 632.986 47.8038 632.986 53.9988H634.986C634.986 47.2604 632.542 41.4717 627.688 36.6866L626.284 38.111ZM632.986 53.9988C632.986 60.1942 630.762 65.5082 626.279 69.9917L627.693 71.4059C632.543 66.556 634.986 60.7367 634.986 53.9988H632.986ZM626.279 69.9917C621.869 74.4011 616.525 76.5988 610.186 76.5988V78.5988C617.047 78.5988 622.902 76.1965 627.693 71.4059L626.279 69.9917ZM610.186 76.5988C606.372 76.5988 602.64 75.5839 598.975 73.5268L597.996 75.2708C601.932 77.4803 605.999 78.5988 610.186 78.5988V76.5988ZM598.987 73.5334C595.337 71.4203 592.571 68.6172 590.664 65.1199L588.908 66.0776C591 69.9137 594.035 72.9773 597.985 75.2642L598.987 73.5334ZM588.786 65.5988V76.4988H590.786V65.5988H588.786ZM589.786 75.4988H586.586V77.4988H589.786V75.4988ZM588.586 54.0988C588.586 59.9714 590.73 65.0871 594.973 69.4001L596.399 67.9974C592.509 64.0438 590.586 59.4262 590.586 54.0988H588.586ZM594.985 69.4116C599.298 73.655 604.413 75.7988 610.286 75.7988V73.7988C604.959 73.7988 600.341 71.8758 596.387 67.9859L594.985 69.4116ZM610.286 75.7988C616.223 75.7988 621.312 73.6564 625.499 69.4L624.073 67.9975C620.26 71.8745 615.683 73.7988 610.286 73.7988V75.7988ZM625.505 69.3942C629.68 65.08 631.786 59.9661 631.786 54.0988H629.786C629.786 59.4315 627.892 64.0509 624.067 68.0034L625.505 69.3942ZM631.786 54.0988C631.786 48.163 629.645 43.013 625.399 38.6974L623.973 40.1001C627.861 44.0513 629.786 48.7013 629.786 54.0988H631.786ZM625.405 38.7034C621.222 34.3813 616.165 32.1988 610.286 32.1988V34.1988C615.607 34.1988 620.15 36.1496 623.967 40.0942L625.405 38.7034ZM610.286 32.1988C604.403 32.1988 599.284 34.4175 594.973 38.7974L596.399 40.2002C600.355 36.1801 604.969 34.1988 610.286 34.1988V32.1988ZM594.973 38.7974C590.73 43.1104 588.586 48.2262 588.586 54.0988H590.586C590.586 48.7714 592.509 44.1538 596.399 40.2001L594.973 38.7974ZM654.72 76.4988V77.4988H655.72V76.4988H654.72ZM651.52 76.4988H650.52V77.4988H651.52V76.4988ZM651.52 31.4988V30.4988H650.52V31.4988H651.52ZM654.72 31.4988H655.72V30.4988H654.72V31.4988ZM654.72 40.5988H653.72L655.614 41.046L654.72 40.5988ZM686.22 36.1988L685.506 36.8997L685.506 36.8997L686.22 36.1988ZM691.92 76.4988V77.4988H692.92V76.4988H691.92ZM688.72 76.4988H687.72V77.4988H688.72V76.4988ZM683.82 38.2988L683.091 38.9842L683.098 38.9916L683.82 38.2988ZM659.92 38.2988L659.226 37.5782L659.219 37.5848L659.92 38.2988ZM654.72 75.4988H651.52V77.4988H654.72V75.4988ZM652.52 76.4988V31.4988H650.52V76.4988H652.52ZM651.52 32.4988H654.72V30.4988H651.52V32.4988ZM653.72 31.4988V40.5988H655.72V31.4988H653.72ZM655.614 41.046C657.239 37.7958 659.414 35.4011 662.125 33.8115C664.841 32.2192 668.158 31.3988 672.12 31.3988V29.3988C667.881 29.3988 664.198 30.2783 661.114 32.0861C658.026 33.8964 655.6 36.6017 653.825 40.1516L655.614 41.046ZM672.12 31.3988C677.461 31.3988 681.901 33.2313 685.506 36.8997L686.933 35.4978C682.938 31.4329 677.978 29.3988 672.12 29.3988V31.3988ZM685.506 36.8997C689.118 40.5751 690.92 45.0216 690.92 50.2988H692.92C692.92 44.5093 690.921 39.5558 686.933 35.4978L685.506 36.8997ZM690.92 50.2988V76.4988H692.92V50.2988H690.92ZM691.92 75.4988H688.72V77.4988H691.92V75.4988ZM689.72 76.4988V50.2988H687.72V76.4988H689.72ZM689.72 50.2988C689.72 45.4334 687.981 41.187 684.541 37.606L683.098 38.9916C686.191 42.2105 687.72 45.9642 687.72 50.2988H689.72ZM684.548 37.6134C681.162 34.016 677 32.1988 672.12 32.1988V34.1988C676.439 34.1988 680.077 35.7815 683.091 38.9841L684.548 37.6134ZM672.12 32.1988C667.243 32.1988 662.932 34.012 659.226 37.5782L660.613 39.0193C663.973 35.7856 667.796 34.1988 672.12 34.1988V32.1988ZM659.219 37.5848C655.573 41.1612 653.72 45.414 653.72 50.2988H655.72C655.72 45.9836 657.333 42.2363 660.62 39.0127L659.219 37.5848ZM653.72 50.2988V76.4988H655.72V50.2988H653.72ZM716.961 70.5988L716.244 71.2959L716.254 71.3059L716.961 70.5988ZM716.961 37.4988L717.663 38.211L717.668 38.2059L716.961 37.4988ZM751.961 38.6988L752.663 39.4104L753.344 38.7387L752.703 38.0288L751.961 38.6988ZM720.561 69.6988L719.858 68.9872L719.058 69.7772L719.936 70.4796L720.561 69.6988ZM743.761 72.1988L744.259 73.0659L744.265 73.0626L743.761 72.1988ZM751.661 64.7988H752.661V61.5255L750.832 64.2399L751.661 64.7988ZM751.661 69.8988L752.4 70.5719L752.661 70.2858V69.8988H751.661ZM719.261 39.4988L719.968 40.2059L719.968 40.2059L719.261 39.4988ZM718.461 67.5988L717.711 68.2608L718.413 69.0554L719.166 68.3083L718.461 67.5988ZM747.561 38.6988L748.266 39.4083L749.028 38.6508L748.218 37.9447L747.561 38.6988ZM734.461 76.6988H733.561V78.6988H734.461V76.6988ZM733.561 76.6988C727.509 76.6988 722.226 74.4493 717.668 69.8917L716.254 71.3059C721.163 76.2149 726.946 78.6988 733.561 78.6988V76.6988ZM717.678 69.9017C713.181 65.2766 710.961 59.9558 710.961 53.8988H708.961C708.961 60.5084 711.407 66.321 716.244 71.2959L717.678 69.9017ZM710.961 53.8988C710.961 47.8434 713.18 42.6303 717.663 38.211L716.259 36.7866C711.409 41.5672 708.961 47.2875 708.961 53.8988H710.961ZM717.668 38.2059C722.139 33.7351 727.648 31.4988 734.261 31.4988V29.4988C727.141 29.4988 721.116 31.9292 716.254 36.7917L717.668 38.2059ZM734.261 31.4988C740.822 31.4988 746.459 34.0951 751.219 39.3687L752.703 38.0288C747.596 32.3691 741.433 29.4988 734.261 29.4988V31.4988ZM751.258 37.9872L719.858 68.9872L721.263 70.4104L752.663 39.4104L751.258 37.9872ZM719.936 70.4796C724.379 74.0339 728.76 75.8988 733.061 75.8988V73.8988C729.362 73.8988 725.409 72.2969 721.186 68.9179L719.936 70.4796ZM733.061 75.8988C737.217 75.8988 740.958 74.962 744.259 73.0659L743.263 71.3317C740.297 73.0355 736.905 73.8988 733.061 73.8988V75.8988ZM744.265 73.0626C747.595 71.1202 750.339 68.5494 752.49 65.3576L750.832 64.2399C748.849 67.1815 746.327 69.544 743.257 71.335L744.265 73.0626ZM750.661 64.7988V69.8988H752.661V64.7988H750.661ZM750.921 69.2256C746.368 74.2279 740.899 76.6988 734.461 76.6988V78.6988C741.49 78.6988 747.487 75.9697 752.4 70.5719L750.921 69.2256ZM733.361 32.2988C727.799 32.2988 722.852 34.4934 718.554 38.7917L719.968 40.2059C723.936 36.2375 728.39 34.2988 733.361 34.2988V32.2988ZM718.554 38.7917C714.316 43.0296 712.161 47.9781 712.161 53.5988H714.161C714.161 48.5528 716.073 44.1012 719.968 40.2059L718.554 38.7917ZM712.161 53.5988C712.161 59.1761 714.017 64.0782 717.711 68.2608L719.21 66.9367C715.838 63.1194 714.161 58.6881 714.161 53.5988H712.161ZM719.166 68.3083L748.266 39.4083L746.856 37.9892L717.756 66.8892L719.166 68.3083ZM748.218 37.9447C743.908 34.1909 738.943 32.2988 733.361 32.2988V34.2988C738.446 34.2988 742.947 36.0066 746.904 39.4529L748.218 37.9447ZM795.773 37.5988L795.066 38.3059L796.773 40.013V37.5988H795.773ZM776.673 37.1988L775.974 36.4829L775.966 36.4917L776.673 37.1988ZM772.673 76.4988V77.4988H773.673V76.4988H772.673ZM769.473 76.4988H768.473V77.4988H769.473V76.4988ZM769.473 31.4988V30.4988H768.473V31.4988H769.473ZM772.673 31.4988H773.673V30.4988H772.673V31.4988ZM772.673 38.1988H771.673L773.556 38.6667L772.673 38.1988ZM778.273 32.5988L778.774 33.4642L778.774 33.4642L778.273 32.5988ZM795.773 33.5988H796.773V33.0964L796.37 32.7965L795.773 33.5988ZM796.48 36.8917C793.394 33.806 789.917 32.1988 786.073 32.1988V34.1988C789.295 34.1988 792.285 35.5249 795.066 38.3059L796.48 36.8917ZM786.073 32.1988C782.256 32.1988 778.878 33.6503 775.974 36.483L777.371 37.9146C779.934 35.4139 782.823 34.1988 786.073 34.1988V32.1988ZM775.966 36.4917C773.125 39.3319 771.673 42.6811 771.673 46.4988H773.673C773.673 43.2498 774.887 40.399 777.38 37.9059L775.966 36.4917ZM771.673 46.4988V76.4988H773.673V46.4988H771.673ZM772.673 75.4988H769.473V77.4988H772.673V75.4988ZM770.473 76.4988V31.4988H768.473V76.4988H770.473ZM769.473 32.4988H772.673V30.4988H769.473V32.4988ZM771.673 31.4988V38.1988H773.673V31.4988H771.673ZM773.556 38.6667C774.657 36.5883 776.379 34.8505 778.774 33.4642L777.772 31.7334C775.099 33.2804 773.089 35.276 771.789 37.7309L773.556 38.6667ZM778.774 33.4642C781.144 32.0919 783.802 31.3988 786.773 31.3988V29.3988C783.476 29.3988 780.468 30.1723 777.772 31.7334L778.774 33.4642ZM786.773 31.3988C789.661 31.3988 792.456 32.3773 795.176 34.401L796.37 32.7965C793.356 30.5536 790.151 29.3988 786.773 29.3988V31.3988ZM794.773 33.5988V37.5988H796.773V33.5988H794.773Z" fill="#FF0000"/>
</svg>
