<svg width="808" height="298" viewBox="0 0 808 298" fill="none" xmlns="http://www.w3.org/2000/svg">
<path d="M10.5 207.1V252H7.3V207.1H10.5ZM8.9 196.1C6.96667 196.1 6 195.2 6 193.4C6 191.6 6.96667 190.7 8.9 190.7C10.8333 190.7 11.8 191.6 11.8 193.4C11.8 195.2 10.8333 196.1 8.9 196.1ZM34.9734 252H31.7734V207H34.9734V216.1C38.3734 209.3 44.1734 205.9 52.3734 205.9C57.9734 205.9 62.6734 207.833 66.4734 211.7C70.2734 215.567 72.1734 220.267 72.1734 225.8V252H68.9734V225.8C68.9734 221.2 67.3401 217.2 64.0734 213.8C60.8734 210.4 56.9734 208.7 52.3734 208.7C47.7734 208.7 43.7068 210.4 40.1734 213.8C36.7068 217.2 34.9734 221.2 34.9734 225.8V252ZM109.315 188.8V191.6C105.448 191.6 102.148 192.933 99.4148 195.6C96.7482 198.267 95.4148 201.633 95.4148 205.7V232H109.415V234.8H95.4148V252H92.2148V205.7C92.2148 200.767 93.8815 196.733 97.2148 193.6C100.548 190.4 104.582 188.8 109.315 188.8ZM146.31 253.1C139.91 253.1 134.41 250.733 129.81 246C125.21 241.2 122.91 235.633 122.91 229.3C122.91 222.967 125.243 217.5 129.91 212.9C134.577 208.233 140.177 205.9 146.71 205.9C153.31 205.9 158.91 208.233 163.51 212.9C168.177 217.5 170.51 223 170.51 229.4C170.51 235.733 168.243 241.267 163.71 246C159.177 250.733 153.677 253.1 147.21 253.1H146.31ZM167.31 229.6C167.31 223.933 165.277 219.033 161.21 214.9C157.21 210.767 152.41 208.7 146.81 208.7C141.21 208.7 136.343 210.8 132.21 215C128.143 219.133 126.11 224 126.11 229.6C126.11 235.2 128.143 240.067 132.21 244.2C136.343 248.267 141.21 250.3 146.81 250.3C152.477 250.3 157.31 248.267 161.31 244.2C165.31 240.067 167.31 235.2 167.31 229.6ZM226.7 253.3H225.2C214.867 253.3 205.9 249.4 198.3 241.6C190.767 233.8 187 224.7 187 214.3C187 203.833 190.833 194.8 198.5 187.2C206.167 179.533 215.367 175.7 226.1 175.7C236.833 175.7 246 179.5 253.6 187.1C261.2 194.7 265 203.767 265 214.3C265 224.767 261.233 233.9 253.7 241.7C246.167 249.433 237.167 253.3 226.7 253.3ZM261.7 214.5C261.7 204.633 258.2 196.2 251.2 189.2C244.267 182.133 235.867 178.6 226 178.6C216.2 178.6 207.8 182.133 200.8 189.2C193.8 196.2 190.3 204.633 190.3 214.5C190.3 224.3 193.8 232.733 200.8 239.8C207.8 246.867 216.2 250.4 226 250.4C235.8 250.4 244.2 246.867 251.2 239.8C258.2 232.733 261.7 224.3 261.7 214.5ZM249.6 192V237H246.4V226.5C244.267 230.1 241.367 232.933 237.7 235C234.033 237.067 230.133 238.1 226 238.1C219.467 238.1 213.867 235.8 209.2 231.2C204.533 226.533 202.2 220.967 202.2 214.5C202.2 208.033 204.533 202.5 209.2 197.9C213.867 193.233 219.467 190.9 226 190.9C230.133 190.9 234.033 191.933 237.7 194C241.367 196.067 244.267 198.9 246.4 202.5V192H249.6ZM205.4 214.6C205.4 220.2 207.433 225.067 211.5 229.2C215.633 233.267 220.5 235.3 226.1 235.3C231.767 235.3 236.6 233.267 240.6 229.2C244.6 225.067 246.6 220.2 246.6 214.6C246.6 208.933 244.567 204.033 240.5 199.9C236.5 195.767 231.7 193.7 226.1 193.7C220.5 193.7 215.633 195.8 211.5 200C207.433 204.133 205.4 209 205.4 214.6ZM321.888 207H324.788L302.688 253.3L280.488 207H283.988L302.988 246.5L321.888 207ZM345.805 207.1V252H342.605V207.1H345.805ZM344.205 196.1C342.271 196.1 341.305 195.2 341.305 193.4C341.305 191.6 342.271 190.7 344.205 190.7C346.138 190.7 347.105 191.6 347.105 193.4C347.105 195.2 346.138 196.1 344.205 196.1ZM376.878 208.6C375.145 208.6 373.611 209.167 372.278 210.3C370.945 211.433 370.278 212.833 370.278 214.5C370.278 216.167 371.011 217.7 372.478 219.1C374.011 220.5 375.811 221.8 377.878 223C380.011 224.133 382.145 225.367 384.278 226.7C386.411 228.033 388.211 229.733 389.678 231.8C391.211 233.867 391.978 236.233 391.978 238.9C391.978 242.833 390.478 246.2 387.478 249C384.545 251.733 380.978 253.1 376.778 253.1C374.111 253.1 371.611 252.533 369.278 251.4C367.011 250.2 365.345 248.633 364.278 246.7V241.9C366.811 247.5 370.878 250.3 376.478 250.3C379.945 250.3 382.845 249.233 385.178 247.1C387.578 244.967 388.778 242.6 388.778 240C388.778 237.333 388.011 235.1 386.478 233.3C385.011 231.5 383.211 229.967 381.078 228.7C378.945 227.433 376.811 226.2 374.678 225C372.611 223.733 370.811 222.233 369.278 220.5C367.811 218.7 367.078 216.633 367.078 214.3C367.078 211.9 368.011 209.9 369.878 208.3C371.811 206.633 374.278 205.8 377.278 205.8C380.278 205.8 382.845 206.967 384.978 209.3V213.4C382.845 210.2 380.145 208.6 376.878 208.6ZM413.953 207.1V252H410.753V207.1H413.953ZM412.353 196.1C410.42 196.1 409.453 195.2 409.453 193.4C409.453 191.6 410.42 190.7 412.353 190.7C414.286 190.7 415.253 191.6 415.253 193.4C415.253 195.2 414.286 196.1 412.353 196.1ZM456.127 253.1C449.727 253.1 444.227 250.733 439.627 246C435.027 241.2 432.727 235.633 432.727 229.3C432.727 222.967 435.06 217.5 439.727 212.9C444.393 208.233 449.993 205.9 456.527 205.9C463.127 205.9 468.727 208.233 473.327 212.9C477.993 217.5 480.327 223 480.327 229.4C480.327 235.733 478.06 241.267 473.527 246C468.993 250.733 463.493 253.1 457.027 253.1H456.127ZM477.127 229.6C477.127 223.933 475.093 219.033 471.027 214.9C467.027 210.767 462.227 208.7 456.627 208.7C451.027 208.7 446.16 210.8 442.027 215C437.96 219.133 435.927 224 435.927 229.6C435.927 235.2 437.96 240.067 442.027 244.2C446.16 248.267 451.027 250.3 456.627 250.3C462.293 250.3 467.127 248.267 471.127 244.2C475.127 240.067 477.127 235.2 477.127 229.6ZM501.016 252H497.816V207H501.016V216.1C504.416 209.3 510.216 205.9 518.416 205.9C524.016 205.9 528.716 207.833 532.516 211.7C536.316 215.567 538.216 220.267 538.216 225.8V252H535.016V225.8C535.016 221.2 533.383 217.2 530.116 213.8C526.916 210.4 523.016 208.7 518.416 208.7C513.816 208.7 509.75 210.4 506.216 213.8C502.75 217.2 501.016 221.2 501.016 225.8V252ZM575.458 224.7L593.558 252H589.858L573.658 227.5L557.558 252H554.358L572.058 225L560.158 207H563.858L573.858 222.2L583.858 207H587.058L575.458 224.7ZM610.42 252.7C608.153 252.7 607.02 251.667 607.02 249.6C607.02 247.533 608.153 246.5 610.42 246.5C612.753 246.5 613.92 247.533 613.92 249.6C613.92 251.667 612.753 252.7 610.42 252.7ZM676.287 177V252H673.087V241.1C671.087 244.767 668.187 247.7 664.387 249.9C660.587 252.033 656.687 253.1 652.687 253.1C646.087 253.1 640.453 250.8 635.787 246.2C631.187 241.533 628.887 235.967 628.887 229.5C628.887 223.033 631.187 217.5 635.787 212.9C640.453 208.233 646.087 205.9 652.687 205.9C656.82 205.9 660.787 207 664.587 209.2C668.453 211.4 671.287 214.333 673.087 218V177H676.287ZM632.087 229.6C632.087 235.2 634.087 240.067 638.087 244.2C642.087 248.267 646.887 250.3 652.487 250.3C658.153 250.3 663.02 248.267 667.087 244.2C671.22 240.067 673.287 235.2 673.287 229.6C673.287 224 671.22 219.133 667.087 215C663.02 210.8 658.187 208.7 652.587 208.7C646.987 208.7 642.153 210.767 638.087 214.9C634.087 219.033 632.087 223.933 632.087 229.6ZM718.82 253.2H717.92C711.587 253.2 706.054 250.833 701.32 246.1C696.654 241.3 694.32 235.733 694.32 229.4C694.32 223.067 696.654 217.6 701.32 213C705.987 208.333 711.754 206 718.62 206C725.487 206 731.387 208.733 736.32 214.2L704.92 245.2C709.254 248.667 713.42 250.4 717.42 250.4C721.42 250.4 724.987 249.5 728.12 247.7C731.32 245.833 733.954 243.367 736.02 240.3V245.4C731.287 250.6 725.554 253.2 718.82 253.2ZM717.72 208.8C712.454 208.8 707.754 210.867 703.62 215C699.554 219.067 697.52 223.767 697.52 229.1C697.52 234.433 699.287 239.1 702.82 243.1L731.92 214.2C727.787 210.6 723.054 208.8 717.72 208.8ZM791.732 207H794.632L772.532 253.3L750.332 207H753.832L772.832 246.5L791.732 207Z" fill="#FF0000"/>
<path d="M10.5 207.1H11.5V206.1H10.5V207.1ZM10.5 252V253H11.5V252H10.5ZM7.3 252H6.3V253H7.3V252ZM7.3 207.1V206.1H6.3V207.1H7.3ZM9.5 207.1V252H11.5V207.1H9.5ZM10.5 251H7.3V253H10.5V251ZM8.3 252V207.1H6.3V252H8.3ZM7.3 208.1H10.5V206.1H7.3V208.1ZM8.9 195.1C8.07042 195.1 7.6345 194.905 7.40642 194.693C7.1918 194.493 7 194.127 7 193.4H5C5 194.473 5.29153 195.457 6.04358 196.157C6.78216 196.845 7.79624 197.1 8.9 197.1V195.1ZM7 193.4C7 192.673 7.1918 192.307 7.40642 192.107C7.6345 191.895 8.07042 191.7 8.9 191.7V189.7C7.79624 189.7 6.78216 189.955 6.04358 190.643C5.29153 191.343 5 192.327 5 193.4H7ZM8.9 191.7C9.72958 191.7 10.1655 191.895 10.3936 192.107C10.6082 192.307 10.8 192.673 10.8 193.4H12.8C12.8 192.327 12.5085 191.343 11.7564 190.643C11.0178 189.955 10.0038 189.7 8.9 189.7V191.7ZM10.8 193.4C10.8 194.127 10.6082 194.493 10.3936 194.693C10.1655 194.905 9.72958 195.1 8.9 195.1V197.1C10.0038 197.1 11.0178 196.845 11.7564 196.157C12.5085 195.457 12.8 194.473 12.8 193.4H10.8ZM34.9734 252V253H35.9734V252H34.9734ZM31.7734 252H30.7734V253H31.7734V252ZM31.7734 207V206H30.7734V207H31.7734ZM34.9734 207H35.9734V206H34.9734V207ZM34.9734 216.1H33.9734L35.8679 216.547L34.9734 216.1ZM66.4734 211.7L65.7602 212.401L65.7602 212.401L66.4734 211.7ZM72.1734 252V253H73.1734V252H72.1734ZM68.9734 252H67.9734V253H68.9734V252ZM64.0734 213.8L63.3452 214.485L63.3523 214.493L64.0734 213.8ZM40.1734 213.8L39.48 213.079L39.4732 213.086L40.1734 213.8ZM34.9734 251H31.7734V253H34.9734V251ZM32.7734 252V207H30.7734V252H32.7734ZM31.7734 208H34.9734V206H31.7734V208ZM33.9734 207V216.1H35.9734V207H33.9734ZM35.8679 216.547C37.4929 213.297 39.6674 210.902 42.3792 209.313C45.0954 207.72 48.4123 206.9 52.3734 206.9V204.9C48.1346 204.9 44.4515 205.78 41.3677 207.587C38.2795 209.398 35.8539 212.103 34.079 215.653L35.8679 216.547ZM52.3734 206.9C57.7151 206.9 62.1551 208.733 65.7602 212.401L67.1867 210.999C63.1918 206.934 58.2318 204.9 52.3734 204.9V206.9ZM65.7602 212.401C69.3722 216.076 71.1734 220.523 71.1734 225.8H73.1734C73.1734 220.011 71.1747 215.057 67.1867 210.999L65.7602 212.401ZM71.1734 225.8V252H73.1734V225.8H71.1734ZM72.1734 251H68.9734V253H72.1734V251ZM69.9734 252V225.8H67.9734V252H69.9734ZM69.9734 225.8C69.9734 220.935 68.2352 216.688 64.7945 213.107L63.3523 214.493C66.445 217.712 67.9734 221.465 67.9734 225.8H69.9734ZM64.8016 213.115C61.4159 209.517 57.2538 207.7 52.3734 207.7V209.7C56.6931 209.7 60.331 211.283 63.3452 214.485L64.8016 213.115ZM52.3734 207.7C47.4967 207.7 43.1862 209.513 39.4801 213.079L40.8668 214.521C44.2274 211.287 48.0502 209.7 52.3734 209.7V207.7ZM39.4732 213.086C35.8267 216.662 33.9734 220.915 33.9734 225.8H35.9734C35.9734 221.485 37.5869 217.738 40.8736 214.514L39.4732 213.086ZM33.9734 225.8V252H35.9734V225.8H33.9734ZM109.315 188.8H110.315V187.8H109.315V188.8ZM109.315 191.6V192.6H110.315V191.6H109.315ZM99.4148 195.6L98.7165 194.884L98.7077 194.893L99.4148 195.6ZM95.4148 232H94.4148V233H95.4148V232ZM109.415 232H110.415V231H109.415V232ZM109.415 234.8V235.8H110.415V234.8H109.415ZM95.4148 234.8V233.8H94.4148V234.8H95.4148ZM95.4148 252V253H96.4148V252H95.4148ZM92.2148 252H91.2148V253H92.2148V252ZM97.2148 193.6L97.8998 194.329L97.9074 194.321L97.2148 193.6ZM108.315 188.8V191.6H110.315V188.8H108.315ZM109.315 190.6C105.191 190.6 101.639 192.033 98.7165 194.884L100.113 196.316C102.657 193.834 105.705 192.6 109.315 192.6V190.6ZM98.7077 194.893C95.8379 197.763 94.4148 201.391 94.4148 205.7H96.4148C96.4148 201.876 97.6585 198.771 100.122 196.307L98.7077 194.893ZM94.4148 205.7V232H96.4148V205.7H94.4148ZM95.4148 233H109.415V231H95.4148V233ZM108.415 232V234.8H110.415V232H108.415ZM109.415 233.8H95.4148V235.8H109.415V233.8ZM94.4148 234.8V252H96.4148V234.8H94.4148ZM95.4148 251H92.2148V253H95.4148V251ZM93.2148 252V205.7H91.2148V252H93.2148ZM93.2148 205.7C93.2148 201.018 94.7844 197.257 97.8998 194.329L96.5299 192.871C92.9786 196.21 91.2148 200.515 91.2148 205.7H93.2148ZM97.9074 194.321C101.049 191.305 104.833 189.8 109.315 189.8V187.8C104.33 187.8 100.047 189.495 96.5223 192.879L97.9074 194.321ZM129.81 246L129.088 246.692L129.093 246.697L129.81 246ZM129.91 212.9L130.612 213.612L130.617 213.607L129.91 212.9ZM163.51 212.9L162.798 213.602L162.803 213.607L162.808 213.612L163.51 212.9ZM163.71 246L162.988 245.308L162.988 245.308L163.71 246ZM161.21 214.9L160.492 215.595L160.497 215.601L161.21 214.9ZM132.21 215L131.497 214.299L131.497 214.299L132.21 215ZM132.21 244.2L131.497 244.901L131.503 244.907L131.509 244.913L132.21 244.2ZM161.31 244.2L162.023 244.901L162.029 244.895L161.31 244.2ZM146.31 252.1C140.19 252.1 134.946 249.849 130.527 245.303L129.093 246.697C133.875 251.617 139.631 254.1 146.31 254.1V252.1ZM130.532 245.308C126.101 240.684 123.91 235.362 123.91 229.3H121.91C121.91 235.905 124.32 241.716 129.088 246.692L130.532 245.308ZM123.91 229.3C123.91 223.245 126.129 218.032 130.612 213.612L129.208 212.188C124.358 216.968 121.91 222.689 121.91 229.3H123.91ZM130.617 213.607C135.099 209.126 140.445 206.9 146.71 206.9V204.9C139.909 204.9 134.055 207.341 129.203 212.193L130.617 213.607ZM146.71 206.9C153.045 206.9 158.387 209.128 162.798 213.602L164.222 212.198C159.433 207.339 153.576 204.9 146.71 204.9V206.9ZM162.808 213.612C167.289 218.029 169.51 223.275 169.51 229.4H171.51C171.51 222.725 169.064 216.971 164.212 212.188L162.808 213.612ZM169.51 229.4C169.51 235.466 167.35 240.754 162.988 245.308L164.432 246.692C169.137 241.779 171.51 236.001 171.51 229.4H169.51ZM162.988 245.308C158.64 249.848 153.4 252.1 147.21 252.1V254.1C153.954 254.1 159.713 251.619 164.432 246.692L162.988 245.308ZM147.21 252.1H146.31V254.1H147.21V252.1ZM168.31 229.6C168.31 223.664 166.169 218.514 161.923 214.199L160.497 215.601C164.385 219.552 166.31 224.202 166.31 229.6H168.31ZM161.929 214.205C157.746 209.883 152.689 207.7 146.81 207.7V209.7C152.131 209.7 156.674 211.651 160.492 215.595L161.929 214.205ZM146.81 207.7C140.927 207.7 135.808 209.919 131.497 214.299L132.923 215.701C136.879 211.681 141.493 209.7 146.81 209.7V207.7ZM131.497 214.299C127.254 218.612 125.11 223.727 125.11 229.6H127.11C127.11 224.273 129.033 219.655 132.923 215.701L131.497 214.299ZM125.11 229.6C125.11 235.473 127.254 240.588 131.497 244.901L132.923 243.499C129.033 239.545 127.11 234.927 127.11 229.6H125.11ZM131.509 244.913C135.822 249.156 140.938 251.3 146.81 251.3V249.3C141.483 249.3 136.865 247.377 132.911 243.487L131.509 244.913ZM146.81 251.3C152.747 251.3 157.837 249.158 162.023 244.901L160.597 243.499C156.784 247.376 152.207 249.3 146.81 249.3V251.3ZM162.029 244.895C166.204 240.581 168.31 235.467 168.31 229.6H166.31C166.31 234.933 164.417 239.552 160.592 243.505L162.029 244.895ZM198.3 241.6L197.581 242.295L197.584 242.298L198.3 241.6ZM198.5 187.2L199.204 187.91L199.207 187.907L198.5 187.2ZM253.7 241.7L254.416 242.398L254.419 242.395L253.7 241.7ZM251.2 189.2L250.486 189.9L250.493 189.907L251.2 189.2ZM200.8 189.2L201.507 189.907L201.51 189.904L200.8 189.2ZM200.8 239.8L201.51 239.096L200.8 239.8ZM251.2 239.8L250.49 239.096L251.2 239.8ZM249.6 192H250.6V191H249.6V192ZM249.6 237V238H250.6V237H249.6ZM246.4 237H245.4V238H246.4V237ZM246.4 226.5H247.4V222.851L245.54 225.99L246.4 226.5ZM237.7 235L238.191 235.871L238.191 235.871L237.7 235ZM209.2 231.2L208.493 231.907L208.498 231.912L209.2 231.2ZM209.2 197.9L209.902 198.612L209.907 198.607L209.2 197.9ZM237.7 194L238.191 193.129L238.191 193.129L237.7 194ZM246.4 202.5L245.54 203.01L247.4 206.149V202.5H246.4ZM246.4 192V191H245.4V192H246.4ZM211.5 229.2L210.787 229.901L210.793 229.907L210.799 229.913L211.5 229.2ZM240.6 229.2L241.313 229.901L241.319 229.895L240.6 229.2ZM240.5 199.9L239.781 200.595L239.787 200.601L240.5 199.9ZM211.5 200L210.787 199.299L210.787 199.299L211.5 200ZM226.7 252.3H225.2V254.3H226.7V252.3ZM225.2 252.3C215.152 252.3 206.439 248.521 199.016 240.902L197.584 242.298C205.361 250.279 214.581 254.3 225.2 254.3V252.3ZM199.019 240.905C191.658 233.283 188 224.429 188 214.3H186C186 224.971 189.876 234.317 197.581 242.295L199.019 240.905ZM188 214.3C188 204.109 191.72 195.329 199.204 187.91L197.796 186.49C189.947 194.271 186 203.557 186 214.3H188ZM199.207 187.907C206.688 180.426 215.635 176.7 226.1 176.7V174.7C215.098 174.7 205.645 178.641 197.793 186.493L199.207 187.907ZM226.1 176.7C236.568 176.7 245.48 180.394 252.893 187.807L254.307 186.393C246.52 178.606 237.099 174.7 226.1 174.7V176.7ZM252.893 187.807C260.31 195.224 264 204.038 264 214.3H266C266 203.495 262.09 194.176 254.307 186.393L252.893 187.807ZM264 214.3C264 224.497 260.341 233.384 252.981 241.005L254.419 242.395C262.125 234.416 266 225.036 266 214.3H264ZM252.984 241.002C245.632 248.549 236.888 252.3 226.7 252.3V254.3C237.446 254.3 246.701 250.318 254.416 242.398L252.984 241.002ZM262.7 214.5C262.7 204.367 259.094 195.68 251.907 188.493L250.493 189.907C257.306 196.72 260.7 204.9 260.7 214.5H262.7ZM251.914 188.5C244.793 181.242 236.136 177.6 226 177.6V179.6C235.597 179.6 243.74 183.025 250.486 189.9L251.914 188.5ZM226 177.6C215.929 177.6 207.274 181.243 200.09 188.496L201.51 189.904C208.326 183.023 216.471 179.6 226 179.6V177.6ZM200.093 188.493C192.906 195.68 189.3 204.367 189.3 214.5H191.3C191.3 204.9 194.694 196.72 201.507 189.907L200.093 188.493ZM189.3 214.5C189.3 224.568 192.907 233.253 200.09 240.504L201.51 239.096C194.693 232.214 191.3 224.032 191.3 214.5H189.3ZM200.09 240.504C207.274 247.757 215.929 251.4 226 251.4V249.4C216.471 249.4 208.326 245.977 201.51 239.096L200.09 240.504ZM226 251.4C236.071 251.4 244.726 247.757 251.91 240.504L250.49 239.096C243.674 245.977 235.529 249.4 226 249.4V251.4ZM251.91 240.504C259.093 233.253 262.7 224.568 262.7 214.5H260.7C260.7 224.032 257.307 232.214 250.49 239.096L251.91 240.504ZM248.6 192V237H250.6V192H248.6ZM249.6 236H246.4V238H249.6V236ZM247.4 237V226.5H245.4V237H247.4ZM245.54 225.99C243.496 229.439 240.724 232.148 237.209 234.129L238.191 235.871C242.009 233.719 245.037 230.761 247.26 227.01L245.54 225.99ZM237.209 234.129C233.689 236.113 229.958 237.1 226 237.1V239.1C230.309 239.1 234.377 238.021 238.191 235.871L237.209 234.129ZM226 237.1C219.73 237.1 214.382 234.904 209.902 230.488L208.498 231.912C213.351 236.696 219.203 239.1 226 239.1V237.1ZM209.907 230.493C205.424 226.009 203.2 220.695 203.2 214.5H201.2C201.2 221.238 203.643 227.057 208.493 231.907L209.907 230.493ZM203.2 214.5C203.2 208.305 205.423 203.027 209.902 198.612L208.498 197.188C203.644 201.973 201.2 207.762 201.2 214.5H203.2ZM209.907 198.607C214.388 194.126 219.735 191.9 226 191.9V189.9C219.198 189.9 213.345 192.341 208.493 197.193L209.907 198.607ZM226 191.9C229.958 191.9 233.689 192.887 237.209 194.871L238.191 193.129C234.377 190.979 230.309 189.9 226 189.9V191.9ZM237.209 194.871C240.724 196.852 243.496 199.561 245.54 203.01L247.26 201.99C245.037 198.239 242.009 195.281 238.191 193.129L237.209 194.871ZM247.4 202.5V192H245.4V202.5H247.4ZM246.4 193H249.6V191H246.4V193ZM204.4 214.6C204.4 220.473 206.544 225.588 210.787 229.901L212.213 228.499C208.323 224.545 206.4 219.927 206.4 214.6H204.4ZM210.799 229.913C215.112 234.156 220.227 236.3 226.1 236.3V234.3C220.773 234.3 216.155 232.377 212.201 228.487L210.799 229.913ZM226.1 236.3C232.037 236.3 237.126 234.158 241.313 229.901L239.887 228.499C236.074 232.376 231.497 234.3 226.1 234.3V236.3ZM241.319 229.895C245.494 225.581 247.6 220.467 247.6 214.6H245.6C245.6 219.933 243.706 224.552 239.881 228.505L241.319 229.895ZM247.6 214.6C247.6 208.664 245.459 203.514 241.213 199.199L239.787 200.601C243.675 204.552 245.6 209.202 245.6 214.6H247.6ZM241.219 199.205C237.036 194.883 231.979 192.7 226.1 192.7V194.7C231.421 194.7 235.964 196.651 239.781 200.595L241.219 199.205ZM226.1 192.7C220.217 192.7 215.098 194.919 210.787 199.299L212.213 200.701C216.169 196.681 220.783 194.7 226.1 194.7V192.7ZM210.787 199.299C206.544 203.612 204.4 208.727 204.4 214.6H206.4C206.4 209.273 208.323 204.655 212.213 200.701L210.787 199.299ZM321.888 207V206H321.258L320.986 206.568L321.888 207ZM324.788 207L325.691 207.431L326.374 206H324.788V207ZM302.688 253.3L301.787 253.732L302.69 255.617L303.591 253.731L302.688 253.3ZM280.488 207V206H278.9L279.587 207.432L280.488 207ZM283.988 207L284.889 206.567L284.617 206H283.988V207ZM302.988 246.5L302.087 246.933L302.991 248.812L303.89 246.932L302.988 246.5ZM321.888 208H324.788V206H321.888V208ZM323.886 206.569L301.786 252.869L303.591 253.731L325.691 207.431L323.886 206.569ZM303.59 252.868L281.39 206.568L279.587 207.432L301.787 253.732L303.59 252.868ZM280.488 208H283.988V206H280.488V208ZM283.087 207.433L302.087 246.933L303.889 246.067L284.889 206.567L283.087 207.433ZM303.89 246.932L322.79 207.432L320.986 206.568L302.086 246.068L303.89 246.932ZM345.805 207.1H346.805V206.1H345.805V207.1ZM345.805 252V253H346.805V252H345.805ZM342.605 252H341.605V253H342.605V252ZM342.605 207.1V206.1H341.605V207.1H342.605ZM344.805 207.1V252H346.805V207.1H344.805ZM345.805 251H342.605V253H345.805V251ZM343.605 252V207.1H341.605V252H343.605ZM342.605 208.1H345.805V206.1H342.605V208.1ZM344.205 195.1C343.375 195.1 342.939 194.905 342.711 194.693C342.496 194.493 342.305 194.127 342.305 193.4H340.305C340.305 194.473 340.596 195.457 341.348 196.157C342.087 196.845 343.101 197.1 344.205 197.1V195.1ZM342.305 193.4C342.305 192.673 342.496 192.307 342.711 192.107C342.939 191.895 343.375 191.7 344.205 191.7V189.7C343.101 189.7 342.087 189.955 341.348 190.643C340.596 191.343 340.305 192.327 340.305 193.4H342.305ZM344.205 191.7C345.034 191.7 345.47 191.895 345.698 192.107C345.913 192.307 346.105 192.673 346.105 193.4H348.105C348.105 192.327 347.813 191.343 347.061 190.643C346.323 189.955 345.308 189.7 344.205 189.7V191.7ZM346.105 193.4C346.105 194.127 345.913 194.493 345.698 194.693C345.47 194.905 345.034 195.1 344.205 195.1V197.1C345.308 197.1 346.323 196.845 347.061 196.157C347.813 195.457 348.105 194.473 348.105 193.4H346.105ZM372.278 210.3L371.63 209.538L371.63 209.538L372.278 210.3ZM372.478 219.1L371.788 219.823L371.796 219.831L371.804 219.838L372.478 219.1ZM377.878 223L377.376 223.865L377.392 223.874L377.409 223.883L377.878 223ZM384.278 226.7L384.808 225.852L384.808 225.852L384.278 226.7ZM389.678 231.8L388.863 232.379L388.869 232.387L388.875 232.396L389.678 231.8ZM387.478 249L388.16 249.732L388.16 249.731L387.478 249ZM369.278 251.4L368.81 252.284L368.826 252.292L368.841 252.3L369.278 251.4ZM364.278 246.7H363.278V246.958L363.403 247.183L364.278 246.7ZM364.278 241.9L365.189 241.488L363.278 241.9H364.278ZM385.178 247.1L384.514 246.353L384.503 246.362L385.178 247.1ZM386.478 233.3L385.703 233.932L385.71 233.94L385.717 233.948L386.478 233.3ZM381.078 228.7L380.568 229.56L380.568 229.56L381.078 228.7ZM374.678 225L374.156 225.853L374.172 225.862L374.188 225.872L374.678 225ZM369.278 220.5L368.503 221.132L368.516 221.147L368.529 221.163L369.278 220.5ZM369.878 208.3L370.529 209.059L370.531 209.057L369.878 208.3ZM384.978 209.3H385.978V208.912L385.716 208.625L384.978 209.3ZM384.978 213.4L384.146 213.955L385.978 216.703V213.4H384.978ZM376.878 207.6C374.905 207.6 373.143 208.253 371.63 209.538L372.926 211.062C374.08 210.081 375.385 209.6 376.878 209.6V207.6ZM371.63 209.538C370.086 210.851 369.278 212.524 369.278 214.5H371.278C371.278 213.143 371.803 212.016 372.926 211.062L371.63 209.538ZM369.278 214.5C369.278 216.498 370.169 218.279 371.788 219.823L373.169 218.377C371.854 217.121 371.278 215.836 371.278 214.5H369.278ZM371.804 219.838C373.397 221.293 375.257 222.634 377.376 223.865L378.38 222.135C376.366 220.966 374.626 219.707 373.152 218.362L371.804 219.838ZM377.409 223.883C379.521 225.005 381.634 226.227 383.748 227.548L384.808 225.852C382.656 224.507 380.502 223.262 378.347 222.117L377.409 223.883ZM383.748 227.548C385.769 228.811 387.472 230.419 388.863 232.379L390.494 231.221C388.951 229.048 387.054 227.256 384.808 225.852L383.748 227.548ZM388.875 232.396C390.276 234.284 390.978 236.44 390.978 238.9H392.978C392.978 236.027 392.147 233.45 390.481 231.204L388.875 232.396ZM390.978 238.9C390.978 242.543 389.603 245.649 386.796 248.269L388.16 249.731C391.353 246.751 392.978 243.124 392.978 238.9H390.978ZM386.796 248.268C384.058 250.82 380.738 252.1 376.778 252.1V254.1C381.218 254.1 385.032 252.646 388.16 249.732L386.796 248.268ZM376.778 252.1C374.258 252.1 371.908 251.566 369.715 250.5L368.841 252.3C371.315 253.501 373.964 254.1 376.778 254.1V252.1ZM369.746 250.516C367.623 249.392 366.112 247.954 365.154 246.217L363.403 247.183C364.578 249.313 366.4 251.008 368.81 252.284L369.746 250.516ZM365.278 246.7V241.9H363.278V246.7H365.278ZM363.367 242.312C364.69 245.238 366.445 247.498 368.661 249.024C370.883 250.553 373.504 251.3 376.478 251.3V249.3C373.852 249.3 371.64 248.647 369.795 247.376C367.945 246.102 366.399 244.162 365.189 241.488L363.367 242.312ZM376.478 251.3C380.168 251.3 383.317 250.157 385.853 247.838L384.503 246.362C382.373 248.31 379.721 249.3 376.478 249.3V251.3ZM385.842 247.847C388.402 245.573 389.778 242.951 389.778 240H387.778C387.778 242.249 386.755 244.361 384.514 246.353L385.842 247.847ZM389.778 240C389.778 237.128 388.947 234.656 387.239 232.652L385.717 233.948C387.076 235.544 387.778 237.539 387.778 240H389.778ZM387.253 232.668C385.708 230.771 383.816 229.163 381.589 227.84L380.568 229.56C382.607 230.771 384.315 232.229 385.703 233.932L387.253 232.668ZM381.589 227.84C379.449 226.57 377.309 225.332 375.168 224.128L374.188 225.872C376.314 227.068 378.441 228.297 380.568 229.56L381.589 227.84ZM375.201 224.147C373.214 222.93 371.492 221.493 370.027 219.837L368.529 221.163C370.131 222.974 372.008 224.537 374.156 225.853L375.201 224.147ZM370.053 219.868C368.733 218.248 368.078 216.404 368.078 214.3H366.078C366.078 216.862 366.89 219.152 368.503 221.132L370.053 219.868ZM368.078 214.3C368.078 212.2 368.878 210.475 370.529 209.059L369.227 207.541C367.145 209.325 366.078 211.6 366.078 214.3H368.078ZM370.531 209.057C372.252 207.574 374.474 206.8 377.278 206.8V204.8C374.083 204.8 371.371 205.693 369.225 207.543L370.531 209.057ZM377.278 206.8C379.981 206.8 382.285 207.836 384.24 209.975L385.716 208.625C383.405 206.097 380.575 204.8 377.278 204.8V206.8ZM383.978 209.3V213.4H385.978V209.3H383.978ZM385.81 212.845C383.529 209.424 380.542 207.6 376.878 207.6V209.6C379.747 209.6 382.16 210.976 384.146 213.955L385.81 212.845ZM413.953 207.1H414.953V206.1H413.953V207.1ZM413.953 252V253H414.953V252H413.953ZM410.753 252H409.753V253H410.753V252ZM410.753 207.1V206.1H409.753V207.1H410.753ZM412.953 207.1V252H414.953V207.1H412.953ZM413.953 251H410.753V253H413.953V251ZM411.753 252V207.1H409.753V252H411.753ZM410.753 208.1H413.953V206.1H410.753V208.1ZM412.353 195.1C411.524 195.1 411.088 194.905 410.86 194.693C410.645 194.493 410.453 194.127 410.453 193.4H408.453C408.453 194.473 408.745 195.457 409.497 196.157C410.235 196.845 411.249 197.1 412.353 197.1V195.1ZM410.453 193.4C410.453 192.673 410.645 192.307 410.86 192.107C411.088 191.895 411.524 191.7 412.353 191.7V189.7C411.249 189.7 410.235 189.955 409.497 190.643C408.745 191.343 408.453 192.327 408.453 193.4H410.453ZM412.353 191.7C413.183 191.7 413.619 191.895 413.847 192.107C414.061 192.307 414.253 192.673 414.253 193.4H416.253C416.253 192.327 415.962 191.343 415.21 190.643C414.471 189.955 413.457 189.7 412.353 189.7V191.7ZM414.253 193.4C414.253 194.127 414.061 194.493 413.847 194.693C413.619 194.905 413.183 195.1 412.353 195.1V197.1C413.457 197.1 414.471 196.845 415.21 196.157C415.962 195.457 416.253 194.473 416.253 193.4H414.253ZM439.627 246L438.905 246.692L438.909 246.697L439.627 246ZM439.727 212.9L440.429 213.612L440.434 213.607L439.727 212.9ZM473.327 212.9L472.614 213.602L472.619 213.607L472.625 213.612L473.327 212.9ZM473.527 246L472.804 245.308L472.804 245.308L473.527 246ZM471.027 214.9L470.308 215.595L470.314 215.601L471.027 214.9ZM442.027 215L441.314 214.299L441.314 214.299L442.027 215ZM442.027 244.2L441.314 244.901L441.319 244.907L441.325 244.913L442.027 244.2ZM471.127 244.2L471.84 244.901L471.845 244.895L471.127 244.2ZM456.127 252.1C450.006 252.1 444.762 249.849 440.344 245.303L438.909 246.697C443.691 251.617 449.447 254.1 456.127 254.1V252.1ZM440.349 245.308C435.917 240.684 433.727 235.362 433.727 229.3H431.727C431.727 235.905 434.136 241.716 438.905 246.692L440.349 245.308ZM433.727 229.3C433.727 223.245 435.945 218.032 440.429 213.612L439.025 212.188C434.175 216.968 431.727 222.689 431.727 229.3H433.727ZM440.434 213.607C444.915 209.126 450.261 206.9 456.527 206.9V204.9C449.725 204.9 443.872 207.341 439.019 212.193L440.434 213.607ZM456.527 206.9C462.861 206.9 468.204 209.128 472.614 213.602L474.039 212.198C469.249 207.339 463.392 204.9 456.527 204.9V206.9ZM472.625 213.612C477.106 218.029 479.327 223.275 479.327 229.4H481.327C481.327 222.725 478.881 216.971 474.029 212.188L472.625 213.612ZM479.327 229.4C479.327 235.466 477.166 240.754 472.804 245.308L474.249 246.692C478.953 241.779 481.327 236.001 481.327 229.4H479.327ZM472.804 245.308C468.457 249.848 463.216 252.1 457.027 252.1V254.1C463.77 254.1 469.53 251.619 474.249 246.692L472.804 245.308ZM457.027 252.1H456.127V254.1H457.027V252.1ZM478.127 229.6C478.127 223.664 475.985 218.514 471.739 214.199L470.314 215.601C474.201 219.552 476.127 224.202 476.127 229.6H478.127ZM471.745 214.205C467.563 209.883 462.506 207.7 456.627 207.7V209.7C461.948 209.7 466.491 211.651 470.308 215.595L471.745 214.205ZM456.627 207.7C450.743 207.7 445.624 209.919 441.314 214.299L442.739 215.701C446.696 211.681 451.31 209.7 456.627 209.7V207.7ZM441.314 214.299C437.07 218.612 434.927 223.727 434.927 229.6H436.927C436.927 224.273 438.849 219.655 442.739 215.701L441.314 214.299ZM434.927 229.6C434.927 235.473 437.07 240.588 441.314 244.901L442.739 243.499C438.849 239.545 436.927 234.927 436.927 229.6H434.927ZM441.325 244.913C445.638 249.156 450.754 251.3 456.627 251.3V249.3C451.299 249.3 446.682 247.377 442.728 243.487L441.325 244.913ZM456.627 251.3C462.563 251.3 467.653 249.158 471.839 244.901L470.414 243.499C466.6 247.376 462.023 249.3 456.627 249.3V251.3ZM471.845 244.895C476.02 240.581 478.127 235.467 478.127 229.6H476.127C476.127 234.933 474.233 239.552 470.408 243.505L471.845 244.895ZM501.016 252V253H502.016V252H501.016ZM497.816 252H496.816V253H497.816V252ZM497.816 207V206H496.816V207H497.816ZM501.016 207H502.016V206H501.016V207ZM501.016 216.1H500.016L501.911 216.547L501.016 216.1ZM532.516 211.7L531.803 212.401L531.803 212.401L532.516 211.7ZM538.216 252V253H539.216V252H538.216ZM535.016 252H534.016V253H535.016V252ZM530.116 213.8L529.388 214.485L529.395 214.493L530.116 213.8ZM506.216 213.8L505.523 213.079L505.516 213.086L506.216 213.8ZM501.016 251H497.816V253H501.016V251ZM498.816 252V207H496.816V252H498.816ZM497.816 208H501.016V206H497.816V208ZM500.016 207V216.1H502.016V207H500.016ZM501.911 216.547C503.536 213.297 505.71 210.902 508.422 209.313C511.138 207.72 514.455 206.9 518.416 206.9V204.9C514.178 204.9 510.494 205.78 507.411 207.587C504.322 209.398 501.897 212.103 500.122 215.653L501.911 216.547ZM518.416 206.9C523.758 206.9 528.198 208.733 531.803 212.401L533.23 210.999C529.235 206.934 524.275 204.9 518.416 204.9V206.9ZM531.803 212.401C535.415 216.076 537.216 220.523 537.216 225.8H539.216C539.216 220.011 537.218 215.057 533.23 210.999L531.803 212.401ZM537.216 225.8V252H539.216V225.8H537.216ZM538.216 251H535.016V253H538.216V251ZM536.016 252V225.8H534.016V252H536.016ZM536.016 225.8C536.016 220.935 534.278 216.688 530.838 213.107L529.395 214.493C532.488 217.712 534.016 221.465 534.016 225.8H536.016ZM530.845 213.115C527.459 209.517 523.297 207.7 518.416 207.7V209.7C522.736 209.7 526.374 211.283 529.388 214.485L530.845 213.115ZM518.416 207.7C513.54 207.7 509.229 209.513 505.523 213.079L506.91 214.521C510.27 211.287 514.093 209.7 518.416 209.7V207.7ZM505.516 213.086C501.87 216.662 500.016 220.915 500.016 225.8H502.016C502.016 221.485 503.63 217.738 506.917 214.514L505.516 213.086ZM500.016 225.8V252H502.016V225.8H500.016ZM575.458 224.7L574.621 224.152L574.26 224.703L574.624 225.253L575.458 224.7ZM593.558 252V253H595.421L594.391 251.447L593.558 252ZM589.858 252L589.024 252.552L589.32 253H589.858V252ZM573.658 227.5L574.492 226.948L573.655 225.683L572.822 226.951L573.658 227.5ZM557.558 252V253H558.097L558.394 252.549L557.558 252ZM554.358 252L553.521 251.452L552.507 253H554.358V252ZM572.058 225L572.894 225.548L573.255 224.998L572.892 224.449L572.058 225ZM560.158 207V206H558.298L559.324 207.551L560.158 207ZM563.858 207L564.693 206.45L564.397 206H563.858V207ZM573.858 222.2L573.022 222.75L573.858 224.019L574.693 222.75L573.858 222.2ZM583.858 207V206H583.319L583.022 206.45L583.858 207ZM587.058 207L587.894 207.548L588.909 206H587.058V207ZM574.624 225.253L592.724 252.553L594.391 251.447L576.291 224.147L574.624 225.253ZM593.558 251H589.858V253H593.558V251ZM590.692 251.448L574.492 226.948L572.824 228.052L589.024 252.552L590.692 251.448ZM572.822 226.951L556.722 251.451L558.394 252.549L574.494 228.049L572.822 226.951ZM557.558 251H554.358V253H557.558V251ZM555.194 252.548L572.894 225.548L571.221 224.452L553.521 251.452L555.194 252.548ZM572.892 224.449L560.992 206.449L559.324 207.551L571.224 225.551L572.892 224.449ZM560.158 208H563.858V206H560.158V208ZM563.022 207.55L573.022 222.75L574.693 221.65L564.693 206.45L563.022 207.55ZM574.693 222.75L584.693 207.55L583.022 206.45L573.022 221.65L574.693 222.75ZM583.858 208H587.058V206H583.858V208ZM586.221 206.452L574.621 224.152L576.294 225.248L587.894 207.548L586.221 206.452ZM610.42 251.7C609.419 251.7 608.855 251.47 608.543 251.186C608.249 250.918 608.02 250.454 608.02 249.6H606.02C606.02 250.812 606.356 251.898 607.196 252.664C608.018 253.413 609.154 253.7 610.42 253.7V251.7ZM608.02 249.6C608.02 248.746 608.249 248.282 608.543 248.014C608.855 247.73 609.419 247.5 610.42 247.5V245.5C609.154 245.5 608.018 245.787 607.196 246.536C606.356 247.302 606.02 248.388 606.02 249.6H608.02ZM610.42 247.5C611.46 247.5 612.053 247.733 612.381 248.024C612.686 248.294 612.92 248.754 612.92 249.6H614.92C614.92 248.379 614.569 247.29 613.708 246.526C612.869 245.784 611.712 245.5 610.42 245.5V247.5ZM612.92 249.6C612.92 250.446 612.686 250.906 612.381 251.176C612.053 251.467 611.46 251.7 610.42 251.7V253.7C611.712 253.7 612.869 253.416 613.708 252.674C614.569 251.91 614.92 250.821 614.92 249.6H612.92ZM676.287 177H677.287V176H676.287V177ZM676.287 252V253H677.287V252H676.287ZM673.087 252H672.087V253H673.087V252ZM673.087 241.1H674.087L672.209 240.621L673.087 241.1ZM664.387 249.9L664.876 250.772L664.888 250.765L664.387 249.9ZM635.787 246.2L635.075 246.902L635.08 246.907L635.085 246.912L635.787 246.2ZM635.787 212.9L635.08 212.193L635.08 212.193L635.787 212.9ZM664.587 209.2L664.086 210.065L664.092 210.069L664.587 209.2ZM673.087 218L672.189 218.441L674.087 218H673.087ZM673.087 177V176H672.087V177H673.087ZM638.087 244.2L637.368 244.895L637.374 244.901L638.087 244.2ZM667.087 244.2L667.794 244.907L667.794 244.907L667.087 244.2ZM667.087 215L666.368 215.696L666.374 215.701L666.38 215.707L667.087 215ZM638.087 214.9L637.374 214.199L637.368 214.205L638.087 214.9ZM675.287 177V252H677.287V177H675.287ZM676.287 251H673.087V253H676.287V251ZM674.087 252V241.1H672.087V252H674.087ZM672.209 240.621C670.301 244.118 667.536 246.922 663.886 249.035L664.888 250.765C668.838 248.478 671.872 245.415 673.965 241.579L672.209 240.621ZM663.897 249.028C660.233 251.085 656.5 252.1 652.687 252.1V254.1C656.873 254.1 660.94 252.982 664.876 250.772L663.897 249.028ZM652.687 252.1C646.347 252.1 640.967 249.902 636.489 245.488L635.085 246.912C639.94 251.698 645.826 254.1 652.687 254.1V252.1ZM636.499 245.498C632.081 241.016 629.887 235.7 629.887 229.5H627.887C627.887 236.233 630.293 242.051 635.075 246.902L636.499 245.498ZM629.887 229.5C629.887 223.3 632.08 218.021 636.494 213.607L635.08 212.193C630.293 216.979 627.887 222.766 627.887 229.5H629.887ZM636.494 213.607C640.973 209.128 646.352 206.9 652.687 206.9V204.9C645.822 204.9 639.934 207.339 635.08 212.193L636.494 213.607ZM652.687 206.9C656.633 206.9 660.428 207.948 664.086 210.065L665.088 208.335C661.145 206.052 657.007 204.9 652.687 204.9V206.9ZM664.092 210.069C667.801 212.179 670.485 214.97 672.189 218.441L673.984 217.559C672.088 213.697 669.106 210.621 665.081 208.331L664.092 210.069ZM674.087 218V177H672.087V218H674.087ZM673.087 178H676.287V176H673.087V178ZM631.087 229.6C631.087 235.467 633.193 240.581 637.368 244.895L638.805 243.505C634.98 239.552 633.087 234.933 633.087 229.6H631.087ZM637.374 244.901C641.558 249.155 646.613 251.3 652.487 251.3V249.3C647.16 249.3 642.616 247.378 638.8 243.499L637.374 244.901ZM652.487 251.3C658.423 251.3 663.543 249.158 667.794 244.907L666.38 243.493C662.497 247.375 657.884 249.3 652.487 249.3V251.3ZM667.794 244.907C672.106 240.595 674.287 235.478 674.287 229.6H672.287C672.287 234.922 670.335 239.538 666.38 243.493L667.794 244.907ZM674.287 229.6C674.287 223.722 672.106 218.605 667.794 214.293L666.38 215.707C670.335 219.662 672.287 224.278 672.287 229.6H674.287ZM667.805 214.304C663.559 209.919 658.471 207.7 652.587 207.7V209.7C657.903 209.7 662.481 211.681 666.368 215.696L667.805 214.304ZM652.587 207.7C646.708 207.7 641.621 209.882 637.374 214.199L638.8 215.601C642.686 211.651 647.265 209.7 652.587 209.7V207.7ZM637.368 214.205C633.191 218.521 631.087 223.669 631.087 229.6H633.087C633.087 224.197 634.983 219.545 638.805 215.595L637.368 214.205ZM701.32 246.1L700.603 246.797L700.613 246.807L701.32 246.1ZM701.32 213L702.022 213.712L702.027 213.707L701.32 213ZM736.32 214.2L737.023 214.912L737.703 214.24L737.063 213.53L736.32 214.2ZM704.92 245.2L704.218 244.488L703.418 245.278L704.296 245.981L704.92 245.2ZM728.12 247.7L728.618 248.567L728.624 248.564L728.12 247.7ZM736.02 240.3H737.02V237.027L735.191 239.741L736.02 240.3ZM736.02 245.4L736.76 246.073L737.02 245.787V245.4H736.02ZM703.62 215L704.327 215.707L704.327 215.707L703.62 215ZM702.82 243.1L702.071 243.762L702.773 244.557L703.525 243.81L702.82 243.1ZM731.92 214.2L732.625 214.91L733.388 214.152L732.577 213.446L731.92 214.2ZM718.82 252.2H717.92V254.2H718.82V252.2ZM717.92 252.2C711.869 252.2 706.585 249.951 702.027 245.393L700.613 246.807C705.522 251.716 711.305 254.2 717.92 254.2V252.2ZM702.037 245.403C697.541 240.778 695.32 235.457 695.32 229.4H693.32C693.32 236.01 695.767 241.822 700.603 246.797L702.037 245.403ZM695.32 229.4C695.32 223.345 697.539 218.132 702.022 213.712L700.618 212.288C695.768 217.068 693.32 222.789 693.32 229.4H695.32ZM702.027 213.707C706.498 209.236 712.007 207 718.62 207V205C711.5 205 705.476 207.43 700.613 212.293L702.027 213.707ZM718.62 207C725.182 207 730.819 209.596 735.578 214.87L737.063 213.53C731.955 207.87 725.792 205 718.62 205V207ZM735.618 213.488L704.218 244.488L705.623 245.912L737.023 214.912L735.618 213.488ZM704.296 245.981C708.738 249.535 713.119 251.4 717.42 251.4V249.4C713.721 249.4 709.769 247.798 705.545 244.419L704.296 245.981ZM717.42 251.4C721.576 251.4 725.318 250.463 728.618 248.567L727.622 246.833C724.656 248.537 721.265 249.4 717.42 249.4V251.4ZM728.624 248.564C731.954 246.621 734.699 244.051 736.85 240.859L735.191 239.741C733.209 242.683 730.687 245.045 727.616 246.836L728.624 248.564ZM735.02 240.3V245.4H737.02V240.3H735.02ZM735.281 244.727C730.727 249.729 725.258 252.2 718.82 252.2V254.2C725.849 254.2 731.846 251.471 736.76 246.073L735.281 244.727ZM717.72 207.8C712.158 207.8 707.211 209.995 702.913 214.293L704.327 215.707C708.296 211.739 712.749 209.8 717.72 209.8V207.8ZM702.913 214.293C698.675 218.531 696.52 223.479 696.52 229.1H698.52C698.52 224.054 700.432 219.602 704.327 215.707L702.913 214.293ZM696.52 229.1C696.52 234.677 698.376 239.579 702.071 243.762L703.57 242.438C700.198 238.621 698.52 234.189 698.52 229.1H696.52ZM703.525 243.81L732.625 214.91L731.216 213.49L702.116 242.39L703.525 243.81ZM732.577 213.446C728.267 209.692 723.302 207.8 717.72 207.8V209.8C722.805 209.8 727.307 211.508 731.264 214.954L732.577 213.446ZM791.732 207V206H791.102L790.83 206.568L791.732 207ZM794.632 207L795.534 207.431L796.217 206H794.632V207ZM772.532 253.3L771.63 253.732L772.534 255.617L773.434 253.731L772.532 253.3ZM750.332 207V206H748.744L749.43 207.432L750.332 207ZM753.832 207L754.733 206.567L754.461 206H753.832V207ZM772.832 246.5L771.931 246.933L772.834 248.812L773.734 246.932L772.832 246.5ZM791.732 208H794.632V206H791.732V208ZM793.73 206.569L771.63 252.869L773.434 253.731L795.534 207.431L793.73 206.569ZM773.434 252.868L751.234 206.568L749.43 207.432L771.63 253.732L773.434 252.868ZM750.332 208H753.832V206H750.332V208ZM752.931 207.433L771.931 246.933L773.733 246.067L754.733 206.567L752.931 207.433ZM773.734 246.932L792.634 207.432L790.83 206.568L771.93 246.068L773.734 246.932Z" fill="#FF0000"/>
<path d="M84.4 43V118H81.1V46.9L45.7 119.4L10.5 46.9V118H7.5V43H12.3L46 112.2L79.8 43H84.4ZM110.395 73.1V118H107.195V73.1H110.395ZM108.795 62.1C106.861 62.1 105.895 61.2 105.895 59.4C105.895 57.6 106.861 56.7 108.795 56.7C110.728 56.7 111.695 57.6 111.695 59.4C111.695 61.2 110.728 62.1 108.795 62.1ZM153.468 119.3H152.568C146.168 119.3 140.668 116.933 136.068 112.2C131.468 107.467 129.168 101.933 129.168 95.6C129.168 89.2 131.501 83.7 136.168 79.1C140.835 74.4333 146.568 72.1 153.368 72.1C160.168 72.1 165.968 74.6667 170.768 79.8V84.9C168.701 81.8333 166.068 79.4 162.868 77.6C159.735 75.8 156.435 74.9 152.968 74.9C147.435 74.9 142.601 76.9667 138.468 81.1C134.401 85.1667 132.368 90.0333 132.368 95.7C132.368 101.367 134.401 106.267 138.468 110.4C142.601 114.467 147.435 116.5 152.968 116.5C156.435 116.5 159.735 115.6 162.868 113.8C166.068 112 168.701 109.533 170.768 106.4V111.6C166.101 116.733 160.335 119.3 153.468 119.3ZM190.427 118H187.227V43.1H190.427V81.7C193.76 75.1667 199.527 71.9 207.727 71.9C213.327 71.9 218.027 73.8333 221.827 77.7C225.693 81.5667 227.627 86.2667 227.627 91.8V118H224.427V91.8C224.427 87.1333 222.793 83.1333 219.527 79.8C216.26 76.4 212.327 74.7 207.727 74.7C203.127 74.7 199.093 76.4 195.627 79.8C192.16 83.2 190.427 87.2 190.427 91.8V118ZM291.494 73V118H288.294V106.8C286.427 110.6 283.627 113.6 279.894 115.8C276.16 118 272.16 119.1 267.894 119.1C261.36 119.1 255.76 116.8 251.094 112.2C246.427 107.533 244.094 101.967 244.094 95.5C244.094 89.0333 246.427 83.5 251.094 78.9C255.76 74.2333 261.36 71.9 267.894 71.9C272.16 71.9 276.227 73.0333 280.094 75.3C284.027 77.5667 286.76 80.5667 288.294 84.3V73H291.494ZM247.294 95.6C247.294 101.2 249.327 106.067 253.394 110.2C257.527 114.267 262.394 116.3 267.994 116.3C273.66 116.3 278.494 114.267 282.494 110.2C286.494 106.067 288.494 101.2 288.494 95.6C288.494 89.9333 286.46 85.0333 282.394 80.9C278.394 76.7667 273.594 74.7 267.994 74.7C262.394 74.7 257.527 76.8 253.394 81C249.327 85.1333 247.294 90 247.294 95.6ZM334.027 119.2H333.127C326.794 119.2 321.261 116.833 316.527 112.1C311.861 107.3 309.527 101.733 309.527 95.4C309.527 89.0667 311.861 83.6 316.527 79C321.194 74.3333 326.961 72 333.827 72C340.694 72 346.594 74.7333 351.527 80.2L320.127 111.2C324.461 114.667 328.627 116.4 332.627 116.4C336.627 116.4 340.194 115.5 343.327 113.7C346.527 111.833 349.161 109.367 351.227 106.3V111.4C346.494 116.6 340.761 119.2 334.027 119.2ZM332.927 74.8C327.661 74.8 322.961 76.8667 318.827 81C314.761 85.0667 312.727 89.7667 312.727 95.1C312.727 100.433 314.494 105.1 318.027 109.1L347.127 80.2C342.994 76.6 338.261 74.8 332.927 74.8ZM386.139 116.1V118.9C381.406 118.9 377.372 117.333 374.039 114.2C370.706 111 369.039 106.933 369.039 102V43H372.239V102C372.239 106.067 373.572 109.433 376.239 112.1C378.972 114.767 382.272 116.1 386.139 116.1ZM501.298 43H504.598V118H501.298V89.4H449.898V118H446.598V43H449.898V86.5H501.298V43ZM563.345 73H566.545V118H563.345V108.9C559.945 115.7 554.145 119.1 545.945 119.1C540.345 119.1 535.645 117.167 531.845 113.3C528.045 109.433 526.145 104.733 526.145 99.2V73H529.345V99.2C529.345 103.8 530.945 107.8 534.145 111.2C537.411 114.6 541.345 116.3 545.945 116.3C550.545 116.3 554.578 114.6 558.045 111.2C561.578 107.8 563.345 103.8 563.345 99.2V73ZM541.145 62.2C539.211 62.2 538.245 61.3 538.245 59.5C538.245 57.7 539.211 56.8 541.145 56.8C543.078 56.8 544.045 57.7 544.045 59.5C544.045 61.3 543.078 62.2 541.145 62.2ZM551.645 62.2C549.845 62.2 548.945 61.3 548.945 59.5C548.945 57.7 549.845 56.8 551.645 56.8C553.511 56.8 554.445 57.7 554.445 59.5C554.445 61.3 553.511 62.2 551.645 62.2ZM586.586 118V43H589.786V84C591.586 80.3333 594.386 77.4 598.186 75.2C602.053 73 606.053 71.9 610.186 71.9C616.786 71.9 622.386 74.2333 626.986 78.9C631.653 83.5 633.986 89.0333 633.986 95.5C633.986 101.967 631.653 107.533 626.986 112.2C622.386 116.8 616.786 119.1 610.186 119.1C606.186 119.1 602.286 118.033 598.486 115.9C594.686 113.7 591.786 110.767 589.786 107.1V118H586.586ZM589.586 95.6C589.586 101.2 591.619 106.067 595.686 110.2C599.819 114.267 604.686 116.3 610.286 116.3C615.953 116.3 620.786 114.267 624.786 110.2C628.786 106.067 630.786 101.2 630.786 95.6C630.786 89.9333 628.753 85.0333 624.686 80.9C620.686 76.7667 615.886 74.7 610.286 74.7C604.686 74.7 599.819 76.8 595.686 81C591.619 85.1333 589.586 90 589.586 95.6ZM654.72 118H651.52V73H654.72V82.1C658.12 75.3 663.92 71.9 672.12 71.9C677.72 71.9 682.42 73.8333 686.22 77.7C690.02 81.5667 691.92 86.2667 691.92 91.8V118H688.72V91.8C688.72 87.2 687.086 83.2 683.82 79.8C680.62 76.4 676.72 74.7 672.12 74.7C667.52 74.7 663.453 76.4 659.92 79.8C656.453 83.2 654.72 87.2 654.72 91.8V118ZM734.461 119.2H733.561C727.228 119.2 721.694 116.833 716.961 112.1C712.294 107.3 709.961 101.733 709.961 95.4C709.961 89.0667 712.294 83.6 716.961 79C721.628 74.3333 727.394 72 734.261 72C741.128 72 747.028 74.7333 751.961 80.2L720.561 111.2C724.894 114.667 729.061 116.4 733.061 116.4C737.061 116.4 740.628 115.5 743.761 113.7C746.961 111.833 749.594 109.367 751.661 106.3V111.4C746.928 116.6 741.194 119.2 734.461 119.2ZM733.361 74.8C728.094 74.8 723.394 76.8667 719.261 81C715.194 85.0667 713.161 89.7667 713.161 95.1C713.161 100.433 714.928 105.1 718.461 109.1L747.561 80.2C743.428 76.6 738.694 74.8 733.361 74.8ZM795.773 79.1C792.839 76.1667 789.606 74.7 786.073 74.7C782.539 74.7 779.406 76.0333 776.673 78.7C774.006 81.3667 772.673 84.4667 772.673 88V118H769.473V73H772.673V79.7C773.873 77.4333 775.739 75.5667 778.273 74.1C780.806 72.6333 783.639 71.9 786.773 71.9C789.906 71.9 792.906 72.9667 795.773 75.1V79.1Z" fill="#FF0000"/>
<path d="M84.4 43H85.4V42H84.4V43ZM84.4 118V119H85.4V118H84.4ZM81.1 118H80.1V119H81.1V118ZM81.1 46.9H82.1L80.2014 46.4612L81.1 46.9ZM45.7 119.4L44.8004 119.837L45.6975 121.684L46.5986 119.839L45.7 119.4ZM10.5 46.9L11.3996 46.4632L9.5 46.9H10.5ZM10.5 118V119H11.5V118H10.5ZM7.5 118H6.5V119H7.5V118ZM7.5 43V42H6.5V43H7.5ZM12.3 43L13.1991 42.5622L12.9253 42H12.3V43ZM46 112.2L45.1009 112.638L45.9987 114.481L46.8985 112.639L46 112.2ZM79.8 43V42H79.1755L78.9015 42.5611L79.8 43ZM83.4 43V118H85.4V43H83.4ZM84.4 117H81.1V119H84.4V117ZM82.1 118V46.9H80.1V118H82.1ZM80.2014 46.4612L44.8014 118.961L46.5986 119.839L81.9986 47.3388L80.2014 46.4612ZM46.5996 118.963L11.3996 46.4632L9.60042 47.3368L44.8004 119.837L46.5996 118.963ZM9.5 46.9V118H11.5V46.9H9.5ZM10.5 117H7.5V119H10.5V117ZM8.5 118V43H6.5V118H8.5ZM7.5 44H12.3V42H7.5V44ZM11.4009 43.4378L45.1009 112.638L46.8991 111.762L13.1991 42.5622L11.4009 43.4378ZM46.8985 112.639L80.6985 43.4389L78.9015 42.5611L45.1015 111.761L46.8985 112.639ZM79.8 44H84.4V42H79.8V44ZM110.395 73.1H111.395V72.1H110.395V73.1ZM110.395 118V119H111.395V118H110.395ZM107.195 118H106.195V119H107.195V118ZM107.195 73.1V72.1H106.195V73.1H107.195ZM109.395 73.1V118H111.395V73.1H109.395ZM110.395 117H107.195V119H110.395V117ZM108.195 118V73.1H106.195V118H108.195ZM107.195 74.1H110.395V72.1H107.195V74.1ZM108.795 61.1C107.965 61.1 107.529 60.9055 107.301 60.6931C107.086 60.4933 106.895 60.1268 106.895 59.4H104.895C104.895 60.4732 105.186 61.4567 105.938 62.1569C106.677 62.8445 107.691 63.1 108.795 63.1V61.1ZM106.895 59.4C106.895 58.6732 107.086 58.3067 107.301 58.1069C107.529 57.8945 107.965 57.7 108.795 57.7V55.7C107.691 55.7 106.677 55.9555 105.938 56.6431C105.186 57.3433 104.895 58.3268 104.895 59.4H106.895ZM108.795 57.7C109.624 57.7 110.06 57.8945 110.288 58.1069C110.503 58.3067 110.695 58.6732 110.695 59.4H112.695C112.695 58.3268 112.403 57.3433 111.651 56.6431C110.912 55.9555 109.898 55.7 108.795 55.7V57.7ZM110.695 59.4C110.695 60.1268 110.503 60.4933 110.288 60.6931C110.06 60.9055 109.624 61.1 108.795 61.1V63.1C109.898 63.1 110.912 62.8445 111.651 62.1569C112.403 61.4567 112.695 60.4732 112.695 59.4H110.695ZM136.068 112.2L135.351 112.897L135.351 112.897L136.068 112.2ZM136.168 79.1L136.87 79.8122L136.875 79.8071L136.168 79.1ZM170.768 79.8H171.768V79.4053L171.498 79.117L170.768 79.8ZM170.768 84.9L169.939 85.4589L171.768 88.1732V84.9H170.768ZM162.868 77.6L162.37 78.4671L162.378 78.4716L162.868 77.6ZM138.468 81.1L139.175 81.8071L139.175 81.8071L138.468 81.1ZM138.468 110.4L137.755 111.101L137.761 111.107L137.767 111.113L138.468 110.4ZM162.868 113.8L162.378 112.928L162.37 112.933L162.868 113.8ZM170.768 106.4H171.768V103.068L169.933 105.849L170.768 106.4ZM170.768 111.6L171.508 112.273L171.768 111.987V111.6H170.768ZM153.468 118.3H152.568V120.3H153.468V118.3ZM152.568 118.3C146.447 118.3 141.203 116.049 136.785 111.503L135.351 112.897C140.133 117.817 145.888 120.3 152.568 120.3V118.3ZM136.785 111.503C132.358 106.948 130.168 101.661 130.168 95.6H128.168C128.168 102.206 130.578 107.986 135.351 112.897L136.785 111.503ZM130.168 95.6C130.168 89.4748 132.389 84.2293 136.87 79.8122L135.466 78.3878C130.614 83.1707 128.168 88.9252 128.168 95.6H130.168ZM136.875 79.8071C141.348 75.3342 146.824 73.1 153.368 73.1V71.1C146.312 71.1 140.321 73.5324 135.461 78.3929L136.875 79.8071ZM153.368 73.1C159.881 73.1 165.419 75.5442 170.038 80.483L171.498 79.117C166.516 73.7891 160.455 71.1 153.368 71.1V73.1ZM169.768 79.8V84.9H171.768V79.8H169.768ZM171.597 84.3411C169.444 81.1462 166.695 78.6054 163.358 76.7284L162.378 78.4716C165.441 80.1946 167.958 82.5204 169.939 85.4589L171.597 84.3411ZM163.366 76.7329C160.088 74.8497 156.617 73.9 152.968 73.9V75.9C156.252 75.9 159.381 76.7503 162.37 78.4671L163.366 76.7329ZM152.968 73.9C147.153 73.9 142.07 76.0838 137.761 80.3929L139.175 81.8071C143.133 77.8496 147.716 75.9 152.968 75.9V73.9ZM137.761 80.3929C133.51 84.644 131.368 89.7637 131.368 95.7H133.368C133.368 90.303 135.293 85.6894 139.175 81.8071L137.761 80.3929ZM131.368 95.7C131.368 101.636 133.509 106.786 137.755 111.101L139.181 109.699C135.293 105.748 133.368 101.098 133.368 95.7H131.368ZM137.767 111.113C142.077 115.354 147.159 117.5 152.968 117.5V115.5C147.711 115.5 143.126 113.58 139.169 109.687L137.767 111.113ZM152.968 117.5C156.617 117.5 160.088 116.55 163.366 114.667L162.37 112.933C159.381 114.65 156.252 115.5 152.968 115.5V117.5ZM163.358 114.672C166.7 112.792 169.45 110.214 171.603 106.951L169.933 105.849C167.952 108.853 165.436 111.208 162.378 112.928L163.358 114.672ZM169.768 106.4V111.6H171.768V106.4H169.768ZM170.028 110.927C165.549 115.855 160.05 118.3 153.468 118.3V120.3C160.62 120.3 166.654 117.612 171.508 112.273L170.028 110.927ZM190.427 118V119H191.427V118H190.427ZM187.227 118H186.227V119H187.227V118ZM187.227 43.1V42.1H186.227V43.1H187.227ZM190.427 43.1H191.427V42.1H190.427V43.1ZM190.427 81.7H189.427L191.317 82.1545L190.427 81.7ZM221.827 77.7L221.113 78.401L221.119 78.4071L221.827 77.7ZM227.627 118V119H228.627V118H227.627ZM224.427 118H223.427V119H224.427V118ZM219.527 79.8L218.805 80.4929L218.812 80.4999L219.527 79.8ZM190.427 117H187.227V119H190.427V117ZM188.227 118V43.1H186.227V118H188.227ZM187.227 44.1H190.427V42.1H187.227V44.1ZM189.427 43.1V81.7H191.427V43.1H189.427ZM191.317 82.1545C192.905 79.043 195.05 76.7467 197.744 75.2201C200.446 73.6899 203.759 72.9 207.727 72.9V70.9C203.494 70.9 199.824 71.7434 196.759 73.4799C193.687 75.22 191.282 77.8237 189.536 81.2455L191.317 82.1545ZM207.727 72.9C213.068 72.9 217.508 74.7325 221.113 78.4009L222.54 76.9991C218.545 72.9341 213.585 70.9 207.727 70.9V72.9ZM221.119 78.4071C224.796 82.0837 226.627 86.5283 226.627 91.8H228.627C228.627 86.005 226.59 81.0496 222.534 76.9929L221.119 78.4071ZM226.627 91.8V118H228.627V91.8H226.627ZM227.627 117H224.427V119H227.627V117ZM225.427 118V91.8H223.427V118H225.427ZM225.427 91.8C225.427 86.8716 223.691 82.6203 220.241 79.1001L218.812 80.4999C221.896 83.6464 223.427 87.3951 223.427 91.8H225.427ZM220.248 79.1072C216.798 75.5164 212.606 73.7 207.727 73.7V75.7C212.047 75.7 215.722 77.2835 218.805 80.4928L220.248 79.1072ZM207.727 73.7C202.849 73.7 198.568 75.514 194.926 79.0861L196.327 80.5139C199.618 77.286 203.404 75.7 207.727 75.7V73.7ZM194.926 79.0861C191.28 82.6625 189.427 86.9152 189.427 91.8H191.427C191.427 87.4848 193.04 83.7375 196.327 80.5139L194.926 79.0861ZM189.427 91.8V118H191.427V91.8H189.427ZM291.494 73H292.494V72H291.494V73ZM291.494 118V119H292.494V118H291.494ZM288.294 118H287.294V119H288.294V118ZM288.294 106.8H289.294L287.396 106.359L288.294 106.8ZM279.894 115.8L279.386 114.938L279.386 114.938L279.894 115.8ZM251.094 112.2L250.387 112.907L250.392 112.912L251.094 112.2ZM251.094 78.9L251.796 79.6122L251.801 79.6071L251.094 78.9ZM280.094 75.3L279.588 76.1627L279.594 76.1664L280.094 75.3ZM288.294 84.3L287.369 84.6799L289.294 84.3H288.294ZM288.294 73V72H287.294V73H288.294ZM253.394 110.2L252.681 110.901L252.687 110.907L252.692 110.913L253.394 110.2ZM282.494 110.2L283.207 110.901L283.212 110.895L282.494 110.2ZM282.394 80.9L281.675 81.5954L281.681 81.6013L282.394 80.9ZM253.394 81L252.681 80.2986L252.681 80.2987L253.394 81ZM290.494 73V118H292.494V73H290.494ZM291.494 117H288.294V119H291.494V117ZM289.294 118V106.8H287.294V118H289.294ZM287.396 106.359C285.618 109.98 282.955 112.835 279.386 114.938L280.401 116.662C284.299 114.365 287.236 111.22 289.191 107.241L287.396 106.359ZM279.386 114.938C275.804 117.049 271.979 118.1 267.894 118.1V120.1C272.342 120.1 276.517 118.951 280.401 116.662L279.386 114.938ZM267.894 118.1C261.624 118.1 256.276 115.904 251.796 111.488L250.392 112.912C255.245 117.696 261.097 120.1 267.894 120.1V118.1ZM251.801 111.493C247.317 107.009 245.094 101.695 245.094 95.5H243.094C243.094 102.238 245.537 108.057 250.387 112.907L251.801 111.493ZM245.094 95.5C245.094 89.305 247.317 84.0271 251.796 79.6122L250.392 78.1878C245.537 82.9729 243.094 88.7616 243.094 95.5H245.094ZM251.801 79.6071C256.282 75.1258 261.629 72.9 267.894 72.9V70.9C261.092 70.9 255.239 73.3408 250.387 78.1929L251.801 79.6071ZM267.894 72.9C271.974 72.9 275.867 73.9812 279.588 76.1627L280.599 74.4373C276.587 72.0855 272.347 70.9 267.894 70.9V72.9ZM279.594 76.1664C283.361 78.3371 285.93 81.1768 287.369 84.6799L289.219 83.9201C287.591 79.9565 284.693 76.7963 280.593 74.4336L279.594 76.1664ZM289.294 84.3V73H287.294V84.3H289.294ZM288.294 74H291.494V72H288.294V74ZM246.294 95.6C246.294 101.473 248.437 106.588 252.681 110.901L254.107 109.499C250.217 105.545 248.294 100.927 248.294 95.6H246.294ZM252.692 110.913C257.005 115.156 262.121 117.3 267.994 117.3V115.3C262.666 115.3 258.049 113.377 254.095 109.487L252.692 110.913ZM267.994 117.3C273.93 117.3 279.02 115.158 283.207 110.901L281.781 109.499C277.967 113.376 273.39 115.3 267.994 115.3V117.3ZM283.212 110.895C287.387 106.581 289.494 101.467 289.494 95.6H287.494C287.494 100.933 285.6 105.552 281.775 109.505L283.212 110.895ZM289.494 95.6C289.494 89.6642 287.352 84.5142 283.107 80.1987L281.681 81.6013C285.568 85.5525 287.494 90.2025 287.494 95.6H289.494ZM283.112 80.2046C278.93 75.8825 273.873 73.7 267.994 73.7V75.7C273.315 75.7 277.858 77.6508 281.675 81.5954L283.112 80.2046ZM267.994 73.7C262.111 73.7 256.991 75.9187 252.681 80.2986L254.106 81.7014C258.063 77.6813 262.677 75.7 267.994 75.7V73.7ZM252.681 80.2987C248.437 84.6117 246.294 89.7274 246.294 95.6H248.294C248.294 90.2726 250.217 85.655 254.107 81.7013L252.681 80.2987ZM316.527 112.1L315.81 112.797L315.82 112.807L316.527 112.1ZM316.527 79L317.229 79.7122L317.234 79.7071L316.527 79ZM351.527 80.2L352.23 80.9116L352.91 80.2399L352.27 79.53L351.527 80.2ZM320.127 111.2L319.425 110.488L318.625 111.278L319.503 111.981L320.127 111.2ZM343.327 113.7L343.825 114.567L343.831 114.564L343.327 113.7ZM351.227 106.3H352.227V103.027L350.398 105.741L351.227 106.3ZM351.227 111.4L351.967 112.073L352.227 111.787V111.4H351.227ZM318.827 81L319.534 81.7071L319.534 81.7071L318.827 81ZM318.027 109.1L317.278 109.762L317.98 110.557L318.732 109.81L318.027 109.1ZM347.127 80.2L347.832 80.9095L348.595 80.152L347.784 79.4459L347.127 80.2ZM334.027 118.2H333.127V120.2H334.027V118.2ZM333.127 118.2C327.076 118.2 321.792 115.951 317.234 111.393L315.82 112.807C320.729 117.716 326.512 120.2 333.127 120.2V118.2ZM317.244 111.403C312.748 106.778 310.527 101.457 310.527 95.4H308.527C308.527 102.01 310.974 107.822 315.81 112.797L317.244 111.403ZM310.527 95.4C310.527 89.3446 312.746 84.1315 317.229 79.7122L315.825 78.2878C310.975 83.0685 308.527 88.7887 308.527 95.4H310.527ZM317.234 79.7071C321.705 75.2363 327.214 73 333.827 73V71C326.707 71 320.683 73.4304 315.82 78.2929L317.234 79.7071ZM333.827 73C340.389 73 346.026 75.5963 350.785 80.87L352.27 79.53C347.162 73.8704 340.999 71 333.827 71V73ZM350.825 79.4884L319.425 110.488L320.83 111.912L352.23 80.9116L350.825 79.4884ZM319.503 111.981C323.946 115.535 328.326 117.4 332.627 117.4V115.4C328.928 115.4 324.976 113.798 320.752 110.419L319.503 111.981ZM332.627 117.4C336.783 117.4 340.525 116.463 343.825 114.567L342.829 112.833C339.863 114.537 336.472 115.4 332.627 115.4V117.4ZM343.831 114.564C347.161 112.621 349.906 110.051 352.057 106.859L350.398 105.741C348.416 108.683 345.894 111.045 342.823 112.836L343.831 114.564ZM350.227 106.3V111.4H352.227V106.3H350.227ZM350.488 110.727C345.935 115.729 340.465 118.2 334.027 118.2V120.2C341.056 120.2 347.054 117.471 351.967 112.073L350.488 110.727ZM332.927 73.8C327.365 73.8 322.419 75.9946 318.12 80.2929L319.534 81.7071C323.503 77.7387 327.956 75.8 332.927 75.8V73.8ZM318.12 80.2929C313.882 84.5309 311.727 89.4793 311.727 95.1H313.727C313.727 90.054 315.639 85.6025 319.534 81.7071L318.12 80.2929ZM311.727 95.1C311.727 100.677 313.583 105.579 317.278 109.762L318.777 108.438C315.405 104.621 313.727 100.189 313.727 95.1H311.727ZM318.732 109.81L347.832 80.9095L346.423 79.4905L317.323 108.39L318.732 109.81ZM347.784 79.4459C343.474 75.6922 338.509 73.8 332.927 73.8V75.8C338.012 75.8 342.514 77.5078 346.471 80.9541L347.784 79.4459ZM386.139 116.1H387.139V115.1H386.139V116.1ZM386.139 118.9V119.9H387.139V118.9H386.139ZM374.039 114.2L373.346 114.921L373.354 114.929L374.039 114.2ZM369.039 43V42H368.039V43H369.039ZM372.239 43H373.239V42H372.239V43ZM376.239 112.1L375.532 112.807L375.541 112.816L376.239 112.1ZM385.139 116.1V118.9H387.139V116.1H385.139ZM386.139 117.9C381.65 117.9 377.865 116.424 374.724 113.471L373.354 114.929C376.88 118.243 381.161 119.9 386.139 119.9V117.9ZM374.732 113.479C371.609 110.481 370.039 106.682 370.039 102H368.039C368.039 107.185 369.802 111.519 373.347 114.921L374.732 113.479ZM370.039 102V43H368.039V102H370.039ZM369.039 44H372.239V42H369.039V44ZM371.239 43V102H373.239V43H371.239ZM371.239 102C371.239 106.309 372.662 109.937 375.532 112.807L376.946 111.393C374.483 108.929 373.239 105.824 373.239 102H371.239ZM375.541 112.816C378.463 115.667 382.015 117.1 386.139 117.1V115.1C382.53 115.1 379.481 113.866 376.937 111.384L375.541 112.816ZM501.298 43V42H500.298V43H501.298ZM504.598 43H505.598V42H504.598V43ZM504.598 118V119H505.598V118H504.598ZM501.298 118H500.298V119H501.298V118ZM501.298 89.4H502.298V88.4H501.298V89.4ZM449.898 89.4V88.4H448.898V89.4H449.898ZM449.898 118V119H450.898V118H449.898ZM446.598 118H445.598V119H446.598V118ZM446.598 43V42H445.598V43H446.598ZM449.898 43H450.898V42H449.898V43ZM449.898 86.5H448.898V87.5H449.898V86.5ZM501.298 86.5V87.5H502.298V86.5H501.298ZM501.298 44H504.598V42H501.298V44ZM503.598 43V118H505.598V43H503.598ZM504.598 117H501.298V119H504.598V117ZM502.298 118V89.4H500.298V118H502.298ZM501.298 88.4H449.898V90.4H501.298V88.4ZM448.898 89.4V118H450.898V89.4H448.898ZM449.898 117H446.598V119H449.898V117ZM447.598 118V43H445.598V118H447.598ZM446.598 44H449.898V42H446.598V44ZM448.898 43V86.5H450.898V43H448.898ZM449.898 87.5H501.298V85.5H449.898V87.5ZM502.298 86.5V43H500.298V86.5H502.298ZM563.345 73V72H562.345V73H563.345ZM566.545 73H567.545V72H566.545V73ZM566.545 118V119H567.545V118H566.545ZM563.345 118H562.345V119H563.345V118ZM563.345 108.9H564.345L562.45 108.453L563.345 108.9ZM531.845 113.3L532.558 112.599L531.845 113.3ZM526.145 73V72H525.145V73H526.145ZM529.345 73H530.345V72H529.345V73ZM534.145 111.2L533.416 111.885L533.423 111.893L534.145 111.2ZM558.045 111.2L557.351 110.479L557.344 110.486L558.045 111.2ZM563.345 74H566.545V72H563.345V74ZM565.545 73V118H567.545V73H565.545ZM566.545 117H563.345V119H566.545V117ZM564.345 118V108.9H562.345V118H564.345ZM562.45 108.453C560.825 111.703 558.651 114.098 555.939 115.687C553.223 117.28 549.906 118.1 545.945 118.1V120.1C550.183 120.1 553.866 119.22 556.95 117.413C560.039 115.602 562.464 112.897 564.239 109.347L562.45 108.453ZM545.945 118.1C540.603 118.1 536.163 116.267 532.558 112.599L531.131 114.001C535.126 118.066 540.086 120.1 545.945 120.1V118.1ZM532.558 112.599C528.946 108.924 527.145 104.477 527.145 99.2H525.145C525.145 104.989 527.143 109.943 531.131 114.001L532.558 112.599ZM527.145 99.2V73H525.145V99.2H527.145ZM526.145 74H529.345V72H526.145V74ZM528.345 73V99.2H530.345V73H528.345ZM528.345 99.2C528.345 104.059 530.045 108.303 533.416 111.885L534.873 110.515C531.844 107.297 530.345 103.541 530.345 99.2H528.345ZM533.423 111.893C536.873 115.484 541.065 117.3 545.945 117.3V115.3C541.624 115.3 537.949 113.716 534.866 110.507L533.423 111.893ZM545.945 117.3C550.822 117.3 555.103 115.486 558.745 111.914L557.344 110.486C554.053 113.714 550.267 115.3 545.945 115.3V117.3ZM558.738 111.921C562.453 108.346 564.345 104.091 564.345 99.2H562.345C562.345 103.509 560.703 107.254 557.351 110.479L558.738 111.921ZM564.345 99.2V73H562.345V99.2H564.345ZM541.145 61.2C540.315 61.2 539.879 61.0055 539.651 60.7931C539.436 60.5933 539.245 60.2268 539.245 59.5H537.245C537.245 60.5732 537.536 61.5567 538.288 62.2569C539.027 62.9445 540.041 63.2 541.145 63.2V61.2ZM539.245 59.5C539.245 58.7732 539.436 58.4067 539.651 58.2069C539.879 57.9945 540.315 57.8 541.145 57.8V55.8C540.041 55.8 539.027 56.0555 538.288 56.7431C537.536 57.4433 537.245 58.4268 537.245 59.5H539.245ZM541.145 57.8C541.974 57.8 542.41 57.9945 542.638 58.2069C542.853 58.4067 543.045 58.7732 543.045 59.5H545.045C545.045 58.4268 544.753 57.4433 544.001 56.7431C543.262 56.0555 542.248 55.8 541.145 55.8V57.8ZM543.045 59.5C543.045 60.2268 542.853 60.5933 542.638 60.7931C542.41 61.0055 541.974 61.2 541.145 61.2V63.2C542.248 63.2 543.262 62.9445 544.001 62.2569C544.753 61.5567 545.045 60.5732 545.045 59.5H543.045ZM551.645 61.2C550.899 61.2 550.523 61.0142 550.327 60.8179C550.13 60.6216 549.945 60.2459 549.945 59.5H547.945C547.945 60.5541 548.209 61.5284 548.912 62.2321C549.616 62.9358 550.59 63.2 551.645 63.2V61.2ZM549.945 59.5C549.945 58.7541 550.13 58.3784 550.327 58.1821C550.523 57.9858 550.899 57.8 551.645 57.8V55.8C550.59 55.8 549.616 56.0642 548.912 56.7679C548.209 57.4716 547.945 58.4459 547.945 59.5H549.945ZM551.645 57.8C552.433 57.8 552.838 57.9905 553.05 58.1948C553.256 58.3927 553.445 58.7636 553.445 59.5H555.445C555.445 58.4364 555.167 57.4573 554.439 56.7552C553.717 56.0595 552.723 55.8 551.645 55.8V57.8ZM553.445 59.5C553.445 60.2364 553.256 60.6073 553.05 60.8052C552.838 61.0095 552.433 61.2 551.645 61.2V63.2C552.723 63.2 553.717 62.9405 554.439 62.2448C555.167 61.5427 555.445 60.5636 555.445 59.5H553.445ZM586.586 118H585.586V119H586.586V118ZM586.586 43V42H585.586V43H586.586ZM589.786 43H590.786V42H589.786V43ZM589.786 84H588.786L590.684 84.4407L589.786 84ZM598.186 75.2L597.691 74.3308L597.685 74.3346L598.186 75.2ZM626.986 78.9L626.274 79.602L626.279 79.6071L626.284 79.6122L626.986 78.9ZM626.986 112.2L626.279 111.493L626.279 111.493L626.986 112.2ZM598.486 115.9L597.985 116.766L597.996 116.772L598.486 115.9ZM589.786 107.1L590.664 106.621L588.786 107.1H589.786ZM589.786 118V119H590.786V118H589.786ZM595.686 110.2L594.973 110.901L594.979 110.907L594.985 110.913L595.686 110.2ZM624.786 110.2L625.499 110.901L625.505 110.895L624.786 110.2ZM624.686 80.9L623.967 81.5954L623.973 81.6013L624.686 80.9ZM595.686 81L594.973 80.2986L594.973 80.2987L595.686 81ZM587.586 118V43H585.586V118H587.586ZM586.586 44H589.786V42H586.586V44ZM588.786 43V84H590.786V43H588.786ZM590.684 84.4407C592.39 80.9652 595.045 78.174 598.687 76.0654L597.685 74.3346C593.727 76.626 590.782 79.7015 588.888 83.5593L590.684 84.4407ZM598.68 76.0692C602.408 73.9482 606.239 72.9 610.186 72.9V70.9C605.866 70.9 601.697 72.0518 597.691 74.3308L598.68 76.0692ZM610.186 72.9C616.52 72.9 621.863 75.1275 626.274 79.602L627.698 78.198C622.909 73.3391 617.051 70.9 610.186 70.9V72.9ZM626.284 79.6122C630.763 84.0271 632.986 89.305 632.986 95.5H634.986C634.986 88.7616 632.542 82.9729 627.688 78.1878L626.284 79.6122ZM632.986 95.5C632.986 101.695 630.762 107.009 626.279 111.493L627.693 112.907C632.543 108.057 634.986 102.238 634.986 95.5H632.986ZM626.279 111.493C621.869 115.902 616.525 118.1 610.186 118.1V120.1C617.047 120.1 622.902 117.698 627.693 112.907L626.279 111.493ZM610.186 118.1C606.372 118.1 602.64 117.085 598.975 115.028L597.996 116.772C601.932 118.982 605.999 120.1 610.186 120.1V118.1ZM598.987 115.035C595.337 112.922 592.571 110.118 590.664 106.621L588.908 107.579C591 111.415 594.035 114.478 597.985 116.765L598.987 115.035ZM588.786 107.1V118H590.786V107.1H588.786ZM589.786 117H586.586V119H589.786V117ZM588.586 95.6C588.586 101.473 590.73 106.588 594.973 110.901L596.399 109.499C592.509 105.545 590.586 100.927 590.586 95.6H588.586ZM594.985 110.913C599.298 115.156 604.413 117.3 610.286 117.3V115.3C604.959 115.3 600.341 113.377 596.387 109.487L594.985 110.913ZM610.286 117.3C616.223 117.3 621.312 115.158 625.499 110.901L624.073 109.499C620.26 113.376 615.683 115.3 610.286 115.3V117.3ZM625.505 110.895C629.68 106.581 631.786 101.467 631.786 95.6H629.786C629.786 100.933 627.892 105.552 624.067 109.505L625.505 110.895ZM631.786 95.6C631.786 89.6642 629.645 84.5142 625.399 80.1987L623.973 81.6013C627.861 85.5525 629.786 90.2025 629.786 95.6H631.786ZM625.405 80.2046C621.222 75.8825 616.165 73.7 610.286 73.7V75.7C615.607 75.7 620.15 77.6508 623.967 81.5954L625.405 80.2046ZM610.286 73.7C604.403 73.7 599.284 75.9187 594.973 80.2986L596.399 81.7014C600.355 77.6813 604.969 75.7 610.286 75.7V73.7ZM594.973 80.2987C590.73 84.6117 588.586 89.7274 588.586 95.6H590.586C590.586 90.2726 592.509 85.655 596.399 81.7013L594.973 80.2987ZM654.72 118V119H655.72V118H654.72ZM651.52 118H650.52V119H651.52V118ZM651.52 73V72H650.52V73H651.52ZM654.72 73H655.72V72H654.72V73ZM654.72 82.1H653.72L655.614 82.5472L654.72 82.1ZM686.22 77.7L685.506 78.4009L685.506 78.4009L686.22 77.7ZM691.92 118V119H692.92V118H691.92ZM688.72 118H687.72V119H688.72V118ZM683.82 79.8L683.091 80.4854L683.098 80.4928L683.82 79.8ZM659.92 79.8L659.226 79.0794L659.219 79.0861L659.92 79.8ZM654.72 117H651.52V119H654.72V117ZM652.52 118V73H650.52V118H652.52ZM651.52 74H654.72V72H651.52V74ZM653.72 73V82.1H655.72V73H653.72ZM655.614 82.5472C657.239 79.2971 659.414 76.9023 662.125 75.3127C664.841 73.7204 668.158 72.9 672.12 72.9V70.9C667.881 70.9 664.198 71.7796 661.114 73.5873C658.026 75.3977 655.6 78.1029 653.825 81.6528L655.614 82.5472ZM672.12 72.9C677.461 72.9 681.901 74.7325 685.506 78.4009L686.933 76.9991C682.938 72.9341 677.978 70.9 672.12 70.9V72.9ZM685.506 78.4009C689.118 82.0763 690.92 86.5228 690.92 91.8H692.92C692.92 86.0105 690.921 81.057 686.933 76.9991L685.506 78.4009ZM690.92 91.8V118H692.92V91.8H690.92ZM691.92 117H688.72V119H691.92V117ZM689.72 118V91.8H687.72V118H689.72ZM689.72 91.8C689.72 86.9346 687.981 82.6882 684.541 79.1072L683.098 80.4928C686.191 83.7117 687.72 87.4654 687.72 91.8H689.72ZM684.548 79.1146C681.162 75.5173 677 73.7 672.12 73.7V75.7C676.439 75.7 680.077 77.2827 683.091 80.4854L684.548 79.1146ZM672.12 73.7C667.243 73.7 662.932 75.5132 659.226 79.0794L660.613 80.5206C663.973 77.2868 667.796 75.7 672.12 75.7V73.7ZM659.219 79.0861C655.573 82.6625 653.72 86.9152 653.72 91.8H655.72C655.72 87.4848 657.333 83.7375 660.62 80.5139L659.219 79.0861ZM653.72 91.8V118H655.72V91.8H653.72ZM716.961 112.1L716.244 112.797L716.254 112.807L716.961 112.1ZM716.961 79L717.663 79.7122L717.668 79.7071L716.961 79ZM751.961 80.2L752.663 80.9116L753.344 80.2399L752.703 79.53L751.961 80.2ZM720.561 111.2L719.858 110.488L719.058 111.278L719.936 111.981L720.561 111.2ZM743.761 113.7L744.259 114.567L744.265 114.564L743.761 113.7ZM751.661 106.3H752.661V103.027L750.832 105.741L751.661 106.3ZM751.661 111.4L752.4 112.073L752.661 111.787V111.4H751.661ZM719.261 81L719.968 81.7071L719.968 81.7071L719.261 81ZM718.461 109.1L717.711 109.762L718.413 110.557L719.166 109.81L718.461 109.1ZM747.561 80.2L748.266 80.9095L749.028 80.152L748.218 79.4459L747.561 80.2ZM734.461 118.2H733.561V120.2H734.461V118.2ZM733.561 118.2C727.509 118.2 722.226 115.951 717.668 111.393L716.254 112.807C721.163 117.716 726.946 120.2 733.561 120.2V118.2ZM717.678 111.403C713.181 106.778 710.961 101.457 710.961 95.4H708.961C708.961 102.01 711.407 107.822 716.244 112.797L717.678 111.403ZM710.961 95.4C710.961 89.3446 713.18 84.1315 717.663 79.7122L716.259 78.2878C711.409 83.0685 708.961 88.7887 708.961 95.4H710.961ZM717.668 79.7071C722.139 75.2363 727.648 73 734.261 73V71C727.141 71 721.116 73.4304 716.254 78.2929L717.668 79.7071ZM734.261 73C740.822 73 746.459 75.5963 751.219 80.87L752.703 79.53C747.596 73.8704 741.433 71 734.261 71V73ZM751.258 79.4884L719.858 110.488L721.263 111.912L752.663 80.9116L751.258 79.4884ZM719.936 111.981C724.379 115.535 728.76 117.4 733.061 117.4V115.4C729.362 115.4 725.409 113.798 721.186 110.419L719.936 111.981ZM733.061 117.4C737.217 117.4 740.958 116.463 744.259 114.567L743.263 112.833C740.297 114.537 736.905 115.4 733.061 115.4V117.4ZM744.265 114.564C747.595 112.621 750.339 110.051 752.49 106.859L750.832 105.741C748.849 108.683 746.327 111.045 743.257 112.836L744.265 114.564ZM750.661 106.3V111.4H752.661V106.3H750.661ZM750.921 110.727C746.368 115.729 740.899 118.2 734.461 118.2V120.2C741.49 120.2 747.487 117.471 752.4 112.073L750.921 110.727ZM733.361 73.8C727.799 73.8 722.852 75.9946 718.554 80.2929L719.968 81.7071C723.936 77.7387 728.39 75.8 733.361 75.8V73.8ZM718.554 80.2929C714.316 84.5309 712.161 89.4793 712.161 95.1H714.161C714.161 90.054 716.073 85.6025 719.968 81.7071L718.554 80.2929ZM712.161 95.1C712.161 100.677 714.017 105.579 717.711 109.762L719.21 108.438C715.838 104.621 714.161 100.189 714.161 95.1H712.161ZM719.166 109.81L748.266 80.9095L746.856 79.4905L717.756 108.39L719.166 109.81ZM748.218 79.4459C743.908 75.6922 738.943 73.8 733.361 73.8V75.8C738.446 75.8 742.947 77.5078 746.904 80.9541L748.218 79.4459ZM795.773 79.1L795.066 79.8071L796.773 81.5142V79.1H795.773ZM776.673 78.7L775.974 77.9842L775.966 77.9929L776.673 78.7ZM772.673 118V119H773.673V118H772.673ZM769.473 118H768.473V119H769.473V118ZM769.473 73V72H768.473V73H769.473ZM772.673 73H773.673V72H772.673V73ZM772.673 79.7H771.673L773.556 80.1679L772.673 79.7ZM778.273 74.1L778.774 74.9654L778.774 74.9654L778.273 74.1ZM795.773 75.1H796.773V74.5977L796.37 74.2978L795.773 75.1ZM796.48 78.3929C793.394 75.3072 789.917 73.7 786.073 73.7V75.7C789.295 75.7 792.285 77.0261 795.066 79.8071L796.48 78.3929ZM786.073 73.7C782.256 73.7 778.878 75.1515 775.974 77.9842L777.371 79.4158C779.934 76.9151 782.823 75.7 786.073 75.7V73.7ZM775.966 77.9929C773.125 80.8331 771.673 84.1823 771.673 88H773.673C773.673 84.751 774.887 81.9002 777.38 79.4071L775.966 77.9929ZM771.673 88V118H773.673V88H771.673ZM772.673 117H769.473V119H772.673V117ZM770.473 118V73H768.473V118H770.473ZM769.473 74H772.673V72H769.473V74ZM771.673 73V79.7H773.673V73H771.673ZM773.556 80.1679C774.657 78.0895 776.379 76.3517 778.774 74.9654L777.772 73.2346C775.099 74.7816 773.089 76.7772 771.789 79.2321L773.556 80.1679ZM778.774 74.9654C781.144 73.5931 783.802 72.9 786.773 72.9V70.9C783.476 70.9 780.468 71.6735 777.772 73.2346L778.774 74.9654ZM786.773 72.9C789.661 72.9 792.456 73.8785 795.176 75.9022L796.37 74.2978C793.356 72.0548 790.151 70.9 786.773 70.9V72.9ZM794.773 75.1V79.1H796.773V75.1H794.773Z" fill="#FF0000"/>
</svg>
