<svg width="84" height="85" viewBox="0 0 84 85" fill="none" xmlns="http://www.w3.org/2000/svg">
<rect width="73" height="78" fill="black" fill-opacity="0" transform="translate(4)"/>
<g filter="url(#filter0_d)">
<rect width="63.3333" height="63.3333" fill="black" fill-opacity="0" transform="translate(5 1)"/>
<rect width="63.3333" height="63.3333" fill="black" fill-opacity="0" transform="translate(5 1)"/>
<path d="M36.6667 1C19.155 1 5 15.155 5 32.6667C5 50.1783 19.155 64.3333 36.6667 64.3333C54.1783 64.3333 68.3333 50.1783 68.3333 32.6667C68.3333 15.155 54.1783 1 36.6667 1ZM36.6667 58C22.7017 58 11.3333 46.6317 11.3333 32.6667C11.3333 18.7017 22.7017 7.33333 36.6667 7.33333C50.6317 7.33333 62 18.7017 62 32.6667C62 46.6317 50.6317 58 36.6667 58Z" fill="#FF0000"/>
<path d="M48.035 16.8333L36.6666 28.2016L25.2983 16.8333L20.8333 21.2983L32.2016 32.6666L20.8333 44.0349L25.2983 48.4999L36.6666 37.1316L48.035 48.4999L52.5 44.0349L41.1316 32.6666L52.5 21.2983L48.035 16.8333Z" fill="#FF0000"/>
</g>
<defs>
<filter id="filter0_d" x="0" y="1" width="83.3333" height="83.3333" filterUnits="userSpaceOnUse" color-interpolation-filters="sRGB">
<feFlood flood-opacity="0" result="BackgroundImageFix"/>
<feColorMatrix in="SourceAlpha" type="matrix" values="0 0 0 0 0 0 0 0 0 0 0 0 0 0 0 0 0 0 255 0"/>
<feOffset dx="5" dy="10"/>
<feGaussianBlur stdDeviation="5"/>
<feColorMatrix type="matrix" values="0 0 0 0 0 0 0 0 0 0 0 0 0 0 0 0 0 0 1 0"/>
<feBlend mode="normal" in2="BackgroundImageFix" result="effect1_dropShadow"/>
<feBlend mode="normal" in="SourceGraphic" in2="effect1_dropShadow" result="shape"/>
</filter>
</defs>
</svg>
