<svg width="88" height="85" viewBox="0 0 88 85" fill="none" xmlns="http://www.w3.org/2000/svg">
<g filter="url(#filter0_d)">
<path d="M38.9041 1C20.193 1 5.06848 15.155 5.06848 32.6667C5.06848 50.1783 20.193 64.3333 38.9041 64.3333C57.6152 64.3333 72.7397 50.1783 72.7397 32.6667C72.7397 15.155 57.6152 1 38.9041 1ZM38.9041 58C23.9826 58 11.8356 46.6317 11.8356 32.6667C11.8356 18.7017 23.9826 7.33333 38.9041 7.33333C53.8256 7.33333 65.9726 18.7017 65.9726 32.6667C65.9726 46.6317 53.8256 58 38.9041 58Z" fill="#FF0000"/>
<path d="M51.0511 16.8333L38.9041 28.2016L26.7571 16.8333L21.9863 21.2983L34.1333 32.6666L21.9863 44.0349L26.7571 48.4999L38.9041 37.1316L51.0511 48.4999L55.8219 44.0349L43.6749 32.6666L55.8219 21.2983L51.0511 16.8333Z" fill="#FF0000"/>
</g>
<defs>
<filter id="filter0_d" x="0.0684814" y="1" width="87.6712" height="83.3333" filterUnits="userSpaceOnUse" color-interpolation-filters="sRGB">
<feFlood flood-opacity="0" result="BackgroundImageFix"/>
<feColorMatrix in="SourceAlpha" type="matrix" values="0 0 0 0 0 0 0 0 0 0 0 0 0 0 0 0 0 0 127 0"/>
<feOffset dx="5" dy="10"/>
<feGaussianBlur stdDeviation="5"/>
<feColorMatrix type="matrix" values="0 0 0 0 0 0 0 0 0 0 0 0 0 0 0 0 0 0 0.8 0"/>
<feBlend mode="normal" in2="BackgroundImageFix" result="effect1_dropShadow"/>
<feBlend mode="normal" in="SourceGraphic" in2="effect1_dropShadow" result="shape"/>
</filter>
</defs>
</svg>
