<svg width="68" height="64" viewBox="0 0 68 64" fill="none" xmlns="http://www.w3.org/2000/svg">
<path d="M33.8356 0C15.1245 0 0 14.155 0 31.6667C0 49.1783 15.1245 63.3333 33.8356 63.3333C52.5467 63.3333 67.6712 49.1783 67.6712 31.6667C67.6712 14.155 52.5467 0 33.8356 0ZM33.8356 57C18.9141 57 6.76712 45.6317 6.76712 31.6667C6.76712 17.7017 18.9141 6.33333 33.8356 6.33333C48.7571 6.33333 60.9041 17.7017 60.9041 31.6667C60.9041 45.6317 48.7571 57 33.8356 57Z" fill="#FF0000"/>
<path d="M45.9826 15.8333L33.8356 27.2016L21.6886 15.8333L16.9178 20.2983L29.0648 31.6666L16.9178 43.0349L21.6886 47.4999L33.8356 36.1316L45.9826 47.4999L50.7534 43.0349L38.6064 31.6666L50.7534 20.2983L45.9826 15.8333Z" fill="#FF0000"/>
</svg>
