<svg width="700" height="115" viewBox="0 0 700 115" fill="none" xmlns="http://www.w3.org/2000/svg">
<path d="M38.7 28.6C37.1667 25.8 35.0667 23.6 32.4 22C29.8 20.4 26.8667 19.6 23.6 19.6C20.3333 19.6 17.5333 20.6333 15.2 22.7C12.9333 24.7 11.8 27.4667 11.8 31V31.5C11.8 35.7 14.1333 39.5333 18.8 43C20.8 44.4667 23.0333 45.9333 25.5 47.4C28.0333 48.8 30.5333 50.3333 33 52C35.5333 53.6 37.8 55.3333 39.8 57.2C41.8667 59 43.5333 61.2333 44.8 63.9C46.1333 66.5667 46.8 69.5 46.8 72.7V73.7C46.8 80.0333 44.6333 85.0667 40.3 88.8C36.0333 92.5333 30.7333 94.4 24.4 94.4C16.0667 94.4 9.6 90.9667 5 84.1V78.7C6.73333 82.5 9.26667 85.6 12.6 88C16 90.3333 20.2 91.5 25.2 91.5C30.2 91.5 34.5333 89.9 38.2 86.7C41.8667 83.5 43.7 79.2333 43.7 73.9V73.3C43.7 69.9667 42.8333 66.9333 41.1 64.2C39.3667 61.4 37.2 59.1333 34.6 57.4C32 55.6 29.1667 53.7333 26.1 51.8C23.0333 49.8667 20.2 48.0667 17.6 46.4C15 44.7333 12.8333 42.6333 11.1 40.1C9.36667 37.5667 8.5 34.8 8.5 31.8V31.1C8.5 26.4333 10 22.8667 13 20.4C16 17.9333 19.7 16.7 24.1 16.7C30.2333 16.7 35.1 18.9667 38.7 23.5V28.6ZM176.266 48.1V93H173.066V48.1H176.266ZM174.666 37.1C172.732 37.1 171.766 36.2 171.766 34.4C171.766 32.6 172.732 31.7 174.666 31.7C176.599 31.7 177.566 32.6 177.566 34.4C177.566 36.2 176.599 37.1 174.666 37.1ZM246.639 91.1V93.9C241.906 93.9 237.872 92.3333 234.539 89.2C231.206 86 229.539 81.9333 229.539 77V18H232.739V77C232.739 81.0667 234.072 84.4333 236.739 87.1C239.472 89.7667 242.772 91.1 246.639 91.1ZM294.637 93V18H297.837V59C299.637 55.3333 302.437 52.4 306.237 50.2C310.103 48 314.103 46.9 318.237 46.9C324.837 46.9 330.437 49.2333 335.037 53.9C339.703 58.5 342.037 64.0333 342.037 70.5C342.037 76.9667 339.703 82.5333 335.037 87.2C330.437 91.8 324.837 94.1 318.237 94.1C314.237 94.1 310.337 93.0333 306.537 90.9C302.737 88.7 299.837 85.7667 297.837 82.1V93H294.637ZM297.637 70.6C297.637 76.2 299.67 81.0667 303.737 85.2C307.87 89.2667 312.737 91.3 318.337 91.3C324.003 91.3 328.837 89.2667 332.837 85.2C336.837 81.0667 338.837 76.2 338.837 70.6C338.837 64.9333 336.803 60.0333 332.737 55.9C328.737 51.7667 323.937 49.7 318.337 49.7C312.737 49.7 307.87 51.8 303.737 56C299.67 60.1333 297.637 65 297.637 70.6ZM417.87 54.1C414.937 51.1667 411.704 49.7 408.17 49.7C404.637 49.7 401.504 51.0333 398.77 53.7C396.104 56.3667 394.77 59.4667 394.77 63V93H391.57V48H394.77V54.7C395.97 52.4333 397.837 50.5667 400.37 49.1C402.904 47.6333 405.737 46.9 408.87 46.9C412.004 46.9 415.004 47.9667 417.87 50.1V54.1ZM502.536 48H505.736V93H502.536V83.9C499.136 90.7 493.336 94.1 485.136 94.1C479.536 94.1 474.836 92.1667 471.036 88.3C467.236 84.4333 465.336 79.7333 465.336 74.2V48H468.536V74.2C468.536 78.8 470.136 82.8 473.336 86.2C476.603 89.6 480.536 91.3 485.136 91.3C489.736 91.3 493.769 89.6 497.236 86.2C500.769 82.8 502.536 78.8 502.536 74.2V48ZM578.527 94.3H577.627C571.227 94.3 565.727 91.9333 561.127 87.2C556.527 82.4667 554.227 76.9333 554.227 70.6C554.227 64.2 556.56 58.7 561.227 54.1C565.893 49.4333 571.627 47.1 578.427 47.1C585.227 47.1 591.027 49.6667 595.827 54.8V59.9C593.76 56.8333 591.127 54.4 587.927 52.6C584.793 50.8 581.493 49.9 578.027 49.9C572.493 49.9 567.66 51.9667 563.527 56.1C559.46 60.1667 557.427 65.0333 557.427 70.7C557.427 76.3667 559.46 81.2667 563.527 85.4C567.66 89.4667 572.493 91.5 578.027 91.5C581.493 91.5 584.793 90.6 587.927 88.8C591.127 87 593.76 84.5333 595.827 81.4V86.6C591.16 91.7333 585.393 94.3 578.527 94.3ZM647.485 93H644.285V18.1H647.485V56.7C650.818 50.1667 656.585 46.9 664.785 46.9C670.385 46.9 675.085 48.8333 678.885 52.7C682.752 56.5667 684.685 61.2667 684.685 66.8V93H681.485V66.8C681.485 62.1333 679.852 58.1333 676.585 54.8C673.318 51.4 669.385 49.7 664.785 49.7C660.185 49.7 656.152 51.4 652.685 54.8C649.218 58.2 647.485 62.2 647.485 66.8V93Z" fill="#FF0000"/>
<path d="M38.7 28.6L37.8229 29.0803L39.7 28.6H38.7ZM32.4 22L31.8759 22.8517L31.8855 22.8575L32.4 22ZM15.2 22.7L15.8616 23.4498L15.863 23.4486L15.2 22.7ZM18.8 43L18.2037 43.8028L18.2086 43.8064L18.8 43ZM25.5 47.4L24.9889 48.2595L25.0025 48.2676L25.0163 48.2752L25.5 47.4ZM33 52L32.4401 52.8286L32.4529 52.8372L32.466 52.8455L33 52ZM39.8 57.2L39.1177 57.9311L39.1303 57.9428L39.1432 57.9541L39.8 57.2ZM44.8 63.9L43.8967 64.3291L43.9011 64.3382L43.9056 64.3472L44.8 63.9ZM40.3 88.8L39.6473 88.0424L39.6415 88.0474L40.3 88.8ZM5 84.1H4V84.404L4.16919 84.6566L5 84.1ZM5 78.7L5.90982 78.285L4 78.7H5ZM12.6 88L12.0157 88.8115L12.0249 88.8181L12.0342 88.8245L12.6 88ZM38.2 86.7L38.8575 87.4534L38.2 86.7ZM41.1 64.2L40.2497 64.7264L40.2555 64.7355L41.1 64.2ZM34.6 57.4L34.0308 58.2222L34.038 58.2272L34.0453 58.232L34.6 57.4ZM26.1 51.8L26.6333 50.9541L26.1 51.8ZM11.1 40.1L11.9253 39.5353L11.1 40.1ZM38.7 23.5H39.7V23.1512L39.4831 22.8781L38.7 23.5ZM39.5771 28.1197C37.9609 25.1683 35.7375 22.8363 32.9145 21.1425L31.8855 22.8575C34.3958 24.3637 36.3725 26.4317 37.8229 29.0803L39.5771 28.1197ZM32.9241 21.1483C30.1554 19.4445 27.0382 18.6 23.6 18.6V20.6C26.6951 20.6 29.4446 21.3555 31.8759 22.8517L32.9241 21.1483ZM23.6 18.6C20.1019 18.6 17.0626 19.7145 14.537 21.9514L15.863 23.4486C18.0041 21.5522 20.5648 20.6 23.6 20.6V18.6ZM14.5384 21.9502C12.0196 24.1726 10.8 27.2331 10.8 31H12.8C12.8 27.7002 13.8471 25.2273 15.8616 23.4498L14.5384 21.9502ZM10.8 31V31.5H12.8V31H10.8ZM10.8 31.5C10.8 36.1272 13.3876 40.2251 18.2037 43.8027L19.3963 42.1973C14.8791 38.8416 12.8 35.2728 12.8 31.5H10.8ZM18.2086 43.8064C20.2382 45.2947 22.4988 46.7789 24.9889 48.2595L26.0111 46.5405C23.5678 45.0877 21.3618 43.6386 19.3914 42.1936L18.2086 43.8064ZM25.0163 48.2752C27.5228 49.6604 29.9975 51.1781 32.4401 52.8286L33.5599 51.1714C31.0692 49.4885 28.5438 47.9396 25.9837 46.5248L25.0163 48.2752ZM32.466 52.8455C34.9514 54.4152 37.1675 56.1109 39.1177 57.9311L40.4823 56.4689C38.4325 54.5558 36.1153 52.7848 33.534 51.1545L32.466 52.8455ZM39.1432 57.9541C41.0985 59.657 42.6844 61.7768 43.8967 64.3291L45.7033 63.4709C44.3823 60.6898 42.6349 58.343 40.4568 56.4459L39.1432 57.9541ZM43.9056 64.3472C45.1645 66.865 45.8 69.6436 45.8 72.7H47.8C47.8 69.3564 47.1022 66.2684 45.6944 63.4528L43.9056 64.3472ZM45.8 72.7V73.7H47.8V72.7H45.8ZM45.8 73.7C45.8 79.7774 43.7349 84.5208 39.6473 88.0424L40.9527 89.5576C45.5318 85.6125 47.8 80.2893 47.8 73.7H45.8ZM39.6415 88.0474C35.5788 91.6023 30.5215 93.4 24.4 93.4V95.4C30.9451 95.4 36.4879 93.4644 40.9585 89.5526L39.6415 88.0474ZM24.4 93.4C16.3969 93.4 10.2433 90.1302 5.83081 83.5434L4.16919 84.6566C8.95668 91.8031 15.7364 95.4 24.4 95.4V93.4ZM6 84.1V78.7H4V84.1H6ZM4.09018 79.115C5.89442 83.0704 8.53875 86.3081 12.0157 88.8115L13.1843 87.1885C9.99458 84.8919 7.57225 81.9296 5.90982 78.285L4.09018 79.115ZM12.0342 88.8245C15.6333 91.2945 20.0416 92.5 25.2 92.5V90.5C20.3584 90.5 16.3667 89.3721 13.1658 87.1755L12.0342 88.8245ZM25.2 92.5C30.4345 92.5 35.0033 90.8171 38.8575 87.4534L37.5425 85.9466C34.0634 88.9829 29.9655 90.5 25.2 90.5V92.5ZM38.8575 87.4534C42.7642 84.044 44.7 79.491 44.7 73.9H42.7C42.7 78.9757 40.9691 82.956 37.5425 85.9466L38.8575 87.4534ZM44.7 73.9V73.3H42.7V73.9H44.7ZM44.7 73.3C44.7 69.783 43.7826 66.5629 41.9445 63.6645L40.2555 64.7355C41.8841 67.3037 42.7 70.1503 42.7 73.3H44.7ZM41.9503 63.6736C40.1456 60.7584 37.8804 58.3851 35.1547 56.5679L34.0453 58.232C36.5196 59.8816 38.5877 62.0416 40.2497 64.7264L41.9503 63.6736ZM35.1692 56.5778C32.5559 54.7686 29.7104 52.894 26.6333 50.9541L25.5667 52.6459C28.6229 54.5727 31.4441 56.4314 34.0308 58.2222L35.1692 56.5778ZM26.6333 50.9541C23.5684 49.0219 20.7372 47.2232 18.1397 45.5581L17.0603 47.2419C19.6628 48.9101 22.4983 50.7115 25.5667 52.6459L26.6333 50.9541ZM18.1397 45.5581C15.6518 43.9633 13.5825 41.9573 11.9253 39.5353L10.2747 40.6647C12.0842 43.3093 14.3482 45.5033 17.0603 47.2419L18.1397 45.5581ZM11.9253 39.5353C10.303 37.1642 9.5 34.5935 9.5 31.8H7.5C7.5 35.0064 8.43037 37.9691 10.2747 40.6647L11.9253 39.5353ZM9.5 31.8V31.1H7.5V31.8H9.5ZM9.5 31.1C9.5 26.6658 10.9131 23.4105 13.6351 21.1724L12.3649 19.6276C9.08691 22.3228 7.5 26.2009 7.5 31.1H9.5ZM13.6351 21.1724C16.4325 18.8723 19.8991 17.7 24.1 17.7V15.7C19.5009 15.7 15.5675 16.9943 12.3649 19.6276L13.6351 21.1724ZM24.1 17.7C29.9492 17.7 34.5192 19.8434 37.9169 24.1219L39.4831 22.8781C35.6808 18.09 30.5174 15.7 24.1 15.7V17.7ZM37.7 23.5V28.6H39.7V23.5H37.7ZM176.266 48.1H177.266V47.1H176.266V48.1ZM176.266 93V94H177.266V93H176.266ZM173.066 93H172.066V94H173.066V93ZM173.066 48.1V47.1H172.066V48.1H173.066ZM175.266 48.1V93H177.266V48.1H175.266ZM176.266 92H173.066V94H176.266V92ZM174.066 93V48.1H172.066V93H174.066ZM173.066 49.1H176.266V47.1H173.066V49.1ZM174.666 36.1C173.836 36.1 173.4 35.9055 173.172 35.6931C172.957 35.4933 172.766 35.1268 172.766 34.4H170.766C170.766 35.4732 171.057 36.4567 171.809 37.1569C172.548 37.8445 173.562 38.1 174.666 38.1V36.1ZM172.766 34.4C172.766 33.6732 172.957 33.3067 173.172 33.1069C173.4 32.8945 173.836 32.7 174.666 32.7V30.7C173.562 30.7 172.548 30.9555 171.809 31.6431C171.057 32.3433 170.766 33.3268 170.766 34.4H172.766ZM174.666 32.7C175.495 32.7 175.931 32.8945 176.159 33.1069C176.374 33.3067 176.566 33.6732 176.566 34.4H178.566C178.566 33.3268 178.274 32.3433 177.522 31.6431C176.783 30.9555 175.769 30.7 174.666 30.7V32.7ZM176.566 34.4C176.566 35.1268 176.374 35.4933 176.159 35.6931C175.931 35.9055 175.495 36.1 174.666 36.1V38.1C175.769 38.1 176.783 37.8445 177.522 37.1569C178.274 36.4567 178.566 35.4732 178.566 34.4H176.566ZM246.639 91.1H247.639V90.1H246.639V91.1ZM246.639 93.9V94.9H247.639V93.9H246.639ZM234.539 89.2L233.846 89.9214L233.854 89.9286L234.539 89.2ZM229.539 18V17H228.539V18H229.539ZM232.739 18H233.739V17H232.739V18ZM236.739 87.1L236.032 87.8072L236.041 87.8158L236.739 87.1ZM245.639 91.1V93.9H247.639V91.1H245.639ZM246.639 92.9C242.15 92.9 238.365 91.4238 235.224 88.4714L233.854 89.9286C237.38 93.2429 241.661 94.9 246.639 94.9V92.9ZM235.232 88.4786C232.109 85.4809 230.539 81.6816 230.539 77H228.539C228.539 82.1851 230.302 86.519 233.847 89.9214L235.232 88.4786ZM230.539 77V18H228.539V77H230.539ZM229.539 19H232.739V17H229.539V19ZM231.739 18V77H233.739V18H231.739ZM231.739 77C231.739 81.3089 233.162 84.9373 236.032 87.8071L237.446 86.3929C234.983 83.9294 233.739 80.8244 233.739 77H231.739ZM236.041 87.8158C238.963 90.6672 242.515 92.1 246.639 92.1V90.1C243.03 90.1 239.981 88.8661 237.437 86.3842L236.041 87.8158ZM294.637 93H293.637V94H294.637V93ZM294.637 18V17H293.637V18H294.637ZM297.837 18H298.837V17H297.837V18ZM297.837 59H296.837L298.734 59.4407L297.837 59ZM306.237 50.2L305.742 49.3308L305.736 49.3346L306.237 50.2ZM335.037 53.9L334.325 54.602L334.33 54.6071L334.335 54.6122L335.037 53.9ZM335.037 87.2L334.33 86.4929L335.037 87.2ZM306.537 90.9L306.036 91.7655L306.047 91.772L306.537 90.9ZM297.837 82.1L298.715 81.6211L296.837 82.1H297.837ZM297.837 93V94H298.837V93H297.837ZM303.737 85.2L303.024 85.9013L303.03 85.9071L303.035 85.9128L303.737 85.2ZM332.837 85.2L333.55 85.9013L333.555 85.8954L332.837 85.2ZM332.737 55.9L332.018 56.5954L332.024 56.6013L332.737 55.9ZM303.737 56L303.024 55.2986L303.024 55.2987L303.737 56ZM295.637 93V18H293.637V93H295.637ZM294.637 19H297.837V17H294.637V19ZM296.837 18V59H298.837V18H296.837ZM298.734 59.4407C300.441 55.9652 303.096 53.174 306.738 51.0654L305.736 49.3346C301.778 51.626 298.833 54.7015 296.939 58.5593L298.734 59.4407ZM306.731 51.0692C310.459 48.9482 314.29 47.9 318.237 47.9V45.9C313.917 45.9 309.748 47.0518 305.742 49.3308L306.731 51.0692ZM318.237 47.9C324.571 47.9 329.914 50.1275 334.325 54.602L335.749 53.198C330.959 48.3391 325.102 45.9 318.237 45.9V47.9ZM334.335 54.6122C338.814 59.0271 341.037 64.305 341.037 70.5H343.037C343.037 63.7616 340.593 57.9729 335.739 53.1878L334.335 54.6122ZM341.037 70.5C341.037 76.6954 338.813 82.0094 334.33 86.4929L335.744 87.9071C340.594 83.0572 343.037 77.2379 343.037 70.5H341.037ZM334.33 86.4929C329.92 90.9023 324.576 93.1 318.237 93.1V95.1C325.098 95.1 330.953 92.6977 335.744 87.9071L334.33 86.4929ZM318.237 93.1C314.423 93.1 310.69 92.0851 307.026 90.028L306.047 91.772C309.983 93.9815 314.05 95.1 318.237 95.1V93.1ZM307.038 90.0346C303.388 87.9215 300.622 85.1184 298.715 81.6211L296.959 82.5788C299.051 86.4149 302.086 89.4785 306.036 91.7654L307.038 90.0346ZM296.837 82.1V93H298.837V82.1H296.837ZM297.837 92H294.637V94H297.837V92ZM296.637 70.6C296.637 76.4726 298.78 81.5883 303.024 85.9013L304.45 84.4987C300.56 80.545 298.637 75.9274 298.637 70.6H296.637ZM303.035 85.9128C307.348 90.1563 312.464 92.3 318.337 92.3V90.3C313.009 90.3 308.392 88.3771 304.438 84.4872L303.035 85.9128ZM318.337 92.3C324.273 92.3 329.363 90.1576 333.55 85.9012L332.124 84.4988C328.31 88.3757 323.733 90.3 318.337 90.3V92.3ZM333.555 85.8954C337.73 81.5812 339.837 76.4673 339.837 70.6H337.837C337.837 75.9327 335.943 80.5521 332.118 84.5046L333.555 85.8954ZM339.837 70.6C339.837 64.6642 337.695 59.5142 333.45 55.1987L332.024 56.6013C335.911 60.5525 337.837 65.2025 337.837 70.6H339.837ZM333.455 55.2046C329.273 50.8825 324.216 48.7 318.337 48.7V50.7C323.658 50.7 328.201 52.6508 332.018 56.5954L333.455 55.2046ZM318.337 48.7C312.453 48.7 307.334 50.9187 303.024 55.2986L304.449 56.7014C308.406 52.6813 313.02 50.7 318.337 50.7V48.7ZM303.024 55.2987C298.78 59.6117 296.637 64.7274 296.637 70.6H298.637C298.637 65.2726 300.56 60.655 304.45 56.7013L303.024 55.2987ZM417.87 54.1L417.163 54.8071L418.87 56.5142V54.1H417.87ZM398.77 53.7L398.072 52.9842L398.063 52.9929L398.77 53.7ZM394.77 93V94H395.77V93H394.77ZM391.57 93H390.57V94H391.57V93ZM391.57 48V47H390.57V48H391.57ZM394.77 48H395.77V47H394.77V48ZM394.77 54.7H393.77L395.654 55.1679L394.77 54.7ZM400.37 49.1L400.871 49.9654L400.37 49.1ZM417.87 50.1H418.87V49.5977L418.467 49.2978L417.87 50.1ZM418.577 53.3929C415.492 50.3072 412.015 48.7 408.17 48.7V50.7C411.393 50.7 414.382 52.0261 417.163 54.8071L418.577 53.3929ZM408.17 48.7C404.354 48.7 400.976 50.1515 398.072 52.9842L399.469 54.4158C402.032 51.9151 404.92 50.7 408.17 50.7V48.7ZM398.063 52.9929C395.223 55.8331 393.77 59.1823 393.77 63H395.77C395.77 59.751 396.984 56.9002 399.477 54.4071L398.063 52.9929ZM393.77 63V93H395.77V63H393.77ZM394.77 92H391.57V94H394.77V92ZM392.57 93V48H390.57V93H392.57ZM391.57 49H394.77V47H391.57V49ZM393.77 48V54.7H395.77V48H393.77ZM395.654 55.1679C396.754 53.0895 398.477 51.3517 400.871 49.9654L399.869 48.2346C397.197 49.7816 395.186 51.7772 393.887 54.2321L395.654 55.1679ZM400.871 49.9654C403.242 48.5931 405.9 47.9 408.87 47.9V45.9C405.574 45.9 402.566 46.6735 399.869 48.2346L400.871 49.9654ZM408.87 47.9C411.759 47.9 414.554 48.8785 417.273 50.9022L418.467 49.2978C415.453 47.0548 412.248 45.9 408.87 45.9V47.9ZM416.87 50.1V54.1H418.87V50.1H416.87ZM502.536 48V47H501.536V48H502.536ZM505.736 48H506.736V47H505.736V48ZM505.736 93V94H506.736V93H505.736ZM502.536 93H501.536V94H502.536V93ZM502.536 83.9H503.536L501.642 83.4528L502.536 83.9ZM471.036 88.3L471.749 87.5991L471.036 88.3ZM465.336 48V47H464.336V48H465.336ZM468.536 48H469.536V47H468.536V48ZM473.336 86.2L472.608 86.8854L472.615 86.8928L473.336 86.2ZM497.236 86.2L496.543 85.4794L496.536 85.4861L497.236 86.2ZM502.536 49H505.736V47H502.536V49ZM504.736 48V93H506.736V48H504.736ZM505.736 92H502.536V94H505.736V92ZM503.536 93V83.9H501.536V93H503.536ZM501.642 83.4528C500.016 86.7029 497.842 89.0977 495.13 90.6873C492.414 92.2796 489.097 93.1 485.136 93.1V95.1C489.375 95.1 493.058 94.2204 496.142 92.4127C499.23 90.6023 501.655 87.8971 503.43 84.3472L501.642 83.4528ZM485.136 93.1C479.794 93.1 475.354 91.2675 471.749 87.5991L470.323 89.0009C474.318 93.0659 479.278 95.1 485.136 95.1V93.1ZM471.749 87.5991C468.137 83.9237 466.336 79.4772 466.336 74.2H464.336C464.336 79.9895 466.335 84.943 470.323 89.0009L471.749 87.5991ZM466.336 74.2V48H464.336V74.2H466.336ZM465.336 49H468.536V47H465.336V49ZM467.536 48V74.2H469.536V48H467.536ZM467.536 74.2C467.536 79.059 469.236 83.303 472.608 86.8854L474.064 85.5146C471.036 82.297 469.536 78.541 469.536 74.2H467.536ZM472.615 86.8928C476.065 90.4836 480.256 92.3 485.136 92.3V90.3C480.816 90.3 477.14 88.7165 474.057 85.5072L472.615 86.8928ZM485.136 92.3C490.013 92.3 494.294 90.486 497.936 86.9139L496.536 85.4861C493.245 88.714 489.458 90.3 485.136 90.3V92.3ZM497.929 86.9206C501.644 83.3459 503.536 79.0913 503.536 74.2H501.536C501.536 78.5087 499.894 82.2541 496.543 85.4794L497.929 86.9206ZM503.536 74.2V48H501.536V74.2H503.536ZM561.127 87.2L560.409 87.8969L561.127 87.2ZM561.227 54.1L561.929 54.8122L561.934 54.8071L561.227 54.1ZM595.827 54.8H596.827V54.4053L596.557 54.117L595.827 54.8ZM595.827 59.9L594.997 60.4589L596.827 63.1732V59.9H595.827ZM587.927 52.6L587.428 53.4671L587.436 53.4716L587.927 52.6ZM563.527 56.1L564.234 56.8071L563.527 56.1ZM563.527 85.4L562.814 86.1013L562.819 86.1071L562.825 86.1128L563.527 85.4ZM587.927 88.8L587.436 87.9284L587.428 87.9329L587.927 88.8ZM595.827 81.4H596.827V78.0677L594.992 80.8494L595.827 81.4ZM595.827 86.6L596.567 87.2727L596.827 86.9866V86.6H595.827ZM578.527 93.3H577.627V95.3H578.527V93.3ZM577.627 93.3C571.506 93.3 566.262 91.0495 561.844 86.5031L560.409 87.8969C565.191 92.8172 570.947 95.3 577.627 95.3V93.3ZM561.844 86.5031C557.417 81.9476 555.227 76.6611 555.227 70.6H553.227C553.227 77.2055 555.637 82.9857 560.409 87.8969L561.844 86.5031ZM555.227 70.6C555.227 64.4748 557.447 59.2293 561.929 54.8122L560.525 53.3878C555.672 58.1707 553.227 63.9252 553.227 70.6H555.227ZM561.934 54.8071C566.407 50.3342 571.883 48.1 578.427 48.1V46.1C571.37 46.1 565.38 48.5324 560.519 53.3929L561.934 54.8071ZM578.427 48.1C584.939 48.1 590.478 50.5442 595.096 55.483L596.557 54.117C591.575 48.7891 585.514 46.1 578.427 46.1V48.1ZM594.827 54.8V59.9H596.827V54.8H594.827ZM596.656 59.3411C594.503 56.1462 591.754 53.6054 588.417 51.7284L587.436 53.4716C590.499 55.1946 593.017 57.5204 594.997 60.4589L596.656 59.3411ZM588.425 51.7329C585.146 49.8497 581.676 48.9 578.027 48.9V50.9C581.311 50.9 584.44 51.7503 587.428 53.4671L588.425 51.7329ZM578.027 48.9C572.212 48.9 567.129 51.0838 562.819 55.3929L564.234 56.8071C568.191 52.8496 572.775 50.9 578.027 50.9V48.9ZM562.819 55.3929C558.568 59.644 556.427 64.7637 556.427 70.7H558.427C558.427 65.303 560.351 60.6894 564.234 56.8071L562.819 55.3929ZM556.427 70.7C556.427 76.6358 558.568 81.7858 562.814 86.1013L564.239 84.6987C560.352 80.7475 558.427 76.0975 558.427 70.7H556.427ZM562.825 86.1128C567.136 90.3537 572.217 92.5 578.027 92.5V90.5C572.769 90.5 568.184 88.5796 564.228 84.6872L562.825 86.1128ZM578.027 92.5C581.676 92.5 585.146 91.5503 588.425 89.6671L587.428 87.9329C584.44 89.6497 581.311 90.5 578.027 90.5V92.5ZM588.417 89.6716C591.759 87.7917 594.509 85.2137 596.661 81.9506L594.992 80.8494C593.011 83.8529 590.494 86.2083 587.436 87.9284L588.417 89.6716ZM594.827 81.4V86.6H596.827V81.4H594.827ZM595.087 85.9273C590.607 90.8546 585.108 93.3 578.527 93.3V95.3C585.678 95.3 591.713 92.612 596.567 87.2727L595.087 85.9273ZM647.485 93V94H648.485V93H647.485ZM644.285 93H643.285V94H644.285V93ZM644.285 18.1V17.1H643.285V18.1H644.285ZM647.485 18.1H648.485V17.1H647.485V18.1ZM647.485 56.7H646.485L648.376 57.1545L647.485 56.7ZM678.885 52.7L678.172 53.401L678.178 53.4071L678.885 52.7ZM684.685 93V94H685.685V93H684.685ZM681.485 93H680.485V94H681.485V93ZM676.585 54.8L675.864 55.4929L675.871 55.4999L676.585 54.8ZM647.485 92H644.285V94H647.485V92ZM645.285 93V18.1H643.285V93H645.285ZM644.285 19.1H647.485V17.1H644.285V19.1ZM646.485 18.1V56.7H648.485V18.1H646.485ZM648.376 57.1545C649.963 54.043 652.108 51.7467 654.803 50.2201C657.504 48.6899 660.817 47.9 664.785 47.9V45.9C660.553 45.9 656.883 46.7434 653.817 48.4799C650.745 50.22 648.34 52.8237 646.594 56.2455L648.376 57.1545ZM664.785 47.9C670.127 47.9 674.567 49.7325 678.172 53.4009L679.598 51.9991C675.604 47.9341 670.643 45.9 664.785 45.9V47.9ZM678.178 53.4071C681.855 57.0837 683.685 61.5283 683.685 66.8H685.685C685.685 61.005 683.649 56.0496 679.592 51.9929L678.178 53.4071ZM683.685 66.8V93H685.685V66.8H683.685ZM684.685 92H681.485V94H684.685V92ZM682.485 93V66.8H680.485V93H682.485ZM682.485 66.8C682.485 61.8716 680.749 57.6203 677.299 54.1001L675.871 55.4999C678.954 58.6464 680.485 62.3951 680.485 66.8H682.485ZM677.306 54.1072C673.856 50.5164 669.665 48.7 664.785 48.7V50.7C669.105 50.7 672.781 52.2835 675.864 55.4928L677.306 54.1072ZM664.785 48.7C659.908 48.7 655.627 50.514 651.985 54.0861L653.385 55.5139C656.677 52.286 660.463 50.7 664.785 50.7V48.7ZM651.985 54.0861C648.338 57.6625 646.485 61.9152 646.485 66.8H648.485C648.485 62.4848 650.099 58.7375 653.385 55.5139L651.985 54.0861ZM646.485 66.8V93H648.485V66.8H646.485Z" fill="#FF0000"/>
<path d="M95.0211 32.2L95.0212 29.4C99.7546 29.4 103.788 30.9667 107.121 34.1C110.454 37.3 112.121 41.3667 112.12 46.3L112.118 93.1H108.918L108.919 74.9H95.1192L95.1194 72.1H108.919L108.92 46.3C108.921 42.2333 107.587 38.8667 104.921 36.2C102.188 33.5333 98.8878 32.2 95.0211 32.2Z" fill="#FF0000"/>
<path d="M95.0211 32.2H94.0211L94.0211 33.2H95.0211L95.0211 32.2ZM95.0212 29.4L95.0213 28.4H94.0213L94.0212 29.4H95.0212ZM107.121 34.1L107.814 33.3786L107.806 33.3714L107.121 34.1ZM112.118 93.1L112.118 94.1H113.118L113.118 93.1H112.118ZM108.918 93.1H107.918L107.918 94.1H108.918L108.918 93.1ZM108.919 74.9H109.919L109.919 73.9H108.919L108.919 74.9ZM95.1192 74.9H94.1192L94.1192 75.9H95.1192L95.1192 74.9ZM95.1194 72.1L95.1194 71.1H94.1194L94.1194 72.1H95.1194ZM108.919 72.1L108.919 73.1H109.919L109.919 72.1H108.919ZM104.921 36.2L105.628 35.4928L105.619 35.4842L104.921 36.2ZM96.0211 32.2L96.0212 29.4H94.0212L94.0211 32.2H96.0211ZM95.0212 30.4C99.5098 30.4 103.295 31.8762 106.436 34.8286L107.806 33.3714C104.28 30.0571 99.9994 28.4 95.0213 28.4L95.0212 30.4ZM106.428 34.8214C109.551 37.819 111.121 41.6184 111.12 46.3H113.12C113.121 41.1149 111.358 36.7809 107.814 33.3786L106.428 34.8214ZM111.12 46.3L111.118 93.1H113.118L113.12 46.3H111.12ZM112.118 92.1H108.918L108.918 94.1H112.118L112.118 92.1ZM109.918 93.1L109.919 74.9H107.919L107.918 93.1H109.918ZM108.919 73.9L95.1193 73.9L95.1192 75.9L108.919 75.9L108.919 73.9ZM96.1192 74.9L96.1194 72.1L94.1194 72.1L94.1192 74.9L96.1192 74.9ZM95.1193 73.1L108.919 73.1L108.919 71.1L95.1194 71.1L95.1193 73.1ZM109.919 72.1L109.92 46.3H107.92L107.919 72.1H109.919ZM109.92 46.3C109.921 41.9911 108.498 38.3627 105.628 35.4929L104.214 36.9071C106.677 39.3706 107.921 42.4756 107.92 46.3H109.92ZM105.619 35.4842C102.697 32.6328 99.1451 31.2 95.0211 31.2L95.0211 33.2C98.6305 33.2 101.679 34.4339 104.223 36.9158L105.619 35.4842Z" fill="#FF0000"/>
</svg>
