<svg width="767" height="111" viewBox="0 0 767 111" fill="none" xmlns="http://www.w3.org/2000/svg">
<g clip-path="url(#clip0)">
<g filter="url(#filter0_d)">
<path d="M71.9726 24.6632L71.9728 21.8632C76.7061 21.8632 80.7394 23.4298 84.0725 26.5632C87.4057 29.7632 89.0721 33.8298 89.0718 38.7632L89.0692 85.5632H85.8692L85.8703 67.3632H72.0703L72.0704 64.5632H85.8704L85.8718 38.7632C85.8721 34.6965 84.5389 31.3298 81.8724 28.6632C79.1392 25.9965 75.8393 24.6632 71.9726 24.6632Z" fill="#FF0000"/>
</g>
<g filter="url(#filter1_d)">
<path d="M17.2 86.1C14 86.1 11.1667 85.5667 8.7 84.5C6.23333 83.3667 4.46667 81.9333 3.4 80.2V74.9C4.66667 77.7667 6.4 79.9 8.6 81.3C10.8 82.6333 13.6 83.3 17 83.3C20.2667 83.3 22.9 82.3 24.9 80.3C26.9 78.2333 27.9 75.6 27.9 72.4C27.9 69.6667 27.3333 67.5667 26.2 66.1C25.0667 64.5667 23.2333 63.0333 20.7 61.5L16.9 59.3C14.1667 57.6333 12.1 56.3333 10.7 55.4C9.36667 54.4 8.3 53.3 7.5 52.1C6.7 50.8333 6.3 49.3667 6.3 47.7C6.3 45.0333 7.23333 42.9 9.1 41.3C10.9667 39.7 13.4 38.9 16.4 38.9C20.0667 38.9 23.1333 39.7333 25.6 41.4V45.8C23.5333 43.0667 20.5667 41.7 16.7 41.7C14.5667 41.7 12.8333 42.2333 11.5 43.3C10.1667 44.3667 9.5 45.7333 9.5 47.4C9.5 48.8667 9.9 50.1667 10.7 51.3C11.5 52.3667 12.6 53.3667 14 54.3C15.4667 55.2333 17.8667 56.6333 21.2 58.5C24.6 60.4333 27.1 62.4333 28.7 64.5C30.3 66.5 31.1 69.1333 31.1 72.4C31.1 76.5333 29.7333 79.8667 27 82.4C24.3333 84.8667 21.0667 86.1 17.2 86.1ZM146.938 29.7C146.005 29.7 145.172 29.3667 144.438 28.7C143.772 28.0333 143.438 27.2 143.438 26.2C143.438 25.2667 143.772 24.4667 144.438 23.8C145.172 23.1333 146.005 22.8 146.938 22.8C147.872 22.8 148.672 23.1333 149.338 23.8C150.072 24.4667 150.438 25.2667 150.438 26.2C150.438 27.2 150.072 28.0333 149.338 28.7C148.672 29.3667 147.872 29.7 146.938 29.7ZM145.338 40H148.538V85H145.338V40ZM220.548 85.9C217.415 85.9 214.548 85.2 211.948 83.8C209.348 82.3333 207.282 80.3 205.748 77.7C204.215 75.1 203.448 72.2 203.448 69V9.99999H206.648V69C206.648 71.6667 207.248 74.0667 208.448 76.2C209.715 78.3333 211.415 80.0333 213.548 81.3C215.682 82.5 218.015 83.1 220.548 83.1V85.9ZM294.49 86.1C290.423 86.1 286.49 85 282.69 82.8C278.957 80.6 276.09 77.7 274.09 74.1V85H270.89V9.99999H274.09V51.4C275.89 47.6 278.69 44.5667 282.49 42.3C286.29 40.0333 290.29 38.9 294.49 38.9C298.823 38.9 302.79 39.9667 306.39 42.1C310.057 44.2333 312.957 47.1 315.09 50.7C317.223 54.3 318.29 58.2333 318.29 62.5C318.29 66.7667 317.223 70.7 315.09 74.3C312.957 77.9 310.057 80.7667 306.39 82.9C302.79 85.0333 298.823 86.1 294.49 86.1ZM294.69 83.3C298.357 83.3 301.757 82.3667 304.89 80.5C308.023 78.5667 310.49 76.0333 312.29 72.9C314.157 69.7 315.09 66.2333 315.09 62.5C315.09 58.8333 314.157 55.4 312.29 52.2C310.423 49 307.923 46.4667 304.79 44.6C301.657 42.6667 298.257 41.7 294.59 41.7C290.923 41.7 287.49 42.6667 284.29 44.6C281.157 46.5333 278.623 49.1 276.69 52.3C274.823 55.5 273.89 58.9333 273.89 62.6C273.89 66.2667 274.823 69.7 276.69 72.9C278.623 76.0333 281.19 78.5667 284.39 80.5C287.59 82.3667 291.023 83.3 294.69 83.3ZM367.335 40H370.535V50.4C371.868 47.1333 373.802 44.5667 376.335 42.7C378.935 40.8333 381.868 39.9 385.135 39.9C387.202 39.9 389.302 40.3333 391.435 41.2V44.9C389.502 43.4333 387.335 42.7 384.935 42.7C382.535 42.7 380.202 43.4333 377.935 44.9C375.735 46.3667 373.935 48.3333 372.535 50.8C371.202 53.2667 370.535 55.9 370.535 58.7V85H367.335V40ZM455.166 29.4C454.366 29.4 453.666 29.1333 453.066 28.6C452.533 28 452.266 27.3 452.266 26.5C452.266 25.7667 452.533 25.1333 453.066 24.6C453.666 24 454.366 23.7 455.166 23.7C455.9 23.7 456.533 24 457.066 24.6C457.666 25.1333 457.966 25.7667 457.966 26.5C457.966 27.3 457.666 28 457.066 28.6C456.533 29.1333 455.9 29.4 455.166 29.4ZM465.766 29.4C464.966 29.4 464.266 29.1333 463.666 28.6C463.133 28 462.866 27.3 462.866 26.5C462.866 25.7667 463.133 25.1333 463.666 24.6C464.266 24 464.966 23.7 465.766 23.7C466.5 23.7 467.133 24 467.666 24.6C468.266 25.1333 468.566 25.7667 468.566 26.5C468.566 27.3 468.266 28 467.666 28.6C467.133 29.1333 466.5 29.4 465.766 29.4ZM459.166 86.1C452.833 86.1 447.933 84.3667 444.466 80.9C441.066 77.4333 439.366 72.5333 439.366 66.2V40H442.566V66.2C442.566 71.6667 444 75.9 446.866 78.9C449.8 81.8333 453.9 83.3 459.166 83.3C462.366 83.3 465.3 82.6 467.966 81.2C470.633 79.7333 472.733 77.7 474.266 75.1C475.8 72.5 476.566 69.5333 476.566 66.2V40H479.766V85H476.566V76.6C475.033 79.4 472.733 81.7 469.666 83.5C466.6 85.2333 463.1 86.1 459.166 86.1ZM553.594 86.3C549.26 86.3 545.26 85.2667 541.594 83.2C537.994 81.1333 535.127 78.3 532.994 74.7C530.86 71.1 529.794 67.0333 529.794 62.5C529.794 58.3 530.86 54.4333 532.994 50.9C535.127 47.3 538.027 44.4333 541.694 42.3C545.427 40.1667 549.527 39.1 553.994 39.1C557.727 39.1 560.927 39.7 563.594 40.9C566.26 42.1 568.86 43.9667 571.394 46.5V51.9C569.194 48.6333 566.727 46.1667 563.994 44.5C561.327 42.7667 557.994 41.9 553.994 41.9C550.327 41.9 546.86 42.8667 543.594 44.8C540.394 46.6667 537.827 49.2 535.894 52.4C533.96 55.6 532.994 59.0333 532.994 62.7C532.994 66.7 533.927 70.3 535.794 73.5C537.66 76.6333 540.16 79.1 543.294 80.9C546.494 82.6333 549.927 83.5 553.594 83.5C561.06 83.5 566.994 80.1333 571.394 73.4V78.8C568.994 81.3333 566.327 83.2333 563.394 84.5C560.527 85.7 557.26 86.3 553.594 86.3ZM620.245 9.99999H623.445V49.3C624.845 46.3 627.212 43.8333 630.545 41.9C633.945 39.9 637.379 38.9 640.845 38.9C647.179 38.9 652.045 40.6333 655.445 44.1C658.912 47.5667 660.645 52.4667 660.645 58.8V85H657.445V58.8C657.445 53.3333 655.979 49.1333 653.045 46.2C650.179 43.2 646.112 41.7 640.845 41.7C637.645 41.7 634.712 42.4667 632.045 44C629.379 45.4667 627.279 47.5333 625.745 50.2C624.212 52.8 623.445 55.6667 623.445 58.8V85H620.245V9.99999ZM735.173 83.4C738.639 83.4 741.939 82.5 745.073 80.7C748.206 78.9 750.806 76.4333 752.873 73.3V78.4C750.406 81.1333 747.706 83.1333 744.773 84.4C741.839 85.6 738.506 86.2 734.773 86.2C730.639 86.2 726.739 85.1 723.073 82.9C719.473 80.7 716.573 77.7667 714.373 74.1C712.239 70.4333 711.173 66.5333 711.173 62.4C711.173 57.9333 712.239 53.9333 714.373 50.4C716.506 46.8 719.406 44 723.073 42C726.806 40 730.939 39 735.473 39C742.406 39 748.306 41.7333 753.173 47.2L721.773 78.2C723.973 80 726.106 81.3333 728.173 82.2C730.239 83 732.573 83.4 735.173 83.4ZM714.373 62.1C714.373 67.6333 716.206 72.3667 719.873 76.3L749.173 47.2C746.973 45.2667 744.839 43.9 742.773 43.1C740.706 42.2333 738.239 41.8 735.373 41.8C731.306 41.8 727.673 42.7 724.473 44.5C721.339 46.2333 718.873 48.6333 717.073 51.7C715.273 54.7667 714.373 58.2333 714.373 62.1Z" fill="#FF0000"/>
</g>
</g>
<defs>
<filter id="filter0_d" x="66.9727" y="21.8632" width="37.0992" height="83.7" filterUnits="userSpaceOnUse" color-interpolation-filters="sRGB">
<feFlood flood-opacity="0" result="BackgroundImageFix"/>
<feColorMatrix in="SourceAlpha" type="matrix" values="0 0 0 0 0 0 0 0 0 0 0 0 0 0 0 0 0 0 127 0"/>
<feOffset dx="5" dy="10"/>
<feGaussianBlur stdDeviation="5"/>
<feColorMatrix type="matrix" values="0 0 0 0 0 0 0 0 0 0 0 0 0 0 0 0 0 0 1 0"/>
<feBlend mode="normal" in2="BackgroundImageFix" result="effect1_dropShadow"/>
<feBlend mode="normal" in="SourceGraphic" in2="effect1_dropShadow" result="shape"/>
</filter>
<filter id="filter1_d" x="-1.59998" y="9.99999" width="769.773" height="96.3" filterUnits="userSpaceOnUse" color-interpolation-filters="sRGB">
<feFlood flood-opacity="0" result="BackgroundImageFix"/>
<feColorMatrix in="SourceAlpha" type="matrix" values="0 0 0 0 0 0 0 0 0 0 0 0 0 0 0 0 0 0 127 0"/>
<feOffset dx="5" dy="10"/>
<feGaussianBlur stdDeviation="5"/>
<feColorMatrix type="matrix" values="0 0 0 0 0 0 0 0 0 0 0 0 0 0 0 0 0 0 1 0"/>
<feBlend mode="normal" in2="BackgroundImageFix" result="effect1_dropShadow"/>
<feBlend mode="normal" in="SourceGraphic" in2="effect1_dropShadow" result="shape"/>
</filter>
<clipPath id="clip0">
<rect width="767" height="111" fill="white"/>
</clipPath>
</defs>
</svg>
