<svg width="718" height="117" viewBox="0 0 718 117" fill="none" xmlns="http://www.w3.org/2000/svg">
<rect width="718" height="111" fill="black" fill-opacity="0"/>
<rect width="38" height="74" fill="black" fill-opacity="0" transform="translate(89 33)"/>
<g filter="url(#filter0_d)">
<path d="M96.8955 31.4C101.829 31.4 105.929 32.9 109.195 35.9C112.395 38.9 113.995 43.0333 113.995 48.3L113.992 95.1H110.792L110.793 77H96.993L96.9931 74.2H110.793L110.795 48.3C110.795 43.9 109.495 40.4333 106.895 37.9C104.229 35.4333 100.895 34.2 96.8954 34.2L96.8955 31.4Z" fill="#FF0000"/>
<path d="M96.8955 31.4L96.8956 30.4H95.8956L95.8955 31.4H96.8955ZM109.195 35.9L109.879 35.1704L109.872 35.1635L109.195 35.9ZM113.992 95.1L113.992 96.1H114.992L114.992 95.1H113.992ZM110.792 95.1H109.792L109.792 96.1H110.792L110.792 95.1ZM110.793 77H111.793L111.793 76H110.793L110.793 77ZM96.993 77H95.993L95.9929 78H96.9929L96.993 77ZM96.9931 74.2L96.9932 73.2H95.9932L95.9931 74.2H96.9931ZM110.793 74.2L110.793 75.2H111.793L111.793 74.2H110.793ZM106.895 37.9L107.593 37.1838L107.584 37.1747L107.574 37.1659L106.895 37.9ZM96.8954 34.2H95.8954L95.8953 35.2H96.8953L96.8954 34.2ZM96.8955 32.4C101.609 32.4 105.458 33.8255 108.519 36.6365L109.872 35.1635C106.399 31.9745 102.049 30.4 96.8956 30.4L96.8955 32.4ZM108.511 36.6295C111.47 39.403 112.995 43.2498 112.995 48.3H114.995C114.995 42.8169 113.321 38.397 109.879 35.1705L108.511 36.6295ZM112.995 48.3L112.992 95.1H114.992L114.995 48.3H112.995ZM113.992 94.1H110.792L110.792 96.1H113.992L113.992 94.1ZM111.792 95.1L111.793 77H109.793L109.792 95.1H111.792ZM110.793 76H96.993L96.9929 78H110.793L110.793 76ZM97.993 77L97.9931 74.2H95.9931L95.993 77H97.993ZM96.9931 75.2H110.793L110.793 73.2H96.9932L96.9931 75.2ZM111.793 74.2L111.795 48.3L109.795 48.3L109.793 74.2H111.793ZM111.795 48.3C111.795 43.6916 110.426 39.9442 107.593 37.1838L106.197 38.6162C108.564 40.9225 109.795 44.1084 109.795 48.3L111.795 48.3ZM107.574 37.1659C104.704 34.5104 101.12 33.2 96.8954 33.2L96.8953 35.2C100.671 35.2 103.754 36.3563 106.216 38.6341L107.574 37.1659ZM97.8954 34.2L97.8955 31.4H95.8955L95.8954 34.2H97.8954Z" fill="#FF0000"/>
</g>
<g filter="url(#filter1_d)">
<path d="M42.7137 94.1C39.5137 94.1 36.6803 93.5667 34.2137 92.5C31.747 91.3667 29.9803 89.9333 28.9137 88.2V82.9C30.1803 85.7667 31.9137 87.9 34.1137 89.3C36.3137 90.6333 39.1137 91.3 42.5137 91.3C45.7803 91.3 48.4137 90.3 50.4137 88.3C52.4137 86.2333 53.4137 83.6 53.4137 80.4C53.4137 77.6667 52.847 75.5667 51.7137 74.1C50.5803 72.5667 48.747 71.0333 46.2137 69.5L42.4137 67.3C39.6803 65.6333 37.6137 64.3333 36.2137 63.4C34.8803 62.4 33.8137 61.3 33.0137 60.1C32.2137 58.8333 31.8137 57.3667 31.8137 55.7C31.8137 53.0333 32.747 50.9 34.6137 49.3C36.4803 47.7 38.9137 46.9 41.9137 46.9C45.5803 46.9 48.647 47.7333 51.1137 49.4V53.8C49.047 51.0667 46.0803 49.7 42.2137 49.7C40.0803 49.7 38.347 50.2333 37.0137 51.3C35.6803 52.3667 35.0137 53.7333 35.0137 55.4C35.0137 56.8667 35.4137 58.1667 36.2137 59.3C37.0137 60.3667 38.1137 61.3667 39.5137 62.3C40.9803 63.2333 43.3803 64.6333 46.7137 66.5C50.1137 68.4333 52.6137 70.4333 54.2137 72.5C55.8137 74.5 56.6137 77.1333 56.6137 80.4C56.6137 84.5333 55.247 87.8667 52.5137 90.4C49.847 92.8667 46.5803 94.1 42.7137 94.1ZM172.452 37.7C171.519 37.7 170.685 37.3667 169.952 36.7C169.285 36.0333 168.952 35.2 168.952 34.2C168.952 33.2667 169.285 32.4667 169.952 31.8C170.685 31.1333 171.519 30.8 172.452 30.8C173.385 30.8 174.185 31.1333 174.852 31.8C175.585 32.4667 175.952 33.2667 175.952 34.2C175.952 35.2 175.585 36.0333 174.852 36.7C174.185 37.3667 173.385 37.7 172.452 37.7ZM170.852 48H174.052V93H170.852V48ZM246.062 93.9C242.929 93.9 240.062 93.2 237.462 91.8C234.862 90.3333 232.795 88.3 231.262 85.7C229.729 83.1 228.962 80.2 228.962 77V18H232.162V77C232.162 79.6667 232.762 82.0667 233.962 84.2C235.229 86.3333 236.929 88.0333 239.062 89.3C241.195 90.5 243.529 91.1 246.062 91.1V93.9ZM320.004 94.1C315.937 94.1 312.004 93 308.204 90.8C304.47 88.6 301.604 85.7 299.604 82.1V93H296.404V18H299.604V59.4C301.404 55.6 304.204 52.5667 308.004 50.3C311.804 48.0333 315.804 46.9 320.004 46.9C324.337 46.9 328.304 47.9667 331.904 50.1C335.57 52.2333 338.47 55.1 340.604 58.7C342.737 62.3 343.804 66.2333 343.804 70.5C343.804 74.7667 342.737 78.7 340.604 82.3C338.47 85.9 335.57 88.7667 331.904 90.9C328.304 93.0333 324.337 94.1 320.004 94.1ZM320.204 91.3C323.87 91.3 327.27 90.3667 330.404 88.5C333.537 86.5667 336.004 84.0333 337.804 80.9C339.67 77.7 340.604 74.2333 340.604 70.5C340.604 66.8333 339.67 63.4 337.804 60.2C335.937 57 333.437 54.4667 330.304 52.6C327.17 50.6667 323.77 49.7 320.104 49.7C316.437 49.7 313.004 50.6667 309.804 52.6C306.67 54.5333 304.137 57.1 302.204 60.3C300.337 63.5 299.404 66.9333 299.404 70.6C299.404 74.2667 300.337 77.7 302.204 80.9C304.137 84.0333 306.704 86.5667 309.904 88.5C313.104 90.3667 316.537 91.3 320.204 91.3ZM392.849 48H396.049V58.4C397.382 55.1333 399.315 52.5667 401.849 50.7C404.449 48.8333 407.382 47.9 410.649 47.9C412.715 47.9 414.815 48.3333 416.949 49.2V52.9C415.015 51.4333 412.849 50.7 410.449 50.7C408.049 50.7 405.715 51.4333 403.449 52.9C401.249 54.3667 399.449 56.3333 398.049 58.8C396.715 61.2667 396.049 63.9 396.049 66.7V93H392.849V48ZM484.68 94.1C478.347 94.1 473.447 92.3667 469.98 88.9C466.58 85.4333 464.88 80.5333 464.88 74.2V48H468.08V74.2C468.08 79.6667 469.513 83.9 472.38 86.9C475.313 89.8333 479.413 91.3 484.68 91.3C487.88 91.3 490.813 90.6 493.48 89.2C496.147 87.7333 498.247 85.7 499.78 83.1C501.313 80.5 502.08 77.5333 502.08 74.2V48H505.28V93H502.08V84.6C500.547 87.4 498.247 89.7 495.18 91.5C492.113 93.2333 488.613 94.1 484.68 94.1ZM579.107 94.3C574.774 94.3 570.774 93.2667 567.107 91.2C563.507 89.1333 560.641 86.3 558.507 82.7C556.374 79.1 555.307 75.0333 555.307 70.5C555.307 66.3 556.374 62.4333 558.507 58.9C560.641 55.3 563.541 52.4333 567.207 50.3C570.941 48.1667 575.041 47.1 579.507 47.1C583.241 47.1 586.441 47.7 589.107 48.9C591.774 50.1 594.374 51.9667 596.907 54.5V59.9C594.707 56.6333 592.241 54.1667 589.507 52.5C586.841 50.7667 583.507 49.9 579.507 49.9C575.841 49.9 572.374 50.8667 569.107 52.8C565.907 54.6667 563.341 57.2 561.407 60.4C559.474 63.6 558.507 67.0333 558.507 70.7C558.507 74.7 559.441 78.3 561.307 81.5C563.174 84.6333 565.674 87.1 568.807 88.9C572.007 90.6333 575.441 91.5 579.107 91.5C586.574 91.5 592.507 88.1333 596.907 81.4V86.8C594.507 89.3333 591.841 91.2333 588.907 92.5C586.041 93.7 582.774 94.3 579.107 94.3ZM645.759 18H648.959V57.3C650.359 54.3 652.726 51.8333 656.059 49.9C659.459 47.9 662.892 46.9 666.359 46.9C672.692 46.9 677.559 48.6333 680.959 52.1C684.426 55.5667 686.159 60.4667 686.159 66.8V93H682.959V66.8C682.959 61.3333 681.492 57.1333 678.559 54.2C675.692 51.2 671.626 49.7 666.359 49.7C663.159 49.7 660.226 50.4667 657.559 52C654.892 53.4667 652.792 55.5333 651.259 58.2C649.726 60.8 648.959 63.6667 648.959 66.8V93H645.759V18Z" fill="#FF0000"/>
<path d="M34.2137 92.5L33.7962 93.4087L33.8064 93.4134L33.8168 93.4179L34.2137 92.5ZM28.9137 88.2H27.9137V88.483L28.062 88.7241L28.9137 88.2ZM28.9137 82.9L29.8284 82.4958L27.9137 82.9H28.9137ZM34.1137 89.3L33.5768 90.1437L33.586 90.1495L33.5954 90.1552L34.1137 89.3ZM50.4137 88.3L51.1208 89.0071L51.1266 89.0013L51.1323 88.9954L50.4137 88.3ZM51.7137 74.1L50.9095 74.6944L50.9159 74.703L50.9224 74.7114L51.7137 74.1ZM46.2137 69.5L46.7315 68.6445L46.7231 68.6395L46.7147 68.6346L46.2137 69.5ZM42.4137 67.3L41.8931 68.1538L41.9028 68.1597L41.9126 68.1654L42.4137 67.3ZM36.2137 63.4L35.6137 64.2L35.6359 64.2167L35.659 64.232L36.2137 63.4ZM33.0137 60.1L32.1682 60.634L32.1748 60.6444L32.1816 60.6547L33.0137 60.1ZM34.6137 49.3L35.2645 50.0593L35.2645 50.0593L34.6137 49.3ZM51.1137 49.4H52.1137V48.8688L51.6735 48.5714L51.1137 49.4ZM51.1137 53.8L50.316 54.4031L52.1137 56.7807V53.8H51.1137ZM37.0137 51.3L36.389 50.5191L36.389 50.5191L37.0137 51.3ZM36.2137 59.3L35.3967 59.8767L35.405 59.8885L35.4137 59.9L36.2137 59.3ZM39.5137 62.3L38.959 63.132L38.9678 63.1379L38.9768 63.1437L39.5137 62.3ZM46.7137 66.5L47.208 65.6307L47.2023 65.6275L46.7137 66.5ZM54.2137 72.5L53.4229 73.1122L53.4278 73.1185L53.4328 73.1247L54.2137 72.5ZM52.5137 90.4L53.1927 91.1341L53.1934 91.1334L52.5137 90.4ZM42.7137 93.1C39.6246 93.1 36.9304 92.5853 34.6106 91.5821L33.8168 93.4179C36.4303 94.548 39.4027 95.1 42.7137 95.1V93.1ZM34.6312 91.5913C32.2853 90.5135 30.6991 89.1933 29.7653 87.6759L28.062 88.7241C29.2616 90.6734 31.2087 92.2198 33.7962 93.4087L34.6312 91.5913ZM29.9137 88.2V82.9H27.9137V88.2H29.9137ZM27.999 83.3042C29.3291 86.3144 31.1791 88.6179 33.5768 90.1437L34.6505 88.4563C32.6482 87.1821 31.0316 85.2189 29.8284 82.4958L27.999 83.3042ZM33.5954 90.1552C35.9943 91.6091 38.9882 92.3 42.5137 92.3V90.3C39.2392 90.3 36.6331 89.6576 34.632 88.4448L33.5954 90.1552ZM42.5137 92.3C46.001 92.3 48.904 91.2239 51.1208 89.0071L49.7066 87.5929C47.9234 89.3761 45.5596 90.3 42.5137 90.3V92.3ZM51.1323 88.9954C53.3338 86.7205 54.4137 83.8277 54.4137 80.4H52.4137C52.4137 83.3723 51.4936 85.7461 49.6951 87.6046L51.1323 88.9954ZM54.4137 80.4C54.4137 77.5462 53.8245 75.1962 52.505 73.4886L50.9224 74.7114C51.8695 75.9371 52.4137 77.7871 52.4137 80.4H54.4137ZM52.5179 73.5056C51.2762 71.8257 49.3213 70.212 46.7315 68.6445L45.6959 70.3555C48.1727 71.8546 49.8845 73.3076 50.9095 74.6944L52.5179 73.5056ZM46.7147 68.6346L42.9147 66.4346L41.9126 68.1654L45.7126 70.3654L46.7147 68.6346ZM42.9343 66.4462C40.2042 64.7815 38.1513 63.4899 36.7684 62.5679L35.659 64.232C37.0761 65.1768 39.1565 66.4852 41.8931 68.1538L42.9343 66.4462ZM36.8137 62.6C35.5572 61.6576 34.5739 60.6376 33.8457 59.5453L32.1816 60.6547C33.0535 61.9624 34.2035 63.1424 35.6137 64.2L36.8137 62.6ZM33.8592 59.566C33.1712 58.4768 32.8137 57.1996 32.8137 55.7H30.8137C30.8137 57.5337 31.2561 59.1899 32.1682 60.634L33.8592 59.566ZM32.8137 55.7C32.8137 53.2973 33.6398 51.4518 35.2645 50.0593L33.9629 48.5407C31.8542 50.3482 30.8137 52.7694 30.8137 55.7H32.8137ZM35.2645 50.0593C36.9123 48.6469 39.0977 47.9 41.9137 47.9V45.9C38.7297 45.9 36.0484 46.7531 33.9629 48.5407L35.2645 50.0593ZM41.9137 47.9C45.4274 47.9 48.2873 48.6971 50.5538 50.2286L51.6735 48.5714C49.0067 46.7695 45.7333 45.9 41.9137 45.9V47.9ZM50.1137 49.4V53.8H52.1137V49.4H50.1137ZM51.9113 53.1969C49.6295 50.179 46.3477 48.7 42.2137 48.7V50.7C45.813 50.7 48.4645 51.9543 50.316 54.4031L51.9113 53.1969ZM42.2137 48.7C39.9112 48.7 37.9401 49.2782 36.389 50.5191L37.6384 52.0809C38.7539 51.1885 40.2495 50.7 42.2137 50.7V48.7ZM36.389 50.5191C34.8252 51.7702 34.0137 53.421 34.0137 55.4H36.0137C36.0137 54.0457 36.5355 52.9632 37.6384 52.0809L36.389 50.5191ZM34.0137 55.4C34.0137 57.0607 34.4706 58.5647 35.3967 59.8767L37.0306 58.7233C36.3568 57.7687 36.0137 56.6727 36.0137 55.4H34.0137ZM35.4137 59.9C36.2969 61.0776 37.4883 62.1516 38.959 63.132L40.0684 61.4679C38.7391 60.5818 37.7305 59.6557 37.0137 58.7L35.4137 59.9ZM38.9768 63.1437C40.4689 64.0932 42.8899 65.5048 46.2251 67.3725L47.2023 65.6275C43.8707 63.7618 41.4918 62.3735 40.0505 61.4563L38.9768 63.1437ZM46.2194 67.3693C49.5562 69.2667 51.9336 71.1884 53.4229 73.1122L55.0044 71.8878C53.2937 69.6782 50.6711 67.6 47.208 65.6307L46.2194 67.3693ZM53.4328 73.1247C54.8558 74.9034 55.6137 77.2968 55.6137 80.4H57.6137C57.6137 76.9698 56.7716 74.0966 54.9945 71.8753L53.4328 73.1247ZM55.6137 80.4C55.6137 84.2886 54.3396 87.3442 51.8339 89.6666L53.1934 91.1334C56.1544 88.3891 57.6137 84.778 57.6137 80.4H55.6137ZM51.8346 89.6659C49.3654 91.9499 46.3464 93.1 42.7137 93.1V95.1C46.8143 95.1 50.3286 93.7834 53.1927 91.1341L51.8346 89.6659ZM169.952 36.7L169.245 37.4071L169.262 37.4239L169.279 37.4399L169.952 36.7ZM169.952 31.8L169.279 31.0601L169.262 31.0761L169.245 31.0929L169.952 31.8ZM174.852 31.8L174.145 32.5071L174.162 32.5239L174.179 32.5399L174.852 31.8ZM174.852 36.7L174.179 35.9601L174.162 35.9761L174.145 35.9929L174.852 36.7ZM170.852 48V47H169.852V48H170.852ZM174.052 48H175.052V47H174.052V48ZM174.052 93V94H175.052V93H174.052ZM170.852 93H169.852V94H170.852V93ZM172.452 36.7C171.784 36.7 171.186 36.4707 170.625 35.9601L169.279 37.4399C170.184 38.2626 171.254 38.7 172.452 38.7V36.7ZM170.659 35.9929C170.192 35.526 169.952 34.9526 169.952 34.2H167.952C167.952 35.4474 168.378 36.5406 169.245 37.4071L170.659 35.9929ZM169.952 34.2C169.952 33.5349 170.178 32.9884 170.659 32.5071L169.245 31.0929C168.393 31.945 167.952 32.9984 167.952 34.2H169.952ZM170.625 32.5399C171.186 32.0293 171.784 31.8 172.452 31.8V29.8C171.254 29.8 170.184 30.2374 169.279 31.0601L170.625 32.5399ZM172.452 31.8C173.117 31.8 173.664 32.0258 174.145 32.5071L175.559 31.0929C174.707 30.2408 173.654 29.8 172.452 29.8V31.8ZM174.179 32.5399C174.719 33.0303 174.952 33.5675 174.952 34.2H176.952C176.952 32.9659 176.452 31.903 175.525 31.0601L174.179 32.5399ZM174.952 34.2C174.952 34.9212 174.702 35.4849 174.179 35.9601L175.525 37.4399C176.469 36.5818 176.952 35.4788 176.952 34.2H174.952ZM174.145 35.9929C173.664 36.4742 173.117 36.7 172.452 36.7V38.7C173.654 38.7 174.707 38.2592 175.559 37.4071L174.145 35.9929ZM170.852 49H174.052V47H170.852V49ZM173.052 48V93H175.052V48H173.052ZM174.052 92H170.852V94H174.052V92ZM171.852 93V48H169.852V93H171.852ZM246.062 93.9V94.9H247.062V93.9H246.062ZM237.462 91.8L236.971 92.671L236.979 92.6758L236.988 92.6805L237.462 91.8ZM231.262 85.7L232.123 85.192L232.123 85.192L231.262 85.7ZM228.962 18V17H227.962V18H228.962ZM232.162 18H233.162V17H232.162V18ZM233.962 84.2L233.091 84.6903L233.096 84.7005L233.102 84.7105L233.962 84.2ZM239.062 89.3L238.552 90.1599L238.562 90.1658L238.572 90.1716L239.062 89.3ZM246.062 91.1H247.062V90.1H246.062V91.1ZM246.062 92.9C243.084 92.9 240.382 92.2363 237.936 90.9195L236.988 92.6805C239.743 94.1637 242.774 94.9 246.062 94.9V92.9ZM237.953 90.929C235.508 89.5497 233.569 87.6424 232.123 85.192L230.401 86.208C232.022 88.9576 234.216 91.1169 236.971 92.671L237.953 90.929ZM232.123 85.192C230.686 82.7553 229.962 80.0325 229.962 77H227.962C227.962 80.3675 228.771 83.4447 230.401 86.208L232.123 85.192ZM229.962 77V18H227.962V77H229.962ZM228.962 19H232.162V17H228.962V19ZM231.162 18V77H233.162V18H231.162ZM231.162 77C231.162 79.8226 231.799 82.3941 233.091 84.6903L234.834 83.7097C233.725 81.7393 233.162 79.5107 233.162 77H231.162ZM233.102 84.7105C234.454 86.9877 236.274 88.8078 238.552 90.1599L239.573 88.4401C237.583 87.2589 236.003 85.679 234.822 83.6895L233.102 84.7105ZM238.572 90.1716C240.86 91.4588 243.363 92.1 246.062 92.1V90.1C243.694 90.1 241.531 89.5412 239.552 88.4284L238.572 90.1716ZM245.062 91.1V93.9H247.062V91.1H245.062ZM308.204 90.8L307.696 91.6616L307.702 91.6654L308.204 90.8ZM299.604 82.1L300.478 81.6144L298.604 78.2409V82.1H299.604ZM299.604 93V94H300.604V93H299.604ZM296.404 93H295.404V94H296.404V93ZM296.404 18V17H295.404V18H296.404ZM299.604 18H300.604V17H299.604V18ZM299.604 59.4H298.604L300.507 59.8281L299.604 59.4ZM308.004 50.3L307.491 49.4412L307.491 49.4412L308.004 50.3ZM331.904 50.1L331.394 50.9603L331.401 50.9643L331.904 50.1ZM340.604 58.7L339.743 59.2098L339.743 59.2098L340.604 58.7ZM340.604 82.3L339.743 81.7902L339.743 81.7902L340.604 82.3ZM331.904 90.9L331.401 90.0356L331.394 90.0397L331.904 90.9ZM330.404 88.5L330.915 89.3591L330.922 89.3551L330.929 89.351L330.404 88.5ZM337.804 80.9L336.94 80.3961L336.936 80.4019L337.804 80.9ZM337.804 60.2L338.667 59.6961L338.667 59.6961L337.804 60.2ZM330.304 52.6L329.778 53.451L329.785 53.4551L329.792 53.4591L330.304 52.6ZM309.804 52.6L309.286 51.744L309.278 51.749L309.804 52.6ZM302.204 60.3L301.348 59.7829L301.344 59.7895L301.34 59.7961L302.204 60.3ZM302.204 80.9L301.34 81.4039L301.346 81.4146L301.352 81.4251L302.204 80.9ZM309.904 88.5L309.386 89.3559L309.393 89.3599L309.4 89.3638L309.904 88.5ZM320.004 93.1C316.127 93.1 312.365 92.0537 308.705 89.9346L307.702 91.6654C311.642 93.9463 315.747 95.1 320.004 95.1V93.1ZM308.711 89.9385C305.123 87.824 302.387 85.0504 300.478 81.6144L298.729 82.5856C300.82 86.3496 303.817 89.376 307.696 91.6615L308.711 89.9385ZM298.604 82.1V93H300.604V82.1H298.604ZM299.604 92H296.404V94H299.604V92ZM297.404 93V18H295.404V93H297.404ZM296.404 19H299.604V17H296.404V19ZM298.604 18V59.4H300.604V18H298.604ZM300.507 59.8281C302.218 56.2169 304.877 53.3295 308.516 51.1588L307.491 49.4412C303.53 51.8038 300.589 54.9831 298.7 58.9719L300.507 59.8281ZM308.516 51.1588C312.17 48.9794 315.994 47.9 320.004 47.9V45.9C315.613 45.9 311.438 47.0873 307.491 49.4412L308.516 51.1588ZM320.004 47.9C324.164 47.9 327.954 48.9218 331.394 50.9603L332.413 49.2397C328.653 47.0116 324.51 45.9 320.004 45.9V47.9ZM331.401 50.9643C334.922 53.0131 337.698 55.7586 339.743 59.2098L341.464 58.1902C339.242 54.4414 336.218 51.4535 332.406 49.2356L331.401 50.9643ZM339.743 59.2098C341.783 62.6523 342.804 66.409 342.804 70.5H344.804C344.804 66.0576 343.69 61.9477 341.464 58.1902L339.743 59.2098ZM342.804 70.5C342.804 74.591 341.783 78.3477 339.743 81.7902L341.464 82.8098C343.69 79.0523 344.804 74.9424 344.804 70.5H342.804ZM339.743 81.7902C337.698 85.2414 334.922 87.9869 331.401 90.0357L332.406 91.7643C336.218 89.5465 339.242 86.5586 341.464 82.8098L339.743 81.7902ZM331.394 90.0397C327.954 92.0782 324.164 93.1 320.004 93.1V95.1C324.51 95.1 328.653 93.9884 332.413 91.7603L331.394 90.0397ZM320.204 92.3C324.049 92.3 327.626 91.3185 330.915 89.3591L329.892 87.6409C326.914 89.4148 323.691 90.3 320.204 90.3V92.3ZM330.929 89.351C334.201 87.3321 336.786 84.6785 338.671 81.3981L336.936 80.4019C335.221 83.3881 332.873 85.8013 329.878 87.649L330.929 89.351ZM338.667 81.4039C340.624 78.0497 341.604 74.4089 341.604 70.5H339.604C339.604 74.0577 338.716 77.3503 336.94 80.3961L338.667 81.4039ZM341.604 70.5C341.604 66.6544 340.622 63.0474 338.667 59.6961L336.94 60.7039C338.718 63.7526 339.604 67.0123 339.604 70.5H341.604ZM338.667 59.6961C336.717 56.3522 334.097 53.6957 330.815 51.7409L329.792 53.4591C332.777 55.2377 335.157 57.6478 336.94 60.7039L338.667 59.6961ZM330.829 51.749C327.538 49.7187 323.956 48.7 320.104 48.7V50.7C323.584 50.7 326.802 51.6147 329.778 53.451L330.829 51.749ZM320.104 48.7C316.251 48.7 312.639 49.7184 309.286 51.7441L310.321 53.4559C313.368 51.6149 316.623 50.7 320.104 50.7V48.7ZM309.278 51.749C306.008 53.7671 303.362 56.4491 301.348 59.7829L303.059 60.8171C304.912 57.7509 307.333 55.2996 310.329 53.451L309.278 51.749ZM301.34 59.7961C299.385 63.1474 298.404 66.7544 298.404 70.6H300.404C300.404 67.1123 301.289 63.8526 303.067 60.8039L301.34 59.7961ZM298.404 70.6C298.404 74.4456 299.385 78.0526 301.34 81.4039L303.067 80.3961C301.289 77.3474 300.404 74.0877 300.404 70.6H298.404ZM301.352 81.4251C303.371 84.6958 306.053 87.3417 309.386 89.3559L310.421 87.6441C307.354 85.7916 304.903 83.3708 303.055 80.3749L301.352 81.4251ZM309.4 89.3638C312.751 91.3187 316.358 92.3 320.204 92.3V90.3C316.716 90.3 313.456 89.4146 310.407 87.6362L309.4 89.3638ZM392.849 48V47H391.849V48H392.849ZM396.049 48H397.049V47H396.049V48ZM396.049 58.4H395.049L396.975 58.7779L396.049 58.4ZM401.849 50.7L401.266 49.8876L401.256 49.8949L401.849 50.7ZM416.949 49.2H417.949V48.5269L417.325 48.2735L416.949 49.2ZM416.949 52.9L416.344 53.6967L417.949 54.9138V52.9H416.949ZM403.449 52.9L402.906 52.0603L402.894 52.0679L403.449 52.9ZM398.049 58.8L397.179 58.3064L397.174 58.3154L397.169 58.3245L398.049 58.8ZM396.049 93V94H397.049V93H396.049ZM392.849 93H391.849V94H392.849V93ZM392.849 49H396.049V47H392.849V49ZM395.049 48V58.4H397.049V48H395.049ZM396.975 58.7779C398.247 55.6603 400.074 53.2498 402.442 51.5051L401.256 49.8949C398.557 51.8835 396.517 54.6064 395.123 58.0221L396.975 58.7779ZM402.432 51.5123C404.858 49.7704 407.587 48.9 410.649 48.9V46.9C407.178 46.9 404.039 47.8963 401.266 49.8877L402.432 51.5123ZM410.649 48.9C412.573 48.9 414.545 49.3028 416.572 50.1265L417.325 48.2735C415.086 47.3638 412.858 46.9 410.649 46.9V48.9ZM415.949 49.2V52.9H417.949V49.2H415.949ZM417.553 52.1033C415.448 50.5063 413.07 49.7 410.449 49.7V51.7C412.628 51.7 414.583 52.3603 416.344 53.6967L417.553 52.1033ZM410.449 49.7C407.833 49.7 405.313 50.5025 402.906 52.0604L403.992 53.7396C406.118 52.3641 408.265 51.7 410.449 51.7V49.7ZM402.894 52.0679C400.555 53.6275 398.651 55.714 397.179 58.3064L398.919 59.2936C400.247 56.9527 401.943 55.1058 404.004 53.732L402.894 52.0679ZM397.169 58.3245C395.757 60.937 395.049 63.7337 395.049 66.7H397.049C397.049 64.0663 397.674 61.5963 398.929 59.2755L397.169 58.3245ZM395.049 66.7V93H397.049V66.7H395.049ZM396.049 92H392.849V94H396.049V92ZM393.849 93V48H391.849V93H393.849ZM469.98 88.9L469.266 89.6002L469.273 89.6071L469.98 88.9ZM464.88 48V47H463.88V48H464.88ZM468.08 48H469.08V47H468.08V48ZM472.38 86.9L471.657 87.5909L471.665 87.5991L471.673 87.6071L472.38 86.9ZM493.48 89.2L493.945 90.0854L493.953 90.0809L493.962 90.0762L493.48 89.2ZM502.08 48V47H501.08V48H502.08ZM505.28 48H506.28V47H505.28V48ZM505.28 93V94H506.28V93H505.28ZM502.08 93H501.08V94H502.08V93ZM502.08 84.6H503.08L501.203 84.1197L502.08 84.6ZM495.18 91.5L495.672 92.3706L495.679 92.3665L495.686 92.3624L495.18 91.5ZM484.68 93.1C478.531 93.1 473.916 91.4217 470.687 88.1929L469.273 89.6071C472.978 93.3116 478.162 95.1 484.68 95.1V93.1ZM470.694 88.1998C467.528 84.9718 465.88 80.3542 465.88 74.2H463.88C463.88 80.7125 465.632 85.8949 469.266 89.6002L470.694 88.1998ZM465.88 74.2V48H463.88V74.2H465.88ZM464.88 49H468.08V47H464.88V49ZM467.08 48V74.2H469.08V48H467.08ZM467.08 74.2C467.08 79.8398 468.562 84.3517 471.657 87.5909L473.103 86.2091C470.465 83.4483 469.08 79.4935 469.08 74.2H467.08ZM471.673 87.6071C474.841 90.7751 479.223 92.3 484.68 92.3V90.3C479.604 90.3 475.786 88.8915 473.087 86.1929L471.673 87.6071ZM484.68 92.3C488.032 92.3 491.126 91.5654 493.945 90.0854L493.015 88.3146C490.501 89.6346 487.729 90.3 484.68 90.3V92.3ZM493.962 90.0762C496.785 88.5238 499.016 86.3639 500.641 83.608L498.919 82.592C497.477 85.0361 495.509 86.9428 492.998 88.3238L493.962 90.0762ZM500.641 83.608C502.275 80.8384 503.08 77.6928 503.08 74.2H501.08C501.08 77.3738 500.352 80.1616 498.919 82.592L500.641 83.608ZM503.08 74.2V48H501.08V74.2H503.08ZM502.08 49H505.28V47H502.08V49ZM504.28 48V93H506.28V48H504.28ZM505.28 92H502.08V94H505.28V92ZM503.08 93V84.6H501.08V93H503.08ZM501.203 84.1197C499.766 86.7436 497.603 88.9184 494.674 90.6376L495.686 92.3624C498.891 90.4816 501.327 88.0564 502.957 85.0803L501.203 84.1197ZM494.688 90.6294C491.788 92.2684 488.462 93.1 484.68 93.1V95.1C488.765 95.1 492.438 94.1983 495.672 92.3706L494.688 90.6294ZM567.107 91.2L566.61 92.0673L566.616 92.0712L567.107 91.2ZM558.507 82.7L559.368 82.1902L559.368 82.1902L558.507 82.7ZM558.507 58.9L559.364 59.4169L559.368 59.4098L558.507 58.9ZM567.207 50.3L566.711 49.4317L566.705 49.4357L567.207 50.3ZM589.107 48.9L589.518 47.9881L589.518 47.9881L589.107 48.9ZM596.907 54.5H597.907V54.0858L597.615 53.7929L596.907 54.5ZM596.907 59.9L596.078 60.4586L597.907 63.175V59.9H596.907ZM589.507 52.5L588.962 53.3384L588.975 53.3463L588.987 53.3538L589.507 52.5ZM569.107 52.8L569.611 53.6638L569.617 53.6606L569.107 52.8ZM561.407 60.4L562.263 60.9171L562.263 60.9171L561.407 60.4ZM561.307 81.5L560.444 82.0039L560.448 82.0118L561.307 81.5ZM568.807 88.9L568.309 89.7671L568.32 89.7733L568.331 89.7793L568.807 88.9ZM596.907 81.4H597.907V78.0416L596.07 80.853L596.907 81.4ZM596.907 86.8L597.633 87.4877L597.907 87.1985V86.8H596.907ZM588.907 92.5L589.294 93.4225L589.304 93.4181L588.907 92.5ZM579.107 93.3C574.941 93.3 571.111 92.3085 567.598 90.3288L566.616 92.0712C570.437 94.2249 574.607 95.3 579.107 95.3V93.3ZM567.605 90.3327C564.156 88.3527 561.414 85.643 559.368 82.1902L557.647 83.2098C559.868 86.957 562.859 89.914 566.61 92.0673L567.605 90.3327ZM559.368 82.1902C557.333 78.7573 556.307 74.8694 556.307 70.5H554.307C554.307 75.1973 555.415 79.4427 557.647 83.2098L559.368 82.1902ZM556.307 70.5C556.307 66.4788 557.326 62.7914 559.363 59.4169L557.651 58.3831C555.422 62.0753 554.307 66.1212 554.307 70.5H556.307ZM559.368 59.4098C561.413 55.9586 564.189 53.2131 567.71 51.1643L566.705 49.4357C562.893 51.6535 559.869 54.6414 557.647 58.3902L559.368 59.4098ZM567.704 51.1682C571.28 49.1247 575.208 48.1 579.507 48.1V46.1C574.874 46.1 570.602 47.2087 566.711 49.4318L567.704 51.1682ZM579.507 48.1C583.137 48.1 586.19 48.6837 588.697 49.8119L589.518 47.9881C586.692 46.7163 583.345 46.1 579.507 46.1V48.1ZM588.697 49.8119C591.231 50.9524 593.734 52.7408 596.2 55.2071L597.615 53.7929C595.014 51.1925 592.317 49.2476 589.518 47.9881L588.697 49.8119ZM595.907 54.5V59.9H597.907V54.5H595.907ZM597.737 59.3414C595.474 55.9821 592.909 53.4031 590.028 51.6462L588.987 53.3538C591.572 54.9303 593.94 57.2846 596.078 60.4586L597.737 59.3414ZM590.052 51.6616C587.186 49.7986 583.651 48.9 579.507 48.9V50.9C583.364 50.9 586.495 51.7347 588.962 53.3384L590.052 51.6616ZM579.507 48.9C575.655 48.9 572.013 49.9182 568.598 51.9394L569.617 53.6606C572.735 51.8151 576.026 50.9 579.507 50.9V48.9ZM568.604 51.9362C565.258 53.888 562.571 56.5411 560.552 59.8829L562.263 60.9171C564.111 57.8589 566.557 55.4453 569.611 53.6638L568.604 51.9362ZM560.552 59.8829C558.526 63.2357 557.507 66.8473 557.507 70.7H559.507C559.507 67.2193 560.422 63.9643 562.263 60.9171L560.552 59.8829ZM557.507 70.7C557.507 74.8625 558.481 78.6388 560.444 82.0039L562.171 80.9961C560.401 77.9612 559.507 74.5375 559.507 70.7H557.507ZM560.448 82.0118C562.402 85.2911 565.026 87.8808 568.309 89.7671L569.306 88.0329C566.322 86.3192 563.946 83.9755 562.167 80.9882L560.448 82.0118ZM568.331 89.7793C571.679 91.5925 575.276 92.5 579.107 92.5V90.5C575.606 90.5 572.336 89.6742 569.284 88.0207L568.331 89.7793ZM579.107 92.5C586.942 92.5 593.177 88.937 597.745 81.947L596.07 80.853C591.838 87.3297 586.207 90.5 579.107 90.5V92.5ZM595.907 81.4V86.8H597.907V81.4H595.907ZM596.181 86.1123C593.866 88.5564 591.309 90.3737 588.511 91.5819L589.304 93.4181C592.373 92.093 595.149 90.1102 597.633 87.4877L596.181 86.1123ZM588.521 91.5776C585.797 92.718 582.665 93.3 579.107 93.3V95.3C582.883 95.3 586.285 94.682 589.294 93.4224L588.521 91.5776ZM645.759 18V17H644.759V18H645.759ZM648.959 18H649.959V17H648.959V18ZM648.959 57.3H647.959L649.865 57.7229L648.959 57.3ZM656.059 49.9L656.561 50.765L656.566 50.7619L656.059 49.9ZM680.959 52.1L680.245 52.8002L680.252 52.8071L680.959 52.1ZM686.159 93V94H687.159V93H686.159ZM682.959 93H681.959V94H682.959V93ZM678.559 54.2L677.836 54.8909L677.844 54.8991L677.852 54.9071L678.559 54.2ZM657.559 52L658.041 52.8762L658.049 52.8716L658.057 52.8669L657.559 52ZM651.259 58.2L652.12 58.708L652.126 58.6985L651.259 58.2ZM648.959 93V94H649.959V93H648.959ZM645.759 93H644.759V94H645.759V93ZM645.759 19H648.959V17H645.759V19ZM647.959 18V57.3H649.959V18H647.959ZM649.865 57.7229C651.165 54.9371 653.374 52.6131 656.561 50.765L655.557 49.035C652.077 51.0536 649.553 53.6629 648.053 56.8771L649.865 57.7229ZM656.566 50.7619C659.834 48.8396 663.094 47.9 666.359 47.9V45.9C662.691 45.9 659.084 46.9604 655.552 49.0381L656.566 50.7619ZM666.359 47.9C672.509 47.9 677.085 49.5787 680.245 52.8002L681.673 51.3998C678.032 47.688 672.876 45.9 666.359 45.9V47.9ZM680.252 52.8071C683.481 56.0359 685.159 60.651 685.159 66.8H687.159C687.159 60.2823 685.371 55.0974 681.666 51.3929L680.252 52.8071ZM685.159 66.8V93H687.159V66.8H685.159ZM686.159 92H682.959V94H686.159V92ZM683.959 93V66.8H681.959V93H683.959ZM683.959 66.8C683.959 61.1556 682.441 56.6677 679.266 53.4929L677.852 54.9071C680.544 57.599 681.959 61.5111 681.959 66.8H683.959ZM679.282 53.5091C676.179 50.2617 671.821 48.7 666.359 48.7V50.7C671.43 50.7 675.206 52.1383 677.836 54.8909L679.282 53.5091ZM666.359 48.7C662.991 48.7 659.885 49.509 657.061 51.1331L658.057 52.8669C660.566 51.4244 663.327 50.7 666.359 50.7V48.7ZM657.077 51.1238C654.248 52.6797 652.016 54.8779 650.392 57.7015L652.126 58.6985C653.569 56.1888 655.537 54.2536 658.041 52.8762L657.077 51.1238ZM650.398 57.692C648.77 60.4519 647.959 63.4951 647.959 66.8H649.959C649.959 63.8382 650.681 61.1481 652.12 58.708L650.398 57.692ZM647.959 66.8V93H649.959V66.8H647.959ZM648.959 92H645.759V94H648.959V92ZM646.759 93V18H644.759V93H646.759Z" fill="#FF0000"/>
</g>
<defs>
<filter id="filter0_d" x="90.8953" y="30.4" width="39.0993" height="85.7" filterUnits="userSpaceOnUse" color-interpolation-filters="sRGB">
<feFlood flood-opacity="0" result="BackgroundImageFix"/>
<feColorMatrix in="SourceAlpha" type="matrix" values="0 0 0 0 0 0 0 0 0 0 0 0 0 0 0 0 0 0 127 0"/>
<feOffset dx="5" dy="10"/>
<feGaussianBlur stdDeviation="5"/>
<feColorMatrix type="matrix" values="0 0 0 0 0 0 0 0 0 0 0 0 0 0 0 0 0 0 1 0"/>
<feBlend mode="normal" in2="BackgroundImageFix" result="effect1_dropShadow"/>
<feBlend mode="normal" in="SourceGraphic" in2="effect1_dropShadow" result="shape"/>
</filter>
<filter id="filter1_d" x="22.9136" y="17" width="679.245" height="98.3" filterUnits="userSpaceOnUse" color-interpolation-filters="sRGB">
<feFlood flood-opacity="0" result="BackgroundImageFix"/>
<feColorMatrix in="SourceAlpha" type="matrix" values="0 0 0 0 0 0 0 0 0 0 0 0 0 0 0 0 0 0 127 0"/>
<feOffset dx="5" dy="10"/>
<feGaussianBlur stdDeviation="5"/>
<feColorMatrix type="matrix" values="0 0 0 0 0 0 0 0 0 0 0 0 0 0 0 0 0 0 1 0"/>
<feBlend mode="normal" in2="BackgroundImageFix" result="effect1_dropShadow"/>
<feBlend mode="normal" in="SourceGraphic" in2="effect1_dropShadow" result="shape"/>
</filter>
</defs>
</svg>
