<svg width="767" height="111" viewBox="0 0 767 111" fill="none" xmlns="http://www.w3.org/2000/svg">
<g clip-path="url(#clip0)">
<g filter="url(#filter0_d)">
<path d="M71.6727 29.4C76.6061 29.4 80.706 30.9 83.9725 33.9C87.1723 36.9 88.7721 41.0333 88.7718 46.3L88.7693 93.1H85.5693L85.5703 75H71.7703L71.7704 72.2H85.5704L85.5718 46.3C85.5721 41.9 84.2722 38.4333 81.6724 35.9C79.0058 33.4333 75.6726 32.2 71.6726 32.2L71.6727 29.4Z" fill="#FF0000"/>
<path d="M71.6727 29.4L71.6728 28.4H70.6728L70.6727 29.4H71.6727ZM83.9725 33.9L84.6565 33.1704L84.6489 33.1635L83.9725 33.9ZM88.7693 93.1L88.7692 94.1H89.7692L89.7693 93.1H88.7693ZM85.5693 93.1H84.5693L84.5692 94.1H85.5692L85.5693 93.1ZM85.5703 75H86.5703L86.5703 74H85.5703L85.5703 75ZM71.7703 75H70.7703L70.7702 76H71.7702L71.7703 75ZM71.7704 72.2L71.7705 71.2H70.7705L70.7704 72.2H71.7704ZM85.5704 72.2L85.5704 73.2H86.5704L86.5704 72.2H85.5704ZM81.6724 35.9L82.3703 35.1838L82.361 35.1747L82.3515 35.1659L81.6724 35.9ZM71.6726 32.2H70.6726L70.6725 33.2H71.6725L71.6726 32.2ZM71.6727 30.4C76.3859 30.4 80.2353 31.8255 83.296 34.6365L84.6489 33.1635C81.1767 29.9745 76.8262 28.4 71.6728 28.4L71.6727 30.4ZM83.2885 34.6295C86.2468 37.403 87.7721 41.2498 87.7718 46.3H89.7718C89.7721 40.8169 88.0979 36.397 84.6565 33.1705L83.2885 34.6295ZM87.7718 46.3L87.7693 93.1H89.7693L89.7718 46.3H87.7718ZM88.7693 92.1H85.5693L85.5692 94.1H88.7692L88.7693 92.1ZM86.5693 93.1L86.5703 75H84.5703L84.5693 93.1H86.5693ZM85.5703 74H71.7703L71.7702 76H85.5702L85.5703 74ZM72.7703 75L72.7704 72.2H70.7704L70.7703 75H72.7703ZM71.7704 73.2H85.5704L85.5705 71.2H71.7705L71.7704 73.2ZM86.5704 72.2L86.5718 46.3H84.5718L84.5704 72.2H86.5704ZM86.5718 46.3C86.5721 41.6916 85.2032 37.9442 82.3703 35.1838L80.9745 36.6162C83.3413 38.9225 84.572 42.1084 84.5718 46.3H86.5718ZM82.3515 35.1659C79.4808 32.5104 75.8967 31.2 71.6726 31.2L71.6725 33.2C75.4484 33.2 78.5309 34.3563 80.9933 36.6341L82.3515 35.1659ZM72.6726 32.2L72.6727 29.4H70.6727L70.6726 32.2H72.6726Z" fill="#FF0000"/>
</g>
<g filter="url(#filter1_d)">
<path d="M17.2 86.1C14 86.1 11.1667 85.5667 8.7 84.5C6.23333 83.3667 4.46667 81.9333 3.4 80.2V74.9C4.66667 77.7667 6.4 79.9 8.6 81.3C10.8 82.6333 13.6 83.3 17 83.3C20.2667 83.3 22.9 82.3 24.9 80.3C26.9 78.2333 27.9 75.6 27.9 72.4C27.9 69.6667 27.3333 67.5667 26.2 66.1C25.0667 64.5667 23.2333 63.0333 20.7 61.5L16.9 59.3C14.1667 57.6333 12.1 56.3333 10.7 55.4C9.36667 54.4 8.3 53.3 7.5 52.1C6.7 50.8333 6.3 49.3667 6.3 47.7C6.3 45.0333 7.23333 42.9 9.1 41.3C10.9667 39.7 13.4 38.9 16.4 38.9C20.0667 38.9 23.1333 39.7333 25.6 41.4V45.8C23.5333 43.0667 20.5667 41.7 16.7 41.7C14.5667 41.7 12.8333 42.2333 11.5 43.3C10.1667 44.3667 9.5 45.7333 9.5 47.4C9.5 48.8667 9.9 50.1667 10.7 51.3C11.5 52.3667 12.6 53.3667 14 54.3C15.4667 55.2333 17.8667 56.6333 21.2 58.5C24.6 60.4333 27.1 62.4333 28.7 64.5C30.3 66.5 31.1 69.1333 31.1 72.4C31.1 76.5333 29.7333 79.8667 27 82.4C24.3333 84.8667 21.0667 86.1 17.2 86.1ZM146.938 29.7C146.005 29.7 145.172 29.3667 144.438 28.7C143.772 28.0333 143.438 27.2 143.438 26.2C143.438 25.2667 143.772 24.4667 144.438 23.8C145.172 23.1333 146.005 22.8 146.938 22.8C147.872 22.8 148.672 23.1333 149.338 23.8C150.072 24.4667 150.438 25.2667 150.438 26.2C150.438 27.2 150.072 28.0333 149.338 28.7C148.672 29.3667 147.872 29.7 146.938 29.7ZM145.338 40H148.538V85H145.338V40ZM220.548 85.9C217.415 85.9 214.548 85.2 211.948 83.8C209.348 82.3333 207.282 80.3 205.748 77.7C204.215 75.1 203.448 72.2 203.448 69V9.99999H206.648V69C206.648 71.6667 207.248 74.0667 208.448 76.2C209.715 78.3333 211.415 80.0333 213.548 81.3C215.682 82.5 218.015 83.1 220.548 83.1V85.9ZM294.49 86.1C290.423 86.1 286.49 85 282.69 82.8C278.957 80.6 276.09 77.7 274.09 74.1V85H270.89V9.99999H274.09V51.4C275.89 47.6 278.69 44.5667 282.49 42.3C286.29 40.0333 290.29 38.9 294.49 38.9C298.823 38.9 302.79 39.9667 306.39 42.1C310.057 44.2333 312.957 47.1 315.09 50.7C317.223 54.3 318.29 58.2333 318.29 62.5C318.29 66.7667 317.223 70.7 315.09 74.3C312.957 77.9 310.057 80.7667 306.39 82.9C302.79 85.0333 298.823 86.1 294.49 86.1ZM294.69 83.3C298.357 83.3 301.757 82.3667 304.89 80.5C308.023 78.5667 310.49 76.0333 312.29 72.9C314.157 69.7 315.09 66.2333 315.09 62.5C315.09 58.8333 314.157 55.4 312.29 52.2C310.423 49 307.923 46.4667 304.79 44.6C301.657 42.6667 298.257 41.7 294.59 41.7C290.923 41.7 287.49 42.6667 284.29 44.6C281.157 46.5333 278.623 49.1 276.69 52.3C274.823 55.5 273.89 58.9333 273.89 62.6C273.89 66.2667 274.823 69.7 276.69 72.9C278.623 76.0333 281.19 78.5667 284.39 80.5C287.59 82.3667 291.023 83.3 294.69 83.3ZM367.335 40H370.535V50.4C371.868 47.1333 373.802 44.5667 376.335 42.7C378.935 40.8333 381.868 39.9 385.135 39.9C387.202 39.9 389.302 40.3333 391.435 41.2V44.9C389.502 43.4333 387.335 42.7 384.935 42.7C382.535 42.7 380.202 43.4333 377.935 44.9C375.735 46.3667 373.935 48.3333 372.535 50.8C371.202 53.2667 370.535 55.9 370.535 58.7V85H367.335V40ZM455.166 29.4C454.366 29.4 453.666 29.1333 453.066 28.6C452.533 28 452.266 27.3 452.266 26.5C452.266 25.7667 452.533 25.1333 453.066 24.6C453.666 24 454.366 23.7 455.166 23.7C455.9 23.7 456.533 24 457.066 24.6C457.666 25.1333 457.966 25.7667 457.966 26.5C457.966 27.3 457.666 28 457.066 28.6C456.533 29.1333 455.9 29.4 455.166 29.4ZM465.766 29.4C464.966 29.4 464.266 29.1333 463.666 28.6C463.133 28 462.866 27.3 462.866 26.5C462.866 25.7667 463.133 25.1333 463.666 24.6C464.266 24 464.966 23.7 465.766 23.7C466.5 23.7 467.133 24 467.666 24.6C468.266 25.1333 468.566 25.7667 468.566 26.5C468.566 27.3 468.266 28 467.666 28.6C467.133 29.1333 466.5 29.4 465.766 29.4ZM459.166 86.1C452.833 86.1 447.933 84.3667 444.466 80.9C441.066 77.4333 439.366 72.5333 439.366 66.2V40H442.566V66.2C442.566 71.6667 444 75.9 446.866 78.9C449.8 81.8333 453.9 83.3 459.166 83.3C462.366 83.3 465.3 82.6 467.966 81.2C470.633 79.7333 472.733 77.7 474.266 75.1C475.8 72.5 476.566 69.5333 476.566 66.2V40H479.766V85H476.566V76.6C475.033 79.4 472.733 81.7 469.666 83.5C466.6 85.2333 463.1 86.1 459.166 86.1ZM553.594 86.3C549.26 86.3 545.26 85.2667 541.594 83.2C537.994 81.1333 535.127 78.3 532.994 74.7C530.86 71.1 529.794 67.0333 529.794 62.5C529.794 58.3 530.86 54.4333 532.994 50.9C535.127 47.3 538.027 44.4333 541.694 42.3C545.427 40.1667 549.527 39.1 553.994 39.1C557.727 39.1 560.927 39.7 563.594 40.9C566.26 42.1 568.86 43.9667 571.394 46.5V51.9C569.194 48.6333 566.727 46.1667 563.994 44.5C561.327 42.7667 557.994 41.9 553.994 41.9C550.327 41.9 546.86 42.8667 543.594 44.8C540.394 46.6667 537.827 49.2 535.894 52.4C533.96 55.6 532.994 59.0333 532.994 62.7C532.994 66.7 533.927 70.3 535.794 73.5C537.66 76.6333 540.16 79.1 543.294 80.9C546.494 82.6333 549.927 83.5 553.594 83.5C561.06 83.5 566.994 80.1333 571.394 73.4V78.8C568.994 81.3333 566.327 83.2333 563.394 84.5C560.527 85.7 557.26 86.3 553.594 86.3ZM620.245 9.99999H623.445V49.3C624.845 46.3 627.212 43.8333 630.545 41.9C633.945 39.9 637.379 38.9 640.845 38.9C647.179 38.9 652.045 40.6333 655.445 44.1C658.912 47.5667 660.645 52.4667 660.645 58.8V85H657.445V58.8C657.445 53.3333 655.979 49.1333 653.045 46.2C650.179 43.2 646.112 41.7 640.845 41.7C637.645 41.7 634.712 42.4667 632.045 44C629.379 45.4667 627.279 47.5333 625.745 50.2C624.212 52.8 623.445 55.6667 623.445 58.8V85H620.245V9.99999ZM735.173 83.4C738.639 83.4 741.939 82.5 745.073 80.7C748.206 78.9 750.806 76.4333 752.873 73.3V78.4C750.406 81.1333 747.706 83.1333 744.773 84.4C741.839 85.6 738.506 86.2 734.773 86.2C730.639 86.2 726.739 85.1 723.073 82.9C719.473 80.7 716.573 77.7667 714.373 74.1C712.239 70.4333 711.173 66.5333 711.173 62.4C711.173 57.9333 712.239 53.9333 714.373 50.4C716.506 46.8 719.406 44 723.073 42C726.806 40 730.939 39 735.473 39C742.406 39 748.306 41.7333 753.173 47.2L721.773 78.2C723.973 80 726.106 81.3333 728.173 82.2C730.239 83 732.573 83.4 735.173 83.4ZM714.373 62.1C714.373 67.6333 716.206 72.3667 719.873 76.3L749.173 47.2C746.973 45.2667 744.839 43.9 742.773 43.1C740.706 42.2333 738.239 41.8 735.373 41.8C731.306 41.8 727.673 42.7 724.473 44.5C721.339 46.2333 718.873 48.6333 717.073 51.7C715.273 54.7667 714.373 58.2333 714.373 62.1Z" fill="#FF0000"/>
<path d="M8.7 84.5L8.2825 85.4087L8.29274 85.4134L8.30309 85.4179L8.7 84.5ZM3.4 80.2H2.4V80.483L2.54834 80.7241L3.4 80.2ZM3.4 74.9L4.31469 74.4958L2.4 74.9H3.4ZM8.6 81.3L8.06312 82.1437L8.07235 82.1495L8.0817 82.1552L8.6 81.3ZM24.9 80.3L25.6071 81.0071L25.6129 81.0013L25.6186 80.9954L24.9 80.3ZM26.2 66.1L25.3958 66.6944L25.4022 66.703L25.4087 66.7114L26.2 66.1ZM20.7 61.5L21.2178 60.6445L21.2095 60.6395L21.201 60.6346L20.7 61.5ZM16.9 59.3L16.3794 60.1538L16.3891 60.1597L16.399 60.1654L16.9 59.3ZM10.7 55.4L10.1 56.2L10.1222 56.2167L10.1453 56.232L10.7 55.4ZM7.5 52.1L6.65451 52.634L6.6611 52.6444L6.66795 52.6547L7.5 52.1ZM9.1 41.3L9.75079 42.0593L9.75079 42.0593L9.1 41.3ZM25.6 41.4H26.6V40.8688L26.1599 40.5714L25.6 41.4ZM25.6 45.8L24.8023 46.4031L26.6 48.7807V45.8H25.6ZM11.5 43.3L10.8753 42.5191L11.5 43.3ZM10.7 51.3L9.88303 51.8767L9.89135 51.8885L9.9 51.9L10.7 51.3ZM14 54.3L13.4453 55.132L13.4542 55.1379L13.4631 55.1437L14 54.3ZM21.2 58.5L21.6943 57.6307L21.6886 57.6275L21.2 58.5ZM28.7 64.5L27.9093 65.1122L27.9142 65.1185L27.9191 65.1247L28.7 64.5ZM27 82.4L27.679 83.1341L27.6798 83.1334L27 82.4ZM17.2 85.1C14.1109 85.1 11.4167 84.5853 9.09691 83.5821L8.30309 85.4179C10.9166 86.548 13.8891 87.1 17.2 87.1V85.1ZM9.1175 83.5913C6.77164 82.5135 5.18542 81.1933 4.25166 79.6759L2.54834 80.7241C3.74791 82.6734 5.69503 84.2198 8.2825 85.4087L9.1175 83.5913ZM4.4 80.2V74.9H2.4V80.2H4.4ZM2.48531 75.3042C3.81543 78.3144 5.66545 80.6179 8.06312 82.1437L9.13688 80.4563C7.13455 79.1821 5.5179 77.2189 4.31469 74.4958L2.48531 75.3042ZM8.0817 82.1552C10.4806 83.6091 13.4745 84.3 17 84.3V82.3C13.7255 82.3 11.1194 81.6576 9.1183 80.4448L8.0817 82.1552ZM17 84.3C20.4874 84.3 23.3903 83.2239 25.6071 81.0071L24.1929 79.5929C22.4097 81.3761 20.046 82.3 17 82.3V84.3ZM25.6186 80.9954C27.8201 78.7205 28.9 75.8277 28.9 72.4H26.9C26.9 75.3723 25.9799 77.7461 24.1814 79.6046L25.6186 80.9954ZM28.9 72.4C28.9 69.5462 28.3108 67.1962 26.9913 65.4886L25.4087 66.7114C26.3559 67.9371 26.9 69.7871 26.9 72.4H28.9ZM27.0042 65.5056C25.7625 63.8257 23.8076 62.212 21.2178 60.6445L20.1822 62.3555C22.659 63.8546 24.3708 65.3076 25.3958 66.6944L27.0042 65.5056ZM21.201 60.6346L17.401 58.4346L16.399 60.1654L20.199 62.3654L21.201 60.6346ZM17.4206 58.4462C14.6905 56.7815 12.6376 55.4899 11.2547 54.5679L10.1453 56.232C11.5624 57.1768 13.6428 58.4852 16.3794 60.1538L17.4206 58.4462ZM11.3 54.6C10.0435 53.6576 9.06022 52.6376 8.33205 51.5453L6.66795 52.6547C7.53978 53.9624 8.68984 55.1424 10.1 56.2L11.3 54.6ZM8.34549 51.566C7.65754 50.4768 7.3 49.1996 7.3 47.7H5.3C5.3 49.5337 5.74246 51.1899 6.65451 52.634L8.34549 51.566ZM7.3 47.7C7.3 45.2973 8.12616 43.4518 9.75079 42.0593L8.44921 40.5407C6.34051 42.3482 5.3 44.7694 5.3 47.7H7.3ZM9.75079 42.0593C11.3986 40.6469 13.584 39.9 16.4 39.9V37.9C13.216 37.9 10.5347 38.7531 8.44921 40.5407L9.75079 42.0593ZM16.4 39.9C19.9137 39.9 22.7736 40.6971 25.0401 42.2286L26.1599 40.5714C23.4931 38.7695 20.2196 37.9 16.4 37.9V39.9ZM24.6 41.4V45.8H26.6V41.4H24.6ZM26.3977 45.1969C24.1159 42.179 20.834 40.7 16.7 40.7V42.7C20.2993 42.7 22.9508 43.9543 24.8023 46.4031L26.3977 45.1969ZM16.7 40.7C14.3975 40.7 12.4265 41.2782 10.8753 42.5191L12.1247 44.0809C13.2402 43.1885 14.7358 42.7 16.7 42.7V40.7ZM10.8753 42.5191C9.31152 43.7702 8.5 45.421 8.5 47.4H10.5C10.5 46.0457 11.0218 44.9632 12.1247 44.0809L10.8753 42.5191ZM8.5 47.4C8.5 49.0607 8.95691 50.5647 9.88303 51.8767L11.517 50.7233C10.8431 49.7687 10.5 48.6727 10.5 47.4H8.5ZM9.9 51.9C10.7832 53.0776 11.9746 54.1516 13.4453 55.132L14.5547 53.4679C13.2254 52.5818 12.2168 51.6557 11.5 50.7L9.9 51.9ZM13.4631 55.1437C14.9552 56.0932 17.3763 57.5048 20.7114 59.3725L21.6886 57.6275C18.3571 55.7618 15.9781 54.3735 14.5369 53.4563L13.4631 55.1437ZM20.7057 59.3693C24.0425 61.2667 26.4199 63.1884 27.9093 65.1122L29.4907 63.8878C27.7801 61.6782 25.1575 59.5999 21.6943 57.6307L20.7057 59.3693ZM27.9191 65.1247C29.3421 66.9034 30.1 69.2968 30.1 72.4H32.1C32.1 68.9698 31.2579 66.0966 29.4809 63.8753L27.9191 65.1247ZM30.1 72.4C30.1 76.2886 28.8259 79.3442 26.3202 81.6666L27.6798 83.1334C30.6408 80.3891 32.1 76.778 32.1 72.4H30.1ZM26.321 81.6659C23.8517 83.9499 20.8327 85.1 17.2 85.1V87.1C21.3006 87.1 24.8149 85.7834 27.679 83.1341L26.321 81.6659ZM144.438 28.7L143.731 29.4071L143.748 29.4239L143.766 29.4399L144.438 28.7ZM144.438 23.8L143.766 23.0601L143.748 23.0761L143.731 23.0929L144.438 23.8ZM149.338 23.8L148.631 24.5071L148.648 24.5239L148.666 24.5399L149.338 23.8ZM149.338 28.7L148.666 27.9601L148.648 27.9761L148.631 27.9929L149.338 28.7ZM145.338 40V39H144.338V40H145.338ZM148.538 40H149.538V39H148.538V40ZM148.538 85V86H149.538V85H148.538ZM145.338 85H144.338V86H145.338V85ZM146.938 28.7C146.27 28.7 145.673 28.4707 145.111 27.9601L143.766 29.4399C144.671 30.2626 145.74 30.7 146.938 30.7V28.7ZM145.145 27.9929C144.679 27.526 144.438 26.9526 144.438 26.2H142.438C142.438 27.4474 142.865 28.5406 143.731 29.4071L145.145 27.9929ZM144.438 26.2C144.438 25.5349 144.664 24.9884 145.145 24.5071L143.731 23.0929C142.879 23.945 142.438 24.9984 142.438 26.2H144.438ZM145.111 24.5399C145.673 24.0293 146.27 23.8 146.938 23.8V21.8C145.74 21.8 144.671 22.2374 143.766 23.0601L145.111 24.5399ZM146.938 23.8C147.603 23.8 148.15 24.0258 148.631 24.5071L150.045 23.0929C149.193 22.2408 148.14 21.8 146.938 21.8V23.8ZM148.666 24.5399C149.205 25.0303 149.438 25.5675 149.438 26.2H151.438C151.438 24.9659 150.938 23.903 150.011 23.0601L148.666 24.5399ZM149.438 26.2C149.438 26.9212 149.188 27.4849 148.666 27.9601L150.011 29.4399C150.955 28.5818 151.438 27.4788 151.438 26.2H149.438ZM148.631 27.9929C148.15 28.4742 147.603 28.7 146.938 28.7V30.7C148.14 30.7 149.193 30.2592 150.045 29.4071L148.631 27.9929ZM145.338 41H148.538V39H145.338V41ZM147.538 40V85H149.538V40H147.538ZM148.538 84H145.338V86H148.538V84ZM146.338 85V40H144.338V85H146.338ZM220.548 85.9V86.9H221.548V85.9H220.548ZM211.948 83.8L211.457 84.671L211.466 84.6758L211.474 84.6805L211.948 83.8ZM205.748 77.7L206.61 77.192L205.748 77.7ZM203.448 9.99999V8.99999H202.448V9.99999H203.448ZM206.648 9.99999H207.648V8.99999H206.648V9.99999ZM208.448 76.2L207.577 76.6903L207.583 76.7005L207.589 76.7105L208.448 76.2ZM213.548 81.3L213.038 82.1599L213.048 82.1658L213.058 82.1716L213.548 81.3ZM220.548 83.1H221.548V82.1H220.548V83.1ZM220.548 84.9C217.57 84.9 214.868 84.2363 212.423 82.9195L211.474 84.6805C214.229 86.1637 217.26 86.9 220.548 86.9V84.9ZM212.44 82.929C209.995 81.5497 208.055 79.6424 206.61 77.192L204.887 78.208C206.509 80.9576 208.702 83.1169 211.457 84.671L212.44 82.929ZM206.61 77.192C205.173 74.7553 204.448 72.0325 204.448 69H202.448C202.448 72.3675 203.257 75.4447 204.887 78.208L206.61 77.192ZM204.448 69V9.99999H202.448V69H204.448ZM203.448 11H206.648V8.99999H203.448V11ZM205.648 9.99999V69H207.648V9.99999H205.648ZM205.648 69C205.648 71.8226 206.285 74.3941 207.577 76.6903L209.32 75.7097C208.212 73.7393 207.648 71.5107 207.648 69H205.648ZM207.589 76.7105C208.941 78.9877 210.761 80.8078 213.038 82.1599L214.059 80.4401C212.069 79.2589 210.49 77.679 209.308 75.6895L207.589 76.7105ZM213.058 82.1716C215.347 83.4588 217.85 84.1 220.548 84.1V82.1C218.181 82.1 216.017 81.5412 214.039 80.4284L213.058 82.1716ZM219.548 83.1V85.9H221.548V83.1H219.548ZM282.69 82.8L282.182 83.6616L282.189 83.6654L282.69 82.8ZM274.09 74.1L274.964 73.6144L273.09 70.2409V74.1H274.09ZM274.09 85V86H275.09V85H274.09ZM270.89 85H269.89V86H270.89V85ZM270.89 9.99999V8.99999H269.89V9.99999H270.89ZM274.09 9.99999H275.09V8.99999H274.09V9.99999ZM274.09 51.4H273.09L274.994 51.8281L274.09 51.4ZM282.49 42.3L281.978 41.4412L282.49 42.3ZM306.39 42.1L305.88 42.9603L305.887 42.9643L306.39 42.1ZM315.09 50.7L314.23 51.2098L315.09 50.7ZM315.09 74.3L314.23 73.7902L315.09 74.3ZM306.39 82.9L305.887 82.0356L305.88 82.0397L306.39 82.9ZM304.89 80.5L305.402 81.3591L305.408 81.3551L305.415 81.351L304.89 80.5ZM312.29 72.9L311.426 72.3961L311.423 72.4019L312.29 72.9ZM312.29 52.2L313.154 51.6961L312.29 52.2ZM304.79 44.6L304.265 45.451L304.271 45.4551L304.278 45.4591L304.79 44.6ZM284.29 44.6L283.773 43.744L283.765 43.749L284.29 44.6ZM276.69 52.3L275.834 51.7829L275.83 51.7895L275.826 51.7961L276.69 52.3ZM276.69 72.9L275.826 73.4039L275.832 73.4146L275.839 73.4251L276.69 72.9ZM284.39 80.5L283.873 81.3559L283.879 81.3599L283.886 81.3638L284.39 80.5ZM294.49 85.1C290.613 85.1 286.851 84.0537 283.191 81.9346L282.189 83.6654C286.129 85.9463 290.233 87.1 294.49 87.1V85.1ZM283.198 81.9385C279.609 79.824 276.873 77.0504 274.964 73.6144L273.216 74.5856C275.307 78.3496 278.304 81.376 282.182 83.6615L283.198 81.9385ZM273.09 74.1V85H275.09V74.1H273.09ZM274.09 84H270.89V86H274.09V84ZM271.89 85V9.99999H269.89V85H271.89ZM270.89 11H274.09V8.99999H270.89V11ZM273.09 9.99999V51.4H275.09V9.99999H273.09ZM274.994 51.8281C276.704 48.2169 279.363 45.3295 283.002 43.1588L281.978 41.4412C278.017 43.8038 275.076 46.9831 273.186 50.9719L274.994 51.8281ZM283.002 43.1588C286.656 40.9794 290.48 39.9 294.49 39.9V37.9C290.1 37.9 285.924 39.0873 281.978 41.4412L283.002 43.1588ZM294.49 39.9C298.65 39.9 302.44 40.9218 305.88 42.9603L306.9 41.2397C303.14 39.0116 298.996 37.9 294.49 37.9V39.9ZM305.887 42.9643C309.408 45.0131 312.184 47.7586 314.23 51.2098L315.95 50.1902C313.729 46.4414 310.705 43.4535 306.893 41.2356L305.887 42.9643ZM314.23 51.2098C316.27 54.6523 317.29 58.409 317.29 62.5H319.29C319.29 58.0576 318.177 53.9477 315.95 50.1902L314.23 51.2098ZM317.29 62.5C317.29 66.591 316.27 70.3477 314.23 73.7902L315.95 74.8098C318.177 71.0523 319.29 66.9424 319.29 62.5H317.29ZM314.23 73.7902C312.184 77.2414 309.408 79.9869 305.887 82.0357L306.893 83.7643C310.705 81.5465 313.729 78.5586 315.95 74.8098L314.23 73.7902ZM305.88 82.0397C302.44 84.0782 298.65 85.1 294.49 85.1V87.1C298.996 87.1 303.14 85.9884 306.9 83.7603L305.88 82.0397ZM294.69 84.3C298.536 84.3 302.113 83.3185 305.402 81.3591L304.378 79.6409C301.4 81.4148 298.177 82.3 294.69 82.3V84.3ZM305.415 81.351C308.687 79.3321 311.272 76.6785 313.157 73.3981L311.423 72.4019C309.707 75.3881 307.359 77.8013 304.365 79.649L305.415 81.351ZM313.154 73.4039C315.11 70.0497 316.09 66.4089 316.09 62.5H314.09C314.09 66.0577 313.203 69.3503 311.426 72.3961L313.154 73.4039ZM316.09 62.5C316.09 58.6544 315.109 55.0474 313.154 51.6961L311.426 52.7039C313.204 55.7526 314.09 59.0123 314.09 62.5H316.09ZM313.154 51.6961C311.203 48.3522 308.583 45.6957 305.302 43.7409L304.278 45.4591C307.263 47.2377 309.643 49.6478 311.426 52.7039L313.154 51.6961ZM305.315 43.749C302.024 41.7187 298.443 40.7 294.59 40.7V42.7C298.07 42.7 301.289 43.6147 304.265 45.451L305.315 43.749ZM294.59 40.7C290.737 40.7 287.126 41.7184 283.773 43.7441L284.807 45.4559C287.854 43.6149 291.109 42.7 294.59 42.7V40.7ZM283.765 43.749C280.494 45.7671 277.848 48.4491 275.834 51.7829L277.546 52.8171C279.398 49.7509 281.819 47.2996 284.815 45.451L283.765 43.749ZM275.826 51.7961C273.871 55.1474 272.89 58.7544 272.89 62.6H274.89C274.89 59.1123 275.775 55.8526 277.554 52.8039L275.826 51.7961ZM272.89 62.6C272.89 66.4456 273.871 70.0526 275.826 73.4039L277.554 72.3961C275.775 69.3474 274.89 66.0877 274.89 62.6H272.89ZM275.839 73.4251C277.857 76.6958 280.539 79.3417 283.873 81.3559L284.907 79.6441C281.841 77.7916 279.389 75.3708 277.541 72.3749L275.839 73.4251ZM283.886 81.3638C287.237 83.3187 290.844 84.3 294.69 84.3V82.3C291.202 82.3 287.942 81.4146 284.894 79.6362L283.886 81.3638ZM367.335 40V39H366.335V40H367.335ZM370.535 40H371.535V39H370.535V40ZM370.535 50.4H369.535L371.461 50.7779L370.535 50.4ZM376.335 42.7L375.752 41.8876L375.742 41.8949L376.335 42.7ZM391.435 41.2H392.435V40.5269L391.812 40.2735L391.435 41.2ZM391.435 44.9L390.831 45.6967L392.435 46.9138V44.9H391.435ZM377.935 44.9L377.392 44.0603L377.38 44.0679L377.935 44.9ZM372.535 50.8L371.665 50.3064L371.66 50.3154L371.655 50.3245L372.535 50.8ZM370.535 85V86H371.535V85H370.535ZM367.335 85H366.335V86H367.335V85ZM367.335 41H370.535V39H367.335V41ZM369.535 40V50.4H371.535V40H369.535ZM371.461 50.7779C372.733 47.6603 374.56 45.2498 376.928 43.5051L375.742 41.8949C373.043 43.8835 371.003 46.6064 369.609 50.0221L371.461 50.7779ZM376.918 43.5123C379.345 41.7704 382.073 40.9 385.135 40.9V38.9C381.664 38.9 378.526 39.8963 375.752 41.8877L376.918 43.5123ZM385.135 40.9C387.059 40.9 389.031 41.3028 391.059 42.1265L391.812 40.2735C389.572 39.3638 387.345 38.9 385.135 38.9V40.9ZM390.435 41.2V44.9H392.435V41.2H390.435ZM392.04 44.1033C389.934 42.5063 387.556 41.7 384.935 41.7V43.7C387.114 43.7 389.069 44.3603 390.831 45.6967L392.04 44.1033ZM384.935 41.7C382.319 41.7 379.8 42.5025 377.392 44.0604L378.478 45.7396C380.604 44.3641 382.751 43.7 384.935 43.7V41.7ZM377.38 44.0679C375.041 45.6275 373.137 47.714 371.665 50.3064L373.405 51.2936C374.733 48.9527 376.429 47.1058 378.49 45.732L377.38 44.0679ZM371.655 50.3245C370.243 52.937 369.535 55.7337 369.535 58.7H371.535C371.535 56.0663 372.16 53.5963 373.415 51.2755L371.655 50.3245ZM369.535 58.7V85H371.535V58.7H369.535ZM370.535 84H367.335V86H370.535V84ZM368.335 85V40H366.335V85H368.335ZM453.066 28.6L452.319 29.2644L452.358 29.3083L452.402 29.3474L453.066 28.6ZM453.066 24.6L452.359 23.8929L453.066 24.6ZM457.066 24.6L456.319 25.2644L456.358 25.3083L456.402 25.3474L457.066 24.6ZM457.066 28.6L457.773 29.3071L457.774 29.3071L457.066 28.6ZM463.666 28.6L462.919 29.2644L462.958 29.3083L463.002 29.3474L463.666 28.6ZM463.666 24.6L464.374 25.3071L463.666 24.6ZM467.666 24.6L466.919 25.2644L466.958 25.3083L467.002 25.3474L467.666 24.6ZM467.666 28.6L468.374 29.3071V29.3071L467.666 28.6ZM444.466 80.9L443.752 81.6002L443.759 81.6071L444.466 80.9ZM439.366 40V39H438.366V40H439.366ZM442.566 40H443.566V39H442.566V40ZM446.866 78.9L446.143 79.5909L446.151 79.5991L446.159 79.6071L446.866 78.9ZM467.966 81.2L468.431 82.0854L468.44 82.0809L468.448 82.0762L467.966 81.2ZM476.566 40V39H475.566V40H476.566ZM479.766 40H480.766V39H479.766V40ZM479.766 85V86H480.766V85H479.766ZM476.566 85H475.566V86H476.566V85ZM476.566 76.6H477.566L475.689 76.1197L476.566 76.6ZM469.666 83.5L470.158 84.3706L470.166 84.3665L470.173 84.3624L469.666 83.5ZM455.166 28.4C454.612 28.4 454.148 28.2238 453.731 27.8526L452.402 29.3474C453.184 30.0428 454.121 30.4 455.166 30.4V28.4ZM453.814 27.9356C453.443 27.518 453.266 27.0541 453.266 26.5H451.266C451.266 27.5458 451.624 28.482 452.319 29.2644L453.814 27.9356ZM453.266 26.5C453.266 26.0402 453.422 25.6589 453.774 25.3071L452.359 23.8929C451.644 24.6078 451.266 25.4931 451.266 26.5H453.266ZM453.773 25.3071C454.199 24.882 454.649 24.7 455.166 24.7V22.7C454.084 22.7 453.134 23.118 452.359 23.8929L453.773 25.3071ZM455.166 24.7C455.585 24.7 455.955 24.8552 456.319 25.2644L457.814 23.9356C457.111 23.1448 456.214 22.7 455.166 22.7V24.7ZM456.402 25.3474C456.811 25.7111 456.966 26.0813 456.966 26.5H458.966C458.966 25.452 458.522 24.5555 457.731 23.8526L456.402 25.3474ZM456.966 26.5C456.966 27.0174 456.784 27.4678 456.359 27.8929L457.774 29.3071C458.548 28.5322 458.966 27.5826 458.966 26.5H456.966ZM456.359 27.8929C456.008 28.2447 455.626 28.4 455.166 28.4V30.4C456.173 30.4 457.059 30.022 457.773 29.3071L456.359 27.8929ZM465.766 28.4C465.212 28.4 464.748 28.2238 464.331 27.8526L463.002 29.3474C463.784 30.0428 464.721 30.4 465.766 30.4V28.4ZM464.414 27.9356C464.043 27.518 463.866 27.0541 463.866 26.5H461.866C461.866 27.5458 462.224 28.482 462.919 29.2644L464.414 27.9356ZM463.866 26.5C463.866 26.0402 464.022 25.6589 464.374 25.3071L462.959 23.8929C462.244 24.6078 461.866 25.4931 461.866 26.5H463.866ZM464.374 25.3071C464.799 24.882 465.249 24.7 465.766 24.7V22.7C464.684 22.7 463.734 23.118 462.959 23.8929L464.374 25.3071ZM465.766 24.7C466.185 24.7 466.555 24.8552 466.919 25.2644L468.414 23.9356C467.711 23.1448 466.814 22.7 465.766 22.7V24.7ZM467.002 25.3474C467.411 25.7111 467.566 26.0813 467.566 26.5H469.566C469.566 25.452 469.122 24.5555 468.331 23.8526L467.002 25.3474ZM467.566 26.5C467.566 27.0174 467.384 27.4678 466.959 27.8929L468.374 29.3071C469.148 28.5322 469.566 27.5826 469.566 26.5H467.566ZM466.959 27.8929C466.608 28.2447 466.226 28.4 465.766 28.4V30.4C466.773 30.4 467.659 30.022 468.374 29.3071L466.959 27.8929ZM459.166 85.1C453.017 85.1 448.402 83.4217 445.174 80.1929L443.759 81.6071C447.464 85.3116 452.649 87.1 459.166 87.1V85.1ZM445.18 80.1998C442.014 76.9718 440.366 72.3542 440.366 66.2H438.366C438.366 72.7125 440.118 77.8949 443.752 81.6002L445.18 80.1998ZM440.366 66.2V40H438.366V66.2H440.366ZM439.366 41H442.566V39H439.366V41ZM441.566 40V66.2H443.566V40H441.566ZM441.566 66.2C441.566 71.8398 443.048 76.3517 446.143 79.5909L447.589 78.2091C444.951 75.4483 443.566 71.4935 443.566 66.2H441.566ZM446.159 79.6071C449.327 82.7751 453.71 84.3 459.166 84.3V82.3C454.09 82.3 450.272 80.8915 447.574 78.1929L446.159 79.6071ZM459.166 84.3C462.518 84.3 465.612 83.5654 468.431 82.0854L467.502 80.3146C464.987 81.6346 462.215 82.3 459.166 82.3V84.3ZM468.448 82.0762C471.271 80.5238 473.503 78.3639 475.128 75.608L473.405 74.592C471.964 77.0361 469.995 78.9428 467.484 80.3238L468.448 82.0762ZM475.128 75.608C476.761 72.8384 477.566 69.6928 477.566 66.2H475.566C475.566 69.3738 474.838 72.1616 473.405 74.592L475.128 75.608ZM477.566 66.2V40H475.566V66.2H477.566ZM476.566 41H479.766V39H476.566V41ZM478.766 40V85H480.766V40H478.766ZM479.766 84H476.566V86H479.766V84ZM477.566 85V76.6H475.566V85H477.566ZM475.689 76.1197C474.252 78.7436 472.089 80.9184 469.16 82.6376L470.173 84.3624C473.377 82.4816 475.814 80.0564 477.444 77.0803L475.689 76.1197ZM469.174 82.6294C466.275 84.2684 462.948 85.1 459.166 85.1V87.1C463.252 87.1 466.925 86.1983 470.158 84.3706L469.174 82.6294ZM541.594 83.2L541.096 84.0673L541.103 84.0712L541.594 83.2ZM532.994 74.7L533.854 74.1902L532.994 74.7ZM532.994 50.9L533.85 51.4169L533.854 51.4098L532.994 50.9ZM541.694 42.3L541.198 41.4317L541.191 41.4356L541.694 42.3ZM563.594 40.9L564.004 39.9881L563.594 40.9ZM571.394 46.5H572.394V46.0858L572.101 45.7929L571.394 46.5ZM571.394 51.9L570.564 52.4586L572.394 55.175V51.9H571.394ZM563.994 44.5L563.449 45.3384L563.461 45.3463L563.473 45.3538L563.994 44.5ZM543.594 44.8L544.098 45.6638L544.103 45.6606L543.594 44.8ZM535.894 52.4L536.75 52.9171L535.894 52.4ZM535.794 73.5L534.93 74.0039L534.935 74.0118L535.794 73.5ZM543.294 80.9L542.796 81.7671L542.806 81.7733L542.817 81.7793L543.294 80.9ZM571.394 73.4H572.394V70.0416L570.557 72.853L571.394 73.4ZM571.394 78.8L572.12 79.4877L572.394 79.1985V78.8H571.394ZM563.394 84.5L563.78 85.4225L563.79 85.4181L563.394 84.5ZM553.594 85.3C549.427 85.3 545.597 84.3085 542.085 82.3288L541.103 84.0712C544.924 86.2249 549.094 87.3 553.594 87.3V85.3ZM542.092 82.3327C538.643 80.3527 535.9 77.643 533.854 74.1902L532.133 75.2098C534.354 78.957 537.345 81.914 541.096 84.0673L542.092 82.3327ZM533.854 74.1902C531.82 70.7573 530.794 66.8694 530.794 62.5H528.794C528.794 67.1973 529.901 71.4427 532.133 75.2098L533.854 74.1902ZM530.794 62.5C530.794 58.4788 531.812 54.7914 533.85 51.4169L532.138 50.3831C529.908 54.0753 528.794 58.1212 528.794 62.5H530.794ZM533.854 51.4098C535.899 47.9586 538.675 45.2131 542.197 43.1643L541.191 41.4356C537.379 43.6535 534.355 46.6414 532.133 50.3902L533.854 51.4098ZM542.19 43.1682C545.766 41.1247 549.694 40.1 553.994 40.1V38.1C549.36 38.1 545.088 39.2087 541.198 41.4318L542.19 43.1682ZM553.994 40.1C557.623 40.1 560.676 40.6837 563.183 41.8119L564.004 39.9881C561.178 38.7163 557.831 38.1 553.994 38.1V40.1ZM563.183 41.8119C565.718 42.9524 568.22 44.7408 570.687 47.2071L572.101 45.7929C569.5 43.1925 566.803 41.2476 564.004 39.9881L563.183 41.8119ZM570.394 46.5V51.9H572.394V46.5H570.394ZM572.223 51.3414C569.961 47.9821 567.396 45.4031 564.514 43.6462L563.473 45.3538C566.059 46.9303 568.427 49.2846 570.564 52.4586L572.223 51.3414ZM564.539 43.6616C561.673 41.7986 558.138 40.9 553.994 40.9V42.9C557.85 42.9 560.982 43.7347 563.449 45.3384L564.539 43.6616ZM553.994 40.9C550.141 40.9 546.5 41.9182 543.084 43.9394L544.103 45.6606C547.221 43.8151 550.513 42.9 553.994 42.9V40.9ZM543.09 43.9362C539.744 45.888 537.057 48.5411 535.038 51.8829L536.75 52.9171C538.597 49.8589 541.044 47.4453 544.098 45.6638L543.09 43.9362ZM535.038 51.8829C533.012 55.2357 531.994 58.8473 531.994 62.7H533.994C533.994 59.2193 534.909 55.9643 536.75 52.9171L535.038 51.8829ZM531.994 62.7C531.994 66.8625 532.967 70.6388 534.93 74.0039L536.658 72.9961C534.887 69.9612 533.994 66.5375 533.994 62.7H531.994ZM534.935 74.0118C536.888 77.2911 539.512 79.8808 542.796 81.7671L543.792 80.0329C540.809 78.3192 538.433 75.9755 536.653 72.9882L534.935 74.0118ZM542.817 81.7793C546.165 83.5925 549.762 84.5 553.594 84.5V82.5C550.092 82.5 546.823 81.6742 543.77 80.0207L542.817 81.7793ZM553.594 84.5C561.428 84.5 567.663 80.937 572.231 73.947L570.557 72.853C566.324 79.3297 560.693 82.5 553.594 82.5V84.5ZM570.394 73.4V78.8H572.394V73.4H570.394ZM570.668 78.1123C568.352 80.5564 565.795 82.3737 562.997 83.5819L563.79 85.4181C566.859 84.0929 569.635 82.1102 572.12 79.4877L570.668 78.1123ZM563.008 83.5776C560.283 84.718 557.151 85.3 553.594 85.3V87.3C557.37 87.3 560.771 86.682 563.78 85.4224L563.008 83.5776ZM620.245 9.99999V8.99999H619.245V9.99999H620.245ZM623.445 9.99999H624.445V8.99999H623.445V9.99999ZM623.445 49.3H622.445L624.352 49.7229L623.445 49.3ZM630.545 41.9L631.047 42.765L631.052 42.7619L630.545 41.9ZM655.445 44.1L654.731 44.8002L654.738 44.8071L655.445 44.1ZM660.645 85V86H661.645V85H660.645ZM657.445 85H656.445V86H657.445V85ZM653.045 46.2L652.322 46.8909L652.33 46.8991L652.338 46.9071L653.045 46.2ZM632.045 44L632.527 44.8762L632.536 44.8716L632.544 44.8669L632.045 44ZM625.745 50.2L626.607 50.708L626.612 50.6985L625.745 50.2ZM623.445 85V86H624.445V85H623.445ZM620.245 85H619.245V86H620.245V85ZM620.245 11H623.445V8.99999H620.245V11ZM622.445 9.99999V49.3H624.445V9.99999H622.445ZM624.352 49.7229C625.651 46.9371 627.861 44.6131 631.047 42.765L630.044 41.035C626.563 43.0536 624.039 45.6629 622.539 48.8771L624.352 49.7229ZM631.052 42.7619C634.32 40.8396 637.58 39.9 640.845 39.9V37.9C637.177 37.9 633.57 38.9604 630.038 41.0381L631.052 42.7619ZM640.845 39.9C646.995 39.9 651.572 41.5787 654.731 44.8002L656.159 43.3998C652.519 39.688 647.362 37.9 640.845 37.9V39.9ZM654.738 44.8071C657.967 48.0359 659.645 52.651 659.645 58.8H661.645C661.645 52.2823 659.857 47.0974 656.152 43.3929L654.738 44.8071ZM659.645 58.8V85H661.645V58.8H659.645ZM660.645 84H657.445V86H660.645V84ZM658.445 85V58.8H656.445V85H658.445ZM658.445 58.8C658.445 53.1556 656.927 48.6677 653.752 45.4929L652.338 46.9071C655.03 49.599 656.445 53.5111 656.445 58.8H658.445ZM653.768 45.5091C650.665 42.2617 646.307 40.7 640.845 40.7V42.7C645.917 42.7 649.692 44.1383 652.322 46.8909L653.768 45.5091ZM640.845 40.7C637.478 40.7 634.371 41.509 631.547 43.1331L632.544 44.8669C635.053 43.4244 637.813 42.7 640.845 42.7V40.7ZM631.563 43.1238C628.734 44.6797 626.502 46.8779 624.878 49.7015L626.612 50.6985C628.055 48.1888 630.023 46.2536 632.527 44.8762L631.563 43.1238ZM624.884 49.692C623.256 52.4519 622.445 55.4951 622.445 58.8H624.445C624.445 55.8382 625.168 53.1481 626.607 50.708L624.884 49.692ZM622.445 58.8V85H624.445V58.8H622.445ZM623.445 84H620.245V86H623.445V84ZM621.245 85V9.99999H619.245V85H621.245ZM745.073 80.7L744.575 79.8329L745.073 80.7ZM752.873 73.3H753.873V69.9677L752.038 72.7494L752.873 73.3ZM752.873 78.4L753.615 79.07L753.873 78.7845V78.4H752.873ZM744.773 84.4L745.151 85.3255L745.16 85.3219L745.169 85.3181L744.773 84.4ZM723.073 82.9L722.551 83.7533L722.558 83.7575L723.073 82.9ZM714.373 74.1L713.508 74.6029L713.515 74.6145L714.373 74.1ZM714.373 50.4L715.229 50.9169L715.233 50.9098L714.373 50.4ZM723.073 42L722.6 41.1185L722.594 41.1221L723.073 42ZM753.173 47.2L753.875 47.9116L754.551 47.2444L753.92 46.5351L753.173 47.2ZM721.773 78.2L721.07 77.4884L720.279 78.2697L721.139 78.974L721.773 78.2ZM728.173 82.2L727.786 83.1222L727.799 83.1276L727.812 83.1326L728.173 82.2ZM719.873 76.3L719.141 76.9819L719.845 77.7369L720.577 77.0095L719.873 76.3ZM749.173 47.2L749.877 47.9095L750.637 47.1553L749.833 46.4488L749.173 47.2ZM742.773 43.1L742.386 44.0222L742.399 44.0276L742.412 44.0326L742.773 43.1ZM724.473 44.5L724.957 45.3751L724.963 45.3716L724.473 44.5ZM717.073 51.7L716.21 51.1938L717.073 51.7ZM735.173 84.4C738.822 84.4 742.293 83.4503 745.571 81.5671L744.575 79.8329C741.586 81.5497 738.457 82.4 735.173 82.4V84.4ZM745.571 81.5671C748.845 79.6863 751.558 77.1091 753.707 73.8506L752.038 72.7494C750.054 75.7576 747.567 78.1137 744.575 79.8329L745.571 81.5671ZM751.873 73.3V78.4H753.873V73.3H751.873ZM752.13 77.73C749.745 80.373 747.159 82.2802 744.376 83.4819L745.169 85.3181C748.253 83.9864 751.067 81.8937 753.615 79.07L752.13 77.73ZM744.394 83.4745C741.6 84.6174 738.399 85.2 734.773 85.2V87.2C738.613 87.2 742.078 86.5826 745.151 85.3255L744.394 83.4745ZM734.773 85.2C730.827 85.2 727.104 84.1526 723.587 82.0425L722.558 83.7575C726.375 86.0474 730.452 87.2 734.773 87.2V85.2ZM723.594 82.0467C720.134 79.9321 717.348 77.1157 715.23 73.5855L713.515 74.6145C715.797 78.4176 718.812 81.4679 722.551 83.7533L723.594 82.0467ZM715.237 73.5971C713.19 70.0789 712.173 66.3519 712.173 62.4H710.173C710.173 66.7148 711.289 70.7877 713.508 74.6029L715.237 73.5971ZM712.173 62.4C712.173 58.1 713.197 54.2815 715.229 50.9169L713.517 49.8831C711.281 53.5852 710.173 57.7667 710.173 62.4H712.173ZM715.233 50.9098C717.275 47.4643 720.043 44.7916 723.552 42.8779L722.594 41.1221C718.769 43.2084 715.737 46.1357 713.512 49.8902L715.233 50.9098ZM723.545 42.8815C727.123 40.9647 731.092 40 735.473 40V38C730.786 38 726.489 39.0353 722.6 41.1185L723.545 42.8815ZM735.473 40C742.103 40 747.737 42.598 752.426 47.8649L753.92 46.5351C748.875 40.8687 742.709 38 735.473 38V40ZM752.47 46.4884L721.07 77.4884L722.475 78.9116L753.875 47.9116L752.47 46.4884ZM721.139 78.974C723.395 80.8195 725.61 82.2098 727.786 83.1222L728.559 81.2778C726.602 80.4568 724.55 79.1805 722.406 77.426L721.139 78.974ZM727.812 83.1326C730.012 83.9841 732.47 84.4 735.173 84.4V82.4C732.675 82.4 730.467 82.0159 728.534 81.2674L727.812 83.1326ZM713.373 62.1C713.373 67.8783 715.297 72.8576 719.141 76.9819L720.604 75.6181C717.115 71.8758 715.373 67.3884 715.373 62.1H713.373ZM720.577 77.0095L749.877 47.9095L748.468 46.4905L719.168 75.5905L720.577 77.0095ZM749.833 46.4488C747.571 44.4614 745.339 43.021 743.134 42.1674L742.412 44.0326C744.34 44.779 746.374 46.0719 748.513 47.9512L749.833 46.4488ZM743.159 42.1778C740.941 41.2476 738.337 40.8 735.373 40.8V42.8C738.142 42.8 740.471 43.219 742.386 44.0222L743.159 42.1778ZM735.373 40.8C731.153 40.8 727.348 41.7354 723.982 43.6284L724.963 45.3716C727.998 43.6646 731.459 42.8 735.373 42.8V40.8ZM723.989 43.625C720.7 45.4445 718.102 47.9714 716.21 51.1938L717.935 52.2062C719.644 49.2953 721.979 47.0222 724.957 45.375L723.989 43.625ZM716.21 51.1938C714.312 54.4272 713.373 58.0714 713.373 62.1H715.373C715.373 58.3953 716.233 55.1061 717.935 52.2062L716.21 51.1938Z" fill="#FF0000"/>
</g>
</g>
<defs>
<filter id="filter0_d" x="65.6725" y="28.4" width="39.0993" height="85.7" filterUnits="userSpaceOnUse" color-interpolation-filters="sRGB">
<feFlood flood-opacity="0" result="BackgroundImageFix"/>
<feColorMatrix in="SourceAlpha" type="matrix" values="0 0 0 0 0 0 0 0 0 0 0 0 0 0 0 0 0 0 127 0"/>
<feOffset dx="5" dy="10"/>
<feGaussianBlur stdDeviation="5"/>
<feColorMatrix type="matrix" values="0 0 0 0 0 0 0 0 0 0 0 0 0 0 0 0 0 0 1 0"/>
<feBlend mode="normal" in2="BackgroundImageFix" result="effect1_dropShadow"/>
<feBlend mode="normal" in="SourceGraphic" in2="effect1_dropShadow" result="shape"/>
</filter>
<filter id="filter1_d" x="-2.59998" y="8.99999" width="772.151" height="98.3" filterUnits="userSpaceOnUse" color-interpolation-filters="sRGB">
<feFlood flood-opacity="0" result="BackgroundImageFix"/>
<feColorMatrix in="SourceAlpha" type="matrix" values="0 0 0 0 0 0 0 0 0 0 0 0 0 0 0 0 0 0 127 0"/>
<feOffset dx="5" dy="10"/>
<feGaussianBlur stdDeviation="5"/>
<feColorMatrix type="matrix" values="0 0 0 0 0 0 0 0 0 0 0 0 0 0 0 0 0 0 1 0"/>
<feBlend mode="normal" in2="BackgroundImageFix" result="effect1_dropShadow"/>
<feBlend mode="normal" in="SourceGraphic" in2="effect1_dropShadow" result="shape"/>
</filter>
<clipPath id="clip0">
<rect width="767" height="111" fill="white"/>
</clipPath>
</defs>
</svg>
