<svg width="1098" height="126" viewBox="0 0 1098 126" fill="none" xmlns="http://www.w3.org/2000/svg">
<g filter="url(#filter0_d)">
<g filter="url(#filter1_d)">
<path d="M19.491 27.7C18.5577 27.7 17.7243 27.3667 16.991 26.7C16.3243 26.0333 15.991 25.2 15.991 24.2C15.991 23.2667 16.3243 22.4667 16.991 21.8C17.7243 21.1333 18.5577 20.8 19.491 20.8C20.4243 20.8 21.2243 21.1333 21.891 21.8C22.6243 22.4667 22.991 23.2667 22.991 24.2C22.991 25.2 22.6243 26.0333 21.891 26.7C21.2243 27.3667 20.4243 27.7 19.491 27.7ZM17.891 38H21.091V83H17.891V38ZM46.0012 38H49.2012V48C50.6678 44.6667 53.1678 42 56.7012 40C60.2345 37.9333 64.1345 36.9 68.4012 36.9C73.9345 36.9 78.3012 38.6667 81.5012 42.2C84.7678 45.6667 86.4012 50.5333 86.4012 56.8V83H83.2012V56.8C83.2012 51.4 81.8678 47.2 79.2012 44.2C76.6012 41.2 72.9345 39.7 68.2012 39.7C64.7345 39.7 61.5345 40.5 58.6012 42.1C55.7345 43.6333 53.4345 45.7667 51.7012 48.5C50.0345 51.2333 49.2012 54.3333 49.2012 57.8V83H46.0012V38ZM126.129 22C123.595 22 121.262 22.6333 119.129 23.9C116.995 25.1 115.295 26.8 114.029 29C112.829 31.1333 112.229 33.5 112.229 36.1V38H126.129V40.8H112.229V83H109.029V36.1C109.029 32.9667 109.762 30.1333 111.229 27.6C112.762 25 114.829 22.9667 117.429 21.5C120.095 19.9667 122.995 19.2 126.129 19.2V22ZM166.014 84.6C161.481 84.6 157.381 83.5 153.714 81.3C150.048 79.0333 147.181 76.0667 145.114 72.4C143.048 68.6667 142.014 64.6333 142.014 60.3C142.014 56.0333 143.048 52.0667 145.114 48.4C147.248 44.7333 150.114 41.8333 153.714 39.7C157.381 37.5 161.448 36.4 165.914 36.4C170.314 36.4 174.314 37.5 177.914 39.7C181.581 41.8333 184.448 44.7333 186.514 48.4C188.581 52.0667 189.614 56.0333 189.614 60.3C189.614 64.7667 188.614 68.8667 186.614 72.6C184.614 76.2667 181.814 79.2 178.214 81.4C174.681 83.5333 170.614 84.6 166.014 84.6ZM166.014 81.8C169.814 81.8 173.281 80.8333 176.414 78.9C179.548 76.9667 181.981 74.4 183.714 71.2C185.514 67.9333 186.414 64.3667 186.414 60.5C186.414 56.7 185.514 53.1667 183.714 49.9C181.914 46.6333 179.448 44.0333 176.314 42.1C173.181 40.1667 169.714 39.2 165.914 39.2C162.114 39.2 158.614 40.2 155.414 42.2C152.281 44.1333 149.781 46.7333 147.914 50C146.114 53.2667 145.214 56.8 145.214 60.6C145.214 64.4 146.114 67.9333 147.914 71.2C149.781 74.4 152.281 76.9667 155.414 78.9C158.614 80.8333 162.148 81.8 166.014 81.8ZM246.495 84.3C239.762 84.3 233.462 82.5 227.595 78.9C221.728 75.3 217.028 70.5 213.495 64.5C210.028 58.5 208.295 52.0667 208.295 45.2C208.295 38.4 210.062 32.0333 213.595 26.1C217.128 20.1667 221.895 15.4667 227.895 12C233.895 8.46666 240.395 6.7 247.395 6.7C254.462 6.7 260.962 8.46666 266.895 12C272.828 15.4667 277.528 20.1667 280.995 26.1C284.528 31.9667 286.295 38.3333 286.295 45.2C286.295 52.0667 284.562 58.5333 281.095 64.6C277.628 70.6 272.928 75.4 266.995 79C261.128 82.5333 254.795 84.3 247.995 84.3H246.495ZM247.295 81.4C253.695 81.4 259.628 79.7667 265.095 76.5C270.562 73.2333 274.895 68.8667 278.095 63.4C281.362 57.8667 282.995 51.8667 282.995 45.4C282.995 39 281.395 33.0667 278.195 27.6C274.995 22.0667 270.662 17.7 265.195 14.5C259.728 11.2333 253.795 9.6 247.395 9.6C240.928 9.6 234.962 11.2333 229.495 14.5C224.028 17.7 219.662 22.0667 216.395 27.6C213.195 33.0667 211.595 39 211.595 45.4C211.595 51.8667 213.195 57.8667 216.395 63.4C219.662 68.8667 224.028 73.2333 229.495 76.5C234.962 79.7667 240.895 81.4 247.295 81.4ZM247.295 69.1C243.028 69.1 239.062 68.0333 235.395 65.9C231.728 63.7667 228.828 60.9 226.695 57.3C224.562 53.6333 223.495 49.7 223.495 45.5C223.495 41.3 224.562 37.4 226.695 33.8C228.828 30.1333 231.728 27.2333 235.395 25.1C239.062 22.9667 243.028 21.9 247.295 21.9C251.428 21.9 255.328 22.9333 258.995 25C262.662 27.0667 265.562 29.9 267.695 33.5V23H270.895V68H267.695V57.5C265.562 61.1 262.662 63.9333 258.995 66C255.328 68.0667 251.428 69.1 247.295 69.1ZM247.495 66.3C251.162 66.3 254.562 65.3667 257.695 63.5C260.828 61.5667 263.295 59.0333 265.095 55.9C266.962 52.7 267.895 49.2333 267.895 45.5C267.895 41.8333 266.962 38.4 265.095 35.2C263.228 32 260.728 29.4667 257.595 27.6C254.462 25.6667 251.062 24.7 247.395 24.7C243.728 24.7 240.295 25.6667 237.095 27.6C233.962 29.5333 231.428 32.1 229.495 35.3C227.628 38.5 226.695 41.9333 226.695 45.6C226.695 49.2667 227.628 52.7 229.495 55.9C231.428 59.0333 233.995 61.5667 237.195 63.5C240.395 65.3667 243.828 66.3 247.495 66.3ZM318.483 84.1C315.283 84.1 312.45 83.5667 309.983 82.5C307.517 81.3667 305.75 79.9333 304.683 78.2V72.9C305.95 75.7667 307.683 77.9 309.883 79.3C312.083 80.6333 314.883 81.3 318.283 81.3C321.55 81.3 324.183 80.3 326.183 78.3C328.183 76.2333 329.183 73.6 329.183 70.4C329.183 67.6667 328.617 65.5667 327.483 64.1C326.35 62.5667 324.517 61.0333 321.983 59.5L318.183 57.3C315.45 55.6333 313.383 54.3333 311.983 53.4C310.65 52.4 309.583 51.3 308.783 50.1C307.983 48.8333 307.583 47.3667 307.583 45.7C307.583 43.0333 308.517 40.9 310.383 39.3C312.25 37.7 314.683 36.9 317.683 36.9C321.35 36.9 324.417 37.7333 326.883 39.4V43.8C324.817 41.0667 321.85 39.7 317.983 39.7C315.85 39.7 314.117 40.2333 312.783 41.3C311.45 42.3667 310.783 43.7333 310.783 45.4C310.783 46.8667 311.183 48.1667 311.983 49.3C312.783 50.3667 313.883 51.3667 315.283 52.3C316.75 53.2333 319.15 54.6333 322.483 56.5C325.883 58.4333 328.383 60.4333 329.983 62.5C331.583 64.5 332.383 67.1333 332.383 70.4C332.383 74.5333 331.017 77.8667 328.283 80.4C325.617 82.8667 322.35 84.1 318.483 84.1ZM368.449 83.6C363.515 83.6 359.415 82.1 356.149 79.1C352.949 76.1 351.349 71.9667 351.349 66.7V19.9H354.549V38H368.349V40.8H354.549V66.7C354.549 71.1 355.849 74.5667 358.449 77.1C361.115 79.5667 364.449 80.8 368.449 80.8V83.6ZM390.761 27.7C389.827 27.7 388.994 27.3667 388.261 26.7C387.594 26.0333 387.261 25.2 387.261 24.2C387.261 23.2667 387.594 22.4667 388.261 21.8C388.994 21.1333 389.827 20.8 390.761 20.8C391.694 20.8 392.494 21.1333 393.161 21.8C393.894 22.4667 394.261 23.2667 394.261 24.2C394.261 25.2 393.894 26.0333 393.161 26.7C392.494 27.3667 391.694 27.7 390.761 27.7ZM389.161 38H392.361V83H389.161V38ZM434.371 83.9C431.237 83.9 428.371 83.2 425.771 81.8C423.171 80.3333 421.104 78.3 419.571 75.7C418.037 73.1 417.271 70.2 417.271 67V7.99999H420.471V67C420.471 69.6667 421.071 72.0667 422.271 74.2C423.537 76.3333 425.237 78.0333 427.371 79.3C429.504 80.5 431.837 81.1 434.371 81.1V83.9ZM478.312 84.1C474.245 84.1 470.312 83 466.512 80.8C462.779 78.6 459.912 75.7 457.912 72.1V83H454.712V7.99999H457.912V49.4C459.712 45.6 462.512 42.5667 466.312 40.3C470.112 38.0333 474.112 36.9 478.312 36.9C482.645 36.9 486.612 37.9667 490.212 40.1C493.879 42.2333 496.779 45.1 498.912 48.7C501.045 52.3 502.112 56.2333 502.112 60.5C502.112 64.7667 501.045 68.7 498.912 72.3C496.779 75.9 493.879 78.7667 490.212 80.9C486.612 83.0333 482.645 84.1 478.312 84.1ZM478.512 81.3C482.179 81.3 485.579 80.3667 488.712 78.5C491.845 76.5667 494.312 74.0333 496.112 70.9C497.979 67.7 498.912 64.2333 498.912 60.5C498.912 56.8333 497.979 53.4 496.112 50.2C494.245 47 491.745 44.4667 488.612 42.6C485.479 40.6667 482.079 39.7 478.412 39.7C474.745 39.7 471.312 40.6667 468.112 42.6C464.979 44.5333 462.445 47.1 460.512 50.3C458.645 53.5 457.712 56.9333 457.712 60.6C457.712 64.2667 458.645 67.7 460.512 70.9C462.445 74.0333 465.012 76.5667 468.212 78.5C471.412 80.3667 474.845 81.3 478.512 81.3ZM521.157 38H524.357V48.4C525.691 45.1333 527.624 42.5667 530.157 40.7C532.757 38.8333 535.691 37.9 538.957 37.9C541.024 37.9 543.124 38.3333 545.257 39.2V42.9C543.324 41.4333 541.157 40.7 538.757 40.7C536.357 40.7 534.024 41.4333 531.757 42.9C529.557 44.3667 527.757 46.3333 526.357 48.8C525.024 51.2667 524.357 53.9 524.357 56.7V83H521.157V38ZM582.989 84.1C576.655 84.1 571.755 82.3667 568.289 78.9C564.889 75.4333 563.189 70.5333 563.189 64.2V38H566.389V64.2C566.389 69.6667 567.822 73.9 570.689 76.9C573.622 79.8333 577.722 81.3 582.989 81.3C586.189 81.3 589.122 80.6 591.789 79.2C594.455 77.7333 596.555 75.7 598.089 73.1C599.622 70.5 600.389 67.5333 600.389 64.2V38H603.589V83H600.389V74.6C598.855 77.4 596.555 79.7 593.489 81.5C590.422 83.2333 586.922 84.1 582.989 84.1ZM647.416 84.3C643.083 84.3 639.083 83.2667 635.416 81.2C631.816 79.1333 628.949 76.3 626.816 72.7C624.683 69.1 623.616 65.0333 623.616 60.5C623.616 56.3 624.683 52.4333 626.816 48.9C628.949 45.3 631.849 42.4333 635.516 40.3C639.249 38.1667 643.349 37.1 647.816 37.1C651.549 37.1 654.749 37.7 657.416 38.9C660.083 40.1 662.683 41.9667 665.216 44.5V49.9C663.016 46.6333 660.549 44.1667 657.816 42.5C655.149 40.7667 651.816 39.9 647.816 39.9C644.149 39.9 640.683 40.8667 637.416 42.8C634.216 44.6667 631.649 47.2 629.716 50.4C627.783 53.6 626.816 57.0333 626.816 60.7C626.816 64.7 627.749 68.3 629.616 71.5C631.483 74.6333 633.983 77.1 637.116 78.9C640.316 80.6333 643.749 81.5 647.416 81.5C654.883 81.5 660.816 78.1333 665.216 71.4V76.8C662.816 79.3333 660.149 81.2333 657.216 82.5C654.349 83.7 651.083 84.3 647.416 84.3ZM684.068 7.99999H687.268V47.3C688.668 44.3 691.034 41.8333 694.368 39.9C697.768 37.9 701.201 36.9 704.668 36.9C711.001 36.9 715.868 38.6333 719.268 42.1C722.734 45.5667 724.468 50.4667 724.468 56.8V83H721.268V56.8C721.268 51.3333 719.801 47.1333 716.868 44.2C714.001 41.2 709.934 39.7 704.668 39.7C701.468 39.7 698.534 40.4667 695.868 42C693.201 43.4667 691.101 45.5333 689.568 48.2C688.034 50.8 687.268 53.6667 687.268 56.8V83H684.068V7.99999ZM747.695 83.9C746.762 83.9 745.928 83.5667 745.195 82.9C744.528 82.2333 744.195 81.4 744.195 80.4C744.195 79.4667 744.528 78.6667 745.195 78C745.928 77.3333 746.762 77 747.695 77C748.628 77 749.428 77.3333 750.095 78C750.828 78.6667 751.195 79.4667 751.195 80.4C751.195 81.4 750.828 82.2333 750.095 82.9C749.428 83.5667 748.628 83.9 747.695 83.9ZM792.162 84.1C787.829 84.1 783.829 83.0333 780.162 80.9C776.562 78.7667 773.695 75.9 771.562 72.3C769.429 68.7 768.362 64.7667 768.362 60.5C768.362 56.2333 769.429 52.3 771.562 48.7C773.695 45.1 776.562 42.2333 780.162 40.1C783.829 37.9667 787.829 36.9 792.162 36.9C796.362 36.9 800.362 38.0333 804.162 40.3C807.962 42.5 810.762 45.4 812.562 49V7.99999H815.762V83H812.562V72.1C810.562 75.7 807.662 78.6 803.862 80.8C800.129 83 796.229 84.1 792.162 84.1ZM792.062 81.3C795.729 81.3 799.129 80.3667 802.262 78.5C805.462 76.5667 807.995 74.0333 809.862 70.9C811.795 67.7 812.762 64.2667 812.762 60.6C812.762 56.9333 811.795 53.5 809.862 50.3C807.995 47.1 805.462 44.5333 802.262 42.6C799.129 40.6667 795.729 39.7 792.062 39.7C788.395 39.7 784.995 40.6667 781.862 42.6C778.729 44.4667 776.229 47 774.362 50.2C772.495 53.4 771.562 56.8333 771.562 60.5C771.562 64.2333 772.462 67.7 774.262 70.9C776.129 74.0333 778.629 76.5667 781.762 78.5C784.962 80.3667 788.395 81.3 792.062 81.3ZM860.284 81.4C863.751 81.4 867.051 80.5 870.184 78.7C873.317 76.9 875.917 74.4333 877.984 71.3V76.4C875.517 79.1333 872.817 81.1333 869.884 82.4C866.951 83.6 863.617 84.2 859.884 84.2C855.751 84.2 851.851 83.1 848.184 80.9C844.584 78.7 841.684 75.7667 839.484 72.1C837.351 68.4333 836.284 64.5333 836.284 60.4C836.284 55.9333 837.351 51.9333 839.484 48.4C841.617 44.8 844.517 42 848.184 40C851.917 38 856.051 37 860.584 37C867.517 37 873.417 39.7333 878.284 45.2L846.884 76.2C849.084 78 851.217 79.3333 853.284 80.2C855.351 81 857.684 81.4 860.284 81.4ZM839.484 60.1C839.484 65.6333 841.317 70.3667 844.984 74.3L874.284 45.2C872.084 43.2667 869.951 41.9 867.884 41.1C865.817 40.2333 863.351 39.8 860.484 39.8C856.417 39.8 852.784 40.7 849.584 42.5C846.451 44.2333 843.984 46.6333 842.184 49.7C840.384 52.7667 839.484 56.2333 839.484 60.1ZM909.186 84.1C905.986 84.1 903.153 83.5667 900.686 82.5C898.22 81.3667 896.453 79.9333 895.386 78.2V72.9C896.653 75.7667 898.386 77.9 900.586 79.3C902.786 80.6333 905.586 81.3 908.986 81.3C912.253 81.3 914.886 80.3 916.886 78.3C918.886 76.2333 919.886 73.6 919.886 70.4C919.886 67.6667 919.32 65.5667 918.186 64.1C917.053 62.5667 915.22 61.0333 912.686 59.5L908.886 57.3C906.153 55.6333 904.086 54.3333 902.686 53.4C901.353 52.4 900.286 51.3 899.486 50.1C898.686 48.8333 898.286 47.3667 898.286 45.7C898.286 43.0333 899.22 40.9 901.086 39.3C902.953 37.7 905.386 36.9 908.386 36.9C912.053 36.9 915.12 37.7333 917.586 39.4V43.8C915.52 41.0667 912.553 39.7 908.686 39.7C906.553 39.7 904.82 40.2333 903.486 41.3C902.153 42.3667 901.486 43.7333 901.486 45.4C901.486 46.8667 901.886 48.1667 902.686 49.3C903.486 50.3667 904.586 51.3667 905.986 52.3C907.453 53.2333 909.853 54.6333 913.186 56.5C916.586 58.4333 919.086 60.4333 920.686 62.5C922.286 64.5 923.086 67.1333 923.086 70.4C923.086 74.5333 921.72 77.8667 918.986 80.4C916.32 82.8667 913.053 84.1 909.186 84.1ZM946.952 27.7C946.019 27.7 945.185 27.3667 944.452 26.7C943.785 26.0333 943.452 25.2 943.452 24.2C943.452 23.2667 943.785 22.4667 944.452 21.8C945.185 21.1333 946.019 20.8 946.952 20.8C947.885 20.8 948.685 21.1333 949.352 21.8C950.085 22.4667 950.452 23.2667 950.452 24.2C950.452 25.2 950.085 26.0333 949.352 26.7C948.685 27.3667 947.885 27.7 946.952 27.7ZM945.352 38H948.552V83H945.352V38ZM995.162 103.8C991.362 103.8 987.662 102.933 984.062 101.2C980.462 99.4667 977.662 97.2 975.662 94.4V89.8C977.395 93 980.095 95.6667 983.762 97.8C987.495 99.9333 991.295 101 995.162 101C1001.56 101 1006.5 99.1 1009.96 95.3C1013.43 91.5667 1015.16 86.0667 1015.16 78.8V72.1C1013.36 75.7 1010.53 78.6333 1006.66 80.9C1002.86 83.1 998.862 84.2 994.662 84.2C990.395 84.2 986.429 83.1333 982.762 81C979.095 78.8667 976.195 76 974.062 72.4C971.929 68.7333 970.862 64.8 970.862 60.6C970.862 56.4 971.929 52.5 974.062 48.9C976.195 45.2333 979.095 42.3333 982.762 40.2C986.429 38.0667 990.395 37 994.662 37C999.062 37 1003.13 38.1 1006.86 40.3C1010.6 42.5 1013.36 45.4667 1015.16 49.2V38H1018.36V78.8C1018.36 87 1016.36 93.2 1012.36 97.4C1008.43 101.667 1002.7 103.8 995.162 103.8ZM994.862 81.4C998.529 81.4 1001.93 80.4667 1005.06 78.6C1008.2 76.6667 1010.66 74.1333 1012.46 71C1014.33 67.8 1015.26 64.3333 1015.26 60.6C1015.26 56.8667 1014.33 53.4333 1012.46 50.3C1010.66 47.1 1008.2 44.5667 1005.06 42.7C1001.93 40.7667 998.529 39.8 994.862 39.8C991.129 39.8 987.662 40.7667 984.462 42.7C981.329 44.5667 978.795 47.1 976.862 50.3C974.995 53.4333 974.062 56.8667 974.062 60.6C974.062 64.3333 974.995 67.8 976.862 71C978.795 74.1333 981.329 76.6667 984.462 78.6C987.662 80.4667 991.129 81.4 994.862 81.4ZM1040.98 38H1044.18V48C1045.65 44.6667 1048.15 42 1051.68 40C1055.21 37.9333 1059.11 36.9 1063.38 36.9C1068.91 36.9 1073.28 38.6667 1076.48 42.2C1079.75 45.6667 1081.38 50.5333 1081.38 56.8V83H1078.18V56.8C1078.18 51.4 1076.85 47.2 1074.18 44.2C1071.58 41.2 1067.91 39.7 1063.18 39.7C1059.71 39.7 1056.51 40.5 1053.58 42.1C1050.71 43.6333 1048.41 45.7667 1046.68 48.5C1045.01 51.2333 1044.18 54.3333 1044.18 57.8V83H1040.98V38Z" fill="#FF0000"/>
<path d="M16.991 26.7L16.6375 27.0536L16.6459 27.062L16.6547 27.07L16.991 26.7ZM16.991 21.8L16.6547 21.43L16.6459 21.438L16.6375 21.4464L16.991 21.8ZM21.891 21.8L21.5375 22.1535L21.5459 22.162L21.5547 22.17L21.891 21.8ZM21.891 26.7L21.5547 26.33L21.5459 26.338L21.5375 26.3464L21.891 26.7ZM17.891 38V37.5H17.391V38H17.891ZM21.091 38H21.591V37.5H21.091V38ZM21.091 83V83.5H21.591V83H21.091ZM17.891 83H17.391V83.5H17.891V83ZM19.491 27.2C18.6902 27.2 17.9749 26.9187 17.3274 26.33L16.6547 27.07C17.4738 27.8146 18.4251 28.2 19.491 28.2V27.2ZM17.3446 26.3464C16.7778 25.7797 16.491 25.0763 16.491 24.2H15.491C15.491 25.3237 15.8709 26.287 16.6375 27.0536L17.3446 26.3464ZM16.491 24.2C16.491 23.4008 16.7706 22.7275 17.3446 22.1535L16.6375 21.4464C15.8781 22.2058 15.491 23.1325 15.491 24.2H16.491ZM17.3274 22.17C17.9749 21.5813 18.6902 21.3 19.491 21.3V20.3C18.4251 20.3 17.4738 20.6854 16.6547 21.43L17.3274 22.17ZM19.491 21.3C20.2902 21.3 20.9635 21.5796 21.5375 22.1535L22.2446 21.4464C21.4852 20.6871 20.5585 20.3 19.491 20.3V21.3ZM21.5547 22.17C22.191 22.7485 22.491 23.4171 22.491 24.2H23.491C23.491 23.1163 23.0577 22.1848 22.2274 21.43L21.5547 22.17ZM22.491 24.2C22.491 25.0606 22.1827 25.7591 21.5547 26.33L22.2274 27.07C23.066 26.3076 23.491 25.3394 23.491 24.2H22.491ZM21.5375 26.3464C20.9635 26.9204 20.2902 27.2 19.491 27.2V28.2C20.5585 28.2 21.4852 27.8129 22.2446 27.0536L21.5375 26.3464ZM17.891 38.5H21.091V37.5H17.891V38.5ZM20.591 38V83H21.591V38H20.591ZM21.091 82.5H17.891V83.5H21.091V82.5ZM18.391 83V38H17.391V83H18.391ZM46.0012 38V37.5H45.5012V38H46.0012ZM49.2012 38H49.7012V37.5H49.2012V38ZM49.2012 48H48.7012L49.6588 48.2014L49.2012 48ZM56.7012 40L56.9475 40.4352L56.9536 40.4316L56.7012 40ZM81.5012 42.2L81.1305 42.5357L81.1373 42.5429L81.5012 42.2ZM86.4012 83V83.5H86.9012V83H86.4012ZM83.2012 83H82.7012V83.5H83.2012V83ZM79.2012 44.2L78.8233 44.5275L78.8275 44.5322L79.2012 44.2ZM58.6012 42.1L58.837 42.5409L58.8406 42.5389L58.6012 42.1ZM51.7012 48.5L51.2789 48.2322L51.2743 48.2397L51.7012 48.5ZM49.2012 83V83.5H49.7012V83H49.2012ZM46.0012 83H45.5012V83.5H46.0012V83ZM46.0012 38.5H49.2012V37.5H46.0012V38.5ZM48.7012 38V48H49.7012V38H48.7012ZM49.6588 48.2014C51.0771 44.978 53.4966 42.3884 56.9475 40.4351L56.4549 39.5649C52.8391 41.6116 50.2586 44.3553 48.7435 47.7986L49.6588 48.2014ZM56.9536 40.4316C60.407 38.4117 64.2193 37.4 68.4012 37.4V36.4C64.0497 36.4 60.062 37.455 56.4487 39.5684L56.9536 40.4316ZM68.4012 37.4C73.8182 37.4 78.0409 39.1241 81.1306 42.5356L81.8718 41.8644C78.5614 38.2092 74.0508 36.4 68.4012 36.4V37.4ZM81.1373 42.5429C84.2918 45.8905 85.9012 50.6194 85.9012 56.8H86.9012C86.9012 50.4472 85.2439 45.4428 81.8651 41.8571L81.1373 42.5429ZM85.9012 56.8V83H86.9012V56.8H85.9012ZM86.4012 82.5H83.2012V83.5H86.4012V82.5ZM83.7012 83V56.8H82.7012V83H83.7012ZM83.7012 56.8C83.7012 51.3203 82.3474 46.9869 79.5749 43.8678L78.8275 44.5322C81.3882 47.4131 82.7012 51.4797 82.7012 56.8H83.7012ZM79.579 43.8725C76.8657 40.7418 73.0489 39.2 68.2012 39.2V40.2C72.8201 40.2 76.3367 41.6582 78.8233 44.5275L79.579 43.8725ZM68.2012 39.2C64.6541 39.2 61.3713 40.0195 58.3617 41.6611L58.8406 42.5389C61.6977 40.9805 64.8149 40.2 68.2012 40.2V39.2ZM58.3653 41.6591C55.423 43.2329 53.0586 45.4257 51.2789 48.2322L52.1234 48.7678C53.8104 46.1076 56.046 44.0337 58.837 42.5409L58.3653 41.6591ZM51.2743 48.2397C49.5559 51.0579 48.7012 54.2494 48.7012 57.8H49.7012C49.7012 54.4173 50.5132 51.4088 52.1281 48.7603L51.2743 48.2397ZM48.7012 57.8V83H49.7012V57.8H48.7012ZM49.2012 82.5H46.0012V83.5H49.2012V82.5ZM46.5012 83V38H45.5012V83H46.5012ZM126.129 22V22.5H126.629V22H126.129ZM119.129 23.9L119.374 24.3359L119.384 24.3299L119.129 23.9ZM114.029 29L113.595 28.7505L113.593 28.7549L114.029 29ZM112.229 38H111.729V38.5H112.229V38ZM126.129 38H126.629V37.5H126.129V38ZM126.129 40.8V41.3H126.629V40.8H126.129ZM112.229 40.8V40.3H111.729V40.8H112.229ZM112.229 83V83.5H112.729V83H112.229ZM109.029 83H108.529V83.5H109.029V83ZM111.229 27.6L110.798 27.346L110.796 27.3495L111.229 27.6ZM117.429 21.5L117.674 21.9355L117.678 21.9335L117.429 21.5ZM126.129 19.2H126.629V18.7H126.129V19.2ZM126.129 21.5C123.507 21.5 121.086 22.1565 118.873 23.4701L119.384 24.3299C121.438 23.1101 123.683 22.5 126.129 22.5V21.5ZM118.883 23.4642C116.669 24.71 114.905 26.4757 113.595 28.7505L114.462 29.2495C115.685 27.1243 117.322 25.49 119.374 24.3358L118.883 23.4642ZM113.593 28.7549C112.348 30.9677 111.729 33.4197 111.729 36.1H112.729C112.729 33.5803 113.309 31.2989 114.464 29.2451L113.593 28.7549ZM111.729 36.1V38H112.729V36.1H111.729ZM112.229 38.5H126.129V37.5H112.229V38.5ZM125.629 38V40.8H126.629V38H125.629ZM126.129 40.3H112.229V41.3H126.129V40.3ZM111.729 40.8V83H112.729V40.8H111.729ZM112.229 82.5H109.029V83.5H112.229V82.5ZM109.529 83V36.1H108.529V83H109.529ZM109.529 36.1C109.529 33.0482 110.242 30.3024 111.661 27.8505L110.796 27.3495C109.282 29.9643 108.529 32.8851 108.529 36.1H109.529ZM111.659 27.854C113.148 25.3288 115.152 23.3585 117.674 21.9355L117.183 21.0645C114.505 22.5749 112.375 24.6712 110.798 27.346L111.659 27.854ZM117.678 21.9335C120.267 20.4446 123.081 19.7 126.129 19.7V18.7C122.909 18.7 119.923 19.4888 117.179 21.0665L117.678 21.9335ZM125.629 19.2V22H126.629V19.2H125.629ZM153.714 81.3L153.452 81.7253L153.457 81.7287L153.714 81.3ZM145.114 72.4L144.677 72.6422L144.679 72.6455L145.114 72.4ZM145.114 48.4L144.682 48.1485L144.679 48.1545L145.114 48.4ZM153.714 39.7L153.969 40.1301L153.972 40.1287L153.714 39.7ZM177.914 39.7L177.654 40.1267L177.663 40.1322L177.914 39.7ZM186.514 48.4L186.079 48.6455L186.514 48.4ZM186.614 72.6L187.053 72.8394L187.055 72.8361L186.614 72.6ZM178.214 81.4L178.473 81.828L178.475 81.8266L178.214 81.4ZM176.414 78.9L176.152 78.4745L176.152 78.4745L176.414 78.9ZM183.714 71.2L183.277 70.9587L183.275 70.9619L183.714 71.2ZM183.714 49.9L184.152 49.6587L184.152 49.6587L183.714 49.9ZM176.314 42.1L176.052 42.5255L176.052 42.5255L176.314 42.1ZM155.414 42.2L155.677 42.6255L155.679 42.624L155.414 42.2ZM147.914 50L147.48 49.7519L147.477 49.7587L147.914 50ZM147.914 71.2L147.476 71.4414L147.483 71.4519L147.914 71.2ZM155.414 78.9L155.152 79.3255L155.156 79.328L155.414 78.9ZM166.014 84.1C161.566 84.1 157.556 83.0218 153.972 80.8713L153.457 81.7287C157.206 83.9782 161.396 85.1 166.014 85.1V84.1ZM153.977 80.8747C150.381 78.6513 147.574 75.7458 145.55 72.1545L144.679 72.6455C146.788 76.3876 149.715 79.4154 153.452 81.7253L153.977 80.8747ZM145.552 72.1578C143.527 68.4998 142.514 64.55 142.514 60.3H141.514C141.514 64.7167 142.569 68.8335 144.677 72.6422L145.552 72.1578ZM142.514 60.3C142.514 56.1181 143.526 52.2362 145.55 48.6455L144.679 48.1545C142.569 51.8972 141.514 55.9486 141.514 60.3H142.514ZM145.547 48.6514C147.638 45.0574 150.444 42.2194 153.969 40.1301L153.46 39.2699C149.785 41.4473 146.858 44.4092 144.682 48.1486L145.547 48.6514ZM153.972 40.1287C157.557 37.9775 161.534 36.9 165.914 36.9V35.9C161.361 35.9 157.205 37.0225 153.457 39.2713L153.972 40.1287ZM165.914 36.9C170.227 36.9 174.136 37.9767 177.654 40.1266L178.175 39.2734C174.493 37.0233 170.402 35.9 165.914 35.9V36.9ZM177.663 40.1322C181.253 42.2211 184.056 45.057 186.079 48.6455L186.95 48.1545C184.839 44.4097 181.909 41.4455 178.166 39.2678L177.663 40.1322ZM186.079 48.6455C188.103 52.2362 189.114 56.1181 189.114 60.3H190.114C190.114 55.9486 189.06 51.8972 186.95 48.1545L186.079 48.6455ZM189.114 60.3C189.114 64.6889 188.133 68.7072 186.174 72.3639L187.055 72.8361C189.096 69.0262 190.114 64.8444 190.114 60.3H189.114ZM186.176 72.3606C184.218 75.9495 181.48 78.8186 177.954 80.9734L178.475 81.8266C182.149 79.5814 185.011 76.5839 187.053 72.8394L186.176 72.3606ZM177.956 80.972C174.509 83.053 170.534 84.1 166.014 84.1V85.1C170.695 85.1 174.853 84.0137 178.473 81.828L177.956 80.972ZM166.014 82.3C169.904 82.3 173.462 81.3092 176.677 79.3255L176.152 78.4745C173.1 80.3575 169.725 81.3 166.014 81.3V82.3ZM176.677 79.3255C179.884 77.3468 182.379 74.7159 184.154 71.4381L183.275 70.9619C181.584 74.0841 179.212 76.5865 176.152 78.4745L176.677 79.3255ZM184.152 71.4413C185.995 68.098 186.914 64.4478 186.914 60.5H185.914C185.914 64.2855 185.034 67.7687 183.277 70.9587L184.152 71.4413ZM186.914 60.5C186.914 56.6173 185.994 53.0007 184.152 49.6587L183.277 50.1413C185.035 53.3326 185.914 56.7827 185.914 60.5H186.914ZM184.152 49.6587C182.311 46.3176 179.785 43.6537 176.577 41.6745L176.052 42.5255C179.111 44.413 181.518 46.9491 183.277 50.1413L184.152 49.6587ZM176.577 41.6745C173.362 39.6908 169.804 38.7 165.914 38.7V39.7C169.625 39.7 173 40.6425 176.052 42.5255L176.577 41.6745ZM165.914 38.7C162.021 38.7 158.43 39.726 155.149 41.776L155.679 42.624C158.799 40.674 162.207 39.7 165.914 39.7V38.7ZM155.152 41.7745C151.946 43.7527 149.388 46.4144 147.48 49.7519L148.349 50.2481C150.175 47.0523 152.616 44.514 155.677 42.6255L155.152 41.7745ZM147.477 49.7587C145.635 53.1007 144.714 56.7173 144.714 60.6H145.714C145.714 56.8827 146.594 53.4326 148.352 50.2413L147.477 49.7587ZM144.714 60.6C144.714 64.4827 145.635 68.0993 147.477 71.4413L148.352 70.9587C146.594 67.7674 145.714 64.3173 145.714 60.6H144.714ZM147.483 71.4519C149.39 74.7224 151.948 77.3488 155.152 79.3255L155.677 78.4745C152.614 76.5845 150.172 74.0776 148.346 70.9481L147.483 71.4519ZM155.156 79.328C158.437 81.3101 162.06 82.3 166.014 82.3V81.3C162.236 81.3 158.792 80.3566 155.673 78.472L155.156 79.328ZM227.595 78.9L227.333 79.3262L227.595 78.9ZM213.495 64.5L213.062 64.7501L213.064 64.7537L213.495 64.5ZM213.595 26.1L214.025 26.3558L214.025 26.3558L213.595 26.1ZM227.895 12L228.145 12.4329L228.149 12.4308L227.895 12ZM266.895 12L266.639 12.4296L266.643 12.4317L266.895 12ZM280.995 26.1L280.563 26.3523L280.567 26.358L280.995 26.1ZM281.095 64.6L281.528 64.8501L281.529 64.8481L281.095 64.6ZM266.995 79L267.253 79.4283L267.254 79.4275L266.995 79ZM265.095 76.5L264.838 76.0708L265.095 76.5ZM278.095 63.4L277.664 63.1458L277.663 63.1474L278.095 63.4ZM278.195 27.6L277.762 27.8503L277.763 27.8526L278.195 27.6ZM265.195 14.5L264.938 14.9292L264.942 14.9315L265.195 14.5ZM229.495 14.5L229.748 14.9315L229.751 14.9292L229.495 14.5ZM216.395 27.6L215.964 27.3458L215.963 27.3474L216.395 27.6ZM216.395 63.4L215.962 63.6503L215.966 63.6565L216.395 63.4ZM229.495 76.5L229.751 76.0708L229.751 76.0708L229.495 76.5ZM235.395 65.9L235.143 66.3322L235.143 66.3322L235.395 65.9ZM226.695 57.3L226.263 57.5515L226.265 57.5549L226.695 57.3ZM226.695 33.8L227.125 34.0549L227.127 34.0514L226.695 33.8ZM235.395 25.1L235.143 24.6678L235.143 24.6678L235.395 25.1ZM258.995 25L259.24 24.5644L259.24 24.5644L258.995 25ZM267.695 33.5L267.265 33.7549L268.195 35.3245V33.5H267.695ZM267.695 23V22.5H267.195V23H267.695ZM270.895 23H271.395V22.5H270.895V23ZM270.895 68V68.5H271.395V68H270.895ZM267.695 68H267.195V68.5H267.695V68ZM267.695 57.5H268.195V55.6755L267.265 57.2451L267.695 57.5ZM258.995 66L259.24 66.4356L259.24 66.4356L258.995 66ZM257.695 63.5L257.951 63.9296L257.957 63.9255L257.695 63.5ZM265.095 55.9L264.663 55.6481L264.661 55.6509L265.095 55.9ZM257.595 27.6L257.332 28.0256L257.339 28.0295L257.595 27.6ZM237.095 27.6L236.836 27.172L236.832 27.1745L237.095 27.6ZM229.495 35.3L229.067 35.0414L229.063 35.0481L229.495 35.3ZM229.495 55.9L229.063 56.152L229.069 56.1626L229.495 55.9ZM237.195 63.5L236.936 63.928L236.943 63.9319L237.195 63.5ZM246.495 83.8C239.856 83.8 233.646 82.0267 227.856 78.4738L227.333 79.3262C233.277 82.9733 239.667 84.8 246.495 84.8V83.8ZM227.856 78.4738C222.06 74.9171 217.418 70.1767 213.926 64.2463L213.064 64.7537C216.638 70.8233 221.396 75.6829 227.333 79.3262L227.856 78.4738ZM213.928 64.2499C210.505 58.3252 208.795 51.978 208.795 45.2H207.795C207.795 52.1553 209.552 58.6748 213.062 64.7501L213.928 64.2499ZM208.795 45.2C208.795 38.4915 210.537 32.213 214.025 26.3558L213.165 25.8442C209.587 31.8536 207.795 38.3085 207.795 45.2H208.795ZM214.025 26.3558C217.514 20.4962 222.219 15.857 228.145 12.4329L227.645 11.5671C221.571 15.0763 216.743 19.8372 213.165 25.8442L214.025 26.3558ZM228.149 12.4308C234.071 8.94304 240.484 7.2 247.395 7.2V6.2C240.306 6.2 233.719 7.99029 227.641 11.5692L228.149 12.4308ZM247.395 7.2C254.374 7.2 260.785 8.94346 266.639 12.4296L267.151 11.5704C261.138 7.98987 254.549 6.2 247.395 6.2V7.2ZM266.643 12.4317C272.502 15.855 277.14 20.4932 280.563 26.3522L281.427 25.8478C277.917 19.8402 273.155 15.0783 267.147 11.5683L266.643 12.4317ZM280.567 26.358C284.053 32.1465 285.795 38.424 285.795 45.2H286.795C286.795 38.2427 285.004 31.7868 281.423 25.842L280.567 26.358ZM285.795 45.2C285.795 51.9781 284.085 58.3594 280.661 64.3519L281.529 64.8481C285.038 58.7072 286.795 52.1553 286.795 45.2H285.795ZM280.662 64.3499C277.237 70.277 272.597 75.016 266.736 78.5725L267.254 79.4275C273.259 75.784 278.019 70.923 281.528 64.8501L280.662 64.3499ZM266.737 78.5717C260.948 82.0585 254.703 83.8 247.995 83.8V84.8C254.887 84.8 261.309 83.0082 267.253 79.4283L266.737 78.5717ZM247.995 83.8H246.495V84.8H247.995V83.8ZM247.295 81.9C253.785 81.9 259.807 80.2424 265.351 76.9292L264.838 76.0708C259.45 79.2909 253.605 80.9 247.295 80.9V81.9ZM265.351 76.9292C270.89 73.6196 275.284 69.1923 278.526 63.6526L277.663 63.1474C274.506 68.541 270.233 72.8471 264.838 76.0708L265.351 76.9292ZM278.525 63.6542C281.838 58.0433 283.495 51.9555 283.495 45.4H282.495C282.495 51.7779 280.885 57.69 277.664 63.1458L278.525 63.6542ZM283.495 45.4C283.495 38.9122 281.872 32.8915 278.626 27.3474L277.763 27.8526C280.918 33.2418 282.495 39.0878 282.495 45.4H283.495ZM278.628 27.3497C275.385 21.7421 270.99 17.3127 265.448 14.0685L264.942 14.9315C270.334 18.0873 274.605 22.3913 277.762 27.8503L278.628 27.3497ZM265.451 14.0708C259.907 10.7576 253.885 9.1 247.395 9.1V10.1C253.705 10.1 259.55 11.7091 264.938 14.9292L265.451 14.0708ZM247.395 9.1C240.839 9.1 234.784 10.757 229.238 14.0708L229.751 14.9292C235.139 11.7096 241.017 10.1 247.395 10.1V9.1ZM229.242 14.0685C223.701 17.3121 219.274 21.7403 215.964 27.3458L216.825 27.8542C220.05 22.393 224.355 18.0879 229.748 14.9315L229.242 14.0685ZM215.963 27.3474C212.718 32.8915 211.095 38.9122 211.095 45.4H212.095C212.095 39.0878 213.672 33.2418 216.826 27.8526L215.963 27.3474ZM211.095 45.4C211.095 51.9535 212.718 58.04 215.962 63.6503L216.828 63.1497C213.672 57.6934 212.095 51.7799 212.095 45.4H211.095ZM215.966 63.6565C219.275 69.1941 223.701 73.6201 229.238 76.9292L229.751 76.0708C224.356 72.8465 220.048 68.5392 216.824 63.1435L215.966 63.6565ZM229.238 76.9292C234.783 80.2424 240.805 81.9 247.295 81.9V80.9C240.985 80.9 235.14 79.2909 229.751 76.0708L229.238 76.9292ZM247.295 68.6C243.116 68.6 239.236 67.5565 235.646 65.4678L235.143 66.3322C238.887 68.5102 242.94 69.6 247.295 69.6V68.6ZM235.646 65.4678C232.052 63.3768 229.214 60.5707 227.125 57.0451L226.265 57.5549C228.442 61.2293 231.404 64.1566 235.143 66.3322L235.646 65.4678ZM227.127 57.0486C225.038 53.4574 223.995 49.6107 223.995 45.5H222.995C222.995 49.7893 224.085 53.8092 226.263 57.5514L227.127 57.0486ZM223.995 45.5C223.995 41.3893 225.038 37.5774 227.125 34.0549L226.265 33.5451C224.086 37.2226 222.995 41.2107 222.995 45.5H223.995ZM227.127 34.0514C229.217 30.4597 232.055 27.6219 235.646 25.5322L235.143 24.6678C231.402 26.8447 228.44 29.807 226.263 33.5486L227.127 34.0514ZM235.646 25.5322C239.236 23.4435 243.116 22.4 247.295 22.4V21.4C242.94 21.4 238.887 22.4898 235.143 24.6678L235.646 25.5322ZM247.295 22.4C251.341 22.4 255.156 23.4103 258.749 25.4356L259.24 24.5644C255.5 22.4563 251.516 21.4 247.295 21.4V22.4ZM258.749 25.4356C262.34 27.4595 265.176 30.2307 267.265 33.7549L268.125 33.2451C265.947 29.5693 262.983 26.6738 259.24 24.5644L258.749 25.4356ZM268.195 33.5V23H267.195V33.5H268.195ZM267.695 23.5H270.895V22.5H267.695V23.5ZM270.395 23V68H271.395V23H270.395ZM270.895 67.5H267.695V68.5H270.895V67.5ZM268.195 68V57.5H267.195V68H268.195ZM267.265 57.2451C265.176 60.7693 262.34 63.5405 258.749 65.5644L259.24 66.4356C262.983 64.3262 265.947 61.4307 268.125 57.7549L267.265 57.2451ZM258.749 65.5644C255.156 67.5897 251.341 68.6 247.295 68.6V69.6C251.516 69.6 255.5 68.5437 259.24 66.4356L258.749 65.5644ZM247.495 66.8C251.251 66.8 254.74 65.8426 257.951 63.9296L257.439 63.0704C254.384 64.8907 251.072 65.8 247.495 65.8V66.8ZM257.957 63.9255C261.16 61.9494 263.686 59.3559 265.528 56.1491L264.661 55.6509C262.904 58.7107 260.496 61.184 257.432 63.0745L257.957 63.9255ZM265.527 56.1519C267.438 52.8748 268.395 49.3211 268.395 45.5H267.395C267.395 49.1455 266.485 52.5252 264.663 55.6481L265.527 56.1519ZM268.395 45.5C268.395 41.7438 267.438 38.2237 265.527 34.9481L264.663 35.4519C266.486 38.5763 267.395 41.9228 267.395 45.5H268.395ZM265.527 34.9481C263.618 31.6761 261.058 29.0812 257.851 27.1704L257.339 28.0295C260.398 29.8522 262.838 32.3239 264.663 35.4519L265.527 34.9481ZM257.857 27.1745C254.646 25.1927 251.155 24.2 247.395 24.2V25.2C250.968 25.2 254.278 26.1407 257.332 28.0255L257.857 27.1745ZM247.395 24.2C243.635 24.2 240.113 25.1926 236.836 27.172L237.353 28.028C240.477 26.1408 243.821 25.2 247.395 25.2V24.2ZM236.832 27.1745C233.63 29.1502 231.041 31.7745 229.067 35.0414L229.923 35.5586C231.816 32.4255 234.293 29.9165 237.357 28.0255L236.832 27.1745ZM229.063 35.0481C227.152 38.3237 226.195 41.8438 226.195 45.6H227.195C227.195 42.0228 228.104 38.6763 229.927 35.5519L229.063 35.0481ZM226.195 45.6C226.195 49.3562 227.152 52.8763 229.063 56.1519L229.927 55.6481C228.104 52.5237 227.195 49.1772 227.195 45.6H226.195ZM229.069 56.1626C231.045 59.3646 233.669 61.9542 236.936 63.928L237.453 63.072C234.32 61.1791 231.811 58.7021 229.92 55.6374L229.069 56.1626ZM236.943 63.9319C240.219 65.8427 243.739 66.8 247.495 66.8V65.8C243.918 65.8 240.571 64.8907 237.447 63.0681L236.943 63.9319ZM309.983 82.5L309.774 82.9545L309.785 82.9589L309.983 82.5ZM304.683 78.2H304.183V78.3415L304.257 78.462L304.683 78.2ZM304.683 72.9L305.141 72.6979L304.183 72.9H304.683ZM309.883 79.3L309.615 79.7219L309.624 79.7276L309.883 79.3ZM326.183 78.3L326.537 78.6536L326.543 78.6477L326.183 78.3ZM327.483 64.1L327.081 64.3973L327.088 64.4057L327.483 64.1ZM321.983 59.5L322.242 59.0722L322.234 59.0673L321.983 59.5ZM318.183 57.3L317.923 57.727L317.933 57.7327L318.183 57.3ZM311.983 53.4L311.683 53.8L311.694 53.8083L311.706 53.816L311.983 53.4ZM308.783 50.1L308.36 50.3671L308.367 50.3773L308.783 50.1ZM310.383 39.3L310.709 39.6796L310.709 39.6796L310.383 39.3ZM326.883 39.4H327.383V39.1344L327.163 38.9857L326.883 39.4ZM326.883 43.8L326.484 44.1016L327.383 45.2903V43.8H326.883ZM312.783 41.3L312.471 40.9096L312.471 40.9096L312.783 41.3ZM311.983 49.3L311.575 49.5883L311.579 49.5942L311.583 49.6L311.983 49.3ZM315.283 52.3L315.006 52.7161L315.015 52.7218L315.283 52.3ZM322.483 56.5L322.73 56.0653L322.728 56.0637L322.483 56.5ZM329.983 62.5L329.588 62.8061L329.593 62.8123L329.983 62.5ZM328.283 80.4L328.623 80.767L328.623 80.7667L328.283 80.4ZM318.483 83.6C315.339 83.6 312.575 83.076 310.182 82.0411L309.785 82.9589C312.325 84.0573 315.228 84.6 318.483 84.6V83.6ZM310.192 82.0457C307.786 80.9401 306.109 79.5633 305.109 77.938L304.257 78.462C305.39 80.3034 307.247 81.7933 309.774 82.9543L310.192 82.0457ZM305.183 78.2V72.9H304.183V78.2H305.183ZM304.226 73.1021C305.524 76.0406 307.316 78.2589 309.615 79.7218L310.152 78.8782C308.05 77.5411 306.375 75.4928 305.141 72.6979L304.226 73.1021ZM309.624 79.7276C311.924 81.1212 314.82 81.8 318.283 81.8V80.8C314.946 80.8 312.243 80.1455 310.142 78.8724L309.624 79.7276ZM318.283 81.8C321.66 81.8 324.428 80.762 326.537 78.6536L325.83 77.9464C323.938 79.838 321.44 80.8 318.283 80.8V81.8ZM326.543 78.6477C328.643 76.4769 329.683 73.7138 329.683 70.4H328.683C328.683 73.4862 327.723 75.9897 325.824 77.9523L326.543 78.6477ZM329.683 70.4C329.683 67.6065 329.105 65.3814 327.879 63.7943L327.088 64.4057C328.128 65.7519 328.683 67.7269 328.683 70.4H329.683ZM327.885 63.8028C326.698 62.1962 324.804 60.6227 322.242 59.0722L321.724 59.9277C324.229 61.444 326.002 62.9371 327.081 64.3972L327.885 63.8028ZM322.234 59.0673L318.434 56.8673L317.933 57.7327L321.733 59.9327L322.234 59.0673ZM318.444 56.8731C315.712 55.2074 313.652 53.9116 312.261 52.984L311.706 53.816C313.114 54.7551 315.188 56.0592 317.923 57.7269L318.444 56.8731ZM312.283 53C310.988 52.0288 309.963 50.9688 309.199 49.8226L308.367 50.3773C309.203 51.6312 310.311 52.7712 311.683 53.8L312.283 53ZM309.206 49.833C308.462 48.655 308.083 47.2831 308.083 45.7H307.083C307.083 47.4502 307.504 49.0116 308.36 50.367L309.206 49.833ZM308.083 45.7C308.083 43.1653 308.963 41.1759 310.709 39.6796L310.058 38.9204C308.07 40.6241 307.083 42.9013 307.083 45.7H308.083ZM310.709 39.6796C312.466 38.1734 314.775 37.4 317.683 37.4V36.4C314.591 36.4 312.034 37.2266 310.058 38.9204L310.709 39.6796ZM317.683 37.4C321.273 37.4 324.237 38.2152 326.603 39.8143L327.163 38.9857C324.596 37.2514 321.426 36.4 317.683 36.4V37.4ZM326.383 39.4V43.8H327.383V39.4H326.383ZM327.282 43.4984C325.108 40.6228 321.984 39.2 317.983 39.2V40.2C321.716 40.2 324.525 41.5105 326.484 44.1016L327.282 43.4984ZM317.983 39.2C315.765 39.2 313.913 39.7558 312.471 40.9096L313.096 41.6904C314.32 40.7109 315.934 40.2 317.983 40.2V39.2ZM312.471 40.9096C311.022 42.0684 310.283 43.5772 310.283 45.4H311.283C311.283 43.8895 311.877 42.6649 313.096 41.6904L312.471 40.9096ZM310.283 45.4C310.283 46.9637 310.712 48.3657 311.575 49.5883L312.392 49.0117C311.655 47.9677 311.283 46.7697 311.283 45.4H310.283ZM311.583 49.6C312.425 50.7221 313.57 51.7591 315.006 52.716L315.561 51.884C314.196 50.9742 313.142 50.0112 312.383 49L311.583 49.6ZM315.015 52.7218C316.494 53.6633 318.905 55.0691 322.239 56.9363L322.728 56.0637C319.395 54.1976 317.006 52.8034 315.552 51.8782L315.015 52.7218ZM322.236 56.9346C325.604 58.85 328.043 60.8109 329.588 62.8061L330.379 62.1939C328.723 60.0558 326.162 58.0166 322.73 56.0654L322.236 56.9346ZM329.593 62.8123C331.104 64.7017 331.883 67.2151 331.883 70.4H332.883C332.883 67.0516 332.062 64.2983 330.374 62.1877L329.593 62.8123ZM331.883 70.4C331.883 74.411 330.563 77.6054 327.943 80.0333L328.623 80.7667C331.47 78.1279 332.883 74.6557 332.883 70.4H331.883ZM327.944 80.033C325.376 82.4083 322.233 83.6 318.483 83.6V84.6C322.467 84.6 325.857 83.325 328.623 80.767L327.944 80.033ZM368.449 83.6V84.1H368.949V83.6H368.449ZM356.149 79.1L355.807 79.4648L355.811 79.4683L356.149 79.1ZM351.349 19.9V19.4H350.849V19.9H351.349ZM354.549 19.9H355.049V19.4H354.549V19.9ZM354.549 38H354.049V38.5H354.549V38ZM368.349 38H368.849V37.5H368.349V38ZM368.349 40.8V41.3H368.849V40.8H368.349ZM354.549 40.8V40.3H354.049V40.8H354.549ZM358.449 77.1L358.1 77.4582L358.109 77.467L358.449 77.1ZM368.449 80.8H368.949V80.3H368.449V80.8ZM368.449 83.1C363.626 83.1 359.651 81.6373 356.487 78.7317L355.811 79.4683C359.18 82.5627 363.405 84.1 368.449 84.1V83.1ZM356.491 78.7352C353.412 75.8485 351.849 71.8585 351.849 66.7H350.849C350.849 72.0749 352.486 76.3515 355.807 79.4648L356.491 78.7352ZM351.849 66.7V19.9H350.849V66.7H351.849ZM351.349 20.4H354.549V19.4H351.349V20.4ZM354.049 19.9V38H355.049V19.9H354.049ZM354.549 38.5H368.349V37.5H354.549V38.5ZM367.849 38V40.8H368.849V38H367.849ZM368.349 40.3H354.549V41.3H368.349V40.3ZM354.049 40.8V66.7H355.049V40.8H354.049ZM354.049 66.7C354.049 71.2042 355.383 74.8112 358.1 77.4581L358.798 76.7419C356.314 74.3221 355.049 70.9958 355.049 66.7H354.049ZM358.109 77.467C360.878 80.0281 364.337 81.3 368.449 81.3V80.3C364.561 80.3 361.353 79.1052 358.788 76.7329L358.109 77.467ZM367.949 80.8V83.6H368.949V80.8H367.949ZM388.261 26.7L387.907 27.0536L387.915 27.062L387.924 27.07L388.261 26.7ZM388.261 21.8L387.924 21.43L387.915 21.438L387.907 21.4464L388.261 21.8ZM393.161 21.8L392.807 22.1535L392.815 22.162L392.824 22.17L393.161 21.8ZM393.161 26.7L392.824 26.33L392.815 26.338L392.807 26.3464L393.161 26.7ZM389.161 38V37.5H388.661V38H389.161ZM392.361 38H392.861V37.5H392.361V38ZM392.361 83V83.5H392.861V83H392.361ZM389.161 83H388.661V83.5H389.161V83ZM390.761 27.2C389.96 27.2 389.244 26.9187 388.597 26.33L387.924 27.07C388.743 27.8146 389.695 28.2 390.761 28.2V27.2ZM388.614 26.3464C388.047 25.7797 387.761 25.0763 387.761 24.2H386.761C386.761 25.3237 387.14 26.287 387.907 27.0536L388.614 26.3464ZM387.761 24.2C387.761 23.4008 388.04 22.7275 388.614 22.1535L387.907 21.4464C387.148 22.2058 386.761 23.1325 386.761 24.2H387.761ZM388.597 22.17C389.244 21.5813 389.96 21.3 390.761 21.3V20.3C389.695 20.3 388.743 20.6854 387.924 21.43L388.597 22.17ZM390.761 21.3C391.56 21.3 392.233 21.5796 392.807 22.1535L393.514 21.4464C392.755 20.6871 391.828 20.3 390.761 20.3V21.3ZM392.824 22.17C393.461 22.7485 393.761 23.4171 393.761 24.2H394.761C394.761 23.1163 394.327 22.1848 393.497 21.43L392.824 22.17ZM393.761 24.2C393.761 25.0606 393.452 25.7591 392.824 26.33L393.497 27.07C394.336 26.3076 394.761 25.3394 394.761 24.2H393.761ZM392.807 26.3464C392.233 26.9204 391.56 27.2 390.761 27.2V28.2C391.828 28.2 392.755 27.8129 393.514 27.0536L392.807 26.3464ZM389.161 38.5H392.361V37.5H389.161V38.5ZM391.861 38V83H392.861V38H391.861ZM392.361 82.5H389.161V83.5H392.361V82.5ZM389.661 83V38H388.661V83H389.661ZM434.371 83.9V84.4H434.871V83.9H434.371ZM425.771 81.8L425.525 82.2356L425.534 82.2402L425.771 81.8ZM419.571 75.7L420.001 75.446L420.001 75.446L419.571 75.7ZM417.271 7.99999V7.49999H416.771V7.99999H417.271ZM420.471 7.99999H420.971V7.49999H420.471V7.99999ZM422.271 74.2L421.835 74.4452L421.841 74.4553L422.271 74.2ZM427.371 79.3L427.115 79.73L427.126 79.7358L427.371 79.3ZM434.371 81.1H434.871V80.6H434.371V81.1ZM434.371 83.4C431.315 83.4 428.53 82.7181 426.008 81.3598L425.534 82.2402C428.211 83.6819 431.16 84.4 434.371 84.4V83.4ZM426.016 81.3645C423.494 79.9415 421.491 77.9712 420.001 75.446L419.14 75.954C420.717 78.6288 422.848 80.7251 425.525 82.2355L426.016 81.3645ZM420.001 75.446C418.516 72.9276 417.771 70.1162 417.771 67H416.771C416.771 70.2837 417.559 73.2724 419.14 75.954L420.001 75.446ZM417.771 67V7.99999H416.771V67H417.771ZM417.271 8.49999H420.471V7.49999H417.271V8.49999ZM419.971 7.99999V67H420.971V7.99999H419.971ZM419.971 67C419.971 69.7446 420.589 72.2304 421.835 74.4451L422.706 73.9549C421.552 71.903 420.971 69.5887 420.971 67H419.971ZM421.841 74.4553C423.15 76.6605 424.91 78.4206 427.115 79.7299L427.626 78.8701C425.565 77.6461 423.925 76.0062 422.701 73.9447L421.841 74.4553ZM427.126 79.7358C429.336 80.9794 431.755 81.6 434.371 81.6V80.6C431.92 80.6 429.672 80.0206 427.616 78.8642L427.126 79.7358ZM433.871 81.1V83.9H434.871V81.1H433.871ZM466.512 80.8L466.258 81.2308L466.262 81.2327L466.512 80.8ZM457.912 72.1L458.349 71.8572L457.412 70.1704V72.1H457.912ZM457.912 83V83.5H458.412V83H457.912ZM454.712 83H454.212V83.5H454.712V83ZM454.712 7.99999V7.49999H454.212V7.99999H454.712ZM457.912 7.99999H458.412V7.49999H457.912V7.99999ZM457.912 49.4H457.412L458.364 49.614L457.912 49.4ZM466.312 40.3L466.056 39.8706L466.056 39.8706L466.312 40.3ZM490.212 40.1L489.957 40.5302L489.961 40.5322L490.212 40.1ZM498.912 48.7L498.482 48.9549L498.482 48.9549L498.912 48.7ZM498.912 72.3L498.482 72.0451L498.482 72.0451L498.912 72.3ZM490.212 80.9L489.961 80.4678L489.957 80.4699L490.212 80.9ZM488.712 78.5L488.968 78.9296L488.975 78.9255L488.712 78.5ZM496.112 70.9L495.68 70.6481L495.679 70.6509L496.112 70.9ZM496.112 50.2L496.544 49.9481L496.544 49.9481L496.112 50.2ZM488.612 42.6L488.35 43.0256L488.356 43.0295L488.612 42.6ZM468.112 42.6L467.854 42.172L467.85 42.1745L468.112 42.6ZM460.512 50.3L460.084 50.0414L460.08 50.0481L460.512 50.3ZM460.512 70.9L460.08 71.152L460.087 71.1626L460.512 70.9ZM468.212 78.5L467.954 78.928L467.96 78.9319L468.212 78.5ZM478.312 83.6C474.34 83.6 470.493 82.5268 466.763 80.3673L466.262 81.2327C470.131 83.4732 474.151 84.6 478.312 84.6V83.6ZM466.766 80.3692C463.105 78.212 460.304 75.3752 458.349 71.8572L457.475 72.3428C459.521 76.0248 462.452 78.988 466.258 81.2308L466.766 80.3692ZM457.412 72.1V83H458.412V72.1H457.412ZM457.912 82.5H454.712V83.5H457.912V82.5ZM455.212 83V7.99999H454.212V83H455.212ZM454.712 8.49999H457.912V7.49999H454.712V8.49999ZM457.412 7.99999V49.4H458.412V7.99999H457.412ZM458.364 49.614C460.119 45.9085 462.849 42.9481 466.568 40.7294L466.056 39.8706C462.176 42.1852 459.305 45.2915 457.46 49.186L458.364 49.614ZM466.568 40.7294C470.295 38.5064 474.207 37.4 478.312 37.4V36.4C474.017 36.4 469.929 37.5603 466.056 39.8706L466.568 40.7294ZM478.312 37.4C482.559 37.4 486.437 38.4442 489.957 40.5301L490.467 39.6699C486.787 37.4891 482.732 36.4 478.312 36.4V37.4ZM489.961 40.5322C493.555 42.6232 496.393 45.4293 498.482 48.9549L499.342 48.4451C497.165 44.7707 494.203 41.8434 490.464 39.6678L489.961 40.5322ZM498.482 48.9549C500.569 52.4762 501.612 56.3212 501.612 60.5H502.612C502.612 56.1455 501.522 52.1238 499.342 48.4451L498.482 48.9549ZM501.612 60.5C501.612 64.6788 500.569 68.5238 498.482 72.0451L499.342 72.5549C501.522 68.8762 502.612 64.8545 502.612 60.5H501.612ZM498.482 72.0451C496.393 75.5707 493.555 78.3768 489.961 80.4678L490.464 81.3322C494.203 79.1566 497.165 76.2293 499.342 72.5549L498.482 72.0451ZM489.957 80.4699C486.437 82.5558 482.559 83.6 478.312 83.6V84.6C482.732 84.6 486.787 83.5109 490.467 81.3301L489.957 80.4699ZM478.512 81.8C482.268 81.8 485.757 80.8426 488.968 78.9296L488.456 78.0704C485.401 79.8907 482.089 80.8 478.512 80.8V81.8ZM488.975 78.9255C492.177 76.9494 494.703 74.3559 496.546 71.1491L495.679 70.6509C493.921 73.7107 491.513 76.184 488.45 78.0745L488.975 78.9255ZM496.544 71.1519C498.456 67.8748 499.412 64.3211 499.412 60.5H498.412C498.412 64.1455 497.502 67.5252 495.68 70.6481L496.544 71.1519ZM499.412 60.5C499.412 56.7438 498.455 53.2237 496.544 49.9481L495.68 50.4519C497.503 53.5763 498.412 56.9228 498.412 60.5H499.412ZM496.544 49.9481C494.635 46.6761 492.075 44.0812 488.868 42.1704L488.356 43.0295C491.416 44.8522 493.856 47.3239 495.68 50.4519L496.544 49.9481ZM488.875 42.1745C485.663 40.1927 482.172 39.2 478.412 39.2V40.2C481.986 40.2 485.295 41.1407 488.35 43.0255L488.875 42.1745ZM478.412 39.2C474.652 39.2 471.13 40.1926 467.854 42.172L468.371 43.028C471.494 41.1408 474.838 40.2 478.412 40.2V39.2ZM467.85 42.1745C464.648 44.1502 462.058 46.7745 460.084 50.0414L460.94 50.5586C462.833 47.4255 465.31 44.9165 468.375 43.0255L467.85 42.1745ZM460.08 50.0481C458.169 53.3237 457.212 56.8438 457.212 60.6H458.212C458.212 57.0228 459.121 53.6763 460.944 50.5519L460.08 50.0481ZM457.212 60.6C457.212 64.3562 458.169 67.8763 460.08 71.1519L460.944 70.6481C459.121 67.5237 458.212 64.1772 458.212 60.6H457.212ZM460.087 71.1626C462.062 74.3646 464.687 76.9542 467.954 78.928L468.471 78.072C465.338 76.1791 462.829 73.7021 460.938 70.6374L460.087 71.1626ZM467.96 78.9319C471.236 80.8427 474.756 81.8 478.512 81.8V80.8C474.935 80.8 471.588 79.8907 468.464 78.0681L467.96 78.9319ZM521.157 38V37.5H520.657V38H521.157ZM524.357 38H524.857V37.5H524.357V38ZM524.357 48.4H523.857L524.82 48.5889L524.357 48.4ZM530.157 40.7L529.866 40.2938L529.861 40.2975L530.157 40.7ZM545.257 39.2H545.757V38.8634L545.446 38.7368L545.257 39.2ZM545.257 42.9L544.955 43.2983L545.757 43.9069V42.9H545.257ZM531.757 42.9L531.486 42.4802L531.48 42.484L531.757 42.9ZM526.357 48.8L525.922 48.5531L525.918 48.5622L526.357 48.8ZM524.357 83V83.5H524.857V83H524.357ZM521.157 83H520.657V83.5H521.157V83ZM521.157 38.5H524.357V37.5H521.157V38.5ZM523.857 38V48.4H524.857V38H523.857ZM524.82 48.5889C526.123 45.3968 528.003 42.9082 530.454 41.1025L529.861 40.2975C527.245 42.2251 525.258 44.8698 523.894 48.211L524.82 48.5889ZM530.449 41.1062C532.962 39.3018 535.793 38.4 538.957 38.4V37.4C535.588 37.4 532.553 38.3648 529.866 40.2938L530.449 41.1062ZM538.957 38.4C540.953 38.4 542.989 38.8181 545.069 39.6632L545.446 38.7368C543.259 37.8486 541.096 37.4 538.957 37.4V38.4ZM544.757 39.2V42.9H545.757V39.2H544.757ZM545.56 42.5017C543.54 40.9698 541.268 40.2 538.757 40.2V41.2C541.047 41.2 543.108 41.8968 544.955 43.2983L545.56 42.5017ZM538.757 40.2C536.249 40.2 533.823 40.9679 531.486 42.4802L532.029 43.3198C534.225 41.8987 536.466 41.2 538.757 41.2V40.2ZM531.48 42.484C529.21 43.9971 527.358 46.0236 525.923 48.5532L526.792 49.0468C528.157 46.643 529.904 44.7362 532.035 43.316L531.48 42.484ZM525.918 48.5622C524.545 51.1018 523.857 53.8169 523.857 56.7H524.857C524.857 53.9831 525.503 51.4315 526.797 49.0378L525.918 48.5622ZM523.857 56.7V83H524.857V56.7H523.857ZM524.357 82.5H521.157V83.5H524.357V82.5ZM521.657 83V38H520.657V83H521.657ZM568.289 78.9L567.932 79.2501L567.935 79.2536L568.289 78.9ZM563.189 38V37.5H562.689V38H563.189ZM566.389 38H566.889V37.5H566.389V38ZM570.689 76.9L570.327 77.2455L570.335 77.2536L570.689 76.9ZM591.789 79.2L592.021 79.6428L592.03 79.6381L591.789 79.2ZM600.389 38V37.5H599.889V38H600.389ZM603.589 38H604.089V37.5H603.589V38ZM603.589 83V83.5H604.089V83H603.589ZM600.389 83H599.889V83.5H600.389V83ZM600.389 74.6H600.889L599.95 74.3598L600.389 74.6ZM593.489 81.5L593.735 81.9353L593.742 81.9312L593.489 81.5ZM582.989 83.6C576.748 83.6 571.99 81.8942 568.642 78.5464L567.935 79.2536C571.521 82.8392 576.563 84.6 582.989 84.6V83.6ZM568.646 78.5499C565.363 75.2026 563.689 70.4438 563.689 64.2H562.689C562.689 70.6229 564.415 75.6641 567.932 79.2501L568.646 78.5499ZM563.689 64.2V38H562.689V64.2H563.689ZM563.189 38.5H566.389V37.5H563.189V38.5ZM565.889 38V64.2H566.889V38H565.889ZM565.889 64.2C565.889 69.7533 567.346 74.1259 570.327 77.2454L571.05 76.5546C568.298 73.6741 566.889 69.5801 566.889 64.2H565.889ZM570.335 77.2536C573.386 80.3042 577.627 81.8 582.989 81.8V80.8C577.817 80.8 573.858 79.3624 571.042 76.5464L570.335 77.2536ZM582.989 81.8C586.264 81.8 589.278 81.0827 592.021 79.6427L591.556 78.7573C588.966 80.1173 586.113 80.8 582.989 80.8V81.8ZM592.03 79.6381C594.774 78.1286 596.94 76.0319 598.519 73.354L597.658 72.846C596.171 75.3681 594.136 77.3381 591.548 78.7619L592.03 79.6381ZM598.519 73.354C600.103 70.6692 600.889 67.6131 600.889 64.2H599.889C599.889 67.4536 599.141 70.3308 597.658 72.846L598.519 73.354ZM600.889 64.2V38H599.889V64.2H600.889ZM600.389 38.5H603.589V37.5H600.389V38.5ZM603.089 38V83H604.089V38H603.089ZM603.589 82.5H600.389V83.5H603.589V82.5ZM600.889 83V74.6H599.889V83H600.889ZM599.95 74.3598C598.465 77.0718 596.233 79.3092 593.236 81.0688L593.742 81.9312C596.877 80.0908 599.246 77.7282 600.827 74.8402L599.95 74.3598ZM593.243 81.0647C590.259 82.7508 586.846 83.6 582.989 83.6V84.6C586.998 84.6 590.585 83.7158 593.735 81.9353L593.243 81.0647ZM635.416 81.2L635.167 81.6336L635.171 81.6356L635.416 81.2ZM626.816 72.7L627.246 72.4451L627.246 72.4451L626.816 72.7ZM626.816 48.9L627.244 49.1584L627.246 49.1549L626.816 48.9ZM635.516 40.3L635.268 39.8659L635.265 39.8678L635.516 40.3ZM657.416 38.9L657.621 38.444L657.621 38.444L657.416 38.9ZM665.216 44.5H665.716V44.2929L665.57 44.1464L665.216 44.5ZM665.216 49.9L664.801 50.1793L665.716 51.5375V49.9H665.216ZM657.816 42.5L657.544 42.9192L657.55 42.9231L657.556 42.9269L657.816 42.5ZM637.416 42.8L637.668 43.2319L637.671 43.2303L637.416 42.8ZM629.716 50.4L630.144 50.6586L630.144 50.6586L629.716 50.4ZM629.616 71.5L629.184 71.7519L629.186 71.7559L629.616 71.5ZM637.116 78.9L636.867 79.3337L636.878 79.3396L637.116 78.9ZM665.216 71.4H665.716V69.7208L664.797 71.1265L665.216 71.4ZM665.216 76.8L665.579 77.1439L665.716 76.9992V76.8H665.216ZM657.216 82.5L657.409 82.9612L657.414 82.959L657.216 82.5ZM647.416 83.8C643.166 83.8 639.251 82.7876 635.662 80.7644L635.171 81.6356C638.914 83.7458 642.999 84.8 647.416 84.8V83.8ZM635.665 80.7664C632.14 78.743 629.336 75.9715 627.246 72.4451L626.386 72.9549C628.563 76.6285 631.492 79.5237 635.167 81.6336L635.665 80.7664ZM627.246 72.4451C625.162 68.9286 624.116 64.9514 624.116 60.5H623.116C623.116 65.1153 624.203 69.2713 626.386 72.9549L627.246 72.4451ZM624.116 60.5C624.116 56.3894 625.159 52.6124 627.244 49.1584L626.388 48.6416C624.207 52.2543 623.116 56.2106 623.116 60.5H624.116ZM627.246 49.1549C629.335 45.6293 632.173 42.8232 635.767 40.7322L635.265 39.8678C631.525 42.0434 628.563 44.9707 626.386 48.6451L627.246 49.1549ZM635.764 40.7341C639.419 38.6457 643.433 37.6 647.816 37.6V36.6C643.266 36.6 639.08 37.6877 635.268 39.8659L635.764 40.7341ZM647.816 37.6C651.497 37.6 654.624 38.1918 657.211 39.356L657.621 38.444C654.875 37.2082 651.601 36.6 647.816 36.6V37.6ZM657.211 39.356C659.811 40.5262 662.363 42.3537 664.862 44.8536L665.57 44.1464C663.003 41.5796 660.354 39.6738 657.621 38.444L657.211 39.356ZM664.716 44.5V49.9H665.716V44.5H664.716ZM665.631 49.6207C663.4 46.3077 660.884 43.7849 658.076 42.0731L657.556 42.9269C660.215 44.5485 662.632 46.9589 664.801 50.1793L665.631 49.6207ZM658.089 42.0808C655.322 40.2826 651.888 39.4 647.816 39.4V40.4C651.744 40.4 654.977 41.2507 657.544 42.9192L658.089 42.0808ZM647.816 39.4C644.057 39.4 640.502 40.3924 637.161 42.3697L637.671 43.2303C640.863 41.3409 644.242 40.4 647.816 40.4V39.4ZM637.164 42.3681C633.891 44.2773 631.264 46.8705 629.288 50.1414L630.144 50.6586C632.034 47.5295 634.541 45.056 637.668 43.2319L637.164 42.3681ZM629.288 50.1414C627.309 53.4178 626.316 56.9403 626.316 60.7H627.316C627.316 57.1263 628.257 53.7822 630.144 50.6586L629.288 50.1414ZM626.316 60.7C626.316 64.7812 627.269 68.4694 629.184 71.7519L630.048 71.2481C628.229 68.1306 627.316 64.6188 627.316 60.7H626.316ZM629.186 71.7559C631.097 74.9622 633.658 77.4904 636.867 79.3336L637.365 78.4664C634.307 76.7096 631.869 74.3044 630.046 71.2441L629.186 71.7559ZM636.878 79.3396C640.152 81.1129 643.667 82 647.416 82V81C643.832 81 640.48 80.1538 637.354 78.4604L636.878 79.3396ZM647.416 82C655.066 82 661.151 78.5352 665.635 71.6735L664.797 71.1265C660.481 77.7315 654.699 81 647.416 81V82ZM664.716 71.4V76.8H665.716V71.4H664.716ZM664.853 76.4561C662.495 78.9449 659.883 80.8035 657.018 82.041L657.414 82.959C660.415 81.6631 663.137 79.7218 665.579 77.1439L664.853 76.4561ZM657.023 82.0388C654.227 83.209 651.028 83.8 647.416 83.8V84.8C651.137 84.8 654.471 84.191 657.409 82.9612L657.023 82.0388ZM684.068 7.99999V7.49999H683.568V7.99999H684.068ZM687.268 7.99999H687.768V7.49999H687.268V7.99999ZM687.268 47.3H686.768L687.721 47.5114L687.268 47.3ZM694.368 39.9L694.618 40.3325L694.621 40.331L694.368 39.9ZM719.268 42.1L718.911 42.4501L718.914 42.4536L719.268 42.1ZM724.468 83V83.5H724.968V83H724.468ZM721.268 83H720.768V83.5H721.268V83ZM716.868 44.2L716.506 44.5455L716.514 44.5536L716.868 44.2ZM695.868 42L696.109 42.4382L696.117 42.4335L695.868 42ZM689.568 48.2L689.998 48.454L690.001 48.4492L689.568 48.2ZM687.268 83V83.5H687.768V83H687.268ZM684.068 83H683.568V83.5H684.068V83ZM684.068 8.49999H687.268V7.49999H684.068V8.49999ZM686.768 7.99999V47.3H687.768V7.99999H686.768ZM687.721 47.5114C689.071 44.6186 691.359 42.2232 694.618 40.3325L694.117 39.4675C690.71 41.4434 688.264 43.9814 686.814 47.0886L687.721 47.5114ZM694.621 40.331C697.955 38.3698 701.302 37.4 704.668 37.4V36.4C701.1 36.4 697.58 37.4302 694.114 39.469L694.621 40.331ZM704.668 37.4C710.909 37.4 715.631 39.106 718.911 42.4501L719.625 41.7499C716.104 38.1607 711.093 36.4 704.668 36.4V37.4ZM718.914 42.4536C722.262 45.8013 723.968 50.5588 723.968 56.8H724.968C724.968 50.3745 723.207 45.332 719.621 41.7464L718.914 42.4536ZM723.968 56.8V83H724.968V56.8H723.968ZM724.468 82.5H721.268V83.5H724.468V82.5ZM721.768 83V56.8H720.768V83H721.768ZM721.768 56.8C721.768 51.2444 720.275 46.9005 717.221 43.8464L716.514 44.5536C719.327 47.3662 720.768 51.4222 720.768 56.8H721.768ZM717.229 43.8546C714.244 40.7309 710.032 39.2 704.668 39.2V40.2C709.837 40.2 713.758 41.6691 716.506 44.5454L717.229 43.8546ZM704.668 39.2C701.384 39.2 698.364 39.9878 695.618 41.5665L696.117 42.4335C698.705 40.9455 701.551 40.2 704.668 40.2V39.2ZM695.627 41.5619C692.879 43.0732 690.713 45.2056 689.134 47.9508L690.001 48.4492C691.489 45.8611 693.523 43.8601 696.109 42.4381L695.627 41.5619ZM689.137 47.946C687.556 50.626 686.768 53.5809 686.768 56.8H687.768C687.768 53.7524 688.512 50.974 689.998 48.454L689.137 47.946ZM686.768 56.8V83H687.768V56.8H686.768ZM687.268 82.5H684.068V83.5H687.268V82.5ZM684.568 83V7.99999H683.568V83H684.568ZM745.195 82.9L744.841 83.2536L744.85 83.262L744.859 83.27L745.195 82.9ZM745.195 78L744.859 77.63L744.85 77.638L744.841 77.6464L745.195 78ZM750.095 78L749.741 78.3536L749.75 78.362L749.759 78.37L750.095 78ZM750.095 82.9L749.759 82.53L749.75 82.538L749.741 82.5464L750.095 82.9ZM747.695 83.4C746.894 83.4 746.179 83.1187 745.531 82.53L744.859 83.27C745.678 84.0146 746.629 84.4 747.695 84.4V83.4ZM745.548 82.5464C744.982 81.9797 744.695 81.2763 744.695 80.4H743.695C743.695 81.5237 744.075 82.487 744.841 83.2536L745.548 82.5464ZM744.695 80.4C744.695 79.6008 744.975 78.9275 745.548 78.3536L744.841 77.6464C744.082 78.4058 743.695 79.3326 743.695 80.4H744.695ZM745.531 78.37C746.179 77.7813 746.894 77.5 747.695 77.5V76.5C746.629 76.5 745.678 76.8854 744.859 77.63L745.531 78.37ZM747.695 77.5C748.494 77.5 749.167 77.7796 749.741 78.3536L750.448 77.6464C749.689 76.8871 748.762 76.5 747.695 76.5V77.5ZM749.759 78.37C750.395 78.9485 750.695 79.6171 750.695 80.4H751.695C751.695 79.3163 751.262 78.3849 750.431 77.63L749.759 78.37ZM750.695 80.4C750.695 81.2606 750.387 81.9591 749.759 82.53L750.431 83.27C751.27 82.5076 751.695 81.5394 751.695 80.4H750.695ZM749.741 82.5464C749.167 83.1204 748.494 83.4 747.695 83.4V84.4C748.762 84.4 749.689 84.0129 750.448 83.2536L749.741 82.5464ZM780.162 80.9L779.907 81.3302L779.911 81.3322L780.162 80.9ZM771.562 72.3L771.992 72.0451L771.992 72.0451L771.562 72.3ZM771.562 48.7L771.132 48.4451L771.132 48.4451L771.562 48.7ZM780.162 40.1L779.911 39.6678L779.907 39.6699L780.162 40.1ZM804.162 40.3L803.906 40.7294L803.912 40.7327L804.162 40.3ZM812.562 49L812.115 49.2236L813.062 49H812.562ZM812.562 7.99999V7.49999H812.062V7.99999H812.562ZM815.762 7.99999H816.262V7.49999H815.762V7.99999ZM815.762 83V83.5H816.262V83H815.762ZM812.562 83H812.062V83.5H812.562V83ZM812.562 72.1H813.062V70.1704L812.125 71.8572L812.562 72.1ZM803.862 80.8L803.612 80.3673L803.608 80.3692L803.862 80.8ZM802.262 78.5L802.518 78.9296L802.521 78.928L802.262 78.5ZM809.862 70.9L809.434 70.6414L809.433 70.6441L809.862 70.9ZM809.862 50.3L809.43 50.552L809.434 50.5586L809.862 50.3ZM802.262 42.6L802 43.0255L802.004 43.028L802.262 42.6ZM781.862 42.6L782.118 43.0296L782.125 43.0255L781.862 42.6ZM774.362 50.2L773.93 49.9481L774.362 50.2ZM774.262 70.9L773.826 71.1452L773.833 71.1559L774.262 70.9ZM781.762 78.5L781.499 78.9256L781.51 78.9319L781.762 78.5ZM792.162 83.6C787.915 83.6 784.002 82.5557 780.414 80.4678L779.911 81.3322C783.655 83.5109 787.742 84.6 792.162 84.6V83.6ZM780.417 80.4699C776.889 78.3793 774.083 75.5729 771.992 72.0451L771.132 72.5549C773.308 76.2271 776.235 79.154 779.907 81.3301L780.417 80.4699ZM771.992 72.0451C769.906 68.5238 768.862 64.6788 768.862 60.5H767.862C767.862 64.8545 768.952 68.8762 771.132 72.5549L771.992 72.0451ZM768.862 60.5C768.862 56.3212 769.906 52.4762 771.992 48.9549L771.132 48.4451C768.952 52.1238 767.862 56.1455 767.862 60.5H768.862ZM771.992 48.9549C774.083 45.4271 776.889 42.6207 780.417 40.5301L779.907 39.6699C776.235 41.846 773.308 44.7729 771.132 48.4451L771.992 48.9549ZM780.414 40.5322C784.002 38.4443 787.915 37.4 792.162 37.4V36.4C787.742 36.4 783.655 37.4891 779.911 39.6678L780.414 40.5322ZM792.162 37.4C796.267 37.4 800.179 38.5064 803.906 40.7294L804.418 39.8706C800.545 37.5603 796.457 36.4 792.162 36.4V37.4ZM803.912 40.7327C807.635 42.8884 810.363 45.719 812.115 49.2236L813.009 48.7764C811.162 45.081 808.289 42.1116 804.413 39.8673L803.912 40.7327ZM813.062 49V7.99999H812.062V49H813.062ZM812.562 8.49999H815.762V7.49999H812.562V8.49999ZM815.262 7.99999V83H816.262V7.99999H815.262ZM815.762 82.5H812.562V83.5H815.762V82.5ZM813.062 83V72.1H812.062V83H813.062ZM812.125 71.8572C810.172 75.3729 807.339 78.2094 803.612 80.3673L804.113 81.2327C807.985 78.9906 810.952 76.0271 812.999 72.3428L812.125 71.8572ZM803.608 80.3692C799.947 82.527 796.134 83.6 792.162 83.6V84.6C796.324 84.6 800.311 83.473 804.116 81.2308L803.608 80.3692ZM792.062 81.8C795.818 81.8 799.307 80.8426 802.518 78.9296L802.006 78.0704C798.951 79.8907 795.639 80.8 792.062 80.8V81.8ZM802.521 78.928C805.789 76.9533 808.382 74.3616 810.292 71.1559L809.433 70.6441C807.609 73.7051 805.135 76.18 802.004 78.072L802.521 78.928ZM810.29 71.1586C812.27 67.8822 813.262 64.3597 813.262 60.6H812.262C812.262 64.1737 811.321 67.5178 809.434 70.6414L810.29 71.1586ZM813.262 60.6C813.262 56.8403 812.27 53.3178 810.29 50.0414L809.434 50.5586C811.321 53.6822 812.262 57.0263 812.262 60.6H813.262ZM810.294 50.0481C808.385 46.7751 805.792 44.1482 802.521 42.172L802.004 43.028C805.133 44.9185 807.606 47.4249 809.43 50.5519L810.294 50.0481ZM802.525 42.1745C799.313 40.1927 795.822 39.2 792.062 39.2V40.2C795.636 40.2 798.945 41.1407 802 43.0255L802.525 42.1745ZM792.062 39.2C788.302 39.2 784.811 40.1927 781.6 42.1745L782.125 43.0255C785.179 41.1407 788.489 40.2 792.062 40.2V39.2ZM781.606 42.1704C778.399 44.0812 775.839 46.6761 773.93 49.9481L774.794 50.4519C776.619 47.3239 779.059 44.8522 782.118 43.0295L781.606 42.1704ZM773.93 49.9481C772.019 53.2237 771.062 56.7438 771.062 60.5H772.062C772.062 56.9228 772.971 53.5763 774.794 50.4519L773.93 49.9481ZM771.062 60.5C771.062 64.3177 771.983 67.869 773.826 71.1451L774.698 70.6549C772.941 67.531 772.062 64.149 772.062 60.5H771.062ZM773.833 71.1559C775.741 74.3591 778.298 76.9503 781.5 78.9255L782.025 78.0745C778.959 76.183 776.517 73.7076 774.692 70.6441L773.833 71.1559ZM781.51 78.9319C784.786 80.8427 788.306 81.8 792.062 81.8V80.8C788.485 80.8 785.138 79.8907 782.014 78.0681L781.51 78.9319ZM870.184 78.7L869.935 78.2664L869.935 78.2664L870.184 78.7ZM877.984 71.3H878.484V69.6338L877.567 71.0247L877.984 71.3ZM877.984 76.4L878.355 76.735L878.484 76.5923V76.4H877.984ZM869.884 82.4L870.073 82.8629L870.082 82.859L869.884 82.4ZM848.184 80.9L847.923 81.3267L847.927 81.3287L848.184 80.9ZM839.484 72.1L839.052 72.3515L839.055 72.3572L839.484 72.1ZM839.484 48.4L839.912 48.6584L839.914 48.6549L839.484 48.4ZM848.184 40L847.948 39.5592L847.945 39.5611L848.184 40ZM878.284 45.2L878.635 45.5558L878.973 45.2222L878.657 44.8675L878.284 45.2ZM846.884 76.2L846.533 75.8442L846.137 76.2349L846.567 76.587L846.884 76.2ZM853.284 80.2L853.091 80.6613L853.103 80.6663L853.284 80.2ZM844.984 74.3L844.618 74.6409L844.97 75.0184L845.336 74.6548L844.984 74.3ZM874.284 45.2L874.636 45.5548L875.016 45.1777L874.614 44.8244L874.284 45.2ZM867.884 41.1L867.691 41.5613L867.703 41.5663L867.884 41.1ZM849.584 42.5L849.826 42.9375L849.829 42.9358L849.584 42.5ZM842.184 49.7L841.753 49.4469L842.184 49.7ZM860.284 81.9C863.842 81.9 867.227 80.9752 870.433 79.1336L869.935 78.2664C866.874 80.0248 863.659 80.9 860.284 80.9V81.9ZM870.433 79.1336C873.637 77.2931 876.293 74.7712 878.401 71.5753L877.567 71.0247C875.541 74.0955 872.998 76.5069 869.935 78.2664L870.433 79.1336ZM877.484 71.3V76.4H878.484V71.3H877.484ZM877.613 76.065C875.187 78.7531 872.544 80.7068 869.686 81.941L870.082 82.859C873.091 81.5599 875.848 79.5135 878.355 76.735L877.613 76.065ZM869.695 81.9372C866.831 83.1087 863.564 83.7 859.884 83.7V84.7C863.671 84.7 867.07 84.0913 870.073 82.8628L869.695 81.9372ZM859.884 83.7C855.844 83.7 852.033 82.6263 848.441 80.4713L847.927 81.3287C851.668 83.5737 855.657 84.7 859.884 84.7V83.7ZM848.445 80.4734C844.915 78.316 842.072 75.4412 839.913 71.8428L839.055 72.3572C841.296 76.0921 844.253 79.084 847.923 81.3266L848.445 80.4734ZM839.916 71.8486C837.826 68.2561 836.784 64.4426 836.784 60.4H835.784C835.784 64.6241 836.875 68.6105 839.052 72.3514L839.916 71.8486ZM836.784 60.4C836.784 56.0167 837.83 52.1074 839.912 48.6584L839.056 48.1416C836.872 51.7593 835.784 55.85 835.784 60.4H836.784ZM839.914 48.6549C842.002 45.1321 844.836 42.3958 848.423 40.4389L847.945 39.5611C844.199 41.6042 841.233 44.4679 839.054 48.1451L839.914 48.6549ZM848.42 40.4407C852.076 38.4824 856.127 37.5 860.584 37.5V36.5C855.974 36.5 851.759 37.5176 847.948 39.5593L848.42 40.4407ZM860.584 37.5C867.366 37.5 873.133 40.1657 877.911 45.5325L878.657 44.8675C873.702 39.301 867.669 36.5 860.584 36.5V37.5ZM877.933 44.8442L846.533 75.8442L847.235 76.5558L878.635 45.5558L877.933 44.8442ZM846.567 76.587C848.795 78.4097 850.969 79.7716 853.091 80.6611L853.477 79.7389C851.465 78.8951 849.373 77.5903 847.201 75.813L846.567 76.587ZM853.103 80.6663C855.237 81.4921 857.633 81.9 860.284 81.9V80.9C857.735 80.9 855.465 80.5079 853.464 79.7337L853.103 80.6663ZM838.984 60.1C838.984 65.7558 840.863 70.6121 844.618 74.6409L845.35 73.9591C841.772 70.1212 839.984 65.5109 839.984 60.1H838.984ZM845.336 74.6548L874.636 45.5548L873.932 44.8452L844.632 73.9452L845.336 74.6548ZM874.614 44.8244C872.383 42.8641 870.2 41.4605 868.064 40.6337L867.703 41.5663C869.701 42.3395 871.785 43.6693 873.954 45.5756L874.614 44.8244ZM868.077 40.6389C865.935 39.7405 863.399 39.3 860.484 39.3V40.3C863.302 40.3 865.7 40.7262 867.691 41.5611L868.077 40.6389ZM860.484 39.3C856.341 39.3 852.622 40.2177 849.339 42.0642L849.829 42.9358C852.946 41.1823 856.494 40.3 860.484 40.3V39.3ZM849.342 42.0625C846.131 43.8389 843.598 46.3023 841.753 49.4469L842.615 49.9531C844.369 46.9643 846.771 44.6278 849.826 42.9375L849.342 42.0625ZM841.753 49.4469C839.904 52.5969 838.984 56.1524 838.984 60.1H839.984C839.984 56.3143 840.864 52.9364 842.615 49.9531L841.753 49.4469ZM900.686 82.5L900.478 82.9545L900.488 82.9589L900.686 82.5ZM895.386 78.2H894.886V78.3415L894.96 78.462L895.386 78.2ZM895.386 72.9L895.844 72.6979L894.886 72.9H895.386ZM900.586 79.3L900.318 79.7219L900.327 79.7276L900.586 79.3ZM916.886 78.3L917.24 78.6536L917.246 78.6477L916.886 78.3ZM918.186 64.1L917.784 64.3973L917.791 64.4057L918.186 64.1ZM912.686 59.5L912.945 59.0722L912.937 59.0673L912.686 59.5ZM908.886 57.3L908.626 57.727L908.636 57.7327L908.886 57.3ZM902.686 53.4L902.386 53.8L902.397 53.8083L902.409 53.816L902.686 53.4ZM899.486 50.1L899.063 50.3671L899.07 50.3773L899.486 50.1ZM901.086 39.3L901.412 39.6796L901.412 39.6796L901.086 39.3ZM917.586 39.4H918.086V39.1344L917.866 38.9857L917.586 39.4ZM917.586 43.8L917.187 44.1016L918.086 45.2903V43.8H917.586ZM903.486 41.3L903.174 40.9096L903.174 40.9096L903.486 41.3ZM902.686 49.3L902.278 49.5883L902.282 49.5942L902.286 49.6L902.686 49.3ZM905.986 52.3L905.709 52.7161L905.718 52.7218L905.986 52.3ZM913.186 56.5L913.433 56.0653L913.431 56.0637L913.186 56.5ZM920.686 62.5L920.291 62.8061L920.296 62.8123L920.686 62.5ZM918.986 80.4L919.326 80.767L919.326 80.7667L918.986 80.4ZM909.186 83.6C906.042 83.6 903.278 83.076 900.885 82.0411L900.488 82.9589C903.028 84.0573 905.931 84.6 909.186 84.6V83.6ZM900.895 82.0457C898.489 80.9401 896.812 79.5633 895.812 77.938L894.96 78.462C896.094 80.3034 897.951 81.7933 900.478 82.9543L900.895 82.0457ZM895.886 78.2V72.9H894.886V78.2H895.886ZM894.929 73.1021C896.227 76.0406 898.019 78.2589 900.318 79.7218L900.855 78.8782C898.754 77.5411 897.079 75.4928 895.844 72.6979L894.929 73.1021ZM900.327 79.7276C902.627 81.1212 905.524 81.8 908.986 81.8V80.8C905.649 80.8 902.946 80.1455 900.845 78.8724L900.327 79.7276ZM908.986 81.8C912.363 81.8 915.131 80.762 917.24 78.6536L916.533 77.9464C914.641 79.838 912.143 80.8 908.986 80.8V81.8ZM917.246 78.6477C919.346 76.4769 920.386 73.7138 920.386 70.4H919.386C919.386 73.4862 918.426 75.9897 916.527 77.9523L917.246 78.6477ZM920.386 70.4C920.386 67.6065 919.808 65.3814 918.582 63.7943L917.791 64.4057C918.831 65.7519 919.386 67.7269 919.386 70.4H920.386ZM918.588 63.8028C917.401 62.1962 915.507 60.6227 912.945 59.0722L912.427 59.9277C914.933 61.444 916.705 62.9371 917.784 64.3972L918.588 63.8028ZM912.937 59.0673L909.137 56.8673L908.636 57.7327L912.436 59.9327L912.937 59.0673ZM909.147 56.8731C906.415 55.2074 904.355 53.9116 902.964 52.984L902.409 53.816C903.818 54.7551 905.891 56.0592 908.626 57.7269L909.147 56.8731ZM902.986 53C901.691 52.0288 900.666 50.9688 899.902 49.8226L899.07 50.3773C899.906 51.6312 901.015 52.7712 902.386 53.8L902.986 53ZM899.909 49.833C899.165 48.655 898.786 47.2831 898.786 45.7H897.786C897.786 47.4502 898.208 49.0116 899.064 50.367L899.909 49.833ZM898.786 45.7C898.786 43.1653 899.666 41.1759 901.412 39.6796L900.761 38.9204C898.773 40.6241 897.786 42.9013 897.786 45.7H898.786ZM901.412 39.6796C903.169 38.1734 905.478 37.4 908.386 37.4V36.4C905.294 36.4 902.737 37.2266 900.761 38.9204L901.412 39.6796ZM908.386 37.4C911.977 37.4 914.94 38.2152 917.306 39.8143L917.866 38.9857C915.3 37.2514 912.129 36.4 908.386 36.4V37.4ZM917.086 39.4V43.8H918.086V39.4H917.086ZM917.985 43.4984C915.811 40.6228 912.687 39.2 908.686 39.2V40.2C912.419 40.2 915.228 41.5105 917.187 44.1016L917.985 43.4984ZM908.686 39.2C906.468 39.2 904.616 39.7558 903.174 40.9096L903.799 41.6904C905.023 40.7109 906.638 40.2 908.686 40.2V39.2ZM903.174 40.9096C901.725 42.0684 900.986 43.5772 900.986 45.4H901.986C901.986 43.8895 902.581 42.6649 903.799 41.6904L903.174 40.9096ZM900.986 45.4C900.986 46.9637 901.415 48.3657 902.278 49.5883L903.095 49.0117C902.358 47.9677 901.986 46.7697 901.986 45.4H900.986ZM902.286 49.6C903.128 50.7221 904.274 51.7591 905.709 52.716L906.264 51.884C904.899 50.9742 903.845 50.0112 903.086 49L902.286 49.6ZM905.718 52.7218C907.197 53.6633 909.608 55.0691 912.942 56.9363L913.431 56.0637C910.098 54.1976 907.709 52.8034 906.255 51.8782L905.718 52.7218ZM912.939 56.9346C916.308 58.85 918.746 60.8109 920.291 62.8061L921.082 62.1939C919.426 60.0558 916.865 58.0166 913.433 56.0654L912.939 56.9346ZM920.296 62.8123C921.807 64.7017 922.586 67.2151 922.586 70.4H923.586C923.586 67.0516 922.765 64.2983 921.077 62.1877L920.296 62.8123ZM922.586 70.4C922.586 74.411 921.266 77.6054 918.646 80.0333L919.326 80.7667C922.173 78.1279 923.586 74.6557 923.586 70.4H922.586ZM918.647 80.033C916.079 82.4083 912.936 83.6 909.186 83.6V84.6C913.17 84.6 916.56 83.325 919.326 80.767L918.647 80.033ZM944.452 26.7L944.098 27.0536L944.107 27.062L944.116 27.07L944.452 26.7ZM944.452 21.8L944.116 21.43L944.107 21.438L944.098 21.4464L944.452 21.8ZM949.352 21.8L948.998 22.1535L949.007 22.162L949.016 22.17L949.352 21.8ZM949.352 26.7L949.016 26.33L949.007 26.338L948.998 26.3464L949.352 26.7ZM945.352 38V37.5H944.852V38H945.352ZM948.552 38H949.052V37.5H948.552V38ZM948.552 83V83.5H949.052V83H948.552ZM945.352 83H944.852V83.5H945.352V83ZM946.952 27.2C946.151 27.2 945.436 26.9187 944.788 26.33L944.116 27.07C944.935 27.8146 945.886 28.2 946.952 28.2V27.2ZM944.806 26.3464C944.239 25.7797 943.952 25.0763 943.952 24.2H942.952C942.952 25.3237 943.332 26.287 944.098 27.0536L944.806 26.3464ZM943.952 24.2C943.952 23.4008 944.232 22.7275 944.806 22.1535L944.098 21.4464C943.339 22.2058 942.952 23.1325 942.952 24.2H943.952ZM944.788 22.17C945.436 21.5813 946.151 21.3 946.952 21.3V20.3C945.886 20.3 944.935 20.6854 944.116 21.43L944.788 22.17ZM946.952 21.3C947.751 21.3 948.424 21.5796 948.998 22.1535L949.706 21.4464C948.946 20.6871 948.019 20.3 946.952 20.3V21.3ZM949.016 22.17C949.652 22.7485 949.952 23.4171 949.952 24.2H950.952C950.952 23.1163 950.519 22.1848 949.688 21.43L949.016 22.17ZM949.952 24.2C949.952 25.0606 949.644 25.7591 949.016 26.33L949.688 27.07C950.527 26.3076 950.952 25.3394 950.952 24.2H949.952ZM948.998 26.3464C948.424 26.9204 947.751 27.2 946.952 27.2V28.2C948.019 28.2 948.946 27.8129 949.706 27.0536L948.998 26.3464ZM945.352 38.5H948.552V37.5H945.352V38.5ZM948.052 38V83H949.052V38H948.052ZM948.552 82.5H945.352V83.5H948.552V82.5ZM945.852 83V38H944.852V83H945.852ZM984.062 101.2L983.845 101.651L983.845 101.651L984.062 101.2ZM975.662 94.4H975.162V94.5602L975.255 94.6906L975.662 94.4ZM975.662 89.8L976.102 89.5619L975.162 89.8H975.662ZM983.762 97.8L983.511 98.2322L983.514 98.2341L983.762 97.8ZM1009.96 95.3L1009.6 94.9598L1009.59 94.963L1009.96 95.3ZM1015.16 72.1H1015.66L1014.71 71.8764L1015.16 72.1ZM1006.66 80.9L1006.91 81.3327L1006.91 81.3313L1006.66 80.9ZM982.762 81L982.511 81.4322L982.511 81.4322L982.762 81ZM974.062 72.4L973.63 72.6515L973.632 72.6549L974.062 72.4ZM974.062 48.9L974.492 49.1549L974.494 49.1514L974.062 48.9ZM982.762 40.2L982.511 39.7678L982.511 39.7678L982.762 40.2ZM1015.16 49.2L1014.71 49.4171L1015.66 49.2H1015.16ZM1015.16 38V37.5H1014.66V38H1015.16ZM1018.36 38H1018.86V37.5H1018.36V38ZM1012.36 97.4L1012 97.0551L1011.99 97.0611L1012.36 97.4ZM1005.06 78.6L1005.32 79.0296L1005.32 79.0255L1005.06 78.6ZM1012.46 71L1012.03 70.7481L1012.03 70.7509L1012.46 71ZM1012.46 50.3L1012.03 50.5452L1012.03 50.5559L1012.46 50.3ZM1005.06 42.7L1004.8 43.1256L1004.81 43.1295L1005.06 42.7ZM984.462 42.7L984.718 43.1296L984.721 43.128L984.462 42.7ZM976.862 50.3L976.434 50.0414L976.433 50.0441L976.862 50.3ZM976.862 71L976.43 71.252L976.437 71.2626L976.862 71ZM984.462 78.6L984.199 79.0256L984.21 79.0319L984.462 78.6ZM995.162 103.3C991.441 103.3 987.815 102.452 984.279 100.75L983.845 101.651C987.509 103.415 991.283 104.3 995.162 104.3V103.3ZM984.279 100.75C980.742 99.0467 978.013 96.8307 976.069 94.1094L975.255 94.6906C977.311 97.5693 980.182 99.8866 983.845 101.651L984.279 100.75ZM976.162 94.4V89.8H975.162V94.4H976.162ZM975.222 90.0381C977.006 93.3314 979.778 96.0604 983.511 98.2322L984.014 97.3678C980.413 95.2729 977.785 92.6686 976.102 89.5619L975.222 90.0381ZM983.514 98.2341C987.314 100.406 991.199 101.5 995.162 101.5V100.5C991.392 100.5 987.677 99.461 984.01 97.3659L983.514 98.2341ZM995.162 101.5C1001.67 101.5 1006.75 99.5653 1010.33 95.637L1009.59 94.963C1006.24 98.6348 1001.46 100.5 995.162 100.5V101.5ZM1010.33 95.6402C1013.91 91.7815 1015.66 86.1392 1015.66 78.8H1014.66C1014.66 85.9941 1012.95 91.3519 1009.6 94.9598L1010.33 95.6402ZM1015.66 78.8V72.1H1014.66V78.8H1015.66ZM1014.71 71.8764C1012.96 75.3801 1010.2 78.2452 1006.41 80.4687L1006.91 81.3313C1010.86 79.0215 1013.76 76.0199 1015.61 72.3236L1014.71 71.8764ZM1006.41 80.4673C1002.68 82.6253 998.77 83.7 994.662 83.7V84.7C998.954 84.7 1003.04 83.5747 1006.91 81.3327L1006.41 80.4673ZM994.662 83.7C990.483 83.7 986.603 82.6565 983.014 80.5678L982.511 81.4322C986.254 83.6102 990.308 84.7 994.662 84.7V83.7ZM983.014 80.5678C979.42 78.4768 976.581 75.6707 974.492 72.1451L973.632 72.6549C975.809 76.3293 978.771 79.2566 982.511 81.4322L983.014 80.5678ZM974.494 72.1486C972.405 68.5574 971.362 64.7107 971.362 60.6H970.362C970.362 64.8893 971.453 68.9092 973.63 72.6514L974.494 72.1486ZM971.362 60.6C971.362 56.4893 972.405 52.6774 974.492 49.1549L973.632 48.6451C971.453 52.3226 970.362 56.3107 970.362 60.6H971.362ZM974.494 49.1514C976.584 45.5597 979.422 42.7219 983.014 40.6322L982.511 39.7678C978.769 41.9447 975.807 44.907 973.63 48.6486L974.494 49.1514ZM983.014 40.6322C986.603 38.5435 990.483 37.5 994.662 37.5V36.5C990.308 36.5 986.254 37.5898 982.511 39.7678L983.014 40.6322ZM994.662 37.5C998.974 37.5 1002.95 38.5768 1006.61 40.7308L1007.12 39.8692C1003.3 37.6232 999.15 36.5 994.662 36.5V37.5ZM1006.61 40.7308C1010.26 42.883 1012.96 45.7771 1014.71 49.4171L1015.61 48.9828C1013.77 45.1562 1010.93 42.117 1007.12 39.8692L1006.61 40.7308ZM1015.66 49.2V38H1014.66V49.2H1015.66ZM1015.16 38.5H1018.36V37.5H1015.16V38.5ZM1017.86 38V78.8H1018.86V38H1017.86ZM1017.86 78.8C1017.86 86.9249 1015.88 92.9807 1012 97.0552L1012.72 97.7448C1016.84 93.4193 1018.86 87.0751 1018.86 78.8H1017.86ZM1011.99 97.0611C1008.18 101.197 1002.6 103.3 995.162 103.3V104.3C1002.79 104.3 1008.68 102.137 1012.73 97.7389L1011.99 97.0611ZM994.862 81.9C998.618 81.9 1002.11 80.9426 1005.32 79.0296L1004.81 78.1704C1001.75 79.9907 998.439 80.9 994.862 80.9V81.9ZM1005.32 79.0255C1008.53 77.0494 1011.05 74.4559 1012.9 71.2491L1012.03 70.7509C1010.27 73.8107 1007.86 76.284 1004.8 78.1745L1005.32 79.0255ZM1012.89 71.2519C1014.81 67.9748 1015.76 64.4211 1015.76 60.6H1014.76C1014.76 64.2455 1013.85 67.6252 1012.03 70.7481L1012.89 71.2519ZM1015.76 60.6C1015.76 56.7788 1014.81 53.2567 1012.89 50.0441L1012.03 50.5559C1013.85 53.6099 1014.76 56.9545 1014.76 60.6H1015.76ZM1012.9 50.0549C1011.06 46.7793 1008.53 44.1821 1005.32 42.2704L1004.81 43.1295C1007.86 44.9512 1010.27 47.4207 1012.03 50.5451L1012.9 50.0549ZM1005.32 42.2745C1002.11 40.2927 998.622 39.3 994.862 39.3V40.3C998.436 40.3 1001.74 41.2407 1004.8 43.1255L1005.32 42.2745ZM994.862 39.3C991.037 39.3 987.481 40.2916 984.204 42.272L984.721 43.128C987.843 41.2417 991.22 40.3 994.862 40.3V39.3ZM984.206 42.2704C981.001 44.1802 978.409 46.773 976.434 50.0414L977.29 50.5586C979.182 47.427 981.657 44.9531 984.718 43.1295L984.206 42.2704ZM976.433 50.0441C974.519 53.2567 973.562 56.7788 973.562 60.6H974.562C974.562 56.9545 975.472 53.6099 977.292 50.5559L976.433 50.0441ZM973.562 60.6C973.562 64.4211 974.519 67.9748 976.43 71.2519L977.294 70.7481C975.472 67.6252 974.562 64.2455 974.562 60.6H973.562ZM976.437 71.2626C978.411 74.4622 981 77.0513 984.2 79.0255L984.725 78.1745C981.658 76.282 979.18 73.8045 977.288 70.7374L976.437 71.2626ZM984.21 79.0319C987.487 80.9435 991.041 81.9 994.862 81.9V80.9C991.217 80.9 987.837 79.9898 984.714 78.1681L984.21 79.0319ZM1040.98 38V37.5H1040.48V38H1040.98ZM1044.18 38H1044.68V37.5H1044.18V38ZM1044.18 48H1043.68L1044.64 48.2014L1044.18 48ZM1051.68 40L1051.93 40.4352L1051.93 40.4316L1051.68 40ZM1076.48 42.2L1076.11 42.5357L1076.12 42.5429L1076.48 42.2ZM1081.38 83V83.5H1081.88V83H1081.38ZM1078.18 83H1077.68V83.5H1078.18V83ZM1074.18 44.2L1073.8 44.5275L1073.81 44.5322L1074.18 44.2ZM1053.58 42.1L1053.82 42.5409L1053.82 42.5389L1053.58 42.1ZM1046.68 48.5L1046.26 48.2322L1046.25 48.2397L1046.68 48.5ZM1044.18 83V83.5H1044.68V83H1044.18ZM1040.98 83H1040.48V83.5H1040.98V83ZM1040.98 38.5H1044.18V37.5H1040.98V38.5ZM1043.68 38V48H1044.68V38H1043.68ZM1044.64 48.2014C1046.06 44.978 1048.48 42.3884 1051.93 40.4351L1051.44 39.5649C1047.82 41.6116 1045.24 44.3553 1043.72 47.7986L1044.64 48.2014ZM1051.93 40.4316C1055.39 38.4117 1059.2 37.4 1063.38 37.4V36.4C1059.03 36.4 1055.04 37.455 1051.43 39.5684L1051.93 40.4316ZM1063.38 37.4C1068.8 37.4 1073.02 39.1241 1076.11 42.5356L1076.85 41.8644C1073.54 38.2092 1069.03 36.4 1063.38 36.4V37.4ZM1076.12 42.5429C1079.27 45.8905 1080.88 50.6194 1080.88 56.8H1081.88C1081.88 50.4472 1080.22 45.4428 1076.85 41.8571L1076.12 42.5429ZM1080.88 56.8V83H1081.88V56.8H1080.88ZM1081.38 82.5H1078.18V83.5H1081.38V82.5ZM1078.68 83V56.8H1077.68V83H1078.68ZM1078.68 56.8C1078.68 51.3203 1077.33 46.9869 1074.56 43.8678L1073.81 44.5322C1076.37 47.4131 1077.68 51.4797 1077.68 56.8H1078.68ZM1074.56 43.8725C1071.85 40.7418 1068.03 39.2 1063.18 39.2V40.2C1067.8 40.2 1071.32 41.6582 1073.8 44.5275L1074.56 43.8725ZM1063.18 39.2C1059.63 39.2 1056.35 40.0195 1053.34 41.6611L1053.82 42.5389C1056.68 40.9805 1059.8 40.2 1063.18 40.2V39.2ZM1053.35 41.6591C1050.4 43.2329 1048.04 45.4257 1046.26 48.2322L1047.1 48.7678C1048.79 46.1076 1051.03 44.0337 1053.82 42.5409L1053.35 41.6591ZM1046.25 48.2397C1044.54 51.0579 1043.68 54.2494 1043.68 57.8H1044.68C1044.68 54.4173 1045.49 51.4088 1047.11 48.7603L1046.25 48.2397ZM1043.68 57.8V83H1044.68V57.8H1043.68ZM1044.18 82.5H1040.98V83.5H1044.18V82.5ZM1041.48 83V38H1040.48V83H1041.48Z" fill="#FF0000"/>
</g>
</g>
<defs>
<filter id="filter0_d" x="-4" y="0" width="1106" height="134" filterUnits="userSpaceOnUse" color-interpolation-filters="sRGB">
<feFlood flood-opacity="0" result="BackgroundImageFix"/>
<feColorMatrix in="SourceAlpha" type="matrix" values="0 0 0 0 0 0 0 0 0 0 0 0 0 0 0 0 0 0 127 0"/>
<feOffset dy="4"/>
<feGaussianBlur stdDeviation="2"/>
<feColorMatrix type="matrix" values="0 0 0 0 0 0 0 0 0 0 0 0 0 0 0 0 0 0 0.25 0"/>
<feBlend mode="normal" in2="BackgroundImageFix" result="effect1_dropShadow"/>
<feBlend mode="normal" in="SourceGraphic" in2="effect1_dropShadow" result="shape"/>
</filter>
<filter id="filter1_d" x="10.491" y="6.20001" width="1086.39" height="118.1" filterUnits="userSpaceOnUse" color-interpolation-filters="sRGB">
<feFlood flood-opacity="0" result="BackgroundImageFix"/>
<feColorMatrix in="SourceAlpha" type="matrix" values="0 0 0 0 0 0 0 0 0 0 0 0 0 0 0 0 0 0 127 0"/>
<feOffset dx="5" dy="10"/>
<feGaussianBlur stdDeviation="5"/>
<feColorMatrix type="matrix" values="0 0 0 0 0 0 0 0 0 0 0 0 0 0 0 0 0 0 1 0"/>
<feBlend mode="normal" in2="BackgroundImageFix" result="effect1_dropShadow"/>
<feBlend mode="normal" in="SourceGraphic" in2="effect1_dropShadow" result="shape"/>
</filter>
</defs>
</svg>
