<svg width="1039" height="151" viewBox="0 0 1039 151" fill="none" xmlns="http://www.w3.org/2000/svg">
<g filter="url(#filter0_d)">
<path d="M97.1954 54.2L97.1955 51.4C101.929 51.4 105.962 52.9667 109.295 56.1C112.628 59.3 114.295 63.3667 114.295 68.3L114.292 115.1H111.092L111.093 96.9H97.293L97.2931 94.1H111.093L111.095 68.3C111.095 64.2333 109.762 60.8667 107.095 58.2C104.362 55.5333 101.062 54.2 97.1954 54.2Z" fill="#FF0000"/>
<path d="M97.1954 54.2H96.1954L96.1953 55.2H97.1953L97.1954 54.2ZM97.1955 51.4L97.1956 50.4H96.1956L96.1955 51.4H97.1955ZM109.295 56.1L109.988 55.3786L109.98 55.3714L109.295 56.1ZM114.292 115.1L114.292 116.1H115.292L115.292 115.1H114.292ZM111.092 115.1H110.092L110.092 116.1H111.092L111.092 115.1ZM111.093 96.9H112.093L112.093 95.9H111.093L111.093 96.9ZM97.293 96.9H96.293L96.2929 97.9H97.2929L97.293 96.9ZM97.2931 94.1L97.2932 93.1H96.2932L96.2931 94.1H97.2931ZM111.093 94.1L111.093 95.1H112.093L112.093 94.1H111.093ZM107.095 58.2L107.802 57.4928L107.794 57.4842L107.095 58.2ZM98.1954 54.2L98.1955 51.4H96.1955L96.1954 54.2H98.1954ZM97.1955 52.4C101.684 52.4 105.47 53.8762 108.61 56.8286L109.98 55.3714C106.455 52.0571 102.174 50.4 97.1956 50.4L97.1955 52.4ZM108.603 56.8214C111.725 59.819 113.295 63.6184 113.295 68.3H115.295C115.295 63.1149 113.532 58.781 109.988 55.3786L108.603 56.8214ZM113.295 68.3L113.292 115.1H115.292L115.295 68.3H113.295ZM114.292 114.1H111.092L111.092 116.1H114.292L114.292 114.1ZM112.092 115.1L112.093 96.9H110.093L110.092 115.1H112.092ZM111.093 95.9H97.293L97.2929 97.9H111.093L111.093 95.9ZM98.293 96.9L98.2931 94.1H96.2931L96.293 96.9H98.293ZM97.2931 95.1H111.093L111.093 93.1H97.2932L97.2931 95.1ZM112.093 94.1L112.095 68.3H110.095L110.093 94.1H112.093ZM112.095 68.3C112.095 63.9911 110.672 60.3627 107.802 57.4929L106.388 58.9071C108.851 61.3706 110.095 64.4756 110.095 68.3H112.095ZM107.794 57.4842C104.871 54.6328 101.319 53.2 97.1954 53.2L97.1953 55.2C100.805 55.2 103.853 56.4339 106.397 58.9158L107.794 57.4842Z" fill="#FF0000"/>
</g>
<g filter="url(#filter1_d)">
<path d="M34.8742 69.6C33.1409 69.6 31.6076 70.1667 30.2742 71.3C28.9409 72.4333 28.2742 73.8333 28.2742 75.5C28.2742 77.1667 29.0076 78.7 30.4742 80.1C32.0076 81.5 33.8076 82.8 35.8742 84C38.0076 85.1333 40.1409 86.3667 42.2742 87.7C44.4076 89.0333 46.2076 90.7333 47.6742 92.8C49.2076 94.8667 49.9742 97.2333 49.9742 99.9C49.9742 103.833 48.4742 107.2 45.4742 110C42.5409 112.733 38.9742 114.1 34.7742 114.1C32.1076 114.1 29.6076 113.533 27.2742 112.4C25.0076 111.2 23.3409 109.633 22.2742 107.7V102.9C24.8076 108.5 28.8742 111.3 34.4742 111.3C37.9409 111.3 40.8409 110.233 43.1742 108.1C45.5742 105.967 46.7742 103.6 46.7742 101C46.7742 98.3333 46.0076 96.1 44.4742 94.3C43.0076 92.5 41.2076 90.9667 39.0742 89.7C36.9409 88.4333 34.8076 87.2 32.6742 86C30.6076 84.7333 28.8076 83.2333 27.2742 81.5C25.8076 79.7 25.0742 77.6333 25.0742 75.3C25.0742 72.9 26.0076 70.9 27.8742 69.3C29.8076 67.6333 32.2742 66.8 35.2742 66.8C38.2742 66.8 40.8409 67.9667 42.9742 70.3V74.4C40.8409 71.2 38.1409 69.6 34.8742 69.6ZM178.91 68.1V113H175.71V68.1H178.91ZM177.31 57.1C175.377 57.1 174.41 56.2 174.41 54.4C174.41 52.6 175.377 51.7 177.31 51.7C179.243 51.7 180.21 52.6 180.21 54.4C180.21 56.2 179.243 57.1 177.31 57.1ZM249.284 111.1V113.9C244.55 113.9 240.517 112.333 237.184 109.2C233.85 106 232.184 101.933 232.184 97V38H235.384V97C235.384 101.067 236.717 104.433 239.384 107.1C242.117 109.767 245.417 111.1 249.284 111.1ZM297.281 113V38H300.481V79C302.281 75.3333 305.081 72.4 308.881 70.2C312.748 68 316.748 66.9 320.881 66.9C327.481 66.9 333.081 69.2333 337.681 73.9C342.348 78.5 344.681 84.0333 344.681 90.5C344.681 96.9667 342.348 102.533 337.681 107.2C333.081 111.8 327.481 114.1 320.881 114.1C316.881 114.1 312.981 113.033 309.181 110.9C305.381 108.7 302.481 105.767 300.481 102.1V113H297.281ZM300.281 90.6C300.281 96.2 302.315 101.067 306.381 105.2C310.515 109.267 315.381 111.3 320.981 111.3C326.648 111.3 331.481 109.267 335.481 105.2C339.481 101.067 341.481 96.2 341.481 90.6C341.481 84.9333 339.448 80.0333 335.381 75.9C331.381 71.7667 326.581 69.7 320.981 69.7C315.381 69.7 310.515 71.8 306.381 76C302.315 80.1333 300.281 85 300.281 90.6ZM420.515 74.1C417.582 71.1667 414.348 69.7 410.815 69.7C407.282 69.7 404.148 71.0333 401.415 73.7C398.748 76.3667 397.415 79.4667 397.415 83V113H394.215V68H397.415V74.7C398.615 72.4333 400.482 70.5667 403.015 69.1C405.548 67.6333 408.382 66.9 411.515 66.9C414.648 66.9 417.648 67.9667 420.515 70.1V74.1ZM505.18 68H508.38V113H505.18V103.9C501.78 110.7 495.98 114.1 487.78 114.1C482.18 114.1 477.48 112.167 473.68 108.3C469.88 104.433 467.98 99.7333 467.98 94.2V68H471.18V94.2C471.18 98.8 472.78 102.8 475.98 106.2C479.247 109.6 483.18 111.3 487.78 111.3C492.38 111.3 496.414 109.6 499.88 106.2C503.414 102.8 505.18 98.8 505.18 94.2V68ZM581.171 114.3H580.271C573.871 114.3 568.371 111.933 563.771 107.2C559.171 102.467 556.871 96.9333 556.871 90.6C556.871 84.2 559.204 78.7 563.871 74.1C568.538 69.4333 574.271 67.1 581.071 67.1C587.871 67.1 593.671 69.6667 598.471 74.8V79.9C596.404 76.8333 593.771 74.4 590.571 72.6C587.438 70.8 584.138 69.9 580.671 69.9C575.138 69.9 570.304 71.9667 566.171 76.1C562.104 80.1667 560.071 85.0333 560.071 90.7C560.071 96.3667 562.104 101.267 566.171 105.4C570.304 109.467 575.138 111.5 580.671 111.5C584.138 111.5 587.438 110.6 590.571 108.8C593.771 107 596.404 104.533 598.471 101.4V106.6C593.804 111.733 588.038 114.3 581.171 114.3ZM650.13 113H646.93V38.1H650.13V76.7C653.463 70.1667 659.23 66.9 667.43 66.9C673.03 66.9 677.73 68.8333 681.53 72.7C685.396 76.5667 687.33 81.2667 687.33 86.8V113H684.13V86.8C684.13 82.1333 682.496 78.1333 679.23 74.8C675.963 71.4 672.03 69.7 667.43 69.7C662.83 69.7 658.796 71.4 655.33 74.8C651.863 78.2 650.13 82.2 650.13 86.8V113ZM739.197 113.7C736.93 113.7 735.797 112.667 735.797 110.6C735.797 108.533 736.93 107.5 739.197 107.5C741.53 107.5 742.697 108.533 742.697 110.6C742.697 112.667 741.53 113.7 739.197 113.7ZM837.064 38V113H833.864V102.1C831.864 105.767 828.964 108.7 825.164 110.9C821.364 113.033 817.464 114.1 813.464 114.1C806.864 114.1 801.231 111.8 796.564 107.2C791.964 102.533 789.664 96.9667 789.664 90.5C789.664 84.0333 791.964 78.5 796.564 73.9C801.231 69.2333 806.864 66.9 813.464 66.9C817.597 66.9 821.564 68 825.364 70.2C829.231 72.4 832.064 75.3333 833.864 79V38H837.064ZM792.864 90.6C792.864 96.2 794.864 101.067 798.864 105.2C802.864 109.267 807.664 111.3 813.264 111.3C818.931 111.3 823.797 109.267 827.864 105.2C831.997 101.067 834.064 96.2 834.064 90.6C834.064 85 831.997 80.1333 827.864 76C823.797 71.8 818.964 69.7 813.364 69.7C807.764 69.7 802.931 71.7667 798.864 75.9C794.864 80.0333 792.864 84.9333 792.864 90.6ZM911.598 114.2H910.698C904.364 114.2 898.831 111.833 894.098 107.1C889.431 102.3 887.098 96.7333 887.098 90.4C887.098 84.0667 889.431 78.6 894.098 74C898.764 69.3333 904.531 67 911.398 67C918.264 67 924.164 69.7333 929.098 75.2L897.698 106.2C902.031 109.667 906.198 111.4 910.198 111.4C914.198 111.4 917.764 110.5 920.898 108.7C924.098 106.833 926.731 104.367 928.798 101.3V106.4C924.064 111.6 918.331 114.2 911.598 114.2ZM910.498 69.8C905.231 69.8 900.531 71.8667 896.398 76C892.331 80.0667 890.298 84.7667 890.298 90.1C890.298 95.4333 892.064 100.1 895.598 104.1L924.698 75.2C920.564 71.6 915.831 69.8 910.498 69.8ZM1016.51 68H1019.41L997.309 114.3L975.109 68H978.609L997.609 107.5L1016.51 68Z" fill="#FF0000"/>
<path d="M30.2742 71.3L29.6266 70.5381L29.6266 70.5381L30.2742 71.3ZM30.4742 80.1L29.7837 80.8234L29.7918 80.831L29.8 80.8385L30.4742 80.1ZM35.8742 84L35.3721 84.8648L35.3884 84.8743L35.4051 84.8831L35.8742 84ZM42.2742 87.7L42.8042 86.852L42.8042 86.852L42.2742 87.7ZM47.6742 92.8L46.8587 93.3787L46.8648 93.3874L46.8711 93.3958L47.6742 92.8ZM45.4742 110L46.1559 110.732L46.1565 110.731L45.4742 110ZM27.2742 112.4L26.8063 113.284L26.8217 113.292L26.8373 113.3L27.2742 112.4ZM22.2742 107.7H21.2742V107.958L21.3986 108.183L22.2742 107.7ZM22.2742 102.9L23.1853 102.488L21.2742 102.9H22.2742ZM43.1742 108.1L42.5098 107.353L42.4995 107.362L43.1742 108.1ZM44.4742 94.3L43.699 94.9317L43.7059 94.9401L43.713 94.9485L44.4742 94.3ZM39.0742 89.7L38.5637 90.5599L38.5637 90.5599L39.0742 89.7ZM32.6742 86L32.1517 86.8526L32.1676 86.8624L32.184 86.8716L32.6742 86ZM27.2742 81.5L26.499 82.1317L26.5118 82.1474L26.5252 82.1626L27.2742 81.5ZM27.8742 69.3L28.525 70.0593L28.5272 70.0574L27.8742 69.3ZM42.9742 70.3H43.9742V69.9118L43.7122 69.6252L42.9742 70.3ZM42.9742 74.4L42.1422 74.9547L43.9742 77.7028V74.4H42.9742ZM34.8742 68.6C32.9011 68.6 31.1388 69.2527 29.6266 70.5381L30.9219 72.0619C32.0763 71.0807 33.3807 70.6 34.8742 70.6V68.6ZM29.6266 70.5381C28.0825 71.8505 27.2742 73.5236 27.2742 75.5H29.2742C29.2742 74.1431 29.7993 73.0161 30.9219 72.0619L29.6266 70.5381ZM27.2742 75.5C27.2742 77.4976 28.1654 79.2785 29.7837 80.8234L31.1647 79.3766C29.8498 78.1215 29.2742 76.8358 29.2742 75.5H27.2742ZM29.8 80.8385C31.3932 82.2932 33.2527 83.6342 35.3721 84.8648L36.3764 83.1352C34.3624 81.9658 32.6219 80.7068 31.1485 79.3615L29.8 80.8385ZM35.4051 84.8831C37.5169 86.005 39.6299 87.2266 41.7442 88.548L42.8042 86.852C40.6518 85.5068 38.4982 84.2616 36.3434 83.1169L35.4051 84.8831ZM41.7442 88.548C43.7647 89.8108 45.4679 91.419 46.8587 93.3787L48.4897 92.2213C46.9472 90.0477 45.0504 88.2559 42.8042 86.852L41.7442 88.548ZM46.8711 93.3958C48.2717 95.2836 48.9742 97.4396 48.9742 99.9H50.9742C50.9742 97.0271 50.1434 94.4497 48.4773 92.2042L46.8711 93.3958ZM48.9742 99.9C48.9742 103.543 47.5992 106.649 44.7919 109.269L46.1565 110.731C49.3493 107.751 50.9742 104.124 50.9742 99.9H48.9742ZM44.7925 109.268C42.0537 111.82 38.7345 113.1 34.7742 113.1V115.1C39.214 115.1 43.028 113.646 46.1559 110.732L44.7925 109.268ZM34.7742 113.1C32.2545 113.1 29.9044 112.566 27.7111 111.5L26.8373 113.3C29.3107 114.501 31.9606 115.1 34.7742 115.1V113.1ZM27.7421 111.516C25.619 110.392 24.108 108.954 23.1498 107.217L21.3986 108.183C22.5737 110.313 24.3961 112.008 26.8063 113.284L27.7421 111.516ZM23.2742 107.7V102.9H21.2742V107.7H23.2742ZM21.3631 103.312C22.6866 106.238 24.4411 108.498 26.6571 110.024C28.879 111.553 31.4998 112.3 34.4742 112.3V110.3C31.8486 110.3 29.6361 109.647 27.7913 108.376C25.9407 107.102 24.3952 105.162 23.1853 102.488L21.3631 103.312ZM34.4742 112.3C38.1645 112.3 41.3129 111.157 43.849 108.838L42.4995 107.362C40.3689 109.31 37.7173 110.3 34.4742 110.3V112.3ZM43.8386 108.847C46.3978 106.573 47.7742 103.951 47.7742 101H45.7742C45.7742 103.249 44.7506 105.361 42.5099 107.353L43.8386 108.847ZM47.7742 101C47.7742 98.128 46.9427 95.6556 45.2355 93.6515L43.713 94.9485C45.0724 96.5444 45.7742 98.5386 45.7742 101H47.7742ZM45.2495 93.6683C43.7037 91.7712 41.8121 90.1626 39.5848 88.8401L38.5637 90.5599C40.603 91.7707 42.3114 93.2288 43.699 94.9317L45.2495 93.6683ZM39.5848 88.8401C37.4448 87.5695 35.3047 86.3323 33.1645 85.1284L32.184 86.8716C34.3104 88.0677 36.437 89.2971 38.5637 90.5599L39.5848 88.8401ZM33.1968 85.1474C31.2106 83.93 29.4878 82.4931 28.0232 80.8374L26.5252 82.1626C28.1273 83.9736 30.0045 85.5366 32.1517 86.8526L33.1968 85.1474ZM28.0495 80.8683C26.7289 79.2477 26.0742 77.4044 26.0742 75.3H24.0742C24.0742 77.8622 24.8862 80.1523 26.499 82.1317L28.0495 80.8683ZM26.0742 75.3C26.0742 73.2 26.8738 71.4746 28.525 70.0593L27.2234 68.5407C25.1413 70.3254 24.0742 72.6 24.0742 75.3H26.0742ZM28.5272 70.0574C30.248 68.5739 32.4696 67.8 35.2742 67.8V65.8C32.0788 65.8 29.3671 66.6927 27.2213 68.5426L28.5272 70.0574ZM35.2742 67.8C37.9768 67.8 40.2808 68.8361 42.2362 70.9748L43.7122 69.6252C41.401 67.0973 38.5716 65.8 35.2742 65.8V67.8ZM41.9742 70.3V74.4H43.9742V70.3H41.9742ZM43.8063 73.8453C41.5255 70.4241 38.5384 68.6 34.8742 68.6V70.6C37.7434 70.6 40.1563 71.9759 42.1422 74.9547L43.8063 73.8453ZM178.91 68.1H179.91V67.1H178.91V68.1ZM178.91 113V114H179.91V113H178.91ZM175.71 113H174.71V114H175.71V113ZM175.71 68.1V67.1H174.71V68.1H175.71ZM177.91 68.1V113H179.91V68.1H177.91ZM178.91 112H175.71V114H178.91V112ZM176.71 113V68.1H174.71V113H176.71ZM175.71 69.1H178.91V67.1H175.71V69.1ZM177.31 56.1C176.481 56.1 176.045 55.9055 175.817 55.6931C175.602 55.4933 175.41 55.1268 175.41 54.4H173.41C173.41 55.4732 173.702 56.4567 174.454 57.1569C175.192 57.8445 176.206 58.1 177.31 58.1V56.1ZM175.41 54.4C175.41 53.6732 175.602 53.3067 175.817 53.1069C176.045 52.8945 176.481 52.7 177.31 52.7V50.7C176.206 50.7 175.192 50.9555 174.454 51.6431C173.702 52.3433 173.41 53.3268 173.41 54.4H175.41ZM177.31 52.7C178.14 52.7 178.576 52.8945 178.804 53.1069C179.018 53.3067 179.21 53.6732 179.21 54.4H181.21C181.21 53.3268 180.919 52.3433 180.167 51.6431C179.428 50.9555 178.414 50.7 177.31 50.7V52.7ZM179.21 54.4C179.21 55.1268 179.018 55.4933 178.804 55.6931C178.576 55.9055 178.14 56.1 177.31 56.1V58.1C178.414 58.1 179.428 57.8445 180.167 57.1569C180.919 56.4567 181.21 55.4732 181.21 54.4H179.21ZM249.284 111.1H250.284V110.1H249.284V111.1ZM249.284 113.9V114.9H250.284V113.9H249.284ZM237.184 109.2L236.491 109.921L236.499 109.929L237.184 109.2ZM232.184 38V37H231.184V38H232.184ZM235.384 38H236.384V37H235.384V38ZM239.384 107.1L238.676 107.807L238.685 107.816L239.384 107.1ZM248.284 111.1V113.9H250.284V111.1H248.284ZM249.284 112.9C244.795 112.9 241.009 111.424 237.869 108.471L236.499 109.929C240.024 113.243 244.306 114.9 249.284 114.9V112.9ZM237.876 108.479C234.754 105.481 233.184 101.682 233.184 97H231.184C231.184 102.185 232.947 106.519 236.491 109.921L237.876 108.479ZM233.184 97V38H231.184V97H233.184ZM232.184 39H235.384V37H232.184V39ZM234.384 38V97H236.384V38H234.384ZM234.384 97C234.384 101.309 235.807 104.937 238.676 107.807L240.091 106.393C237.627 103.929 236.384 100.824 236.384 97H234.384ZM238.685 107.816C241.608 110.667 245.16 112.1 249.284 112.1V110.1C245.674 110.1 242.626 108.866 240.082 106.384L238.685 107.816ZM297.281 113H296.281V114H297.281V113ZM297.281 38V37H296.281V38H297.281ZM300.481 38H301.481V37H300.481V38ZM300.481 79H299.481L301.379 79.4407L300.481 79ZM308.881 70.2L308.387 69.3308L308.38 69.3346L308.881 70.2ZM337.681 73.9L336.969 74.602L336.974 74.6071L336.979 74.6122L337.681 73.9ZM337.681 107.2L336.974 106.493L336.974 106.493L337.681 107.2ZM309.181 110.9L308.68 111.766L308.692 111.772L309.181 110.9ZM300.481 102.1L301.359 101.621L299.481 102.1H300.481ZM300.481 113V114H301.481V113H300.481ZM306.381 105.2L305.668 105.901L305.674 105.907L305.68 105.913L306.381 105.2ZM335.481 105.2L336.194 105.901L336.2 105.895L335.481 105.2ZM335.381 75.9L334.663 76.5954L334.668 76.6013L335.381 75.9ZM306.381 76L305.669 75.2986L305.668 75.2987L306.381 76ZM298.281 113V38H296.281V113H298.281ZM297.281 39H300.481V37H297.281V39ZM299.481 38V79H301.481V38H299.481ZM301.379 79.4407C303.085 75.9652 305.74 73.174 309.382 71.0654L308.38 69.3346C304.422 71.626 301.477 74.7015 299.584 78.5593L301.379 79.4407ZM309.376 71.0692C313.104 68.9482 316.934 67.9 320.881 67.9V65.9C316.561 65.9 312.392 67.0518 308.387 69.3308L309.376 71.0692ZM320.881 67.9C327.216 67.9 332.559 70.1275 336.969 74.602L338.393 73.198C333.604 68.3391 327.747 65.9 320.881 65.9V67.9ZM336.979 74.6122C341.458 79.0271 343.681 84.305 343.681 90.5H345.681C345.681 83.7616 343.238 77.9729 338.383 73.1878L336.979 74.6122ZM343.681 90.5C343.681 96.6954 341.458 102.009 336.974 106.493L338.388 107.907C343.238 103.057 345.681 97.2379 345.681 90.5H343.681ZM336.974 106.493C332.565 110.902 327.22 113.1 320.881 113.1V115.1C327.742 115.1 333.598 112.698 338.388 107.907L336.974 106.493ZM320.881 113.1C317.068 113.1 313.335 112.085 309.671 110.028L308.692 111.772C312.627 113.982 316.695 115.1 320.881 115.1V113.1ZM309.682 110.035C306.032 107.922 303.267 105.118 301.359 101.621L299.603 102.579C301.696 106.415 304.73 109.478 308.68 111.765L309.682 110.035ZM299.481 102.1V113H301.481V102.1H299.481ZM300.481 112H297.281V114H300.481V112ZM299.281 90.6C299.281 96.4726 301.425 101.588 305.668 105.901L307.094 104.499C303.204 100.545 301.281 95.9274 301.281 90.6H299.281ZM305.68 105.913C309.993 110.156 315.109 112.3 320.981 112.3V110.3C315.654 110.3 311.036 108.377 307.083 104.487L305.68 105.913ZM320.981 112.3C326.918 112.3 332.008 110.158 336.194 105.901L334.768 104.499C330.955 108.376 326.378 110.3 320.981 110.3V112.3ZM336.2 105.895C340.375 101.581 342.481 96.4673 342.481 90.6H340.481C340.481 95.9327 338.588 100.552 334.763 104.505L336.2 105.895ZM342.481 90.6C342.481 84.6642 340.34 79.5142 336.094 75.1987L334.668 76.6013C338.556 80.5525 340.481 85.2025 340.481 90.6H342.481ZM336.1 75.2046C331.917 70.8825 326.86 68.7 320.981 68.7V70.7C326.302 70.7 330.845 72.6508 334.663 76.5954L336.1 75.2046ZM320.981 68.7C315.098 68.7 309.979 70.9187 305.669 75.2986L307.094 76.7014C311.05 72.6813 315.664 70.7 320.981 70.7V68.7ZM305.668 75.2987C301.425 79.6117 299.281 84.7274 299.281 90.6H301.281C301.281 85.2726 303.204 80.655 307.094 76.7013L305.668 75.2987ZM420.515 74.1L419.808 74.8071L421.515 76.5142V74.1H420.515ZM401.415 73.7L400.716 72.9842L400.708 72.9929L401.415 73.7ZM397.415 113V114H398.415V113H397.415ZM394.215 113H393.215V114H394.215V113ZM394.215 68V67H393.215V68H394.215ZM397.415 68H398.415V67H397.415V68ZM397.415 74.7H396.415L398.299 75.1679L397.415 74.7ZM403.015 69.1L403.516 69.9654L403.516 69.9654L403.015 69.1ZM420.515 70.1H421.515V69.5977L421.112 69.2978L420.515 70.1ZM421.222 73.3929C418.136 70.3072 414.659 68.7 410.815 68.7V70.7C414.037 70.7 417.027 72.0261 419.808 74.8071L421.222 73.3929ZM410.815 68.7C406.998 68.7 403.62 70.1515 400.717 72.9842L402.113 74.4158C404.676 71.9151 407.565 70.7 410.815 70.7V68.7ZM400.708 72.9929C397.868 75.8331 396.415 79.1823 396.415 83H398.415C398.415 79.751 399.629 76.9002 402.122 74.4071L400.708 72.9929ZM396.415 83V113H398.415V83H396.415ZM397.415 112H394.215V114H397.415V112ZM395.215 113V68H393.215V113H395.215ZM394.215 69H397.415V67H394.215V69ZM396.415 68V74.7H398.415V68H396.415ZM398.299 75.1679C399.399 73.0895 401.121 71.3517 403.516 69.9654L402.514 68.2346C399.842 69.7816 397.831 71.7772 396.531 74.2321L398.299 75.1679ZM403.516 69.9654C405.886 68.5931 408.545 67.9 411.515 67.9V65.9C408.218 65.9 405.21 66.6735 402.514 68.2346L403.516 69.9654ZM411.515 67.9C414.404 67.9 417.198 68.8785 419.918 70.9022L421.112 69.2978C418.098 67.0548 414.893 65.9 411.515 65.9V67.9ZM419.515 70.1V74.1H421.515V70.1H419.515ZM505.18 68V67H504.18V68H505.18ZM508.38 68H509.38V67H508.38V68ZM508.38 113V114H509.38V113H508.38ZM505.18 113H504.18V114H505.18V113ZM505.18 103.9H506.18L504.286 103.453L505.18 103.9ZM473.68 108.3L474.394 107.599L474.394 107.599L473.68 108.3ZM467.98 68V67H466.98V68H467.98ZM471.18 68H472.18V67H471.18V68ZM475.98 106.2L475.252 106.885L475.259 106.893L475.98 106.2ZM499.88 106.2L499.187 105.479L499.18 105.486L499.88 106.2ZM505.18 69H508.38V67H505.18V69ZM507.38 68V113H509.38V68H507.38ZM508.38 112H505.18V114H508.38V112ZM506.18 113V103.9H504.18V113H506.18ZM504.286 103.453C502.661 106.703 500.486 109.098 497.775 110.687C495.059 112.28 491.742 113.1 487.78 113.1V115.1C492.019 115.1 495.702 114.22 498.786 112.413C501.874 110.602 504.3 107.897 506.075 104.347L504.286 103.453ZM487.78 113.1C482.439 113.1 477.999 111.267 474.394 107.599L472.967 109.001C476.962 113.066 481.922 115.1 487.78 115.1V113.1ZM474.394 107.599C470.782 103.924 468.98 99.4772 468.98 94.2H466.98C466.98 99.9895 468.979 104.943 472.967 109.001L474.394 107.599ZM468.98 94.2V68H466.98V94.2H468.98ZM467.98 69H471.18V67H467.98V69ZM470.18 68V94.2H472.18V68H470.18ZM470.18 94.2C470.18 99.059 471.881 103.303 475.252 106.885L476.709 105.515C473.68 102.297 472.18 98.541 472.18 94.2H470.18ZM475.259 106.893C478.709 110.484 482.901 112.3 487.78 112.3V110.3C483.46 110.3 479.785 108.716 476.702 105.507L475.259 106.893ZM487.78 112.3C492.658 112.3 496.939 110.486 500.581 106.914L499.18 105.486C495.889 108.714 492.103 110.3 487.78 110.3V112.3ZM500.574 106.921C504.289 103.346 506.18 99.0913 506.18 94.2H504.18C504.18 98.5087 502.539 102.254 499.187 105.479L500.574 106.921ZM506.18 94.2V68H504.18V94.2H506.18ZM563.771 107.2L563.054 107.897L563.054 107.897L563.771 107.2ZM563.871 74.1L564.573 74.8122L564.578 74.8071L563.871 74.1ZM598.471 74.8H599.471V74.4053L599.202 74.117L598.471 74.8ZM598.471 79.9L597.642 80.4589L599.471 83.1732V79.9H598.471ZM590.571 72.6L590.073 73.4671L590.081 73.4716L590.571 72.6ZM566.171 76.1L566.878 76.8071L566.878 76.8071L566.171 76.1ZM566.171 105.4L565.458 106.101L565.464 106.107L565.47 106.113L566.171 105.4ZM590.571 108.8L590.081 107.928L590.073 107.933L590.571 108.8ZM598.471 101.4H599.471V98.0677L597.636 100.849L598.471 101.4ZM598.471 106.6L599.211 107.273L599.471 106.987V106.6H598.471ZM581.171 113.3H580.271V115.3H581.171V113.3ZM580.271 113.3C574.151 113.3 568.907 111.049 564.488 106.503L563.054 107.897C567.836 112.817 573.592 115.3 580.271 115.3V113.3ZM564.488 106.503C560.061 101.948 557.871 96.6611 557.871 90.6H555.871C555.871 97.2055 558.281 102.986 563.054 107.897L564.488 106.503ZM557.871 90.6C557.871 84.4748 560.092 79.2293 564.573 74.8122L563.169 73.3878C558.317 78.1707 555.871 83.9252 555.871 90.6H557.871ZM564.578 74.8071C569.051 70.3342 574.527 68.1 581.071 68.1V66.1C574.015 66.1 568.024 68.5324 563.164 73.3929L564.578 74.8071ZM581.071 68.1C587.584 68.1 593.123 70.5442 597.741 75.483L599.202 74.117C594.22 68.7891 588.158 66.1 581.071 66.1V68.1ZM597.471 74.8V79.9H599.471V74.8H597.471ZM599.3 79.3411C597.147 76.1462 594.398 73.6054 591.061 71.7284L590.081 73.4716C593.144 75.1946 595.662 77.5204 597.642 80.4589L599.3 79.3411ZM591.069 71.7329C587.791 69.8497 584.32 68.9 580.671 68.9V70.9C583.955 70.9 587.085 71.7503 590.073 73.4671L591.069 71.7329ZM580.671 68.9C574.856 68.9 569.773 71.0838 565.464 75.3929L566.878 76.8071C570.836 72.8496 575.419 70.9 580.671 70.9V68.9ZM565.464 75.3929C561.213 79.644 559.071 84.7637 559.071 90.7H561.071C561.071 85.303 562.996 80.6894 566.878 76.8071L565.464 75.3929ZM559.071 90.7C559.071 96.6358 561.212 101.786 565.458 106.101L566.884 104.699C562.997 100.748 561.071 96.0975 561.071 90.7H559.071ZM565.47 106.113C569.78 110.354 574.862 112.5 580.671 112.5V110.5C575.414 110.5 570.829 108.58 566.872 104.687L565.47 106.113ZM580.671 112.5C584.32 112.5 587.791 111.55 591.069 109.667L590.073 107.933C587.085 109.65 583.955 110.5 580.671 110.5V112.5ZM591.061 109.672C594.403 107.792 597.154 105.214 599.306 101.951L597.636 100.849C595.655 103.853 593.139 106.208 590.081 107.928L591.061 109.672ZM597.471 101.4V106.6H599.471V101.4H597.471ZM597.731 105.927C593.252 110.855 587.753 113.3 581.171 113.3V115.3C588.323 115.3 594.357 112.612 599.211 107.273L597.731 105.927ZM650.13 113V114H651.13V113H650.13ZM646.93 113H645.93V114H646.93V113ZM646.93 38.1V37.1H645.93V38.1H646.93ZM650.13 38.1H651.13V37.1H650.13V38.1ZM650.13 76.7H649.13L651.02 77.1545L650.13 76.7ZM681.53 72.7L680.816 73.401L680.823 73.4071L681.53 72.7ZM687.33 113V114H688.33V113H687.33ZM684.13 113H683.13V114H684.13V113ZM679.23 74.8L678.509 75.4929L678.515 75.4999L679.23 74.8ZM650.13 112H646.93V114H650.13V112ZM647.93 113V38.1H645.93V113H647.93ZM646.93 39.1H650.13V37.1H646.93V39.1ZM649.13 38.1V76.7H651.13V38.1H649.13ZM651.02 77.1545C652.608 74.043 654.753 71.7467 657.448 70.2201C660.149 68.6899 663.462 67.9 667.43 67.9V65.9C663.197 65.9 659.527 66.7434 656.462 68.4799C653.39 70.22 650.985 72.8237 649.239 76.2455L651.02 77.1545ZM667.43 67.9C672.771 67.9 677.211 69.7325 680.816 73.4009L682.243 71.9991C678.248 67.9341 673.288 65.9 667.43 65.9V67.9ZM680.823 73.4071C684.499 77.0837 686.33 81.5283 686.33 86.8H688.33C688.33 81.005 686.293 76.0496 682.237 71.9929L680.823 73.4071ZM686.33 86.8V113H688.33V86.8H686.33ZM687.33 112H684.13V114H687.33V112ZM685.13 113V86.8H683.13V113H685.13ZM685.13 86.8C685.13 81.8716 683.394 77.6203 679.944 74.1001L678.515 75.4999C681.599 78.6464 683.13 82.3951 683.13 86.8H685.13ZM679.951 74.1072C676.501 70.5164 672.309 68.7 667.43 68.7V70.7C671.75 70.7 675.425 72.2835 678.509 75.4928L679.951 74.1072ZM667.43 68.7C662.552 68.7 658.272 70.514 654.629 74.0861L656.03 75.5139C659.321 72.286 663.107 70.7 667.43 70.7V68.7ZM654.629 74.0861C650.983 77.6625 649.13 81.9152 649.13 86.8H651.13C651.13 82.4848 652.743 78.7375 656.03 75.5139L654.629 74.0861ZM649.13 86.8V113H651.13V86.8H649.13ZM739.197 112.7C738.196 112.7 737.632 112.47 737.321 112.186C737.027 111.918 736.797 111.454 736.797 110.6H734.797C734.797 111.812 735.134 112.898 735.973 113.664C736.795 114.413 737.931 114.7 739.197 114.7V112.7ZM736.797 110.6C736.797 109.746 737.027 109.282 737.321 109.014C737.632 108.73 738.196 108.5 739.197 108.5V106.5C737.931 106.5 736.795 106.787 735.973 107.536C735.134 108.302 734.797 109.388 734.797 110.6H736.797ZM739.197 108.5C740.237 108.5 740.831 108.733 741.159 109.024C741.464 109.294 741.697 109.754 741.697 110.6H743.697C743.697 109.379 743.347 108.29 742.485 107.526C741.646 106.784 740.49 106.5 739.197 106.5V108.5ZM741.697 110.6C741.697 111.446 741.464 111.906 741.159 112.176C740.831 112.467 740.237 112.7 739.197 112.7V114.7C740.49 114.7 741.646 114.416 742.485 113.674C743.347 112.91 743.697 111.821 743.697 110.6H741.697ZM837.064 38H838.064V37H837.064V38ZM837.064 113V114H838.064V113H837.064ZM833.864 113H832.864V114H833.864V113ZM833.864 102.1H834.864L832.986 101.621L833.864 102.1ZM825.164 110.9L825.654 111.772L825.665 111.765L825.164 110.9ZM796.564 107.2L795.852 107.902L795.857 107.907L795.862 107.912L796.564 107.2ZM796.564 73.9L795.857 73.1929L795.857 73.1929L796.564 73.9ZM825.364 70.2L824.863 71.0654L824.87 71.0692L825.364 70.2ZM833.864 79L832.966 79.4407L834.864 79H833.864ZM833.864 38V37H832.864V38H833.864ZM798.864 105.2L798.145 105.895L798.151 105.901L798.864 105.2ZM827.864 105.2L828.571 105.907L828.571 105.907L827.864 105.2ZM827.864 76L827.146 76.6956L827.151 76.7014L827.157 76.7071L827.864 76ZM798.864 75.9L798.151 75.1986L798.145 75.2046L798.864 75.9ZM836.064 38V113H838.064V38H836.064ZM837.064 112H833.864V114H837.064V112ZM834.864 113V102.1H832.864V113H834.864ZM832.986 101.621C831.079 105.118 828.313 107.922 824.663 110.035L825.665 111.765C829.615 109.478 832.65 106.415 834.742 102.579L832.986 101.621ZM824.675 110.028C821.01 112.085 817.278 113.1 813.464 113.1V115.1C817.651 115.1 821.718 113.982 825.654 111.772L824.675 110.028ZM813.464 113.1C807.125 113.1 801.744 110.902 797.266 106.488L795.862 107.912C800.717 112.698 806.603 115.1 813.464 115.1V113.1ZM797.276 106.498C792.858 102.016 790.664 96.7001 790.664 90.5H788.664C788.664 97.2333 791.07 103.051 795.852 107.902L797.276 106.498ZM790.664 90.5C790.664 84.3003 792.857 79.0208 797.271 74.6071L795.857 73.1929C791.071 77.9792 788.664 83.7663 788.664 90.5H790.664ZM797.271 74.6071C801.75 70.128 807.129 67.9 813.464 67.9V65.9C806.599 65.9 800.711 68.3387 795.857 73.1929L797.271 74.6071ZM813.464 67.9C817.41 67.9 821.205 68.9479 824.863 71.0654L825.865 69.3346C821.923 67.0521 817.784 65.9 813.464 65.9V67.9ZM824.87 71.0692C828.578 73.1792 831.263 75.9701 832.966 79.4407L834.762 78.5593C832.865 74.6965 829.883 71.6208 825.859 69.3308L824.87 71.0692ZM834.864 79V38H832.864V79H834.864ZM833.864 39H837.064V37H833.864V39ZM791.864 90.6C791.864 96.4673 793.97 101.581 798.145 105.895L799.583 104.505C795.758 100.552 793.864 95.9327 793.864 90.6H791.864ZM798.151 105.901C802.335 110.155 807.39 112.3 813.264 112.3V110.3C807.938 110.3 803.393 108.378 799.577 104.499L798.151 105.901ZM813.264 112.3C819.2 112.3 824.32 110.158 828.571 105.907L827.157 104.493C823.275 108.375 818.661 110.3 813.264 110.3V112.3ZM828.571 105.907C832.883 101.595 835.064 96.4779 835.064 90.6H833.064C833.064 95.9221 831.112 100.538 827.157 104.493L828.571 105.907ZM835.064 90.6C835.064 84.7221 832.883 79.6046 828.571 75.2929L827.157 76.7071C831.112 80.6621 833.064 85.2779 833.064 90.6H835.064ZM828.582 75.3044C824.337 70.9194 819.248 68.7 813.364 68.7V70.7C818.68 70.7 823.258 72.6806 827.146 76.6956L828.582 75.3044ZM813.364 68.7C807.486 68.7 802.398 70.8818 798.151 75.1987L799.577 76.6013C803.463 72.6515 808.043 70.7 813.364 70.7V68.7ZM798.145 75.2046C793.968 79.5213 791.864 84.6695 791.864 90.6H793.864C793.864 85.1972 795.76 80.5454 799.583 76.5954L798.145 75.2046ZM894.098 107.1L893.381 107.797L893.391 107.807L894.098 107.1ZM894.098 74L894.8 74.7122L894.805 74.7071L894.098 74ZM929.098 75.2L929.8 75.9116L930.481 75.2399L929.84 74.53L929.098 75.2ZM897.698 106.2L896.995 105.488L896.195 106.278L897.073 106.981L897.698 106.2ZM920.898 108.7L921.396 109.567L921.402 109.564L920.898 108.7ZM928.798 101.3H929.798V98.0267L927.968 100.741L928.798 101.3ZM928.798 106.4L929.537 107.073L929.798 106.787V106.4H928.798ZM896.398 76L897.105 76.7071L897.105 76.7071L896.398 76ZM895.598 104.1L894.848 104.762L895.55 105.557L896.302 104.81L895.598 104.1ZM924.698 75.2L925.402 75.9095L926.165 75.152L925.354 74.4459L924.698 75.2ZM911.598 113.2H910.698V115.2H911.598V113.2ZM910.698 113.2C904.646 113.2 899.362 110.951 894.805 106.393L893.391 107.807C898.3 112.716 904.083 115.2 910.698 115.2V113.2ZM894.815 106.403C890.318 101.778 888.098 96.457 888.098 90.4H886.098C886.098 97.0096 888.544 102.822 893.381 107.797L894.815 106.403ZM888.098 90.4C888.098 84.3446 890.316 79.1315 894.8 74.7122L893.396 73.2878C888.546 78.0685 886.098 83.7887 886.098 90.4H888.098ZM894.805 74.7071C899.276 70.2363 904.784 68 911.398 68V66C904.278 66 898.253 68.4304 893.391 73.2929L894.805 74.7071ZM911.398 68C917.959 68 923.596 70.5963 928.355 75.87L929.84 74.53C924.733 68.8704 918.57 66 911.398 66V68ZM928.395 74.4884L896.995 105.488L898.4 106.912L929.8 75.9116L928.395 74.4884ZM897.073 106.981C901.516 110.535 905.897 112.4 910.198 112.4V110.4C906.499 110.4 902.546 108.798 898.322 105.419L897.073 106.981ZM910.198 112.4C914.353 112.4 918.095 111.463 921.396 109.567L920.4 107.833C917.434 109.537 914.042 110.4 910.198 110.4V112.4ZM921.402 109.564C924.731 107.621 927.476 105.051 929.627 101.859L927.968 100.741C925.986 103.683 923.464 106.045 920.394 107.836L921.402 109.564ZM927.798 101.3V106.4H929.798V101.3H927.798ZM928.058 105.727C923.505 110.729 918.036 113.2 911.598 113.2V115.2C918.626 115.2 924.624 112.471 929.537 107.073L928.058 105.727ZM910.498 68.8C904.935 68.8 899.989 70.9946 895.691 75.2929L897.105 76.7071C901.073 72.7387 905.527 70.8 910.498 70.8V68.8ZM895.691 75.2929C891.453 79.5309 889.298 84.4793 889.298 90.1H891.298C891.298 85.054 893.209 80.6025 897.105 76.7071L895.691 75.2929ZM889.298 90.1C889.298 95.6774 891.154 100.579 894.848 104.762L896.347 103.438C892.975 99.6206 891.298 95.1893 891.298 90.1H889.298ZM896.302 104.81L925.402 75.9095L923.993 74.4905L894.893 103.39L896.302 104.81ZM925.354 74.4459C921.045 70.6922 916.08 68.8 910.498 68.8V70.8C915.582 70.8 920.084 72.5078 924.041 75.9541L925.354 74.4459ZM1016.51 68V67H1015.88L1015.61 67.5684L1016.51 68ZM1019.41 68L1020.31 68.4308L1020.99 67H1019.41V68ZM997.309 114.3L996.408 114.732L997.311 116.617L998.212 114.731L997.309 114.3ZM975.109 68V67H973.521L974.208 68.4323L975.109 68ZM978.609 68L979.511 67.5665L979.238 67H978.609V68ZM997.609 107.5L996.708 107.933L997.612 109.812L998.511 107.932L997.609 107.5ZM1016.51 69H1019.41V67H1016.51V69ZM1018.51 67.5692L996.407 113.869L998.212 114.731L1020.31 68.4308L1018.51 67.5692ZM998.211 113.868L976.011 67.5676L974.208 68.4323L996.408 114.732L998.211 113.868ZM975.109 69H978.609V67H975.109V69ZM977.708 68.4335L996.708 107.933L998.511 107.067L979.511 67.5665L977.708 68.4335ZM998.511 107.932L1017.41 68.4316L1015.61 67.5684L996.707 107.068L998.511 107.932Z" fill="#FF0000"/>
</g>
<defs>
<filter id="filter0_d" x="91.1953" y="50.4" width="39.0993" height="85.7" filterUnits="userSpaceOnUse" color-interpolation-filters="sRGB">
<feFlood flood-opacity="0" result="BackgroundImageFix"/>
<feColorMatrix in="SourceAlpha" type="matrix" values="0 0 0 0 0 0 0 0 0 0 0 0 0 0 0 0 0 0 127 0"/>
<feOffset dx="5" dy="10"/>
<feGaussianBlur stdDeviation="5"/>
<feColorMatrix type="matrix" values="0 0 0 0 0 0 0 0 0 0 0 0 0 0 0 0 0 0 1 0"/>
<feBlend mode="normal" in2="BackgroundImageFix" result="effect1_dropShadow"/>
<feBlend mode="normal" in="SourceGraphic" in2="effect1_dropShadow" result="shape"/>
</filter>
<filter id="filter1_d" x="16.2742" y="37" width="1019.72" height="99.6172" filterUnits="userSpaceOnUse" color-interpolation-filters="sRGB">
<feFlood flood-opacity="0" result="BackgroundImageFix"/>
<feColorMatrix in="SourceAlpha" type="matrix" values="0 0 0 0 0 0 0 0 0 0 0 0 0 0 0 0 0 0 127 0"/>
<feOffset dx="5" dy="10"/>
<feGaussianBlur stdDeviation="5"/>
<feColorMatrix type="matrix" values="0 0 0 0 0 0 0 0 0 0 0 0 0 0 0 0 0 0 1 0"/>
<feBlend mode="normal" in2="BackgroundImageFix" result="effect1_dropShadow"/>
<feBlend mode="normal" in="SourceGraphic" in2="effect1_dropShadow" result="shape"/>
</filter>
</defs>
</svg>
