<svg width="25" height="81" viewBox="0 0 25 81" fill="none" xmlns="http://www.w3.org/2000/svg">
<path d="M2.84854 5.19999L2.84866 2.39999C7.582 2.39999 11.6153 3.96666 14.9485 7.09999C18.2817 10.3 19.9481 14.3667 19.9479 19.3L19.9459 66.1H16.7459L16.7467 47.9L2.94669 47.9L2.94681 45.1L16.7468 45.1L16.7479 19.3C16.7481 15.2333 15.4149 11.8667 12.7484 9.19999C10.0152 6.53332 6.71521 5.19999 2.84854 5.19999Z" fill="#FF0000"/>
<path d="M2.84854 5.19999H0.848542L0.848455 7.19999H2.84846L2.84854 5.19999ZM2.84866 2.39999L2.84875 0.399992H0.848751L0.848664 2.39999H2.84866ZM14.9485 7.09999L16.3336 5.65722L16.326 5.64994L16.3183 5.64274L14.9485 7.09999ZM19.9459 66.1L19.9458 68.1H21.9458L21.9459 66.1H19.9459ZM16.7459 66.1H14.7459L14.7458 68.1H16.7458L16.7459 66.1ZM16.7467 47.9L18.7467 47.9L18.7468 45.9L16.7468 45.9L16.7467 47.9ZM2.94669 47.9H0.946688L0.946601 49.9H2.9466L2.94669 47.9ZM2.94681 45.1L2.9469 43.1H0.946896L0.946809 45.1H2.94681ZM16.7468 45.1L16.7467 47.1L18.7467 47.1L18.7468 45.1L16.7468 45.1ZM12.7484 9.19999L14.1626 7.78578L14.1539 7.77705L14.1451 7.76843L12.7484 9.19999ZM4.84854 5.19999L4.84866 2.39999H0.848664L0.848542 5.19999H4.84854ZM2.84858 4.39999C7.09239 4.39999 10.6302 5.7857 13.5786 8.55725L16.3183 5.64274C12.6003 2.14761 8.0716 0.399992 2.84875 0.399992L2.84858 4.39999ZM13.5633 8.54277C16.475 11.3381 17.9481 14.8702 17.9479 19.3H21.9479C21.9482 13.8632 20.0883 9.2619 16.3336 5.65722L13.5633 8.54277ZM17.9479 19.3L17.9459 66.1H21.9459L21.9479 19.3H17.9479ZM19.946 64.1H16.746L16.7458 68.1H19.9458L19.946 64.1ZM18.7459 66.1L18.7467 47.9L14.7467 47.9L14.7459 66.1H18.7459ZM16.7468 45.9L2.94677 45.9L2.9466 49.9L16.7466 49.9L16.7468 45.9ZM4.94669 47.9L4.94681 45.1L0.946809 45.1L0.946688 47.9L4.94669 47.9ZM2.94672 47.1L16.7467 47.1L16.7469 43.1L2.9469 43.1L2.94672 47.1ZM18.7468 45.1L18.7479 19.3L14.7479 19.3L14.7468 45.1L18.7468 45.1ZM18.7479 19.3C18.7481 14.7488 17.2355 10.8588 14.1626 7.78578L11.3341 10.6142C13.5943 12.8745 14.7481 15.7178 14.7479 19.3L18.7479 19.3ZM14.1451 7.76843C11.0331 4.73222 7.22984 3.19999 2.84863 3.19999L2.84846 7.19999C6.20058 7.19999 8.9972 8.33443 11.3517 10.6316L14.1451 7.76843Z" fill="#FF0000"/>
</svg>
