<svg width="842" height="82" viewBox="0 0 842 82" fill="none" xmlns="http://www.w3.org/2000/svg">
<path d="M12.484 33.0833V77.9833H9.28404V33.0833H12.484ZM10.884 22.0833C8.95071 22.0833 7.98404 21.1833 7.98404 19.3833C7.98404 17.5833 8.95071 16.6833 10.884 16.6833C12.8174 16.6833 13.784 17.5833 13.784 19.3833C13.784 21.1833 12.8174 22.0833 10.884 22.0833ZM38.9575 77.9833H35.7575V32.9833H38.9575V42.0833C42.3575 35.2833 48.1575 31.8833 56.3575 31.8833C61.9575 31.8833 66.6575 33.8166 70.4575 37.6833C74.2575 41.5499 76.1575 46.2499 76.1575 51.7833V77.9833H72.9575V51.7833C72.9575 47.1833 71.3241 43.1833 68.0575 39.7833C64.8575 36.3833 60.9575 34.6833 56.3575 34.6833C51.7575 34.6833 47.6908 36.3833 44.1575 39.7833C40.6908 43.1833 38.9575 47.1833 38.9575 51.7833V77.9833ZM115.299 14.7833V17.5833C111.432 17.5833 108.132 18.9166 105.399 21.5833C102.732 24.2499 101.399 27.6166 101.399 31.6833V57.9833H115.399V60.7833H101.399V77.9833H98.1989V31.6833C98.1989 26.7499 99.8656 22.7166 103.199 19.5833C106.532 16.3833 110.566 14.7833 115.299 14.7833ZM154.294 79.0833C147.894 79.0833 142.394 76.7166 137.794 71.9833C133.194 67.1833 130.894 61.6166 130.894 55.2833C130.894 48.9499 133.228 43.4833 137.894 38.8833C142.561 34.2166 148.161 31.8833 154.694 31.8833C161.294 31.8833 166.894 34.2166 171.494 38.8833C176.161 43.4833 178.494 48.9833 178.494 55.3833C178.494 61.7166 176.228 67.2499 171.694 71.9833C167.161 76.7166 161.661 79.0833 155.194 79.0833H154.294ZM175.294 55.5833C175.294 49.9166 173.261 45.0166 169.194 40.8833C165.194 36.7499 160.394 34.6833 154.794 34.6833C149.194 34.6833 144.328 36.7833 140.194 40.9833C136.128 45.1166 134.094 49.9833 134.094 55.5833C134.094 61.1833 136.128 66.0499 140.194 70.1833C144.328 74.2499 149.194 76.2833 154.794 76.2833C160.461 76.2833 165.294 74.2499 169.294 70.1833C173.294 66.0499 175.294 61.1833 175.294 55.5833ZM236.684 79.2833H235.184C224.851 79.2833 215.884 75.3833 208.284 67.5833C200.751 59.7833 196.984 50.6833 196.984 40.2833C196.984 29.8166 200.817 20.7833 208.484 13.1833C216.151 5.51661 225.351 1.68328 236.084 1.68328C246.817 1.68328 255.984 5.48327 263.584 13.0833C271.184 20.6833 274.984 29.7499 274.984 40.2833C274.984 50.7499 271.217 59.8833 263.684 67.6833C256.151 75.4166 247.151 79.2833 236.684 79.2833ZM271.684 40.4833C271.684 30.6166 268.184 22.1833 261.184 15.1833C254.251 8.11661 245.851 4.58327 235.984 4.58327C226.184 4.58327 217.784 8.11661 210.784 15.1833C203.784 22.1833 200.284 30.6166 200.284 40.4833C200.284 50.2833 203.784 58.7166 210.784 65.7833C217.784 72.8499 226.184 76.3833 235.984 76.3833C245.784 76.3833 254.184 72.8499 261.184 65.7833C268.184 58.7166 271.684 50.2833 271.684 40.4833ZM259.584 17.9833V62.9833H256.384V52.4833C254.251 56.0833 251.351 58.9166 247.684 60.9833C244.017 63.0499 240.117 64.0833 235.984 64.0833C229.451 64.0833 223.851 61.7833 219.184 57.1833C214.517 52.5166 212.184 46.9499 212.184 40.4833C212.184 34.0166 214.517 28.4833 219.184 23.8833C223.851 19.2166 229.451 16.8833 235.984 16.8833C240.117 16.8833 244.017 17.9166 247.684 19.9833C251.351 22.0499 254.251 24.8833 256.384 28.4833V17.9833H259.584ZM215.384 40.5833C215.384 46.1833 217.417 51.0499 221.484 55.1833C225.617 59.2499 230.484 61.2833 236.084 61.2833C241.751 61.2833 246.584 59.2499 250.584 55.1833C254.584 51.0499 256.584 46.1833 256.584 40.5833C256.584 34.9166 254.551 30.0166 250.484 25.8833C246.484 21.7499 241.684 19.6833 236.084 19.6833C230.484 19.6833 225.617 21.7833 221.484 25.9833C217.417 30.1166 215.384 34.9833 215.384 40.5833ZM333.872 32.9833H336.772L314.672 79.2833L292.472 32.9833H295.972L314.972 72.4833L333.872 32.9833ZM359.789 33.0833V77.9833H356.589V33.0833H359.789ZM358.189 22.0833C356.255 22.0833 355.289 21.1833 355.289 19.3833C355.289 17.5833 356.255 16.6833 358.189 16.6833C360.122 16.6833 361.089 17.5833 361.089 19.3833C361.089 21.1833 360.122 22.0833 358.189 22.0833ZM392.862 34.5833C391.129 34.5833 389.595 35.1499 388.262 36.2833C386.929 37.4166 386.262 38.8166 386.262 40.4833C386.262 42.1499 386.995 43.6833 388.462 45.0833C389.995 46.4833 391.795 47.7833 393.862 48.9833C395.995 50.1166 398.129 51.3499 400.262 52.6833C402.395 54.0166 404.195 55.7166 405.662 57.7833C407.195 59.8499 407.962 62.2166 407.962 64.8833C407.962 68.8166 406.462 72.1833 403.462 74.9833C400.529 77.7166 396.962 79.0833 392.762 79.0833C390.095 79.0833 387.595 78.5166 385.262 77.3833C382.995 76.1833 381.329 74.6166 380.262 72.6833V67.8833C382.795 73.4833 386.862 76.2833 392.462 76.2833C395.929 76.2833 398.829 75.2166 401.162 73.0833C403.562 70.9499 404.762 68.5833 404.762 65.9833C404.762 63.3166 403.995 61.0833 402.462 59.2833C400.995 57.4833 399.195 55.9499 397.062 54.6833C394.929 53.4166 392.795 52.1833 390.662 50.9833C388.595 49.7166 386.795 48.2166 385.262 46.4833C383.795 44.6833 383.062 42.6166 383.062 40.2833C383.062 37.8833 383.995 35.8833 385.862 34.2833C387.795 32.6166 390.262 31.7833 393.262 31.7833C396.262 31.7833 398.829 32.9499 400.962 35.2833V39.3833C398.829 36.1833 396.129 34.5833 392.862 34.5833ZM431.937 33.0833V77.9833H428.737V33.0833H431.937ZM430.337 22.0833C428.404 22.0833 427.437 21.1833 427.437 19.3833C427.437 17.5833 428.404 16.6833 430.337 16.6833C432.27 16.6833 433.237 17.5833 433.237 19.3833C433.237 21.1833 432.27 22.0833 430.337 22.0833ZM476.111 79.0833C469.711 79.0833 464.211 76.7166 459.611 71.9833C455.011 67.1833 452.711 61.6166 452.711 55.2833C452.711 48.9499 455.044 43.4833 459.711 38.8833C464.377 34.2166 469.977 31.8833 476.511 31.8833C483.111 31.8833 488.711 34.2166 493.311 38.8833C497.977 43.4833 500.311 48.9833 500.311 55.3833C500.311 61.7166 498.044 67.2499 493.511 71.9833C488.977 76.7166 483.477 79.0833 477.011 79.0833H476.111ZM497.111 55.5833C497.111 49.9166 495.077 45.0166 491.011 40.8833C487.011 36.7499 482.211 34.6833 476.611 34.6833C471.011 34.6833 466.144 36.7833 462.011 40.9833C457.944 45.1166 455.911 49.9833 455.911 55.5833C455.911 61.1833 457.944 66.0499 462.011 70.1833C466.144 74.2499 471.011 76.2833 476.611 76.2833C482.277 76.2833 487.111 74.2499 491.111 70.1833C495.111 66.0499 497.111 61.1833 497.111 55.5833ZM523 77.9833H519.8V32.9833H523V42.0833C526.4 35.2833 532.2 31.8833 540.4 31.8833C546 31.8833 550.7 33.8166 554.5 37.6833C558.3 41.5499 560.2 46.2499 560.2 51.7833V77.9833H557V51.7833C557 47.1833 555.367 43.1833 552.1 39.7833C548.9 36.3833 545 34.6833 540.4 34.6833C535.8 34.6833 531.734 36.3833 528.2 39.7833C524.734 43.1833 523 47.1833 523 51.7833V77.9833ZM599.442 50.6833L617.542 77.9833H613.842L597.642 53.4833L581.542 77.9833H578.342L596.042 50.9833L584.142 32.9833H587.842L597.842 48.1833L607.842 32.9833H611.042L599.442 50.6833ZM636.404 78.6833C634.137 78.6833 633.004 77.6499 633.004 75.5833C633.004 73.5166 634.137 72.4833 636.404 72.4833C638.737 72.4833 639.904 73.5166 639.904 75.5833C639.904 77.6499 638.737 78.6833 636.404 78.6833ZM704.271 2.98327V77.9833H701.071V67.0833C699.071 70.7499 696.171 73.6833 692.371 75.8833C688.571 78.0166 684.671 79.0833 680.671 79.0833C674.071 79.0833 668.437 76.7833 663.771 72.1833C659.171 67.5166 656.871 61.9499 656.871 55.4833C656.871 49.0166 659.171 43.4833 663.771 38.8833C668.437 34.2166 674.071 31.8833 680.671 31.8833C684.804 31.8833 688.771 32.9833 692.571 35.1833C696.437 37.3833 699.271 40.3166 701.071 43.9833V2.98327H704.271ZM660.071 55.5833C660.071 61.1833 662.071 66.0499 666.071 70.1833C670.071 74.2499 674.871 76.2833 680.471 76.2833C686.137 76.2833 691.004 74.2499 695.071 70.1833C699.204 66.0499 701.271 61.1833 701.271 55.5833C701.271 49.9833 699.204 45.1166 695.071 40.9833C691.004 36.7833 686.171 34.6833 680.571 34.6833C674.971 34.6833 670.137 36.7499 666.071 40.8833C662.071 45.0166 660.071 49.9166 660.071 55.5833ZM748.804 79.1833H747.904C741.571 79.1833 736.038 76.8166 731.304 72.0833C726.638 67.2833 724.304 61.7166 724.304 55.3833C724.304 49.0499 726.638 43.5833 731.304 38.9833C735.971 34.3166 741.738 31.9833 748.604 31.9833C755.471 31.9833 761.371 34.7166 766.304 40.1833L734.904 71.1833C739.238 74.6499 743.404 76.3833 747.404 76.3833C751.404 76.3833 754.971 75.4833 758.104 73.6833C761.304 71.8166 763.938 69.3499 766.004 66.2833V71.3833C761.271 76.5833 755.538 79.1833 748.804 79.1833ZM747.704 34.7833C742.438 34.7833 737.738 36.8499 733.604 40.9833C729.538 45.0499 727.504 49.7499 727.504 55.0833C727.504 60.4166 729.271 65.0833 732.804 69.0833L761.904 40.1833C757.771 36.5833 753.038 34.7833 747.704 34.7833ZM823.716 32.9833H826.616L804.516 79.2833L782.316 32.9833H785.816L804.816 72.4833L823.716 32.9833Z" fill="#FF0000"/>
<path d="M12.484 33.0833H13.484V32.0833H12.484V33.0833ZM12.484 77.9833V78.9833H13.484V77.9833H12.484ZM9.28404 77.9833H8.28404V78.9833H9.28404V77.9833ZM9.28404 33.0833V32.0833H8.28404V33.0833H9.28404ZM11.484 33.0833V77.9833H13.484V33.0833H11.484ZM12.484 76.9833H9.28404V78.9833H12.484V76.9833ZM10.284 77.9833V33.0833H8.28404V77.9833H10.284ZM9.28404 34.0833H12.484V32.0833H9.28404V34.0833ZM10.884 21.0833C10.0545 21.0833 9.61854 20.8887 9.39046 20.6764C9.17584 20.4766 8.98404 20.1101 8.98404 19.3833H6.98404C6.98404 20.4565 7.27557 21.44 8.02762 22.1402C8.7662 22.8278 9.78028 23.0833 10.884 23.0833V21.0833ZM8.98404 19.3833C8.98404 18.6565 9.17584 18.29 9.39046 18.0902C9.61854 17.8778 10.0545 17.6833 10.884 17.6833V15.6833C9.78028 15.6833 8.7662 15.9387 8.02762 16.6264C7.27557 17.3266 6.98404 18.3101 6.98404 19.3833H8.98404ZM10.884 17.6833C11.7136 17.6833 12.1495 17.8778 12.3776 18.0902C12.5922 18.29 12.784 18.6565 12.784 19.3833H14.784C14.784 18.3101 14.4925 17.3266 13.7405 16.6264C13.0019 15.9387 11.9878 15.6833 10.884 15.6833V17.6833ZM12.784 19.3833C12.784 20.1101 12.5922 20.4766 12.3776 20.6764C12.1495 20.8887 11.7136 21.0833 10.884 21.0833V23.0833C11.9878 23.0833 13.0019 22.8278 13.7405 22.1402C14.4925 21.44 14.784 20.4565 14.784 19.3833H12.784ZM38.9575 77.9833V78.9833H39.9575V77.9833H38.9575ZM35.7575 77.9833H34.7575V78.9833H35.7575V77.9833ZM35.7575 32.9833V31.9833H34.7575V32.9833H35.7575ZM38.9575 32.9833H39.9575V31.9833H38.9575V32.9833ZM38.9575 42.0833H37.9575L39.8519 42.5305L38.9575 42.0833ZM70.4575 37.6833L69.7442 38.3842V38.3842L70.4575 37.6833ZM76.1575 77.9833V78.9833H77.1575V77.9833H76.1575ZM72.9575 77.9833H71.9575V78.9833H72.9575V77.9833ZM68.0575 39.7833L67.3292 40.4687L67.3364 40.4761L68.0575 39.7833ZM44.1575 39.7833L43.4641 39.0627L43.4573 39.0693L44.1575 39.7833ZM38.9575 76.9833H35.7575V78.9833H38.9575V76.9833ZM36.7575 77.9833V32.9833H34.7575V77.9833H36.7575ZM35.7575 33.9833H38.9575V31.9833H35.7575V33.9833ZM37.9575 32.9833V42.0833H39.9575V32.9833H37.9575ZM39.8519 42.5305C41.477 39.2803 43.6514 36.8856 46.3632 35.296C49.0794 33.7037 52.3963 32.8833 56.3575 32.8833V30.8833C52.1186 30.8833 48.4356 31.7628 45.3518 33.5706C42.2635 35.3809 39.838 38.0862 38.063 41.6361L39.8519 42.5305ZM56.3575 32.8833C61.6992 32.8833 66.1391 34.7158 69.7442 38.3842L71.1707 36.9823C67.1759 32.9174 62.2158 30.8833 56.3575 30.8833V32.8833ZM69.7442 38.3842C73.3563 42.0596 75.1575 46.5061 75.1575 51.7833H77.1575C77.1575 45.9938 75.1587 41.0403 71.1707 36.9823L69.7442 38.3842ZM75.1575 51.7833V77.9833H77.1575V51.7833H75.1575ZM76.1575 76.9833H72.9575V78.9833H76.1575V76.9833ZM73.9575 77.9833V51.7833H71.9575V77.9833H73.9575ZM73.9575 51.7833C73.9575 46.9179 72.2192 42.6715 68.7786 39.0904L67.3364 40.4761C70.4291 43.695 71.9575 47.4487 71.9575 51.7833H73.9575ZM68.7857 39.0979C65.3999 35.5005 61.2379 33.6833 56.3575 33.6833V35.6833C60.6771 35.6833 64.315 37.266 67.3293 40.4686L68.7857 39.0979ZM56.3575 33.6833C51.4807 33.6833 47.1702 35.4965 43.4641 39.0627L44.8509 40.5038C48.2114 37.2701 52.0342 35.6833 56.3575 35.6833V33.6833ZM43.4573 39.0693C39.8107 42.6457 37.9575 46.8985 37.9575 51.7833H39.9575C39.9575 47.4681 41.5709 43.7208 44.8577 40.4972L43.4573 39.0693ZM37.9575 51.7833V77.9833H39.9575V51.7833H37.9575ZM115.299 14.7833H116.299V13.7833H115.299V14.7833ZM115.299 17.5833V18.5833H116.299V17.5833H115.299ZM105.399 21.5833L104.701 20.8674L104.692 20.8762L105.399 21.5833ZM101.399 57.9833H100.399V58.9833H101.399V57.9833ZM115.399 57.9833H116.399V56.9833H115.399V57.9833ZM115.399 60.7833V61.7833H116.399V60.7833H115.399ZM101.399 60.7833V59.7833H100.399V60.7833H101.399ZM101.399 77.9833V78.9833H102.399V77.9833H101.399ZM98.1989 77.9833H97.1989V78.9833H98.1989V77.9833ZM103.199 19.5833L103.884 20.3119L103.891 20.3047L103.199 19.5833ZM114.299 14.7833V17.5833H116.299V14.7833H114.299ZM115.299 16.5833C111.175 16.5833 107.623 18.0161 104.701 20.8675L106.097 22.2991C108.641 19.8172 111.689 18.5833 115.299 18.5833V16.5833ZM104.692 20.8762C101.822 23.746 100.399 27.3743 100.399 31.6833H102.399C102.399 27.8589 103.642 24.7539 106.106 22.2904L104.692 20.8762ZM100.399 31.6833V57.9833H102.399V31.6833H100.399ZM101.399 58.9833H115.399V56.9833H101.399V58.9833ZM114.399 57.9833V60.7833H116.399V57.9833H114.399ZM115.399 59.7833H101.399V61.7833H115.399V59.7833ZM100.399 60.7833V77.9833H102.399V60.7833H100.399ZM101.399 76.9833H98.1989V78.9833H101.399V76.9833ZM99.1989 77.9833V31.6833H97.1989V77.9833H99.1989ZM99.1989 31.6833C99.1989 27.0018 100.768 23.2403 103.884 20.3119L102.514 18.8546C98.9626 22.1929 97.1989 26.4981 97.1989 31.6833H99.1989ZM103.891 20.3047C107.034 17.2882 110.817 15.7833 115.299 15.7833V13.7833C110.314 13.7833 106.031 15.4783 102.506 18.8619L103.891 20.3047ZM137.794 71.9833L137.072 72.6752L137.077 72.6802L137.794 71.9833ZM137.894 38.8833L138.596 39.5955L138.601 39.5904L137.894 38.8833ZM171.494 38.8833L170.782 39.5853L170.787 39.5904L170.792 39.5954L171.494 38.8833ZM171.694 71.9833L170.972 71.2916L171.694 71.9833ZM169.194 40.8833L168.476 41.5787L168.481 41.5846L169.194 40.8833ZM140.194 40.9833L139.481 40.2818L139.481 40.2819L140.194 40.9833ZM140.194 70.1833L139.481 70.8846L139.487 70.8904L139.493 70.8961L140.194 70.1833ZM169.294 70.1833L170.007 70.8845L170.013 70.8787L169.294 70.1833ZM154.294 78.0833C148.174 78.0833 142.93 75.8327 138.511 71.2863L137.077 72.6802C141.859 77.6005 147.615 80.0833 154.294 80.0833V78.0833ZM138.516 71.2914C134.085 66.6673 131.894 61.3449 131.894 55.2833H129.894C129.894 61.8883 132.304 67.6993 137.072 72.6752L138.516 71.2914ZM131.894 55.2833C131.894 49.2279 134.113 44.0148 138.596 39.5954L137.192 38.1711C132.342 42.9517 129.894 48.672 129.894 55.2833H131.894ZM138.601 39.5904C143.083 35.1091 148.429 32.8833 154.694 32.8833V30.8833C147.893 30.8833 142.039 33.3241 137.187 38.1762L138.601 39.5904ZM154.694 32.8833C161.029 32.8833 166.371 35.1108 170.782 39.5853L172.206 38.1813C167.417 33.3224 161.56 30.8833 154.694 30.8833V32.8833ZM170.792 39.5954C175.273 44.0126 177.494 49.2581 177.494 55.3833H179.494C179.494 48.7085 177.048 42.954 172.196 38.1711L170.792 39.5954ZM177.494 55.3833C177.494 61.4491 175.334 66.7372 170.972 71.2916L172.416 72.675C177.121 67.7627 179.494 61.9842 179.494 55.3833H177.494ZM170.972 71.2916C166.624 75.831 161.384 78.0833 155.194 78.0833V80.0833C161.938 80.0833 167.697 77.6022 172.416 72.675L170.972 71.2916ZM155.194 78.0833H154.294V80.0833H155.194V78.0833ZM176.294 55.5833C176.294 49.6475 174.153 44.4975 169.907 40.1819L168.481 41.5846C172.369 45.5358 174.294 50.1858 174.294 55.5833H176.294ZM169.913 40.1879C165.73 35.8658 160.673 33.6833 154.794 33.6833V35.6833C160.115 35.6833 164.658 37.6341 168.476 41.5787L169.913 40.1879ZM154.794 33.6833C148.911 33.6833 143.792 35.902 139.481 40.2818L140.907 41.6847C144.863 37.6646 149.477 35.6833 154.794 35.6833V33.6833ZM139.481 40.2819C135.238 44.5949 133.094 49.7107 133.094 55.5833H135.094C135.094 50.2559 137.017 45.6383 140.907 41.6846L139.481 40.2819ZM133.094 55.5833C133.094 61.4559 135.238 66.5716 139.481 70.8846L140.907 69.4819C137.017 65.5283 135.094 60.9107 135.094 55.5833H133.094ZM139.493 70.8961C143.806 75.1395 148.922 77.2833 154.794 77.2833V75.2833C149.467 75.2833 144.849 73.3603 140.896 69.4704L139.493 70.8961ZM154.794 77.2833C160.731 77.2833 165.821 75.1409 170.007 70.8845L168.581 69.482C164.768 73.359 160.191 75.2833 154.794 75.2833V77.2833ZM170.013 70.8787C174.188 66.5645 176.294 61.4506 176.294 55.5833H174.294C174.294 60.916 172.401 65.5354 168.576 69.4879L170.013 70.8787ZM208.284 67.5833L207.565 68.278L207.568 68.2811L208.284 67.5833ZM208.484 13.1833L209.188 13.8935L209.191 13.8904L208.484 13.1833ZM263.684 67.6833L264.4 68.3811L264.403 68.378L263.684 67.6833ZM261.184 15.1833L260.47 15.8836L260.477 15.8904L261.184 15.1833ZM210.784 15.1833L211.491 15.8904L211.494 15.887L210.784 15.1833ZM210.784 65.7833L211.494 65.0795L210.784 65.7833ZM261.184 65.7833L260.474 65.0795L261.184 65.7833ZM259.584 17.9833H260.584V16.9833H259.584V17.9833ZM259.584 62.9833V63.9833H260.584V62.9833H259.584ZM256.384 62.9833H255.384V63.9833H256.384V62.9833ZM256.384 52.4833H257.384V48.8342L255.524 51.9735L256.384 52.4833ZM247.684 60.9833L248.175 61.8544H248.175L247.684 60.9833ZM219.184 57.1833L218.477 57.8904L218.482 57.8955L219.184 57.1833ZM219.184 23.8833L219.886 24.5955L219.891 24.5904L219.184 23.8833ZM247.684 19.9833L248.175 19.1121H248.175L247.684 19.9833ZM256.384 28.4833L255.524 28.9931L257.384 32.1323V28.4833H256.384ZM256.384 17.9833V16.9833H255.384V17.9833H256.384ZM221.484 55.1833L220.771 55.8846L220.777 55.8904L220.783 55.8961L221.484 55.1833ZM250.584 55.1833L251.297 55.8845L251.303 55.8787L250.584 55.1833ZM250.484 25.8833L249.765 26.5787L249.771 26.5846L250.484 25.8833ZM221.484 25.9833L220.771 25.2818L220.771 25.2819L221.484 25.9833ZM236.684 78.2833H235.184V80.2833H236.684V78.2833ZM235.184 78.2833C225.136 78.2833 216.423 74.5039 209 66.8854L207.568 68.2811C215.345 76.2627 224.565 80.2833 235.184 80.2833V78.2833ZM209.003 66.8886C201.642 59.2662 197.984 50.4121 197.984 40.2833H195.984C195.984 50.9545 199.86 60.3004 207.565 68.278L209.003 66.8886ZM197.984 40.2833C197.984 30.0926 201.704 21.3123 209.188 13.8935L207.78 12.4731C199.931 20.2543 195.984 29.5406 195.984 40.2833H197.984ZM209.191 13.8904C216.672 6.40911 225.619 2.68327 236.084 2.68327V0.683273C225.082 0.683273 215.629 4.62411 207.777 12.4762L209.191 13.8904ZM236.084 2.68327C246.552 2.68327 255.464 6.37763 262.877 13.7904L264.291 12.3762C256.504 4.58892 247.083 0.683273 236.084 0.683273V2.68327ZM262.877 13.7904C270.294 21.2071 273.984 30.0212 273.984 40.2833H275.984C275.984 29.4787 272.074 20.1594 264.291 12.3762L262.877 13.7904ZM273.984 40.2833C273.984 50.4806 270.325 59.3675 262.965 66.9886L264.403 68.378C272.11 60.399 275.984 51.0193 275.984 40.2833H273.984ZM262.968 66.9855C255.616 74.5324 246.872 78.2833 236.684 78.2833V80.2833C247.43 80.2833 256.685 76.3008 264.4 68.3811L262.968 66.9855ZM272.684 40.4833C272.684 30.3504 269.078 21.663 261.891 14.4762L260.477 15.8904C267.29 22.7035 270.684 30.8828 270.684 40.4833H272.684ZM261.898 14.4829C254.777 7.22533 246.12 3.58327 235.984 3.58327V5.58327C245.581 5.58327 253.724 9.00789 260.47 15.8836L261.898 14.4829ZM235.984 3.58327C225.913 3.58327 217.258 7.22646 210.074 14.4795L211.494 15.887C218.31 9.00675 226.455 5.58327 235.984 5.58327V3.58327ZM210.077 14.4762C202.89 21.663 199.284 30.3504 199.284 40.4833H201.284C201.284 30.8828 204.678 22.7035 211.491 15.8904L210.077 14.4762ZM199.284 40.4833C199.284 50.5512 202.891 59.2362 210.074 66.487L211.494 65.0795C204.677 58.197 201.284 50.0153 201.284 40.4833H199.284ZM210.074 66.487C217.258 73.7401 225.913 77.3833 235.984 77.3833V75.3833C226.455 75.3833 218.31 71.9598 211.494 65.0795L210.074 66.487ZM235.984 77.3833C246.055 77.3833 254.71 73.7401 261.895 66.487L260.474 65.0795C253.658 71.9598 245.513 75.3833 235.984 75.3833V77.3833ZM261.895 66.487C269.077 59.2362 272.684 50.5512 272.684 40.4833H270.684C270.684 50.0153 267.291 58.197 260.474 65.0795L261.895 66.487ZM258.584 17.9833V62.9833H260.584V17.9833H258.584ZM259.584 61.9833H256.384V63.9833H259.584V61.9833ZM257.384 62.9833V52.4833H255.384V62.9833H257.384ZM255.524 51.9735C253.48 55.4218 250.708 58.131 247.193 60.1121L248.175 61.8544C251.993 59.7023 255.021 56.7447 257.244 52.9931L255.524 51.9735ZM247.193 60.1121C243.673 62.0959 239.942 63.0833 235.984 63.0833V65.0833C240.293 65.0833 244.361 64.0039 248.175 61.8544L247.193 60.1121ZM235.984 63.0833C229.714 63.0833 224.366 60.8873 219.886 56.4711L218.482 57.8955C223.335 62.6793 229.187 65.0833 235.984 65.0833V63.0833ZM219.891 56.4762C215.408 51.9927 213.184 46.6787 213.184 40.4833H211.184C211.184 47.2212 213.627 53.0405 218.477 57.8904L219.891 56.4762ZM213.184 40.4833C213.184 34.2883 215.407 29.0103 219.886 24.5955L218.482 23.1711C213.628 27.9562 211.184 33.7449 211.184 40.4833H213.184ZM219.891 24.5904C224.372 20.1091 229.719 17.8833 235.984 17.8833V15.8833C229.182 15.8833 223.329 18.3241 218.477 23.1762L219.891 24.5904ZM235.984 17.8833C239.942 17.8833 243.673 18.8706 247.193 20.8544L248.175 19.1121C244.361 16.9626 240.293 15.8833 235.984 15.8833V17.8833ZM247.193 20.8544C250.708 22.8356 253.48 25.5447 255.524 28.9931L257.244 27.9735C255.021 24.2218 251.993 21.2643 248.175 19.1121L247.193 20.8544ZM257.384 28.4833V17.9833H255.384V28.4833H257.384ZM256.384 18.9833H259.584V16.9833H256.384V18.9833ZM214.384 40.5833C214.384 46.4559 216.528 51.5716 220.771 55.8846L222.197 54.4819C218.307 50.5283 216.384 45.9107 216.384 40.5833H214.384ZM220.783 55.8961C225.096 60.1395 230.211 62.2833 236.084 62.2833V60.2833C230.757 60.2833 226.139 58.3603 222.185 54.4704L220.783 55.8961ZM236.084 62.2833C242.021 62.2833 247.11 60.1409 251.297 55.8845L249.871 54.482C246.058 58.359 241.481 60.2833 236.084 60.2833V62.2833ZM251.303 55.8787C255.478 51.5645 257.584 46.4506 257.584 40.5833H255.584C255.584 45.916 253.69 50.5354 249.865 54.4879L251.303 55.8787ZM257.584 40.5833C257.584 34.6475 255.443 29.4975 251.197 25.1819L249.771 26.5846C253.659 30.5358 255.584 35.1858 255.584 40.5833H257.584ZM251.203 25.1879C247.02 20.8658 241.963 18.6833 236.084 18.6833V20.6833C241.405 20.6833 245.948 22.6341 249.765 26.5787L251.203 25.1879ZM236.084 18.6833C230.201 18.6833 225.082 20.902 220.771 25.2818L222.197 26.6847C226.153 22.6646 230.767 20.6833 236.084 20.6833V18.6833ZM220.771 25.2819C216.528 29.5949 214.384 34.7107 214.384 40.5833H216.384C216.384 35.2559 218.307 30.6383 222.197 26.6846L220.771 25.2819ZM333.872 32.9833V31.9833H333.242L332.97 32.5517L333.872 32.9833ZM336.772 32.9833L337.675 33.414L338.358 31.9833H336.772V32.9833ZM314.672 79.2833L313.771 79.7156L314.674 81.6005L315.575 79.714L314.672 79.2833ZM292.472 32.9833V31.9833H290.884L291.571 33.4156L292.472 32.9833ZM295.972 32.9833L296.873 32.5498L296.601 31.9833H295.972V32.9833ZM314.972 72.4833L314.071 72.9167L314.975 74.7952L315.874 72.9149L314.972 72.4833ZM333.872 33.9833H336.772V31.9833H333.872V33.9833ZM335.87 32.5525L313.77 78.8525L315.575 79.714L337.675 33.414L335.87 32.5525ZM315.574 78.8509L293.374 32.5509L291.571 33.4156L313.771 79.7156L315.574 78.8509ZM292.472 33.9833H295.972V31.9833H292.472V33.9833ZM295.071 33.4167L314.071 72.9167L315.873 72.0498L296.873 32.5498L295.071 33.4167ZM315.874 72.9149L334.774 33.4149L332.97 32.5517L314.07 72.0517L315.874 72.9149ZM359.789 33.0833H360.789V32.0833H359.789V33.0833ZM359.789 77.9833V78.9833H360.789V77.9833H359.789ZM356.589 77.9833H355.589V78.9833H356.589V77.9833ZM356.589 33.0833V32.0833H355.589V33.0833H356.589ZM358.789 33.0833V77.9833H360.789V33.0833H358.789ZM359.789 76.9833H356.589V78.9833H359.789V76.9833ZM357.589 77.9833V33.0833H355.589V77.9833H357.589ZM356.589 34.0833H359.789V32.0833H356.589V34.0833ZM358.189 21.0833C357.359 21.0833 356.923 20.8887 356.695 20.6764C356.481 20.4766 356.289 20.1101 356.289 19.3833H354.289C354.289 20.4565 354.58 21.44 355.332 22.1402C356.071 22.8278 357.085 23.0833 358.189 23.0833V21.0833ZM356.289 19.3833C356.289 18.6565 356.481 18.29 356.695 18.0902C356.923 17.8778 357.359 17.6833 358.189 17.6833V15.6833C357.085 15.6833 356.071 15.9387 355.332 16.6264C354.58 17.3266 354.289 18.3101 354.289 19.3833H356.289ZM358.189 17.6833C359.018 17.6833 359.454 17.8778 359.682 18.0902C359.897 18.29 360.089 18.6565 360.089 19.3833H362.089C362.089 18.3101 361.797 17.3266 361.045 16.6264C360.307 15.9387 359.292 15.6833 358.189 15.6833V17.6833ZM360.089 19.3833C360.089 20.1101 359.897 20.4766 359.682 20.6764C359.454 20.8887 359.018 21.0833 358.189 21.0833V23.0833C359.292 23.0833 360.307 22.8278 361.045 22.1402C361.797 21.44 362.089 20.4565 362.089 19.3833H360.089ZM388.262 36.2833L387.615 35.5213V35.5213L388.262 36.2833ZM388.462 45.0833L387.772 45.8066L387.78 45.8143L387.788 45.8218L388.462 45.0833ZM393.862 48.9833L393.36 49.8481L393.376 49.8575L393.393 49.8664L393.862 48.9833ZM400.262 52.6833L400.792 51.8353V51.8353L400.262 52.6833ZM405.662 57.7833L404.847 58.362L404.853 58.3706L404.859 58.3791L405.662 57.7833ZM403.462 74.9833L404.144 75.7149L404.144 75.7143L403.462 74.9833ZM385.262 77.3833L384.794 78.2671L384.81 78.2752L384.825 78.2828L385.262 77.3833ZM380.262 72.6833H379.262V72.9408L379.387 73.1664L380.262 72.6833ZM380.262 67.8833L381.173 67.4711L379.262 67.8833H380.262ZM401.162 73.0833L400.498 72.3358L400.487 72.3452L401.162 73.0833ZM402.462 59.2833L401.687 59.9149L401.694 59.9234L401.701 59.9317L402.462 59.2833ZM397.062 54.6833L396.552 55.5431L397.062 54.6833ZM390.662 50.9833L390.14 51.8359L390.156 51.8457L390.172 51.8549L390.662 50.9833ZM385.262 46.4833L384.487 47.1149L384.5 47.1307L384.513 47.1458L385.262 46.4833ZM385.862 34.2833L386.513 35.0425L386.515 35.0407L385.862 34.2833ZM400.962 35.2833H401.962V34.895L401.7 34.6085L400.962 35.2833ZM400.962 39.3833L400.13 39.938L401.962 42.6861V39.3833H400.962ZM392.862 33.5833C390.889 33.5833 389.127 34.2359 387.615 35.5213L388.91 37.0452C390.064 36.0639 391.369 35.5833 392.862 35.5833V33.5833ZM387.615 35.5213C386.07 36.8338 385.262 38.5069 385.262 40.4833H387.262C387.262 39.1263 387.787 37.9994 388.91 37.0452L387.615 35.5213ZM385.262 40.4833C385.262 42.4808 386.153 44.2618 387.772 45.8066L389.153 44.3599C387.838 43.1047 387.262 41.819 387.262 40.4833H385.262ZM387.788 45.8218C389.381 47.2765 391.241 48.6175 393.36 49.8481L394.364 48.1185C392.35 46.9491 390.61 45.6901 389.136 44.3448L387.788 45.8218ZM393.393 49.8664C395.505 50.9883 397.618 52.2098 399.732 53.5313L400.792 51.8353C398.64 50.49 396.486 49.2449 394.331 48.1002L393.393 49.8664ZM399.732 53.5313C401.753 54.7941 403.456 56.4023 404.847 58.362L406.478 57.2045C404.935 55.0309 403.038 53.2391 400.792 51.8353L399.732 53.5313ZM404.859 58.3791C406.26 60.2669 406.962 62.4229 406.962 64.8833H408.962C408.962 62.0103 408.131 59.433 406.465 57.1874L404.859 58.3791ZM406.962 64.8833C406.962 68.5262 405.587 71.6321 402.78 74.2522L404.144 75.7143C407.337 72.7344 408.962 69.107 408.962 64.8833H406.962ZM402.78 74.2517C400.042 76.8037 396.722 78.0833 392.762 78.0833V80.0833C397.202 80.0833 401.016 78.6295 404.144 75.7149L402.78 74.2517ZM392.762 78.0833C390.242 78.0833 387.892 77.5491 385.699 76.4838L384.825 78.2828C387.299 79.4841 389.949 80.0833 392.762 80.0833V78.0833ZM385.73 76.4995C383.607 75.3755 382.096 73.937 381.138 72.2002L379.387 73.1664C380.562 75.2962 382.384 76.9911 384.794 78.2671L385.73 76.4995ZM381.262 72.6833V67.8833H379.262V72.6833H381.262ZM379.351 68.2954C380.675 71.221 382.429 73.4811 384.645 75.0069C386.867 76.5368 389.488 77.2833 392.462 77.2833V75.2833C389.837 75.2833 387.624 74.6298 385.779 73.3596C383.929 72.0854 382.383 70.1455 381.173 67.4711L379.351 68.2954ZM392.462 77.2833C396.152 77.2833 399.301 76.14 401.837 73.8213L400.487 72.3452C398.357 74.2932 395.705 75.2833 392.462 75.2833V77.2833ZM401.827 73.8307C404.386 71.5558 405.762 68.9342 405.762 65.9833H403.762C403.762 68.2323 402.739 70.3441 400.498 72.3359L401.827 73.8307ZM405.762 65.9833C405.762 63.1113 404.931 60.6389 403.223 58.6348L401.701 59.9317C403.06 61.5276 403.762 63.5219 403.762 65.9833H405.762ZM403.237 58.6516C401.692 56.7545 399.8 55.1459 397.573 53.8234L396.552 55.5431C398.591 56.754 400.299 58.212 401.687 59.9149L403.237 58.6516ZM397.573 53.8234C395.433 52.5528 393.293 51.3156 391.152 50.1117L390.172 51.8549C392.298 53.051 394.425 54.2804 396.552 55.5431L397.573 53.8234ZM391.185 50.1307C389.199 48.9133 387.476 47.4764 386.011 45.8207L384.513 47.1458C386.115 48.9568 387.992 50.5199 390.14 51.8359L391.185 50.1307ZM386.037 45.8516C384.717 44.231 384.062 42.3877 384.062 40.2833H382.062C382.062 42.8455 382.874 45.1356 384.487 47.1149L386.037 45.8516ZM384.062 40.2833C384.062 38.1833 384.862 36.4579 386.513 35.0425L385.211 33.524C383.129 35.3087 382.062 37.5833 382.062 40.2833H384.062ZM386.515 35.0407C388.236 33.5572 390.458 32.7833 393.262 32.7833V30.7833C390.067 30.7833 387.355 31.676 385.209 33.5259L386.515 35.0407ZM393.262 32.7833C395.965 32.7833 398.269 33.8193 400.224 35.958L401.7 34.6085C399.389 32.0806 396.56 30.7833 393.262 30.7833V32.7833ZM399.962 35.2833V39.3833H401.962V35.2833H399.962ZM401.794 38.8286C399.513 35.4074 396.526 33.5833 392.862 33.5833V35.5833C395.731 35.5833 398.144 36.9592 400.13 39.938L401.794 38.8286ZM431.937 33.0833H432.937V32.0833H431.937V33.0833ZM431.937 77.9833V78.9833H432.937V77.9833H431.937ZM428.737 77.9833H427.737V78.9833H428.737V77.9833ZM428.737 33.0833V32.0833H427.737V33.0833H428.737ZM430.937 33.0833V77.9833H432.937V33.0833H430.937ZM431.937 76.9833H428.737V78.9833H431.937V76.9833ZM429.737 77.9833V33.0833H427.737V77.9833H429.737ZM428.737 34.0833H431.937V32.0833H428.737V34.0833ZM430.337 21.0833C429.508 21.0833 429.072 20.8887 428.844 20.6764C428.629 20.4766 428.437 20.1101 428.437 19.3833H426.437C426.437 20.4565 426.729 21.44 427.481 22.1402C428.219 22.8278 429.233 23.0833 430.337 23.0833V21.0833ZM428.437 19.3833C428.437 18.6565 428.629 18.29 428.844 18.0902C429.072 17.8778 429.508 17.6833 430.337 17.6833V15.6833C429.233 15.6833 428.219 15.9387 427.481 16.6264C426.729 17.3266 426.437 18.3101 426.437 19.3833H428.437ZM430.337 17.6833C431.167 17.6833 431.603 17.8778 431.831 18.0902C432.045 18.29 432.237 18.6565 432.237 19.3833H434.237C434.237 18.3101 433.946 17.3266 433.194 16.6264C432.455 15.9387 431.441 15.6833 430.337 15.6833V17.6833ZM432.237 19.3833C432.237 20.1101 432.045 20.4766 431.831 20.6764C431.603 20.8887 431.167 21.0833 430.337 21.0833V23.0833C431.441 23.0833 432.455 22.8278 433.194 22.1402C433.946 21.44 434.237 20.4565 434.237 19.3833H432.237ZM459.611 71.9833L458.889 72.6752L458.893 72.6802L459.611 71.9833ZM459.711 38.8833L460.413 39.5955L460.418 39.5904L459.711 38.8833ZM493.311 38.8833L492.598 39.5853L492.603 39.5904L492.609 39.5954L493.311 38.8833ZM493.511 71.9833L492.788 71.2916L493.511 71.9833ZM491.011 40.8833L490.292 41.5787L490.298 41.5846L491.011 40.8833ZM462.011 40.9833L461.298 40.2818L461.298 40.2819L462.011 40.9833ZM462.011 70.1833L461.298 70.8846L461.303 70.8904L461.309 70.8961L462.011 70.1833ZM491.111 70.1833L491.824 70.8845L491.829 70.8787L491.111 70.1833ZM476.111 78.0833C469.99 78.0833 464.746 75.8327 460.328 71.2863L458.893 72.6802C463.675 77.6005 469.431 80.0833 476.111 80.0833V78.0833ZM460.333 71.2914C455.901 66.6673 453.711 61.3449 453.711 55.2833H451.711C451.711 61.8883 454.12 67.6993 458.889 72.6752L460.333 71.2914ZM453.711 55.2833C453.711 49.2279 455.929 44.0148 460.413 39.5954L459.009 38.1711C454.159 42.9517 451.711 48.672 451.711 55.2833H453.711ZM460.418 39.5904C464.899 35.1091 470.245 32.8833 476.511 32.8833V30.8833C469.709 30.8833 463.856 33.3241 459.004 38.1762L460.418 39.5904ZM476.511 32.8833C482.845 32.8833 488.188 35.1108 492.598 39.5853L494.023 38.1813C489.233 33.3224 483.376 30.8833 476.511 30.8833V32.8833ZM492.609 39.5954C497.09 44.0126 499.311 49.2581 499.311 55.3833H501.311C501.311 48.7085 498.865 42.954 494.013 38.1711L492.609 39.5954ZM499.311 55.3833C499.311 61.4491 497.15 66.7372 492.788 71.2916L494.233 72.675C498.938 67.7627 501.311 61.9842 501.311 55.3833H499.311ZM492.788 71.2916C488.441 75.831 483.2 78.0833 477.011 78.0833V80.0833C483.754 80.0833 489.514 77.6022 494.233 72.675L492.788 71.2916ZM477.011 78.0833H476.111V80.0833H477.011V78.0833ZM498.111 55.5833C498.111 49.6475 495.969 44.4975 491.723 40.1819L490.298 41.5846C494.185 45.5358 496.111 50.1858 496.111 55.5833H498.111ZM491.729 40.1879C487.547 35.8658 482.49 33.6833 476.611 33.6833V35.6833C481.932 35.6833 486.475 37.6341 490.292 41.5787L491.729 40.1879ZM476.611 33.6833C470.727 33.6833 465.608 35.902 461.298 40.2818L462.723 41.6847C466.68 37.6646 471.294 35.6833 476.611 35.6833V33.6833ZM461.298 40.2819C457.054 44.5949 454.911 49.7107 454.911 55.5833H456.911C456.911 50.2559 458.834 45.6383 462.723 41.6846L461.298 40.2819ZM454.911 55.5833C454.911 61.4559 457.054 66.5716 461.298 70.8846L462.723 69.4819C458.834 65.5283 456.911 60.9107 456.911 55.5833H454.911ZM461.309 70.8961C465.622 75.1395 470.738 77.2833 476.611 77.2833V75.2833C471.283 75.2833 466.666 73.3603 462.712 69.4704L461.309 70.8961ZM476.611 77.2833C482.547 77.2833 487.637 75.1409 491.824 70.8845L490.398 69.482C486.584 73.359 482.007 75.2833 476.611 75.2833V77.2833ZM491.829 70.8787C496.004 66.5645 498.111 61.4506 498.111 55.5833H496.111C496.111 60.916 494.217 65.5354 490.392 69.4879L491.829 70.8787ZM523 77.9833V78.9833H524V77.9833H523ZM519.8 77.9833H518.8V78.9833H519.8V77.9833ZM519.8 32.9833V31.9833H518.8V32.9833H519.8ZM523 32.9833H524V31.9833H523V32.9833ZM523 42.0833H522L523.895 42.5305L523 42.0833ZM554.5 37.6833L553.787 38.3842V38.3842L554.5 37.6833ZM560.2 77.9833V78.9833H561.2V77.9833H560.2ZM557 77.9833H556V78.9833H557V77.9833ZM552.1 39.7833L551.372 40.4687L551.379 40.4761L552.1 39.7833ZM528.2 39.7833L527.507 39.0627L527.5 39.0693L528.2 39.7833ZM523 76.9833H519.8V78.9833H523V76.9833ZM520.8 77.9833V32.9833H518.8V77.9833H520.8ZM519.8 33.9833H523V31.9833H519.8V33.9833ZM522 32.9833V42.0833H524V32.9833H522ZM523.895 42.5305C525.52 39.2803 527.694 36.8856 530.406 35.296C533.122 33.7037 536.439 32.8833 540.4 32.8833V30.8833C536.162 30.8833 532.479 31.7628 529.395 33.5706C526.306 35.3809 523.881 38.0862 522.106 41.6361L523.895 42.5305ZM540.4 32.8833C545.742 32.8833 550.182 34.7158 553.787 38.3842L555.214 36.9823C551.219 32.9174 546.259 30.8833 540.4 30.8833V32.8833ZM553.787 38.3842C557.399 42.0596 559.2 46.5061 559.2 51.7833H561.2C561.2 45.9938 559.202 41.0403 555.214 36.9823L553.787 38.3842ZM559.2 51.7833V77.9833H561.2V51.7833H559.2ZM560.2 76.9833H557V78.9833H560.2V76.9833ZM558 77.9833V51.7833H556V77.9833H558ZM558 51.7833C558 46.9179 556.262 42.6715 552.822 39.0904L551.379 40.4761C554.472 43.695 556 47.4487 556 51.7833H558ZM552.829 39.0979C549.443 35.5005 545.281 33.6833 540.4 33.6833V35.6833C544.72 35.6833 548.358 37.266 551.372 40.4686L552.829 39.0979ZM540.4 33.6833C535.524 33.6833 531.213 35.4965 527.507 39.0627L528.894 40.5038C532.254 37.2701 536.077 35.6833 540.4 35.6833V33.6833ZM527.5 39.0693C523.854 42.6457 522 46.8985 522 51.7833H524C524 47.4681 525.614 43.7208 528.901 40.4972L527.5 39.0693ZM522 51.7833V77.9833H524V51.7833H522ZM599.442 50.6833L598.605 50.1351L598.244 50.6865L598.608 51.2359L599.442 50.6833ZM617.542 77.9833V78.9833H619.405L618.375 77.4307L617.542 77.9833ZM613.842 77.9833L613.008 78.5348L613.304 78.9833H613.842V77.9833ZM597.642 53.4833L598.476 52.9317L597.639 51.6663L596.806 52.9341L597.642 53.4833ZM581.542 77.9833V78.9833H582.081L582.378 78.5325L581.542 77.9833ZM578.342 77.9833L577.505 77.435L576.491 78.9833H578.342V77.9833ZM596.042 50.9833L596.878 51.5315L597.239 50.981L596.876 50.4318L596.042 50.9833ZM584.142 32.9833V31.9833H582.282L583.308 33.5348L584.142 32.9833ZM587.842 32.9833L588.677 32.4337L588.381 31.9833H587.842V32.9833ZM597.842 48.1833L597.006 48.7329L597.842 50.0027L598.677 48.7329L597.842 48.1833ZM607.842 32.9833V31.9833H607.303L607.006 32.4337L607.842 32.9833ZM611.042 32.9833L611.878 33.5314L612.893 31.9833H611.042V32.9833ZM598.608 51.2359L616.708 78.5359L618.375 77.4307L600.275 50.1307L598.608 51.2359ZM617.542 76.9833H613.842V78.9833H617.542V76.9833ZM614.676 77.4317L598.476 52.9317L596.808 54.0348L613.008 78.5348L614.676 77.4317ZM596.806 52.9341L580.706 77.4341L582.378 78.5325L598.478 54.0325L596.806 52.9341ZM581.542 76.9833H578.342V78.9833H581.542V76.9833ZM579.178 78.5315L596.878 51.5315L595.206 50.435L577.505 77.435L579.178 78.5315ZM596.876 50.4318L584.976 32.4318L583.308 33.5348L595.208 51.5348L596.876 50.4318ZM584.142 33.9833H587.842V31.9833H584.142V33.9833ZM587.006 33.5329L597.006 48.7329L598.677 47.6337L588.677 32.4337L587.006 33.5329ZM598.677 48.7329L608.677 33.5329L607.006 32.4337L597.006 47.6337L598.677 48.7329ZM607.842 33.9833H611.042V31.9833H607.842V33.9833ZM610.205 32.4351L598.605 50.1351L600.278 51.2314L611.878 33.5314L610.205 32.4351ZM636.404 77.6833C635.403 77.6833 634.839 77.4532 634.527 77.1693C634.234 76.9014 634.004 76.4375 634.004 75.5833H632.004C632.004 76.7958 632.34 77.8818 633.18 78.6472C634.002 79.3967 635.138 79.6833 636.404 79.6833V77.6833ZM634.004 75.5833C634.004 74.7291 634.234 74.2651 634.527 73.9972C634.839 73.7134 635.403 73.4833 636.404 73.4833V71.4833C635.138 71.4833 634.002 71.7698 633.18 72.5193C632.34 73.2848 632.004 74.3708 632.004 75.5833H634.004ZM636.404 73.4833C637.444 73.4833 638.037 73.7163 638.365 74.0069C638.67 74.277 638.904 74.7377 638.904 75.5833H640.904C640.904 74.3622 640.553 73.2729 639.692 72.5097C638.853 71.7669 637.696 71.4833 636.404 71.4833V73.4833ZM638.904 75.5833C638.904 76.4289 638.67 76.8896 638.365 77.1597C638.037 77.4503 637.444 77.6833 636.404 77.6833V79.6833C637.696 79.6833 638.853 79.3996 639.692 78.6569C640.553 77.8936 640.904 76.8043 640.904 75.5833H638.904ZM704.271 2.98327H705.271V1.98327H704.271V2.98327ZM704.271 77.9833V78.9833H705.271V77.9833H704.271ZM701.071 77.9833H700.071V78.9833H701.071V77.9833ZM701.071 67.0833H702.071L700.193 66.6044L701.071 67.0833ZM692.371 75.8833L692.86 76.7553L692.872 76.7487L692.371 75.8833ZM663.771 72.1833L663.059 72.8853L663.064 72.8904L663.069 72.8955L663.771 72.1833ZM663.771 38.8833L663.064 38.1762V38.1762L663.771 38.8833ZM692.571 35.1833L692.07 36.0487L692.076 36.0524L692.571 35.1833ZM701.071 43.9833L700.173 44.4239L702.071 43.9833H701.071ZM701.071 2.98327V1.98327H700.071V2.98327H701.071ZM666.071 70.1833L665.352 70.8787L665.358 70.8845L666.071 70.1833ZM695.071 70.1833L695.778 70.8904L695.071 70.1833ZM695.071 40.9833L694.352 41.6789L694.358 41.6847L694.364 41.6904L695.071 40.9833ZM666.071 40.8833L665.358 40.1819L665.352 40.1879L666.071 40.8833ZM703.271 2.98327V77.9833H705.271V2.98327H703.271ZM704.271 76.9833H701.071V78.9833H704.271V76.9833ZM702.071 77.9833V67.0833H700.071V77.9833H702.071ZM700.193 66.6044C698.285 70.1017 695.52 72.9048 691.87 75.0178L692.872 76.7487C696.822 74.4618 699.856 71.3982 701.949 67.5621L700.193 66.6044ZM691.881 75.0113C688.217 77.0684 684.484 78.0833 680.671 78.0833V80.0833C684.857 80.0833 688.924 78.9648 692.86 76.7553L691.881 75.0113ZM680.671 78.0833C674.331 78.0833 668.951 75.8852 664.473 71.4711L663.069 72.8955C667.924 77.6814 673.81 80.0833 680.671 80.0833V78.0833ZM664.483 71.4813C660.065 66.9989 657.871 61.6833 657.871 55.4833H655.871C655.871 62.2166 658.277 68.0343 663.059 72.8853L664.483 71.4813ZM657.871 55.4833C657.871 49.2836 660.064 44.0041 664.478 39.5904L663.064 38.1762C658.277 42.9624 655.871 48.7496 655.871 55.4833H657.871ZM664.478 39.5904C668.957 35.1113 674.336 32.8833 680.671 32.8833V30.8833C673.806 30.8833 667.918 33.322 663.064 38.1762L664.478 39.5904ZM680.671 32.8833C684.617 32.8833 688.412 33.9312 692.07 36.0487L693.072 34.3178C689.129 32.0354 684.991 30.8833 680.671 30.8833V32.8833ZM692.076 36.0524C695.785 38.1625 698.469 40.9534 700.173 44.4239L701.968 43.5426C700.072 39.6798 697.09 36.604 693.065 34.3141L692.076 36.0524ZM702.071 43.9833V2.98327H700.071V43.9833H702.071ZM701.071 3.98327H704.271V1.98327H701.071V3.98327ZM659.071 55.5833C659.071 61.4506 661.177 66.5645 665.352 70.8787L666.789 69.4879C662.964 65.5354 661.071 60.916 661.071 55.5833H659.071ZM665.358 70.8845C669.542 75.1383 674.597 77.2833 680.471 77.2833V75.2833C675.144 75.2833 670.6 73.3616 666.784 69.482L665.358 70.8845ZM680.471 77.2833C686.407 77.2833 691.527 75.1414 695.778 70.8904L694.364 69.4762C690.481 73.3584 685.868 75.2833 680.471 75.2833V77.2833ZM695.778 70.8904C700.09 66.5787 702.271 61.4612 702.271 55.5833H700.271C700.271 60.9054 698.319 65.5212 694.364 69.4762L695.778 70.8904ZM702.271 55.5833C702.271 49.7054 700.09 44.5879 695.778 40.2762L694.364 41.6904C698.319 45.6453 700.271 50.2612 700.271 55.5833H702.271ZM695.789 40.2877C691.543 35.9027 686.455 33.6833 680.571 33.6833V35.6833C685.887 35.6833 690.465 37.6639 694.352 41.6789L695.789 40.2877ZM680.571 33.6833C674.692 33.6833 669.605 35.8651 665.358 40.1819L666.784 41.5846C670.67 37.6348 675.249 35.6833 680.571 35.6833V33.6833ZM665.352 40.1879C661.175 44.5046 659.071 49.6527 659.071 55.5833H661.071C661.071 50.1805 662.967 45.5287 666.789 41.5787L665.352 40.1879ZM731.304 72.0833L730.587 72.7804L730.597 72.7904L731.304 72.0833ZM731.304 38.9833L732.006 39.6955L732.011 39.6904L731.304 38.9833ZM766.304 40.1833L767.007 40.8949L767.687 40.2231L767.047 39.5133L766.304 40.1833ZM734.904 71.1833L734.202 70.4717L733.402 71.2617L734.28 71.9641L734.904 71.1833ZM758.104 73.6833L758.602 74.5504L758.608 74.5471L758.104 73.6833ZM766.004 66.2833H767.004V63.01L765.175 65.7244L766.004 66.2833ZM766.004 71.3833L766.744 72.0564L767.004 71.7703V71.3833H766.004ZM733.604 40.9833L734.311 41.6904L733.604 40.9833ZM732.804 69.0833L732.055 69.7453L732.757 70.5399L733.509 69.7928L732.804 69.0833ZM761.904 40.1833L762.609 40.8928L763.372 40.1353L762.561 39.4292L761.904 40.1833ZM748.804 78.1833H747.904V80.1833H748.804V78.1833ZM747.904 78.1833C741.853 78.1833 736.569 75.9338 732.011 71.3762L730.597 72.7904C735.506 77.6994 741.289 80.1833 747.904 80.1833V78.1833ZM732.021 71.3862C727.525 66.7611 725.304 61.4403 725.304 55.3833H723.304C723.304 61.9929 725.751 67.8055 730.587 72.7804L732.021 71.3862ZM725.304 55.3833C725.304 49.3279 727.523 44.1148 732.006 39.6955L730.602 38.2711C725.752 43.0517 723.304 48.772 723.304 55.3833H725.304ZM732.011 39.6904C736.482 35.2195 741.991 32.9833 748.604 32.9833V30.9833C741.484 30.9833 735.46 33.4137 730.597 38.2762L732.011 39.6904ZM748.604 32.9833C755.166 32.9833 760.803 35.5796 765.562 40.8532L767.047 39.5133C761.939 33.8536 755.776 30.9833 748.604 30.9833V32.9833ZM765.602 39.4716L734.202 70.4717L735.607 71.8949L767.007 40.8949L765.602 39.4716ZM734.28 71.9641C738.722 75.5184 743.103 77.3833 747.404 77.3833V75.3833C743.705 75.3833 739.753 73.7814 735.529 70.4024L734.28 71.9641ZM747.404 77.3833C751.56 77.3833 755.302 76.4465 758.602 74.5504L757.606 72.8162C754.64 74.52 751.249 75.3833 747.404 75.3833V77.3833ZM758.608 74.5471C761.938 72.6047 764.683 70.0339 766.834 66.8421L765.175 65.7244C763.193 68.666 760.671 71.0285 757.6 72.8195L758.608 74.5471ZM765.004 66.2833V71.3833H767.004V66.2833H765.004ZM765.265 70.7101C760.711 75.7124 755.242 78.1833 748.804 78.1833V80.1833C755.833 80.1833 761.831 77.4542 766.744 72.0564L765.265 70.7101ZM747.704 33.7833C742.142 33.7833 737.195 35.9779 732.897 40.2762L734.311 41.6904C738.28 37.722 742.733 35.7833 747.704 35.7833V33.7833ZM732.897 40.2762C728.659 44.5141 726.504 49.4626 726.504 55.0833H728.504C728.504 50.0373 730.416 45.5857 734.311 41.6904L732.897 40.2762ZM726.504 55.0833C726.504 60.6606 728.36 65.5627 732.055 69.7453L733.554 68.4212C730.182 64.6039 728.504 60.1726 728.504 55.0833H726.504ZM733.509 69.7928L762.609 40.8928L761.2 39.4737L732.1 68.3737L733.509 69.7928ZM762.561 39.4292C758.251 35.6754 753.286 33.7833 747.704 33.7833V35.7833C752.789 35.7833 757.291 37.4911 761.248 40.9374L762.561 39.4292ZM823.716 32.9833V31.9833H823.086L822.814 32.5517L823.716 32.9833ZM826.616 32.9833L827.518 33.414L828.201 31.9833H826.616V32.9833ZM804.516 79.2833L803.614 79.7156L804.518 81.6005L805.419 79.714L804.516 79.2833ZM782.316 32.9833V31.9833H780.728L781.414 33.4156L782.316 32.9833ZM785.816 32.9833L786.717 32.5498L786.445 31.9833H785.816V32.9833ZM804.816 72.4833L803.915 72.9167L804.818 74.7952L805.718 72.9149L804.816 72.4833ZM823.716 33.9833H826.616V31.9833H823.716V33.9833ZM825.714 32.5525L803.614 78.8525L805.419 79.714L827.518 33.414L825.714 32.5525ZM805.418 78.8509L783.218 32.5509L781.414 33.4156L803.614 79.7156L805.418 78.8509ZM782.316 33.9833H785.816V31.9833H782.316V33.9833ZM784.915 33.4167L803.915 72.9167L805.717 72.0498L786.717 32.5498L784.915 33.4167ZM805.718 72.9149L824.618 33.4149L822.814 32.5517L803.914 72.0517L805.718 72.9149Z" fill="#FF0000"/>
</svg>
