<svg width="1217" height="368" fill="none" xmlns="http://www.w3.org/2000/svg"><g filter="url(#filter0_d)" fill="red"><path d="M17.907 267.7c-.933 0-1.766-.333-2.5-1-.666-.667-1-1.5-1-2.5 0-.933.334-1.733 1-2.4.734-.667 1.567-1 2.5-1 .934 0 1.734.333 2.4 1 .734.667 1.1 1.467 1.1 2.4 0 1-.366 1.833-1.1 2.5-.666.667-1.466 1-2.4 1zm-1.6 10.3h3.2v45h-3.2v-45zm26.11 0h3.2v10c1.467-3.333 3.967-6 7.5-8 3.534-2.067 7.434-3.1 11.7-3.1 5.534 0 9.9 1.767 13.1 5.3 3.267 3.467 4.9 8.333 4.9 14.6V323h-3.2v-26.2c0-5.4-1.333-9.6-4-12.6-2.6-3-6.266-4.5-11-4.5-3.466 0-6.666.8-9.6 2.4a18.198 18.198 0 0 0-6.9 6.4c-1.666 2.733-2.5 5.833-2.5 9.3V323h-3.2v-45zm78.128-16c-2.534 0-4.867.633-7 1.9-2.134 1.2-3.834 2.9-5.1 5.1-1.2 2.133-1.8 4.5-1.8 7.1v1.9h13.9v2.8h-13.9V323h-3.2v-46.9c0-3.133.733-5.967 2.2-8.5 1.533-2.6 3.6-4.633 6.2-6.1 2.666-1.533 5.566-2.3 8.7-2.3v2.8zm37.886 62.6c-4.534 0-8.634-1.1-12.3-3.3-3.667-2.267-6.534-5.233-8.6-8.9-2.067-3.733-3.1-7.767-3.1-12.1 0-4.267 1.033-8.233 3.1-11.9 2.133-3.667 5-6.567 8.6-8.7 3.666-2.2 7.733-3.3 12.2-3.3 4.4 0 8.4 1.1 12 3.3 3.666 2.133 6.533 5.033 8.6 8.7 2.066 3.667 3.1 7.633 3.1 11.9 0 4.467-1 8.567-3 12.3-2 3.667-4.8 6.6-8.4 8.8-3.534 2.133-7.6 3.2-12.2 3.2zm0-2.8c3.8 0 7.266-.967 10.4-2.9 3.133-1.933 5.566-4.5 7.3-7.7 1.8-3.267 2.7-6.833 2.7-10.7 0-3.8-.9-7.333-2.7-10.6-1.8-3.267-4.267-5.867-7.4-7.8-3.134-1.933-6.6-2.9-10.4-2.9-3.8 0-7.3 1-10.5 3-3.134 1.933-5.634 4.533-7.5 7.8-1.8 3.267-2.7 6.8-2.7 10.6s.9 7.333 2.7 10.6c1.866 3.2 4.366 5.767 7.5 7.7 3.2 1.933 6.733 2.9 10.6 2.9zm78.48 2.5c-6.733 0-13.033-1.8-18.9-5.4-5.866-3.6-10.566-8.4-14.1-14.4-3.466-6-5.2-12.433-5.2-19.3 0-6.8 1.767-13.167 5.3-19.1 3.534-5.933 8.3-10.633 14.3-14.1 6-3.533 12.5-5.3 19.5-5.3 7.067 0 13.567 1.767 19.5 5.3 5.934 3.467 10.634 8.167 14.1 14.1 3.534 5.867 5.3 12.233 5.3 19.1 0 6.867-1.733 13.333-5.2 19.4-3.466 6-8.166 10.8-14.1 14.4-5.866 3.533-12.2 5.3-19 5.3h-1.5zm.8-2.9c6.4 0 12.334-1.633 17.8-4.9 5.467-3.267 9.8-7.633 13-13.1 3.267-5.533 4.9-11.533 4.9-18 0-6.4-1.6-12.333-4.8-17.8-3.2-5.533-7.533-9.9-13-13.1-5.466-3.267-11.4-4.9-17.8-4.9-6.466 0-12.433 1.633-17.9 4.9-5.466 3.2-9.833 7.567-13.1 13.1-3.2 5.467-4.8 11.4-4.8 17.8 0 6.467 1.6 12.467 4.8 18 3.267 5.467 7.634 9.833 13.1 13.1 5.467 3.267 11.4 4.9 17.8 4.9zm0-12.3c-4.266 0-8.233-1.067-11.9-3.2-3.666-2.133-6.566-5-8.7-8.6-2.133-3.667-3.2-7.6-3.2-11.8 0-4.2 1.067-8.1 3.2-11.7 2.134-3.667 5.034-6.567 8.7-8.7 3.667-2.133 7.634-3.2 11.9-3.2 4.134 0 8.034 1.033 11.7 3.1 3.667 2.067 6.567 4.9 8.7 8.5V263h3.2v45h-3.2v-10.5c-2.133 3.6-5.033 6.433-8.7 8.5-3.666 2.067-7.566 3.1-11.7 3.1zm.2-2.8c3.667 0 7.067-.933 10.2-2.8 3.134-1.933 5.6-4.467 7.4-7.6 1.867-3.2 2.8-6.667 2.8-10.4 0-3.667-.933-7.1-2.8-10.3-1.866-3.2-4.366-5.733-7.5-7.6-3.133-1.933-6.533-2.9-10.2-2.9-3.666 0-7.1.967-10.3 2.9-3.133 1.933-5.666 4.5-7.6 7.7-1.866 3.2-2.8 6.633-2.8 10.3 0 3.667.934 7.1 2.8 10.3 1.934 3.133 4.5 5.667 7.7 7.6 3.2 1.867 6.634 2.8 10.3 2.8zm68.988 17.8c-3.2 0-6.033-.533-8.5-1.6-2.466-1.133-4.233-2.567-5.3-4.3v-5.3c1.267 2.867 3 5 5.2 6.4 2.2 1.333 5 2 8.4 2 3.267 0 5.9-1 7.9-3 2-2.067 3-4.7 3-7.9 0-2.733-.566-4.833-1.7-6.3-1.133-1.533-2.966-3.067-5.5-4.6l-3.8-2.2c-2.733-1.667-4.8-2.967-6.2-3.9-1.333-1-2.4-2.1-3.2-3.3-.8-1.267-1.2-2.733-1.2-4.4 0-2.667.934-4.8 2.8-6.4 1.867-1.6 4.3-2.4 7.3-2.4 3.667 0 6.734.833 9.2 2.5v4.4c-2.066-2.733-5.033-4.1-8.9-4.1-2.133 0-3.866.533-5.2 1.6-1.333 1.067-2 2.433-2 4.1 0 1.467.4 2.767 1.2 3.9.8 1.067 1.9 2.067 3.3 3 1.467.933 3.867 2.333 7.2 4.2 3.4 1.933 5.9 3.933 7.5 6 1.6 2 2.4 4.633 2.4 7.9 0 4.133-1.366 7.467-4.1 10-2.666 2.467-5.933 3.7-9.8 3.7zm47.966-.5c-4.933 0-9.033-1.5-12.3-4.5-3.2-3-4.8-7.133-4.8-12.4v-46.8h3.2V278h13.8v2.8h-13.8v25.9c0 4.4 1.3 7.867 3.9 10.4 2.667 2.467 6 3.7 10 3.7v2.8zm20.312-55.9c-.934 0-1.767-.333-2.5-1-.667-.667-1-1.5-1-2.5 0-.933.333-1.733 1-2.4.733-.667 1.566-1 2.5-1 .933 0 1.733.333 2.4 1 .733.667 1.1 1.467 1.1 2.4 0 1-.367 1.833-1.1 2.5-.667.667-1.467 1-2.4 1zm-1.6 10.3h3.2v45h-3.2v-45zm43.21 45.9c-3.133 0-6-.7-8.6-2.1-2.6-1.467-4.667-3.5-6.2-6.1-1.533-2.6-2.3-5.5-2.3-8.7v-59h3.2v59c0 2.667.6 5.067 1.8 7.2a14.388 14.388 0 0 0 5.1 5.1c2.133 1.2 4.467 1.8 7 1.8v2.8zm41.941.2c-4.066 0-8-1.1-11.8-3.3-3.733-2.2-6.6-5.1-8.6-8.7V323h-3.2v-75h3.2v41.4c1.8-3.8 4.6-6.833 8.4-9.1 3.8-2.267 7.8-3.4 12-3.4 4.334 0 8.3 1.067 11.9 3.2 3.667 2.133 6.567 5 8.7 8.6 2.134 3.6 3.2 7.533 3.2 11.8s-1.066 8.2-3.2 11.8c-2.133 3.6-5.033 6.467-8.7 8.6-3.6 2.133-7.566 3.2-11.9 3.2zm.2-2.8c3.667 0 7.067-.933 10.2-2.8 3.134-1.933 5.6-4.467 7.4-7.6 1.867-3.2 2.8-6.667 2.8-10.4 0-3.667-.933-7.1-2.8-10.3-1.866-3.2-4.366-5.733-7.5-7.6-3.133-1.933-6.533-2.9-10.2-2.9-3.666 0-7.1.967-10.3 2.9-3.133 1.933-5.666 4.5-7.6 7.7-1.866 3.2-2.8 6.633-2.8 10.3 0 3.667.934 7.1 2.8 10.3 1.934 3.133 4.5 5.667 7.7 7.6 3.2 1.867 6.634 2.8 10.3 2.8zm40.646-43.3h3.2v10.4c1.333-3.267 3.266-5.833 5.8-7.7 2.6-1.867 5.533-2.8 8.8-2.8 2.066 0 4.166.433 6.3 1.3v3.7c-1.934-1.467-4.1-2.2-6.5-2.2-2.4 0-4.734.733-7 2.2-2.2 1.467-4 3.433-5.4 5.9-1.334 2.467-2 5.1-2 7.9V323h-3.2v-45zm59.831 46.1c-6.333 0-11.233-1.733-14.7-5.2-3.4-3.467-5.1-8.367-5.1-14.7V278h3.2v26.2c0 5.467 1.433 9.7 4.3 12.7 2.933 2.933 7.033 4.4 12.3 4.4 3.2 0 6.133-.7 8.8-2.1 2.667-1.467 4.767-3.5 6.3-6.1 1.533-2.6 2.3-5.567 2.3-8.9V278h3.2v45h-3.2v-8.4c-1.533 2.8-3.833 5.1-6.9 6.9-3.067 1.733-6.567 2.6-10.5 2.6zm62.427.2c-4.333 0-8.333-1.033-12-3.1-3.6-2.067-6.466-4.9-8.6-8.5-2.133-3.6-3.2-7.667-3.2-12.2 0-4.2 1.067-8.067 3.2-11.6 2.134-3.6 5.034-6.467 8.7-8.6 3.734-2.133 7.834-3.2 12.3-3.2 3.734 0 6.934.6 9.6 1.8 2.667 1.2 5.267 3.067 7.8 5.6v5.4c-2.2-3.267-4.666-5.733-7.4-7.4-2.666-1.733-6-2.6-10-2.6-3.666 0-7.133.967-10.4 2.9-3.2 1.867-5.766 4.4-7.7 7.6-1.933 3.2-2.9 6.633-2.9 10.3 0 4 .934 7.6 2.8 10.8 1.867 3.133 4.367 5.6 7.5 7.4 3.2 1.733 6.634 2.6 10.3 2.6 7.467 0 13.4-3.367 17.8-10.1v5.4c-2.4 2.533-5.066 4.433-8 5.7-2.866 1.2-6.133 1.8-9.8 1.8zm34.652-76.3h3.2v39.3c1.4-3 3.767-5.467 7.1-7.4 3.4-2 6.833-3 10.3-3 6.333 0 11.2 1.733 14.6 5.2 3.467 3.467 5.2 8.367 5.2 14.7V323h-3.2v-26.2c0-5.467-1.467-9.667-4.4-12.6-2.867-3-6.933-4.5-12.2-4.5-3.2 0-6.133.767-8.8 2.3-2.667 1.467-4.767 3.533-6.3 6.2-1.533 2.6-2.3 5.467-2.3 8.6V323h-3.2v-75zm61.627 75.9c-.933 0-1.766-.333-2.5-1-.666-.667-1-1.5-1-2.5 0-.933.334-1.733 1-2.4.734-.667 1.567-1 2.5-1 .934 0 1.734.333 2.4 1 .734.667 1.1 1.467 1.1 2.4 0 1-.366 1.833-1.1 2.5-.666.667-1.466 1-2.4 1zm42.467.2c-4.333 0-8.333-1.067-12-3.2-3.6-2.133-6.466-5-8.6-8.6-2.133-3.6-3.2-7.533-3.2-11.8s1.067-8.2 3.2-11.8c2.134-3.6 5-6.467 8.6-8.6 3.667-2.133 7.667-3.2 12-3.2 4.2 0 8.2 1.133 12 3.4 3.8 2.2 6.6 5.1 8.4 8.7v-41h3.2v75h-3.2v-10.9c-2 3.6-4.9 6.5-8.7 8.7-3.733 2.2-7.633 3.3-11.7 3.3zm-.1-2.8c3.667 0 7.067-.933 10.2-2.8 3.2-1.933 5.734-4.467 7.6-7.6 1.934-3.2 2.9-6.633 2.9-10.3 0-3.667-.966-7.1-2.9-10.3-1.866-3.2-4.4-5.767-7.6-7.7-3.133-1.933-6.533-2.9-10.2-2.9-3.666 0-7.066.967-10.2 2.9-3.133 1.867-5.633 4.4-7.5 7.6-1.866 3.2-2.8 6.633-2.8 10.3 0 3.733.9 7.2 2.7 10.4 1.867 3.133 4.367 5.667 7.5 7.6 3.2 1.867 6.634 2.8 10.3 2.8zm66.222.1c3.467 0 6.767-.9 9.9-2.7 3.134-1.8 5.734-4.267 7.8-7.4v5.1c-2.466 2.733-5.166 4.733-8.1 6-2.933 1.2-6.266 1.8-10 1.8-4.133 0-8.033-1.1-11.7-3.3-3.6-2.2-6.5-5.133-8.7-8.8-2.133-3.667-3.2-7.567-3.2-11.7 0-4.467 1.067-8.467 3.2-12 2.134-3.6 5.034-6.4 8.7-8.4 3.734-2 7.867-3 12.4-3 6.934 0 12.834 2.733 17.7 8.2l-31.4 31c2.2 1.8 4.334 3.133 6.4 4 2.067.8 4.4 1.2 7 1.2zm-20.8-21.3c0 5.533 1.834 10.267 5.5 14.2l29.3-29.1c-2.2-1.933-4.333-3.3-6.4-4.1-2.066-.867-4.533-1.3-7.4-1.3-4.066 0-7.7.9-10.9 2.7-3.133 1.733-5.6 4.133-7.4 7.2-1.8 3.067-2.7 6.533-2.7 10.4zm67.703 24c-3.2 0-6.034-.533-8.5-1.6-2.467-1.133-4.234-2.567-5.3-4.3v-5.3c1.266 2.867 3 5 5.2 6.4 2.2 1.333 5 2 8.4 2 3.266 0 5.9-1 7.9-3 2-2.067 3-4.7 3-7.9 0-2.733-.567-4.833-1.7-6.3-1.134-1.533-2.967-3.067-5.5-4.6l-3.8-2.2c-2.734-1.667-4.8-2.967-6.2-3.9-1.334-1-2.4-2.1-3.2-3.3-.8-1.267-1.2-2.733-1.2-4.4 0-2.667.933-4.8 2.8-6.4 1.866-1.6 4.3-2.4 7.3-2.4 3.666 0 6.733.833 9.2 2.5v4.4c-2.067-2.733-5.034-4.1-8.9-4.1-2.134 0-3.867.533-5.2 1.6-1.334 1.067-2 2.433-2 4.1 0 1.467.4 2.767 1.2 3.9.8 1.067 1.9 2.067 3.3 3 1.466.933 3.866 2.333 7.2 4.2 3.4 1.933 5.9 3.933 7.5 6 1.6 2 2.4 4.633 2.4 7.9 0 4.133-1.367 7.467-4.1 10-2.667 2.467-5.934 3.7-9.8 3.7zm35.765-56.4c-.933 0-1.766-.333-2.5-1-.666-.667-1-1.5-1-2.5 0-.933.334-1.733 1-2.4.734-.667 1.567-1 2.5-1 .934 0 1.734.333 2.4 1 .734.667 1.1 1.467 1.1 2.4 0 1-.366 1.833-1.1 2.5-.666.667-1.466 1-2.4 1zm-1.6 10.3h3.2v45h-3.2v-45zm47.81 65.8c-3.8 0-7.5-.867-11.1-2.6-3.6-1.733-6.4-4-8.4-6.8v-4.6c1.734 3.2 4.434 5.867 8.1 8 3.734 2.133 7.534 3.2 11.4 3.2 6.4 0 11.334-1.9 14.8-5.7 3.467-3.733 5.2-9.233 5.2-16.5v-6.7c-1.8 3.6-4.633 6.533-8.5 8.8-3.8 2.2-7.8 3.3-12 3.3-4.266 0-8.233-1.067-11.9-3.2-3.666-2.133-6.566-5-8.7-8.6-2.133-3.667-3.2-7.6-3.2-11.8 0-4.2 1.067-8.1 3.2-11.7 2.134-3.667 5.034-6.567 8.7-8.7 3.667-2.133 7.634-3.2 11.9-3.2 4.4 0 8.467 1.1 12.2 3.3 3.734 2.2 6.5 5.167 8.3 8.9V278h3.2v40.8c0 8.2-2 14.4-6 18.6-3.933 4.267-9.666 6.4-17.2 6.4zm-.3-22.4c3.667 0 7.067-.933 10.2-2.8 3.134-1.933 5.6-4.467 7.4-7.6 1.867-3.2 2.8-6.667 2.8-10.4 0-3.733-.933-7.167-2.8-10.3-1.8-3.2-4.266-5.733-7.4-7.6-3.133-1.933-6.533-2.9-10.2-2.9-3.733 0-7.2.967-10.4 2.9-3.133 1.867-5.666 4.4-7.6 7.6-1.866 3.133-2.8 6.567-2.8 10.3 0 3.733.934 7.2 2.8 10.4a23.018 23.018 0 0 0 7.6 7.6c3.2 1.867 6.667 2.8 10.4 2.8zm44.12-43.4h3.202v10c1.46-3.333 3.96-6 7.5-8 3.53-2.067 7.43-3.1 11.7-3.1 5.53 0 9.9 1.767 13.1 5.3 3.26 3.467 4.9 8.333 4.9 14.6V323h-3.2v-26.2c0-5.4-1.34-9.6-4-12.6-2.6-3-6.27-4.5-11-4.5-3.47 0-6.67.8-9.6 2.4-2.87 1.533-5.17 3.667-6.9 6.4-1.67 2.733-2.5 5.833-2.5 9.3V323h-3.202v-45z"/><path d="M15.407 266.7l-.707.707.017.017.018.016.672-.74zm0-4.9l-.672-.74-.018.016-.017.017.707.707zm4.9 0l-.707.707.017.017.018.016.672-.74zm0 4.9l-.672-.74-.018.016-.017.017.707.707zm-4 11.3v-1h-1v1h1zm3.2 0h1v-1h-1v1zm0 45v1h1v-1h-1zm-3.2 0h-1v1h1v-1zm1.6-56.3c-.668 0-1.265-.229-1.827-.74l-1.345 1.48c.905.823 1.974 1.26 3.172 1.26v-2zm-1.793-.707c-.466-.467-.707-1.04-.707-1.793h-2c0 1.247.427 2.341 1.293 3.207l1.414-1.414zm-.707-1.793c0-.665.226-1.212.707-1.693l-1.414-1.414c-.852.852-1.293 1.905-1.293 3.107h2zm.673-1.66c.562-.511 1.159-.74 1.827-.74v-2c-1.198 0-2.267.437-3.172 1.26l1.345 1.48zm1.827-.74c.665 0 1.212.226 1.693.707l1.414-1.414c-.852-.852-1.905-1.293-3.107-1.293v2zm1.728.74c.539.49.772 1.027.772 1.66h2c0-1.234-.5-2.297-1.427-3.14l-1.345 1.48zm.772 1.66c0 .721-.25 1.285-.772 1.76l1.345 1.48c.944-.858 1.427-1.961 1.427-3.24h-2zm-.807 1.793c-.481.481-1.028.707-1.693.707v2c1.202 0 2.255-.441 3.107-1.293l-1.414-1.414zM16.307 279h3.2v-2h-3.2v2zm2.2-1v45h2v-45h-2zm1 44h-3.2v2h3.2v-2zm-2.2 1v-45h-2v45h2zm25.11-45v-1h-1v1h1zm3.2 0h1v-1h-1v1zm0 10h-1l1.916.403-.916-.403zm7.5-8l.493.87.006-.003.006-.004-.505-.863zm24.8 2.2l-.74.671.006.008.007.007.727-.686zm4.9 40.8v1h1v-1h-1zm-3.2 0h-1v1h1v-1zm-4-38.8l-.755.655.008.009.747-.664zm-20.6-2.1l.472.882.007-.004-.479-.878zm-6.9 6.4l-.844-.536-.005.008-.004.007.853.521zm-2.5 34.5v1h1v-1h-1zm-3.2 0h-1v1h1v-1zm0-44h3.2v-2h-3.2v2zm2.2-1v10h2v-10h-2zm1.916 10.403c1.37-3.114 3.709-5.626 7.077-7.533l-.985-1.74c-3.699 2.093-6.36 4.914-7.923 8.467l1.83.806zm7.09-7.54c3.373-1.973 7.097-2.963 11.194-2.963v-2c-4.436 0-8.511 1.077-12.204 3.237l1.01 1.726zm11.194-2.963c5.301 0 9.38 1.682 12.36 4.971l1.482-1.342c-3.421-3.777-8.076-5.629-13.842-5.629v2zm12.373 4.986c3.042 3.228 4.627 7.82 4.627 13.914h2c0-6.439-1.68-11.581-5.172-15.286l-1.455 1.372zm4.627 13.914V323h2v-26.2h-2zm1 25.2h-3.2v2h3.2v-2zm-2.2 1v-26.2h-2V323h2zm0-26.2c0-5.559-1.374-10.026-4.252-13.264l-1.495 1.328c2.455 2.762 3.747 6.695 3.747 11.936h2zm-4.244-13.255c-2.827-3.261-6.794-4.845-11.756-4.845v2c4.505 0 7.871 1.416 10.245 4.155l1.511-1.31zM64.617 278.7c-3.627 0-6.993.839-10.078 2.522l.957 1.756c2.781-1.517 5.816-2.278 9.121-2.278v-2zm-10.071 2.518c-3.018 1.615-5.447 3.867-7.273 6.746l1.689 1.072a17.195 17.195 0 0 1 6.527-6.054l-.943-1.764zm-7.282 6.761c-1.77 2.903-2.647 6.186-2.647 9.821h2c0-3.299.791-6.216 2.354-8.779l-1.707-1.042zm-2.647 9.821V323h2v-25.2h-2zm1 24.2h-3.2v2h3.2v-2zm-2.2 1v-45h-2v45h2zm77.128-61v1h1v-1h-1zm-7 1.9l.49.872.01-.006.01-.006-.51-.86zm-5.1 5.1l-.867-.499-.005.009.872.49zm-1.8 9h-1v1h1v-1zm13.9 0h1v-1h-1v1zm0 2.8v1h1v-1h-1zm-13.9 0v-1h-1v1h1zm0 42.2v1h1v-1h-1zm-3.2 0h-1v1h1v-1zm2.2-55.4l-.862-.508-.004.007.866.501zm6.2-6.1l.491.871.007-.004-.498-.867zm8.7-2.3h1v-1h-1v1zm0 1.8c-2.709 0-5.22.68-7.511 2.04l1.021 1.72c1.976-1.173 4.132-1.76 6.49-1.76v-2zm-7.49 2.028c-2.296 1.292-4.124 3.123-5.477 5.473l1.733.998c1.181-2.05 2.753-3.619 4.724-4.727l-.98-1.744zm-5.482 5.482c-1.289 2.292-1.928 4.829-1.928 7.59h2c0-2.439.561-4.635 1.671-6.61l-1.743-.98zm-1.928 7.59v1.9h2v-1.9h-2zm1 2.9h13.9v-2h-13.9v2zm12.9-1v2.8h2V278h-2zm1 1.8h-13.9v2h13.9v-2zm-14.9 1V323h2v-42.2h-2zm1 41.2h-3.2v2h3.2v-2zm-2.2 1v-46.9h-2V323h2zm0-46.9c0-2.97.693-5.629 2.065-7.999l-1.731-1.002c-1.561 2.696-2.334 5.705-2.334 9.001h2zm2.061-7.992c1.445-2.45 3.385-4.358 5.83-5.737l-.983-1.742c-2.754 1.554-4.948 3.713-6.57 6.463l1.723 1.016zm5.837-5.741c2.512-1.445 5.24-2.167 8.202-2.167v-2c-3.305 0-6.377.811-9.199 2.433l.997 1.734zm7.202-3.167v2.8h2v-2.8h-2zm26.586 62.1l-.526.851.011.006.515-.857zm-8.6-8.9l-.875.484.004.007.871-.491zm0-24l-.865-.503-.006.012.871.491zm8.6-8.7l.51.86.004-.003-.514-.857zm24.2 0l-.522.853.009.006.01.005.503-.864zm8.6 8.7l-.871.491.871-.491zm.1 24.2l.878.479.003-.007-.881-.472zm-8.4 8.8l.517.856.004-.003-.521-.853zm-1.8-2.5l-.525-.851.525.851zm7.3-7.7l-.876-.483-.004.007.88.476zm0-21.3l.876-.483-.876.483zm-7.4-7.8l-.525.851.525-.851zm-20.9.1l.525.851.005-.003-.53-.848zm-7.5 7.8l-.869-.496-.003.007-.004.006.876.483zm0 21.2l-.876.483.006.01.006.011.864-.504zm7.5 7.7l-.525.851.008.005.517-.856zm10.6 4.7c-4.364 0-8.284-1.056-11.786-3.157l-1.029 1.714c3.832 2.299 8.111 3.443 12.815 3.443v-2zm-11.774-3.151c-3.527-2.18-6.273-5.024-8.255-8.54l-1.742.982c2.151 3.817 5.138 6.906 8.945 9.26l1.052-1.702zm-8.251-8.533c-1.984-3.583-2.975-7.449-2.975-11.616h-2c0 4.5 1.075 8.7 3.225 12.584l1.75-.968zm-2.975-11.616c0-4.097.99-7.894 2.971-11.409l-1.742-.982c-2.153 3.819-3.229 7.955-3.229 12.391h2zm2.964-11.397c2.049-3.521 4.794-6.298 8.246-8.343l-1.02-1.72c-3.749 2.221-6.737 5.245-8.955 9.057l1.729 1.006zm8.25-8.346c3.504-2.102 7.392-3.157 11.686-3.157v-2c-4.64 0-8.886 1.145-12.715 3.443l1.029 1.714zm11.686-3.157c4.224 0 8.042 1.053 11.478 3.153l1.043-1.706c-3.764-2.3-7.946-3.447-12.521-3.447v2zm11.497 3.164c3.514 2.045 6.253 4.817 8.232 8.327l1.742-.982c-2.155-3.823-5.149-6.851-8.968-9.073l-1.006 1.728zm8.232 8.327c1.981 3.515 2.971 7.312 2.971 11.409h2c0-4.436-1.077-8.572-3.229-12.391l-1.742.982zm2.971 11.409c0 4.311-.964 8.248-2.882 11.828l1.763.944c2.082-3.886 3.119-8.15 3.119-12.772h-2zm-2.878 11.821c-1.915 3.511-4.592 6.316-8.044 8.426l1.043 1.706c3.748-2.29 6.672-5.352 8.757-9.174l-1.756-.958zm-8.039 8.423c-3.36 2.029-7.244 3.056-11.683 3.056v2c4.76 0 9.01-1.106 12.717-3.344l-1.034-1.712zm-11.683 2.256c3.979 0 7.628-1.015 10.925-3.049l-1.05-1.702c-2.971 1.833-6.254 2.751-9.875 2.751v2zm10.925-3.049c3.28-2.024 5.836-4.719 7.654-8.075l-1.759-.952c-1.649 3.044-3.959 5.482-6.945 7.325l1.05 1.702zm7.651-8.068c1.884-3.42 2.824-7.154 2.824-11.183h-2c0 3.704-.861 7.104-2.576 10.217l1.752.966zm2.824-11.183c0-3.965-.941-7.665-2.824-11.083l-1.752.966c1.717 3.116 2.576 6.482 2.576 10.117h2zm-2.824-11.083c-1.883-3.415-4.469-6.143-7.751-8.168l-1.05 1.702c2.984 1.842 5.331 4.314 7.049 7.432l1.752-.966zm-7.751-8.168c-3.297-2.034-6.946-3.049-10.925-3.049v2c3.621 0 6.904.918 9.875 2.751l1.05-1.702zm-10.925-3.049c-3.986 0-7.67 1.052-11.03 3.152l1.06 1.696c3.04-1.9 6.356-2.848 9.97-2.848v-2zm-11.025 3.149c-3.279 2.023-5.896 4.746-7.844 8.155l1.737.992c1.786-3.125 4.169-5.601 7.157-7.445l-1.05-1.702zm-7.851 8.168c-1.883 3.418-2.824 7.118-2.824 11.083h2c0-3.635.859-7.001 2.576-10.117l-1.752-.966zm-2.824 11.083c0 3.965.941 7.665 2.824 11.083l1.752-.966c-1.717-3.116-2.576-6.482-2.576-10.117h-2zm2.836 11.104c1.949 3.341 4.565 6.027 7.839 8.047l1.05-1.702c-2.993-1.847-5.377-4.294-7.162-7.353l-1.727 1.008zm7.847 8.052c3.361 2.031 7.074 3.044 11.117 3.044v-2c-3.691 0-7.045-.92-10.083-2.756l-1.034 1.712zm70.697-.856l-.523.852.523-.852zm-14.1-14.4l-.866.5.004.007.862-.507zm.1-38.4l.859.512-.859-.512zm14.3-14.1l.5.866.008-.004-.508-.862zm39 0l-.511.859.007.004.504-.863zm14.1 14.1l-.863.505.007.011.856-.516zm.1 38.5l.866.5.002-.004-.868-.496zm-14.1 14.4l.516.857.003-.002-.519-.855zm-1.9-2.5l-.513-.858.513.858zm13-13.1l-.861-.508-.002.003.863.505zm.1-35.8l-.865.501.002.004.863-.505zm-13-13.1l-.513.858.008.005.505-.863zm-35.7 0l.505.863.008-.005-.513-.858zm-13.1 13.1l-.861-.508-.002.003.863.505zm0 35.8l-.865.501.003.006.004.006.858-.513zm13.1 13.1l.513-.858-.513.858zm5.9-10.6l-.503.864.503-.864zm-8.7-8.6l-.864.503.004.007.86-.51zm0-23.5l.861.51.004-.007-.865-.503zm8.7-8.7l-.503-.864.503.864zm23.6-.1l.491-.871-.491.871zm8.7 8.5l-.86.51 1.86 3.139V273.5h-1zm0-10.5v-1h-1v1h1zm3.2 0h1v-1h-1v1zm0 45v1h1v-1h-1zm-3.2 0h-1v1h1v-1zm0-10.5h1v-3.649l-1.86 3.139.86.51zm-8.7 8.5l.491.871-.491-.871zm-1.3-2.5l.512.859.007-.004.006-.004-.525-.851zm7.4-7.6l-.864-.504-.003.006.867.498zm-7.5-28.3l-.525.851.007.004.006.004.512-.859zm-20.5 0l-.517-.856-.008.005.525.851zm-7.6 7.7l-.856-.517-.004.006-.004.007.864.504zm0 20.6l-.864.504.007.011.006.01.851-.525zm7.7 7.6l-.517.856.007.004.006.004.504-.864zm9.3 19.8c-6.544 0-12.664-1.747-18.377-5.252l-1.046 1.704c6.021 3.695 12.501 5.548 19.423 5.548v-2zm-18.377-5.252c-5.725-3.514-10.31-8.195-13.761-14.055l-1.724 1.014c3.616 6.14 8.431 11.059 14.439 14.745l1.046-1.704zM204.777 304c-3.38-5.85-5.066-12.111-5.066-18.8h-2c0 7.044 1.781 13.65 5.334 19.8l1.732-1zm-5.066-18.8c0-6.617 1.717-12.807 5.159-18.588l-1.718-1.024c-3.624 6.086-5.441 12.629-5.441 19.612h2zm5.159-18.588c3.446-5.786 8.089-10.365 13.941-13.746l-1-1.732c-6.147 3.552-11.038 8.374-14.659 14.454l1.718 1.024zm13.949-13.75c5.845-3.443 12.17-5.162 18.992-5.162v-2c-7.177 0-13.853 1.814-20.007 5.438l1.015 1.724zm18.992-5.162c6.891 0 13.214 1.72 18.989 5.159l1.023-1.718c-6.092-3.628-12.769-5.441-20.012-5.441v2zm18.996 5.163c5.785 3.38 10.361 7.957 13.741 13.741l1.727-1.008c-3.554-6.082-8.377-10.906-14.459-14.459l-1.009 1.726zm13.748 13.753c3.439 5.71 5.156 11.899 5.156 18.584h2c0-7.048-1.816-13.593-5.443-19.616l-1.713 1.032zm5.156 18.584c0 6.689-1.686 12.986-5.068 18.904l1.736.992c3.552-6.215 5.332-12.852 5.332-19.896h-2zm-5.066 18.9c-3.382 5.854-7.963 10.532-13.753 14.045l1.038 1.71c6.077-3.687 10.896-8.609 14.447-14.755l-1.732-1zm-13.75 14.043c-5.712 3.441-11.867 5.157-18.484 5.157v2c6.983 0 13.495-1.817 19.516-5.443l-1.032-1.714zm-18.484 5.157h-1.5v2h1.5v-2zm-.7-.9c6.58 0 12.691-1.682 18.313-5.042l-1.026-1.716c-5.311 3.173-11.067 4.758-17.287 4.758v2zm18.313-5.042c5.611-3.352 10.065-7.84 13.35-13.453l-1.726-1.01c-3.114 5.32-7.327 9.566-12.65 12.747l1.026 1.716zm13.348-13.45c3.359-5.688 5.039-11.864 5.039-18.508h-2c0 6.289-1.586 12.113-4.761 17.492l1.722 1.016zm5.039-18.508c0-6.576-1.646-12.684-4.937-18.305l-1.726 1.01c3.109 5.312 4.663 11.071 4.663 17.295h2zm-4.934-18.301c-3.286-5.682-7.743-10.174-13.361-13.462l-1.01 1.726c5.316 3.112 9.525 7.353 12.64 12.738l1.731-1.002zm-13.353-13.457c-5.622-3.36-11.733-5.042-18.313-5.042v2c6.22 0 11.976 1.585 17.287 4.758l1.026-1.716zm-18.313-5.042c-6.644 0-12.789 1.681-18.413 5.042l1.026 1.716c5.309-3.172 11.098-4.758 17.387-4.758v-2zm-18.405 5.037c-5.616 3.287-10.104 7.777-13.456 13.455l1.722 1.016c3.182-5.389 7.427-9.632 12.744-12.745l-1.01-1.726zm-13.458 13.458c-3.291 5.621-4.937 11.729-4.937 18.305h2c0-6.224 1.554-11.983 4.663-17.295l-1.726-1.01zm-4.937 18.305c0 6.64 1.645 12.813 4.935 18.501l1.731-1.002c-3.111-5.379-4.666-11.206-4.666-17.499h-2zm4.942 18.513c3.351 5.609 7.837 10.094 13.445 13.445l1.026-1.716c-5.325-3.182-9.573-7.43-12.754-12.755l-1.717 1.026zm13.445 13.445c5.623 3.36 11.733 5.042 18.313 5.042v-2c-6.22 0-11.976-1.585-17.287-4.758l-1.026 1.716zm18.313-9.258c-4.091 0-7.884-1.02-11.397-3.064l-1.006 1.728c3.821 2.223 7.961 3.336 12.403 3.336v-2zm-11.397-3.064c-3.521-2.049-6.297-4.795-8.343-8.246l-1.72 1.02c2.221 3.749 5.245 6.736 9.057 8.954l1.006-1.728zm-8.338-8.239c-2.046-3.515-3.065-7.276-3.065-11.297h-2c0 4.379 1.115 8.485 3.336 12.303l1.729-1.006zm-3.065-11.297c0-4.021 1.019-7.745 3.06-11.19l-1.72-1.02c-2.225 3.755-3.34 7.831-3.34 12.21h2zm3.065-11.197c2.046-3.517 4.821-6.292 8.338-8.339l-1.006-1.728c-3.816 2.22-6.841 5.245-9.061 9.061l1.729 1.006zm8.338-8.339c3.513-2.044 7.306-3.064 11.397-3.064v-2c-4.442 0-8.582 1.113-12.403 3.336l1.006 1.728zm11.397-3.064c3.958 0 7.689.987 11.209 2.971l.982-1.742c-3.813-2.15-7.882-3.229-12.191-3.229v2zm11.209 2.971c3.515 1.981 6.287 4.69 8.331 8.139l1.72-1.02c-2.223-3.751-5.25-6.709-9.069-8.861l-.982 1.742zm10.191 7.629V263h-2v10.5h2zm-1-9.5h3.2v-2h-3.2v2zm2.2-1v45h2v-45h-2zm1 44h-3.2v2h3.2v-2zm-2.2 1v-10.5h-2V308h2zm-1.86-11.01c-2.044 3.449-4.816 6.158-8.331 8.139l.982 1.742c3.819-2.152 6.846-5.11 9.069-8.861l-1.72-1.02zm-8.331 8.139c-3.52 1.984-7.251 2.971-11.209 2.971v2c4.309 0 8.378-1.079 12.191-3.229l-.982-1.742zm-11.009 2.171c3.846 0 7.423-.981 10.712-2.941l-1.024-1.718c-2.977 1.774-6.2 2.659-9.688 2.659v2zm10.725-2.949c3.272-2.019 5.858-4.672 7.742-7.953l-1.734-.996c-1.715 2.986-4.063 5.399-7.058 7.247l1.05 1.702zm7.739-7.947c1.957-3.354 2.936-6.995 2.936-10.904h-2c0 3.558-.887 6.85-2.664 9.896l1.728 1.008zm2.936-10.904c0-3.846-.981-7.453-2.936-10.804l-1.728 1.008c1.779 3.049 2.664 6.308 2.664 9.796h2zm-2.936-10.804c-1.951-3.344-4.571-6-7.852-7.955l-1.024 1.718c2.986 1.779 5.366 4.189 7.148 7.245l1.728-1.008zm-7.839-7.947c-3.29-2.03-6.872-3.049-10.725-3.049v2c3.481 0 6.699.915 9.675 2.751l1.05-1.702zm-10.725-3.049c-3.852 0-7.464 1.018-10.817 3.044l1.034 1.712c3.048-1.841 6.303-2.756 9.783-2.756v-2zm-10.825 3.049c-3.271 2.018-5.917 4.7-7.931 8.034l1.712 1.034c1.853-3.066 4.273-5.517 7.269-7.366l-1.05-1.702zm-7.939 8.047c-1.955 3.351-2.936 6.958-2.936 10.804h2c0-3.488.886-6.747 2.664-9.796l-1.728-1.008zm-2.936 10.804c0 3.846.981 7.453 2.936 10.804l1.728-1.008c-1.778-3.049-2.664-6.308-2.664-9.796h-2zm2.949 10.825c2.018 3.271 4.7 5.917 8.034 7.931l1.034-1.712c-3.066-1.852-5.517-4.273-7.366-7.269l-1.702 1.05zm8.047 7.939c3.352 1.955 6.959 2.936 10.804 2.936v-2c-3.488 0-6.747-.885-9.796-2.664l-1.008 1.728zm71.292 18.136l-.417.909.01.004.011.005.396-.918zm-5.3-4.3h-1v.283l.149.241.851-.524zm0-5.3l.915-.404-1.915.404h1zm5.2 6.4l-.536.844.009.006.009.005.518-.855zm16.3-1l.708.707.005-.006.006-.006-.719-.695zm1.3-14.2l-.804.594.007.009.006.008.791-.611zm-5.5-4.6l.518-.856-.008-.005-.008-.004-.502.865zm-3.8-2.2l-.52.854.01.006.009.005.501-.865zm-6.2-3.9l-.6.8.023.017.023.015.554-.832zm-3.2-3.3l-.845.534.007.01.006.011.832-.555zm1.6-10.8l.651.759-.651-.759zm16.5.1h1v-.531l-.44-.298-.56.829zm0 4.4l-.797.603 1.797 2.378V283.8h-1zm-14.1-2.5l-.624-.781.624.781zm-.8 8l-.817.577.009.011.008.012.8-.6zm3.3 3l-.554.832.009.006.009.006.536-.844zm7.2 4.2l.495-.869-.006-.004-.489.873zm7.5 6l-.79.612.005.006.005.007.78-.625zm-1.7 17.9l.68.734v-.001l-.68-.733zm-9.8 2.7c-3.089 0-5.783-.515-8.103-1.518l-.793 1.836c2.613 1.13 5.586 1.682 8.896 1.682v-2zm-8.082-1.509c-2.346-1.078-3.932-2.398-4.866-3.915l-1.703 1.048c1.199 1.949 3.146 3.496 5.734 4.685l.835-1.818zm-4.718-3.391v-5.3h-2v5.3h2zm-1.914-4.896c1.33 3.01 3.18 5.314 5.578 6.84l1.073-1.688c-2.002-1.274-3.619-3.237-4.822-5.96l-1.829.808zm5.596 6.851c2.399 1.454 5.393 2.145 8.918 2.145v-2c-3.274 0-5.88-.642-7.881-1.855l-1.037 1.71zm8.918 2.145c3.488 0 6.391-1.076 8.608-3.293l-1.415-1.414c-1.783 1.783-4.147 2.707-7.193 2.707v2zm8.619-3.305c2.202-2.274 3.281-5.167 3.281-8.595h-2c0 2.972-.92 5.346-2.718 7.205l1.437 1.39zm3.281-8.595c0-2.854-.589-5.204-1.908-6.911l-1.583 1.222c.947 1.226 1.491 3.076 1.491 5.689h2zm-1.895-6.894c-1.242-1.68-3.197-3.294-5.787-4.862l-1.035 1.711c2.477 1.5 4.188 2.953 5.213 4.339l1.609-1.188zm-5.803-4.871l-3.8-2.2-1.003 1.73 3.8 2.2 1.003-1.73zm-3.781-2.189c-2.73-1.664-4.783-2.956-6.166-3.878l-1.109 1.664c1.417.945 3.497 2.253 6.234 3.922l1.041-1.708zm-6.121-3.846c-1.256-.942-2.239-1.962-2.967-3.055l-1.665 1.11c.872 1.307 2.022 2.487 3.432 3.545l1.2-1.6zm-2.954-3.034c-.688-1.089-1.046-2.366-1.046-3.866h-2c0 1.834.443 3.49 1.355 4.934l1.691-1.068zm-1.046-3.866c0-2.403.827-4.248 2.451-5.641l-1.301-1.518c-2.109 1.807-3.15 4.228-3.15 7.159h2zm2.451-5.641c1.648-1.412 3.833-2.159 6.649-2.159v-2c-3.184 0-5.865.853-7.95 2.641l1.301 1.518zm6.649-2.159c3.514 0 6.374.797 8.641 2.329l1.119-1.658c-2.666-1.801-5.94-2.671-9.76-2.671v2zm8.2 1.5v4.4h2v-4.4h-2zm1.798 3.797c-2.282-3.018-5.564-4.497-9.698-4.497v2c3.6 0 6.251 1.254 8.103 3.703l1.595-1.206zm-9.698-4.497c-2.302 0-4.273.578-5.824 1.819l1.249 1.562c1.116-.893 2.611-1.381 4.575-1.381v-2zm-5.824 1.819c-1.564 1.251-2.376 2.902-2.376 4.881h2c0-1.354.522-2.437 1.625-3.319l-1.249-1.562zm-2.376 4.881c0 1.661.457 3.165 1.383 4.477l1.634-1.154c-.673-.954-1.017-2.05-1.017-3.323h-2zm1.4 4.5c.884 1.178 2.075 2.252 3.546 3.232l1.109-1.664c-1.329-.886-2.338-1.812-3.055-2.768l-1.6 1.2zm3.564 3.244c1.492.949 3.913 2.361 7.248 4.229l.977-1.746c-3.331-1.865-5.71-3.254-7.152-4.171l-1.073 1.688zm7.242 4.225c3.337 1.898 5.714 3.819 7.204 5.743l1.581-1.224c-1.71-2.21-4.333-4.288-7.796-6.257l-.989 1.738zm7.214 5.756c1.423 1.778 2.18 4.172 2.18 7.275h2c0-3.43-.842-6.303-2.619-8.525l-1.561 1.25zm2.18 7.275c0 3.889-1.274 6.944-3.779 9.267l1.359 1.466c2.961-2.744 4.42-6.355 4.42-10.733h-2zm-3.779 9.266c-2.469 2.284-5.488 3.434-9.121 3.434v2c4.101 0 7.615-1.317 10.48-3.966l-1.359-1.468zm38.845 3.934v1h1v-1h-1zm-12.3-4.5l-.684.73.008.007.676-.737zm-4.8-59.2v-1h-1v1h1zm3.2 0h1v-1h-1v1zm0 18.1h-1v1h1v-1zm13.8 0h1v-1h-1v1zm0 2.8v1h1v-1h-1zm-13.8 0v-1h-1v1h1zm3.9 36.3l-.698.716.01.009.009.009.679-.734zm10 3.7h1v-1h-1v1zm0 1.8c-4.713 0-8.563-1.425-11.624-4.237l-1.352 1.474c3.472 3.188 7.823 4.763 12.976 4.763v-2zm-11.616-4.23c-2.958-2.773-4.484-6.62-4.484-11.67h-2c0 5.483 1.675 9.903 5.116 13.13l1.368-1.46zm-4.484-11.67v-46.8h-2v46.8h2zm-1-45.8h3.2v-2h-3.2v2zm2.2-1V278h2v-18.1h-2zm1 19.1h13.8v-2h-13.8v2zm12.8-1v2.8h2V278h-2zm1 1.8h-13.8v2h13.8v-2zm-14.8 1v25.9h2v-25.9h-2zm0 25.9c0 4.608 1.369 8.356 4.202 11.116l1.396-1.432c-2.367-2.306-3.598-5.492-3.598-9.684h-2zm4.221 11.134c2.871 2.656 6.455 3.966 10.679 3.966v-2c-3.776 0-6.858-1.156-9.321-3.434l-1.358 1.468zm9.679 2.966v2.8h2v-2.8h-2zm18.812-54.1l-.707.707.017.017.017.016.673-.74zm0-4.9l-.673-.74-.017.016-.017.017.707.707zm4.9 0l-.707.707.017.017.017.016.673-.74zm0 4.9l-.673-.74-.017.016-.017.017.707.707zm-4 11.3v-1h-1v1h1zm3.2 0h1v-1h-1v1zm0 45v1h1v-1h-1zm-3.2 0h-1v1h1v-1zm1.6-56.3c-.668 0-1.266-.229-1.828-.74l-1.345 1.48c.905.823 1.974 1.26 3.173 1.26v-2zm-1.793-.707c-.467-.467-.707-1.04-.707-1.793h-2c0 1.247.426 2.341 1.293 3.207l1.414-1.414zm-.707-1.793c0-.665.226-1.212.707-1.693l-1.414-1.414c-.852.852-1.293 1.905-1.293 3.107h2zm.672-1.66c.562-.511 1.16-.74 1.828-.74v-2c-1.199 0-2.268.437-3.173 1.26l1.345 1.48zm1.828-.74c.665 0 1.211.226 1.693.707l1.414-1.414c-.852-.852-1.906-1.293-3.107-1.293v2zm1.727.74c.54.49.773 1.027.773 1.66h2c0-1.234-.5-2.297-1.428-3.14l-1.345 1.48zm.773 1.66c0 .721-.25 1.285-.773 1.76l1.345 1.48c.944-.858 1.428-1.961 1.428-3.24h-2zm-.807 1.793c-.482.481-1.028.707-1.693.707v2c1.201 0 2.255-.441 3.107-1.293l-1.414-1.414zM373.577 279h3.2v-2h-3.2v2zm2.2-1v45h2v-45h-2zm1 44h-3.2v2h3.2v-2zm-2.2 1v-45h-2v45h2zm42.21.9v1h1v-1h-1zm-8.6-2.1l-.491.871.008.005.009.004.474-.88zm-6.2-6.1l.861-.508-.861.508zm-2.3-67.7v-1h-1v1h1zm3.2 0h1v-1h-1v1zm1.8 66.2l-.872.49.006.01.006.011.86-.511zm5.1 5.1l-.511.86.01.006.011.006.49-.872zm7 1.8h1v-1h-1v1zm0 1.8c-2.978 0-5.681-.664-8.126-1.98l-.948 1.76c2.754 1.484 5.786 2.22 9.074 2.22v-2zm-8.109-1.971c-2.445-1.379-4.385-3.287-5.83-5.737l-1.722 1.016c1.621 2.75 3.815 4.909 6.57 6.463l.982-1.742zm-5.83-5.737c-1.437-2.437-2.161-5.16-2.161-8.192h-2c0 3.368.809 6.445 2.439 9.208l1.722-1.016zM400.687 307v-59h-2v59h2zm-1-58h3.2v-2h-3.2v2zm2.2-1v59h2v-59h-2zm0 59c0 2.823.637 5.394 1.928 7.69l1.744-.98c-1.109-1.971-1.672-4.199-1.672-6.71h-2zm1.94 7.711a15.377 15.377 0 0 0 5.449 5.449l1.022-1.72a13.367 13.367 0 0 1-4.751-4.751l-1.72 1.022zm5.47 5.461c2.288 1.287 4.791 1.928 7.49 1.928v-2c-2.368 0-4.531-.559-6.51-1.672l-.98 1.744zm6.49.928v2.8h2v-2.8h-2zm31.141-.3l-.507.862.006.003.501-.865zm-8.6-8.7l.875-.486-1.875-3.373v3.859h1zm0 10.9v1h1v-1h-1zm-3.2 0h-1v1h1v-1zm0-75v-1h-1v1h1zm3.2 0h1v-1h-1v1zm0 41.4h-1l1.904.428-.904-.428zm8.4-9.1l-.512-.859.512.859zm23.9-.2l-.509.86.006.004.503-.864zm8.7 8.6l-.86.51.86-.51zm0 23.6l-.86-.51.86.51zm-8.7 8.6l-.503-.864-.006.004.509.86zm-1.5-2.4l.512.859.007-.004.006-.004-.525-.851zm7.4-7.6l-.863-.504-.004.006.867.498zm0-20.7l.864-.504-.864.504zm-7.5-7.6l-.525.851.007.004.007.004.511-.859zm-20.5 0l-.517-.856-.008.005.525.851zm-7.6 7.7l-.856-.517-.004.006-.003.007.863.504zm0 20.6l-.863.504.006.011.006.01.851-.525zm7.7 7.6l-.517.856.007.004.006.004.504-.864zm10.1 4.6c-3.876 0-7.638-1.046-11.299-3.165l-1.002 1.73c3.94 2.281 8.045 3.435 12.301 3.435v-2zm-11.292-3.162c-3.588-2.114-6.325-4.888-8.233-8.324l-1.749.972c2.091 3.764 5.088 6.79 8.967 9.076l1.015-1.724zm-10.108-7.838V323h2v-10.9h-2zm1 9.9h-3.2v2h3.2v-2zm-2.2 1v-75h-2v75h2zm-1-74h3.2v-2h-3.2v2zm2.2-1v41.4h2V248h-2zm1.904 41.828c1.711-3.611 4.37-6.498 8.009-8.669l-1.025-1.718c-3.961 2.363-6.902 5.542-8.791 9.531l1.807.856zm8.009-8.669c3.653-2.18 7.478-3.259 11.487-3.259v-2c-4.39 0-8.566 1.187-12.512 3.541l1.025 1.718zm11.487-3.259c4.161 0 7.951 1.022 11.391 3.06l1.019-1.72c-3.76-2.228-7.904-3.34-12.41-3.34v2zm11.397 3.064c3.522 2.049 6.298 4.795 8.343 8.246l1.721-1.02c-2.222-3.749-5.246-6.736-9.058-8.954l-1.006 1.728zm8.343 8.246c2.04 3.442 3.06 7.199 3.06 11.29h2c0-4.442-1.113-8.552-3.339-12.31l-1.721 1.02zm3.06 11.29c0 4.091-1.02 7.848-3.06 11.29l1.721 1.02c2.226-3.758 3.339-7.868 3.339-12.31h-2zm-3.06 11.29c-2.045 3.451-4.821 6.197-8.343 8.246l1.006 1.728c3.812-2.218 6.836-5.205 9.058-8.954l-1.721-1.02zm-8.349 8.25c-3.44 2.038-7.23 3.06-11.391 3.06v2c4.506 0 8.65-1.112 12.41-3.34l-1.019-1.72zm-11.191 2.26c3.846 0 7.423-.981 10.712-2.941l-1.023-1.718c-2.978 1.774-6.201 2.659-9.689 2.659v2zm10.725-2.949c3.273-2.019 5.858-4.672 7.742-7.953l-1.734-.996c-1.715 2.986-4.063 5.399-7.058 7.247l1.05 1.702zm7.739-7.947c1.957-3.354 2.936-6.995 2.936-10.904h-2c0 3.558-.887 6.85-2.663 9.896l1.727 1.008zm2.936-10.904c0-3.846-.981-7.453-2.936-10.804l-1.727 1.008c1.778 3.049 2.663 6.308 2.663 9.796h2zm-2.936-10.804c-1.95-3.344-4.571-6-7.852-7.955l-1.023 1.718c2.985 1.779 5.365 4.189 7.148 7.245l1.727-1.008zm-7.839-7.947c-3.29-2.03-6.872-3.049-10.725-3.049v2c3.481 0 6.699.915 9.675 2.751l1.05-1.702zm-10.725-3.049c-3.852 0-7.464 1.018-10.817 3.044l1.034 1.712c3.048-1.841 6.303-2.756 9.783-2.756v-2zm-10.825 3.049c-3.27 2.018-5.916 4.7-7.931 8.034l1.712 1.034c1.853-3.066 4.274-5.517 7.269-7.366l-1.05-1.702zm-7.938 8.047c-1.955 3.351-2.937 6.958-2.937 10.804h2c0-3.488.886-6.747 2.664-9.796l-1.727-1.008zm-2.937 10.804c0 3.846.982 7.453 2.937 10.804l1.727-1.008c-1.778-3.049-2.664-6.308-2.664-9.796h-2zm2.949 10.825c2.018 3.271 4.7 5.917 8.034 7.931l1.034-1.712c-3.066-1.852-5.517-4.273-7.366-7.269l-1.702 1.05zm8.047 7.939c3.352 1.955 6.959 2.936 10.804 2.936v-2c-3.487 0-6.747-.885-9.796-2.664l-1.008 1.728zM499.574 278v-1h-1v1h1zm3.2 0h1v-1h-1v1zm0 10.4h-1l1.926.378-.926-.378zm5.8-7.7l-.584-.812-.01.007.594.805zm15.1-1.5h1v-.673l-.624-.253-.376.926zm0 3.7l-.605.797 1.605 1.217V282.9h-1zm-13.5 0l-.544-.84-.011.008.555.832zm-5.4 5.9l-.87-.494-.005.009-.005.009.88.476zm-2 34.2v1h1v-1h-1zm-3.2 0h-1v1h1v-1zm0-44h3.2v-2h-3.2v2zm2.2-1v10.4h2V278h-2zm1.926 10.778c1.272-3.118 3.099-5.528 5.467-7.273l-1.187-1.61c-2.698 1.989-4.738 4.711-6.132 8.127l1.852.756zm5.457-7.266c2.426-1.742 5.155-2.612 8.217-2.612v-2c-3.472 0-6.61.996-9.384 2.988l1.167 1.624zm8.217-2.612c1.923 0 3.896.403 5.923 1.226l.753-1.852c-2.239-.91-4.467-1.374-6.676-1.374v2zm5.3.3v3.7h2v-3.7h-2zm1.604 2.903c-2.105-1.597-4.483-2.403-7.104-2.403v2c2.179 0 4.134.66 5.895 1.997l1.209-1.594zm-7.104-2.403c-2.617 0-5.136.803-7.544 2.36l1.087 1.68c2.126-1.376 4.273-2.04 6.457-2.04v-2zm-7.555 2.368c-2.339 1.559-4.244 3.646-5.715 6.238l1.739.988c1.329-2.341 3.025-4.188 5.085-5.562l-1.109-1.664zm-5.725 6.256a17.37 17.37 0 0 0-2.12 8.376h2c0-2.634.625-5.104 1.879-7.424l-1.759-.952zm-2.12 8.376V323h2v-26.3h-2zm1 25.3h-3.2v2h3.2v-2zm-2.2 1v-45h-2v45h2zm44.131-4.1l-.714.7.007.007.707-.707zm-5.1-40.9v-1h-1v1h1zm3.2 0h1v-1h-1v1zm4.3 38.9l-.723.691.008.008.008.008.707-.707zm21.1 2.3l.465.885.008-.004.009-.005-.482-.876zm8.6-41.2v-1h-1v1h1zm3.2 0h1v-1h-1v1zm0 45v1h1v-1h-1zm-3.2 0h-1v1h1v-1zm0-8.4h1l-1.877-.48.877.48zm-6.9 6.9l.492.871.007-.004.007-.005-.506-.862zm-10.5 1.6c-6.149 0-10.764-1.678-13.993-4.907l-1.414 1.414c3.704 3.705 8.889 5.493 15.407 5.493v-2zm-13.986-4.9c-3.166-3.228-4.814-7.846-4.814-14h-2c0 6.512 1.752 11.695 5.386 15.4l1.428-1.4zm-4.814-14V278h-2v26.2h2zm-1-25.2h3.2v-2h-3.2v2zm2.2-1v26.2h2V278h-2zm0 26.2c0 5.64 1.482 10.152 4.577 13.391l1.446-1.382c-2.638-2.761-4.023-6.716-4.023-12.009h-2zm4.593 13.407c3.168 3.168 7.55 4.693 13.007 4.693v-2c-5.077 0-8.894-1.408-11.593-4.107l-1.414 1.414zm13.007 4.693c3.351 0 6.446-.735 9.265-2.215l-.93-1.77c-2.514 1.32-5.287 1.985-8.335 1.985v2zm9.282-2.224c2.822-1.552 5.054-3.712 6.679-6.468l-1.722-1.016c-1.442 2.444-3.41 4.351-5.921 5.732l.964 1.752zm6.679-6.468c1.634-2.77 2.439-5.915 2.439-9.408h-2c0 3.174-.728 5.962-2.161 8.392l1.722 1.016zm2.439-9.408V278h-2v26.2h2zm-1-25.2h3.2v-2h-3.2v2zm2.2-1v45h2v-45h-2zm1 44h-3.2v2h3.2v-2zm-2.2 1v-8.4h-2v8.4h2zm-1.877-8.88c-1.437 2.624-3.6 4.798-6.529 6.518l1.012 1.724c3.204-1.88 5.641-4.306 7.271-7.282l-1.754-.96zm-6.515 6.509c-2.9 1.639-6.227 2.471-10.008 2.471v2c4.085 0 7.758-.902 10.992-2.729l-.984-1.742zm40.419.571l-.498.867.007.004.491-.871zm-8.6-8.5l.861-.51-.861.51zm0-23.8l.856.517.005-.007-.861-.51zm8.7-8.6l-.496-.868-.007.004.503.864zm21.9-1.4l.411-.912-.411.912zm7.8 5.6h1v-.414l-.293-.293-.707.707zm0 5.4l-.829.559 1.829 2.716V289.9h-1zm-7.4-7.4l-.545.838.012.008.013.008.52-.854zm-20.4.3l.504.864.006-.003-.51-.861zm-7.7 7.6l.856.517-.856-.517zm-.1 21.1l-.864.504.005.008.859-.512zm7.5 7.4l-.498.867.011.006.011.006.476-.879zm28.1-7.5h1v-3.358l-1.837 2.811.837.547zm0 5.4l.726.688.274-.29v-.398h-1zm-8 5.7l.386.922.011-.004-.397-.918zm-9.8.8c-4.166 0-7.996-.992-11.509-2.971l-.982 1.742c3.821 2.154 7.991 3.229 12.491 3.229v-2zm-11.502-2.967c-3.449-1.98-6.191-4.69-8.237-8.143l-1.721 1.02c2.221 3.747 5.212 6.704 8.962 8.857l.996-1.734zm-8.237-8.143c-2.035-3.433-3.061-7.321-3.061-11.69h-2c0 4.697 1.108 8.943 3.34 12.71l1.721-1.02zm-3.061-11.69c0-4.021 1.019-7.709 3.056-11.083l-1.712-1.034c-2.229 3.692-3.344 7.738-3.344 12.117h2zm3.061-11.09c2.045-3.451 4.821-6.197 8.342-8.246l-1.006-1.728c-3.812 2.218-6.835 5.205-9.057 8.954l1.721 1.02zm8.335-8.242c3.577-2.043 7.505-3.068 11.804-3.068v-2c-4.633 0-8.905 1.109-12.796 3.332l.992 1.736zm11.804-3.068c3.63 0 6.683.584 9.19 1.712l.821-1.824c-2.827-1.272-6.174-1.888-10.011-1.888v2zm9.19 1.712c2.534 1.14 5.037 2.929 7.503 5.395l1.414-1.414c-2.6-2.6-5.297-4.545-8.096-5.805l-.821 1.824zm7.21 4.688v5.4h2v-5.4h-2zm1.83 4.841c-2.263-3.359-4.828-5.938-7.709-7.695l-1.041 1.708c2.585 1.576 4.953 3.931 7.091 7.105l1.659-1.118zm-7.685-7.679c-2.866-1.863-6.401-2.762-10.545-2.762v2c3.857 0 6.988.835 9.455 2.438l1.09-1.676zm-10.545-2.762c-3.852 0-7.494 1.018-10.909 3.039l1.019 1.722c3.118-1.846 6.409-2.761 9.89-2.761v-2zm-10.904 3.036c-3.345 1.952-6.033 4.605-8.052 7.947l1.712 1.034c1.848-3.058 4.294-5.472 7.348-7.253l-1.008-1.728zm-8.052 7.947c-2.025 3.353-3.044 6.964-3.044 10.817h2c0-3.481.915-6.736 2.756-9.783l-1.712-1.034zm-3.044 10.817c0 4.162.974 7.939 2.936 11.304l1.728-1.008c-1.77-3.035-2.664-6.458-2.664-10.296h-2zm2.941 11.312c1.954 3.279 4.578 5.869 7.861 7.755l.996-1.734c-2.983-1.714-5.359-4.057-7.139-7.045l-1.718 1.024zm7.883 7.767c3.347 1.813 6.945 2.721 10.776 2.721v-2c-3.501 0-6.771-.826-9.823-2.479l-.953 1.758zm10.776 2.721c7.834 0 14.07-3.563 18.637-10.553l-1.674-1.094c-4.232 6.477-9.864 9.647-16.963 9.647v2zm16.8-11.1v5.4h2v-5.4h-2zm.274 4.712c-2.315 2.444-4.872 4.262-7.67 5.47l.793 1.836c3.068-1.325 5.845-3.308 8.329-5.93l-1.452-1.376zm-7.66 5.466c-2.724 1.14-5.856 1.722-9.414 1.722v2c3.776 0 7.178-.618 10.186-1.878l-.772-1.844zM656.484 248v-1h-1v1h1zm3.2 0h1v-1h-1v1zm0 39.3h-1l1.906.423-.906-.423zm7.1-7.4l.502.865.005-.003-.507-.862zm24.9 2.2l-.714.7.007.007.707-.707zm5.2 40.9v1h1v-1h-1zm-3.2 0h-1v1h1v-1zm-4.4-38.8l-.723.691.008.008.008.008.707-.707zm-21-2.2l.482.876.008-.004.008-.005-.498-.867zm-6.3 6.2l.861.508.006-.01-.867-.498zm-2.3 34.8v1h1v-1h-1zm-3.2 0h-1v1h1v-1zm0-74h3.2v-2h-3.2v2zm2.2-1v39.3h2V248h-2zm1.906 39.723c1.3-2.786 3.509-5.11 6.696-6.958l-1.004-1.73c-3.48 2.019-6.004 4.628-7.504 7.842l1.812.846zm6.701-6.961c3.268-1.922 6.528-2.862 9.793-2.862v-2c-3.669 0-7.275 1.06-10.807 3.138l1.014 1.724zm9.793-2.862c6.15 0 10.726 1.679 13.886 4.9l1.428-1.4c-3.641-3.712-8.798-5.5-15.314-5.5v2zm13.893 4.907c3.229 3.229 4.907 7.844 4.907 13.993h2c0-6.518-1.789-11.703-5.493-15.407l-1.414 1.414zm4.907 13.993V323h2v-26.2h-2zm1 25.2h-3.2v2h3.2v-2zm-2.2 1v-26.2h-2V323h2zm0-26.2c0-5.644-1.518-10.132-4.693-13.307l-1.414 1.414c2.692 2.692 4.107 6.604 4.107 11.893h2zm-4.677-13.291c-3.103-3.247-7.461-4.809-12.923-4.809v2c5.071 0 8.847 1.438 11.477 4.191l1.446-1.382zm-12.923-4.809c-3.368 0-6.474.809-9.299 2.433l.997 1.734c2.509-1.443 5.269-2.167 8.302-2.167v-2zm-9.282 2.424c-2.829 1.556-5.061 3.754-6.685 6.578l1.734.996c1.443-2.509 3.41-4.444 5.915-5.822l-.964-1.752zm-6.68 6.568c-1.627 2.76-2.438 5.803-2.438 9.108h2c0-2.962.722-5.652 2.161-8.092l-1.723-1.016zm-2.438 9.108V323h2v-26.2h-2zm1 25.2h-3.2v2h3.2v-2zm-2.2 1v-75h-2v75h2zm58.127-.1l-.707.707.017.017.018.016.672-.74zm0-4.9l-.672-.74-.018.016-.017.017.707.707zm4.9 0l-.707.707.017.017.018.016.672-.74zm0 4.9l-.672-.74-.018.016-.017.017.707.707zm-2.4 0c-.668 0-1.265-.229-1.827-.74l-1.345 1.48c.904.823 1.974 1.26 3.172 1.26v-2zm-1.793-.707c-.467-.467-.707-1.04-.707-1.793h-2c0 1.247.427 2.341 1.293 3.207l1.414-1.414zm-.707-1.793c0-.665.226-1.212.707-1.693l-1.414-1.414c-.852.852-1.293 1.905-1.293 3.107h2zm.673-1.66c.562-.511 1.159-.74 1.827-.74v-2c-1.198 0-2.268.437-3.172 1.26l1.345 1.48zm1.827-.74c.665 0 1.212.226 1.693.707l1.414-1.414c-.852-.852-1.905-1.293-3.107-1.293v2zm1.728.74c.539.49.772 1.027.772 1.66h2c0-1.234-.5-2.297-1.427-3.14l-1.345 1.48zm.772 1.66c0 .721-.25 1.285-.772 1.76l1.345 1.48c.944-.858 1.427-1.961 1.427-3.24h-2zm-.807 1.793c-.481.481-1.028.707-1.693.707v2c1.202 0 2.255-.441 3.107-1.293l-1.414-1.414zm28.774-1.293l-.509.86.006.004.503-.864zm-8.6-8.6l.861-.51-.861.51zm0-23.6l-.86-.51.86.51zm8.6-8.6l-.503-.864-.006.004.509.86zm24 .2l-.512.859.011.006.501-.865zm8.4 8.7l-.894.447 1.894-.447h-1zm0-41v-1h-1v1h1zm3.2 0h1v-1h-1v1zm0 75v1h1v-1h-1zm-3.2 0h-1v1h1v-1zm0-10.9h1v-3.859l-1.874 3.373.874.486zm-8.7 8.7l-.501-.865-.006.003.507.862zm-1.6-2.3l.512.859.005-.003-.517-.856zm7.6-7.6l-.856-.517-.003.005.859.512zm0-20.6l-.863.504.003.007.004.006.856-.517zm-7.6-7.7l-.525.851.008.005.517-.856zm-20.4 0l.512.859.007-.004.006-.004-.525-.851zm-7.5 7.6l-.863-.504.863.504zm-.1 20.7l-.871.49.006.011.006.011.859-.512zm7.5 7.6l-.525.851.011.007.01.006.504-.864zm10.4 4.6c-4.16 0-7.986-1.022-11.497-3.064l-1.006 1.728c3.823 2.225 7.997 3.336 12.503 3.336v-2zm-11.49-3.06a23.158 23.158 0 0 1-8.249-8.25l-1.721 1.02a25.16 25.16 0 0 0 8.951 8.95l1.019-1.72zm-8.249-8.25c-2.04-3.442-3.061-7.199-3.061-11.29h-2c0 4.442 1.113 8.552 3.34 12.31l1.721-1.02zm-3.061-11.29c0-4.091 1.021-7.848 3.061-11.29l-1.721-1.02c-2.227 3.758-3.34 7.868-3.34 12.31h2zm3.061-11.29a23.158 23.158 0 0 1 8.249-8.25l-1.019-1.72a25.16 25.16 0 0 0-8.951 8.95l1.721 1.02zm8.242-8.246c3.511-2.042 7.337-3.064 11.497-3.064v-2c-4.506 0-8.68 1.111-12.503 3.336l1.006 1.728zm11.497-3.064c4.01 0 7.834 1.079 11.488 3.259l1.025-1.718c-3.947-2.354-8.122-3.541-12.513-3.541v2zm11.499 3.265c3.647 2.112 6.302 4.873 8.007 8.282l1.789-.894c-1.896-3.791-4.84-6.83-8.794-9.118l-1.002 1.73zm9.901 7.835v-41h-2v41h2zm-1-40h3.2v-2h-3.2v2zm2.2-1v75h2v-75h-2zm1 74h-3.2v2h3.2v-2zm-2.2 1v-10.9h-2V323h2zm-1.874-11.386c-1.906 3.432-4.672 6.205-8.327 8.321l1.002 1.73c3.946-2.284 6.98-5.311 9.074-9.079l-1.749-.972zm-8.333 8.324c-3.59 2.116-7.316 3.162-11.193 3.162v2c4.257 0 8.331-1.154 12.208-3.438l-1.015-1.724zm-11.293 2.362c3.846 0 7.423-.981 10.712-2.941l-1.023-1.718c-2.978 1.774-6.201 2.659-9.689 2.659v2zm10.717-2.944c3.337-2.016 5.99-4.666 7.942-7.944l-1.718-1.024c-1.78 2.989-4.195 5.405-7.258 7.256l1.034 1.712zm7.939-7.939c2.026-3.353 3.044-6.964 3.044-10.817h-2c0 3.481-.915 6.736-2.756 9.783l1.712 1.034zm3.044-10.817c0-3.853-1.018-7.464-3.044-10.817l-1.712 1.034c1.841 3.047 2.756 6.302 2.756 9.783h2zm-3.036-10.804c-1.952-3.346-4.605-6.033-7.947-8.052l-1.034 1.712c3.058 1.848 5.472 4.294 7.254 7.348l1.727-1.008zm-7.939-8.047c-3.29-2.03-6.872-3.049-10.725-3.049v2c3.481 0 6.699.915 9.675 2.751l1.05-1.702zm-10.725-3.049c-3.853 0-7.434 1.019-10.725 3.049l1.05 1.702c2.977-1.836 6.195-2.751 9.675-2.751v-2zm-10.711 3.041c-3.282 1.955-5.902 4.611-7.852 7.955l1.727 1.008c1.783-3.056 4.163-5.466 7.148-7.245l-1.023-1.718zm-7.852 7.955c-1.955 3.351-2.937 6.958-2.937 10.804h2c0-3.488.886-6.747 2.664-9.796l-1.727-1.008zm-2.937 10.804c0 3.902.943 7.538 2.829 10.89l1.743-.98c-1.714-3.048-2.572-6.345-2.572-9.91h-2zm2.841 10.912c1.95 3.273 4.565 5.922 7.834 7.939l1.05-1.702c-2.997-1.85-5.382-4.267-7.166-7.261l-1.718 1.024zm7.855 7.952c3.352 1.955 6.959 2.936 10.804 2.936v-2c-3.487 0-6.747-.885-9.796-2.664l-1.008 1.728zm86.926-.664l-.498-.867.498.867zm7.8-7.4h1v-3.332l-1.835 2.781.835.551zm0 5.1l.743.67.257-.285v-.385h-1zm-8.1 6l.379.926.009-.004.009-.004-.397-.918zm-21.7-1.5l-.521.853.007.004.514-.857zm-8.7-8.8l-.864.503.007.011.857-.514zm0-23.7l.856.517.005-.007-.861-.51zm8.7-8.4l-.472-.882-.007.004.479.878zm30.1 5.2l.703.712.676-.668-.632-.709-.747.665zm-31.4 31l-.702-.712-.792.782.861.704.633-.774zm6.4 4l-.386.922.012.006.013.005.361-.933zm-8.3-5.9l-.731.682.704.755.732-.727-.705-.71zm29.3-29.1l.705.71.759-.755-.804-.706-.66.751zm-6.4-4.1l-.386.922.012.006.013.005.361-.933zm-18.3 1.4l.484.875.007-.003-.491-.872zm-7.4 7.2l-.862-.506.862.506zm18.1 32.7c3.649 0 7.12-.95 10.398-2.833l-.996-1.734c-2.988 1.717-6.117 2.567-9.402 2.567v2zm10.398-2.833c3.274-1.881 5.988-4.458 8.137-7.716l-1.67-1.102c-1.984 3.009-4.47 5.365-7.463 7.084l.996 1.734zm6.302-8.267v5.1h2v-5.1h-2zm.258 4.43c-2.385 2.643-4.971 4.55-7.754 5.752l.793 1.836c3.083-1.332 5.897-3.424 8.446-6.248l-1.485-1.34zm-7.736 5.744c-2.794 1.143-5.996 1.726-9.622 1.726v2c3.841 0 7.306-.617 10.379-1.874l-.757-1.852zM826.3 323.2c-3.945 0-7.668-1.047-11.185-3.157l-1.029 1.714c3.816 2.29 7.893 3.443 12.214 3.443v-2zm-11.178-3.153c-3.461-2.115-6.246-4.931-8.364-8.461l-1.715 1.028c2.282 3.804 5.296 6.854 9.036 9.139l1.043-1.706zm-8.357-8.45c-2.047-3.518-3.065-7.245-3.065-11.197h-2c0 4.315 1.116 8.388 3.336 12.203l1.729-1.006zM803.7 300.4c0-4.3 1.025-8.119 3.056-11.483l-1.712-1.034c-2.235 3.702-3.344 7.884-3.344 12.517h2zm3.061-11.49c2.041-3.446 4.81-6.118 8.318-8.032l-.958-1.756c-3.825 2.086-6.856 5.014-9.081 8.768l1.721 1.02zm8.311-8.029C818.65 278.965 822.62 278 827 278v-2c-4.686 0-8.983 1.035-12.872 3.119l.944 1.762zM827 278c6.631 0 12.264 2.598 16.953 7.865l1.494-1.33C840.403 278.869 834.236 276 827 276v2zm16.998 6.488l-31.4 31 1.405 1.424 31.4-31-1.405-1.424zm-31.331 32.486c2.256 1.845 4.471 3.236 6.647 4.148l.773-1.844c-1.958-.821-4.009-2.097-6.154-3.852l-1.266 1.548zm6.672 4.159c2.2.851 4.659 1.267 7.361 1.267v-2c-2.497 0-4.705-.384-6.639-1.133l-.722 1.866zM804.9 300.1c0 5.778 1.924 10.758 5.769 14.882l1.463-1.364c-3.489-3.742-5.232-8.23-5.232-13.518h-2zm7.205 14.91l29.3-29.1-1.409-1.42-29.3 29.1 1.409 1.42zm29.255-30.561c-2.261-1.988-4.494-3.428-6.699-4.282l-.722 1.866c1.928.746 3.963 2.039 6.101 3.918l1.32-1.502zm-6.673-4.271c-2.218-.93-4.823-1.378-7.787-1.378v2c2.77 0 5.098.419 7.014 1.222l.773-1.844zM826.9 278.8c-4.219 0-8.025.935-11.39 2.828l.981 1.744c3.034-1.707 6.495-2.572 10.409-2.572v-2zm-11.384 2.825c-3.289 1.819-5.887 4.346-7.778 7.569l1.725 1.012c1.708-2.911 4.044-5.184 7.021-6.831l-.968-1.75zm-7.778 7.569c-1.898 3.233-2.838 6.877-2.838 10.906h2c0-3.705.861-6.994 2.563-9.894l-1.725-1.012zm57.365 33.306l-.418.909.01.004.011.005.397-.918zm-5.3-4.3h-1v.283l.148.241.852-.524zm0-5.3l.914-.404-1.914.404h1zm5.2 6.4l-.537.844.009.006.009.005.519-.855zm16.3-1l.707.707.005-.006.006-.006-.718-.695zm1.3-14.2l-.805.594.007.009.006.008.792-.611zm-5.5-4.6l.517-.856-.008-.005-.008-.004-.501.865zm-3.8-2.2l-.521.854.01.006.01.005.501-.865zm-6.2-3.9l-.6.8.022.017.023.015.555-.832zm-3.2-3.3l-.846.534.007.01.007.011.832-.555zm1.6-10.8l.65.759-.65-.759zm16.5.1h1v-.531l-.441-.298-.559.829zm0 4.4l-.798.603 1.798 2.378V283.8h-1zm-14.1-2.5l-.625-.781.625.781zm-.8 8l-.817.577.008.011.009.012.8-.6zm3.3 3l-.555.832.009.006.009.006.537-.844zm7.2 4.2l.494-.869-.006-.004-.488.873zm7.5 6l-.791.612.005.006.005.007.781-.625zm-1.7 17.9l.679.734v-.001l-.679-.733zm-9.8 2.7c-3.089 0-5.784-.515-8.104-1.518l-.793 1.836c2.613 1.13 5.586 1.682 8.897 1.682v-2zm-8.083-1.509c-2.346-1.078-3.932-2.398-4.866-3.915l-1.703 1.048c1.2 1.949 3.147 3.496 5.734 4.685l.835-1.818zm-4.717-3.391v-5.3h-2v5.3h2zm-1.915-4.896c1.33 3.01 3.18 5.314 5.578 6.84l1.073-1.688c-2.002-1.274-3.619-3.237-4.822-5.96l-1.829.808zm5.596 6.851c2.399 1.454 5.393 2.145 8.919 2.145v-2c-3.275 0-5.881-.642-7.882-1.855l-1.037 1.71zm8.919 2.145c3.487 0 6.39-1.076 8.607-3.293l-1.415-1.414c-1.783 1.783-4.146 2.707-7.192 2.707v2zm8.618-3.305c2.202-2.274 3.282-5.167 3.282-8.595h-2c0 2.972-.921 5.346-2.719 7.205l1.437 1.39zm3.282-8.595c0-2.854-.59-5.204-1.909-6.911l-1.583 1.222c.947 1.226 1.492 3.076 1.492 5.689h2zm-1.896-6.894c-1.242-1.68-3.197-3.294-5.787-4.862l-1.035 1.711c2.477 1.5 4.188 2.953 5.213 4.339l1.609-1.188zm-5.803-4.871l-3.8-2.2-1.002 1.73 3.8 2.2 1.002-1.73zm-3.781-2.189c-2.73-1.664-4.783-2.956-6.166-3.878l-1.109 1.664c1.417.945 3.497 2.253 6.234 3.922l1.041-1.708zm-6.12-3.846c-1.257-.942-2.24-1.962-2.968-3.055l-1.664 1.11c.871 1.307 2.021 2.487 3.432 3.545l1.2-1.6zm-2.955-3.034c-.688-1.089-1.045-2.366-1.045-3.866h-2c0 1.834.442 3.49 1.354 4.934l1.691-1.068zm-1.045-3.866c0-2.403.826-4.248 2.45-5.641l-1.301-1.518c-2.109 1.807-3.149 4.228-3.149 7.159h2zm2.45-5.641c1.648-1.412 3.834-2.159 6.65-2.159v-2c-3.184 0-5.866.853-7.951 2.641l1.301 1.518zm6.65-2.159c3.513 0 6.373.797 8.64 2.329l1.119-1.658c-2.666-1.801-5.94-2.671-9.759-2.671v2zm8.2 1.5v4.4h2v-4.4h-2zm1.797 3.797c-2.282-3.018-5.563-4.497-9.697-4.497v2c3.599 0 6.25 1.254 8.102 3.703l1.595-1.206zm-9.697-4.497c-2.303 0-4.274.578-5.825 1.819l1.249 1.562c1.116-.893 2.611-1.381 4.576-1.381v-2zm-5.825 1.819c-1.564 1.251-2.375 2.902-2.375 4.881h2c0-1.354.521-2.437 1.624-3.319l-1.249-1.562zm-2.375 4.881c0 1.661.457 3.165 1.383 4.477l1.634-1.154c-.674-.954-1.017-2.05-1.017-3.323h-2zm1.4 4.5c.883 1.178 2.074 2.252 3.545 3.232l1.109-1.664c-1.329-.886-2.338-1.812-3.054-2.768l-1.6 1.2zm3.563 3.244c1.492.949 3.913 2.361 7.248 4.229l.977-1.746c-3.331-1.865-5.71-3.254-7.152-4.171l-1.073 1.688zm7.242 4.225c3.337 1.898 5.715 3.819 7.204 5.743l1.581-1.224c-1.71-2.21-4.333-4.288-7.796-6.257l-.989 1.738zm7.214 5.756c1.423 1.778 2.181 4.172 2.181 7.275h2c0-3.43-.843-6.303-2.62-8.525l-1.561 1.25zm2.181 7.275c0 3.889-1.274 6.944-3.78 9.267l1.359 1.466c2.961-2.744 4.421-6.355 4.421-10.733h-2zm-3.779 9.266c-2.47 2.284-5.489 3.434-9.121 3.434v2c4.1 0 7.615-1.317 10.479-3.966l-1.358-1.468zm24.144-52.966l-.707.707.017.017.018.016.672-.74zm0-4.9l-.672-.74-.018.016-.017.017.707.707zm4.9 0l-.707.707.017.017.018.016.672-.74zm0 4.9l-.672-.74-.018.016-.017.017.707.707zm-4 11.3v-1h-1v1h1zm3.2 0h1v-1h-1v1zm0 45v1h1v-1h-1zm-3.2 0h-1v1h1v-1zm1.6-56.3c-.668 0-1.265-.229-1.827-.74l-1.345 1.48c.904.823 1.974 1.26 3.172 1.26v-2zm-1.793-.707c-.467-.467-.707-1.04-.707-1.793h-2c0 1.247.427 2.341 1.293 3.207l1.414-1.414zm-.707-1.793c0-.665.226-1.212.707-1.693l-1.414-1.414c-.852.852-1.293 1.905-1.293 3.107h2zm.673-1.66c.562-.511 1.159-.74 1.827-.74v-2c-1.198 0-2.268.437-3.172 1.26l1.345 1.48zm1.827-.74c.665 0 1.212.226 1.693.707l1.414-1.414c-.852-.852-1.905-1.293-3.107-1.293v2zm1.728.74c.539.49.772 1.027.772 1.66h2c0-1.234-.5-2.297-1.427-3.14l-1.345 1.48zm.772 1.66c0 .721-.25 1.285-.772 1.76l1.345 1.48c.944-.858 1.427-1.961 1.427-3.24h-2zm-.807 1.793c-.481.481-1.028.707-1.693.707v2c1.202 0 2.255-.441 3.107-1.293l-1.414-1.414zM907.768 279h3.2v-2h-3.2v2zm2.2-1v45h2v-45h-2zm1 44h-3.2v2h3.2v-2zm-2.2 1v-45h-2v45h2zm35.71 18.2l-.433.901.433-.901zm-8.4-6.8h-1v.32l.187.261.813-.581zm0-4.6l.88-.476-1.88.476h1zm8.1 8l-.503.864.007.004.496-.868zm26.2-2.5l-.732-.68-.006.006.738.674zm5.2-23.2h1l-1.894-.447.894.447zm-8.5 8.8l.501.865.005-.002-.506-.863zm-23.9.1l-.503.864.503-.864zm-8.7-8.6l-.864.503.004.007.86-.51zm0-23.5l.861.51.004-.007-.865-.503zm8.7-8.7l-.503-.864.503.864zm32.4 9l-.9.434 1.9-.434h-1zm0-11.2v-1h-1v1h1zm3.2 0h1v-1h-1v1zm-6 59.4l-.724-.69-.005.006-.006.006.735.678zm-7.3-18.8l.512.859.007-.004.006-.004-.525-.851zm7.4-7.6l-.863-.504-.004.006.867.498zm0-20.7l-.871.49.006.011.006.011.859-.512zm-7.4-7.6l-.525.851.007.004.007.004.511-.859zm-20.6 0l.512.859.005-.003-.517-.856zm-7.6 7.6l-.856-.517-.003.005.859.512zm0 20.7l-.863.504.006.011.006.01.851-.525zm7.6 7.6l-.525.851.011.007.01.006.504-.864zm10.7 24.2c-3.642 0-7.194-.829-10.666-2.501l-.867 1.802c3.728 1.795 7.575 2.699 11.533 2.699v-2zm-10.666-2.501c-3.473-1.672-6.132-3.838-8.02-6.48l-1.627 1.162c2.112 2.958 5.053 5.326 8.78 7.12l.867-1.802zm-7.834-5.899v-4.6h-2v4.6h2zm-1.879-4.124c1.834 3.387 4.678 6.178 8.476 8.388l1.006-1.728c-3.534-2.057-6.091-4.599-7.723-7.612l-1.759.952zm8.483 8.392c3.867 2.21 7.837 3.332 11.896 3.332v-2c-3.673 0-7.304-1.011-10.903-3.068l-.993 1.736zM955.578 342c6.608 0 11.838-1.969 15.539-6.026l-1.477-1.348c-3.233 3.543-7.869 5.374-14.062 5.374v2zm15.533-6.02c3.7-3.984 5.467-9.768 5.467-17.18h-2c0 7.122-1.699 12.337-4.932 15.82l1.465 1.36zm5.467-17.18v-6.7h-2v6.7h2zm-1.894-7.147c-1.704 3.407-4.392 6.204-8.111 8.384l1.011 1.726c4.014-2.353 6.993-5.423 8.889-9.216l-1.789-.894zm-8.107 8.382c-3.655 2.116-7.483 3.165-11.499 3.165v2c4.384 0 8.556-1.151 12.501-3.435l-1.002-1.73zm-11.499 3.165c-4.091 0-7.884-1.02-11.397-3.064l-1.006 1.728c3.821 2.223 7.961 3.336 12.403 3.336v-2zm-11.397-3.064c-3.521-2.049-6.297-4.795-8.342-8.246l-1.721 1.02c2.222 3.749 5.246 6.736 9.057 8.954l1.006-1.728zm-8.338-8.239c-2.046-3.515-3.065-7.276-3.065-11.297h-2c0 4.379 1.115 8.485 3.336 12.303l1.729-1.006zm-3.065-11.297c0-4.021 1.019-7.745 3.061-11.19l-1.721-1.02c-2.225 3.755-3.34 7.831-3.34 12.21h2zm3.065-11.197c2.046-3.517 4.821-6.292 8.338-8.339l-1.006-1.728c-3.816 2.22-6.841 5.245-9.061 9.061l1.729 1.006zm8.338-8.339c3.513-2.044 7.306-3.064 11.397-3.064v-2c-4.442 0-8.582 1.113-12.403 3.336l1.006 1.728zM955.078 278c4.225 0 8.116 1.054 11.693 3.162l1.015-1.724c-3.89-2.292-8.132-3.438-12.708-3.438v2zm11.693 3.162c3.571 2.104 6.197 4.925 7.907 8.472l1.801-.868c-1.89-3.92-4.797-7.032-8.693-9.328l-1.015 1.724zm9.807 8.038V278h-2v11.2h2zm-1-10.2h3.2v-2h-3.2v2zm2.2-1v40.8h2V278h-2zm0 40.8c0 8.05-1.963 13.961-5.724 17.91l1.449 1.38c4.239-4.451 6.275-10.94 6.275-19.29h-2zm-5.735 17.922c-3.692 4.005-9.123 6.078-16.465 6.078v2c7.725 0 13.761-2.193 17.936-6.722l-1.471-1.356zM955.278 322.4c3.846 0 7.423-.981 10.712-2.941l-1.023-1.718c-2.978 1.774-6.201 2.659-9.689 2.659v2zm10.725-2.949c3.273-2.019 5.858-4.672 7.742-7.953l-1.734-.996c-1.715 2.986-4.063 5.399-7.058 7.247l1.05 1.702zm7.739-7.947c1.957-3.354 2.936-6.995 2.936-10.904h-2c0 3.558-.887 6.85-2.663 9.896l1.727 1.008zm2.936-10.904c0-3.909-.979-7.52-2.941-10.812l-1.718 1.024c1.772 2.975 2.659 6.23 2.659 9.788h2zm-2.928-10.79c-1.885-3.351-4.475-6.012-7.76-7.969l-1.023 1.718c2.982 1.777 5.325 4.182 7.04 7.231l1.743-.98zm-7.747-7.961c-3.29-2.03-6.872-3.049-10.725-3.049v2c3.481 0 6.699.915 9.675 2.751l1.05-1.702zm-10.725-3.049c-3.916 0-7.561 1.017-10.917 3.044l1.034 1.712c3.045-1.839 6.333-2.756 9.883-2.756v-2zm-10.911 3.041c-3.278 1.953-5.929 4.605-7.945 7.942l1.712 1.034c1.851-3.063 4.268-5.477 7.256-7.258l-1.023-1.718zm-7.948 7.947c-1.961 3.292-2.941 6.903-2.941 10.812h2c0-3.558.887-6.813 2.659-9.788l-1.718-1.024zm-2.941 10.812c0 3.909.98 7.55 2.937 10.904l1.727-1.008c-1.777-3.046-2.664-6.338-2.664-9.896h-2zm2.949 10.925a24.004 24.004 0 0 0 7.926 7.926l1.05-1.702a22.022 22.022 0 0 1-7.274-7.274l-1.702 1.05zm7.947 7.939c3.355 1.956 6.995 2.936 10.904 2.936v-2c-3.557 0-6.85-.887-9.896-2.664l-1.008 1.728zM999.398 278v-1h-1v1h1zm3.202 0h1v-1h-1v1zm0 10h-1l1.91.403-.91-.403zm7.5-8l.49.87.01-.003v-.004l-.5-.863zm24.8 2.2l-.74.671v.008l.01.007.73-.686zm4.9 40.8v1h1v-1h-1zm-3.2 0h-1v1h1v-1zm-4-38.8l-.76.655.01.009.75-.664zm-20.6-2.1l.47.882.01-.004-.48-.878zm-6.9 6.4l-.85-.536v.008l-.01.007.86.521zm-2.5 34.5v1h1v-1h-1zm-3.202 0h-1v1h1v-1zm0-44h3.202v-2h-3.202v2zm2.202-1v10h2v-10h-2zm1.91 10.403c1.37-3.114 3.71-5.626 7.08-7.533l-.98-1.74c-3.7 2.093-6.36 4.914-7.93 8.467l1.83.806zm7.09-7.54c3.38-1.973 7.1-2.963 11.2-2.963v-2c-4.44 0-8.51 1.077-12.21 3.237l1.01 1.726zm11.2-2.963c5.3 0 9.38 1.682 12.36 4.971l1.48-1.342c-3.42-3.777-8.08-5.629-13.84-5.629v2zm12.37 4.986c3.04 3.228 4.63 7.82 4.63 13.914h2c0-6.439-1.68-11.581-5.17-15.286l-1.46 1.372zm4.63 13.914V323h2v-26.2h-2zm1 25.2h-3.2v2h3.2v-2zm-2.2 1v-26.2h-2V323h2zm0-26.2c0-5.559-1.38-10.026-4.25-13.264l-1.5 1.328c2.46 2.762 3.75 6.695 3.75 11.936h2zm-4.25-13.255c-2.82-3.261-6.79-4.845-11.75-4.845v2c4.5 0 7.87 1.416 10.24 4.155l1.51-1.31zm-11.75-4.845c-3.63 0-7 .839-10.08 2.522l.96 1.756c2.78-1.517 5.81-2.278 9.12-2.278v-2zm-10.07 2.518a19.24 19.24 0 0 0-7.28 6.746l1.69 1.072a17.165 17.165 0 0 1 6.53-6.054l-.94-1.764zm-7.29 6.761c-1.77 2.903-2.64 6.186-2.64 9.821h2c0-3.299.79-6.216 2.35-8.779l-1.71-1.042zm-2.64 9.821V323h2v-25.2h-2zm1 24.2h-3.202v2h3.202v-2zm-2.2 1v-45h-2.002v45h2.002z"/></g><g filter="url(#filter1_d)" fill="red"><path d="M16.783 52h3.2c11.933 0 21.133 3.267 27.6 9.8 6.533 6.467 9.8 15.7 9.8 27.7 0 6.867-1.667 13.167-5 18.9-3.334 5.733-7.867 10.267-13.6 13.6-5.667 3.333-11.934 5-18.8 5h-3.2V52zm4 71.9c6.133 0 11.733-1.5 16.8-4.5 5.067-3.067 9.067-7.233 12-12.5 3-5.267 4.5-11.067 4.5-17.4 0-11.067-2.9-19.567-8.7-25.5-5.733-6-13.934-9-24.6-9h-.8v68.9h.8zM76.406 82h3.2v10.4c1.333-3.267 3.266-5.833 5.8-7.7 2.6-1.867 5.533-2.8 8.8-2.8 2.066 0 4.166.433 6.299 1.3v3.7c-1.933-1.467-4.1-2.2-6.5-2.2-2.4 0-4.733.733-7 2.2-2.2 1.467-4 3.433-5.4 5.9a16.37 16.37 0 0 0-2 7.9V127h-3.2V82zm27.447 45.9c-.933 0-1.767-.333-2.5-1-.667-.667-1-1.5-1-2.5 0-.933.333-1.733 1-2.4.733-.667 1.567-1 2.5-1s1.733.333 2.4 1c.733.667 1.1 1.467 1.1 2.4 0 1-.367 1.833-1.1 2.5-.667.667-1.467 1-2.4 1zm51.24-45.9h3.2v6.8c3.067-5.267 8-7.9 14.8-7.9 3.267 0 6.1.933 8.5 2.8 2.4 1.8 4.067 4.533 5 8.2.867-3.267 2.767-5.9 5.7-7.9 3-2.067 6.367-3.1 10.1-3.1 4.867 0 8.633 1.433 11.3 4.3 2.667 2.8 4 6.8 4 12V127h-3.2V97.2c0-4.2-1.1-7.5-3.3-9.9-2.133-2.4-4.967-3.6-8.5-3.6-2.667 0-5.133.667-7.4 2-2.267 1.267-4.067 3-5.4 5.2-1.333 2.2-2 4.633-2 7.3V127h-3.2V99c0-4.8-1.133-8.533-3.4-11.2-2.267-2.733-5.2-4.1-8.8-4.1-2.4 0-4.7.6-6.9 1.8-2.133 1.2-3.9 2.833-5.3 4.9-1.333 2-2 4.2-2 6.6v30h-3.2V82zm105.095 43.4c3.467 0 6.767-.9 9.9-2.7 3.134-1.8 5.734-4.267 7.8-7.4v5.1c-2.466 2.733-5.166 4.733-8.1 6-2.933 1.2-6.266 1.8-10 1.8-4.133 0-8.033-1.1-11.7-3.3-3.6-2.2-6.5-5.133-8.7-8.8-2.133-3.667-3.2-7.567-3.2-11.7 0-4.467 1.067-8.467 3.2-12 2.134-3.6 5.034-6.4 8.7-8.4 3.734-2 7.867-3 12.4-3 6.934 0 12.834 2.733 17.7 8.2l-31.4 31c2.2 1.8 4.334 3.133 6.4 4 2.067.8 4.4 1.2 7 1.2zm-20.8-21.3c0 5.533 1.834 10.267 5.5 14.2l29.3-29.1c-2.2-1.933-4.333-3.3-6.4-4.1-2.066-.867-4.533-1.3-7.4-1.3-4.066 0-7.7.9-10.9 2.7-3.133 1.733-5.6 4.133-7.4 7.2-1.8 3.067-2.7 6.533-2.7 10.4zm78.003 24c-4.334 0-8.334-1.067-12-3.2-3.6-2.133-6.467-5-8.6-8.6-2.134-3.6-3.2-7.533-3.2-11.8s1.066-8.2 3.2-11.8c2.133-3.6 5-6.467 8.6-8.6 3.666-2.133 7.666-3.2 12-3.2 4.2 0 8.2 1.133 12 3.4 3.8 2.2 6.6 5.1 8.4 8.7V52h3.2v75h-3.2v-10.9c-2 3.6-4.9 6.5-8.7 8.7-3.734 2.2-7.634 3.3-11.7 3.3zm-.1-2.8c3.666 0 7.066-.933 10.2-2.8 3.2-1.933 5.733-4.467 7.6-7.6 1.933-3.2 2.9-6.633 2.9-10.3 0-3.667-.967-7.1-2.9-10.3-1.867-3.2-4.4-5.767-7.6-7.7-3.134-1.933-6.534-2.9-10.2-2.9-3.667 0-7.067.967-10.2 2.9-3.134 1.867-5.634 4.4-7.5 7.6-1.867 3.2-2.8 6.633-2.8 10.3 0 3.733.9 7.2 2.7 10.4 1.866 3.133 4.366 5.667 7.5 7.6 3.2 1.867 6.633 2.8 10.3 2.8zm44.922 2.6c-.934 0-1.767-.333-2.5-1-.667-.667-1-1.5-1-2.5 0-.933.333-1.733 1-2.4.733-.667 1.566-1 2.5-1 .933 0 1.733.333 2.4 1 .733.667 1.1 1.467 1.1 2.4 0 1-.367 1.833-1.1 2.5-.667.667-1.467 1-2.4 1zM491.952 52v75h-3.3V56.8l-35.4 71.6-35.2-72.5V127h-3.3V52h4.7l33.8 69.6 34.1-69.6h4.6zm26.076 19.7c-.933 0-1.767-.333-2.5-1-.667-.667-1-1.5-1-2.5 0-.933.333-1.733 1-2.4.733-.667 1.567-1 2.5-1s1.733.333 2.4 1c.733.667 1.1 1.467 1.1 2.4 0 1-.367 1.833-1.1 2.5-.667.667-1.467 1-2.4 1zm-1.6 10.3h3.2v45h-3.2V82zm47.31 46.3c-4.333 0-8.333-1.033-12-3.1-3.6-2.067-6.466-4.9-8.6-8.5-2.133-3.6-3.2-7.667-3.2-12.2 0-4.2 1.067-8.067 3.2-11.6 2.134-3.6 5.034-6.467 8.7-8.6 3.734-2.133 7.834-3.2 12.3-3.2 3.734 0 6.934.6 9.6 1.8 2.667 1.2 5.267 3.067 7.8 5.6v5.4c-2.2-3.267-4.666-5.733-7.4-7.4-2.666-1.733-6-2.6-10-2.6-3.666 0-7.133.967-10.4 2.9-3.2 1.867-5.766 4.4-7.7 7.6-1.933 3.2-2.9 6.633-2.9 10.3 0 4 .934 7.6 2.8 10.8 1.867 3.133 4.367 5.6 7.5 7.4 3.2 1.733 6.634 2.6 10.3 2.6 7.467 0 13.4-3.367 17.8-10.1v5.4c-2.4 2.533-5.066 4.433-8 5.7-2.866 1.2-6.133 1.8-9.8 1.8zM598.39 52h3.2v39.3c1.4-3 3.767-5.467 7.1-7.4 3.4-2 6.833-3 10.3-3 6.333 0 11.2 1.733 14.6 5.2 3.467 3.467 5.2 8.367 5.2 14.7V127h-3.2v-26.2c0-5.467-1.467-9.667-4.4-12.6-2.867-3-6.933-4.5-12.2-4.5-3.2 0-6.133.767-8.8 2.3-2.667 1.467-4.767 3.533-6.3 6.2-1.533 2.6-2.3 5.467-2.3 8.6V127h-3.2V52zm82.227 76.1c-4.266 0-8.233-1.067-11.9-3.2-3.666-2.133-6.566-5-8.7-8.6-2.133-3.667-3.2-7.6-3.2-11.8 0-4.2 1.067-8.1 3.2-11.7 2.134-3.667 5.034-6.567 8.7-8.7 3.667-2.133 7.634-3.2 11.9-3.2 4.334 0 8.434 1.167 12.3 3.5 3.867 2.267 6.567 5.233 8.1 8.9V82h3.2v45h-3.2v-11.2c-1.8 3.733-4.6 6.733-8.4 9-3.733 2.2-7.733 3.3-12 3.3zm.2-2.8c3.667 0 7.067-.933 10.2-2.8 3.134-1.933 5.6-4.467 7.4-7.6 1.867-3.2 2.8-6.667 2.8-10.4 0-3.667-.933-7.1-2.8-10.3-1.866-3.2-4.366-5.733-7.5-7.6-3.133-1.933-6.533-2.9-10.2-2.9-3.666 0-7.1.967-10.3 2.9-3.133 1.933-5.666 4.5-7.6 7.7-1.866 3.2-2.8 6.633-2.8 10.3 0 3.667.934 7.1 2.8 10.3 1.934 3.133 4.5 5.667 7.7 7.6 3.2 1.867 6.634 2.8 10.3 2.8zm65.922.1c3.467 0 6.767-.9 9.9-2.7 3.133-1.8 5.733-4.267 7.8-7.4v5.1c-2.467 2.733-5.167 4.733-8.1 6-2.933 1.2-6.267 1.8-10 1.8-4.133 0-8.033-1.1-11.7-3.3-3.6-2.2-6.5-5.133-8.7-8.8-2.133-3.667-3.2-7.567-3.2-11.7 0-4.467 1.067-8.467 3.2-12 2.133-3.6 5.033-6.4 8.7-8.4 3.733-2 7.867-3 12.4-3 6.933 0 12.833 2.733 17.7 8.2l-31.4 31c2.2 1.8 4.333 3.133 6.4 4 2.067.8 4.4 1.2 7 1.2zm-20.8-21.3c0 5.533 1.833 10.267 5.5 14.2l29.3-29.1c-2.2-1.933-4.333-3.3-6.4-4.1-2.067-.867-4.533-1.3-7.4-1.3-4.067 0-7.7.9-10.9 2.7-3.133 1.733-5.6 4.133-7.4 7.2-1.8 3.067-2.7 6.533-2.7 10.4zm73.902 23.8c-3.133 0-6-.7-8.6-2.1-2.6-1.467-4.666-3.5-6.2-6.1-1.533-2.6-2.3-5.5-2.3-8.7V52h3.2v59c0 2.667.6 5.067 1.8 7.2a14.388 14.388 0 0 0 5.1 5.1c2.134 1.2 4.467 1.8 7 1.8v2.8zM849.755 52h3.3v43.5h51.4V52h3.3v75h-3.3V98.4h-51.4V127h-3.3V52zm96.029 19.4c-.8 0-1.5-.267-2.1-.8-.534-.6-.8-1.3-.8-2.1 0-.733.266-1.367.8-1.9.6-.6 1.3-.9 2.1-.9.733 0 1.366.3 1.9.9.6.533.9 1.167.9 1.9 0 .8-.3 1.5-.9 2.1-.534.533-1.167.8-1.9.8zm10.6 0c-.8 0-1.5-.267-2.1-.8-.534-.6-.8-1.3-.8-2.1 0-.733.266-1.367.8-1.9.6-.6 1.3-.9 2.1-.9.733 0 1.366.3 1.9.9.6.533.9 1.167.9 1.9 0 .8-.3 1.5-.9 2.1-.534.533-1.167.8-1.9.8zm-6.6 56.7c-6.334 0-11.234-1.733-14.7-5.2-3.4-3.467-5.1-8.367-5.1-14.7V82h3.2v26.2c0 5.467 1.433 9.7 4.3 12.7 2.933 2.933 7.033 4.4 12.3 4.4 3.2 0 6.133-.7 8.8-2.1 2.666-1.467 4.766-3.5 6.3-6.1 1.533-2.6 2.3-5.567 2.3-8.9V82h3.2v45h-3.2v-8.4c-1.534 2.8-3.834 5.1-6.9 6.9-3.067 1.733-6.567 2.6-10.5 2.6zm64.826 0c-4.07 0-8-1.1-11.8-3.3-3.732-2.2-6.599-5.1-8.599-8.7V127h-3.2V52h3.2v41.4c1.8-3.8 4.6-6.833 8.399-9.1 3.8-2.267 7.8-3.4 12-3.4 4.33 0 8.3 1.067 11.9 3.2 3.67 2.133 6.57 5 8.7 8.6 2.13 3.6 3.2 7.533 3.2 11.8s-1.07 8.2-3.2 11.8c-2.13 3.6-5.03 6.467-8.7 8.6-3.6 2.133-7.57 3.2-11.9 3.2zm.2-2.8c3.67 0 7.07-.933 10.2-2.8 3.13-1.933 5.6-4.467 7.4-7.6 1.87-3.2 2.8-6.667 2.8-10.4 0-3.667-.93-7.1-2.8-10.3-1.87-3.2-4.37-5.733-7.5-7.6-3.13-1.933-6.53-2.9-10.2-2.9-3.67 0-7.1.967-10.3 2.9-3.13 1.933-5.666 4.5-7.599 7.7-1.867 3.2-2.8 6.633-2.8 10.3 0 3.667.933 7.1 2.8 10.3 1.933 3.133 4.499 5.667 7.699 7.6 3.2 1.867 6.63 2.8 10.3 2.8zm40.65-43.3h3.2v10c1.46-3.333 3.96-6 7.5-8 3.53-2.067 7.43-3.1 11.7-3.1 5.53 0 9.9 1.767 13.1 5.3 3.26 3.467 4.9 8.333 4.9 14.6V127h-3.2v-26.2c0-5.4-1.34-9.6-4-12.6-2.6-3-6.27-4.5-11-4.5-3.47 0-6.67.8-9.6 2.4-2.87 1.533-5.17 3.667-6.9 6.4-1.67 2.733-2.5 5.833-2.5 9.3V127h-3.2V82zm82.92 43.4c3.47 0 6.77-.9 9.9-2.7 3.14-1.8 5.74-4.267 7.8-7.4v5.1c-2.46 2.733-5.16 4.733-8.1 6-2.93 1.2-6.26 1.8-10 1.8-4.13 0-8.03-1.1-11.7-3.3-3.6-2.2-6.5-5.133-8.7-8.8-2.13-3.667-3.2-7.567-3.2-11.7 0-4.467 1.07-8.467 3.2-12 2.14-3.6 5.04-6.4 8.7-8.4 3.74-2 7.87-3 12.4-3 6.94 0 12.84 2.733 17.7 8.2l-31.4 31c2.2 1.8 4.34 3.133 6.4 4 2.07.8 4.4 1.2 7 1.2zm-20.8-21.3c0 5.533 1.84 10.267 5.5 14.2l29.3-29.1c-2.2-1.933-4.33-3.3-6.4-4.1-2.06-.867-4.53-1.3-7.4-1.3-4.06 0-7.7.9-10.9 2.7-3.13 1.733-5.6 4.133-7.4 7.2-1.8 3.067-2.7 6.533-2.7 10.4zm56.81-22.1h3.2v10.4c1.33-3.267 3.26-5.833 5.8-7.7 2.6-1.867 5.53-2.8 8.8-2.8 2.06 0 4.16.433 6.3 1.3v3.7c-1.94-1.467-4.1-2.2-6.5-2.2-2.4 0-4.74.733-7 2.2-2.2 1.467-4 3.433-5.4 5.9-1.34 2.467-2 5.1-2 7.9V127h-3.2V82z"/><path d="M16.783 52v-1h-1v1h1zm30.8 9.8l-.71.704.006.007.704-.711zm4.8 46.6l.864.503-.864-.503zm-13.6 13.6l-.503-.865-.004.003.507.862zm-22 5h-1v1h1v-1zm20.8-7.6l.51.861.008-.006-.518-.855zm12-12.5l-.87-.495-.004.008.874.487zm-4.2-42.9l-.723.69.008.009.715-.699zm-25.4-9v-1h-1v1h1zm0 68.9h-1v1h1v-1zm-3.2-70.9h3.2v-2h-3.2v2zm3.2 0c11.75 0 20.662 3.212 26.89 9.504l1.42-1.407C41.589 54.32 32.1 51 19.984 51v2zm26.896 9.51c6.291 6.227 9.504 15.172 9.504 26.99h2c0-12.182-3.32-21.704-10.097-28.41l-1.407 1.42zm9.504 26.99c0 6.697-1.623 12.822-4.865 18.397l1.73 1.006c3.425-5.892 5.135-12.366 5.135-19.403h-2zm-4.865 18.397c-3.246 5.584-7.654 9.992-13.238 13.238l1.005 1.73c5.884-3.421 10.542-8.079 13.962-13.962l-1.729-1.006zm-13.242 13.241C32.77 124.377 26.679 126 19.983 126v2c7.037 0 13.48-1.71 19.307-5.138l-1.014-1.724zM19.983 126h-3.2v2h3.2v-2zm-2.2 1V52h-2v75h2zm3-2.1c6.305 0 12.082-1.544 17.31-4.64l-1.02-1.72c-4.906 2.904-10.328 4.36-16.29 4.36v2zm17.318-4.645c5.218-3.158 9.34-7.453 12.355-12.868l-1.747-.974c-2.85 5.118-6.729 9.156-11.644 12.131l1.036 1.711zm12.35-12.86c3.09-5.424 4.632-11.396 4.632-17.895h-2c0 6.168-1.459 11.796-4.37 16.905l1.739.99zM55.084 89.5c0-11.238-2.948-20.023-8.985-26.199l-1.43 1.398c5.563 5.69 8.415 13.906 8.415 24.801h2zm-8.977-26.19C40.134 57.06 31.64 54 20.783 54v2c10.476 0 18.382 2.94 23.877 8.69l1.446-1.38zM20.783 54h-.8v2h.8v-2zm-1.8 1v68.9h2V55h-2zm1 69.9h.8v-2h-.8v2zM76.406 82v-1h-1v1h1zm3.2 0h1v-1h-1v1zm0 10.4h-1l1.925.378-.925-.378zm5.8-7.7l-.584-.812-.01.007.594.805zm15.099-1.5h1v-.673l-.623-.254-.377.927zm0 3.7l-.604.797 1.604 1.217V86.9h-1zm-13.5 0l-.543-.84-.011.008.555.832zm-5.4 5.9l-.87-.494-.004.01-.005.008.88.476zm-2 34.2v1h1v-1h-1zm-3.2 0h-1v1h1v-1zm0-44h3.2v-2h-3.2v2zm2.2-1v10.4h2V82h-2zm1.926 10.778c1.273-3.118 3.1-5.528 5.468-7.273l-1.187-1.61c-2.698 1.989-4.738 4.711-6.132 8.127l1.851.756zm5.458-7.266c2.426-1.742 5.154-2.612 8.216-2.612v-2c-3.47 0-6.609.996-9.383 2.988l1.167 1.624zm8.216-2.612c1.924 0 3.897.403 5.924 1.226l.753-1.853c-2.24-.91-4.467-1.373-6.677-1.373v2zm5.3.3v3.7h2v-3.7h-2zm1.605 2.903c-2.105-1.597-4.484-2.403-7.105-2.403v2c2.18 0 4.135.66 5.896 1.997l1.209-1.594zM94.005 83.7c-2.616 0-5.135.802-7.543 2.36l1.087 1.68c2.125-1.376 4.273-2.04 6.456-2.04v-2zm-7.554 2.368c-2.34 1.56-4.244 3.646-5.715 6.238l1.74.988c1.328-2.341 3.023-4.188 5.084-5.562l-1.11-1.664zm-5.725 6.257a17.364 17.364 0 0 0-2.12 8.375h2c0-2.634.625-5.104 1.88-7.425l-1.76-.95zm-2.12 8.375V127h2v-26.3h-2zm1 25.3h-3.2v2h3.2v-2zm-2.2 1V82h-2v45h2zm23.947-.1l-.707.707.017.017.017.016.673-.74zm0-4.9l-.673-.74-.017.016-.017.017.707.707zm4.9 0l-.707.707.017.017.017.016.673-.74zm0 4.9l-.673-.74-.017.016-.017.017.707.707zm-2.4 0c-.668 0-1.265-.229-1.827-.74l-1.346 1.48c.905.823 1.975 1.26 3.173 1.26v-2zm-1.793-.707c-.467-.467-.707-1.04-.707-1.793h-2c0 1.247.427 2.341 1.293 3.207l1.414-1.414zm-.707-1.793c0-.665.226-1.212.707-1.693l-1.414-1.414c-.852.852-1.293 1.905-1.293 3.107h2zm.673-1.66c.562-.511 1.159-.74 1.827-.74v-2c-1.198 0-2.268.437-3.173 1.26l1.346 1.48zm1.827-.74c.665 0 1.212.226 1.693.707l1.414-1.414c-.852-.852-1.905-1.293-3.107-1.293v2zm1.727.74c.54.49.773 1.027.773 1.66h2c0-1.234-.5-2.297-1.427-3.14l-1.346 1.48zm.773 1.66c0 .721-.25 1.285-.773 1.76l1.346 1.48c.944-.858 1.427-1.961 1.427-3.24h-2zm-.807 1.793c-.481.481-1.028.707-1.693.707v2c1.202 0 2.255-.441 3.107-1.293l-1.414-1.414zM155.093 82v-1h-1v1h1zm3.2 0h1v-1h-1v1zm0 6.8h-1v3.705l1.864-3.202-.864-.503zm23.3-5.1l-.614.79.007.005.007.005.6-.8zm5 8.2l-.969.247.949 3.728.987-3.719-.967-.256zm5.7-7.9l.563.826.004-.002-.567-.824zm21.4 1.2l-.732.681.008.009.724-.69zm4 41.8v1h1v-1h-1zm-3.2 0h-1v1h1v-1zm-3.3-39.7l-.747.664.005.006.005.006.737-.676zm-15.9-1.6l.488.873.009-.005.01-.006-.507-.862zm-5.4 5.2l-.855-.518.855.518zm-2 36.1v1h1v-1h-1zm-3.2 0h-1v1h1v-1zm-3.4-39.2l-.77.638.008.01.762-.648zm-15.7-2.3l-.479-.878-.011.006.49.872zm-5.3 4.9l-.828-.56-.004.005.832.555zm-2 36.6v1h1v-1h-1zm-3.2 0h-1v1h1v-1zm0-44h3.2v-2h-3.2v2zm2.2-1v6.8h2V82h-2zm1.864 7.303c2.864-4.918 7.442-7.403 13.936-7.403v-2c-7.106 0-12.395 2.782-15.664 8.397l1.728 1.006zm13.936-7.403c3.062 0 5.675.87 7.886 2.59l1.228-1.58c-2.589-2.013-5.643-3.01-9.114-3.01v2zm7.9 2.6c2.174 1.63 3.739 4.142 4.631 7.647l1.938-.494c-.975-3.829-2.743-6.784-5.369-8.753l-1.2 1.6zm6.567 7.656c.801-3.022 2.551-5.458 5.296-7.33l-1.126-1.652c-3.121 2.128-5.172 4.958-6.104 8.47l1.934.512zm5.3-7.333c2.829-1.948 5.997-2.923 9.533-2.923v-2c-3.931 0-7.496 1.092-10.667 3.276l1.134 1.647zm9.533-2.923c4.661 0 8.134 1.365 10.568 3.981l1.464-1.362c-2.9-3.118-6.96-4.619-12.032-4.619v2zm10.576 3.99c2.436 2.557 3.724 6.276 3.724 11.31h2c0-5.366-1.378-9.647-4.276-12.69l-1.448 1.38zm3.724 11.31V127h2V97.2h-2zm1 28.8h-3.2v2h3.2v-2zm-2.2 1V97.2h-2V127h2zm0-29.8c0-4.375-1.149-7.943-3.563-10.576l-1.474 1.352c1.986 2.167 3.037 5.2 3.037 9.224h2zm-3.553-10.564c-2.343-2.637-5.46-3.936-9.247-3.936v2c3.28 0 5.829 1.1 7.753 3.264l1.494-1.328zm-9.247-3.936c-2.842 0-5.484.713-7.907 2.138l1.014 1.724c2.111-1.242 4.402-1.862 6.893-1.862v-2zm-7.888 2.127a15.443 15.443 0 0 0-5.767 5.555l1.71 1.036a13.447 13.447 0 0 1 5.033-4.845l-.976-1.746zm-5.767 5.555c-1.432 2.362-2.145 4.976-2.145 7.818h2c0-2.49.62-4.744 1.855-6.782l-1.71-1.036zm-2.145 7.818V127h2V98.2h-2zm1 27.8h-3.2v2h3.2v-2zm-2.2 1V99h-2v28h2zm0-28c0-4.95-1.169-8.943-3.638-11.848l-1.524 1.296c2.064 2.428 3.162 5.901 3.162 10.552h2zm-3.63-11.838c-2.46-2.966-5.677-4.462-9.57-4.462v2c3.307 0 5.957 1.238 8.03 3.738l1.54-1.276zm-9.57-4.462c-2.575 0-5.039.646-7.379 1.922l.958 1.756c2.06-1.124 4.196-1.678 6.421-1.678v-2zm-7.39 1.928c-2.271 1.278-4.153 3.019-5.638 5.211l1.656 1.122c1.315-1.941 2.967-3.467 4.962-4.59l-.98-1.743zm-5.642 5.217A12.647 12.647 0 0 0 157.293 97h2c0-2.202.608-4.21 1.832-6.045l-1.664-1.11zM157.293 97v30h2V97h-2zm1 29h-3.2v2h3.2v-2zm-2.2 1V82h-2v45h2zm113.995-4.3l-.498-.867.498.867zm7.8-7.4h1v-3.332l-1.834 2.781.834.551zm0 5.1l.743.67.257-.285v-.385h-1zm-8.1 6l.379.926.009-.004.009-.004-.397-.918zm-21.7-1.5l-.521.853.007.004.514-.857zm-8.7-8.8l-.864.503.007.011.857-.514zm0-23.7l.856.517.005-.007-.861-.51zm8.7-8.4l-.472-.882-.007.004.479.878zm30.1 5.2l.703.712.676-.668-.632-.709-.747.665zm-31.4 31l-.702-.712-.792.782.861.704.633-.774zm6.4 4l-.386.922.012.006.013.005.361-.933zm-8.3-5.9l-.731.682.704.755.732-.727-.705-.71zm29.3-29.1l.705.71.759-.755-.804-.706-.66.751zm-6.4-4.1l-.386.922.012.006.013.005.361-.933zm-18.3 1.4l.484.875.007-.003-.491-.872zm-7.4 7.2l-.862-.506.862.506zm18.1 32.7c3.649 0 7.12-.95 10.398-2.833l-.996-1.734c-2.988 1.717-6.117 2.567-9.402 2.567v2zm10.398-2.833c3.274-1.881 5.988-4.458 8.137-7.716l-1.669-1.102c-1.985 3.009-4.471 5.365-7.464 7.084l.996 1.734zm6.302-8.267v5.1h2v-5.1h-2zm.258 4.43c-2.385 2.643-4.971 4.55-7.754 5.752l.793 1.836c3.083-1.332 5.897-3.424 8.446-6.248l-1.485-1.34zm-7.736 5.744c-2.794 1.143-5.996 1.726-9.622 1.726v2c3.841 0 7.306-.617 10.379-1.874l-.757-1.852zm-9.622 1.726c-3.945 0-7.668-1.047-11.185-3.157l-1.029 1.714c3.816 2.29 7.893 3.443 12.214 3.443v-2zm-11.178-3.153c-3.461-2.115-6.246-4.931-8.364-8.461l-1.715 1.028c2.282 3.804 5.296 6.854 9.036 9.139l1.043-1.706zm-8.357-8.45c-2.047-3.518-3.065-7.245-3.065-11.197h-2c0 4.315 1.116 8.388 3.336 12.203l1.729-1.006zm-3.065-11.197c0-4.3 1.025-8.119 3.056-11.483l-1.712-1.034c-2.235 3.702-3.344 7.884-3.344 12.517h2zm3.061-11.49c2.041-3.446 4.81-6.118 8.318-8.032l-.958-1.756c-3.824 2.086-6.856 5.014-9.081 8.768l1.721 1.02zm8.312-8.028c3.577-1.917 7.547-2.882 11.927-2.882v-2c-4.686 0-8.983 1.035-12.872 3.118l.945 1.764zM260.488 82c6.631 0 12.265 2.598 16.953 7.865l1.494-1.33C273.891 82.87 267.724 80 260.488 80v2zm16.998 6.488l-31.4 31 1.405 1.424 31.4-31-1.405-1.424zm-31.331 32.486c2.256 1.845 4.471 3.236 6.647 4.148l.773-1.844c-1.958-.821-4.009-2.097-6.153-3.852l-1.267 1.548zm6.672 4.159c2.2.851 4.659 1.267 7.361 1.267v-2c-2.497 0-4.705-.384-6.639-1.133l-.722 1.866zM238.388 104.1c0 5.778 1.924 10.758 5.769 14.882l1.463-1.364c-3.489-3.742-5.232-8.23-5.232-13.518h-2zm7.205 14.91l29.3-29.1-1.409-1.42-29.3 29.1 1.409 1.42zm29.255-30.561c-2.261-1.988-4.494-3.428-6.699-4.282l-.722 1.866c1.928.746 3.963 2.039 6.101 3.918l1.32-1.502zm-6.673-4.271c-2.218-.93-4.823-1.378-7.787-1.378v2c2.77 0 5.098.419 7.014 1.222l.773-1.844zm-7.787-1.378c-4.219 0-8.025.935-11.39 2.828l.981 1.744c3.034-1.707 6.495-2.572 10.409-2.572v-2zm-11.384 2.825c-3.289 1.82-5.887 4.346-7.778 7.569l1.725 1.012c1.708-2.91 4.044-5.184 7.021-6.831l-.968-1.75zm-7.778 7.569c-1.898 3.233-2.838 6.877-2.838 10.906h2c0-3.705.861-6.994 2.563-9.894l-1.725-1.012zm64.165 31.706l-.51.86.007.004.503-.864zm-8.6-8.6l.86-.51-.86.51zm0-23.6l-.861-.51.861.51zm8.6-8.6l-.503-.864-.007.004.51.86zm24 .2l-.513.859.012.006.501-.865zm8.4 8.7l-.895.447 1.895-.447h-1zm0-41v-1h-1v1h1zm3.2 0h1v-1h-1v1zm0 75v1h1v-1h-1zm-3.2 0h-1v1h1v-1zm0-10.9h1v-3.859l-1.875 3.373.875.486zm-8.7 8.7l-.501-.865-.007.003.508.862zm-1.6-2.3l.511.859.006-.003-.517-.856zm7.6-7.6l-.856-.517-.003.005.859.512zm0-20.6l-.864.504.004.007.004.006.856-.517zm-7.6-7.7l-.526.851.009.005.517-.856zm-20.4 0l.511.86.007-.005.007-.004-.525-.851zm-7.5 7.6l-.864-.504.864.504zm-.1 20.7l-.872.49.006.011.007.011.859-.512zm7.5 7.6l-.525.851.01.007.011.006.504-.864zm10.4 4.6c-4.161 0-7.987-1.022-11.497-3.064l-1.006 1.728c3.823 2.225 7.997 3.336 12.503 3.336v-2zm-11.491-3.06a23.166 23.166 0 0 1-8.249-8.25l-1.721 1.02a25.16 25.16 0 0 0 8.951 8.95l1.019-1.72zm-8.249-8.25c-2.04-3.442-3.06-7.199-3.06-11.29h-2c0 4.442 1.113 8.552 3.339 12.31l1.721-1.02zm-3.06-11.29c0-4.091 1.02-7.848 3.06-11.29l-1.721-1.02c-2.226 3.758-3.339 7.868-3.339 12.31h2zm3.06-11.29a23.166 23.166 0 0 1 8.249-8.25l-1.019-1.72a25.158 25.158 0 0 0-8.951 8.95l1.721 1.02zm8.243-8.246c3.51-2.042 7.336-3.064 11.497-3.064v-2c-4.506 0-8.68 1.111-12.503 3.336l1.006 1.728zm11.497-3.064c4.009 0 7.834 1.08 11.487 3.259l1.025-1.718c-3.946-2.354-8.122-3.541-12.512-3.541v2zm11.499 3.265c3.646 2.112 6.302 4.873 8.006 8.282l1.789-.894c-1.895-3.79-4.84-6.83-8.793-9.118l-1.002 1.73zM338.791 93V52h-2v41h2zm-1-40h3.2v-2h-3.2v2zm2.2-1v75h2V52h-2zm1 74h-3.2v2h3.2v-2zm-2.2 1v-10.9h-2V127h2zm-1.875-11.386c-1.906 3.432-4.672 6.205-8.326 8.321l1.002 1.73c3.945-2.284 6.979-5.311 9.073-9.079l-1.749-.972zm-8.333 8.324c-3.59 2.116-7.316 3.162-11.192 3.162v2c4.257 0 8.331-1.154 12.207-3.438l-1.015-1.724zm-11.292 2.362c3.845 0 7.422-.981 10.711-2.941l-1.023-1.718c-2.978 1.774-6.201 2.659-9.688 2.659v2zm10.717-2.944c3.337-2.016 5.989-4.666 7.942-7.944l-1.718-1.024c-1.781 2.989-4.195 5.405-7.258 7.256l1.034 1.712zm7.939-7.939c2.025-3.353 3.044-6.964 3.044-10.817h-2c0 3.481-.915 6.736-2.756 9.783l1.712 1.034zm3.044-10.817c0-3.853-1.019-7.464-3.044-10.817l-1.712 1.034c1.841 3.047 2.756 6.302 2.756 9.783h2zm-3.037-10.804c-1.951-3.346-4.604-6.033-7.946-8.052l-1.034 1.712c3.058 1.848 5.471 4.294 7.253 7.348l1.727-1.008zm-7.938-8.047c-3.291-2.03-6.872-3.049-10.725-3.049v2c3.48 0 6.698.915 9.675 2.751l1.05-1.702zM317.291 82.7c-3.853 0-7.435 1.019-10.725 3.049l1.05 1.702c2.976-1.836 6.194-2.751 9.675-2.751v-2zm-10.712 3.04c-3.281 1.956-5.902 4.612-7.852 7.956l1.727 1.008c1.783-3.056 4.163-5.466 7.148-7.245l-1.023-1.718zm-7.852 7.956c-1.955 3.351-2.936 6.958-2.936 10.804h2c0-3.488.885-6.747 2.663-9.796l-1.727-1.008zm-2.936 10.804c0 3.902.942 7.538 2.828 10.89l1.743-.98c-1.714-3.048-2.571-6.345-2.571-9.91h-2zm2.841 10.912c1.949 3.273 4.565 5.922 7.834 7.939l1.05-1.702c-2.998-1.85-5.383-4.267-7.166-7.261l-1.718 1.024zm7.855 7.952c3.351 1.955 6.958 2.936 10.804 2.936v-2c-3.488 0-6.748-.885-9.797-2.664l-1.007 1.728zm53.226 3.536l-.708.707.017.017.018.016.673-.74zm0-4.9l-.673-.74-.018.016-.017.017.708.707zm4.9 0l-.708.707.017.017.018.016.673-.74zm0 4.9l-.673-.74-.018.016-.017.017.708.707zm-2.4 0c-.669 0-1.266-.229-1.828-.74l-1.345 1.48c.905.823 1.974 1.26 3.173 1.26v-2zm-1.793-.707c-.467-.467-.707-1.04-.707-1.793h-2c0 1.247.426 2.341 1.292 3.207l1.415-1.414zm-.707-1.793c0-.665.225-1.212.707-1.693l-1.415-1.414c-.852.852-1.292 1.905-1.292 3.107h2zm.672-1.66c.562-.511 1.159-.74 1.828-.74v-2c-1.199 0-2.268.437-3.173 1.26l1.345 1.48zm1.828-.74c.665 0 1.211.226 1.692.707l1.415-1.414c-.852-.852-1.906-1.293-3.107-1.293v2zm1.727.74c.539.49.773 1.027.773 1.66h2c0-1.234-.501-2.297-1.428-3.14l-1.345 1.48zm.773 1.66c0 .721-.25 1.285-.773 1.76l1.345 1.48c.944-.858 1.428-1.961 1.428-3.24h-2zm-.808 1.793c-.481.481-1.027.707-1.692.707v2c1.201 0 2.255-.441 3.107-1.293l-1.415-1.414zM491.952 52h1v-1h-1v1zm0 75v1h1v-1h-1zm-3.3 0h-1v1h1v-1zm0-70.2h1l-1.896-.443.896.443zm-35.4 71.6l-.899.437.891 1.836.905-1.83-.897-.443zm-35.2-72.5l.9-.437-1.9.437h1zm0 71.1v1h1v-1h-1zm-3.3 0h-1v1h1v-1zm0-75v-1h-1v1h1zm4.7 0l.9-.437-.274-.563h-.626v1zm33.8 69.6l-.899.437.895 1.844.902-1.841-.898-.44zm34.1-69.6v-1h-.623l-.275.56.898.44zm3.6 0v75h2V52h-2zm1 74h-3.3v2h3.3v-2zm-2.3 1V56.8h-2V127h2zm-1.896-70.643l-35.4 71.6 1.793.886 35.4-71.6-1.793-.886zm-33.604 71.606l-35.2-72.5-1.799.874 35.2 72.5 1.799-.874zm-37.1-72.063V127h2V55.9h-2zm1 70.1h-3.3v2h3.3v-2zm-2.3 1V52h-2v75h2zm-1-74h4.7v-2h-4.7v2zm3.801-.563l33.8 69.6 1.799-.874-33.8-69.6-1.799.874zm35.597 69.603l34.1-69.6-1.796-.88-34.1 69.6 1.796.88zM487.352 53h4.6v-2h-4.6v2zm28.176 17.7l-.707.707.017.017.017.016.673-.74zm0-4.9l-.673-.74-.017.016-.017.017.707.707zm4.9 0l-.707.707.017.017.017.016.673-.74zm0 4.9l-.673-.74-.017.016-.017.017.707.707zm-4 11.3v-1h-1v1h1zm3.2 0h1v-1h-1v1zm0 45v1h1v-1h-1zm-3.2 0h-1v1h1v-1zm1.6-56.3c-.668 0-1.265-.23-1.827-.74l-1.346 1.48c.905.823 1.975 1.26 3.173 1.26v-2zm-1.793-.707c-.467-.467-.707-1.04-.707-1.793h-2c0 1.247.427 2.34 1.293 3.207l1.414-1.414zm-.707-1.793c0-.665.226-1.212.707-1.693l-1.414-1.414c-.852.852-1.293 1.905-1.293 3.107h2zm.673-1.66c.562-.51 1.159-.74 1.827-.74v-2c-1.198 0-2.268.437-3.173 1.26l1.346 1.48zm1.827-.74c.665 0 1.212.226 1.693.707l1.414-1.414c-.852-.852-1.905-1.293-3.107-1.293v2zm1.727.74c.54.49.773 1.027.773 1.66h2c0-1.234-.5-2.297-1.427-3.14l-1.346 1.48zm.773 1.66c0 .721-.25 1.285-.773 1.76l1.346 1.48c.944-.858 1.427-1.961 1.427-3.24h-2zm-.807 1.793c-.481.481-1.028.707-1.693.707v2c1.202 0 2.255-.44 3.107-1.293l-1.414-1.414zM516.428 83h3.2v-2h-3.2v2zm2.2-1v45h2V82h-2zm1 44h-3.2v2h3.2v-2zm-2.2 1V82h-2v45h2zm34.31-1.8l-.498.867.007.004.491-.871zm-8.6-8.5l.861-.51-.861.51zm0-23.8l.856.517.005-.007-.861-.51zm8.7-8.6l-.496-.868-.007.004.503.864zm21.9-1.4l.411-.912-.411.912zm7.8 5.6h1v-.414l-.293-.293-.707.707zm0 5.4l-.829.559 1.829 2.716V93.9h-1zm-7.4-7.4l-.545.838.012.008.013.008.52-.854zm-20.4.3l.504.864.006-.003-.51-.861zm-7.7 7.6l.856.517-.856-.517zm-.1 21.1l-.864.504.005.008.859-.512zm7.5 7.4l-.498.867.011.006.011.006.476-.879zm28.1-7.5h1v-3.358l-1.837 2.811.837.547zm0 5.4l.726.688.274-.29v-.398h-1zm-8 5.7l.386.922.011-.004-.397-.918zm-9.8.8c-4.166 0-7.996-.992-11.509-2.971l-.982 1.742c3.821 2.154 7.991 3.229 12.491 3.229v-2zm-11.502-2.967c-3.449-1.98-6.191-4.69-8.237-8.143l-1.721 1.02c2.221 3.747 5.212 6.704 8.962 8.857l.996-1.734zm-8.237-8.143c-2.035-3.433-3.061-7.321-3.061-11.69h-2c0 4.697 1.108 8.943 3.34 12.71l1.721-1.02zm-3.061-11.69c0-4.021 1.019-7.709 3.056-11.083l-1.712-1.034c-2.229 3.692-3.344 7.738-3.344 12.117h2zm3.061-11.09c2.045-3.451 4.821-6.197 8.342-8.246l-1.006-1.728c-3.812 2.217-6.835 5.205-9.057 8.954l1.721 1.02zm8.335-8.242c3.577-2.043 7.505-3.068 11.804-3.068v-2c-4.633 0-8.905 1.109-12.796 3.332l.992 1.736zm11.804-3.068c3.63 0 6.683.584 9.19 1.712l.821-1.824c-2.826-1.272-6.174-1.888-10.011-1.888v2zm9.19 1.712c2.534 1.14 5.037 2.929 7.503 5.395l1.414-1.414c-2.6-2.6-5.297-4.545-8.096-5.805l-.821 1.824zm7.21 4.688v5.4h2v-5.4h-2zm1.83 4.841c-2.263-3.359-4.828-5.938-7.709-7.695l-1.041 1.708c2.585 1.576 4.953 3.93 7.091 7.105l1.659-1.118zm-7.685-7.68c-2.866-1.862-6.401-2.761-10.545-2.761v2c3.857 0 6.988.835 9.455 2.438l1.09-1.676zM564.138 82.9c-3.852 0-7.494 1.018-10.909 3.04l1.019 1.72c3.118-1.845 6.409-2.76 9.89-2.76v-2zm-10.904 3.036c-3.345 1.952-6.033 4.605-8.052 7.947l1.712 1.034c1.848-3.058 4.294-5.472 7.348-7.253l-1.008-1.728zm-8.052 7.947c-2.025 3.353-3.044 6.964-3.044 10.817h2c0-3.481.915-6.736 2.756-9.783l-1.712-1.034zm-3.044 10.817c0 4.162.974 7.939 2.937 11.304l1.727-1.008c-1.77-3.035-2.664-6.458-2.664-10.296h-2zm2.941 11.312c1.954 3.279 4.578 5.869 7.861 7.755l.996-1.734c-2.983-1.714-5.359-4.057-7.139-7.045l-1.718 1.024zm7.883 7.767c3.347 1.813 6.945 2.721 10.776 2.721v-2c-3.501 0-6.771-.826-9.823-2.479l-.953 1.758zm10.776 2.721c7.834 0 14.07-3.563 18.637-10.553l-1.674-1.094c-4.232 6.477-9.864 9.647-16.963 9.647v2zm16.8-11.1v5.4h2v-5.4h-2zm.274 4.712c-2.315 2.444-4.872 4.262-7.67 5.47l.793 1.836c3.068-1.325 5.845-3.308 8.329-5.93l-1.452-1.376zm-7.66 5.466c-2.724 1.14-5.856 1.722-9.414 1.722v2c3.776 0 7.178-.618 10.186-1.878l-.772-1.844zM598.39 52v-1h-1v1h1zm3.2 0h1v-1h-1v1zm0 39.3h-1l1.906.423-.906-.423zm7.1-7.4l.502.865.005-.003-.507-.862zm24.9 2.2l-.714.7.007.007.707-.707zm5.2 40.9v1h1v-1h-1zm-3.2 0h-1v1h1v-1zm-4.4-38.8l-.723.69.008.01.008.007.707-.707zm-21-2.2l.482.876.008-.004.008-.005-.498-.867zm-6.3 6.2l.861.508.006-.01-.867-.498zm-2.3 34.8v1h1v-1h-1zm-3.2 0h-1v1h1v-1zm0-74h3.2v-2h-3.2v2zm2.2-1v39.3h2V52h-2zm1.906 39.723c1.3-2.786 3.509-5.11 6.696-6.958l-1.004-1.73c-3.48 2.019-6.004 4.628-7.504 7.842l1.812.846zm6.701-6.961c3.268-1.922 6.528-2.862 9.793-2.862v-2c-3.669 0-7.275 1.06-10.807 3.138l1.014 1.724zm9.793-2.862c6.15 0 10.726 1.679 13.886 4.9l1.428-1.4c-3.641-3.712-8.798-5.5-15.314-5.5v2zm13.893 4.907c3.229 3.229 4.907 7.844 4.907 13.993h2c0-6.518-1.789-11.703-5.493-15.407l-1.414 1.414zm4.907 13.993V127h2v-26.2h-2zm1 25.2h-3.2v2h3.2v-2zm-2.2 1v-26.2h-2V127h2zm0-26.2c0-5.644-1.518-10.132-4.693-13.307l-1.414 1.414c2.692 2.692 4.107 6.604 4.107 11.893h2zm-4.677-13.29c-3.103-3.248-7.461-4.81-12.923-4.81v2c5.071 0 8.847 1.438 11.477 4.19l1.446-1.38zM618.99 82.7c-3.368 0-6.474.809-9.299 2.433l.997 1.734c2.509-1.443 5.269-2.167 8.302-2.167v-2zm-9.282 2.424c-2.829 1.556-5.061 3.754-6.685 6.578l1.734.996c1.443-2.51 3.41-4.444 5.915-5.822l-.964-1.752zm-6.68 6.568c-1.627 2.76-2.438 5.803-2.438 9.108h2c0-2.962.722-5.652 2.161-8.092l-1.723-1.016zm-2.438 9.108V127h2v-26.2h-2zm1 25.2h-3.2v2h3.2v-2zm-2.2 1V52h-2v75h2zm69.327-2.1l-.503.864.503-.864zm-8.7-8.6l-.864.503.004.007.86-.51zm0-23.5l.861.51.004-.007-.865-.503zm8.7-8.7l-.503-.864.503.864zm24.2.3l-.517.856.011.007.506-.863zm8.1 8.9l-.922.386 1.922-.386h-1zm0-11.3v-1h-1v1h1zm3.2 0h1v-1h-1v1zm0 45v1h1v-1h-1zm-3.2 0h-1v1h1v-1zm0-11.2h1l-1.901-.434.901.434zm-8.4 9l.508.862.004-.003-.512-.859zm-1.6-2.3l.512.859.007-.004.006-.004-.525-.851zm7.4-7.6l-.864-.504-.003.006.867.498zm0-20.7l-.864.504.864-.504zm-7.5-7.6l-.525.851.007.004.006.004.512-.859zm-20.5 0l-.517-.856-.008.005.525.851zm-7.6 7.7l-.856-.517-.004.007-.004.006.864.504zm0 20.6l-.864.504.007.011.006.01.851-.525zm7.7 7.6l-.517.856.007.004.006.004.504-.864zm10.1 4.6c-4.091 0-7.884-1.02-11.397-3.064l-1.006 1.728c3.821 2.223 7.961 3.336 12.403 3.336v-2zm-11.397-3.064c-3.521-2.049-6.297-4.795-8.343-8.246l-1.72 1.02c2.221 3.749 5.245 6.736 9.057 8.954l1.006-1.728zm-8.338-8.239c-2.046-3.515-3.065-7.276-3.065-11.297h-2c0 4.379 1.115 8.485 3.336 12.303l1.729-1.006zm-3.065-11.297c0-4.021 1.019-7.745 3.06-11.19l-1.72-1.02c-2.225 3.755-3.34 7.831-3.34 12.21h2zm3.065-11.197c2.046-3.517 4.821-6.293 8.338-8.339l-1.006-1.728c-3.816 2.22-6.841 5.245-9.061 9.061l1.729 1.006zm8.338-8.339c3.513-2.044 7.306-3.064 11.397-3.064v-2c-4.442 0-8.582 1.113-12.403 3.336l1.006 1.728zm11.397-3.064c4.144 0 8.066 1.113 11.784 3.356l1.033-1.712c-4.016-2.423-8.293-3.644-12.817-3.644v2zm11.794 3.363c3.705 2.171 6.244 4.981 7.684 8.423l1.845-.772c-1.628-3.892-4.489-7.015-8.517-9.377l-1.012 1.726zm9.606 8.037V82h-2v11.3h2zm-1-10.3h3.2v-2h-3.2v2zm2.2-1v45h2V82h-2zm1 44h-3.2v2h3.2v-2zm-2.2 1v-11.2h-2V127h2zm-1.901-11.634c-1.709 3.544-4.367 6.402-8.011 8.575l1.024 1.718c3.957-2.36 6.898-5.503 8.789-9.425l-1.802-.868zm-8.007 8.572c-3.582 2.111-7.407 3.162-11.492 3.162v2c4.448 0 8.623-1.149 12.508-3.438l-1.016-1.724zm-11.292 2.362c3.846 0 7.423-.981 10.712-2.941l-1.024-1.718c-2.977 1.774-6.2 2.659-9.688 2.659v2zm10.725-2.949c3.272-2.019 5.858-4.672 7.742-7.953l-1.734-.996c-1.715 2.986-4.063 5.399-7.058 7.247l1.05 1.702zm7.739-7.947c1.957-3.354 2.936-6.995 2.936-10.904h-2c0 3.558-.887 6.85-2.664 9.896l1.728 1.008zm2.936-10.904c0-3.846-.981-7.453-2.936-10.804l-1.728 1.008c1.779 3.049 2.664 6.308 2.664 9.796h2zm-2.936-10.804c-1.951-3.344-4.571-6-7.852-7.955l-1.024 1.718c2.986 1.779 5.366 4.189 7.148 7.245l1.728-1.008zm-7.839-7.947c-3.29-2.03-6.872-3.049-10.725-3.049v2c3.481 0 6.699.915 9.675 2.751l1.05-1.702zM680.717 82.7c-3.852 0-7.464 1.018-10.817 3.044l1.034 1.712c3.048-1.841 6.303-2.756 9.783-2.756v-2zm-10.825 3.049c-3.271 2.018-5.917 4.7-7.931 8.034l1.712 1.034c1.853-3.066 4.273-5.517 7.269-7.366l-1.05-1.702zm-7.939 8.047c-1.954 3.351-2.936 6.958-2.936 10.804h2c0-3.488.886-6.747 2.664-9.796l-1.728-1.008zm-2.936 10.804c0 3.846.982 7.453 2.936 10.804l1.728-1.008c-1.778-3.049-2.664-6.308-2.664-9.796h-2zm2.949 10.825c2.018 3.271 4.7 5.917 8.034 7.931l1.034-1.712c-3.066-1.852-5.517-4.273-7.366-7.269l-1.702 1.05zm8.047 7.939c3.352 1.955 6.959 2.936 10.804 2.936v-2c-3.488 0-6.747-.885-9.796-2.664l-1.008 1.728zm86.626-.664l-.498-.867.498.867zm7.8-7.4h1v-3.332l-1.835 2.781.835.551zm0 5.1l.742.67.258-.285v-.385h-1zm-8.1 6l.379.926.009-.004.009-.004-.397-.918zm-21.7-1.5l-.521.853.007.004.514-.857zm-8.7-8.8l-.864.503.007.011.857-.514zm0-23.7l.856.517.004-.007-.86-.51zm8.7-8.4l-.472-.882-.007.004.479.878zm30.1 5.2l.703.712.675-.668-.631-.709-.747.665zm-31.4 31l-.702-.712-.792.782.861.704.633-.774zm6.4 4l-.387.922.013.006.013.005.361-.933zm-8.3-5.9l-.731.682.703.755.733-.727-.705-.71zm29.3-29.1l.705.71.759-.755-.804-.706-.66.751zm-6.4-4.1l-.387.922.013.006.013.005.361-.933zm-18.3 1.4l.484.875.006-.003-.49-.872zm-7.4 7.2l-.862-.506.862.506zm18.1 32.7c3.649 0 7.12-.95 10.398-2.833l-.996-1.734c-2.989 1.717-6.118 2.567-9.402 2.567v2zm10.398-2.833c3.274-1.881 5.988-4.458 8.137-7.716l-1.67-1.102c-1.984 3.009-4.47 5.365-7.463 7.084l.996 1.734zm6.302-8.267v5.1h2v-5.1h-2zm.258 4.43c-2.385 2.643-4.971 4.55-7.754 5.752l.793 1.836c3.083-1.332 5.897-3.424 8.445-6.248l-1.484-1.34zm-7.737 5.744c-2.793 1.143-5.995 1.726-9.621 1.726v2c3.841 0 7.306-.617 10.379-1.874l-.758-1.852zm-9.621 1.726c-3.946 0-7.669-1.047-11.185-3.157l-1.029 1.714c3.816 2.29 7.893 3.443 12.214 3.443v-2zm-11.178-3.153c-3.461-2.115-6.246-4.931-8.364-8.461l-1.715 1.028c2.281 3.804 5.296 6.854 9.036 9.139l1.043-1.706zm-8.358-8.45c-2.047-3.518-3.064-7.245-3.064-11.197h-2c0 4.315 1.116 8.388 3.336 12.203l1.728-1.006zm-3.064-11.197c0-4.3 1.025-8.119 3.056-11.483l-1.712-1.034c-2.235 3.702-3.344 7.884-3.344 12.517h2zm3.06-11.49c2.042-3.446 4.811-6.118 8.319-8.032l-.958-1.756c-3.825 2.086-6.856 5.014-9.081 8.768l1.72 1.02zm8.312-8.028c3.578-1.917 7.548-2.882 11.928-2.882v-2c-4.686 0-8.983 1.035-12.872 3.118l.944 1.764zM747.039 82c6.631 0 12.264 2.598 16.953 7.865l1.494-1.33C760.442 82.87 754.275 80 747.039 80v2zm16.998 6.488l-31.4 31 1.405 1.424 31.4-31-1.405-1.424zm-31.331 32.486c2.255 1.845 4.471 3.236 6.646 4.148l.774-1.844c-1.958-.821-4.009-2.097-6.154-3.852l-1.266 1.548zm6.672 4.159c2.2.851 4.659 1.267 7.361 1.267v-2c-2.497 0-4.705-.384-6.639-1.133l-.722 1.866zM724.939 104.1c0 5.778 1.924 10.758 5.769 14.882l1.463-1.364c-3.489-3.742-5.232-8.23-5.232-13.518h-2zm7.205 14.91l29.3-29.1-1.41-1.42-29.3 29.1 1.41 1.42zm29.255-30.561c-2.261-1.988-4.494-3.428-6.699-4.282l-.722 1.866c1.928.746 3.962 2.039 6.101 3.918l1.32-1.502zm-6.673-4.271c-2.218-.93-4.823-1.378-7.787-1.378v2c2.769 0 5.098.419 7.013 1.222l.774-1.844zm-7.787-1.378c-4.219 0-8.025.935-11.39 2.828l.98 1.744c3.035-1.707 6.496-2.572 10.41-2.572v-2zm-11.384 2.825c-3.289 1.82-5.887 4.346-7.778 7.569l1.724 1.012c1.709-2.91 4.045-5.184 7.022-6.831l-.968-1.75zm-7.778 7.569c-1.898 3.233-2.838 6.877-2.838 10.906h2c0-3.705.86-6.994 2.562-9.894l-1.724-1.012zm72.064 34.706v1h1v-1h-1zm-8.6-2.1l-.491.871.009.005.008.004.474-.88zm-6.2-6.1l.862-.508-.862.508zm-2.3-67.7v-1h-1v1h1zm3.2 0h1v-1h-1v1zm1.8 66.2l-.871.49.006.01.006.011.859-.511zm5.1 5.1l-.51.86.01.006.01.006.49-.872zm7 1.8h1v-1h-1v1zm0 1.8c-2.978 0-5.68-.664-8.125-1.98l-.949 1.76c2.755 1.484 5.786 2.22 9.074 2.22v-2zm-8.108-1.971c-2.445-1.379-4.385-3.287-5.83-5.737l-1.723 1.016c1.622 2.75 3.815 4.909 6.57 6.463l.983-1.742zm-5.83-5.737c-1.437-2.437-2.162-5.16-2.162-8.192h-2c0 3.368.809 6.445 2.439 9.208l1.723-1.016zM783.741 111V52h-2v59h2zm-1-58h3.2v-2h-3.2v2zm2.2-1v59h2V52h-2zm0 59c0 2.823.637 5.394 1.929 7.69l1.743-.98c-1.108-1.971-1.672-4.199-1.672-6.71h-2zm1.941 7.711a15.377 15.377 0 0 0 5.449 5.449l1.021-1.72a13.375 13.375 0 0 1-4.751-4.751l-1.719 1.022zm5.469 5.461c2.289 1.287 4.792 1.928 7.49 1.928v-2c-2.367 0-4.531-.559-6.509-1.672l-.981 1.744zm6.49.928v2.8h2v-2.8h-2zM849.755 52v-1h-1v1h1zm3.3 0h1v-1h-1v1zm0 43.5h-1v1h1v-1zm51.4 0v1h1v-1h-1zm0-43.5v-1h-1v1h1zm3.3 0h1v-1h-1v1zm0 75v1h1v-1h-1zm-3.3 0h-1v1h1v-1zm0-28.6h1v-1h-1v1zm-51.4 0v-1h-1v1h1zm0 28.6v1h1v-1h-1zm-3.3 0h-1v1h1v-1zm0-74h3.3v-2h-3.3v2zm2.3-1v43.5h2V52h-2zm1 44.5h51.4v-2h-51.4v2zm52.4-1V52h-2v43.5h2zm-1-42.5h3.3v-2h-3.3v2zm2.3-1v75h2V52h-2zm1 74h-3.3v2h3.3v-2zm-2.3 1V98.4h-2V127h2zm-1-29.6h-51.4v2h51.4v-2zm-52.4 1V127h2V98.4h-2zm1 27.6h-3.3v2h3.3v-2zm-2.3 1V52h-2v75h2zm92.929-56.4l-.748.664.039.044.044.04.665-.748zm0-4l-.708-.707.708.707zm4 0l-.748.664.039.044.044.04.665-.748zm0 4l.707.707-.707-.707zm6.6 0l-.748.664.039.044.044.04.665-.748zm0-4l.707.707-.707-.707zm4 0l-.748.664.039.044.044.04.665-.748zm0 4l.707.707-.707-.707zm-23.2 52.3l-.714.7.006.007.708-.707zm-5.1-40.9v-1h-1v1h1zm3.2 0h1v-1h-1v1zm4.3 38.9l-.723.691.007.008.008.008.708-.707zm21.1 2.3l.464.885.009-.004.009-.005-.482-.876zm8.6-41.2v-1h-1v1h1zm3.2 0h1v-1h-1v1zm0 45v1h1v-1h-1zm-3.2 0h-1v1h1v-1zm0-8.4h1l-1.877-.48.877.48zm-6.9 6.9l.492.871.007-.004.007-.005-.506-.862zm-14.5-55.1a2.064 2.064 0 0 1-1.436-.547l-1.329 1.494a4.064 4.064 0 0 0 2.765 1.053v-2zm-1.353-.464a2.064 2.064 0 0 1-.547-1.436h-2a4.06 4.06 0 0 0 1.052 2.764l1.495-1.328zm-.547-1.436c0-.46.155-.841.507-1.193l-1.415-1.414c-.714.715-1.092 1.6-1.092 2.607h2zm.507-1.193c.425-.425.875-.607 1.393-.607v-2c-1.083 0-2.033.418-2.808 1.193l1.415 1.414zm1.393-.607c.418 0 .788.155 1.152.564l1.495-1.328c-.703-.791-1.599-1.236-2.647-1.236v2zm1.235.647c.409.364.565.734.565 1.153h2c0-1.048-.445-1.945-1.236-2.647l-1.329 1.494zm.565 1.153c0 .517-.182.968-.608 1.393l1.415 1.414c.775-.775 1.193-1.724 1.193-2.807h-2zm-.608 1.393c-.351.352-.733.507-1.192.507v2c1.006 0 1.892-.378 2.607-1.093l-1.415-1.414zm9.408.507a2.064 2.064 0 0 1-1.436-.547l-1.329 1.494a4.064 4.064 0 0 0 2.765 1.053v-2zm-1.353-.464a2.064 2.064 0 0 1-.547-1.436h-2a4.06 4.06 0 0 0 1.052 2.764l1.495-1.328zm-.547-1.436c0-.46.155-.841.507-1.193l-1.415-1.414c-.714.715-1.092 1.6-1.092 2.607h2zm.507-1.193c.425-.425.875-.607 1.393-.607v-2c-1.083 0-2.033.418-2.808 1.193l1.415 1.414zm1.393-.607c.418 0 .788.155 1.152.564l1.495-1.328c-.703-.791-1.599-1.236-2.647-1.236v2zm1.235.647c.409.364.565.734.565 1.153h2c0-1.048-.445-1.945-1.236-2.647l-1.329 1.494zm.565 1.153c0 .517-.182.968-.608 1.393l1.415 1.414c.775-.775 1.193-1.724 1.193-2.807h-2zm-.608 1.393c-.351.352-.733.507-1.192.507v2c1.006 0 1.892-.378 2.607-1.093l-1.415-1.414zm-7.792 57.207c-6.149 0-10.764-1.678-13.993-4.907l-1.415 1.414c3.705 3.705 8.89 5.493 15.408 5.493v-2zm-13.986-4.9c-3.166-3.228-4.814-7.846-4.814-14h-2c0 6.512 1.752 11.695 5.386 15.4l1.428-1.4zm-4.814-14V82h-2v26.2h2zm-1-25.2h3.2v-2h-3.2v2zm2.2-1v26.2h2V82h-2zm0 26.2c0 5.64 1.481 10.152 4.577 13.391l1.446-1.382c-2.639-2.761-4.023-6.716-4.023-12.009h-2zm4.592 13.407c3.169 3.168 7.551 4.693 13.008 4.693v-2c-5.077 0-8.895-1.408-11.593-4.107l-1.415 1.414zm13.008 4.693c3.351 0 6.445-.735 9.264-2.215l-.929-1.77c-2.515 1.32-5.287 1.985-8.335 1.985v2zm9.282-2.224c2.822-1.552 5.054-3.712 6.679-6.468l-1.723-1.016c-1.441 2.444-3.41 4.351-5.92 5.732l.964 1.752zm6.679-6.468c1.633-2.77 2.439-5.915 2.439-9.408h-2c0 3.174-.728 5.962-2.162 8.392l1.723 1.016zm2.439-9.408V82h-2v26.2h2zm-1-25.2h3.2v-2h-3.2v2zm2.2-1v45h2V82h-2zm1 44h-3.2v2h3.2v-2zm-2.2 1v-8.4h-2v8.4h2zm-1.877-8.88c-1.437 2.624-3.601 4.798-6.53 6.518l1.013 1.724c3.204-1.88 5.641-4.306 7.271-7.282l-1.754-.96zm-6.515 6.509c-2.9 1.639-6.227 2.471-10.008 2.471v2c4.085 0 7.758-.902 10.992-2.729l-.984-1.742zm43.018.171l-.51.862.01.003.5-.865zm-8.599-8.7l.874-.486-1.874-3.373v3.859h1zm0 10.9v1h1v-1h-1zm-3.2 0h-1v1h1v-1zm0-75v-1h-1v1h1zm3.2 0h1v-1h-1v1zm0 41.4h-1l1.904.428-.904-.428zm8.399-9.1l-.51-.859.51.859zm23.9-.2l-.51.86.01.004.5-.864zm8.7 8.6l-.86.51.86-.51zm0 23.6l-.86-.51.86.51zm-8.7 8.6l-.5-.864-.01.004.51.86zm-1.5-2.4l.51.859.01-.004.01-.004-.53-.851zm7.4-7.6l-.86-.504-.01.006.87.498zm0-20.7l.86-.504-.86.504zm-7.5-7.6l-.52.851v.004l.01.004.51-.859zm-20.5 0l-.52-.856v.005l.52.851zm-7.599 7.7l-.856-.517-.004.007-.004.006.864.504zm0 20.6l-.864.504.006.011.007.01.851-.525zm7.699 7.6l-.52.856.01.004.01.004.5-.864zm10.1 4.6c-3.88 0-7.64-1.046-11.3-3.165l-1 1.73c3.94 2.281 8.04 3.435 12.3 3.435v-2zm-11.29-3.162c-3.59-2.114-6.326-4.888-8.235-8.324l-1.748.972c2.091 3.764 5.088 6.79 8.963 9.076l1.02-1.724zm-10.109-7.838V127h2v-10.9h-2zm1 9.9h-3.2v2h3.2v-2zm-2.2 1V52h-2v75h2zm-1-74h3.2v-2h-3.2v2zm2.2-1v41.4h2V52h-2zm1.904 41.828c1.71-3.611 4.369-6.499 8.005-8.67l-1.02-1.717c-3.962 2.363-6.903 5.542-8.793 9.53l1.808.857zm8.005-8.67c3.66-2.179 7.48-3.258 11.49-3.258v-2c-4.39 0-8.57 1.187-12.51 3.541l1.02 1.718zm11.49-3.258c4.16 0 7.95 1.022 11.39 3.06l1.02-1.72c-3.76-2.228-7.9-3.34-12.41-3.34v2zm11.4 3.064c3.52 2.05 6.3 4.795 8.34 8.246l1.72-1.02c-2.22-3.749-5.24-6.736-9.06-8.954l-1 1.728zm8.34 8.246c2.04 3.442 3.06 7.199 3.06 11.29h2c0-4.442-1.11-8.552-3.34-12.31l-1.72 1.02zm3.06 11.29c0 4.091-1.02 7.848-3.06 11.29l1.72 1.02c2.23-3.758 3.34-7.868 3.34-12.31h-2zm-3.06 11.29c-2.04 3.451-4.82 6.197-8.34 8.246l1 1.728c3.82-2.218 6.84-5.205 9.06-8.954l-1.72-1.02zm-8.35 8.25c-3.44 2.038-7.23 3.06-11.39 3.06v2c4.51 0 8.65-1.112 12.41-3.34l-1.02-1.72zm-11.19 2.26c3.85 0 7.42-.981 10.71-2.941l-1.02-1.718c-2.98 1.774-6.2 2.659-9.69 2.659v2zm10.73-2.949c3.27-2.019 5.85-4.672 7.74-7.953l-1.74-.996c-1.71 2.986-4.06 5.399-7.05 7.247l1.05 1.702zm7.73-7.947c1.96-3.354 2.94-6.995 2.94-10.904h-2c0 3.558-.89 6.85-2.66 9.896l1.72 1.008zm2.94-10.904c0-3.846-.98-7.453-2.94-10.804l-1.72 1.008c1.78 3.049 2.66 6.308 2.66 9.796h2zm-2.94-10.804c-1.95-3.344-4.57-6-7.85-7.955l-1.02 1.718c2.98 1.779 5.36 4.189 7.15 7.245l1.72-1.008zm-7.83-7.947c-3.29-2.03-6.88-3.049-10.73-3.049v2c3.48 0 6.7.915 9.68 2.751l1.05-1.702zm-10.73-3.049c-3.85 0-7.46 1.018-10.82 3.044l1.04 1.712c3.05-1.841 6.3-2.756 9.78-2.756v-2zm-10.82 3.049c-3.27 2.018-5.921 4.7-7.935 8.034l1.712 1.034c1.852-3.066 4.273-5.517 7.273-7.366l-1.05-1.702zm-7.943 8.047c-1.955 3.351-2.936 6.958-2.936 10.804h2c0-3.488.885-6.747 2.664-9.796l-1.728-1.008zm-2.936 10.804c0 3.846.981 7.453 2.936 10.804l1.728-1.008c-1.779-3.049-2.664-6.308-2.664-9.796h-2zm2.949 10.825c2.018 3.271 4.7 5.917 8.03 7.931l1.04-1.712c-3.07-1.852-5.519-4.273-7.368-7.269l-1.702 1.05zm8.05 7.939c3.35 1.955 6.96 2.936 10.8 2.936v-2c-3.49 0-6.75-.885-9.8-2.664l-1 1.728zM1055.46 82v-1h-1v1h1zm3.2 0h1v-1h-1v1zm0 10h-1l1.91.403-.91-.403zm7.5-8l.49.87.01-.003v-.004l-.5-.863zm24.8 2.2l-.74.671v.008l.01.007.73-.686zm4.9 40.8v1h1v-1h-1zm-3.2 0h-1v1h1v-1zm-4-38.8l-.76.655.01.01.75-.665zm-20.6-2.1l.47.882.01-.004-.48-.878zm-6.9 6.4l-.85-.535v.007l-.01.007.86.521zm-2.5 34.5v1h1v-1h-1zm-3.2 0h-1v1h1v-1zm0-44h3.2v-2h-3.2v2zm2.2-1v10h2V82h-2zm1.91 10.403c1.37-3.114 3.71-5.626 7.08-7.533l-.99-1.74c-3.69 2.093-6.36 4.914-7.92 8.467l1.83.806zm7.09-7.54c3.37-1.973 7.1-2.963 11.2-2.963v-2c-4.44 0-8.52 1.077-12.21 3.237l1.01 1.726zm11.2-2.963c5.3 0 9.38 1.682 12.36 4.971l1.48-1.342c-3.42-3.777-8.08-5.629-13.84-5.629v2zm12.37 4.986c3.04 3.228 4.63 7.82 4.63 13.914h2c0-6.439-1.68-11.581-5.18-15.286l-1.45 1.372zm4.63 13.914V127h2v-26.2h-2zm1 25.2h-3.2v2h3.2v-2zm-2.2 1v-26.2h-2V127h2zm0-26.2c0-5.56-1.38-10.026-4.26-13.264l-1.49 1.328c2.45 2.762 3.75 6.695 3.75 11.936h2zm-4.25-13.255c-2.82-3.261-6.79-4.845-11.75-4.845v2c4.5 0 7.87 1.416 10.24 4.155l1.51-1.31zm-11.75-4.845c-3.63 0-7 .839-10.08 2.522l.96 1.756c2.78-1.517 5.81-2.278 9.12-2.278v-2zm-10.08 2.518a19.275 19.275 0 0 0-7.27 6.746l1.69 1.072c1.64-2.588 3.81-4.602 6.53-6.054l-.95-1.764zm-7.28 6.761c-1.77 2.903-2.64 6.186-2.64 9.821h2c0-3.299.79-6.216 2.35-8.78l-1.71-1.04zm-2.64 9.821V127h2v-25.2h-2zm1 24.2h-3.2v2h3.2v-2zm-2.2 1V82h-2v45h2zm91.82-4.3l-.49-.867.49.867zm7.8-7.4h1v-3.332l-1.83 2.781.83.551zm0 5.1l.75.67.25-.285v-.385h-1zm-8.1 6l.38.926.01-.004.01-.004-.4-.918zm-21.7-1.5l-.52.853.01.004.51-.857zm-8.7-8.8l-.86.503.01.011.85-.514zm0-23.7l.86.517v-.007l-.86-.51zm8.7-8.4l-.47-.882-.01.004.48.878zm30.1 5.2l.71.712.67-.668-.63-.709-.75.665zm-31.4 31l-.7-.712-.79.782.86.704.63-.774zm6.4 4l-.38.922.01.006.01.005.36-.933zm-8.3-5.9l-.73.682.71.755.73-.727-.71-.71zm29.3-29.1l.71.71.76-.755-.81-.706-.66.751zm-6.4-4.1l-.38.922.01.006.01.005.36-.933zm-18.3 1.4l.49.875v-.003l-.49-.872zm-7.4 7.2l-.86-.506.86.506zm18.1 32.7c3.65 0 7.12-.95 10.4-2.833l-.99-1.734c-2.99 1.717-6.12 2.567-9.41 2.567v2zm10.4-2.833c3.28-1.881 5.99-4.458 8.14-7.716l-1.67-1.102c-1.99 3.009-4.47 5.365-7.46 7.084l.99 1.734zm6.3-8.267v5.1h2v-5.1h-2zm.26 4.43c-2.38 2.643-4.97 4.55-7.75 5.752l.79 1.836c3.08-1.332 5.9-3.424 8.45-6.248l-1.49-1.34zm-7.74 5.744c-2.79 1.143-5.99 1.726-9.62 1.726v2c3.84 0 7.31-.617 10.38-1.874l-.76-1.852zm-9.62 1.726c-3.94 0-7.67-1.047-11.18-3.157l-1.03 1.714c3.82 2.29 7.89 3.443 12.21 3.443v-2zm-11.17-3.153c-3.47-2.115-6.25-4.931-8.37-8.461l-1.71 1.028c2.28 3.804 5.29 6.854 9.03 9.139l1.05-1.706zm-8.36-8.45c-2.05-3.518-3.07-7.245-3.07-11.197h-2c0 4.315 1.12 8.388 3.34 12.203l1.73-1.006zm-3.07-11.197c0-4.3 1.03-8.119 3.06-11.483l-1.71-1.034c-2.24 3.702-3.35 7.884-3.35 12.517h2zm3.06-11.49c2.05-3.446 4.81-6.118 8.32-8.032l-.96-1.756c-3.82 2.086-6.85 5.014-9.08 8.768l1.72 1.02zm8.32-8.028c3.57-1.917 7.54-2.882 11.92-2.882v-2c-4.68 0-8.98 1.035-12.87 3.118l.95 1.764zM1138.68 82c6.63 0 12.27 2.598 16.96 7.865l1.49-1.33c-5.04-5.666-11.21-8.535-18.45-8.535v2zm17 6.488l-31.4 31 1.41 1.424 31.4-31-1.41-1.424zm-31.33 32.486c2.26 1.845 4.47 3.236 6.65 4.148l.77-1.844c-1.96-.821-4.01-2.097-6.15-3.852l-1.27 1.548zm6.67 4.159c2.2.851 4.66 1.267 7.36 1.267v-2c-2.49 0-4.7-.384-6.64-1.133l-.72 1.866zm-14.44-21.033c0 5.778 1.93 10.758 5.77 14.882l1.47-1.364c-3.49-3.742-5.24-8.23-5.24-13.518h-2zm7.21 14.91l29.3-29.1-1.41-1.42-29.3 29.1 1.41 1.42zm29.25-30.561c-2.26-1.988-4.49-3.428-6.7-4.282l-.72 1.866c1.93.746 3.96 2.039 6.1 3.918l1.32-1.502zm-6.67-4.271c-2.22-.93-4.82-1.378-7.79-1.378v2c2.77 0 5.1.419 7.02 1.222l.77-1.844zm-7.79-1.378c-4.22 0-8.02.935-11.39 2.828l.98 1.744c3.04-1.707 6.5-2.572 10.41-2.572v-2zm-11.38 2.825c-3.29 1.82-5.89 4.346-7.78 7.569l1.73 1.012c1.7-2.91 4.04-5.184 7.02-6.831l-.97-1.75zm-7.78 7.569c-1.9 3.233-2.84 6.877-2.84 10.906h2c0-3.705.86-6.994 2.57-9.894l-1.73-1.012zM1174.39 82v-1h-1v1h1zm3.2 0h1v-1h-1v1zm0 10.4h-1l1.92.378-.92-.378zm5.8-7.7l-.59-.812-.01.007.6.805zm15.1-1.5h1v-.673l-.63-.254-.37.927zm0 3.7l-.61.797 1.61 1.217V86.9h-1zm-13.5 0l-.55-.84-.01.008.56.832zm-5.4 5.9l-.87-.494-.01.01v.008l.88.476zm-2 34.2v1h1v-1h-1zm-3.2 0h-1v1h1v-1zm0-44h3.2v-2h-3.2v2zm2.2-1v10.4h2V82h-2zm1.92 10.778c1.27-3.118 3.1-5.528 5.47-7.273l-1.19-1.61c-2.7 1.989-4.74 4.711-6.13 8.127l1.85.756zm5.46-7.266c2.43-1.742 5.15-2.612 8.22-2.612v-2c-3.48 0-6.61.996-9.39 2.988l1.17 1.624zm8.22-2.612c1.92 0 3.89.403 5.92 1.226l.75-1.853c-2.24-.91-4.46-1.373-6.67-1.373v2zm5.3.3v3.7h2v-3.7h-2zm1.6 2.903c-2.1-1.597-4.48-2.403-7.1-2.403v2c2.18 0 4.13.66 5.89 1.997l1.21-1.594zm-7.1-2.403c-2.62 0-5.14.802-7.55 2.36l1.09 1.68c2.12-1.376 4.27-2.04 6.46-2.04v-2zm-7.56 2.368c-2.34 1.56-4.24 3.646-5.71 6.238l1.74.988c1.32-2.341 3.02-4.188 5.08-5.562l-1.11-1.664zm-5.72 6.257a17.277 17.277 0 0 0-2.12 8.375h2c0-2.634.62-5.104 1.88-7.425l-1.76-.95zm-2.12 8.375V127h2v-26.3h-2zm1 25.3h-3.2v2h3.2v-2zm-2.2 1V82h-2v45h2z"/></g><defs><filter id="filter0_d" x="8.407" y="245.7" width="1047.39" height="119.1" filterUnits="userSpaceOnUse" color-interpolation-filters="sRGB"><feFlood flood-opacity="0" result="BackgroundImageFix"/><feColorMatrix in="SourceAlpha" values="0 0 0 0 0 0 0 0 0 0 0 0 0 0 0 0 0 0 127 0"/><feOffset dx="5" dy="10"/><feGaussianBlur stdDeviation="5"/><feColorMatrix values="0 0 0 0 0 0 0 0 0 0 0 0 0 0 0 0 0 0 1 0"/><feBlend in2="BackgroundImageFix" result="effect1_dropShadow"/><feBlend in="SourceGraphic" in2="effect1_dropShadow" result="shape"/></filter><filter id="filter1_d" x="10.783" y="51" width="1203.7" height="99.673" filterUnits="userSpaceOnUse" color-interpolation-filters="sRGB"><feFlood flood-opacity="0" result="BackgroundImageFix"/><feColorMatrix in="SourceAlpha" values="0 0 0 0 0 0 0 0 0 0 0 0 0 0 0 0 0 0 127 0"/><feOffset dx="5" dy="10"/><feGaussianBlur stdDeviation="5"/><feColorMatrix values="0 0 0 0 0 0 0 0 0 0 0 0 0 0 0 0 0 0 1 0"/><feBlend in2="BackgroundImageFix" result="effect1_dropShadow"/><feBlend in="SourceGraphic" in2="effect1_dropShadow" result="shape"/></filter></defs></svg>