<svg width="84" height="85" fill="none" xmlns="http://www.w3.org/2000/svg"><path d="M4 0h73v78H4z"/><g filter="url(#filter0_d)"><path d="M5 1h63.333v63.333H5z"/><path d="M5 1h63.333v63.333H5z"/><path d="M36.667 1C19.155 1 5 15.155 5 32.667c0 17.511 14.155 31.666 31.667 31.666 17.511 0 31.666-14.155 31.666-31.666C68.333 15.155 54.178 1 36.667 1zm0 57c-13.965 0-25.334-11.368-25.334-25.333 0-13.965 11.369-25.334 25.334-25.334S62 18.702 62 32.667 50.632 58 36.667 58z" fill="red"/><path d="M48.035 16.833L36.667 28.202 25.298 16.833l-4.465 4.465 11.369 11.369-11.369 11.368 4.465 4.465 11.369-11.368L48.035 48.5l4.465-4.465-11.368-11.368L52.5 21.298l-4.465-4.465z" fill="red"/></g><defs><filter id="filter0_d" x="0" y="1" width="83.333" height="83.333" filterUnits="userSpaceOnUse" color-interpolation-filters="sRGB"><feFlood flood-opacity="0" result="BackgroundImageFix"/><feColorMatrix in="SourceAlpha" values="0 0 0 0 0 0 0 0 0 0 0 0 0 0 0 0 0 0 255 0"/><feOffset dx="5" dy="10"/><feGaussianBlur stdDeviation="5"/><feColorMatrix values="0 0 0 0 0 0 0 0 0 0 0 0 0 0 0 0 0 0 1 0"/><feBlend in2="BackgroundImageFix" result="effect1_dropShadow"/><feBlend in="SourceGraphic" in2="effect1_dropShadow" result="shape"/></filter></defs></svg>