<svg width="1098" height="126" fill="none" xmlns="http://www.w3.org/2000/svg"><g filter="url(#filter0_d)" fill="red"><path d="M19.491 27.7c-.933 0-1.767-.333-2.5-1-.667-.667-1-1.5-1-2.5 0-.933.333-1.733 1-2.4.733-.667 1.567-1 2.5-1s1.733.333 2.4 1c.733.667 1.1 1.467 1.1 2.4 0 1-.367 1.833-1.1 2.5-.667.667-1.467 1-2.4 1zm-1.6 10.3h3.2v45h-3.2V38zm28.11 0h3.2v10c1.467-3.333 3.967-6 7.5-8 3.533-2.067 7.434-3.1 11.7-3.1 5.534 0 9.9 1.767 13.1 5.3 3.267 3.467 4.9 8.333 4.9 14.6V83h-3.2V56.8c0-5.4-1.333-9.6-4-12.6-2.6-3-6.266-4.5-11-4.5-3.466 0-6.666.8-9.6 2.4a18.2 18.2 0 0 0-6.9 6.4c-1.666 2.733-2.5 5.833-2.5 9.3V83h-3.2V38zm80.128-16c-2.534 0-4.867.633-7 1.9-2.134 1.2-3.834 2.9-5.1 5.1-1.2 2.133-1.8 4.5-1.8 7.1V38h13.9v2.8h-13.9V83h-3.2V36.1c0-3.133.733-5.967 2.2-8.5 1.533-2.6 3.6-4.633 6.2-6.1 2.666-1.533 5.566-2.3 8.7-2.3V22zm39.885 62.6c-4.533 0-8.633-1.1-12.3-3.3-3.666-2.267-6.533-5.233-8.6-8.9-2.066-3.733-3.1-7.767-3.1-12.1 0-4.267 1.034-8.233 3.1-11.9 2.134-3.667 5-6.567 8.6-8.7 3.667-2.2 7.734-3.3 12.2-3.3 4.4 0 8.4 1.1 12 3.3 3.667 2.133 6.534 5.033 8.6 8.7 2.067 3.667 3.1 7.633 3.1 11.9 0 4.467-1 8.567-3 12.3-2 3.667-4.8 6.6-8.4 8.8-3.533 2.133-7.6 3.2-12.2 3.2zm0-2.8c3.8 0 7.267-.967 10.4-2.9 3.134-1.933 5.567-4.5 7.3-7.7 1.8-3.267 2.7-6.833 2.7-10.7 0-3.8-.9-7.333-2.7-10.6-1.8-3.267-4.266-5.867-7.4-7.8-3.133-1.933-6.6-2.9-10.4-2.9-3.8 0-7.3 1-10.5 3-3.133 1.933-5.633 4.533-7.5 7.8-1.8 3.267-2.7 6.8-2.7 10.6s.9 7.333 2.7 10.6c1.867 3.2 4.367 5.767 7.5 7.7 3.2 1.933 6.734 2.9 10.6 2.9zm80.481 2.5c-6.733 0-13.033-1.8-18.9-5.4-5.867-3.6-10.567-8.4-14.1-14.4-3.467-6-5.2-12.433-5.2-19.3 0-6.8 1.767-13.167 5.3-19.1 3.533-5.933 8.3-10.633 14.3-14.1 6-3.533 12.5-5.3 19.5-5.3 7.067 0 13.567 1.767 19.5 5.3 5.933 3.467 10.633 8.167 14.1 14.1 3.533 5.867 5.3 12.233 5.3 19.1 0 6.867-1.733 13.333-5.2 19.4-3.467 6-8.167 10.8-14.1 14.4-5.867 3.533-12.2 5.3-19 5.3h-1.5zm.8-2.9c6.4 0 12.333-1.633 17.8-4.9 5.467-3.267 9.8-7.633 13-13.1 3.267-5.533 4.9-11.533 4.9-18 0-6.4-1.6-12.333-4.8-17.8-3.2-5.533-7.533-9.9-13-13.1-5.467-3.267-11.4-4.9-17.8-4.9-6.467 0-12.433 1.633-17.9 4.9-5.467 3.2-9.833 7.567-13.1 13.1-3.2 5.467-4.8 11.4-4.8 17.8 0 6.467 1.6 12.467 4.8 18 3.267 5.467 7.633 9.833 13.1 13.1 5.467 3.267 11.4 4.9 17.8 4.9zm0-12.3c-4.267 0-8.233-1.067-11.9-3.2s-6.567-5-8.7-8.6c-2.133-3.667-3.2-7.6-3.2-11.8 0-4.2 1.067-8.1 3.2-11.7 2.133-3.667 5.033-6.567 8.7-8.7 3.667-2.133 7.633-3.2 11.9-3.2 4.133 0 8.033 1.033 11.7 3.1s6.567 4.9 8.7 8.5V23h3.2v45h-3.2V57.5c-2.133 3.6-5.033 6.433-8.7 8.5-3.667 2.067-7.567 3.1-11.7 3.1zm.2-2.8c3.667 0 7.067-.933 10.2-2.8 3.133-1.933 5.6-4.467 7.4-7.6 1.867-3.2 2.8-6.667 2.8-10.4 0-3.667-.933-7.1-2.8-10.3-1.867-3.2-4.367-5.733-7.5-7.6-3.133-1.933-6.533-2.9-10.2-2.9-3.667 0-7.1.967-10.3 2.9-3.133 1.933-5.667 4.5-7.6 7.7-1.867 3.2-2.8 6.633-2.8 10.3 0 3.667.933 7.1 2.8 10.3 1.933 3.133 4.5 5.667 7.7 7.6 3.2 1.867 6.633 2.8 10.3 2.8zm70.988 17.8c-3.2 0-6.033-.533-8.5-1.6-2.466-1.133-4.233-2.567-5.3-4.3v-5.3c1.267 2.867 3 5 5.2 6.4 2.2 1.333 5 2 8.4 2 3.267 0 5.9-1 7.9-3 2-2.067 3-4.7 3-7.9 0-2.733-.566-4.833-1.7-6.3-1.133-1.533-2.966-3.067-5.5-4.6l-3.8-2.2c-2.733-1.667-4.8-2.967-6.2-3.9-1.333-1-2.4-2.1-3.2-3.3-.8-1.267-1.2-2.733-1.2-4.4 0-2.667.934-4.8 2.8-6.4 1.867-1.6 4.3-2.4 7.3-2.4 3.667 0 6.734.833 9.2 2.5v4.4c-2.066-2.733-5.033-4.1-8.9-4.1-2.133 0-3.866.533-5.2 1.6-1.333 1.067-2 2.433-2 4.1 0 1.467.4 2.767 1.2 3.9.8 1.067 1.9 2.067 3.3 3 1.467.933 3.867 2.333 7.2 4.2 3.4 1.933 5.9 3.933 7.5 6 1.6 2 2.4 4.633 2.4 7.9 0 4.133-1.366 7.467-4.1 10-2.666 2.467-5.933 3.7-9.8 3.7zm49.966-.5c-4.934 0-9.034-1.5-12.3-4.5-3.2-3-4.8-7.133-4.8-12.4V19.9h3.2V38h13.8v2.8h-13.8v25.9c0 4.4 1.3 7.867 3.9 10.4 2.666 2.467 6 3.7 10 3.7v2.8zm22.312-55.9c-.934 0-1.767-.333-2.5-1-.667-.667-1-1.5-1-2.5 0-.933.333-1.733 1-2.4.733-.667 1.566-1 2.5-1 .933 0 1.733.333 2.4 1 .733.667 1.1 1.467 1.1 2.4 0 1-.367 1.833-1.1 2.5-.667.667-1.467 1-2.4 1zm-1.6 10.3h3.2v45h-3.2V38zm45.21 45.9c-3.134 0-6-.7-8.6-2.1-2.6-1.467-4.667-3.5-6.2-6.1-1.534-2.6-2.3-5.5-2.3-8.7V8h3.2v59c0 2.667.6 5.067 1.8 7.2a14.367 14.367 0 0 0 5.1 5.1c2.133 1.2 4.466 1.8 7 1.8v2.8zm43.941.2c-4.067 0-8-1.1-11.8-3.3-3.733-2.2-6.6-5.1-8.6-8.7V83h-3.2V8h3.2v41.4c1.8-3.8 4.6-6.833 8.4-9.1 3.8-2.267 7.8-3.4 12-3.4 4.333 0 8.3 1.067 11.9 3.2 3.667 2.133 6.567 5 8.7 8.6 2.133 3.6 3.2 7.533 3.2 11.8s-1.067 8.2-3.2 11.8c-2.133 3.6-5.033 6.467-8.7 8.6-3.6 2.133-7.567 3.2-11.9 3.2zm.2-2.8c3.667 0 7.067-.933 10.2-2.8 3.133-1.933 5.6-4.467 7.4-7.6 1.867-3.2 2.8-6.667 2.8-10.4 0-3.667-.933-7.1-2.8-10.3-1.867-3.2-4.367-5.733-7.5-7.6-3.133-1.933-6.533-2.9-10.2-2.9-3.667 0-7.1.967-10.3 2.9-3.133 1.933-5.667 4.5-7.6 7.7-1.867 3.2-2.8 6.633-2.8 10.3 0 3.667.933 7.1 2.8 10.3 1.933 3.133 4.5 5.667 7.7 7.6 3.2 1.867 6.633 2.8 10.3 2.8zM521.157 38h3.2v10.4c1.334-3.267 3.267-5.833 5.8-7.7 2.6-1.867 5.534-2.8 8.8-2.8 2.067 0 4.167.433 6.3 1.3v3.7c-1.933-1.467-4.1-2.2-6.5-2.2-2.4 0-4.733.733-7 2.2-2.2 1.467-4 3.433-5.4 5.9a16.37 16.37 0 0 0-2 7.9V83h-3.2V38zm61.832 46.1c-6.334 0-11.234-1.733-14.7-5.2-3.4-3.467-5.1-8.367-5.1-14.7V38h3.2v26.2c0 5.467 1.433 9.7 4.3 12.7 2.933 2.933 7.033 4.4 12.3 4.4 3.2 0 6.133-.7 8.8-2.1 2.666-1.467 4.766-3.5 6.3-6.1 1.533-2.6 2.3-5.567 2.3-8.9V38h3.2v45h-3.2v-8.4c-1.534 2.8-3.834 5.1-6.9 6.9-3.067 1.733-6.567 2.6-10.5 2.6zm64.427.2c-4.333 0-8.333-1.033-12-3.1-3.6-2.067-6.467-4.9-8.6-8.5-2.133-3.6-3.2-7.667-3.2-12.2 0-4.2 1.067-8.067 3.2-11.6 2.133-3.6 5.033-6.467 8.7-8.6 3.733-2.133 7.833-3.2 12.3-3.2 3.733 0 6.933.6 9.6 1.8 2.667 1.2 5.267 3.067 7.8 5.6v5.4c-2.2-3.267-4.667-5.733-7.4-7.4-2.667-1.733-6-2.6-10-2.6-3.667 0-7.133.967-10.4 2.9-3.2 1.867-5.767 4.4-7.7 7.6-1.933 3.2-2.9 6.633-2.9 10.3 0 4 .933 7.6 2.8 10.8 1.867 3.133 4.367 5.6 7.5 7.4 3.2 1.733 6.633 2.6 10.3 2.6 7.467 0 13.4-3.367 17.8-10.1v5.4c-2.4 2.533-5.067 4.433-8 5.7-2.867 1.2-6.133 1.8-9.8 1.8zM684.068 8h3.2v39.3c1.4-3 3.766-5.467 7.1-7.4 3.4-2 6.833-3 10.3-3 6.333 0 11.2 1.733 14.6 5.2 3.466 3.467 5.2 8.367 5.2 14.7V83h-3.2V56.8c0-5.467-1.467-9.667-4.4-12.6-2.867-3-6.934-4.5-12.2-4.5-3.2 0-6.134.767-8.8 2.3-2.667 1.467-4.767 3.533-6.3 6.2-1.534 2.6-2.3 5.467-2.3 8.6V83h-3.2V8zm63.627 75.9c-.933 0-1.767-.333-2.5-1-.667-.667-1-1.5-1-2.5 0-.933.333-1.733 1-2.4.733-.667 1.567-1 2.5-1s1.733.333 2.4 1c.733.667 1.1 1.467 1.1 2.4 0 1-.367 1.833-1.1 2.5-.667.667-1.467 1-2.4 1zm44.467.2c-4.333 0-8.333-1.067-12-3.2-3.6-2.133-6.467-5-8.6-8.6-2.133-3.6-3.2-7.533-3.2-11.8s1.067-8.2 3.2-11.8c2.133-3.6 5-6.467 8.6-8.6 3.667-2.133 7.667-3.2 12-3.2 4.2 0 8.2 1.133 12 3.4 3.8 2.2 6.6 5.1 8.4 8.7V8h3.2v75h-3.2V72.1c-2 3.6-4.9 6.5-8.7 8.7-3.733 2.2-7.633 3.3-11.7 3.3zm-.1-2.8c3.667 0 7.067-.933 10.2-2.8 3.2-1.933 5.733-4.467 7.6-7.6 1.933-3.2 2.9-6.633 2.9-10.3 0-3.667-.967-7.1-2.9-10.3-1.867-3.2-4.4-5.767-7.6-7.7-3.133-1.933-6.533-2.9-10.2-2.9-3.667 0-7.067.967-10.2 2.9-3.133 1.867-5.633 4.4-7.5 7.6-1.867 3.2-2.8 6.633-2.8 10.3 0 3.733.9 7.2 2.7 10.4 1.867 3.133 4.367 5.667 7.5 7.6 3.2 1.867 6.633 2.8 10.3 2.8zm68.222.1c3.467 0 6.767-.9 9.9-2.7 3.133-1.8 5.733-4.267 7.8-7.4v5.1c-2.467 2.733-5.167 4.733-8.1 6-2.933 1.2-6.267 1.8-10 1.8-4.133 0-8.033-1.1-11.7-3.3-3.6-2.2-6.5-5.133-8.7-8.8-2.133-3.667-3.2-7.567-3.2-11.7 0-4.467 1.067-8.467 3.2-12 2.133-3.6 5.033-6.4 8.7-8.4 3.733-2 7.867-3 12.4-3 6.933 0 12.833 2.733 17.7 8.2l-31.4 31c2.2 1.8 4.333 3.133 6.4 4 2.067.8 4.4 1.2 7 1.2zm-20.8-21.3c0 5.533 1.833 10.267 5.5 14.2l29.3-29.1c-2.2-1.933-4.333-3.3-6.4-4.1-2.067-.867-4.533-1.3-7.4-1.3-4.067 0-7.7.9-10.9 2.7-3.133 1.733-5.6 4.133-7.4 7.2-1.8 3.067-2.7 6.533-2.7 10.4zm69.702 24c-3.2 0-6.033-.533-8.5-1.6-2.466-1.133-4.233-2.567-5.3-4.3v-5.3c1.267 2.867 3 5 5.2 6.4 2.2 1.333 5 2 8.4 2 3.267 0 5.9-1 7.9-3 2-2.067 3-4.7 3-7.9 0-2.733-.566-4.833-1.7-6.3-1.133-1.533-2.966-3.067-5.5-4.6l-3.8-2.2c-2.733-1.667-4.8-2.967-6.2-3.9-1.333-1-2.4-2.1-3.2-3.3-.8-1.267-1.2-2.733-1.2-4.4 0-2.667.934-4.8 2.8-6.4 1.867-1.6 4.3-2.4 7.3-2.4 3.667 0 6.734.833 9.2 2.5v4.4c-2.066-2.733-5.033-4.1-8.9-4.1-2.133 0-3.866.533-5.2 1.6-1.333 1.067-2 2.433-2 4.1 0 1.467.4 2.767 1.2 3.9.8 1.067 1.9 2.067 3.3 3 1.467.933 3.867 2.333 7.2 4.2 3.4 1.933 5.9 3.933 7.5 6 1.6 2 2.4 4.633 2.4 7.9 0 4.133-1.366 7.467-4.1 10-2.666 2.467-5.933 3.7-9.8 3.7zm37.766-56.4c-.933 0-1.767-.333-2.5-1-.667-.667-1-1.5-1-2.5 0-.933.333-1.733 1-2.4.733-.667 1.567-1 2.5-1s1.733.333 2.4 1c.733.667 1.1 1.467 1.1 2.4 0 1-.367 1.833-1.1 2.5-.667.667-1.467 1-2.4 1zm-1.6 10.3h3.2v45h-3.2V38zm49.81 65.8c-3.8 0-7.5-.867-11.1-2.6-3.6-1.733-6.4-4-8.4-6.8v-4.6c1.733 3.2 4.433 5.867 8.1 8 3.733 2.133 7.533 3.2 11.4 3.2 6.398 0 11.338-1.9 14.798-5.7 3.47-3.733 5.2-9.233 5.2-16.5v-6.7c-1.8 3.6-4.63 6.533-8.5 8.8-3.8 2.2-7.798 3.3-11.998 3.3-4.267 0-8.233-1.067-11.9-3.2s-6.567-5-8.7-8.6c-2.133-3.667-3.2-7.6-3.2-11.8 0-4.2 1.067-8.1 3.2-11.7 2.133-3.667 5.033-6.567 8.7-8.7 3.667-2.133 7.633-3.2 11.9-3.2 4.4 0 8.468 1.1 12.198 3.3 3.74 2.2 6.5 5.167 8.3 8.9V38h3.2v40.8c0 8.2-2 14.4-6 18.6-3.93 4.267-9.66 6.4-17.198 6.4zm-.3-22.4c3.667 0 7.068-.933 10.198-2.8 3.14-1.933 5.6-4.467 7.4-7.6 1.87-3.2 2.8-6.667 2.8-10.4 0-3.733-.93-7.167-2.8-10.3-1.8-3.2-4.26-5.733-7.4-7.6-3.13-1.933-6.531-2.9-10.198-2.9-3.733 0-7.2.967-10.4 2.9-3.133 1.867-5.667 4.4-7.6 7.6-1.867 3.133-2.8 6.567-2.8 10.3 0 3.733.933 7.2 2.8 10.4a23.008 23.008 0 0 0 7.6 7.6c3.2 1.867 6.667 2.8 10.4 2.8zM1040.98 38h3.2v10c1.47-3.333 3.97-6 7.5-8 3.53-2.067 7.43-3.1 11.7-3.1 5.53 0 9.9 1.767 13.1 5.3 3.27 3.467 4.9 8.333 4.9 14.6V83h-3.2V56.8c0-5.4-1.33-9.6-4-12.6-2.6-3-6.27-4.5-11-4.5-3.47 0-6.67.8-9.6 2.4-2.87 1.533-5.17 3.667-6.9 6.4-1.67 2.733-2.5 5.833-2.5 9.3V83h-3.2V38z"/><path d="M16.991 26.7l-.707.707.017.017.017.016.673-.74zm0-4.9l-.673-.74-.017.016-.017.017.707.707zm4.9 0l-.707.707.017.017.017.016.673-.74zm0 4.9l-.673-.74-.017.016-.017.017.707.707zm-4 11.3v-1h-1v1h1zm3.2 0h1v-1h-1v1zm0 45v1h1v-1h-1zm-3.2 0h-1v1h1v-1zm1.6-56.3c-.668 0-1.266-.23-1.827-.74l-1.346 1.48c.905.823 1.975 1.26 3.173 1.26v-2zm-1.793-.707c-.467-.467-.707-1.04-.707-1.793h-2c0 1.247.426 2.34 1.293 3.207l1.414-1.414zm-.707-1.793c0-.665.226-1.212.707-1.693l-1.414-1.414c-.852.852-1.293 1.905-1.293 3.107h2zm.673-1.66c.561-.51 1.159-.74 1.827-.74v-2c-1.198 0-2.268.437-3.173 1.26l1.346 1.48zm1.827-.74c.665 0 1.212.226 1.693.707l1.414-1.414c-.852-.852-1.905-1.293-3.107-1.293v2zm1.727.74c.54.49.773 1.027.773 1.66h2c0-1.234-.5-2.297-1.427-3.14l-1.346 1.48zm.773 1.66c0 .721-.25 1.285-.773 1.76l1.346 1.48c.944-.858 1.427-1.961 1.427-3.24h-2zm-.807 1.793c-.481.481-1.028.707-1.693.707v2c1.202 0 2.255-.44 3.107-1.293l-1.414-1.414zM17.89 39h3.2v-2h-3.2v2zm2.2-1v45h2V38h-2zm1 44h-3.2v2h3.2v-2zm-2.2 1V38h-2v45h2zM46 38v-1h-1v1h1zm3.2 0h1v-1h-1v1zm0 10h-1l1.916.403L49.2 48zm7.5-8l.493.87.006-.003.006-.004L56.7 40zm24.8 2.2l-.741.671.007.008.006.007.728-.686zM86.4 83v1h1v-1h-1zm-3.2 0h-1v1h1v-1zm-4-38.8l-.756.655.009.01.747-.665zm-20.6-2.1l.472.882.007-.004-.479-.878zm-6.9 6.4l-.844-.535-.005.007-.005.007.854.521zM49.2 83v1h1v-1h-1zM46 83h-1v1h1v-1zm0-44h3.2v-2H46v2zm2.2-1v10h2V38h-2zm1.916 10.403c1.37-3.114 3.708-5.626 7.077-7.533l-.985-1.74c-3.699 2.093-6.36 4.914-7.923 8.467l1.83.806zm7.09-7.54C60.58 38.89 64.303 37.9 68.4 37.9v-2c-4.436 0-8.512 1.077-12.205 3.237l1.01 1.726zM68.4 37.9c5.301 0 9.38 1.682 12.359 4.971l1.482-1.342c-3.42-3.777-8.075-5.629-13.84-5.629v2zm12.372 4.986c3.043 3.228 4.628 7.82 4.628 13.914h2c0-6.439-1.681-11.581-5.172-15.286l-1.456 1.372zM85.401 56.8V83h2V56.8h-2zm1 25.2h-3.2v2h3.2v-2zm-2.2 1V56.8h-2V83h2zm0-26.2c0-5.56-1.374-10.026-4.252-13.264l-1.495 1.328C80.909 47.626 82.2 51.56 82.2 56.8h2zm-4.244-13.255C77.13 40.283 73.163 38.7 68.2 38.7v2c4.505 0 7.871 1.416 10.245 4.155l1.51-1.31zM68.2 38.7c-3.627 0-6.993.839-10.079 2.522l.958 1.756c2.78-1.517 5.815-2.278 9.121-2.278v-2zm-10.07 2.518a19.191 19.191 0 0 0-7.273 6.746l1.689 1.072c1.64-2.587 3.812-4.602 6.527-6.054l-.944-1.764zm-7.283 6.761c-1.77 2.904-2.646 6.186-2.646 9.821h2c0-3.299.79-6.216 2.354-8.78l-1.708-1.04zM48.201 57.8V83h2V57.8h-2zm1 24.2h-3.2v2h3.2v-2zm-2.2 1V38h-2v45h2zm79.128-61v1h1v-1h-1zm-7 1.9l.49.872.01-.006.01-.006-.51-.86zm-5.1 5.1l-.867-.499-.005.009.872.49zm-1.8 9h-1v1h1v-1zm13.9 0h1v-1h-1v1zm0 2.8v1h1v-1h-1zm-13.9 0v-1h-1v1h1zm0 42.2v1h1v-1h-1zm-3.2 0h-1v1h1v-1zm2.2-55.4l-.862-.508-.004.007.866.501zm6.2-6.1l.491.871.007-.004-.498-.867zm8.7-2.3h1v-1h-1v1zm0 1.8c-2.71 0-5.22.68-7.511 2.04l1.021 1.72c1.976-1.173 4.132-1.76 6.49-1.76v-2zm-7.491 2.028c-2.296 1.292-4.123 3.123-5.476 5.473l1.733.998c1.181-2.05 2.753-3.619 4.724-4.727l-.981-1.744zm-5.481 5.482c-1.29 2.292-1.928 4.83-1.928 7.59h2c0-2.44.561-4.635 1.671-6.61l-1.743-.98zm-1.928 7.59V38h2v-1.9h-2zm1 2.9h13.9v-2h-13.9v2zm12.9-1v2.8h2V38h-2zm1 1.8h-13.9v2h13.9v-2zm-14.9 1V83h2V40.8h-2zm1 41.2h-3.2v2h3.2v-2zm-2.2 1V36.1h-2V83h2zm0-46.9c0-2.97.693-5.629 2.065-7.999l-1.731-1.002c-1.561 2.696-2.334 5.704-2.334 9.001h2zm2.061-7.992c1.445-2.45 3.385-4.358 5.83-5.737l-.983-1.742c-2.755 1.554-4.948 3.713-6.57 6.463l1.723 1.016zm5.837-5.741c2.512-1.445 5.24-2.167 8.202-2.167v-2c-3.305 0-6.378.81-9.199 2.433l.997 1.734zm7.202-3.167V22h2v-2.8h-2zm28.585 62.1l-.525.85.011.007.514-.857zm-8.6-8.9l-.874.484.003.007.871-.491zm0-24l-.864-.503-.007.012.871.491zm8.6-8.7l.51.86.005-.003-.515-.857zm24.2 0l-.521.853.009.006.01.005.502-.864zm8.6 8.7l-.871.491.871-.491zm.1 24.2l.878.479.004-.007-.882-.472zm-8.4 8.8l.517.856.005-.003-.522-.853zm-1.8-2.5l-.525-.851.525.851zm7.3-7.7l-.875-.483-.004.007.879.476zm0-21.3l.876-.483-.876.483zm-7.4-7.8l-.525.851.525-.851zm-20.9.1l.526.851.004-.003-.53-.848zm-7.5 7.8l-.868-.496-.004.007-.003.006.875.483zm0 21.2l-.875.483.006.01.006.01.863-.503zm7.5 7.7l-.525.851.008.005.517-.856zm10.6 4.7c-4.363 0-8.283-1.056-11.785-3.157l-1.029 1.715c3.831 2.298 8.111 3.442 12.814 3.442v-2zm-11.774-3.15c-3.526-2.18-6.273-5.025-8.254-8.541l-1.743.982c2.152 3.817 5.139 6.906 8.946 9.26l1.051-1.702zm-8.251-8.534c-1.983-3.583-2.975-7.45-2.975-11.616h-2c0 4.5 1.076 8.7 3.226 12.584l1.749-.968zM143.014 60.3c0-4.097.991-7.894 2.972-11.409l-1.743-.982c-2.152 3.819-3.229 7.955-3.229 12.391h2zm2.965-11.397c2.049-3.521 4.794-6.298 8.245-8.343l-1.019-1.72c-3.749 2.221-6.737 5.245-8.955 9.057l1.729 1.006zm8.25-8.346c3.504-2.102 7.392-3.157 11.685-3.157v-2c-4.639 0-8.885 1.145-12.714 3.443l1.029 1.714zm11.685-3.157c4.225 0 8.043 1.053 11.479 3.153l1.043-1.706c-3.764-2.3-7.946-3.447-12.522-3.447v2zm11.498 3.164c3.514 2.045 6.253 4.817 8.231 8.327l1.743-.982c-2.155-3.823-5.149-6.851-8.969-9.073l-1.005 1.728zm8.231 8.327c1.981 3.515 2.971 7.312 2.971 11.409h2c0-4.436-1.076-8.572-3.228-12.391l-1.743.982zm2.971 11.409c0 4.311-.963 8.248-2.881 11.828l1.763.944c2.082-3.886 3.118-8.15 3.118-12.772h-2zm-2.877 11.821c-1.916 3.511-4.592 6.316-8.044 8.426l1.043 1.706c3.748-2.29 6.672-5.352 8.756-9.174l-1.755-.958zm-8.039 8.423c-3.36 2.029-7.244 3.056-11.684 3.056v2c4.761 0 9.011-1.106 12.717-3.344l-1.033-1.712zM166.014 82.8c3.98 0 7.629-1.015 10.926-3.049l-1.051-1.702c-2.97 1.833-6.254 2.751-9.875 2.751v2zm10.926-3.049c3.28-2.024 5.836-4.72 7.654-8.075l-1.759-.952c-1.649 3.044-3.959 5.482-6.946 7.325l1.051 1.702zm7.65-8.068c1.885-3.42 2.824-7.154 2.824-11.183h-2c0 3.704-.86 7.104-2.575 10.217l1.751.966zm2.824-11.183c0-3.965-.941-7.665-2.824-11.083l-1.751.966c1.717 3.116 2.575 6.482 2.575 10.117h2zm-2.824-11.083c-1.882-3.415-4.468-6.143-7.75-8.168l-1.051 1.702c2.985 1.842 5.332 4.314 7.05 7.432l1.751-.966zm-7.75-8.168c-3.297-2.034-6.946-3.049-10.926-3.049v2c3.621 0 6.905.918 9.875 2.751l1.051-1.702zM165.914 38.2c-3.986 0-7.669 1.052-11.03 3.152l1.06 1.696c3.04-1.9 6.356-2.848 9.97-2.848v-2zm-11.025 3.149c-3.278 2.023-5.895 4.746-7.843 8.155l1.737.992c1.785-3.125 4.169-5.601 7.157-7.445l-1.051-1.702zm-7.85 8.168c-1.883 3.418-2.825 7.117-2.825 11.083h2c0-3.635.859-7.001 2.576-10.117l-1.751-.966zM144.214 60.6c0 3.965.942 7.665 2.825 11.083l1.751-.966c-1.717-3.116-2.576-6.482-2.576-10.117h-2zm2.837 11.104c1.948 3.34 4.564 6.027 7.838 8.047l1.051-1.702c-2.993-1.847-5.377-4.294-7.162-7.353l-1.727 1.008zm7.846 8.052c3.362 2.03 7.075 3.044 11.117 3.044v-2c-3.69 0-7.044-.92-10.082-2.756l-1.035 1.712zm72.698-.856l-.523.852.523-.852zm-14.1-14.4l-.866.5.004.007.862-.507zm.1-38.4l.859.512-.859-.512zm14.3-14.1l.5.866.007-.004-.507-.862zm39 0l-.512.86.007.003.505-.863zm14.1 14.1l-.864.505.007.01.857-.515zm.1 38.5l.866.5.002-.004-.868-.496zm-14.1 14.4l.516.857.003-.002-.519-.855zm-1.9-2.5l-.513-.858.513.858zm13-13.1l-.861-.508-.002.003.863.505zm.1-35.8l-.866.5.003.005.863-.505zm-13-13.1l-.513.858.008.005.505-.863zm-35.7 0l.505.863.008-.005-.513-.858zm-13.1 13.1l-.861-.508-.002.003.863.505zm0 35.8l-.866.5.004.007.004.006.858-.513zm13.1 13.1l.513-.858-.513.858zm5.9-10.6l-.503.864.503-.864zm-8.7-8.6l-.864.503.004.007.86-.51zm0-23.5l.86.51.004-.007-.864-.503zm8.7-8.7l-.503-.864.503.864zm23.6-.1l.491-.871-.491.871zm8.7 8.5l-.86.51 1.86 3.139V33.5h-1zm0-10.5v-1h-1v1h1zm3.2 0h1v-1h-1v1zm0 45v1h1v-1h-1zm-3.2 0h-1v1h1v-1zm0-10.5h1v-3.649l-1.86 3.14.86.509zm-8.7 8.5l.491.871-.491-.871zm-1.3-2.5l.512.86.006-.005.007-.004-.525-.851zm7.4-7.6l-.864-.504-.003.006.867.498zm-7.5-28.3l-.525.851.006.004.007.004.512-.859zm-20.5 0l-.517-.856-.008.005.525.851zm-7.6 7.7l-.856-.517-.004.006-.004.007.864.504zm0 20.6l-.864.504.006.01.007.011.851-.525zm7.7 7.6l-.517.856.006.004.007.004.504-.864zm9.3 19.8c-6.544 0-12.664-1.747-18.377-5.252l-1.046 1.704c6.02 3.695 12.501 5.548 19.423 5.548v-2zm-18.377-5.252c-5.726-3.514-10.31-8.195-13.761-14.055l-1.724 1.014c3.616 6.14 8.431 11.059 14.439 14.745l1.046-1.704zM214.361 64c-3.38-5.85-5.066-12.11-5.066-18.8h-2c0 7.044 1.78 13.65 5.334 19.8l1.732-1zm-5.066-18.8c0-6.617 1.716-12.807 5.159-18.588l-1.718-1.024c-3.624 6.086-5.441 12.629-5.441 19.612h2zm5.159-18.588c3.446-5.786 8.089-10.365 13.941-13.746l-1-1.732c-6.148 3.552-11.038 8.374-14.659 14.454l1.718 1.024zm13.948-13.75c5.846-3.443 12.17-5.162 18.993-5.162v-2c-7.178 0-13.853 1.814-20.008 5.438l1.015 1.724zM247.395 7.7c6.891 0 13.213 1.72 18.988 5.16l1.024-1.72c-6.092-3.627-12.77-5.44-20.012-5.44v2zm18.995 5.163c5.785 3.38 10.362 7.957 13.741 13.742l1.727-1.01c-3.553-6.081-8.377-10.905-14.459-14.458l-1.009 1.726zm13.748 13.753c3.44 5.71 5.157 11.899 5.157 18.584h2c0-7.048-1.816-13.593-5.443-19.616l-1.714 1.032zm5.157 18.584c0 6.69-1.686 12.985-5.068 18.904l1.736.992c3.552-6.215 5.332-12.852 5.332-19.896h-2zm-5.066 18.9c-3.382 5.854-7.963 10.532-13.753 14.045l1.038 1.71c6.076-3.687 10.896-8.609 14.447-14.755l-1.732-1zm-13.75 14.043c-5.712 3.44-11.867 5.157-18.484 5.157v2c6.983 0 13.495-1.817 19.516-5.443l-1.032-1.714zM247.995 83.3h-1.5v2h1.5v-2zm-.7-.9c6.58 0 12.69-1.682 18.313-5.042l-1.026-1.716c-5.311 3.173-11.067 4.758-17.287 4.758v2zm18.313-5.042c5.61-3.352 10.064-7.84 13.35-13.453l-1.726-1.01c-3.115 5.32-7.327 9.566-12.65 12.747l1.026 1.716zm13.348-13.45c3.358-5.688 5.039-11.864 5.039-18.508h-2c0 6.289-1.586 12.113-4.761 17.492l1.722 1.016zm5.039-18.508c0-6.576-1.646-12.684-4.937-18.305l-1.726 1.01c3.109 5.312 4.663 11.07 4.663 17.295h2zm-4.934-18.3c-3.286-5.683-7.743-10.175-13.361-13.463l-1.01 1.726c5.315 3.112 9.525 7.353 12.639 12.738l1.732-1.002zm-13.353-13.458c-5.623-3.36-11.733-5.042-18.313-5.042v2c6.22 0 11.976 1.585 17.287 4.758l1.026-1.716zM247.395 8.6c-6.644 0-12.789 1.68-18.413 5.042l1.026 1.716c5.309-3.172 11.098-4.758 17.387-4.758v-2zm-18.405 5.037c-5.616 3.287-10.104 7.777-13.456 13.455l1.722 1.016c3.181-5.389 7.427-9.632 12.744-12.745l-1.01-1.726zm-13.458 13.458c-3.291 5.621-4.937 11.73-4.937 18.305h2c0-6.224 1.554-11.983 4.663-17.295l-1.726-1.01zM210.595 45.4c0 6.64 1.645 12.813 4.934 18.5l1.732-1c-3.111-5.38-4.666-11.207-4.666-17.5h-2zm4.942 18.513c3.351 5.609 7.836 10.094 13.445 13.445l1.026-1.716c-5.325-3.182-9.573-7.43-12.755-12.755l-1.716 1.026zm13.445 13.445c5.623 3.36 11.733 5.042 18.313 5.042v-2c-6.22 0-11.976-1.585-17.287-4.758l-1.026 1.716zm18.313-9.258c-4.091 0-7.884-1.02-11.397-3.064l-1.006 1.728c3.82 2.223 7.961 3.336 12.403 3.336v-2zm-11.397-3.064c-3.522-2.05-6.298-4.795-8.343-8.246l-1.72 1.02c2.221 3.749 5.245 6.736 9.057 8.954l1.006-1.728zm-8.339-8.239c-2.045-3.515-3.064-7.275-3.064-11.297h-2c0 4.379 1.114 8.485 3.336 12.303l1.728-1.006zM224.495 45.5c0-4.021 1.019-7.745 3.06-11.19l-1.72-1.02c-2.226 3.755-3.34 7.831-3.34 12.21h2zm3.064-11.197c2.046-3.517 4.822-6.292 8.339-8.339l-1.006-1.728c-3.816 2.22-6.841 5.245-9.061 9.061l1.728 1.006zm8.339-8.339c3.513-2.044 7.306-3.064 11.397-3.064v-2c-4.442 0-8.583 1.113-12.403 3.336l1.006 1.728zm11.397-3.064c3.958 0 7.689.987 11.209 2.971l.982-1.742c-3.814-2.15-7.882-3.229-12.191-3.229v2zm11.209 2.971c3.515 1.981 6.287 4.69 8.331 8.139l1.72-1.02c-2.223-3.751-5.251-6.709-9.069-8.861l-.982 1.742zm10.191 7.629V23h-2v10.5h2zm-1-9.5h3.2v-2h-3.2v2zm2.2-1v45h2V23h-2zm1 44h-3.2v2h3.2v-2zm-2.2 1V57.5h-2V68h2zm-1.86-11.01c-2.044 3.449-4.816 6.158-8.331 8.139l.982 1.742c3.818-2.152 6.846-5.11 9.069-8.861l-1.72-1.02zm-8.331 8.139c-3.52 1.984-7.251 2.971-11.209 2.971v2c4.309 0 8.377-1.08 12.191-3.229l-.982-1.742zM247.495 67.3c3.846 0 7.423-.981 10.712-2.94l-1.024-1.72c-2.978 1.775-6.201 2.66-9.688 2.66v2zm10.725-2.949c3.272-2.019 5.858-4.672 7.742-7.953l-1.734-.996c-1.716 2.986-4.064 5.4-7.058 7.247l1.05 1.702zm7.739-7.947c1.956-3.354 2.936-6.995 2.936-10.904h-2c0 3.558-.887 6.85-2.664 9.896l1.728 1.008zm2.936-10.904c0-3.846-.981-7.453-2.936-10.804l-1.728 1.008c1.779 3.049 2.664 6.308 2.664 9.796h2zm-2.936-10.804c-1.951-3.344-4.571-6-7.852-7.955l-1.024 1.718c2.986 1.779 5.365 4.189 7.148 7.245l1.728-1.008zm-7.839-7.947c-3.29-2.03-6.872-3.049-10.725-3.049v2c3.48 0 6.699.915 9.675 2.751l1.05-1.702zM247.395 23.7c-3.853 0-7.464 1.018-10.817 3.044l1.034 1.712c3.047-1.841 6.302-2.756 9.783-2.756v-2zm-10.825 3.049c-3.271 2.018-5.917 4.7-7.931 8.034l1.712 1.034c1.852-3.066 4.273-5.517 7.269-7.366l-1.05-1.702zm-7.939 8.047c-1.955 3.351-2.936 6.958-2.936 10.804h2c0-3.488.885-6.747 2.664-9.796l-1.728-1.008zM225.695 45.6c0 3.846.981 7.453 2.936 10.804l1.728-1.008c-1.779-3.049-2.664-6.308-2.664-9.796h-2zm2.949 10.825c2.018 3.27 4.7 5.917 8.034 7.93l1.034-1.71c-3.066-1.853-5.517-4.274-7.366-7.27l-1.702 1.05zm8.047 7.939c3.351 1.955 6.958 2.936 10.804 2.936v-2c-3.488 0-6.747-.885-9.796-2.664l-1.008 1.728zM309.983 82.5l-.417.909.01.004.01.005.397-.918zm-5.3-4.3h-1v.283l.149.241.851-.524zm0-5.3l.915-.404-1.915.404h1zm5.2 6.4l-.537.844.01.005.009.006.518-.855zm16.3-1l.707.707.006-.006.006-.006-.719-.695zm1.3-14.2l-.804.594.006.009.007.008.791-.611zm-5.5-4.6l.518-.855-.008-.006-.009-.004-.501.865zm-3.8-2.2l-.52.854.009.006.01.005.501-.865zm-6.2-3.9l-.6.8.022.017.024.015.554-.832zm-3.2-3.3l-.845.534.006.01.007.01.832-.554zm1.6-10.8l.651.76-.651-.76zm16.5.1h1v-.531l-.44-.298-.56.829zm0 4.4l-.797.603 1.797 2.378V43.8h-1zm-14.1-2.5l-.624-.78.624.78zm-.8 8l-.817.577.009.011.008.012.8-.6zm3.3 3l-.554.832.008.006.009.006.537-.844zm7.2 4.2l.495-.87-.006-.003-.489.873zm7.5 6l-.791.612.005.006.005.007.781-.625zm-1.7 17.9l.679.734h.001l-.68-.734zm-9.8 2.7c-3.089 0-5.783-.515-8.103-1.518l-.794 1.836c2.614 1.13 5.586 1.682 8.897 1.682v-2zm-8.082-1.509c-2.346-1.078-3.932-2.398-4.866-3.915l-1.703 1.048c1.199 1.95 3.146 3.496 5.734 4.685l.835-1.818zm-4.718-3.391v-5.3h-2v5.3h2zm-1.914-4.896c1.33 3.01 3.18 5.314 5.577 6.84l1.074-1.688c-2.002-1.274-3.619-3.237-4.822-5.96l-1.829.808zm5.596 6.851c2.399 1.454 5.393 2.145 8.918 2.145v-2c-3.274 0-5.88-.642-7.881-1.855l-1.037 1.71zm8.918 2.145c3.488 0 6.39-1.076 8.607-3.293l-1.414-1.414c-1.783 1.783-4.147 2.707-7.193 2.707v2zm8.619-3.305c2.201-2.275 3.281-5.167 3.281-8.595h-2c0 2.972-.92 5.346-2.718 7.205l1.437 1.39zm3.281-8.595c0-2.854-.589-5.204-1.909-6.911l-1.582 1.222c.947 1.226 1.491 3.076 1.491 5.689h2zm-1.896-6.894c-1.241-1.68-3.196-3.294-5.786-4.861l-1.036 1.71c2.477 1.5 4.189 2.953 5.214 4.34l1.608-1.19zm-5.803-4.871l-3.8-2.2-1.002 1.73 3.8 2.2 1.002-1.73zm-3.78-2.189c-2.73-1.664-4.783-2.956-6.166-3.878l-1.109 1.664c1.417.945 3.497 2.253 6.234 3.922l1.041-1.708zm-6.121-3.846c-1.256-.942-2.24-1.962-2.968-3.055l-1.664 1.11c.872 1.307 2.022 2.487 3.432 3.545l1.2-1.6zm-2.954-3.034c-.688-1.09-1.046-2.366-1.046-3.866h-2c0 1.834.443 3.49 1.355 4.934l1.691-1.068zm-1.046-3.866c0-2.403.826-4.248 2.451-5.64l-1.302-1.52c-2.108 1.808-3.149 4.23-3.149 7.16h2zm2.451-5.64c1.648-1.413 3.833-2.16 6.649-2.16v-2c-3.184 0-5.865.853-7.951 2.64l1.302 1.52zm6.649-2.16c3.514 0 6.374.797 8.64 2.329l1.12-1.658c-2.667-1.801-5.94-2.671-9.76-2.671v2zm8.2 1.5v4.4h2v-4.4h-2zm1.798 3.797c-2.282-3.018-5.564-4.497-9.698-4.497v2c3.6 0 6.251 1.254 8.103 3.703l1.595-1.206zm-9.698-4.497c-2.302 0-4.273.578-5.824 1.82l1.249 1.56c1.115-.892 2.611-1.38 4.575-1.38v-2zm-5.824 1.82c-1.564 1.25-2.376 2.901-2.376 4.88h2c0-1.354.522-2.437 1.625-3.32l-1.249-1.56zm-2.376 4.88c0 1.66.457 3.165 1.383 4.477l1.634-1.154c-.674-.954-1.017-2.05-1.017-3.323h-2zm1.4 4.5c.883 1.178 2.075 2.252 3.546 3.232l1.109-1.664c-1.329-.886-2.338-1.812-3.055-2.768l-1.6 1.2zm3.563 3.244c1.492.95 3.913 2.36 7.249 4.229l.977-1.745c-3.332-1.866-5.711-3.255-7.152-4.172l-1.074 1.688zm7.243 4.225c3.337 1.898 5.714 3.82 7.203 5.743l1.582-1.224c-1.711-2.21-4.333-4.288-7.796-6.257l-.989 1.738zm7.213 5.756c1.423 1.778 2.181 4.172 2.181 7.275h2c0-3.43-.842-6.303-2.619-8.525l-1.562 1.25zm2.181 7.275c0 3.889-1.274 6.944-3.78 9.267l1.36 1.466c2.961-2.744 4.42-6.355 4.42-10.733h-2zm-3.779 9.266c-2.469 2.284-5.488 3.434-9.121 3.434v2c4.101 0 7.615-1.317 10.479-3.966l-1.358-1.468zm40.845 3.934v1h1v-1h-1zm-12.3-4.5l-.684.73.007.007.677-.737zm-4.8-59.2v-1h-1v1h1zm3.2 0h1v-1h-1v1zm0 18.1h-1v1h1v-1zm13.8 0h1v-1h-1v1zm0 2.8v1h1v-1h-1zm-13.8 0v-1h-1v1h1zm3.9 36.3l-.698.716.009.01.01.008.679-.734zm10 3.7h1v-1h-1v1zm0 1.8c-4.713 0-8.563-1.425-11.624-4.236l-1.353 1.472c3.473 3.19 7.823 4.764 12.977 4.764v-2zm-11.616-4.23c-2.959-2.773-4.484-6.62-4.484-11.67h-2c0 5.483 1.674 9.903 5.116 13.13l1.368-1.46zm-4.484-11.67V19.9h-2v46.8h2zm-1-45.8h3.2v-2h-3.2v2zm2.2-1V38h2V19.9h-2zm1 19.1h13.8v-2h-13.8v2zm12.8-1v2.8h2V38h-2zm1 1.8h-13.8v2h13.8v-2zm-14.8 1v25.9h2V40.8h-2zm0 25.9c0 4.608 1.369 8.356 4.202 11.116l1.396-1.432c-2.367-2.306-3.598-5.492-3.598-9.684h-2zm4.221 11.134c2.871 2.656 6.455 3.966 10.679 3.966v-2c-3.776 0-6.859-1.156-9.321-3.434l-1.358 1.468zm9.679 2.966v2.8h2v-2.8h-2zm20.812-54.1l-.708.707.017.017.018.016.673-.74zm0-4.9l-.673-.74-.018.016-.017.017.708.707zm4.9 0l-.708.707.017.017.018.016.673-.74zm0 4.9l-.673-.74-.018.016-.017.017.708.707zm-4 11.3v-1h-1v1h1zm3.2 0h1v-1h-1v1zm0 45v1h1v-1h-1zm-3.2 0h-1v1h1v-1zm1.6-56.3c-.669 0-1.266-.23-1.828-.74l-1.345 1.48c.905.823 1.974 1.26 3.173 1.26v-2zm-1.793-.707c-.467-.467-.707-1.04-.707-1.793h-2c0 1.247.426 2.34 1.292 3.207l1.415-1.414zm-.707-1.793c0-.665.225-1.212.707-1.693l-1.415-1.414c-.852.852-1.292 1.905-1.292 3.107h2zm.672-1.66c.562-.51 1.159-.74 1.828-.74v-2c-1.199 0-2.268.437-3.173 1.26l1.345 1.48zm1.828-.74c.665 0 1.211.226 1.692.707l1.415-1.414c-.852-.852-1.906-1.293-3.107-1.293v2zm1.727.74c.539.49.773 1.027.773 1.66h2c0-1.234-.501-2.297-1.428-3.14l-1.345 1.48zm.773 1.66c0 .721-.25 1.285-.773 1.76l1.345 1.48c.944-.858 1.428-1.961 1.428-3.24h-2zm-.808 1.793c-.481.481-1.027.707-1.692.707v2c1.201 0 2.255-.44 3.107-1.293l-1.415-1.414zM389.161 39h3.2v-2h-3.2v2zm2.2-1v45h2V38h-2zm1 44h-3.2v2h3.2v-2zm-2.2 1V38h-2v45h2zm44.21.9v1h1v-1h-1zm-8.6-2.1l-.492.871.009.005.009.004.474-.88zm-6.2-6.1l.861-.508-.861.508zm-2.3-67.7V7h-1v1h1zm3.2 0h1V7h-1v1zm1.8 66.2l-.872.49.006.01.006.01.86-.51zm5.1 5.1l-.511.86.01.006.01.006.491-.872zm7 1.8h1v-1h-1v1zm0 1.8c-2.979 0-5.681-.664-8.126-1.98l-.948 1.76c2.754 1.484 5.785 2.22 9.074 2.22v-2zm-8.109-1.971c-2.445-1.38-4.385-3.287-5.83-5.737l-1.723 1.016c1.622 2.75 3.815 4.909 6.57 6.463l.983-1.742zm-5.83-5.737c-1.437-2.437-2.161-5.16-2.161-8.192h-2c0 3.368.809 6.445 2.438 9.208l1.723-1.016zM418.271 67V8h-2v59h2zm-1-58h3.2V7h-3.2v2zm2.2-1v59h2V8h-2zm0 59c0 2.823.637 5.394 1.928 7.69l1.743-.98c-1.108-1.97-1.671-4.2-1.671-6.71h-2zm1.94 7.71a15.377 15.377 0 0 0 5.449 5.45l1.021-1.72a13.377 13.377 0 0 1-4.75-4.75l-1.72 1.02zm5.469 5.462c2.289 1.287 4.792 1.928 7.491 1.928v-2c-2.368 0-4.532-.559-6.51-1.672l-.981 1.744zm6.491.928v2.8h2v-2.8h-2zm33.141-.3l-.508.862.007.003.501-.865zm-8.6-8.7l.874-.486-1.874-3.373V72.1h1zm0 10.9v1h1v-1h-1zm-3.2 0h-1v1h1v-1zm0-75V7h-1v1h1zm3.2 0h1V7h-1v1zm0 41.4h-1l1.904.428-.904-.428zm8.4-9.1l-.512-.859.512.859zm23.9-.2l-.51.86.007.004.503-.864zm8.7 8.6l-.86.51.86-.51zm0 23.6l-.86-.51.86.51zm-8.7 8.6l-.503-.864-.007.004.51.86zm-1.5-2.4l.512.86.007-.005.006-.004-.525-.851zm7.4-7.6l-.864-.504-.003.006.867.498zm0-20.7l.864-.504-.864.504zm-7.5-7.6l-.525.851.007.004.006.004.512-.859zm-20.5 0l-.517-.856-.008.005.525.851zm-7.6 7.7l-.856-.517-.004.006-.004.007.864.504zm0 20.6l-.864.504.007.01.006.011.851-.525zm7.7 7.6l-.517.856.007.004.006.004.504-.864zm10.1 4.6c-3.877 0-7.639-1.046-11.299-3.165l-1.002 1.73c3.94 2.281 8.045 3.435 12.301 3.435v-2zm-11.292-3.161c-3.588-2.115-6.325-4.889-8.234-8.325l-1.748.972c2.091 3.764 5.088 6.79 8.966 9.076l1.016-1.724zM456.912 72.1V83h2V72.1h-2zm1 9.9h-3.2v2h3.2v-2zm-2.2 1V8h-2v75h2zm-1-74h3.2V7h-3.2v2zm2.2-1v41.4h2V8h-2zm1.904 41.828c1.71-3.611 4.369-6.498 8.008-8.67l-1.024-1.717c-3.961 2.363-6.902 5.542-8.792 9.53l1.808.857zm8.008-8.67c3.654-2.179 7.478-3.258 11.488-3.258v-2c-4.39 0-8.566 1.187-12.512 3.541l1.024 1.718zm11.488-3.258c4.161 0 7.95 1.022 11.39 3.06l1.02-1.72c-3.76-2.228-7.904-3.34-12.41-3.34v2zm11.397 3.064c3.522 2.05 6.298 4.795 8.343 8.246l1.72-1.02c-2.221-3.749-5.245-6.736-9.057-8.954l-1.006 1.728zm8.343 8.246c2.04 3.442 3.06 7.199 3.06 11.29h2c0-4.442-1.113-8.552-3.34-12.31l-1.72 1.02zm3.06 11.29c0 4.091-1.02 7.848-3.06 11.29l1.72 1.02c2.227-3.758 3.34-7.868 3.34-12.31h-2zm-3.06 11.29c-2.045 3.451-4.821 6.197-8.343 8.246l1.006 1.728c3.812-2.218 6.836-5.205 9.057-8.954l-1.72-1.02zm-8.35 8.25c-3.44 2.038-7.229 3.06-11.39 3.06v2c4.506 0 8.65-1.112 12.41-3.34l-1.02-1.72zm-11.19 2.26c3.846 0 7.423-.981 10.712-2.94l-1.024-1.72c-2.977 1.775-6.2 2.66-9.688 2.66v2zm10.725-2.949c3.272-2.019 5.858-4.672 7.742-7.953l-1.734-.996c-1.716 2.986-4.063 5.4-7.058 7.247l1.05 1.702zm7.739-7.947c1.956-3.354 2.936-6.995 2.936-10.904h-2c0 3.558-.887 6.85-2.664 9.896l1.728 1.008zm2.936-10.904c0-3.846-.981-7.453-2.936-10.804l-1.728 1.008c1.779 3.049 2.664 6.308 2.664 9.796h2zm-2.936-10.804c-1.951-3.344-4.571-6-7.852-7.955l-1.024 1.718c2.986 1.779 5.366 4.189 7.148 7.245l1.728-1.008zm-7.839-7.947c-3.29-2.03-6.872-3.049-10.725-3.049v2c3.481 0 6.699.915 9.675 2.751l1.05-1.702zM478.412 38.7c-3.853 0-7.464 1.018-10.817 3.044l1.034 1.712c3.047-1.841 6.302-2.756 9.783-2.756v-2zm-10.825 3.049c-3.271 2.018-5.917 4.7-7.931 8.034l1.712 1.034c1.853-3.066 4.273-5.517 7.269-7.366l-1.05-1.702zm-7.939 8.047c-1.955 3.351-2.936 6.958-2.936 10.804h2c0-3.488.885-6.747 2.664-9.796l-1.728-1.008zM456.712 60.6c0 3.846.981 7.453 2.936 10.804l1.728-1.008c-1.779-3.049-2.664-6.308-2.664-9.796h-2zm2.949 10.825c2.018 3.27 4.7 5.917 8.034 7.93l1.034-1.71c-3.066-1.853-5.517-4.274-7.366-7.27l-1.702 1.05zm8.047 7.939c3.352 1.955 6.958 2.936 10.804 2.936v-2c-3.488 0-6.747-.885-9.796-2.664l-1.008 1.728zM521.157 38v-1h-1v1h1zm3.2 0h1v-1h-1v1zm0 10.4h-1l1.926.378-.926-.378zm5.8-7.7l-.583-.812-.01.007.593.805zm15.1-1.5h1v-.673l-.623-.254-.377.927zm0 3.7l-.604.797 1.604 1.217V42.9h-1zm-13.5 0l-.543-.84-.011.008.554.832zm-5.4 5.9l-.869-.494-.005.01-.005.008.879.476zm-2 34.2v1h1v-1h-1zm-3.2 0h-1v1h1v-1zm0-44h3.2v-2h-3.2v2zm2.2-1v10.4h2V38h-2zm1.926 10.778c1.273-3.118 3.1-5.528 5.468-7.273l-1.187-1.61c-2.699 1.988-4.738 4.711-6.132 8.127l1.851.756zm5.458-7.266c2.426-1.742 5.154-2.612 8.216-2.612v-2c-3.471 0-6.609.996-9.383 2.988l1.167 1.624zm8.216-2.612c1.924 0 3.897.403 5.924 1.227l.753-1.854c-2.239-.91-4.467-1.373-6.677-1.373v2zm5.3.3v3.7h2v-3.7h-2zm1.605 2.903c-2.105-1.597-4.484-2.403-7.105-2.403v2c2.18 0 4.134.66 5.896 1.997l1.209-1.594zm-7.105-2.403c-2.616 0-5.135.802-7.543 2.36l1.087 1.68c2.125-1.376 4.273-2.04 6.456-2.04v-2zm-7.554 2.368c-2.34 1.56-4.244 3.646-5.715 6.238l1.739.988c1.329-2.341 3.024-4.188 5.085-5.562l-1.109-1.664zm-5.725 6.257a17.367 17.367 0 0 0-2.121 8.375h2c0-2.634.626-5.104 1.88-7.425l-1.759-.95zm-2.121 8.375V83h2V56.7h-2zm1 25.3h-3.2v2h3.2v-2zm-2.2 1V38h-2v45h2zm46.132-4.1l-.714.7.007.007.707-.707zm-5.1-40.9v-1h-1v1h1zm3.2 0h1v-1h-1v1zm4.3 38.9l-.723.69.008.01.008.007.707-.707zm21.1 2.3l.465.885.008-.004.009-.005-.482-.876zm8.6-41.2v-1h-1v1h1zm3.2 0h1v-1h-1v1zm0 45v1h1v-1h-1zm-3.2 0h-1v1h1v-1zm0-8.4h1l-1.877-.48.877.48zm-6.9 6.9l.492.87.007-.004.007-.004-.506-.862zm-10.5 1.6c-6.149 0-10.764-1.678-13.993-4.907l-1.414 1.414c3.704 3.705 8.889 5.493 15.407 5.493v-2zm-13.986-4.9c-3.166-3.228-4.814-7.846-4.814-14h-2c0 6.513 1.752 11.695 5.386 15.4l1.428-1.4zm-4.814-14V38h-2v26.2h2zm-1-25.2h3.2v-2h-3.2v2zm2.2-1v26.2h2V38h-2zm0 26.2c0 5.64 1.482 10.152 4.577 13.39l1.446-1.38c-2.639-2.762-4.023-6.716-4.023-12.01h-2zm4.593 13.407c3.168 3.168 7.55 4.693 13.007 4.693v-2c-5.077 0-8.895-1.409-11.593-4.107l-1.414 1.414zm13.007 4.693c3.351 0 6.446-.735 9.265-2.215l-.93-1.77c-2.515 1.32-5.287 1.985-8.335 1.985v2zm9.282-2.224c2.822-1.552 5.054-3.712 6.679-6.468l-1.723-1.016c-1.441 2.444-3.409 4.35-5.92 5.732l.964 1.752zm6.679-6.468c1.633-2.77 2.439-5.915 2.439-9.408h-2c0 3.174-.728 5.962-2.162 8.392l1.723 1.016zm2.439-9.408V38h-2v26.2h2zm-1-25.2h3.2v-2h-3.2v2zm2.2-1v45h2V38h-2zm1 44h-3.2v2h3.2v-2zm-2.2 1v-8.4h-2V83h2zm-1.877-8.88c-1.437 2.624-3.601 4.798-6.53 6.518l1.013 1.724c3.204-1.88 5.641-4.306 7.271-7.282l-1.754-.96zm-6.515 6.51c-2.9 1.638-6.227 2.47-10.008 2.47v2c4.085 0 7.758-.902 10.992-2.73l-.984-1.74zm42.419.57l-.498.867.007.004.491-.871zm-8.6-8.5l.86-.51-.86.51zm0-23.8l.856.517.004-.007-.86-.51zm8.7-8.6l-.496-.868-.007.004.503.864zm21.9-1.4l.41-.912-.41.912zm7.8 5.6h1v-.414l-.293-.293-.707.707zm0 5.4l-.829.559 1.829 2.716V49.9h-1zm-7.4-7.4l-.545.838.012.008.012.008.521-.854zm-20.4.3l.504.864.005-.003-.509-.861zm-7.7 7.6l.856.517-.856-.517zm-.1 21.1l-.864.504.005.008.859-.512zm7.5 7.4l-.498.867.011.006.011.006.476-.879zm28.1-7.5h1v-3.358l-1.837 2.811.837.547zm0 5.4l.726.688.274-.29V76.8h-1zm-8 5.7l.386.922.01-.004-.396-.918zm-9.8.8c-4.167 0-7.997-.992-11.509-2.971l-.982 1.742c3.821 2.154 7.991 3.229 12.491 3.229v-2zm-11.502-2.967c-3.449-1.98-6.192-4.69-8.238-8.143l-1.72 1.02c2.22 3.747 5.211 6.704 8.962 8.857l.996-1.734zm-8.238-8.143c-2.034-3.433-3.06-7.32-3.06-11.69h-2c0 4.697 1.107 8.943 3.34 12.71l1.72-1.02zm-3.06-11.69c0-4.021 1.019-7.709 3.056-11.083l-1.712-1.034c-2.229 3.692-3.344 7.738-3.344 12.117h2zm3.06-11.09c2.045-3.451 4.822-6.197 8.343-8.246l-1.006-1.728c-3.812 2.218-6.836 5.205-9.057 8.954l1.72 1.02zm8.336-8.242c3.576-2.043 7.504-3.068 11.804-3.068v-2c-4.634 0-8.906 1.109-12.796 3.332l.992 1.736zm11.804-3.068c3.63 0 6.682.584 9.19 1.712l.82-1.824c-2.826-1.272-6.173-1.888-10.01-1.888v2zm9.19 1.712c2.534 1.14 5.037 2.929 7.503 5.395l1.414-1.414c-2.6-2.6-5.298-4.545-8.097-5.805l-.82 1.824zm7.21 4.688v5.4h2v-5.4h-2zm1.829 4.841c-2.262-3.359-4.827-5.938-7.708-7.695l-1.042 1.708c2.586 1.576 4.954 3.93 7.092 7.105l1.658-1.118zm-7.684-7.68c-2.866-1.862-6.401-2.761-10.545-2.761v2c3.856 0 6.988.835 9.455 2.438l1.09-1.676zM647.816 38.9c-3.852 0-7.494 1.018-10.909 3.04l1.018 1.72c3.118-1.845 6.41-2.76 9.891-2.76v-2zm-10.904 3.036c-3.346 1.952-6.033 4.605-8.052 7.947l1.712 1.034c1.848-3.058 4.294-5.472 7.348-7.253l-1.008-1.728zm-8.052 7.947c-2.026 3.353-3.044 6.964-3.044 10.817h2c0-3.48.915-6.736 2.756-9.783l-1.712-1.034zM625.816 60.7c0 4.162.973 7.939 2.936 11.304l1.728-1.008c-1.771-3.035-2.664-6.459-2.664-10.296h-2zm2.941 11.312c1.954 3.28 4.577 5.869 7.861 7.755l.996-1.734c-2.983-1.714-5.359-4.058-7.139-7.045l-1.718 1.024zm7.883 7.767c3.347 1.814 6.944 2.721 10.776 2.721v-2c-3.502 0-6.771-.826-9.824-2.48l-.952 1.76zm10.776 2.721c7.834 0 14.069-3.563 18.637-10.553l-1.674-1.094c-4.232 6.477-9.864 9.647-16.963 9.647v2zm16.8-11.1v5.4h2v-5.4h-2zm.274 4.712c-2.315 2.444-4.872 4.262-7.67 5.47l.792 1.836c3.069-1.325 5.846-3.308 8.33-5.93l-1.452-1.376zm-7.66 5.466c-2.725 1.14-5.856 1.722-9.414 1.722v2c3.776 0 7.177-.618 10.186-1.878l-.772-1.844zM684.068 8V7h-1v1h1zm3.2 0h1V7h-1v1zm0 39.3h-1l1.906.423-.906-.423zm7.1-7.4l.501.865.006-.003-.507-.862zm24.9 2.2l-.714.7.006.007.708-.707zm5.2 40.9v1h1v-1h-1zm-3.2 0h-1v1h1v-1zm-4.4-38.8l-.723.69.007.01.008.007.708-.707zm-21-2.2l.481.876.009-.004.008-.005-.498-.867zm-6.3 6.2l.861.508.005-.01-.866-.498zm-2.3 34.8v1h1v-1h-1zm-3.2 0h-1v1h1v-1zm0-74h3.2V7h-3.2v2zm2.2-1v39.3h2V8h-2zm1.906 39.723c1.3-2.786 3.509-5.11 6.695-6.958l-1.003-1.73c-3.48 2.019-6.005 4.628-7.505 7.842l1.813.846zm6.701-6.961c3.268-1.922 6.528-2.862 9.793-2.862v-2c-3.669 0-7.275 1.06-10.807 3.138l1.014 1.724zm9.793-2.862c6.15 0 10.726 1.679 13.886 4.9l1.428-1.4c-3.641-3.712-8.798-5.5-15.314-5.5v2zm13.892 4.907c3.229 3.229 4.908 7.844 4.908 13.993h2c0-6.518-1.789-11.703-5.493-15.407l-1.415 1.414zm4.908 13.993V83h2V56.8h-2zm1 25.2h-3.2v2h3.2v-2zm-2.2 1V56.8h-2V83h2zm0-26.2c0-5.644-1.519-10.132-4.693-13.307l-1.415 1.414c2.692 2.692 4.108 6.604 4.108 11.893h2zm-4.677-13.29c-3.104-3.248-7.461-4.81-12.923-4.81v2c5.071 0 8.846 1.438 11.477 4.19l1.446-1.38zm-12.923-4.81c-3.368 0-6.474.809-9.299 2.433l.997 1.734c2.509-1.443 5.269-2.167 8.302-2.167v-2zm-9.282 2.424c-2.829 1.556-5.062 3.754-6.685 6.578l1.733.997c1.444-2.51 3.411-4.445 5.915-5.823l-.963-1.752zm-6.68 6.568c-1.627 2.76-2.438 5.803-2.438 9.108h2c0-2.962.722-5.652 2.161-8.092l-1.723-1.016zm-2.438 9.108V83h2V56.8h-2zm1 25.2h-3.2v2h3.2v-2zm-2.2 1V8h-2v75h2zm60.127-.1l-.707.707.017.017.017.016.673-.74zm0-4.9l-.673-.74-.017.016-.017.017.707.707zm4.9 0l-.707.707.017.017.017.016.673-.74zm0 4.9l-.673-.74-.017.016-.017.017.707.707zm-2.4 0c-.668 0-1.266-.23-1.827-.74l-1.346 1.48c.905.823 1.974 1.26 3.173 1.26v-2zm-1.793-.707c-.467-.467-.707-1.04-.707-1.793h-2c0 1.247.426 2.34 1.293 3.207l1.414-1.414zm-.707-1.793c0-.665.226-1.212.707-1.693l-1.414-1.414c-.852.852-1.293 1.905-1.293 3.107h2zm.673-1.66c.561-.51 1.159-.74 1.827-.74v-2c-1.199 0-2.268.437-3.173 1.26l1.346 1.48zm1.827-.74c.665 0 1.212.226 1.693.707l1.414-1.414c-.852-.852-1.906-1.293-3.107-1.293v2zm1.727.74c.54.49.773 1.028.773 1.66h2c0-1.234-.5-2.297-1.427-3.14l-1.346 1.48zm.773 1.66c0 .721-.25 1.285-.773 1.76l1.346 1.48c.944-.858 1.427-1.961 1.427-3.24h-2zm-.807 1.793c-.481.481-1.028.707-1.693.707v2c1.201 0 2.255-.44 3.107-1.293l-1.414-1.414zm30.774-1.293l-.51.86.007.004.503-.864zm-8.6-8.6l.86-.51-.86.51zm0-23.6l-.86-.51.86.51zm8.6-8.6l-.503-.864-.007.004.51.86zm24 .2l-.512.859.011.006.501-.865zm8.4 8.7l-.894.447 1.894-.447h-1zm0-41V7h-1v1h1zm3.2 0h1V7h-1v1zm0 75v1h1v-1h-1zm-3.2 0h-1v1h1v-1zm0-10.9h1v-3.86l-1.874 3.374.874.486zm-8.7 8.7l-.501-.865-.007.004.508.861zm-1.6-2.3l.512.86.005-.004-.517-.856zm7.6-7.6l-.856-.517-.003.005.859.512zm0-20.6l-.864.504.004.006.004.007.856-.517zm-7.6-7.7l-.525.851.008.005.517-.856zm-20.4 0l.512.86.007-.005.006-.004-.525-.851zm-7.5 7.6l-.864-.504.864.504zm-.1 20.7l-.871.49.006.011.006.01.859-.511zm7.5 7.6l-.525.851.011.007.01.006.504-.864zm10.4 4.6c-4.161 0-7.986-1.022-11.497-3.064l-1.006 1.728c3.823 2.225 7.997 3.336 12.503 3.336v-2zm-11.49-3.06a23.161 23.161 0 0 1-8.25-8.25l-1.72 1.02a25.163 25.163 0 0 0 8.95 8.95l1.02-1.72zm-8.25-8.25c-2.04-3.442-3.06-7.199-3.06-11.29h-2c0 4.442 1.113 8.552 3.34 12.31l1.72-1.02zm-3.06-11.29c0-4.091 1.02-7.848 3.06-11.29l-1.72-1.02c-2.227 3.758-3.34 7.868-3.34 12.31h2zm3.06-11.29a23.161 23.161 0 0 1 8.25-8.25l-1.02-1.72a25.163 25.163 0 0 0-8.95 8.95l1.72 1.02zm8.243-8.246c3.511-2.042 7.336-3.064 11.497-3.064v-2c-4.506 0-8.68 1.111-12.503 3.336l1.006 1.728zm11.497-3.064c4.01 0 7.834 1.08 11.488 3.259l1.024-1.718c-3.946-2.354-8.122-3.541-12.512-3.541v2zm11.499 3.265c3.647 2.112 6.302 4.873 8.007 8.282l1.789-.894c-1.896-3.79-4.841-6.83-8.794-9.118l-1.002 1.73zM813.562 49V8h-2v41h2zm-1-40h3.2V7h-3.2v2zm2.2-1v75h2V8h-2zm1 74h-3.2v2h3.2v-2zm-2.2 1V72.1h-2V83h2zm-1.874-11.386c-1.906 3.432-4.673 6.205-8.327 8.32l1.002 1.731c3.946-2.284 6.98-5.31 9.073-9.08l-1.748-.97zm-8.334 8.325c-3.59 2.115-7.316 3.161-11.192 3.161v2c4.257 0 8.331-1.154 12.208-3.438l-1.016-1.724zM792.062 82.3c3.846 0 7.423-.981 10.712-2.94l-1.024-1.72c-2.977 1.775-6.2 2.66-9.688 2.66v2zm10.717-2.944c3.337-2.016 5.989-4.666 7.942-7.944l-1.718-1.024c-1.78 2.989-4.195 5.405-7.258 7.256l1.034 1.712zm7.939-7.939c2.026-3.353 3.044-6.964 3.044-10.817h-2c0 3.48-.915 6.736-2.756 9.783l1.712 1.034zm3.044-10.817c0-3.853-1.018-7.464-3.044-10.817l-1.712 1.034c1.841 3.047 2.756 6.302 2.756 9.783h2zm-3.036-10.804c-1.952-3.346-4.605-6.033-7.947-8.052l-1.034 1.712c3.058 1.848 5.472 4.294 7.253 7.348l1.728-1.008zm-7.939-8.047c-3.29-2.03-6.872-3.049-10.725-3.049v2c3.481 0 6.699.915 9.675 2.751l1.05-1.702zM792.062 38.7c-3.853 0-7.435 1.019-10.725 3.049l1.05 1.702c2.976-1.836 6.195-2.751 9.675-2.751v-2zm-10.712 3.04c-3.281 1.956-5.901 4.612-7.852 7.956l1.728 1.008c1.783-3.056 4.162-5.466 7.148-7.245l-1.024-1.718zm-7.852 7.956c-1.955 3.351-2.936 6.958-2.936 10.804h2c0-3.488.885-6.747 2.664-9.796l-1.728-1.008zM770.562 60.5c0 3.902.943 7.538 2.829 10.89l1.743-.98c-1.715-3.048-2.572-6.345-2.572-9.91h-2zm2.841 10.912c1.95 3.273 4.565 5.922 7.834 7.939l1.05-1.702c-2.997-1.85-5.382-4.267-7.166-7.26l-1.718 1.023zm7.855 7.952c3.352 1.955 6.958 2.936 10.804 2.936v-2c-3.488 0-6.747-.885-9.796-2.664l-1.008 1.728zm88.926-.664l-.498-.867.498.867zm7.8-7.4h1v-3.332l-1.835 2.781.835.551zm0 5.1l.742.67.258-.285V76.4h-1zm-8.1 6l.379.925.009-.003.008-.004-.396-.918zm-21.7-1.5l-.521.853.006.004.515-.857zm-8.7-8.8l-.864.503.006.012.858-.515zm0-23.7l.856.517.004-.007-.86-.51zm8.7-8.4l-.472-.882-.007.004.479.878zm30.1 5.2l.703.712.675-.668-.631-.709-.747.665zm-31.4 31l-.703-.712-.791.782.861.704.633-.774zm6.4 4l-.387.922.013.006.013.005.361-.933zm-8.3-5.9l-.731.682.703.755.733-.727-.705-.71zm29.3-29.1l.705.71.759-.755-.804-.706-.66.751zm-6.4-4.1l-.387.922.013.006.013.005.361-.933zm-18.3 1.4l.484.875.006-.003-.49-.872zm-7.4 7.2l-.862-.506.862.506zm18.1 32.7c3.649 0 7.12-.95 10.398-2.833l-.996-1.734c-2.989 1.717-6.118 2.567-9.402 2.567v2zm10.398-2.833c3.274-1.88 5.988-4.458 8.137-7.716l-1.67-1.102c-1.984 3.009-4.471 5.365-7.463 7.084l.996 1.734zm6.302-8.267v5.1h2v-5.1h-2zm.258 4.43c-2.385 2.643-4.972 4.55-7.754 5.752l.792 1.836c3.084-1.332 5.898-3.424 8.446-6.248l-1.484-1.34zm-7.737 5.745c-2.793 1.142-5.995 1.725-9.621 1.725v2c3.84 0 7.306-.617 10.379-1.874l-.758-1.851zm-9.621 1.725c-3.946 0-7.669-1.047-11.186-3.157l-1.029 1.714c3.817 2.29 7.894 3.443 12.215 3.443v-2zm-11.179-3.153c-3.46-2.115-6.245-4.931-8.364-8.462l-1.715 1.03c2.282 3.803 5.297 6.853 9.037 9.138l1.042-1.706zm-8.357-8.45c-2.047-3.518-3.064-7.245-3.064-11.197h-2c0 4.315 1.116 8.388 3.336 12.203l1.728-1.006zM837.284 60.4c0-4.3 1.025-8.118 3.056-11.483l-1.712-1.034c-2.235 3.702-3.344 7.884-3.344 12.517h2zm3.06-11.49c2.042-3.446 4.81-6.118 8.319-8.032l-.958-1.756c-3.825 2.086-6.856 5.014-9.081 8.768l1.72 1.02zm8.312-8.028c3.578-1.917 7.547-2.882 11.928-2.882v-2c-4.686 0-8.984 1.035-12.872 3.118l.944 1.764zM860.584 38c6.63 0 12.264 2.598 16.953 7.865l1.494-1.33C873.986 38.87 867.82 36 860.584 36v2zm16.997 6.488l-31.4 31 1.406 1.424 31.4-31-1.406-1.424zm-31.33 32.486c2.255 1.846 4.471 3.236 6.646 4.148l.774-1.844c-1.958-.821-4.009-2.098-6.154-3.852l-1.266 1.548zm6.672 4.159c2.2.851 4.659 1.267 7.361 1.267v-2c-2.498 0-4.706-.384-6.639-1.133l-.722 1.866zM838.484 60.1c0 5.778 1.924 10.758 5.769 14.882l1.462-1.364c-3.488-3.742-5.231-8.23-5.231-13.518h-2zm7.205 14.91l29.3-29.1-1.41-1.42-29.3 29.1 1.41 1.42zm29.255-30.561c-2.261-1.988-4.494-3.428-6.699-4.282l-.722 1.866c1.928.746 3.962 2.039 6.101 3.918l1.32-1.502zm-6.673-4.271c-2.218-.93-4.823-1.378-7.787-1.378v2c2.769 0 5.098.419 7.013 1.222l.774-1.844zm-7.787-1.378c-4.22 0-8.025.935-11.39 2.828l.98 1.744c3.035-1.707 6.496-2.572 10.41-2.572v-2zM849.1 41.625c-3.289 1.82-5.887 4.346-7.778 7.569l1.724 1.012c1.709-2.91 4.044-5.184 7.022-6.831l-.968-1.75zm-7.778 7.569c-1.898 3.233-2.838 6.877-2.838 10.906h2c0-3.705.86-6.994 2.562-9.894l-1.724-1.012zM900.686 82.5l-.417.909.01.004.01.005.397-.918zm-5.3-4.3h-1v.283l.149.241.851-.524zm0-5.3l.915-.404-1.915.404h1zm5.2 6.4l-.537.844.01.005.009.006.518-.855zm16.3-1l.707.707.006-.006.006-.006-.719-.695zm1.3-14.2l-.804.594.007.009.006.008.791-.611zm-5.5-4.6l.518-.855-.008-.006-.009-.004-.501.865zm-3.8-2.2l-.52.854.009.006.01.005.501-.865zm-6.2-3.9l-.6.8.023.017.023.015.554-.832zm-3.2-3.3l-.845.534.006.01.007.01.832-.554zm1.6-10.8l.651.76-.651-.76zm16.5.1h1v-.531l-.44-.298-.56.829zm0 4.4l-.797.603 1.797 2.378V43.8h-1zm-14.1-2.5l-.624-.78.624.78zm-.8 8l-.817.577.009.011.008.012.8-.6zm3.3 3l-.554.832.008.006.009.006.537-.844zm7.2 4.2l.495-.87-.006-.003-.489.873zm7.5 6l-.79.612.004.006.005.007.781-.625zm-1.7 17.9l.679.734h.001l-.68-.734zm-9.8 2.7c-3.089 0-5.783-.515-8.103-1.518l-.794 1.836c2.614 1.13 5.586 1.682 8.897 1.682v-2zm-8.082-1.509c-2.346-1.078-3.932-2.398-4.866-3.915l-1.703 1.048c1.199 1.95 3.146 3.496 5.734 4.685l.835-1.818zm-4.718-3.391v-5.3h-2v5.3h2zm-1.914-4.896c1.33 3.01 3.18 5.314 5.577 6.84l1.074-1.688c-2.002-1.274-3.619-3.237-4.822-5.96l-1.829.808zm5.596 6.851c2.399 1.454 5.393 2.145 8.918 2.145v-2c-3.274 0-5.88-.642-7.881-1.855l-1.037 1.71zm8.918 2.145c3.488 0 6.391-1.076 8.607-3.293l-1.414-1.414c-1.783 1.783-4.147 2.707-7.193 2.707v2zm8.619-3.305c2.201-2.275 3.281-5.167 3.281-8.595h-2c0 2.972-.92 5.346-2.718 7.205l1.437 1.39zm3.281-8.595c0-2.854-.589-5.204-1.908-6.911l-1.583 1.222c.947 1.226 1.491 3.076 1.491 5.689h2zm-1.895-6.894c-1.242-1.68-3.197-3.294-5.787-4.861l-1.035 1.71c2.476 1.5 4.188 2.953 5.213 4.34l1.609-1.19zm-5.804-4.871l-3.8-2.2-1.002 1.73 3.8 2.2 1.002-1.73zm-3.78-2.189c-2.73-1.664-4.783-2.956-6.166-3.878l-1.109 1.664c1.417.945 3.497 2.253 6.234 3.922l1.041-1.708zm-6.121-3.846c-1.256-.942-2.239-1.962-2.968-3.055l-1.664 1.11c.872 1.307 2.022 2.487 3.432 3.545l1.2-1.6zm-2.954-3.034c-.688-1.09-1.046-2.366-1.046-3.866h-2c0 1.834.443 3.49 1.355 4.934l1.691-1.068zm-1.046-3.866c0-2.403.826-4.248 2.451-5.64l-1.301-1.52c-2.109 1.808-3.15 4.23-3.15 7.16h2zm2.451-5.64c1.648-1.413 3.833-2.16 6.649-2.16v-2c-3.184 0-5.865.853-7.95 2.64l1.301 1.52zm6.649-2.16c3.514 0 6.374.797 8.64 2.329l1.12-1.658c-2.667-1.801-5.94-2.671-9.76-2.671v2zm8.2 1.5v4.4h2v-4.4h-2zm1.798 3.797c-2.282-3.018-5.564-4.497-9.698-4.497v2c3.6 0 6.251 1.254 8.103 3.703l1.595-1.206zm-9.698-4.497c-2.302 0-4.273.578-5.824 1.82l1.249 1.56c1.116-.892 2.611-1.38 4.575-1.38v-2zm-5.824 1.82c-1.564 1.25-2.376 2.901-2.376 4.88h2c0-1.354.522-2.437 1.625-3.32l-1.249-1.56zm-2.376 4.88c0 1.66.457 3.165 1.383 4.477l1.634-1.154c-.674-.954-1.017-2.05-1.017-3.323h-2zm1.4 4.5c.884 1.178 2.075 2.252 3.546 3.232l1.109-1.664c-1.329-.886-2.338-1.812-3.055-2.768l-1.6 1.2zm3.563 3.244c1.493.95 3.914 2.36 7.249 4.229l.977-1.745c-3.332-1.866-5.711-3.255-7.152-4.172l-1.074 1.688zm7.243 4.225c3.337 1.898 5.714 3.82 7.204 5.743l1.581-1.224c-1.711-2.21-4.333-4.288-7.796-6.257l-.989 1.738zm7.213 5.756c1.423 1.778 2.181 4.172 2.181 7.275h2c0-3.43-.842-6.303-2.619-8.525l-1.562 1.25zm2.181 7.275c0 3.889-1.274 6.944-3.779 9.267l1.359 1.466c2.961-2.744 4.42-6.355 4.42-10.733h-2zm-3.779 9.266c-2.469 2.284-5.488 3.434-9.121 3.434v2c4.101 0 7.615-1.317 10.479-3.966l-1.358-1.468zM944.452 26.7l-.707.707.017.017.017.016.673-.74zm0-4.9l-.673-.74-.017.016-.017.017.707.707zm4.9 0l-.707.707.017.017.017.016.673-.74zm0 4.9l-.673-.74-.017.016-.017.017.707.707zm-4 11.3v-1h-1v1h1zm3.2 0h1v-1h-1v1zm0 45v1h1v-1h-1zm-3.2 0h-1v1h1v-1zm1.6-56.3c-.668 0-1.266-.23-1.827-.74l-1.346 1.48c.905.823 1.975 1.26 3.173 1.26v-2zm-1.793-.707c-.467-.467-.707-1.04-.707-1.793h-2c0 1.247.426 2.34 1.293 3.207l1.414-1.414zm-.707-1.793c0-.665.226-1.212.707-1.693l-1.414-1.414c-.852.852-1.293 1.905-1.293 3.107h2zm.673-1.66c.561-.51 1.159-.74 1.827-.74v-2c-1.198 0-2.268.437-3.173 1.26l1.346 1.48zm1.827-.74c.665 0 1.212.226 1.693.707l1.414-1.414c-.852-.852-1.905-1.293-3.107-1.293v2zm1.727.74c.54.49.773 1.027.773 1.66h2c0-1.234-.5-2.297-1.427-3.14l-1.346 1.48zm.773 1.66c0 .721-.25 1.285-.773 1.76l1.346 1.48c.944-.858 1.427-1.961 1.427-3.24h-2zm-.807 1.793c-.481.481-1.028.707-1.693.707v2c1.202 0 2.255-.44 3.107-1.293l-1.414-1.414zM945.352 39h3.2v-2h-3.2v2zm2.2-1v45h2V38h-2zm1 44h-3.2v2h3.2v-2zm-2.2 1V38h-2v45h2zm37.71 18.2l-.434.901.434-.901zm-8.4-6.8h-1v.32l.186.261.814-.581zm0-4.6l.879-.476-1.879.476h1zm8.1 8l-.503.864.007.004.496-.868zm26.198-2.5l-.73-.68-.01.006.74.674zm5.2-23.2h1l-1.89-.447.89.447zm-8.5 8.8l.5.865.01-.002-.51-.863zm-23.898.1l-.503.864.503-.864zm-8.7-8.6l-.864.503.004.007.86-.51zm0-23.5l.86.51.004-.007-.864-.503zm8.7-8.7l-.503-.864.503.864zm32.398 9l-.9.434 1.9-.434h-1zm0-11.2v-1h-1v1h1zm3.2 0h1v-1h-1v1zm-6 59.4l-.72-.69-.01.006v.006l.73.678zm-7.3-18.8l.51.86.01-.005.01-.004-.53-.851zm7.4-7.6l-.86-.504v.006l.86.498zm0-20.7l-.87.49.01.011v.01l.86-.511zm-7.4-7.6l-.52.851v.004l.01.004.51-.859zm-20.598 0l.512.86.005-.004-.517-.856zm-7.6 7.6l-.856-.517-.003.005.859.512zm0 20.7l-.864.504.007.01.006.011.851-.525zm7.6 7.6l-.525.851.011.007.01.006.504-.864zm10.7 24.2c-3.642 0-7.194-.829-10.666-2.501l-.868 1.802c3.728 1.795 7.576 2.699 11.534 2.699v-2zm-10.666-2.501c-3.473-1.672-6.133-3.838-8.02-6.48l-1.628 1.162c2.113 2.958 5.053 5.326 8.78 7.12l.868-1.802zm-7.834-5.899v-4.6h-2v4.6h2zm-1.879-4.124c1.834 3.387 4.678 6.178 8.476 8.388l1.006-1.728c-3.535-2.057-6.091-4.599-7.724-7.612l-1.758.952zm8.483 8.392c3.867 2.21 7.837 3.332 11.896 3.332v-2c-3.674 0-7.304-1.011-10.904-3.068l-.992 1.736zM995.162 102c6.608 0 11.838-1.969 15.538-6.026l-1.48-1.348c-3.23 3.543-7.87 5.374-14.058 5.374v2zm15.528-6.02c3.7-3.984 5.47-9.768 5.47-17.18h-2c0 7.121-1.7 12.337-4.93 15.82l1.46 1.36zm5.47-17.18v-6.7h-2v6.7h2zm-1.89-7.147c-1.71 3.407-4.39 6.204-8.11 8.384l1.01 1.726c4.01-2.353 6.99-5.423 8.89-9.216l-1.79-.894zm-8.11 8.382c-3.65 2.116-7.482 3.165-11.498 3.165v2c4.384 0 8.558-1.15 12.498-3.435l-1-1.73zM994.662 83.2c-4.091 0-7.884-1.02-11.397-3.064l-1.006 1.728c3.821 2.223 7.961 3.336 12.403 3.336v-2zm-11.397-3.064c-3.521-2.05-6.297-4.795-8.343-8.246l-1.72 1.02c2.221 3.749 5.245 6.737 9.057 8.954l1.006-1.728zm-8.339-8.239c-2.045-3.516-3.064-7.276-3.064-11.297h-2c0 4.378 1.115 8.485 3.336 12.303l1.728-1.006zM971.862 60.6c0-4.021 1.019-7.745 3.06-11.19l-1.72-1.02c-2.225 3.755-3.34 7.831-3.34 12.21h2zm3.064-11.197c2.047-3.517 4.822-6.292 8.339-8.339l-1.006-1.728c-3.816 2.22-6.841 5.245-9.061 9.061l1.728 1.006zm8.339-8.339C986.778 39.02 990.571 38 994.662 38v-2c-4.442 0-8.582 1.113-12.403 3.336l1.006 1.728zM994.662 38c4.224 0 8.118 1.054 11.688 3.161l1.02-1.723c-3.89-2.292-8.132-3.438-12.708-3.438v2zm11.688 3.161c3.58 2.105 6.2 4.926 7.91 8.473l1.8-.868c-1.89-3.92-4.79-7.032-8.69-9.328l-1.02 1.723zm9.81 8.039V38h-2v11.2h2zm-1-10.2h3.2v-2h-3.2v2zm2.2-1v40.8h2V38h-2zm0 40.8c0 8.05-1.96 13.961-5.72 17.91l1.45 1.38c4.24-4.451 6.27-10.94 6.27-19.29h-2zm-5.73 17.922c-3.69 4.005-9.13 6.078-16.468 6.078v2c7.728 0 13.758-2.193 17.938-6.722l-1.47-1.356zM994.862 82.4c3.846 0 7.418-.982 10.708-2.94l-1.02-1.72c-2.98 1.775-6.2 2.66-9.688 2.66v2zm10.728-2.949c3.27-2.019 5.85-4.672 7.74-7.953l-1.73-.996c-1.72 2.986-4.07 5.4-7.06 7.247l1.05 1.702zm7.74-7.947c1.95-3.354 2.93-6.995 2.93-10.904h-2c0 3.558-.88 6.85-2.66 9.896l1.73 1.008zm2.93-10.904c0-3.909-.98-7.52-2.94-10.812l-1.72 1.024c1.78 2.975 2.66 6.23 2.66 9.788h2zm-2.93-10.79c-1.88-3.352-4.47-6.012-7.76-7.97l-1.02 1.72a19.225 19.225 0 0 1 7.04 7.23l1.74-.98zm-7.74-7.961c-3.29-2.03-6.875-3.049-10.728-3.049v2c3.481 0 6.698.915 9.678 2.751l1.05-1.702zM994.862 38.8c-3.916 0-7.561 1.017-10.917 3.044l1.034 1.712c3.044-1.84 6.332-2.756 9.883-2.756v-2zm-10.912 3.04c-3.278 1.954-5.928 4.606-7.944 7.943l1.712 1.034c1.851-3.063 4.267-5.477 7.256-7.258l-1.024-1.718zm-7.947 7.948c-1.961 3.292-2.941 6.903-2.941 10.812h2c0-3.558.887-6.813 2.659-9.788l-1.718-1.024zM973.062 60.6c0 3.909.98 7.55 2.936 10.904l1.728-1.008c-1.777-3.046-2.664-6.338-2.664-9.896h-2zm2.949 10.925a24.006 24.006 0 0 0 7.926 7.926l1.05-1.702a22.011 22.011 0 0 1-7.274-7.274l-1.702 1.05zm7.947 7.939c3.354 1.956 6.995 2.936 10.904 2.936v-2c-3.558 0-6.85-.887-9.896-2.664l-1.008 1.728zM1040.98 38v-1h-1v1h1zm3.2 0h1v-1h-1v1zm0 10h-1l1.92.403-.92-.403zm7.5-8l.49.87.01-.003.01-.004-.51-.863zm24.8 2.2l-.74.671.01.008v.007l.73-.686zm4.9 40.8v1h1v-1h-1zm-3.2 0h-1v1h1v-1zm-4-38.8l-.75.655v.01l.75-.665zm-20.6-2.1l.47.882.01-.004-.48-.878zm-6.9 6.4l-.84-.535-.01.007v.007l.85.521zm-2.5 34.5v1h1v-1h-1zm-3.2 0h-1v1h1v-1zm0-44h3.2v-2h-3.2v2zm2.2-1v10h2V38h-2zm1.92 10.403c1.37-3.114 3.71-5.626 7.07-7.533l-.98-1.74c-3.7 2.093-6.36 4.914-7.92 8.467l1.83.806zm7.09-7.54c3.37-1.973 7.09-2.963 11.19-2.963v-2c-4.43 0-8.51 1.077-12.2 3.237l1.01 1.726zm11.19-2.963c5.3 0 9.38 1.682 12.36 4.971l1.48-1.342c-3.42-3.777-8.07-5.629-13.84-5.629v2zm12.37 4.986c3.05 3.228 4.63 7.82 4.63 13.914h2c0-6.439-1.68-11.581-5.17-15.286l-1.46 1.372zm4.63 13.914V83h2V56.8h-2zm1 25.2h-3.2v2h3.2v-2zm-2.2 1V56.8h-2V83h2zm0-26.2c0-5.56-1.37-10.026-4.25-13.264l-1.5 1.328c2.46 2.762 3.75 6.695 3.75 11.936h2zm-4.24-13.255c-2.83-3.262-6.8-4.845-11.76-4.845v2c4.51 0 7.87 1.416 10.25 4.155l1.51-1.31zm-11.76-4.845c-3.63 0-6.99.839-10.08 2.522l.96 1.756c2.78-1.517 5.82-2.278 9.12-2.278v-2zm-10.07 2.518c-3.02 1.614-5.45 3.867-7.27 6.746l1.69 1.072a17.212 17.212 0 0 1 6.52-6.054l-.94-1.764zm-7.28 6.761c-1.77 2.904-2.65 6.186-2.65 9.821h2c0-3.299.79-6.216 2.36-8.78l-1.71-1.04zm-2.65 9.821V83h2V57.8h-2zm1 24.2h-3.2v2h3.2v-2zm-2.2 1V38h-2v45h2z"/></g><defs><filter id="filter0_d" x="9.991" y="5.7" width="1087.39" height="119.1" filterUnits="userSpaceOnUse" color-interpolation-filters="sRGB"><feFlood flood-opacity="0" result="BackgroundImageFix"/><feColorMatrix in="SourceAlpha" values="0 0 0 0 0 0 0 0 0 0 0 0 0 0 0 0 0 0 127 0"/><feOffset dx="5" dy="10"/><feGaussianBlur stdDeviation="5"/><feColorMatrix values="0 0 0 0 0 0 0 0 0 0 0 0 0 0 0 0 0 0 1 0"/><feBlend in2="BackgroundImageFix" result="effect1_dropShadow"/><feBlend in="SourceGraphic" in2="effect1_dropShadow" result="shape"/></filter></defs></svg>