<svg width="767" height="111" fill="none" xmlns="http://www.w3.org/2000/svg"><g clip-path="url(#clip0)" fill="red"><g filter="url(#filter0_d)"><path d="M71.673 29.4c4.933 0 9.033 1.5 12.3 4.5 3.2 3 4.8 7.133 4.799 12.4l-.003 46.8h-3.2L85.57 75h-13.8v-2.8h13.8l.002-25.9c0-4.4-1.3-7.867-3.9-10.4-2.666-2.467-6-3.7-10-3.7v-2.8z"/><path d="M71.673 29.4v-1h-1v1h1zm12.3 4.5l.683-.73-.007-.007-.677.737zm4.796 59.2v1h1v-1h-1zm-3.2 0h-1v1h1v-1zM85.57 75h1v-1h-1v1zm-13.8 0h-1v1h1v-1zm0-2.8v-1h-1v1h1zm13.8 0v1h1v-1h-1zm-3.898-36.3l.698-.716-.009-.01-.01-.008-.679.734zm-10-3.7h-1v1h1v-1zm0-1.8c4.714 0 8.563 1.426 11.624 4.236l1.353-1.473c-3.472-3.188-7.823-4.763-12.976-4.763v2zm11.617 4.23c2.958 2.773 4.483 6.62 4.483 11.67h2c0-5.483-1.674-9.903-5.116-13.13l-1.368 1.46zm4.483 11.67l-.003 46.8h2l.003-46.8h-2zm.997 45.8h-3.2v2h3.2v-2zm-2.2 1L86.57 75h-2v18.1h2zM85.57 74h-13.8v2h13.8v-2zm-12.8 1v-2.8h-2V75h2zm-1-1.8h13.8v-2h-13.8v2zm14.8-1l.002-25.9h-2l-.002 25.9h2zm.002-25.9c0-4.608-1.369-8.356-4.202-11.116l-1.395 1.432c2.366 2.306 3.597 5.492 3.597 9.684h2zm-4.22-11.134C79.48 32.51 75.897 31.2 71.672 31.2v2c3.776 0 6.859 1.156 9.321 3.434l1.359-1.468zm-9.68-2.966v-2.8h-2v2.8h2z"/></g><g filter="url(#filter1_d)"><path d="M17.2 86.1c-3.2 0-6.033-.533-8.5-1.6-2.467-1.133-4.233-2.567-5.3-4.3v-5.3c1.267 2.867 3 5 5.2 6.4 2.2 1.333 5 2 8.4 2 3.267 0 5.9-1 7.9-3 2-2.067 3-4.7 3-7.9 0-2.733-.567-4.833-1.7-6.3-1.133-1.533-2.967-3.067-5.5-4.6l-3.8-2.2c-2.733-1.667-4.8-2.967-6.2-3.9-1.333-1-2.4-2.1-3.2-3.3-.8-1.267-1.2-2.733-1.2-4.4 0-2.667.933-4.8 2.8-6.4 1.867-1.6 4.3-2.4 7.3-2.4 3.667 0 6.733.833 9.2 2.5v4.4c-2.067-2.733-5.033-4.1-8.9-4.1-2.133 0-3.867.533-5.2 1.6-1.333 1.067-2 2.433-2 4.1 0 1.467.4 2.767 1.2 3.9.8 1.067 1.9 2.067 3.3 3 1.467.933 3.867 2.333 7.2 4.2 3.4 1.933 5.9 3.933 7.5 6 1.6 2 2.4 4.633 2.4 7.9 0 4.133-1.367 7.467-4.1 10-2.667 2.467-5.933 3.7-9.8 3.7zm129.738-56.4c-.933 0-1.766-.333-2.5-1-.666-.667-1-1.5-1-2.5 0-.933.334-1.733 1-2.4.734-.667 1.567-1 2.5-1 .934 0 1.734.333 2.4 1 .734.667 1.1 1.467 1.1 2.4 0 1-.366 1.833-1.1 2.5-.666.667-1.466 1-2.4 1zm-1.6 10.3h3.2v45h-3.2V40zm75.21 45.9c-3.133 0-6-.7-8.6-2.1-2.6-1.467-4.666-3.5-6.2-6.1-1.533-2.6-2.3-5.5-2.3-8.7V10h3.2v59c0 2.667.6 5.067 1.8 7.2a14.383 14.383 0 0 0 5.1 5.1c2.134 1.2 4.467 1.8 7 1.8v2.8zm73.942.2c-4.067 0-8-1.1-11.8-3.3-3.733-2.2-6.6-5.1-8.6-8.7V85h-3.2V10h3.2v41.4c1.8-3.8 4.6-6.833 8.4-9.1 3.8-2.267 7.8-3.4 12-3.4 4.333 0 8.3 1.067 11.9 3.2 3.667 2.133 6.567 5 8.7 8.6 2.133 3.6 3.2 7.533 3.2 11.8s-1.067 8.2-3.2 11.8c-2.133 3.6-5.033 6.467-8.7 8.6-3.6 2.133-7.567 3.2-11.9 3.2zm.2-2.8c3.667 0 7.067-.933 10.2-2.8 3.133-1.933 5.6-4.467 7.4-7.6 1.867-3.2 2.8-6.667 2.8-10.4 0-3.667-.933-7.1-2.8-10.3-1.867-3.2-4.367-5.733-7.5-7.6-3.133-1.933-6.533-2.9-10.2-2.9-3.667 0-7.1.967-10.3 2.9-3.133 1.933-5.667 4.5-7.6 7.7-1.867 3.2-2.8 6.633-2.8 10.3 0 3.667.933 7.1 2.8 10.3 1.933 3.133 4.5 5.667 7.7 7.6 3.2 1.867 6.633 2.8 10.3 2.8zM367.335 40h3.2v10.4c1.333-3.267 3.267-5.833 5.8-7.7 2.6-1.867 5.533-2.8 8.8-2.8 2.067 0 4.167.433 6.3 1.3v3.7c-1.933-1.467-4.1-2.2-6.5-2.2-2.4 0-4.733.733-7 2.2-2.2 1.467-4 3.433-5.4 5.9a16.37 16.37 0 0 0-2 7.9V85h-3.2V40zm87.831-10.6c-.8 0-1.5-.267-2.1-.8-.533-.6-.8-1.3-.8-2.1 0-.733.267-1.367.8-1.9.6-.6 1.3-.9 2.1-.9.734 0 1.367.3 1.9.9.6.533.9 1.167.9 1.9 0 .8-.3 1.5-.9 2.1-.533.533-1.166.8-1.9.8zm10.6 0c-.8 0-1.5-.267-2.1-.8-.533-.6-.8-1.3-.8-2.1 0-.733.267-1.367.8-1.9.6-.6 1.3-.9 2.1-.9.734 0 1.367.3 1.9.9.6.533.9 1.167.9 1.9 0 .8-.3 1.5-.9 2.1-.533.533-1.166.8-1.9.8zm-6.6 56.7c-6.333 0-11.233-1.733-14.7-5.2-3.4-3.467-5.1-8.367-5.1-14.7V40h3.2v26.2c0 5.467 1.434 9.7 4.3 12.7 2.934 2.933 7.034 4.4 12.3 4.4 3.2 0 6.134-.7 8.8-2.1 2.667-1.467 4.767-3.5 6.3-6.1 1.534-2.6 2.3-5.567 2.3-8.9V40h3.2v45h-3.2v-8.4c-1.533 2.8-3.833 5.1-6.9 6.9-3.066 1.733-6.566 2.6-10.5 2.6zm94.428.2c-4.334 0-8.334-1.033-12-3.1-3.6-2.067-6.467-4.9-8.6-8.5-2.134-3.6-3.2-7.667-3.2-12.2 0-4.2 1.066-8.067 3.2-11.6 2.133-3.6 5.033-6.467 8.7-8.6 3.733-2.133 7.833-3.2 12.3-3.2 3.733 0 6.933.6 9.6 1.8 2.666 1.2 5.266 3.067 7.8 5.6v5.4c-2.2-3.267-4.667-5.733-7.4-7.4-2.667-1.733-6-2.6-10-2.6-3.667 0-7.134.967-10.4 2.9-3.2 1.867-5.767 4.4-7.7 7.6-1.934 3.2-2.9 6.633-2.9 10.3 0 4 .933 7.6 2.8 10.8 1.866 3.133 4.366 5.6 7.5 7.4 3.2 1.733 6.633 2.6 10.3 2.6 7.466 0 13.4-3.367 17.8-10.1v5.4c-2.4 2.533-5.067 4.433-8 5.7-2.867 1.2-6.134 1.8-9.8 1.8zM620.245 10h3.2v39.3c1.4-3 3.767-5.467 7.1-7.4 3.4-2 6.834-3 10.3-3 6.334 0 11.2 1.733 14.6 5.2 3.467 3.467 5.2 8.367 5.2 14.7V85h-3.2V58.8c0-5.467-1.466-9.667-4.4-12.6-2.866-3-6.933-4.5-12.2-4.5-3.2 0-6.133.767-8.8 2.3-2.666 1.467-4.766 3.533-6.3 6.2-1.533 2.6-2.3 5.467-2.3 8.6V85h-3.2V10zm114.928 73.4c3.466 0 6.766-.9 9.9-2.7 3.133-1.8 5.733-4.267 7.8-7.4v5.1c-2.467 2.733-5.167 4.733-8.1 6-2.934 1.2-6.267 1.8-10 1.8-4.134 0-8.034-1.1-11.7-3.3-3.6-2.2-6.5-5.133-8.7-8.8-2.134-3.667-3.2-7.567-3.2-11.7 0-4.467 1.066-8.467 3.2-12 2.133-3.6 5.033-6.4 8.7-8.4 3.733-2 7.866-3 12.4-3 6.933 0 12.833 2.733 17.7 8.2l-31.4 31c2.2 1.8 4.333 3.133 6.4 4 2.066.8 4.4 1.2 7 1.2zm-20.8-21.3c0 5.533 1.833 10.267 5.5 14.2l29.3-29.1c-2.2-1.933-4.334-3.3-6.4-4.1-2.067-.867-4.534-1.3-7.4-1.3-4.067 0-7.7.9-10.9 2.7-3.134 1.733-5.6 4.133-7.4 7.2-1.8 3.067-2.7 6.533-2.7 10.4z"/><path d="M8.7 84.5l-.417.909.01.004.01.005.397-.918zm-5.3-4.3h-1v.283l.148.241.852-.524zm0-5.3l.915-.404L2.4 74.9h1zm5.2 6.4l-.537.844.01.005.009.006.518-.855zm16.3-1l.707.707.006-.006.006-.006-.719-.695zm1.3-14.2l-.804.594.006.009.007.008.791-.611zm-5.5-4.6l.518-.855-.009-.006-.008-.004-.501.865zm-3.8-2.2l-.52.854.01.006.009.005.501-.865zm-6.2-3.9l-.6.8.022.017.023.015.555-.832zm-3.2-3.3l-.845.534.006.01.007.01.832-.554zm1.6-10.8l.65.76-.65-.76zm16.5.1h1v-.531l-.44-.298-.56.829zm0 4.4l-.798.603 1.798 2.378V45.8h-1zm-14.1-2.5l-.625-.78.625.78zm-.8 8l-.817.577.008.011.009.012.8-.6zm3.3 3l-.555.832.01.006.008.006L14 54.3zm7.2 4.2l.494-.87-.005-.003-.489.873zm7.5 6l-.79.612.004.007.005.006.781-.625zM27 82.4l.679.734L27 82.4zm-9.8 2.7c-3.09 0-5.783-.515-8.103-1.518l-.794 1.836c2.614 1.13 5.586 1.682 8.897 1.682v-2zm-8.082-1.509c-2.346-1.078-3.933-2.398-4.866-3.915l-1.704 1.048c1.2 1.95 3.147 3.496 5.735 4.685l.835-1.818zM4.4 80.2v-5.3h-2v5.3h2zm-1.915-4.896c1.33 3.01 3.18 5.314 5.578 6.84l1.074-1.688c-2.002-1.274-3.62-3.237-4.822-5.96l-1.83.808zm5.597 6.851C10.48 83.61 13.475 84.3 17 84.3v-2c-3.274 0-5.88-.642-7.882-1.855l-1.036 1.71zM17 84.3c3.487 0 6.39-1.076 8.607-3.293l-1.414-1.414C22.41 81.376 20.046 82.3 17 82.3v2zm8.619-3.305C27.82 78.72 28.9 75.828 28.9 72.4h-2c0 2.972-.92 5.346-2.719 7.205l1.438 1.39zM28.9 72.4c0-2.854-.59-5.204-1.909-6.911L25.41 66.71c.947 1.226 1.491 3.076 1.491 5.689h2zm-1.896-6.894c-1.242-1.68-3.196-3.294-5.786-4.861l-1.036 1.71c2.477 1.5 4.189 2.953 5.214 4.34l1.608-1.19zm-5.803-4.871l-3.8-2.2-1.002 1.73 3.8 2.2 1.002-1.73zm-3.78-2.189c-2.73-1.664-4.783-2.956-6.166-3.878l-1.11 1.664c1.417.945 3.498 2.253 6.234 3.922l1.042-1.708zM11.3 54.6c-1.257-.942-2.24-1.962-2.968-3.055l-1.664 1.11C7.54 53.962 8.69 55.142 10.1 56.2l1.2-1.6zm-2.955-3.034C7.658 50.476 7.3 49.2 7.3 47.7h-2c0 1.834.442 3.49 1.355 4.934l1.69-1.068zM7.3 47.7c0-2.403.826-4.248 2.45-5.64l-1.3-1.52C6.34 42.349 5.3 44.77 5.3 47.7h2zm2.45-5.64c1.649-1.413 3.834-2.16 6.65-2.16v-2c-3.184 0-5.865.853-7.95 2.64l1.3 1.52zm6.65-2.16c3.514 0 6.374.797 8.64 2.329l1.12-1.658C23.493 38.77 20.22 37.9 16.4 37.9v2zm8.2 1.5v4.4h2v-4.4h-2zm1.798 3.797C24.116 42.179 20.834 40.7 16.7 40.7v2c3.6 0 6.25 1.254 8.102 3.703l1.596-1.206zM16.7 40.7c-2.302 0-4.273.578-5.825 1.82l1.25 1.56c1.115-.892 2.61-1.38 4.575-1.38v-2zm-5.825 1.82C9.312 43.77 8.5 45.42 8.5 47.4h2c0-1.354.522-2.437 1.625-3.32l-1.25-1.56zM8.5 47.4c0 1.66.457 3.165 1.383 4.477l1.634-1.154c-.674-.954-1.017-2.05-1.017-3.323h-2zm1.4 4.5c.883 1.178 2.075 2.252 3.545 3.232l1.11-1.664c-1.33-.886-2.338-1.812-3.055-2.768l-1.6 1.2zm3.563 3.244c1.492.95 3.913 2.36 7.248 4.229l.978-1.745c-3.332-1.866-5.71-3.255-7.152-4.172l-1.074 1.688zm7.243 4.225c3.337 1.898 5.714 3.82 7.203 5.743l1.582-1.224c-1.71-2.21-4.334-4.288-7.797-6.257l-.988 1.738zm7.213 5.756c1.423 1.778 2.181 4.172 2.181 7.275h2c0-3.43-.842-6.303-2.62-8.525l-1.56 1.25zM30.1 72.4c0 3.889-1.274 6.944-3.78 9.267l1.36 1.466c2.96-2.744 4.42-6.355 4.42-10.733h-2zm-3.779 9.266C23.851 83.95 20.833 85.1 17.2 85.1v2c4.1 0 7.615-1.317 10.479-3.966l-1.358-1.468zM144.438 28.7l-.707.707.017.017.018.016.672-.74zm0-4.9l-.672-.74-.018.016-.017.017.707.707zm4.9 0l-.707.707.017.017.018.016.672-.74zm0 4.9l-.672-.74-.018.016-.017.017.707.707zm-4 11.3v-1h-1v1h1zm3.2 0h1v-1h-1v1zm0 45v1h1v-1h-1zm-3.2 0h-1v1h1v-1zm1.6-56.3c-.668 0-1.265-.23-1.827-.74l-1.345 1.48c.905.823 1.974 1.26 3.172 1.26v-2zm-1.793-.707c-.466-.467-.707-1.04-.707-1.793h-2c0 1.247.427 2.34 1.293 3.207l1.414-1.414zm-.707-1.793c0-.665.226-1.212.707-1.693l-1.414-1.414c-.852.852-1.293 1.905-1.293 3.107h2zm.673-1.66c.562-.51 1.159-.74 1.827-.74v-2c-1.198 0-2.267.437-3.172 1.26l1.345 1.48zm1.827-.74c.665 0 1.212.226 1.693.707l1.414-1.414c-.852-.852-1.905-1.293-3.107-1.293v2zm1.728.74c.539.49.772 1.027.772 1.66h2c0-1.234-.5-2.297-1.427-3.14l-1.345 1.48zm.772 1.66c0 .721-.25 1.285-.772 1.76l1.345 1.48c.944-.858 1.427-1.961 1.427-3.24h-2zm-.807 1.793c-.481.481-1.028.707-1.693.707v2c1.202 0 2.255-.44 3.107-1.293l-1.414-1.414zM145.338 41h3.2v-2h-3.2v2zm2.2-1v45h2V40h-2zm1 44h-3.2v2h3.2v-2zm-2.2 1V40h-2v45h2zm74.21.9v1h1v-1h-1zm-8.6-2.1l-.491.871.009.005.008.004.474-.88zm-6.2-6.1l.862-.508-.862.508zm-2.3-67.7V9h-1v1h1zm3.2 0h1V9h-1v1zm1.8 66.2l-.871.49.006.01.006.01.859-.51zm5.1 5.1l-.51.86.01.006.01.006.49-.872zm7 1.8h1v-1h-1v1zm0 1.8c-2.978 0-5.68-.664-8.125-1.98l-.949 1.76c2.755 1.484 5.786 2.22 9.074 2.22v-2zm-8.108-1.971c-2.445-1.38-4.385-3.287-5.83-5.737l-1.723 1.016c1.622 2.75 3.815 4.909 6.57 6.463l.983-1.742zm-5.83-5.737c-1.437-2.437-2.162-5.16-2.162-8.192h-2c0 3.368.809 6.445 2.439 9.208l1.723-1.016zM204.448 69V10h-2v59h2zm-1-58h3.2V9h-3.2v2zm2.2-1v59h2V10h-2zm0 59c0 2.823.637 5.394 1.929 7.69l1.743-.98c-1.108-1.97-1.672-4.2-1.672-6.71h-2zm1.941 7.71a15.377 15.377 0 0 0 5.449 5.45l1.021-1.72a13.38 13.38 0 0 1-4.751-4.75l-1.719 1.02zm5.469 5.462c2.289 1.287 4.792 1.928 7.49 1.928v-2c-2.367 0-4.531-.559-6.509-1.672l-.981 1.744zm6.49.928v2.8h2v-2.8h-2zm63.142-.3l-.508.862.007.003.501-.865zm-8.6-8.7l.874-.486-1.874-3.373V74.1h1zm0 10.9v1h1v-1h-1zm-3.2 0h-1v1h1v-1zm0-75V9h-1v1h1zm3.2 0h1V9h-1v1zm0 41.4h-1l1.904.428-.904-.428zm8.4-9.1l-.512-.859.512.859zm23.9-.2l-.51.86.007.004.503-.864zm8.7 8.6l-.86.51.86-.51zm0 23.6l-.86-.51.86.51zm-8.7 8.6l-.503-.864-.007.004.51.86zm-1.5-2.4l.512.86.006-.005.007-.004-.525-.851zm7.4-7.6l-.864-.504-.003.006.867.498zm0-20.7l.864-.504-.864.504zm-7.5-7.6l-.525.851.006.004.007.004.512-.859zm-20.5 0l-.517-.856-.008.005.525.851zm-7.6 7.7l-.856-.517-.004.006-.004.007.864.504zm0 20.6l-.864.504.006.01.007.011.851-.525zm7.7 7.6l-.517.856.006.004.007.004.504-.864zm10.1 4.6c-3.877 0-7.639-1.046-11.299-3.165l-1.002 1.73c3.94 2.281 8.044 3.435 12.301 3.435v-2zm-11.292-3.161c-3.589-2.115-6.325-4.889-8.234-8.325l-1.748.972c2.091 3.764 5.088 6.79 8.966 9.076l1.016-1.724zM273.09 74.1V85h2V74.1h-2zm1 9.9h-3.2v2h3.2v-2zm-2.2 1V10h-2v75h2zm-1-74h3.2V9h-3.2v2zm2.2-1v41.4h2V10h-2zm1.904 41.828c1.71-3.611 4.369-6.498 8.008-8.67l-1.024-1.717c-3.961 2.363-6.902 5.542-8.792 9.53l1.808.857zm8.008-8.67c3.654-2.179 7.478-3.258 11.488-3.258v-2c-4.39 0-8.566 1.187-12.512 3.541l1.024 1.718zM294.49 39.9c4.16 0 7.95 1.022 11.39 3.06l1.02-1.72c-3.76-2.228-7.904-3.34-12.41-3.34v2zm11.397 3.064c3.521 2.05 6.297 4.795 8.343 8.246l1.72-1.02c-2.221-3.749-5.245-6.736-9.057-8.954l-1.006 1.728zm8.343 8.246c2.04 3.442 3.06 7.199 3.06 11.29h2c0-4.442-1.113-8.552-3.34-12.31l-1.72 1.02zm3.06 11.29c0 4.091-1.02 7.848-3.06 11.29l1.72 1.02c2.227-3.758 3.34-7.868 3.34-12.31h-2zm-3.06 11.29c-2.046 3.451-4.822 6.197-8.343 8.246l1.006 1.728c3.812-2.218 6.836-5.205 9.057-8.954l-1.72-1.02zm-8.35 8.25c-3.44 2.038-7.23 3.06-11.39 3.06v2c4.506 0 8.65-1.112 12.41-3.34l-1.02-1.72zm-11.19 2.26c3.846 0 7.423-.981 10.712-2.94l-1.024-1.72c-2.978 1.775-6.201 2.66-9.688 2.66v2zm10.725-2.949c3.272-2.019 5.857-4.672 7.742-7.953l-1.734-.996c-1.716 2.986-4.064 5.4-7.058 7.247l1.05 1.702zm7.739-7.947c1.956-3.354 2.936-6.995 2.936-10.904h-2c0 3.558-.887 6.85-2.664 9.896l1.728 1.008zM316.09 62.5c0-3.846-.981-7.453-2.936-10.804l-1.728 1.008c1.778 3.049 2.664 6.308 2.664 9.796h2zm-2.936-10.804c-1.951-3.344-4.571-6-7.852-7.955l-1.024 1.718c2.985 1.779 5.365 4.189 7.148 7.245l1.728-1.008zm-7.839-7.947c-3.291-2.03-6.872-3.049-10.725-3.049v2c3.48 0 6.699.915 9.675 2.751l1.05-1.702zM294.59 40.7c-3.853 0-7.464 1.018-10.817 3.044l1.034 1.712c3.047-1.841 6.302-2.756 9.783-2.756v-2zm-10.825 3.049c-3.271 2.018-5.917 4.7-7.931 8.034l1.712 1.034c1.852-3.066 4.273-5.517 7.269-7.366l-1.05-1.702zm-7.939 8.047c-1.955 3.351-2.936 6.958-2.936 10.804h2c0-3.488.885-6.747 2.664-9.796l-1.728-1.008zM272.89 62.6c0 3.846.981 7.453 2.936 10.804l1.728-1.008c-1.779-3.049-2.664-6.308-2.664-9.796h-2zm2.949 10.825c2.018 3.27 4.7 5.917 8.034 7.93l1.034-1.71c-3.066-1.853-5.518-4.274-7.366-7.27l-1.702 1.05zm8.047 7.939c3.351 1.955 6.958 2.936 10.804 2.936v-2c-3.488 0-6.748-.885-9.796-2.664l-1.008 1.728zM367.335 40v-1h-1v1h1zm3.2 0h1v-1h-1v1zm0 10.4h-1l1.926.378-.926-.378zm5.8-7.7l-.583-.812-.01.007.593.805zm15.1-1.5h1v-.673l-.623-.254-.377.927zm0 3.7l-.604.797 1.604 1.217V44.9h-1zm-13.5 0l-.543-.84-.012.008.555.832zm-5.4 5.9l-.87-.494-.005.01-.005.008.88.476zm-2 34.2v1h1v-1h-1zm-3.2 0h-1v1h1v-1zm0-44h3.2v-2h-3.2v2zm2.2-1v10.4h2V40h-2zm1.926 10.778c1.272-3.118 3.099-5.528 5.467-7.273l-1.186-1.61c-2.699 1.988-4.739 4.711-6.133 8.127l1.852.756zm5.457-7.266c2.427-1.742 5.155-2.612 8.217-2.612v-2c-3.471 0-6.609.996-9.383 2.988l1.166 1.624zm8.217-2.612c1.924 0 3.896.403 5.924 1.227l.753-1.854c-2.24-.91-4.467-1.373-6.677-1.373v2zm5.3.3v3.7h2v-3.7h-2zm1.605 2.903c-2.106-1.597-4.484-2.403-7.105-2.403v2c2.179 0 4.134.66 5.896 1.997l1.209-1.594zm-7.105-2.403c-2.616 0-5.135.802-7.543 2.36l1.086 1.68c2.126-1.376 4.273-2.04 6.457-2.04v-2zm-7.555 2.368c-2.339 1.56-4.243 3.646-5.715 6.238l1.74.988c1.328-2.341 3.024-4.188 5.085-5.562l-1.11-1.664zm-5.725 6.257a17.366 17.366 0 0 0-2.12 8.375h2c0-2.634.625-5.104 1.88-7.425l-1.76-.95zm-2.12 8.375V85h2V58.7h-2zm1 25.3h-3.2v2h3.2v-2zm-2.2 1V40h-2v45h2zm84.731-56.4l-.747.664.039.044.044.04.664-.748zm0-4l-.707-.707.707.707zm4 0l-.747.664.039.044.044.04.664-.748zm0 4l.707.707h.001l-.708-.707zm6.6 0l-.747.664.039.044.044.04.664-.748zm0-4l.708.707-.708-.707zm4 0l-.747.664.039.044.044.04.664-.748zm0 4l.708.707-.708-.707zm-23.2 52.3l-.714.7.007.007.707-.707zm-5.1-40.9v-1h-1v1h1zm3.2 0h1v-1h-1v1zm4.3 38.9l-.723.69.008.01.008.007.707-.707zm21.1 2.3l.465.885.009-.004.008-.005-.482-.876zm8.6-41.2v-1h-1v1h1zm3.2 0h1v-1h-1v1zm0 45v1h1v-1h-1zm-3.2 0h-1v1h1v-1zm0-8.4h1l-1.877-.48.877.48zm-6.9 6.9l.492.87.008-.004.007-.004-.507-.862zm-14.5-55.1a2.062 2.062 0 0 1-1.435-.547l-1.329 1.494a4.061 4.061 0 0 0 2.764 1.053v-2zm-1.352-.464a2.065 2.065 0 0 1-.548-1.436h-2c0 1.046.358 1.982 1.053 2.764l1.495-1.328zm-.548-1.436c0-.46.156-.841.508-1.193l-1.415-1.414c-.715.715-1.093 1.6-1.093 2.607h2zm.507-1.193c.426-.425.876-.607 1.393-.607v-2c-1.082 0-2.032.418-2.807 1.193l1.414 1.414zm1.393-.607c.419 0 .789.155 1.153.564l1.495-1.328c-.703-.791-1.6-1.236-2.648-1.236v2zm1.236.647c.409.364.564.734.564 1.153h2c0-1.048-.444-1.945-1.235-2.647l-1.329 1.494zm.564 1.153c0 .517-.182.968-.607 1.393l1.415 1.414c.774-.775 1.192-1.724 1.192-2.807h-2zm-.607 1.393c-.351.352-.733.507-1.193.507v2c1.007 0 1.893-.378 2.607-1.093l-1.414-1.414zm9.407.507a2.062 2.062 0 0 1-1.435-.547l-1.329 1.494a4.061 4.061 0 0 0 2.764 1.053v-2zm-1.352-.464a2.065 2.065 0 0 1-.548-1.436h-2c0 1.046.358 1.982 1.053 2.764l1.495-1.328zm-.548-1.436c0-.46.156-.841.508-1.193l-1.415-1.414c-.715.715-1.093 1.6-1.093 2.607h2zm.508-1.193c.425-.425.875-.607 1.392-.607v-2c-1.082 0-2.032.418-2.807 1.193l1.415 1.414zm1.392-.607c.419 0 .789.155 1.153.564l1.495-1.328c-.703-.791-1.6-1.236-2.648-1.236v2zm1.236.647c.409.364.564.734.564 1.153h2c0-1.048-.444-1.945-1.235-2.647l-1.329 1.494zm.564 1.153c0 .517-.182.968-.607 1.393l1.415 1.414c.774-.775 1.192-1.724 1.192-2.807h-2zm-.607 1.393c-.351.352-.733.507-1.193.507v2c1.007 0 1.893-.378 2.608-1.093l-1.415-1.414zM459.166 85.1c-6.149 0-10.764-1.678-13.992-4.907l-1.415 1.414c3.705 3.705 8.89 5.493 15.407 5.493v-2zm-13.986-4.9c-3.166-3.228-4.814-7.846-4.814-14h-2c0 6.513 1.752 11.695 5.386 15.4l1.428-1.4zm-4.814-14V40h-2v26.2h2zm-1-25.2h3.2v-2h-3.2v2zm2.2-1v26.2h2V40h-2zm0 26.2c0 5.64 1.482 10.152 4.577 13.39l1.446-1.38c-2.638-2.762-4.023-6.716-4.023-12.01h-2zm4.593 13.407c3.168 3.168 7.551 4.693 13.007 4.693v-2c-5.076 0-8.894-1.409-11.592-4.107l-1.415 1.414zm13.007 4.693c3.352 0 6.446-.735 9.265-2.215l-.929-1.77c-2.515 1.32-5.287 1.985-8.336 1.985v2zm9.282-2.224c2.823-1.552 5.055-3.712 6.68-6.468l-1.723-1.016c-1.441 2.444-3.41 4.35-5.921 5.732l.964 1.752zm6.68-6.468c1.633-2.77 2.438-5.915 2.438-9.408h-2c0 3.174-.728 5.962-2.161 8.392l1.723 1.016zm2.438-9.408V40h-2v26.2h2zm-1-25.2h3.2v-2h-3.2v2zm2.2-1v45h2V40h-2zm1 44h-3.2v2h3.2v-2zm-2.2 1v-8.4h-2V85h2zm-1.877-8.88c-1.437 2.624-3.6 4.798-6.529 6.518l1.013 1.724c3.204-1.88 5.641-4.306 7.271-7.282l-1.755-.96zm-6.515 6.51c-2.899 1.638-6.226 2.47-10.008 2.47v2c4.086 0 7.759-.902 10.992-2.73l-.984-1.74zm72.42.57l-.498.867.007.004.491-.871zm-8.6-8.5l.86-.51-.86.51zm0-23.8l.856.517.004-.007-.86-.51zm8.7-8.6l-.496-.868-.007.004.503.864zm21.9-1.4l.41-.912-.41.912zm7.8 5.6h1v-.414l-.293-.293-.707.707zm0 5.4l-.83.559 1.83 2.716V51.9h-1zm-7.4-7.4l-.545.838.012.008.012.008.521-.854zm-20.4.3l.504.864.005-.003-.509-.861zm-7.7 7.6l.856.517-.856-.517zm-.1 21.1l-.864.504.005.008.859-.512zm7.5 7.4l-.498.867.01.006.011.006.477-.879zm28.1-7.5h1v-3.358l-1.837 2.811.837.547zm0 5.4l.726.688.274-.29V78.8h-1zm-8 5.7l.386.922.01-.004-.396-.918zm-9.8.8c-4.167 0-7.997-.992-11.509-2.971l-.982 1.742c3.821 2.154 7.991 3.229 12.491 3.229v-2zm-11.502-2.967c-3.449-1.98-6.192-4.69-8.238-8.143l-1.721 1.02c2.221 3.747 5.212 6.704 8.963 8.857l.996-1.734zm-8.238-8.143c-2.034-3.433-3.06-7.32-3.06-11.69h-2c0 4.697 1.107 8.943 3.339 12.71l1.721-1.02zm-3.06-11.69c0-4.021 1.018-7.709 3.056-11.083l-1.712-1.034c-2.23 3.692-3.344 7.738-3.344 12.117h2zm3.06-11.09c2.045-3.451 4.821-6.197 8.343-8.246l-1.006-1.728c-3.812 2.218-6.836 5.205-9.058 8.954l1.721 1.02zm8.336-8.242c3.576-2.043 7.504-3.068 11.804-3.068v-2c-4.634 0-8.906 1.109-12.796 3.332l.992 1.736zm11.804-3.068c3.629 0 6.682.584 9.189 1.712l.821-1.824c-2.826-1.272-6.173-1.888-10.01-1.888v2zm9.189 1.712c2.535 1.14 5.037 2.929 7.504 5.395l1.414-1.414c-2.601-2.6-5.298-4.545-8.097-5.805l-.821 1.824zm7.211 4.688v5.4h2v-5.4h-2zm1.829 4.841c-2.262-3.359-4.827-5.938-7.709-7.695l-1.041 1.708c2.586 1.576 4.954 3.93 7.091 7.105l1.659-1.118zm-7.684-7.68c-2.866-1.862-6.401-2.761-10.545-2.761v2c3.856 0 6.988.835 9.455 2.438l1.09-1.676zM553.994 40.9c-3.853 0-7.494 1.018-10.91 3.04l1.019 1.72c3.118-1.845 6.41-2.76 9.891-2.76v-2zm-10.904 3.036c-3.346 1.952-6.033 4.605-8.052 7.947l1.712 1.034c1.847-3.058 4.294-5.472 7.348-7.253l-1.008-1.728zm-8.052 7.947c-2.026 3.353-3.044 6.964-3.044 10.817h2c0-3.48.915-6.736 2.756-9.783l-1.712-1.034zM531.994 62.7c0 4.162.973 7.939 2.936 11.304l1.728-1.008c-1.771-3.035-2.664-6.459-2.664-10.296h-2zm2.941 11.312c1.953 3.28 4.577 5.869 7.861 7.755l.996-1.734c-2.983-1.714-5.359-4.058-7.139-7.045l-1.718 1.024zm7.882 7.767c3.348 1.814 6.945 2.721 10.777 2.721v-2c-3.502 0-6.771-.826-9.824-2.48l-.953 1.76zm10.777 2.721c7.834 0 14.069-3.563 18.637-10.553l-1.674-1.094c-4.233 6.477-9.864 9.647-16.963 9.647v2zm16.8-11.1v5.4h2v-5.4h-2zm.274 4.712c-2.316 2.444-4.873 4.262-7.671 5.47l.793 1.836c3.069-1.325 5.845-3.308 8.33-5.93l-1.452-1.376zm-7.66 5.466c-2.725 1.14-5.857 1.722-9.414 1.722v2c3.776 0 7.177-.618 10.186-1.878l-.772-1.844zM620.245 10V9h-1v1h1zm3.2 0h1V9h-1v1zm0 39.3h-1l1.907.423-.907-.423zm7.1-7.4l.502.865.005-.003-.507-.862zm24.9 2.2l-.714.7.007.007.707-.707zm5.2 40.9v1h1v-1h-1zm-3.2 0h-1v1h1v-1zm-4.4-38.8l-.723.69.008.01.008.007.707-.707zm-21-2.2l.482.876.009-.004.008-.005-.499-.867zm-6.3 6.2l.862.508.005-.01-.867-.498zm-2.3 34.8v1h1v-1h-1zm-3.2 0h-1v1h1v-1zm0-74h3.2V9h-3.2v2zm2.2-1v39.3h2V10h-2zm1.907 39.723c1.299-2.786 3.509-5.11 6.695-6.958l-1.003-1.73c-3.481 2.019-6.005 4.628-7.505 7.842l1.813.846zm6.7-6.961c3.268-1.922 6.528-2.862 9.793-2.862v-2c-3.668 0-7.275 1.06-10.807 3.138l1.014 1.724zm9.793-2.862c6.15 0 10.727 1.679 13.886 4.9l1.428-1.4c-3.64-3.712-8.797-5.5-15.314-5.5v2zm13.893 4.907c3.229 3.229 4.907 7.844 4.907 13.993h2c0-6.518-1.788-11.703-5.493-15.407l-1.414 1.414zm4.907 13.993V85h2V58.8h-2zm1 25.2h-3.2v2h3.2v-2zm-2.2 1V58.8h-2V85h2zm0-26.2c0-5.644-1.518-10.132-4.693-13.307l-1.414 1.414c2.692 2.692 4.107 6.604 4.107 11.893h2zm-4.677-13.29c-3.103-3.248-7.461-4.81-12.923-4.81v2c5.072 0 8.847 1.438 11.477 4.19l1.446-1.38zm-12.923-4.81c-3.367 0-6.474.809-9.298 2.433l.997 1.734c2.509-1.443 5.269-2.167 8.301-2.167v-2zm-9.282 2.424c-2.829 1.556-5.061 3.754-6.685 6.578l1.734.997c1.443-2.51 3.411-4.445 5.915-5.823l-.964-1.752zm-6.679 6.568c-1.628 2.76-2.439 5.803-2.439 9.108h2c0-2.962.723-5.652 2.162-8.092l-1.723-1.016zm-2.439 9.108V85h2V58.8h-2zm1 25.2h-3.2v2h3.2v-2zm-2.2 1V10h-2v75h2zm123.828-4.3l-.498-.867.498.867zm7.8-7.4h1v-3.332l-1.835 2.781.835.551zm0 5.1l.742.67.258-.285V78.4h-1zm-8.1 6l.378.925.009-.003.009-.004-.396-.918zm-21.7-1.5l-.522.853.007.004.515-.857zm-8.7-8.8l-.865.503.007.012.858-.515zm0-23.7l.856.517.004-.007-.86-.51zm8.7-8.4l-.473-.882-.006.004.479.878zm30.1 5.2l.702.712.676-.668-.631-.709-.747.665zm-31.4 31l-.703-.712-.791.782.86.704.634-.774zm6.4 4l-.387.922.013.006.013.005.361-.933zm-8.3-5.9l-.732.682.704.755.732-.727-.704-.71zm29.3-29.1l.704.71.76-.755-.804-.706-.66.751zm-6.4-4.1l-.387.922.013.006.013.005.361-.933zm-18.3 1.4l.484.875.006-.003-.49-.872zm-7.4 7.2l-.863-.506.863.506zm18.1 32.7c3.649 0 7.12-.95 10.398-2.833l-.996-1.734c-2.989 1.717-6.118 2.567-9.402 2.567v2zm10.398-2.833c3.274-1.88 5.987-4.458 8.136-7.716l-1.669-1.102c-1.984 3.009-4.471 5.365-7.463 7.084l.996 1.734zm6.302-8.267v5.1h2v-5.1h-2zm.257 4.43c-2.385 2.643-4.971 4.55-7.754 5.752l.793 1.836c3.084-1.332 5.898-3.424 8.446-6.248l-1.485-1.34zm-7.736 5.745c-2.794 1.142-5.995 1.725-9.621 1.725v2c3.84 0 7.305-.617 10.378-1.874l-.757-1.851zm-9.621 1.725c-3.946 0-7.669-1.047-11.186-3.157l-1.029 1.714c3.817 2.29 7.894 3.443 12.215 3.443v-2zm-11.179-3.153c-3.46-2.115-6.246-4.931-8.364-8.462l-1.715 1.03c2.282 3.803 5.297 6.853 9.036 9.138l1.043-1.706zm-8.357-8.45c-2.047-3.518-3.064-7.245-3.064-11.197h-2c0 4.315 1.116 8.388 3.335 12.203l1.729-1.006zM712.173 62.4c0-4.3 1.024-8.118 3.056-11.483l-1.712-1.034c-2.236 3.702-3.344 7.884-3.344 12.517h2zm3.06-11.49c2.042-3.446 4.81-6.118 8.319-8.032l-.958-1.756c-3.825 2.086-6.857 5.014-9.082 8.768l1.721 1.02zm8.312-8.028c3.578-1.917 7.547-2.882 11.928-2.882v-2c-4.687 0-8.984 1.035-12.873 3.118l.945 1.764zM735.473 40c6.63 0 12.264 2.598 16.953 7.865l1.494-1.33C748.875 40.87 742.709 38 735.473 38v2zm16.997 6.488l-31.4 31 1.405 1.424 31.4-31-1.405-1.424zm-31.331 32.486c2.256 1.846 4.471 3.236 6.647 4.148l.773-1.844c-1.957-.821-4.009-2.098-6.153-3.852l-1.267 1.548zm6.673 4.159c2.2.851 4.658 1.267 7.361 1.267v-2c-2.498 0-4.706-.384-6.639-1.133l-.722 1.866zM713.373 62.1c0 5.778 1.924 10.758 5.768 14.882l1.463-1.364c-3.489-3.742-5.231-8.23-5.231-13.518h-2zm7.204 14.91l29.3-29.1-1.409-1.42-29.3 29.1 1.409 1.42zm29.256-30.561c-2.262-1.988-4.494-3.428-6.699-4.282l-.722 1.866c1.928.746 3.962 2.039 6.101 3.918l1.32-1.502zm-6.674-4.271c-2.218-.93-4.822-1.378-7.786-1.378v2c2.769 0 5.098.419 7.013 1.222l.773-1.844zm-7.786-1.378c-4.22 0-8.025.935-11.391 2.828l.981 1.744c3.035-1.707 6.496-2.572 10.41-2.572v-2zm-11.384 2.825c-3.289 1.82-5.887 4.346-7.779 7.569l1.725 1.012c1.709-2.91 4.044-5.184 7.022-6.831l-.968-1.75zm-7.779 7.569c-1.898 3.233-2.837 6.877-2.837 10.906h2c0-3.705.86-6.994 2.562-9.894l-1.725-1.012z"/></g></g><defs><filter id="filter0_d" x="65.672" y="28.4" width="39.099" height="85.7" filterUnits="userSpaceOnUse" color-interpolation-filters="sRGB"><feFlood flood-opacity="0" result="BackgroundImageFix"/><feColorMatrix in="SourceAlpha" values="0 0 0 0 0 0 0 0 0 0 0 0 0 0 0 0 0 0 127 0"/><feOffset dx="5" dy="10"/><feGaussianBlur stdDeviation="5"/><feColorMatrix values="0 0 0 0 0 0 0 0 0 0 0 0 0 0 0 0 0 0 1 0"/><feBlend in2="BackgroundImageFix" result="effect1_dropShadow"/><feBlend in="SourceGraphic" in2="effect1_dropShadow" result="shape"/></filter><filter id="filter1_d" x="-2.6" y="9" width="772.151" height="98.3" filterUnits="userSpaceOnUse" color-interpolation-filters="sRGB"><feFlood flood-opacity="0" result="BackgroundImageFix"/><feColorMatrix in="SourceAlpha" values="0 0 0 0 0 0 0 0 0 0 0 0 0 0 0 0 0 0 127 0"/><feOffset dx="5" dy="10"/><feGaussianBlur stdDeviation="5"/><feColorMatrix values="0 0 0 0 0 0 0 0 0 0 0 0 0 0 0 0 0 0 1 0"/><feBlend in2="BackgroundImageFix" result="effect1_dropShadow"/><feBlend in="SourceGraphic" in2="effect1_dropShadow" result="shape"/></filter><clipPath id="clip0"><path fill="#fff" d="M0 0h767v111H0z"/></clipPath></defs></svg>