<svg width="1278" height="155" fill="none" xmlns="http://www.w3.org/2000/svg"><path d="M0 0h1278v151H0z"/><path d="M89 53h38v74H89z"/><g filter="url(#filter0_d)" fill="red"><path d="M96.895 51.4c4.934 0 9.034 1.5 12.3 4.5 3.2 3 4.8 7.133 4.8 12.4l-.003 46.8h-3.2l.001-18.1h-13.8v-2.8h13.8l.002-25.9c0-4.4-1.3-7.867-3.9-10.4-2.666-2.467-6-3.7-10-3.7v-2.8z"/><path d="M96.895 51.4v-1h-1v1h1zm12.3 4.5l.684-.73-.007-.007-.677.737zm4.797 59.2v1h1v-1h-1zm-3.2 0h-1v1h1v-1zm.001-18.1h1v-1h-1v1zm-13.8 0h-1v1h1v-1zm0-2.8v-1h-1v1h1zm13.8 0v1h1v-1h-1zm-3.898-36.3l.698-.716-.009-.01-.01-.008-.679.734zm-10-3.7h-1v1h1v-1zm0-1.8c4.714 0 8.563 1.425 11.624 4.236l1.353-1.473c-3.473-3.188-7.823-4.763-12.976-4.763v2zm11.616 4.23c2.959 2.773 4.484 6.62 4.484 11.67h2c0-5.483-1.674-9.903-5.116-13.13l-1.368 1.46zm4.484 11.67l-.003 46.8h2l.003-46.8h-2zm.997 45.8h-3.2v2h3.2v-2zm-2.2 1l.001-18.1h-2l-.001 18.1h2zm-.999-19.1h-13.8v2h13.8v-2zm-12.8 1v-2.8h-2V97h2zm-1-1.8h13.8v-2h-13.8v2zm14.8-1l.002-25.9h-2l-.002 25.9h2zm.002-25.9c0-4.608-1.369-8.356-4.202-11.116l-1.396 1.432c2.367 2.306 3.598 5.492 3.598 9.684h2zm-4.221-11.134c-2.87-2.656-6.454-3.966-10.679-3.966v2c3.776 0 6.859 1.156 9.321 3.434l1.358-1.468zM97.895 54.2v-2.8h-2v2.8h2z"/></g><g filter="url(#filter1_d)" fill="red"><path d="M39.257 114.1c-3.2 0-6.034-.533-8.5-1.6-2.467-1.133-4.234-2.567-5.3-4.3v-5.3c1.266 2.867 3 5 5.2 6.4 2.2 1.333 5 2 8.4 2 3.266 0 5.9-1 7.9-3 2-2.067 3-4.7 3-7.9 0-2.733-.567-4.833-1.7-6.3-1.134-1.533-2.967-3.067-5.5-4.6l-3.8-2.2c-2.734-1.667-4.8-2.967-6.2-3.9-1.334-1-2.4-2.1-3.2-3.3-.8-1.267-1.2-2.733-1.2-4.4 0-2.667.933-4.8 2.8-6.4 1.866-1.6 4.3-2.4 7.3-2.4 3.666 0 6.733.833 9.2 2.5v4.4c-2.067-2.733-5.034-4.1-8.9-4.1-2.134 0-3.867.533-5.2 1.6-1.334 1.067-2 2.433-2 4.1 0 1.467.4 2.767 1.2 3.9.8 1.067 1.9 2.067 3.3 3 1.466.933 3.866 2.333 7.2 4.2 3.4 1.933 5.9 3.933 7.5 6 1.6 2 2.4 4.633 2.4 7.9 0 4.133-1.367 7.467-4.1 10-2.667 2.467-5.934 3.7-9.8 3.7zm129.738-56.4c-.933 0-1.767-.333-2.5-1-.667-.667-1-1.5-1-2.5 0-.933.333-1.733 1-2.4.733-.667 1.567-1 2.5-1s1.733.333 2.4 1c.733.667 1.1 1.467 1.1 2.4 0 1-.367 1.833-1.1 2.5-.667.667-1.467 1-2.4 1zm-1.6 10.3h3.2v45h-3.2V68zm75.21 45.9c-3.133 0-6-.7-8.6-2.1-2.6-1.467-4.667-3.5-6.2-6.1-1.533-2.6-2.3-5.5-2.3-8.7V38h3.2v59c0 2.667.6 5.067 1.8 7.2a14.388 14.388 0 0 0 5.1 5.1c2.133 1.2 4.467 1.8 7 1.8v2.8zm73.941.2c-4.066 0-8-1.1-11.8-3.3-3.733-2.2-6.6-5.1-8.6-8.7V113h-3.2V38h3.2v41.4c1.8-3.8 4.6-6.833 8.4-9.1 3.8-2.267 7.8-3.4 12-3.4 4.334 0 8.3 1.067 11.9 3.2 3.667 2.133 6.567 5 8.7 8.6 2.134 3.6 3.2 7.533 3.2 11.8s-1.066 8.2-3.2 11.8c-2.133 3.6-5.033 6.467-8.7 8.6-3.6 2.133-7.566 3.2-11.9 3.2zm.2-2.8c3.667 0 7.067-.933 10.2-2.8 3.134-1.933 5.6-4.467 7.4-7.6 1.867-3.2 2.8-6.667 2.8-10.4 0-3.667-.933-7.1-2.8-10.3-1.866-3.2-4.366-5.733-7.5-7.6-3.133-1.933-6.533-2.9-10.2-2.9-3.666 0-7.1.967-10.3 2.9-3.133 1.933-5.666 4.5-7.6 7.7-1.866 3.2-2.8 6.633-2.8 10.3 0 3.667.934 7.1 2.8 10.3 1.934 3.133 4.5 5.667 7.7 7.6 3.2 1.867 6.634 2.8 10.3 2.8zM389.392 68h3.2v10.4c1.333-3.267 3.266-5.833 5.8-7.7 2.6-1.867 5.533-2.8 8.8-2.8 2.066 0 4.166.433 6.3 1.3v3.7c-1.934-1.467-4.1-2.2-6.5-2.2-2.4 0-4.734.733-7 2.2-2.2 1.467-4 3.433-5.4 5.9-1.334 2.467-2 5.1-2 7.9V113h-3.2V68zm91.831 46.1c-6.333 0-11.233-1.733-14.7-5.2-3.4-3.467-5.1-8.367-5.1-14.7V68h3.2v26.2c0 5.467 1.433 9.7 4.3 12.7 2.933 2.933 7.033 4.4 12.3 4.4 3.2 0 6.133-.7 8.8-2.1 2.667-1.467 4.767-3.5 6.3-6.1 1.533-2.6 2.3-5.567 2.3-8.9V68h3.2v45h-3.2v-8.4c-1.533 2.8-3.833 5.1-6.9 6.9-3.067 1.733-6.567 2.6-10.5 2.6zm94.427.2c-4.333 0-8.333-1.033-12-3.1-3.6-2.067-6.466-4.9-8.6-8.5-2.133-3.6-3.2-7.667-3.2-12.2 0-4.2 1.067-8.067 3.2-11.6 2.134-3.6 5.034-6.467 8.7-8.6 3.734-2.133 7.834-3.2 12.3-3.2 3.734 0 6.934.6 9.6 1.8 2.667 1.2 5.267 3.067 7.8 5.6v5.4c-2.2-3.267-4.666-5.733-7.4-7.4-2.666-1.733-6-2.6-10-2.6-3.666 0-7.133.967-10.4 2.9-3.2 1.867-5.766 4.4-7.7 7.6-1.933 3.2-2.9 6.633-2.9 10.3 0 4 .934 7.6 2.8 10.8 1.867 3.133 4.367 5.6 7.5 7.4 3.2 1.733 6.634 2.6 10.3 2.6 7.467 0 13.4-3.367 17.8-10.1v5.4c-2.4 2.533-5.066 4.433-8 5.7-2.866 1.2-6.133 1.8-9.8 1.8zM642.302 38h3.2v39.3c1.4-3 3.767-5.467 7.1-7.4 3.4-2 6.833-3 10.3-3 6.333 0 11.2 1.733 14.6 5.2 3.467 3.467 5.2 8.367 5.2 14.7V113h-3.2V86.8c0-5.467-1.467-9.667-4.4-12.6-2.867-3-6.933-4.5-12.2-4.5-3.2 0-6.133.767-8.8 2.3-2.667 1.467-4.767 3.533-6.3 6.2-1.533 2.6-2.3 5.467-2.3 8.6V113h-3.2V38zm93.627 75.9c-.933 0-1.766-.333-2.5-1-.666-.667-1-1.5-1-2.5 0-.933.334-1.733 1-2.4.734-.667 1.567-1 2.5-1 .934 0 1.734.333 2.4 1 .734.667 1.1 1.467 1.1 2.4 0 1-.366 1.833-1.1 2.5-.666.667-1.466 1-2.4 1zm74.467.2c-4.333 0-8.333-1.067-12-3.2-3.6-2.133-6.466-5-8.6-8.6-2.133-3.6-3.2-7.533-3.2-11.8s1.067-8.2 3.2-11.8c2.134-3.6 5-6.467 8.6-8.6 3.667-2.133 7.667-3.2 12-3.2 4.2 0 8.2 1.133 12 3.4 3.8 2.2 6.6 5.1 8.4 8.7V38h3.2v75h-3.2v-10.9c-2 3.6-4.9 6.5-8.7 8.7-3.733 2.2-7.633 3.3-11.7 3.3zm-.1-2.8c3.667 0 7.067-.933 10.2-2.8 3.2-1.933 5.734-4.467 7.6-7.6 1.934-3.2 2.9-6.633 2.9-10.3 0-3.667-.966-7.1-2.9-10.3-1.866-3.2-4.4-5.767-7.6-7.7-3.133-1.933-6.533-2.9-10.2-2.9-3.666 0-7.066.967-10.2 2.9-3.133 1.867-5.633 4.4-7.5 7.6-1.866 3.2-2.8 6.633-2.8 10.3 0 3.733.9 7.2 2.7 10.4 1.867 3.133 4.367 5.667 7.5 7.6 3.2 1.867 6.634 2.8 10.3 2.8zm98.222.1c3.467 0 6.767-.9 9.9-2.7 3.134-1.8 5.734-4.267 7.8-7.4v5.1c-2.466 2.733-5.166 4.733-8.1 6-2.933 1.2-6.266 1.8-10 1.8-4.133 0-8.033-1.1-11.7-3.3-3.6-2.2-6.5-5.133-8.7-8.8-2.133-3.667-3.2-7.567-3.2-11.7 0-4.467 1.067-8.467 3.2-12 2.134-3.6 5.034-6.4 8.7-8.4 3.734-2 7.867-3 12.4-3 6.934 0 12.834 2.733 17.7 8.2l-31.4 31c2.2 1.8 4.334 3.133 6.4 4 2.067.8 4.4 1.2 7 1.2zm-20.8-21.3c0 5.533 1.834 10.267 5.5 14.2l29.3-29.1c-2.2-1.933-4.333-3.3-6.4-4.1-2.066-.867-4.533-1.3-7.4-1.3-4.066 0-7.7.9-10.9 2.7-3.133 1.733-5.6 4.133-7.4 7.2-1.8 3.067-2.7 6.533-2.7 10.4zm99.703 24c-3.2 0-6.034-.533-8.5-1.6-2.467-1.133-4.234-2.567-5.3-4.3v-5.3c1.266 2.867 3 5 5.2 6.4 2.2 1.333 5 2 8.4 2 3.266 0 5.9-1 7.9-3 2-2.067 3-4.7 3-7.9 0-2.733-.567-4.833-1.7-6.3-1.134-1.533-2.967-3.067-5.5-4.6l-3.8-2.2c-2.734-1.667-4.8-2.967-6.2-3.9-1.334-1-2.4-2.1-3.2-3.3-.8-1.267-1.2-2.733-1.2-4.4 0-2.667.933-4.8 2.8-6.4 1.866-1.6 4.3-2.4 7.3-2.4 3.666 0 6.733.833 9.2 2.5v4.4c-2.067-2.733-5.034-4.1-8.9-4.1-2.134 0-3.867.533-5.2 1.6-1.334 1.067-2 2.433-2 4.1 0 1.467.4 2.767 1.2 3.9.8 1.067 1.9 2.067 3.3 3 1.466.933 3.866 2.333 7.2 4.2 3.4 1.933 5.9 3.933 7.5 6 1.599 2 2.399 4.633 2.399 7.9 0 4.133-1.366 7.467-4.099 10-2.667 2.467-5.934 3.7-9.8 3.7zm67.769-56.4c-.94 0-1.77-.333-2.5-1-.67-.667-1-1.5-1-2.5 0-.933.33-1.733 1-2.4.73-.667 1.56-1 2.5-1 .93 0 1.73.333 2.4 1 .73.667 1.1 1.467 1.1 2.4 0 1-.37 1.833-1.1 2.5-.67.667-1.47 1-2.4 1zm-1.6 10.3h3.2v45h-3.2V68zm79.81 65.8c-3.8 0-7.5-.867-11.1-2.6-3.6-1.733-6.4-4-8.4-6.8v-4.6c1.73 3.2 4.43 5.867 8.1 8 3.73 2.133 7.53 3.2 11.4 3.2 6.4 0 11.33-1.9 14.8-5.7 3.46-3.733 5.2-9.233 5.2-16.5v-6.7c-1.8 3.6-4.64 6.533-8.5 8.8-3.8 2.2-7.8 3.3-12 3.3-4.27 0-8.24-1.067-11.9-3.2-3.67-2.133-6.57-5-8.7-8.6-2.14-3.667-3.2-7.6-3.2-11.8 0-4.2 1.06-8.1 3.2-11.7 2.13-3.667 5.03-6.567 8.7-8.7 3.66-2.133 7.63-3.2 11.9-3.2 4.4 0 8.46 1.1 12.2 3.3 3.73 2.2 6.5 5.167 8.3 8.9V68h3.2v40.8c0 8.2-2 14.4-6 18.6-3.94 4.267-9.67 6.4-17.2 6.4zm-.3-22.4c3.66 0 7.06-.933 10.2-2.8 3.13-1.933 5.6-4.467 7.4-7.6 1.86-3.2 2.8-6.667 2.8-10.4 0-3.733-.94-7.167-2.8-10.3-1.8-3.2-4.27-5.733-7.4-7.6-3.14-1.933-6.54-2.9-10.2-2.9-3.74 0-7.2.967-10.4 2.9-3.14 1.867-5.67 4.4-7.6 7.6-1.87 3.133-2.8 6.567-2.8 10.3 0 3.733.93 7.2 2.8 10.4a22.916 22.916 0 0 0 7.6 7.6c3.2 1.867 6.66 2.8 10.4 2.8zm76.12-43.4h3.2v10c1.46-3.333 3.96-6 7.5-8 3.53-2.067 7.43-3.1 11.7-3.1 5.53 0 9.9 1.767 13.1 5.3 3.26 3.467 4.9 8.333 4.9 14.6V113h-3.2V86.8c0-5.4-1.34-9.6-4-12.6-2.6-3-6.27-4.5-11-4.5-3.47 0-6.67.8-9.6 2.4-2.87 1.533-5.17 3.667-6.9 6.4-1.67 2.733-2.5 5.833-2.5 9.3V113h-3.2V68z"/><path d="M30.757 112.5l-.418.909.01.004.01.005.398-.918zm-5.3-4.3h-1v.283l.148.241.852-.524zm0-5.3l.914-.404-1.914.404h1zm5.2 6.4l-.537.844.009.006.01.005.518-.855zm16.3-1l.707.707.005-.006.006-.006-.718-.695zm1.3-14.2l-.804.594.006.009.006.008.792-.611zm-5.5-4.6l.517-.856-.008-.005-.008-.004-.501.865zm-3.8-2.2l-.521.854.01.006.01.005.5-.865zm-6.2-3.9l-.6.8.022.017.023.015.555-.832zm-3.2-3.3l-.846.534.007.01.007.01.832-.554zm1.6-10.8l.65.76-.65-.76zm16.5.1h1v-.531l-.44-.298-.56.829zm0 4.4l-.798.603 1.798 2.378V73.8h-1zm-14.1-2.5l-.625-.78.625.78zm-.8 8l-.817.577.008.011.009.012.8-.6zm3.3 3l-.555.832.009.006.009.006.537-.844zm7.2 4.2l.494-.87-.006-.002-.488.872zm7.5 6l-.791.612.005.007.005.006.78-.625zm-1.7 17.9l.679.734v-.001l-.68-.733zm-9.8 2.7c-3.09 0-5.784-.515-8.103-1.518l-.794 1.836c2.613 1.13 5.586 1.682 8.897 1.682v-2zm-8.083-1.509c-2.346-1.078-3.932-2.398-4.866-3.915l-1.703 1.048c1.2 1.949 3.147 3.496 5.734 4.685l.835-1.818zm-4.717-3.391v-5.3h-2v5.3h2zm-1.915-4.896c1.33 3.01 3.18 5.314 5.578 6.84l1.073-1.688c-2.002-1.274-3.619-3.237-4.822-5.96l-1.829.808zm5.596 6.851c2.4 1.454 5.393 2.145 8.919 2.145v-2c-3.275 0-5.881-.642-7.882-1.855l-1.037 1.71zm8.919 2.145c3.487 0 6.39-1.076 8.607-3.293l-1.415-1.414c-1.783 1.783-4.146 2.707-7.192 2.707v2zm8.618-3.305c2.202-2.274 3.282-5.167 3.282-8.595h-2c0 2.972-.92 5.346-2.719 7.205l1.437 1.39zm3.282-8.595c0-2.854-.59-5.204-1.91-6.911l-1.582 1.222c.947 1.226 1.492 3.076 1.492 5.689h2zm-1.896-6.894c-1.242-1.68-3.197-3.294-5.787-4.862l-1.035 1.712c2.477 1.499 4.188 2.952 5.214 4.338l1.608-1.188zm-5.803-4.871l-3.8-2.2-1.002 1.73 3.8 2.2 1.002-1.73zm-3.78-2.189c-2.73-1.665-4.784-2.956-6.167-3.878l-1.11 1.664c1.418.945 3.498 2.253 6.235 3.922l1.041-1.708zM33.356 82.6c-1.257-.942-2.24-1.962-2.968-3.055l-1.664 1.11c.871 1.307 2.021 2.487 3.432 3.545l1.2-1.6zm-2.955-3.034c-.688-1.09-1.045-2.366-1.045-3.866h-2c0 1.834.442 3.49 1.354 4.934l1.691-1.068zM29.357 75.7c0-2.403.826-4.248 2.45-5.64l-1.301-1.52c-2.109 1.808-3.15 4.23-3.15 7.16h2zm2.45-5.64c1.648-1.413 3.834-2.16 6.65-2.16v-2c-3.184 0-5.866.853-7.951 2.64l1.301 1.52zm6.65-2.16c3.513 0 6.373.797 8.64 2.329l1.12-1.658c-2.667-1.802-5.94-2.671-9.76-2.671v2zm8.2 1.5v4.4h2v-4.4h-2zm1.797 3.797c-2.282-3.018-5.563-4.497-9.697-4.497v2c3.599 0 6.25 1.254 8.102 3.703l1.595-1.206zM38.757 68.7c-2.303 0-4.274.578-5.825 1.82l1.25 1.56c1.115-.891 2.61-1.38 4.575-1.38v-2zm-5.825 1.82c-1.564 1.25-2.375 2.901-2.375 4.88h2c0-1.354.521-2.437 1.624-3.32l-1.25-1.56zm-2.375 4.88c0 1.66.457 3.165 1.383 4.477l1.634-1.154c-.674-.954-1.017-2.05-1.017-3.323h-2zm1.4 4.5c.883 1.178 2.074 2.252 3.545 3.232l1.11-1.664c-1.33-.886-2.339-1.812-3.055-2.768l-1.6 1.2zm3.563 3.244c1.492.95 3.913 2.36 7.248 4.228l.977-1.745c-3.331-1.865-5.71-3.253-7.151-4.17l-1.074 1.687zm7.242 4.225c3.337 1.898 5.715 3.82 7.204 5.743l1.581-1.224c-1.71-2.21-4.333-4.288-7.796-6.257l-.989 1.738zm7.214 5.756c1.423 1.778 2.18 4.172 2.18 7.275h2c0-3.43-.841-6.303-2.618-8.525l-1.562 1.25zm2.18 7.275c0 3.889-1.273 6.944-3.78 9.267l1.36 1.466c2.961-2.744 4.42-6.355 4.42-10.733h-2zm-3.778 9.266c-2.47 2.284-5.489 3.434-9.121 3.434v2c4.1 0 7.615-1.317 10.479-3.966l-1.358-1.468zM166.495 56.7l-.707.707.017.017.017.016.673-.74zm0-4.9l-.673-.74-.017.016-.017.017.707.707zm4.9 0l-.707.707.017.017.017.016.673-.74zm0 4.9l-.673-.74-.017.016-.017.017.707.707zm-4 11.3v-1h-1v1h1zm3.2 0h1v-1h-1v1zm0 45v1h1v-1h-1zm-3.2 0h-1v1h1v-1zm1.6-56.3c-.668 0-1.266-.23-1.827-.74l-1.346 1.48c.905.823 1.974 1.26 3.173 1.26v-2zm-1.793-.707c-.467-.467-.707-1.04-.707-1.793h-2c0 1.247.426 2.34 1.293 3.207l1.414-1.414zm-.707-1.793c0-.665.226-1.212.707-1.693l-1.414-1.414c-.852.852-1.293 1.905-1.293 3.107h2zm.673-1.66c.561-.51 1.159-.74 1.827-.74v-2c-1.199 0-2.268.437-3.173 1.26l1.346 1.48zm1.827-.74c.665 0 1.212.226 1.693.707l1.414-1.414c-.852-.852-1.906-1.293-3.107-1.293v2zm1.727.74c.54.49.773 1.028.773 1.66h2c0-1.234-.5-2.297-1.427-3.14l-1.346 1.48zm.773 1.66c0 .721-.25 1.285-.773 1.76l1.346 1.48c.944-.858 1.427-1.961 1.427-3.24h-2zm-.807 1.793c-.481.481-1.028.707-1.693.707v2c1.201 0 2.255-.44 3.107-1.293l-1.414-1.414zM167.395 69h3.2v-2h-3.2v2zm2.2-1v45h2V68h-2zm1 44h-3.2v2h3.2v-2zm-2.2 1V68h-2v45h2zm74.21.9v1h1v-1h-1zm-8.6-2.1l-.491.871.008.005.009.004.474-.88zm-6.2-6.1l.861-.508-.861.508zm-2.3-67.7v-1h-1v1h1zm3.2 0h1v-1h-1v1zm1.8 66.2l-.871.49.005.01.006.011.86-.511zm5.1 5.1l-.51.86.01.006.01.006.49-.872zm7 1.8h1v-1h-1v1zm0 1.8c-2.978 0-5.68-.664-8.126-1.98l-.948 1.76c2.755 1.484 5.786 2.22 9.074 2.22v-2zm-8.109-1.971c-2.445-1.379-4.384-3.287-5.83-5.737l-1.722 1.016c1.621 2.75 3.815 4.909 6.57 6.463l.982-1.742zm-5.83-5.737c-1.437-2.437-2.161-5.16-2.161-8.192h-2c0 3.368.809 6.445 2.439 9.208l1.722-1.016zM226.505 97V38h-2v59h2zm-1-58h3.2v-2h-3.2v2zm2.2-1v59h2V38h-2zm0 59c0 2.823.637 5.394 1.929 7.69l1.743-.98c-1.109-1.971-1.672-4.2-1.672-6.71h-2zm1.94 7.711a15.372 15.372 0 0 0 5.45 5.449l1.021-1.72a13.367 13.367 0 0 1-4.751-4.751l-1.72 1.022zm5.47 5.461c2.288 1.287 4.791 1.928 7.49 1.928v-2c-2.368 0-4.531-.559-6.51-1.672l-.98 1.744zm6.49.928v2.8h2v-2.8h-2zm63.141-.3l-.507.862.006.003.501-.865zm-8.6-8.7l.875-.486-1.875-3.373v3.859h1zm0 10.9v1h1v-1h-1zm-3.2 0h-1v1h1v-1zm0-75v-1h-1v1h1zm3.2 0h1v-1h-1v1zm0 41.4h-1l1.904.428-.904-.428zm8.4-9.1l-.512-.859.512.859zm23.9-.2l-.509.86.007.004.502-.864zm8.7 8.6l-.86.51.86-.51zm0 23.6l-.86-.51.86.51zm-8.7 8.6l-.502-.864-.007.004.509.86zm-1.5-2.4l.512.859.007-.004.007-.004-.526-.851zm7.4-7.6l-.863-.504-.004.006.867.498zm0-20.7l.864-.504-.864.504zm-7.5-7.6l-.525.851.007.004.007.004.511-.859zm-20.5 0l-.517-.856-.008.005.525.851zm-7.6 7.7l-.855-.517-.004.007-.004.006.863.504zm0 20.6l-.863.504.006.011.006.01.851-.525zm7.7 7.6l-.517.856.007.004.007.004.503-.864zm10.1 4.6c-3.876 0-7.638-1.046-11.298-3.165l-1.003 1.73c3.94 2.281 8.045 3.435 12.301 3.435v-2zm-11.292-3.162c-3.588-2.114-6.324-4.888-8.233-8.324l-1.749.972c2.091 3.764 5.088 6.79 8.967 9.076l1.015-1.724zm-10.108-7.838V113h2v-10.9h-2zm1 9.9h-3.2v2h3.2v-2zm-2.2 1V38h-2v75h2zm-1-74h3.2v-2h-3.2v2zm2.2-1v41.4h2V38h-2zm1.904 41.828c1.711-3.611 4.37-6.499 8.009-8.67l-1.025-1.717c-3.961 2.363-6.902 5.542-8.791 9.53l1.807.857zm8.009-8.67c3.653-2.179 7.478-3.258 11.487-3.258v-2c-4.39 0-8.566 1.187-12.512 3.541l1.025 1.718zm11.487-3.258c4.161 0 7.951 1.022 11.391 3.06l1.019-1.72c-3.76-2.228-7.903-3.34-12.41-3.34v2zm11.398 3.064c3.521 2.05 6.297 4.795 8.342 8.246l1.721-1.02c-2.222-3.749-5.246-6.736-9.058-8.954l-1.005 1.728zm8.342 8.246c2.04 3.442 3.06 7.199 3.06 11.29h2c0-4.442-1.113-8.552-3.339-12.31l-1.721 1.02zm3.06 11.29c0 4.091-1.02 7.848-3.06 11.29l1.721 1.02c2.226-3.758 3.339-7.868 3.339-12.31h-2zm-3.06 11.29c-2.045 3.451-4.821 6.197-8.342 8.246l1.005 1.728c3.812-2.218 6.836-5.205 9.058-8.954l-1.721-1.02zm-8.349 8.25c-3.44 2.038-7.23 3.06-11.391 3.06v2c4.507 0 8.65-1.112 12.41-3.34l-1.019-1.72zm-11.191 2.26c3.846 0 7.423-.981 10.712-2.941l-1.023-1.718c-2.978 1.774-6.201 2.659-9.689 2.659v2zm10.726-2.949c3.272-2.019 5.857-4.672 7.742-7.953l-1.735-.996c-1.715 2.986-4.063 5.399-7.058 7.247l1.051 1.702zm7.738-7.947c1.957-3.354 2.936-6.995 2.936-10.904h-2c0 3.558-.887 6.85-2.663 9.896l1.727 1.008zm2.936-10.904c0-3.846-.981-7.453-2.936-10.804l-1.727 1.008c1.778 3.049 2.663 6.308 2.663 9.796h2zm-2.936-10.804c-1.95-3.344-4.57-6-7.852-7.955l-1.023 1.718c2.985 1.779 5.365 4.189 7.148 7.245l1.727-1.008zm-7.838-7.947c-3.291-2.03-6.873-3.049-10.726-3.049v2c3.481 0 6.699.915 9.675 2.751l1.051-1.702zM316.646 68.7c-3.852 0-7.464 1.018-10.817 3.044l1.035 1.712c3.047-1.841 6.302-2.756 9.782-2.756v-2zm-10.825 3.049c-3.27 2.018-5.916 4.7-7.93 8.034l1.711 1.034c1.853-3.066 4.274-5.517 7.27-7.366l-1.051-1.702zm-7.938 8.047c-1.955 3.351-2.937 6.958-2.937 10.804h2c0-3.488.886-6.747 2.664-9.796l-1.727-1.008zM294.946 90.6c0 3.846.982 7.453 2.937 10.804l1.727-1.008c-1.778-3.049-2.664-6.308-2.664-9.796h-2zm2.949 10.825c2.019 3.271 4.701 5.917 8.034 7.931l1.035-1.712c-3.067-1.852-5.518-4.273-7.366-7.269l-1.703 1.05zm8.048 7.939c3.351 1.955 6.958 2.936 10.803 2.936v-2c-3.487 0-6.747-.885-9.796-2.664l-1.007 1.728zM389.392 68v-1h-1v1h1zm3.2 0h1v-1h-1v1zm0 10.4h-1l1.926.378-.926-.378zm5.8-7.7l-.583-.812-.01.007.593.805zm15.1-1.5h1v-.673l-.624-.254-.376.927zm0 3.7l-.605.797 1.605 1.217V72.9h-1zm-13.5 0l-.544-.84-.011.008.555.832zm-5.4 5.9l-.87-.494-.005.01-.005.008.88.476zm-2 34.2v1h1v-1h-1zm-3.2 0h-1v1h1v-1zm0-44h3.2v-2h-3.2v2zm2.2-1v10.4h2V68h-2zm1.926 10.778c1.272-3.118 3.099-5.528 5.467-7.273l-1.186-1.61c-2.699 1.989-4.739 4.711-6.133 8.127l1.852.756zm5.457-7.266c2.426-1.742 5.155-2.612 8.217-2.612v-2c-3.471 0-6.61.996-9.383 2.988l1.166 1.624zm8.217-2.612c1.923 0 3.896.403 5.923 1.226l.753-1.853c-2.239-.91-4.467-1.373-6.676-1.373v2zm5.3.3v3.7h2v-3.7h-2zm1.604 2.903c-2.105-1.597-4.483-2.403-7.104-2.403v2c2.179 0 4.134.66 5.895 1.997l1.209-1.594zm-7.104-2.403c-2.616 0-5.136.802-7.543 2.36l1.086 1.68c2.126-1.376 4.273-2.04 6.457-2.04v-2zm-7.555 2.368c-2.339 1.56-4.244 3.646-5.715 6.238l1.739.988c1.329-2.341 3.025-4.188 5.085-5.562l-1.109-1.664zm-5.725 6.257a17.366 17.366 0 0 0-2.12 8.375h2c0-2.634.625-5.104 1.88-7.425l-1.76-.95zm-2.12 8.375V113h2V86.7h-2zm1 25.3h-3.2v2h3.2v-2zm-2.2 1V68h-2v45h2zm76.131-4.1l-.714.7.007.007.707-.707zm-5.1-40.9v-1h-1v1h1zm3.2 0h1v-1h-1v1zm4.3 38.9l-.723.691.008.008.008.008.707-.707zm21.1 2.3l.465.885.008-.004.009-.005-.482-.876zm8.6-41.2v-1h-1v1h1zm3.2 0h1v-1h-1v1zm0 45v1h1v-1h-1zm-3.2 0h-1v1h1v-1zm0-8.4h1l-1.877-.48.877.48zm-6.9 6.9l.492.871.007-.004.007-.005-.506-.862zm-10.5 1.6c-6.149 0-10.764-1.678-13.993-4.907l-1.414 1.414c3.704 3.705 8.889 5.493 15.407 5.493v-2zm-13.986-4.9c-3.166-3.228-4.814-7.846-4.814-14h-2c0 6.512 1.752 11.695 5.386 15.4l1.428-1.4zm-4.814-14V68h-2v26.2h2zm-1-25.2h3.2v-2h-3.2v2zm2.2-1v26.2h2V68h-2zm0 26.2c0 5.64 1.482 10.152 4.577 13.391l1.446-1.382c-2.638-2.761-4.023-6.716-4.023-12.009h-2zm4.593 13.407c3.168 3.168 7.55 4.693 13.007 4.693v-2c-5.077 0-8.894-1.408-11.593-4.107l-1.414 1.414zm13.007 4.693c3.352 0 6.446-.735 9.265-2.215l-.93-1.77c-2.514 1.32-5.286 1.985-8.335 1.985v2zm9.282-2.224c2.822-1.552 5.054-3.712 6.679-6.468l-1.722-1.016c-1.442 2.444-3.41 4.351-5.921 5.732l.964 1.752zm6.679-6.468c1.634-2.77 2.439-5.915 2.439-9.408h-2c0 3.174-.728 5.962-2.161 8.392l1.722 1.016zm2.439-9.408V68h-2v26.2h2zm-1-25.2h3.2v-2h-3.2v2zm2.2-1v45h2V68h-2zm1 44h-3.2v2h3.2v-2zm-2.2 1v-8.4h-2v8.4h2zm-1.877-8.88c-1.437 2.624-3.6 4.798-6.529 6.518l1.012 1.724c3.205-1.88 5.641-4.306 7.271-7.282l-1.754-.96zm-6.515 6.509c-2.9 1.639-6.227 2.471-10.008 2.471v2c4.085 0 7.758-.902 10.992-2.729l-.984-1.742zm72.419.571l-.497.867.006.004.491-.871zm-8.6-8.5l.861-.51-.861.51zm0-23.8l.856.517.005-.007-.861-.51zm8.7-8.6l-.496-.868-.007.004.503.864zm21.9-1.4l.411-.912-.411.912zm7.8 5.6h1v-.414l-.293-.293-.707.707zm0 5.4l-.829.559 1.829 2.716V79.9h-1zm-7.4-7.4l-.545.838.012.008.013.008.52-.854zm-20.4.3l.504.864.006-.003-.51-.861zm-7.7 7.6l.856.517-.856-.517zm-.1 21.1l-.863.504.004.008.859-.512zm7.5 7.4l-.498.867.011.006.011.006.476-.879zm28.1-7.5h1v-3.358l-1.837 2.811.837.547zm0 5.4l.726.688.274-.29v-.398h-1zm-8 5.7l.387.922.01-.004-.397-.918zm-9.8.8c-4.166 0-7.996-.992-11.509-2.971l-.982 1.742c3.821 2.154 7.991 3.229 12.491 3.229v-2zm-11.502-2.967c-3.449-1.98-6.191-4.69-8.237-8.143l-1.721 1.02c2.221 3.747 5.212 6.704 8.963 8.857l.995-1.734zm-8.237-8.143c-2.035-3.433-3.061-7.32-3.061-11.69h-2c0 4.697 1.108 8.943 3.34 12.71l1.721-1.02zM552.85 90.5c0-4.021 1.019-7.709 3.056-11.083l-1.712-1.034c-2.229 3.692-3.344 7.738-3.344 12.117h2zm3.061-11.09c2.045-3.451 4.821-6.197 8.342-8.246l-1.006-1.728c-3.811 2.217-6.835 5.205-9.057 8.954l1.721 1.02zm8.336-8.242c3.576-2.043 7.504-3.068 11.803-3.068v-2c-4.633 0-8.905 1.109-12.796 3.332l.993 1.736zM576.05 68.1c3.63 0 6.683.584 9.19 1.712l.821-1.824c-2.826-1.272-6.174-1.888-10.011-1.888v2zm9.19 1.712c2.534 1.14 5.037 2.929 7.503 5.395l1.414-1.414c-2.6-2.6-5.297-4.545-8.096-5.805l-.821 1.824zm7.21 4.688v5.4h2v-5.4h-2zm1.83 4.841c-2.263-3.359-4.828-5.938-7.709-7.695l-1.041 1.708c2.585 1.576 4.953 3.93 7.091 7.105l1.659-1.118zm-7.685-7.68c-2.866-1.862-6.401-2.761-10.545-2.761v2c3.857 0 6.988.835 9.455 2.438l1.09-1.676zM576.05 68.9c-3.852 0-7.494 1.018-10.909 3.04l1.019 1.72c3.118-1.845 6.409-2.76 9.89-2.76v-2zm-10.903 3.036c-3.346 1.952-6.034 4.605-8.053 7.947l1.712 1.034c1.848-3.058 4.294-5.472 7.348-7.253l-1.007-1.728zm-8.053 7.947c-2.025 3.353-3.044 6.964-3.044 10.817h2c0-3.48.915-6.736 2.756-9.783l-1.712-1.034zM554.05 90.7c0 4.162.974 7.939 2.937 11.304l1.727-1.008c-1.77-3.035-2.664-6.459-2.664-10.296h-2zm2.941 11.312c1.954 3.279 4.578 5.869 7.861 7.755l.997-1.734c-2.984-1.714-5.36-4.057-7.14-7.045l-1.718 1.024zm7.883 7.767c3.348 1.813 6.945 2.721 10.776 2.721v-2c-3.501 0-6.771-.826-9.823-2.479l-.953 1.758zm10.776 2.721c7.835 0 14.07-3.563 18.638-10.553l-1.675-1.094c-4.232 6.477-9.863 9.647-16.963 9.647v2zm16.8-11.1v5.4h2v-5.4h-2zm.274 4.712c-2.315 2.444-4.872 4.262-7.67 5.47l.793 1.836c3.069-1.325 5.845-3.308 8.329-5.93l-1.452-1.376zm-7.66 5.466c-2.724 1.14-5.856 1.722-9.414 1.722v2c3.776 0 7.178-.618 10.187-1.878l-.773-1.844zM642.302 38v-1h-1v1h1zm3.2 0h1v-1h-1v1zm0 39.3h-1l1.906.423-.906-.423zm7.1-7.4l.502.865.005-.003-.507-.862zm24.9 2.2l-.714.7.007.007.707-.707zm5.2 40.9v1h1v-1h-1zm-3.2 0h-1v1h1v-1zm-4.4-38.8l-.723.69.008.01.008.007.707-.707zm-21-2.2l.482.876.008-.004.008-.005-.498-.867zm-6.3 6.2l.861.508.006-.01-.867-.498zm-2.3 34.8v1h1v-1h-1zm-3.2 0h-1v1h1v-1zm0-74h3.2v-2h-3.2v2zm2.2-1v39.3h2V38h-2zm1.906 39.723c1.3-2.786 3.509-5.11 6.696-6.958l-1.004-1.73c-3.48 2.019-6.004 4.628-7.504 7.842l1.812.846zm6.701-6.961c3.268-1.922 6.528-2.862 9.793-2.862v-2c-3.668 0-7.275 1.06-10.807 3.138l1.014 1.724zm9.793-2.862c6.15 0 10.726 1.679 13.886 4.9l1.428-1.4c-3.641-3.712-8.797-5.5-15.314-5.5v2zm13.893 4.907c3.229 3.229 4.907 7.844 4.907 13.993h2c0-6.518-1.788-11.703-5.493-15.407l-1.414 1.414zm4.907 13.993V113h2V86.8h-2zm1 25.2h-3.2v2h3.2v-2zm-2.2 1V86.8h-2V113h2zm0-26.2c0-5.644-1.518-10.132-4.693-13.307l-1.414 1.414c2.692 2.692 4.107 6.604 4.107 11.893h2zm-4.677-13.29c-3.103-3.248-7.461-4.81-12.923-4.81v2c5.071 0 8.847 1.438 11.477 4.19l1.446-1.38zm-12.923-4.81c-3.368 0-6.474.809-9.299 2.433l.997 1.734c2.509-1.443 5.27-2.167 8.302-2.167v-2zm-9.282 2.424c-2.829 1.556-5.061 3.754-6.685 6.578l1.734.996c1.443-2.51 3.411-4.444 5.915-5.822l-.964-1.752zm-6.679 6.568c-1.628 2.76-2.439 5.803-2.439 9.108h2c0-2.962.722-5.652 2.161-8.092l-1.722-1.016zm-2.439 9.108V113h2V86.8h-2zm1 25.2h-3.2v2h3.2v-2zm-2.2 1V38h-2v75h2zm90.127-.1l-.707.707.017.017.018.016.672-.74zm0-4.9l-.672-.74-.018.016-.017.017.707.707zm4.9 0l-.707.707.017.017.018.016.672-.74zm0 4.9l-.672-.74-.018.016-.017.017.707.707zm-2.4 0c-.668 0-1.265-.229-1.827-.74l-1.345 1.48c.905.823 1.974 1.26 3.172 1.26v-2zm-1.793-.707c-.466-.467-.707-1.04-.707-1.793h-2c0 1.247.427 2.341 1.293 3.207l1.414-1.414zm-.707-1.793c0-.665.226-1.212.707-1.693l-1.414-1.414c-.852.852-1.293 1.905-1.293 3.107h2zm.673-1.66c.562-.511 1.159-.74 1.827-.74v-2c-1.198 0-2.267.437-3.172 1.26l1.345 1.48zm1.827-.74c.665 0 1.212.226 1.693.707l1.414-1.414c-.852-.852-1.905-1.293-3.107-1.293v2zm1.728.74c.539.49.772 1.027.772 1.66h2c0-1.234-.5-2.297-1.427-3.14l-1.345 1.48zm.772 1.66c0 .721-.25 1.285-.772 1.76l1.345 1.48c.944-.858 1.427-1.961 1.427-3.24h-2zm-.807 1.793c-.481.481-1.028.707-1.693.707v2c1.202 0 2.255-.441 3.107-1.293l-1.414-1.414zm60.774-1.293l-.509.86.007.004.502-.864zm-8.6-8.6l.861-.51-.861.51zm0-23.6l-.86-.51.86.51zm8.6-8.6l-.502-.864-.007.004.509.86zm24 .2l-.512.859.011.006.501-.865zm8.4 8.7l-.894.447 1.894-.447h-1zm0-41v-1h-1v1h1zm3.2 0h1v-1h-1v1zm0 75v1h1v-1h-1zm-3.2 0h-1v1h1v-1zm0-10.9h1v-3.86l-1.874 3.374.874.486zm-8.7 8.7l-.501-.865-.006.003.507.862zm-1.6-2.3l.512.859.006-.003-.518-.856zm7.6-7.6l-.855-.517-.004.005.859.512zm0-20.6l-.863.504.004.007.004.006.855-.517zm-7.6-7.7l-.525.851.008.005.517-.856zm-20.4 0l.512.86.007-.005.007-.004-.526-.851zm-7.5 7.6l-.863-.504.863.504zm-.1 20.7l-.871.49.006.011.006.011.859-.512zm7.5 7.6l-.525.851.011.007.011.006.503-.864zm10.4 4.6c-4.16 0-7.986-1.022-11.497-3.064l-1.005 1.728c3.822 2.225 7.996 3.336 12.502 3.336v-2zm-11.49-3.06a23.166 23.166 0 0 1-8.249-8.25l-1.721 1.02a25.16 25.16 0 0 0 8.951 8.95l1.019-1.72zm-8.249-8.25c-2.04-3.442-3.061-7.199-3.061-11.29h-2c0 4.442 1.114 8.552 3.34 12.31l1.721-1.02zm-3.061-11.29c0-4.091 1.021-7.848 3.061-11.29l-1.721-1.02c-2.226 3.758-3.34 7.868-3.34 12.31h2zm3.061-11.29a23.166 23.166 0 0 1 8.249-8.25l-1.019-1.72a25.158 25.158 0 0 0-8.951 8.95l1.721 1.02zm8.242-8.246c3.511-2.042 7.337-3.064 11.497-3.064v-2c-4.506 0-8.68 1.111-12.502 3.336l1.005 1.728zm11.497-3.064c4.01 0 7.834 1.08 11.488 3.259l1.025-1.718c-3.946-2.354-8.122-3.541-12.513-3.541v2zm11.499 3.265c3.647 2.112 6.302 4.873 8.007 8.282l1.789-.894c-1.895-3.79-4.84-6.83-8.793-9.118l-1.003 1.73zM831.796 79V38h-2v41h2zm-1-40h3.2v-2h-3.2v2zm2.2-1v75h2V38h-2zm1 74h-3.2v2h3.2v-2zm-2.2 1v-10.9h-2V113h2zm-1.874-11.386c-1.906 3.432-4.672 6.205-8.327 8.321l1.003 1.73c3.945-2.284 6.979-5.311 9.073-9.079l-1.749-.972zm-8.333 8.324c-3.59 2.116-7.316 3.162-11.193 3.162v2c4.257 0 8.331-1.154 12.208-3.438l-1.015-1.724zm-11.293 2.362c3.846 0 7.423-.981 10.712-2.941l-1.023-1.718c-2.978 1.774-6.201 2.659-9.689 2.659v2zm10.718-2.944c3.336-2.016 5.989-4.666 7.942-7.944l-1.719-1.024c-1.78 2.989-4.194 5.405-7.258 7.256l1.035 1.712zm7.938-7.939c2.026-3.353 3.044-6.964 3.044-10.817h-2c0 3.48-.914 6.736-2.755 9.783l1.711 1.034zm3.044-10.817c0-3.853-1.018-7.464-3.044-10.817l-1.711 1.034c1.841 3.047 2.755 6.302 2.755 9.783h2zm-3.036-10.804c-1.951-3.346-4.605-6.033-7.946-8.052l-1.035 1.712c3.059 1.848 5.472 4.294 7.254 7.348l1.727-1.008zm-7.938-8.047c-3.291-2.03-6.873-3.049-10.726-3.049v2c3.481 0 6.699.915 9.675 2.751l1.051-1.702zM810.296 68.7c-3.852 0-7.434 1.019-10.725 3.049l1.051 1.702c2.976-1.836 6.194-2.751 9.674-2.751v-2zm-10.711 3.04c-3.282 1.956-5.902 4.612-7.852 7.956l1.727 1.008c1.783-3.056 4.163-5.466 7.148-7.245l-1.023-1.718zm-7.852 7.956c-1.955 3.351-2.937 6.958-2.937 10.804h2c0-3.488.886-6.747 2.664-9.796l-1.727-1.008zM788.796 90.5c0 3.902.943 7.538 2.829 10.89l1.743-.98c-1.714-3.048-2.572-6.345-2.572-9.91h-2zm2.841 10.912c1.95 3.273 4.565 5.922 7.834 7.939l1.051-1.702c-2.998-1.85-5.383-4.267-7.166-7.261l-1.719 1.024zm7.856 7.952c3.351 1.955 6.958 2.936 10.803 2.936v-2c-3.487 0-6.747-.885-9.796-2.664l-1.007 1.728zm118.925-.664l-.498-.867.498.867zm7.8-7.4h1v-3.332l-1.834 2.781.834.551zm0 5.1l.743.67.257-.285v-.385h-1zm-8.1 6l.379.926.009-.004.009-.004-.397-.918zm-21.7-1.5l-.521.853.007.004.514-.857zm-8.7-8.8l-.864.503.007.011.857-.514zm0-23.7l.856.517.005-.007-.861-.51zm8.7-8.4l-.472-.882-.006.004.478.878zm30.1 5.2l.703.712.676-.668-.632-.709-.747.665zm-31.4 31l-.702-.712-.792.782.861.704.633-.774zm6.4 4l-.386.922.012.006.013.005.361-.933zm-8.3-5.9l-.731.682.704.755.732-.727-.705-.71zm29.3-29.1l.705.71.759-.755-.804-.706-.66.751zm-6.4-4.1l-.386.922.012.006.013.005.361-.933zm-18.3 1.4l.484.875.007-.003-.491-.872zm-7.4 7.2l-.862-.506.862.506zm18.1 32.7c3.649 0 7.12-.95 10.398-2.833l-.996-1.734c-2.988 1.717-6.117 2.567-9.402 2.567v2zm10.398-2.833c3.275-1.881 5.988-4.458 8.137-7.716l-1.669-1.102c-1.985 3.009-4.471 5.365-7.464 7.084l.996 1.734zm6.302-8.267v5.1h2v-5.1h-2zm.258 4.43c-2.385 2.643-4.971 4.55-7.754 5.752l.793 1.836c3.084-1.332 5.898-3.424 8.446-6.248l-1.485-1.34zm-7.736 5.744c-2.794 1.143-5.995 1.726-9.622 1.726v2c3.841 0 7.306-.617 10.379-1.874l-.757-1.852zm-9.622 1.726c-3.945 0-7.668-1.047-11.185-3.157l-1.029 1.714c3.816 2.29 7.893 3.443 12.214 3.443v-2zm-11.178-3.153c-3.461-2.115-6.246-4.931-8.364-8.461l-1.715 1.028c2.282 3.804 5.296 6.854 9.036 9.139l1.043-1.706zm-8.357-8.45c-2.047-3.518-3.065-7.245-3.065-11.197h-2c0 4.315 1.116 8.388 3.336 12.203l1.729-1.006zM885.518 90.4c0-4.3 1.025-8.119 3.056-11.483l-1.712-1.034c-2.235 3.702-3.344 7.884-3.344 12.517h2zm3.061-11.49c2.041-3.446 4.81-6.118 8.318-8.032l-.957-1.756c-3.825 2.086-6.857 5.014-9.082 8.768l1.721 1.02zm8.312-8.028c3.578-1.917 7.547-2.882 11.927-2.882v-2c-4.686 0-8.983 1.035-12.872 3.118l.945 1.764zM908.818 68c6.631 0 12.265 2.598 16.953 7.865l1.494-1.33C922.221 68.87 916.055 66 908.818 66v2zm16.998 6.488l-31.4 31 1.405 1.424 31.4-31-1.405-1.424zm-31.331 32.486c2.256 1.845 4.471 3.236 6.647 4.148l.773-1.844c-1.958-.821-4.009-2.097-6.153-3.852l-1.267 1.548zm6.672 4.159c2.2.851 4.659 1.267 7.361 1.267v-2c-2.497 0-4.705-.384-6.639-1.133l-.722 1.866zM886.718 90.1c0 5.778 1.924 10.758 5.769 14.882l1.463-1.364c-3.489-3.742-5.232-8.23-5.232-13.518h-2zm7.205 14.91l29.3-29.1-1.409-1.42-29.3 29.1 1.409 1.42zm29.255-30.561c-2.261-1.988-4.493-3.428-6.699-4.282l-.722 1.866c1.929.746 3.963 2.039 6.101 3.918l1.32-1.502zm-6.673-4.271c-2.218-.93-4.823-1.378-7.787-1.378v2c2.77 0 5.098.419 7.014 1.222l.773-1.844zm-7.787-1.378c-4.219 0-8.025.935-11.39 2.828l.981 1.744c3.034-1.707 6.496-2.572 10.409-2.572v-2zm-11.384 2.825c-3.289 1.82-5.887 4.346-7.778 7.569l1.725 1.012c1.708-2.91 4.044-5.184 7.021-6.831l-.968-1.75zm-7.778 7.569c-1.898 3.233-2.838 6.877-2.838 10.906h2c0-3.705.861-6.994 2.563-9.894l-1.725-1.012zm89.365 33.306l-.418.909.01.004.011.005.397-.918zm-5.3-4.3h-1v.283l.148.241.852-.524zm0-5.3l.914-.404-1.914.404h1zm5.2 6.4l-.537.844.009.006.009.005.519-.855zm16.3-1l.707.707.006-.006.005-.006-.718-.695zm1.3-14.2l-.804.594.006.009.006.008.792-.611zm-5.5-4.6l.518-.856-.009-.005-.008-.004-.501.865zm-3.8-2.2l-.521.854.01.006.01.005.501-.865zm-6.2-3.9l-.6.8.022.017.023.015.555-.832zm-3.2-3.3l-.846.534.007.01.007.01.832-.554zm1.6-10.8l.65.76-.65-.76zm16.5.1h1v-.531l-.44-.298-.56.829zm0 4.4l-.798.603 1.798 2.378V73.8h-1zm-14.1-2.5l-.625-.78.625.78zm-.8 8l-.817.577.008.011.009.012.8-.6zm3.3 3l-.555.832.009.006.009.006.537-.844zm7.2 4.2l.494-.87-.006-.002-.488.872zm7.5 6l-.791.612.005.007.005.006.781-.625zm-1.7 17.9l.679.734v-.001l-.679-.733zm-9.8 2.7c-3.089 0-5.784-.515-8.103-1.518l-.794 1.836c2.613 1.13 5.586 1.682 8.897 1.682v-2zm-8.083-1.509c-2.346-1.078-3.932-2.398-4.866-3.915l-1.703 1.048c1.2 1.949 3.147 3.496 5.734 4.685l.835-1.818zm-4.717-3.391v-5.3h-2v5.3h2zm-1.915-4.896c1.33 3.01 3.18 5.314 5.578 6.84l1.074-1.688c-2.003-1.274-3.619-3.237-4.823-5.96l-1.829.808zm5.596 6.851c2.399 1.454 5.393 2.145 8.919 2.145v-2c-3.275 0-5.881-.642-7.882-1.855l-1.037 1.71zm8.919 2.145c3.487 0 6.39-1.076 8.607-3.293l-1.414-1.414c-1.784 1.783-4.147 2.707-7.193 2.707v2zm8.618-3.305c2.202-2.274 3.282-5.167 3.282-8.595h-2c0 2.972-.92 5.346-2.719 7.205l1.437 1.39zm3.282-8.595c0-2.854-.589-5.204-1.909-6.911l-1.583 1.222c.948 1.226 1.492 3.076 1.492 5.689h2zm-1.896-6.894c-1.242-1.68-3.197-3.294-5.786-4.862l-1.036 1.712c2.477 1.499 4.189 2.952 5.214 4.338l1.608-1.188zm-5.803-4.871l-3.8-2.2-1.002 1.73 3.8 2.2 1.002-1.73zm-3.781-2.189c-2.73-1.665-4.783-2.956-6.166-3.878l-1.109 1.664c1.417.945 3.498 2.253 6.234 3.922l1.041-1.708zm-6.12-3.846c-1.257-.942-2.24-1.962-2.968-3.055l-1.664 1.11c.871 1.307 2.022 2.487 3.432 3.545l1.2-1.6zm-2.955-3.034c-.688-1.09-1.045-2.366-1.045-3.866h-2c0 1.834.442 3.49 1.354 4.934l1.691-1.068zm-1.045-3.866c0-2.403.826-4.248 2.45-5.64l-1.301-1.52c-2.109 1.808-3.149 4.23-3.149 7.16h2zm2.45-5.64c1.648-1.413 3.834-2.16 6.65-2.16v-2c-3.184 0-5.866.853-7.951 2.64l1.301 1.52zm6.65-2.16c3.513 0 6.373.797 8.64 2.329l1.12-1.658c-2.667-1.802-5.941-2.671-9.76-2.671v2zm8.2 1.5v4.4h2v-4.4h-2zm1.797 3.797c-2.281-3.018-5.563-4.497-9.697-4.497v2c3.599 0 6.251 1.254 8.102 3.703l1.595-1.206zm-9.697-4.497c-2.303 0-4.274.578-5.825 1.82l1.249 1.56c1.116-.891 2.611-1.38 4.576-1.38v-2zm-5.825 1.82c-1.564 1.25-2.375 2.901-2.375 4.88h2c0-1.354.522-2.437 1.624-3.32l-1.249-1.56zm-2.375 4.88c0 1.66.457 3.165 1.383 4.477l1.634-1.154c-.674-.954-1.017-2.05-1.017-3.323h-2zm1.4 4.5c.883 1.178 2.074 2.252 3.545 3.232l1.109-1.664c-1.329-.886-2.337-1.812-3.054-2.768l-1.6 1.2zm3.563 3.244c1.492.95 3.913 2.36 7.248 4.228l.977-1.745c-3.331-1.865-5.71-3.253-7.151-4.17l-1.074 1.687zm7.242 4.225c3.337 1.898 5.715 3.82 7.204 5.743l1.581-1.224c-1.71-2.21-4.333-4.288-7.796-6.257l-.989 1.738zm7.214 5.756c1.423 1.778 2.18 4.172 2.18 7.275h2c0-3.43-.84-6.303-2.618-8.525l-1.562 1.25zm2.18 7.275c0 3.889-1.273 6.944-3.779 9.267l1.359 1.466c2.96-2.744 4.42-6.355 4.42-10.733h-2zm-3.778 9.266c-2.47 2.284-5.489 3.434-9.121 3.434v2c4.1 0 7.615-1.317 10.479-3.966l-1.358-1.468zM1052.69 56.7l-.71.707.02.017.01.016.68-.74zm0-4.9l-.68-.74-.01.016-.02.017.71.707zm4.9 0l-.71.707.02.017.01.016.68-.74zm0 4.9l-.68-.74-.01.016-.02.017.71.707zm-4 11.3v-1h-1v1h1zm3.2 0h1v-1h-1v1zm0 45v1h1v-1h-1zm-3.2 0h-1v1h1v-1zm1.6-56.3c-.67 0-1.27-.23-1.83-.74l-1.35 1.48c.91.823 1.98 1.26 3.18 1.26v-2zm-1.8-.707c-.46-.467-.7-1.04-.7-1.793h-2c0 1.247.42 2.34 1.29 3.207l1.41-1.414zm-.7-1.793c0-.665.22-1.212.7-1.693l-1.41-1.414c-.85.852-1.29 1.905-1.29 3.107h2zm.67-1.66c.56-.51 1.16-.74 1.83-.74v-2c-1.2 0-2.27.437-3.18 1.26l1.35 1.48zm1.83-.74c.66 0 1.21.226 1.69.707l1.41-1.414c-.85-.852-1.9-1.293-3.1-1.293v2zm1.72.74c.54.49.78 1.028.78 1.66h2c0-1.234-.5-2.297-1.43-3.14l-1.35 1.48zm.78 1.66c0 .721-.25 1.285-.78 1.76l1.35 1.48c.94-.858 1.43-1.961 1.43-3.24h-2zm-.81 1.793c-.48.481-1.03.707-1.69.707v2c1.2 0 2.25-.44 3.1-1.293l-1.41-1.414zM1053.59 69h3.2v-2h-3.2v2zm2.2-1v45h2V68h-2zm1 44h-3.2v2h3.2v-2zm-2.2 1V68h-2v45h2zm67.71 18.2l-.44.901.44-.901zm-8.4-6.8h-1v.32l.18.261.82-.581zm0-4.6l.88-.476-1.88.476h1zm8.1 8l-.51.864.01.004.5-.868zm26.2-2.5l-.74-.68v.006l.74.674zm5.2-23.2h1l-1.9-.447.9.447zm-8.5 8.8l.5.865v-.002l-.5-.863zm-23.9.1l-.51.864.51-.864zm-8.7-8.6l-.87.503.01.007.86-.51zm0-23.5l.86.51v-.007l-.86-.503zm8.7-8.7l-.51-.864.51.864zm32.4 9l-.9.434 1.9-.434h-1zm0-11.2v-1h-1v1h1zm3.2 0h1v-1h-1v1zm-6 59.4l-.73-.69v.006l-.01.006.74.678zm-7.3-18.8l.51.859v-.004l.01-.004-.52-.851zm7.4-7.6l-.87-.504v.006l.87.498zm0-20.7l-.88.49.01.011.01.01.86-.511zm-7.4-7.6l-.53.851.01.004v.004l.52-.859zm-20.6 0l.51.86v-.004l-.51-.856zm-7.6 7.6l-.86-.517v.005l.86.512zm0 20.7l-.87.504.01.011.01.01.85-.525zm7.6 7.6l-.53.851.01.007.01.006.51-.864zm10.7 24.2c-3.65 0-7.2-.829-10.67-2.501l-.87 1.802c3.73 1.795 7.58 2.699 11.54 2.699v-2zm-10.67-2.501c-3.47-1.672-6.13-3.838-8.02-6.48l-1.63 1.162c2.12 2.958 5.06 5.326 8.78 7.12l.87-1.802zm-7.83-5.899v-4.6h-2v4.6h2zm-1.88-4.124c1.83 3.387 4.67 6.178 8.47 8.388l1.01-1.728c-3.54-2.057-6.09-4.599-7.72-7.612l-1.76.952zm8.48 8.392c3.87 2.21 7.84 3.332 11.9 3.332v-2c-3.68 0-7.31-1.011-10.91-3.068l-.99 1.736zm11.9 3.332c6.6 0 11.83-1.969 15.54-6.026l-1.48-1.348c-3.23 3.543-7.87 5.374-14.06 5.374v2zm15.53-6.02c3.7-3.984 5.47-9.768 5.47-17.18h-2c0 7.122-1.7 12.337-4.94 15.82l1.47 1.36zm5.47-17.18v-6.7h-2v6.7h2zm-1.9-7.147c-1.7 3.407-4.39 6.204-8.11 8.384l1.01 1.726c4.02-2.353 6.99-5.423 8.89-9.216l-1.79-.894zm-8.1 8.382c-3.66 2.116-7.49 3.165-11.5 3.165v2c4.38 0 8.55-1.151 12.5-3.435l-1-1.73zm-11.5 3.165c-4.09 0-7.89-1.02-11.4-3.064l-1.01 1.728c3.82 2.223 7.96 3.336 12.41 3.336v-2zm-11.4-3.064c-3.52-2.049-6.3-4.795-8.34-8.246l-1.72 1.02c2.22 3.749 5.24 6.736 9.05 8.954l1.01-1.728zm-8.34-8.239c-2.04-3.516-3.06-7.276-3.06-11.297h-2c0 4.379 1.11 8.485 3.33 12.303l1.73-1.006zM1110.1 90.6c0-4.021 1.02-7.745 3.06-11.19l-1.72-1.02c-2.23 3.755-3.34 7.831-3.34 12.21h2zm3.06-11.197c2.05-3.517 4.82-6.293 8.34-8.339l-1.01-1.728c-3.81 2.22-6.84 5.245-9.06 9.061l1.73 1.006zm8.34-8.339c3.51-2.044 7.31-3.064 11.4-3.064v-2c-4.45 0-8.59 1.113-12.41 3.336l1.01 1.728zM1132.9 68c4.22 0 8.11 1.054 11.69 3.162l1.01-1.724c-3.89-2.292-8.13-3.438-12.7-3.438v2zm11.69 3.162c3.57 2.104 6.2 4.925 7.91 8.472l1.8-.868c-1.89-3.92-4.8-7.032-8.7-9.328l-1.01 1.724zm9.81 8.038V68h-2v11.2h2zm-1-10.2h3.2v-2h-3.2v2zm2.2-1v40.8h2V68h-2zm0 40.8c0 8.05-1.97 13.961-5.73 17.91l1.45 1.38c4.24-4.451 6.28-10.94 6.28-19.29h-2zm-5.74 17.922c-3.69 4.005-9.12 6.078-16.46 6.078v2c7.72 0 13.76-2.193 17.93-6.722l-1.47-1.356zM1133.1 112.4c3.84 0 7.42-.981 10.71-2.941l-1.03-1.718c-2.97 1.774-6.2 2.659-9.68 2.659v2zm10.72-2.949c3.27-2.019 5.86-4.672 7.74-7.953l-1.73-.996c-1.72 2.986-4.06 5.399-7.06 7.247l1.05 1.702zm7.74-7.947c1.96-3.354 2.94-6.995 2.94-10.904h-2c0 3.558-.89 6.85-2.67 9.896l1.73 1.008zm2.94-10.904c0-3.909-.98-7.52-2.94-10.812l-1.72 1.024c1.77 2.975 2.66 6.23 2.66 9.788h2zm-2.93-10.79c-1.89-3.352-4.48-6.012-7.76-7.97l-1.03 1.72c2.99 1.776 5.33 4.181 7.04 7.23l1.75-.98zm-7.75-7.961c-3.29-2.03-6.87-3.049-10.72-3.049v2c3.48 0 6.7.915 9.67 2.751l1.05-1.702zM1133.1 68.8c-3.92 0-7.56 1.017-10.92 3.044l1.03 1.712c3.05-1.84 6.34-2.756 9.89-2.756v-2zm-10.92 3.04c-3.27 1.954-5.92 4.606-7.94 7.943l1.71 1.034c1.85-3.063 4.27-5.477 7.26-7.258l-1.03-1.718zm-7.94 7.948c-1.96 3.292-2.94 6.903-2.94 10.812h2c0-3.558.88-6.813 2.66-9.788l-1.72-1.024zM1111.3 90.6c0 3.909.98 7.55 2.93 10.904l1.73-1.008c-1.78-3.046-2.66-6.338-2.66-9.896h-2zm2.95 10.925a23.996 23.996 0 0 0 7.92 7.926l1.05-1.702c-3-1.852-5.42-4.273-7.27-7.274l-1.7 1.05zm7.94 7.939c3.36 1.956 7 2.936 10.91 2.936v-2c-3.56 0-6.85-.887-9.9-2.664l-1.01 1.728zM1209.22 68v-1h-1v1h1zm3.2 0h1v-1h-1v1zm0 10h-1l1.91.403-.91-.403zm7.5-8l.49.87v-.003l.01-.004-.5-.863zm24.8 2.2l-.75.671.01.008.01.007.73-.686zm4.9 40.8v1h1v-1h-1zm-3.2 0h-1v1h1v-1zm-4-38.8l-.76.655.01.01.75-.665zm-20.6-2.1l.47.882v-.004l-.47-.878zm-6.9 6.4l-.85-.535v.007l-.01.007.86.521zm-2.5 34.5v1h1v-1h-1zm-3.2 0h-1v1h1v-1zm0-44h3.2v-2h-3.2v2zm2.2-1v10h2V68h-2zm1.91 10.403c1.37-3.114 3.71-5.626 7.08-7.533l-.99-1.74c-3.69 2.093-6.36 4.914-7.92 8.467l1.83.806zm7.09-7.54c3.37-1.973 7.1-2.963 11.2-2.963v-2c-4.44 0-8.52 1.077-12.21 3.237l1.01 1.726zm11.2-2.963c5.3 0 9.38 1.682 12.35 4.971l1.49-1.342c-3.42-3.777-8.08-5.629-13.84-5.629v2zm12.37 4.986c3.04 3.228 4.63 7.82 4.63 13.914h2c0-6.439-1.69-11.581-5.18-15.286l-1.45 1.372zm4.63 13.914V113h2V86.8h-2zm1 25.2h-3.2v2h3.2v-2zm-2.2 1V86.8h-2V113h2zm0-26.2c0-5.56-1.38-10.026-4.26-13.264l-1.49 1.328c2.45 2.762 3.75 6.695 3.75 11.936h2zm-4.25-13.255c-2.82-3.261-6.79-4.845-11.75-4.845v2c4.5 0 7.87 1.416 10.24 4.155l1.51-1.31zm-11.75-4.845c-3.63 0-7 .839-10.08 2.522l.95 1.756c2.79-1.517 5.82-2.278 9.13-2.278v-2zm-10.08 2.518a19.275 19.275 0 0 0-7.27 6.746l1.69 1.072c1.64-2.588 3.81-4.602 6.53-6.054l-.95-1.764zm-7.28 6.761c-1.77 2.903-2.64 6.186-2.64 9.821h2c0-3.299.79-6.216 2.35-8.78l-1.71-1.04zm-2.64 9.821V113h2V87.8h-2zm1 24.2h-3.2v2h3.2v-2zm-2.2 1V68h-2v45h2z"/></g><defs><filter id="filter0_d" x="90.895" y="50.4" width="39.099" height="85.7" filterUnits="userSpaceOnUse" color-interpolation-filters="sRGB"><feFlood flood-opacity="0" result="BackgroundImageFix"/><feColorMatrix in="SourceAlpha" values="0 0 0 0 0 0 0 0 0 0 0 0 0 0 0 0 0 0 255 0"/><feOffset dx="5" dy="10"/><feGaussianBlur stdDeviation="5"/><feColorMatrix values="0 0 0 0 0 0 0 0 0 0 0 0 0 0 0 0 0 0 1 0"/><feBlend in2="BackgroundImageFix" result="effect1_dropShadow"/><feBlend in="SourceGraphic" in2="effect1_dropShadow" result="shape"/></filter><filter id="filter1_d" x="19.457" y="37" width="1246.16" height="117.8" filterUnits="userSpaceOnUse" color-interpolation-filters="sRGB"><feFlood flood-opacity="0" result="BackgroundImageFix"/><feColorMatrix in="SourceAlpha" values="0 0 0 0 0 0 0 0 0 0 0 0 0 0 0 0 0 0 255 0"/><feOffset dx="5" dy="10"/><feGaussianBlur stdDeviation="5"/><feColorMatrix values="0 0 0 0 0 0 0 0 0 0 0 0 0 0 0 0 0 0 1 0"/><feBlend in2="BackgroundImageFix" result="effect1_dropShadow"/><feBlend in="SourceGraphic" in2="effect1_dropShadow" result="shape"/></filter></defs></svg>