<svg width="718" height="117" fill="none" xmlns="http://www.w3.org/2000/svg"><path d="M0 0h718v111H0z"/><path d="M89 33h38v74H89z"/><g filter="url(#filter0_d)" fill="red"><path d="M96.895 31.4c4.934 0 9.034 1.5 12.3 4.5 3.2 3 4.8 7.133 4.8 12.4l-.003 46.8h-3.2l.001-18.1h-13.8v-2.8h13.8l.002-25.9c0-4.4-1.3-7.867-3.9-10.4-2.666-2.467-6-3.7-10-3.7v-2.8z"/><path d="M96.895 31.4v-1h-1v1h1zm12.3 4.5l.684-.73-.007-.007-.677.737zm4.797 59.2v1h1v-1h-1zm-3.2 0h-1v1h1v-1zm.001-18.1h1v-1h-1v1zm-13.8 0h-1v1h1v-1zm0-2.8v-1h-1v1h1zm13.8 0v1h1v-1h-1zm-3.898-36.3l.698-.716-.009-.01-.01-.008-.679.734zm-10-3.7h-1v1h1v-1zm0-1.8c4.714 0 8.563 1.425 11.624 4.236l1.353-1.473c-3.473-3.188-7.823-4.763-12.976-4.763v2zm11.616 4.23c2.959 2.773 4.484 6.62 4.484 11.67h2c0-5.483-1.674-9.903-5.116-13.13l-1.368 1.46zm4.484 11.67l-.003 46.8h2l.003-46.8h-2zm.997 45.8h-3.2v2h3.2v-2zm-2.2 1l.001-18.1h-2l-.001 18.1h2zm-.999-19.1h-13.8v2h13.8v-2zm-12.8 1v-2.8h-2V77h2zm-1-1.8h13.8v-2h-13.8v2zm14.8-1l.002-25.9h-2l-.002 25.9h2zm.002-25.9c0-4.608-1.369-8.356-4.202-11.116l-1.396 1.432c2.367 2.306 3.598 5.492 3.598 9.684h2zm-4.221-11.134c-2.87-2.656-6.454-3.966-10.679-3.966v2c3.776 0 6.859 1.156 9.321 3.434l1.358-1.468zM97.895 34.2v-2.8h-2v2.8h2z"/></g><g filter="url(#filter1_d)" fill="red"><path d="M42.714 94.1c-3.2 0-6.034-.533-8.5-1.6-2.467-1.133-4.234-2.567-5.3-4.3v-5.3c1.266 2.867 3 5 5.2 6.4 2.2 1.333 5 2 8.4 2 3.266 0 5.9-1 7.9-3 2-2.067 3-4.7 3-7.9 0-2.733-.567-4.833-1.7-6.3-1.134-1.533-2.967-3.067-5.5-4.6l-3.8-2.2c-2.734-1.667-4.8-2.967-6.2-3.9-1.334-1-2.4-2.1-3.2-3.3-.8-1.267-1.2-2.733-1.2-4.4 0-2.667.933-4.8 2.8-6.4 1.866-1.6 4.3-2.4 7.3-2.4 3.666 0 6.733.833 9.2 2.5v4.4c-2.067-2.733-5.034-4.1-8.9-4.1-2.134 0-3.867.533-5.2 1.6-1.334 1.067-2 2.433-2 4.1 0 1.467.4 2.767 1.2 3.9.8 1.067 1.9 2.067 3.3 3 1.466.933 3.866 2.333 7.2 4.2 3.4 1.933 5.9 3.933 7.5 6 1.6 2 2.4 4.633 2.4 7.9 0 4.133-1.367 7.467-4.1 10-2.667 2.467-5.934 3.7-9.8 3.7zm129.738-56.4c-.933 0-1.767-.333-2.5-1-.667-.667-1-1.5-1-2.5 0-.933.333-1.733 1-2.4.733-.667 1.567-1 2.5-1s1.733.333 2.4 1c.733.667 1.1 1.467 1.1 2.4 0 1-.367 1.833-1.1 2.5-.667.667-1.467 1-2.4 1zm-1.6 10.3h3.2v45h-3.2V48zm75.21 45.9c-3.133 0-6-.7-8.6-2.1-2.6-1.467-4.667-3.5-6.2-6.1-1.533-2.6-2.3-5.5-2.3-8.7V18h3.2v59c0 2.667.6 5.067 1.8 7.2a14.383 14.383 0 0 0 5.1 5.1c2.133 1.2 4.467 1.8 7 1.8v2.8zm73.942.2c-4.067 0-8-1.1-11.8-3.3-3.734-2.2-6.6-5.1-8.6-8.7V93h-3.2V18h3.2v41.4c1.8-3.8 4.6-6.833 8.4-9.1 3.8-2.267 7.8-3.4 12-3.4 4.333 0 8.3 1.067 11.9 3.2 3.666 2.133 6.566 5 8.7 8.6 2.133 3.6 3.2 7.533 3.2 11.8s-1.067 8.2-3.2 11.8c-2.134 3.6-5.034 6.467-8.7 8.6-3.6 2.133-7.567 3.2-11.9 3.2zm.2-2.8c3.666 0 7.066-.933 10.2-2.8 3.133-1.933 5.6-4.467 7.4-7.6 1.866-3.2 2.8-6.667 2.8-10.4 0-3.667-.934-7.1-2.8-10.3-1.867-3.2-4.367-5.733-7.5-7.6-3.134-1.933-6.534-2.9-10.2-2.9-3.667 0-7.1.967-10.3 2.9-3.134 1.933-5.667 4.5-7.6 7.7-1.867 3.2-2.8 6.633-2.8 10.3 0 3.667.933 7.1 2.8 10.3 1.933 3.133 4.5 5.667 7.7 7.6 3.2 1.867 6.633 2.8 10.3 2.8zM392.849 48h3.2v10.4c1.333-3.267 3.266-5.833 5.8-7.7 2.6-1.867 5.533-2.8 8.8-2.8 2.066 0 4.166.433 6.3 1.3v3.7c-1.934-1.467-4.1-2.2-6.5-2.2-2.4 0-4.734.733-7 2.2-2.2 1.467-4 3.433-5.4 5.9-1.334 2.467-2 5.1-2 7.9V93h-3.2V48zm91.831 46.1c-6.333 0-11.233-1.733-14.7-5.2-3.4-3.467-5.1-8.367-5.1-14.7V48h3.2v26.2c0 5.467 1.433 9.7 4.3 12.7 2.933 2.933 7.033 4.4 12.3 4.4 3.2 0 6.133-.7 8.8-2.1 2.667-1.467 4.767-3.5 6.3-6.1 1.533-2.6 2.3-5.567 2.3-8.9V48h3.2v45h-3.2v-8.4c-1.533 2.8-3.833 5.1-6.9 6.9-3.067 1.733-6.567 2.6-10.5 2.6zm94.427.2c-4.333 0-8.333-1.033-12-3.1-3.6-2.067-6.466-4.9-8.6-8.5-2.133-3.6-3.2-7.667-3.2-12.2 0-4.2 1.067-8.067 3.2-11.6 2.134-3.6 5.034-6.467 8.7-8.6 3.734-2.133 7.834-3.2 12.3-3.2 3.734 0 6.934.6 9.6 1.8 2.667 1.2 5.267 3.067 7.8 5.6v5.4c-2.2-3.267-4.666-5.733-7.4-7.4-2.666-1.733-6-2.6-10-2.6-3.666 0-7.133.967-10.4 2.9-3.2 1.867-5.766 4.4-7.7 7.6-1.933 3.2-2.9 6.633-2.9 10.3 0 4 .934 7.6 2.8 10.8 1.867 3.133 4.367 5.6 7.5 7.4 3.2 1.733 6.634 2.6 10.3 2.6 7.467 0 13.4-3.367 17.8-10.1v5.4c-2.4 2.533-5.066 4.433-8 5.7-2.866 1.2-6.133 1.8-9.8 1.8zM645.759 18h3.2v39.3c1.4-3 3.767-5.467 7.1-7.4 3.4-2 6.833-3 10.3-3 6.333 0 11.2 1.733 14.6 5.2 3.467 3.467 5.2 8.367 5.2 14.7V93h-3.2V66.8c0-5.467-1.467-9.667-4.4-12.6-2.867-3-6.933-4.5-12.2-4.5-3.2 0-6.133.767-8.8 2.3-2.667 1.467-4.767 3.533-6.3 6.2-1.533 2.6-2.3 5.467-2.3 8.6V93h-3.2V18z"/><path d="M34.214 92.5l-.418.909.01.004.01.005.398-.918zm-5.3-4.3h-1v.283l.148.241.852-.524zm0-5.3l.914-.404-1.914.404h1zm5.2 6.4l-.537.844.009.005.01.006.518-.855zm16.3-1l.707.707.006-.006.005-.006-.718-.695zm1.3-14.2l-.804.594.006.009.006.008.792-.611zm-5.5-4.6l.517-.856-.008-.005-.008-.004-.501.865zm-3.8-2.2l-.52.854.009.006.01.005.5-.865zm-6.2-3.9l-.6.8.022.017.023.015.555-.832zm-3.2-3.3l-.846.534.007.01.007.01.832-.554zm1.6-10.8l.65.76-.65-.76zm16.5.1h1v-.531l-.44-.298-.56.829zm0 4.4l-.798.603 1.798 2.378V53.8h-1zm-14.1-2.5l-.625-.78.625.78zm-.8 8l-.817.577.008.011.009.012.8-.6zm3.3 3l-.555.832.009.006.009.006.537-.844zm7.2 4.2l.494-.87-.006-.002-.488.872zm7.5 6l-.791.612.005.007.005.006.78-.625zm-1.7 17.9l.679.734-.68-.734zm-9.8 2.7c-3.09 0-5.784-.515-8.103-1.518l-.794 1.836c2.613 1.13 5.586 1.682 8.897 1.682v-2zm-8.083-1.509c-2.346-1.078-3.932-2.398-4.866-3.915l-1.703 1.048c1.2 1.95 3.147 3.496 5.734 4.685l.835-1.818zM29.914 88.2v-5.3h-2v5.3h2zm-1.915-4.896c1.33 3.01 3.18 5.314 5.578 6.84l1.074-1.688c-2.003-1.274-3.62-3.237-4.823-5.96L28 83.304zm5.596 6.851c2.4 1.454 5.393 2.145 8.919 2.145v-2c-3.275 0-5.88-.642-7.882-1.855l-1.037 1.71zm8.919 2.145c3.487 0 6.39-1.076 8.607-3.293l-1.414-1.414c-1.784 1.783-4.147 2.707-7.193 2.707v2zm8.618-3.305c2.202-2.275 3.282-5.167 3.282-8.595h-2c0 2.972-.92 5.346-2.719 7.205l1.437 1.39zm3.282-8.595c0-2.854-.59-5.204-1.909-6.911l-1.583 1.222c.948 1.226 1.492 3.076 1.492 5.689h2zm-1.896-6.894c-1.242-1.68-3.197-3.294-5.787-4.862l-1.035 1.712c2.477 1.499 4.189 2.952 5.214 4.338l1.608-1.188zm-5.803-4.871l-3.8-2.2-1.002 1.73 3.8 2.2 1.002-1.73zm-3.78-2.189c-2.73-1.665-4.784-2.956-6.167-3.878l-1.109 1.664c1.417.945 3.498 2.253 6.234 3.922l1.041-1.708zM36.813 62.6c-1.257-.942-2.24-1.962-2.968-3.055l-1.664 1.11c.871 1.307 2.021 2.487 3.432 3.545l1.2-1.6zm-2.955-3.034c-.688-1.09-1.045-2.366-1.045-3.866h-2c0 1.834.442 3.49 1.354 4.934l1.691-1.068zM32.814 55.7c0-2.403.826-4.248 2.45-5.64l-1.301-1.52c-2.109 1.808-3.15 4.23-3.15 7.16h2zm2.45-5.64c1.648-1.413 3.834-2.16 6.65-2.16v-2c-3.184 0-5.866.853-7.951 2.64l1.301 1.52zm6.65-2.16c3.513 0 6.373.797 8.64 2.329l1.12-1.658c-2.667-1.801-5.94-2.671-9.76-2.671v2zm8.2 1.5v4.4h2v-4.4h-2zm1.797 3.797c-2.282-3.018-5.563-4.497-9.697-4.497v2c3.599 0 6.25 1.254 8.102 3.703l1.595-1.206zM42.214 48.7c-2.303 0-4.274.578-5.825 1.82l1.25 1.56c1.115-.892 2.61-1.38 4.575-1.38v-2zm-5.825 1.82c-1.564 1.25-2.375 2.901-2.375 4.88h2c0-1.354.521-2.437 1.624-3.32l-1.249-1.56zm-2.375 4.88c0 1.66.457 3.165 1.383 4.477l1.634-1.154c-.674-.954-1.017-2.05-1.017-3.323h-2zm1.4 4.5c.883 1.178 2.074 2.252 3.545 3.232l1.11-1.664c-1.33-.886-2.339-1.812-3.055-2.768l-1.6 1.2zm3.563 3.244c1.492.95 3.913 2.36 7.248 4.229l.977-1.746c-3.331-1.865-5.71-3.253-7.151-4.17l-1.074 1.687zm7.242 4.225c3.337 1.898 5.715 3.82 7.204 5.743l1.581-1.224c-1.71-2.21-4.333-4.288-7.796-6.257l-.989 1.738zm7.214 5.756c1.423 1.778 2.18 4.172 2.18 7.275h2c0-3.43-.841-6.303-2.618-8.525l-1.562 1.25zm2.18 7.275c0 3.889-1.273 6.944-3.78 9.267l1.36 1.466c2.961-2.744 4.42-6.355 4.42-10.733h-2zm-3.778 9.266c-2.47 2.284-5.489 3.434-9.121 3.434v2c4.1 0 7.615-1.317 10.479-3.966l-1.358-1.468zM169.952 36.7l-.707.707.017.017.017.016.673-.74zm0-4.9l-.673-.74-.017.016-.017.017.707.707zm4.9 0l-.707.707.017.017.017.016.673-.74zm0 4.9l-.673-.74-.017.016-.017.017.707.707zm-4 11.3v-1h-1v1h1zm3.2 0h1v-1h-1v1zm0 45v1h1v-1h-1zm-3.2 0h-1v1h1v-1zm1.6-56.3c-.668 0-1.266-.23-1.827-.74l-1.346 1.48c.905.823 1.975 1.26 3.173 1.26v-2zm-1.793-.707c-.467-.467-.707-1.04-.707-1.793h-2c0 1.247.426 2.34 1.293 3.207l1.414-1.414zm-.707-1.793c0-.665.226-1.212.707-1.693l-1.414-1.414c-.852.852-1.293 1.905-1.293 3.107h2zm.673-1.66c.561-.51 1.159-.74 1.827-.74v-2c-1.198 0-2.268.437-3.173 1.26l1.346 1.48zm1.827-.74c.665 0 1.212.226 1.693.707l1.414-1.414c-.852-.852-1.905-1.293-3.107-1.293v2zm1.727.74c.54.49.773 1.028.773 1.66h2c0-1.234-.5-2.297-1.427-3.14l-1.346 1.48zm.773 1.66c0 .721-.25 1.285-.773 1.76l1.346 1.48c.944-.858 1.427-1.961 1.427-3.24h-2zm-.807 1.793c-.481.481-1.028.707-1.693.707v2c1.202 0 2.255-.44 3.107-1.293l-1.414-1.414zM170.852 49h3.2v-2h-3.2v2zm2.2-1v45h2V48h-2zm1 44h-3.2v2h3.2v-2zm-2.2 1V48h-2v45h2zm74.21.9v1h1v-1h-1zm-8.6-2.1l-.491.871.008.005.009.004.474-.88zm-6.2-6.1l.861-.508-.861.508zm-2.3-67.7v-1h-1v1h1zm3.2 0h1v-1h-1v1zm1.8 66.2l-.871.49.005.01.006.01.86-.51zm5.1 5.1l-.51.86.01.006.01.006.49-.872zm7 1.8h1v-1h-1v1zm0 1.8c-2.978 0-5.68-.664-8.126-1.98l-.948 1.76c2.755 1.484 5.786 2.22 9.074 2.22v-2zm-8.109-1.971c-2.445-1.38-4.384-3.287-5.83-5.737l-1.722 1.016c1.621 2.75 3.815 4.909 6.57 6.463l.982-1.742zm-5.83-5.737c-1.437-2.437-2.161-5.16-2.161-8.192h-2c0 3.368.809 6.445 2.439 9.208l1.722-1.016zM229.962 77V18h-2v59h2zm-1-58h3.2v-2h-3.2v2zm2.2-1v59h2V18h-2zm0 59c0 2.823.637 5.394 1.929 7.69l1.743-.98c-1.109-1.97-1.672-4.2-1.672-6.71h-2zm1.94 7.71a15.372 15.372 0 0 0 5.45 5.45l1.021-1.72a13.372 13.372 0 0 1-4.751-4.75l-1.72 1.02zm5.47 5.462c2.288 1.287 4.791 1.928 7.49 1.928v-2c-2.368 0-4.531-.559-6.51-1.672l-.98 1.744zm6.49.928v2.8h2v-2.8h-2zm63.142-.3l-.508.862.006.003.502-.865zm-8.6-8.7l.874-.486-1.874-3.373V82.1h1zm0 10.9v1h1v-1h-1zm-3.2 0h-1v1h1v-1zm0-75v-1h-1v1h1zm3.2 0h1v-1h-1v1zm0 41.4h-1l1.903.428-.903-.428zm8.4-9.1l-.513-.859.513.859zm23.9-.2l-.51.86.007.004.503-.864zm8.7 8.6l-.861.51.861-.51zm0 23.6l-.861-.51.861.51zm-8.7 8.6l-.503-.864-.007.004.51.86zm-1.5-2.4l.511.86.007-.005.007-.004-.525-.851zm7.4-7.6l-.864-.504-.004.006.868.498zm0-20.7l.863-.504-.863.504zm-7.5-7.6l-.526.851.007.004.007.004.512-.859zm-20.5 0l-.518-.856-.008.005.526.851zm-7.6 7.7l-.856-.517-.004.006-.004.007.864.504zm0 20.6l-.864.504.006.01.006.011.852-.525zm7.7 7.6l-.518.856.007.004.007.004.504-.864zm10.1 4.6c-3.877 0-7.639-1.046-11.299-3.165l-1.003 1.73c3.94 2.281 8.045 3.435 12.302 3.435v-2zm-11.293-3.161c-3.588-2.115-6.324-4.889-8.233-8.325l-1.749.972c2.091 3.764 5.088 6.79 8.967 9.076l1.015-1.724zM298.604 82.1V93h2V82.1h-2zm1 9.9h-3.2v2h3.2v-2zm-2.2 1V18h-2v75h2zm-1-74h3.2v-2h-3.2v2zm2.2-1v41.4h2V18h-2zm1.903 41.828c1.711-3.611 4.37-6.498 8.009-8.67l-1.025-1.717c-3.961 2.363-6.902 5.542-8.791 9.53l1.807.857zm8.009-8.67c3.654-2.179 7.478-3.258 11.488-3.258v-2c-4.391 0-8.566 1.187-12.513 3.541l1.025 1.718zm11.488-3.258c4.16 0 7.95 1.022 11.39 3.06l1.019-1.72c-3.76-2.228-7.903-3.34-12.409-3.34v2zm11.397 3.064c3.521 2.05 6.297 4.795 8.342 8.246l1.721-1.02c-2.222-3.749-5.246-6.736-9.058-8.954l-1.005 1.728zm8.342 8.246c2.04 3.442 3.061 7.199 3.061 11.29h2c0-4.442-1.114-8.552-3.34-12.31l-1.721 1.02zm3.061 11.29c0 4.091-1.021 7.848-3.061 11.29l1.721 1.02c2.226-3.758 3.34-7.868 3.34-12.31h-2zm-3.061 11.29c-2.045 3.451-4.821 6.197-8.342 8.246l1.005 1.728c3.812-2.218 6.836-5.205 9.058-8.954l-1.721-1.02zm-8.349 8.25c-3.44 2.038-7.23 3.06-11.39 3.06v2c4.506 0 8.649-1.112 12.409-3.34l-1.019-1.72zm-11.19 2.26c3.845 0 7.422-.981 10.711-2.94l-1.023-1.72c-2.978 1.775-6.201 2.66-9.688 2.66v2zm10.725-2.949c3.272-2.019 5.857-4.672 7.742-7.953l-1.735-.996c-1.715 2.986-4.063 5.4-7.058 7.247l1.051 1.702zm7.738-7.947c1.957-3.354 2.937-6.995 2.937-10.904h-2c0 3.558-.888 6.85-2.664 9.896l1.727 1.008zm2.937-10.904c0-3.846-.982-7.453-2.937-10.804l-1.727 1.008c1.778 3.049 2.664 6.308 2.664 9.796h2zm-2.937-10.804c-1.95-3.344-4.57-6-7.852-7.955l-1.023 1.718c2.985 1.779 5.365 4.189 7.148 7.245l1.727-1.008zm-7.838-7.947c-3.291-2.03-6.873-3.049-10.725-3.049v2c3.48 0 6.698.915 9.674 2.751l1.051-1.702zM320.104 48.7c-3.853 0-7.465 1.018-10.818 3.044l1.035 1.712c3.047-1.841 6.302-2.756 9.783-2.756v-2zm-10.826 3.049c-3.27 2.018-5.916 4.7-7.93 8.034l1.711 1.034c1.853-3.066 4.274-5.517 7.27-7.366l-1.051-1.702zm-7.938 8.047c-1.955 3.351-2.936 6.958-2.936 10.804h2c0-3.488.885-6.747 2.663-9.796l-1.727-1.008zM298.404 70.6c0 3.846.981 7.453 2.936 10.804l1.727-1.008c-1.778-3.049-2.663-6.308-2.663-9.796h-2zm2.948 10.825c2.019 3.27 4.701 5.917 8.034 7.93l1.035-1.71c-3.067-1.853-5.518-4.274-7.366-7.27l-1.703 1.05zm8.048 7.939c3.351 1.955 6.958 2.936 10.804 2.936v-2c-3.488 0-6.748-.885-9.797-2.664l-1.007 1.728zM392.849 48v-1h-1v1h1zm3.2 0h1v-1h-1v1zm0 10.4h-1l1.926.378-.926-.378zm5.8-7.7l-.583-.812-.01.007.593.805zm15.1-1.5h1v-.673l-.624-.254-.376.927zm0 3.7l-.605.797 1.605 1.217V52.9h-1zm-13.5 0l-.543-.84-.012.008.555.832zm-5.4 5.9l-.87-.494-.005.01-.005.008.88.476zm-2 34.2v1h1v-1h-1zm-3.2 0h-1v1h1v-1zm0-44h3.2v-2h-3.2v2zm2.2-1v10.4h2V48h-2zm1.926 10.778c1.272-3.118 3.099-5.528 5.467-7.273l-1.186-1.61c-2.699 1.988-4.739 4.711-6.133 8.127l1.852.756zm5.457-7.266c2.426-1.742 5.155-2.612 8.217-2.612v-2c-3.471 0-6.61.996-9.383 2.988l1.166 1.624zm8.217-2.612c1.924 0 3.896.403 5.923 1.227l.753-1.854c-2.239-.91-4.467-1.373-6.676-1.373v2zm5.3.3v3.7h2v-3.7h-2zm1.604 2.903c-2.105-1.597-4.483-2.403-7.104-2.403v2c2.179 0 4.134.66 5.895 1.997l1.209-1.594zm-7.104-2.403c-2.616 0-5.136.802-7.543 2.36l1.086 1.68c2.126-1.376 4.273-2.04 6.457-2.04v-2zm-7.555 2.368c-2.339 1.56-4.243 3.646-5.715 6.238l1.74.988c1.328-2.341 3.024-4.188 5.085-5.562l-1.11-1.664zm-5.725 6.257a17.366 17.366 0 0 0-2.12 8.375h2c0-2.634.625-5.104 1.88-7.425l-1.76-.95zm-2.12 8.375V93h2V66.7h-2zm1 25.3h-3.2v2h3.2v-2zm-2.2 1V48h-2v45h2zm76.131-4.1l-.714.7.007.007.707-.707zm-5.1-40.9v-1h-1v1h1zm3.2 0h1v-1h-1v1zm4.3 38.9l-.723.69.008.01.008.007.707-.707zm21.1 2.3l.465.885.008-.004.009-.005-.482-.876zm8.6-41.2v-1h-1v1h1zm3.2 0h1v-1h-1v1zm0 45v1h1v-1h-1zm-3.2 0h-1v1h1v-1zm0-8.4h1l-1.877-.48.877.48zm-6.9 6.9l.492.87.007-.004.007-.004-.506-.862zm-10.5 1.6c-6.149 0-10.764-1.678-13.993-4.907l-1.414 1.414c3.705 3.705 8.889 5.493 15.407 5.493v-2zm-13.986-4.9c-3.166-3.228-4.814-7.846-4.814-14h-2c0 6.513 1.752 11.695 5.386 15.4l1.428-1.4zm-4.814-14V48h-2v26.2h2zm-1-25.2h3.2v-2h-3.2v2zm2.2-1v26.2h2V48h-2zm0 26.2c0 5.64 1.482 10.152 4.577 13.39l1.446-1.38c-2.638-2.762-4.023-6.716-4.023-12.01h-2zm4.593 13.407c3.168 3.168 7.55 4.693 13.007 4.693v-2c-5.076 0-8.894-1.409-11.593-4.107l-1.414 1.414zM484.68 92.3c3.352 0 6.446-.735 9.265-2.215l-.93-1.77c-2.514 1.32-5.286 1.985-8.335 1.985v2zm9.282-2.224c2.823-1.552 5.054-3.712 6.679-6.468l-1.722-1.016c-1.442 2.444-3.41 4.35-5.921 5.732l.964 1.752zm6.679-6.468c1.634-2.77 2.439-5.915 2.439-9.408h-2c0 3.174-.728 5.962-2.161 8.392l1.722 1.016zm2.439-9.408V48h-2v26.2h2zm-1-25.2h3.2v-2h-3.2v2zm2.2-1v45h2V48h-2zm1 44h-3.2v2h3.2v-2zm-2.2 1v-8.4h-2V93h2zm-1.877-8.88c-1.437 2.624-3.6 4.798-6.529 6.518l1.012 1.724c3.205-1.88 5.641-4.306 7.271-7.282l-1.754-.96zm-6.515 6.51c-2.9 1.638-6.226 2.47-10.008 2.47v2c4.085 0 7.758-.902 10.992-2.73l-.984-1.74zm72.419.57l-.497.867.006.004.491-.871zm-8.6-8.5l.861-.51-.861.51zm0-23.8l.857.517.004-.007-.861-.51zm8.7-8.6l-.496-.868-.006.004.502.864zm21.9-1.4l.411-.912-.411.912zm7.8 5.6h1v-.414l-.292-.293-.708.707zm0 5.4l-.829.559 1.829 2.716V59.9h-1zm-7.4-7.4l-.545.838.013.008.012.008.52-.854zm-20.4.3l.504.864.006-.003-.51-.861zm-7.7 7.6l.856.517-.856-.517zm-.1 21.1l-.863.504.004.008.859-.512zm7.5 7.4l-.498.867.011.006.011.006.476-.879zm28.1-7.5h1v-3.358l-1.837 2.811.837.547zm0 5.4l.726.688.274-.29V86.8h-1zm-8 5.7l.387.922.01-.004-.397-.918zm-9.8.8c-4.166 0-7.996-.992-11.509-2.971l-.982 1.742c3.821 2.154 7.991 3.229 12.491 3.229v-2zm-11.502-2.967c-3.449-1.98-6.191-4.69-8.237-8.143l-1.721 1.02c2.221 3.747 5.212 6.704 8.963 8.857l.995-1.734zm-8.237-8.143c-2.035-3.433-3.061-7.32-3.061-11.69h-2c0 4.697 1.108 8.943 3.34 12.71l1.721-1.02zm-3.061-11.69c0-4.021 1.019-7.709 3.056-11.083l-1.712-1.034c-2.229 3.692-3.344 7.738-3.344 12.117h2zm3.061-11.09c2.045-3.451 4.821-6.197 8.342-8.246l-1.005-1.728c-3.812 2.218-6.836 5.205-9.058 8.954l1.721 1.02zm8.336-8.242c3.576-2.043 7.504-3.068 11.803-3.068v-2c-4.633 0-8.905 1.109-12.796 3.332l.993 1.736zm11.803-3.068c3.63 0 6.683.584 9.19 1.712l.821-1.824c-2.826-1.272-6.173-1.888-10.011-1.888v2zm9.19 1.712c2.534 1.14 5.037 2.929 7.503 5.395l1.415-1.414c-2.601-2.6-5.298-4.545-8.097-5.805l-.821 1.824zm7.21 4.688v5.4h2v-5.4h-2zm1.83 4.841c-2.263-3.359-4.828-5.938-7.709-7.695l-1.041 1.708c2.585 1.576 4.953 3.93 7.091 7.105l1.659-1.118zm-7.685-7.68c-2.866-1.862-6.401-2.761-10.545-2.761v2c3.857 0 6.988.835 9.455 2.438l1.09-1.676zM579.507 48.9c-3.852 0-7.494 1.018-10.909 3.04l1.019 1.72c3.118-1.845 6.409-2.76 9.89-2.76v-2zm-10.903 3.036c-3.346 1.952-6.033 4.605-8.052 7.947l1.711 1.034c1.848-3.058 4.294-5.472 7.348-7.253l-1.007-1.728zm-8.052 7.947c-2.026 3.353-3.045 6.964-3.045 10.817h2c0-3.48.915-6.736 2.756-9.783l-1.711-1.034zM557.507 70.7c0 4.162.974 7.939 2.937 11.304l1.727-1.008c-1.77-3.035-2.664-6.459-2.664-10.296h-2zm2.941 11.312c1.954 3.28 4.578 5.869 7.861 7.755l.997-1.734c-2.984-1.714-5.36-4.058-7.139-7.045l-1.719 1.024zm7.883 7.767c3.348 1.814 6.945 2.721 10.776 2.721v-2c-3.501 0-6.771-.826-9.823-2.48l-.953 1.76zm10.776 2.721c7.835 0 14.07-3.563 18.638-10.553l-1.675-1.094c-4.232 6.477-9.863 9.647-16.963 9.647v2zm16.8-11.1v5.4h2v-5.4h-2zm.274 4.712c-2.315 2.444-4.872 4.262-7.67 5.47l.793 1.836c3.069-1.325 5.845-3.308 8.329-5.93l-1.452-1.376zm-7.66 5.466c-2.724 1.14-5.856 1.722-9.414 1.722v2c3.776 0 7.178-.618 10.187-1.878l-.773-1.844zM645.759 18v-1h-1v1h1zm3.2 0h1v-1h-1v1zm0 39.3h-1l1.906.423-.906-.423zm7.1-7.4l.502.865.005-.003-.507-.862zm24.9 2.2l-.714.7.007.007.707-.707zm5.2 40.9v1h1v-1h-1zm-3.2 0h-1v1h1v-1zm-4.4-38.8l-.723.69.008.01.008.007.707-.707zm-21-2.2l.482.876.008-.004.008-.005-.498-.867zm-6.3 6.2l.861.508.006-.01-.867-.498zm-2.3 34.8v1h1v-1h-1zm-3.2 0h-1v1h1v-1zm0-74h3.2v-2h-3.2v2zm2.2-1v39.3h2V18h-2zm1.906 39.723c1.3-2.786 3.509-5.11 6.696-6.958l-1.004-1.73c-3.48 2.019-6.004 4.628-7.504 7.842l1.812.846zm6.701-6.961c3.268-1.922 6.528-2.862 9.793-2.862v-2c-3.668 0-7.275 1.06-10.807 3.138l1.014 1.724zm9.793-2.862c6.15 0 10.726 1.679 13.886 4.9l1.428-1.4c-3.641-3.712-8.797-5.5-15.314-5.5v2zm13.893 4.907c3.229 3.229 4.907 7.844 4.907 13.993h2c0-6.518-1.788-11.703-5.493-15.407l-1.414 1.414zm4.907 13.993V93h2V66.8h-2zm1 25.2h-3.2v2h3.2v-2zm-2.2 1V66.8h-2V93h2zm0-26.2c0-5.644-1.518-10.132-4.693-13.307l-1.414 1.414c2.692 2.692 4.107 6.604 4.107 11.893h2zm-4.677-13.29c-3.103-3.248-7.461-4.81-12.923-4.81v2c5.071 0 8.847 1.438 11.477 4.19l1.446-1.38zm-12.923-4.81c-3.368 0-6.474.809-9.298 2.433l.996 1.734c2.509-1.443 5.27-2.167 8.302-2.167v-2zm-9.282 2.424c-2.829 1.556-5.061 3.754-6.685 6.578l1.734.997c1.443-2.51 3.411-4.445 5.915-5.823l-.964-1.752zm-6.679 6.568c-1.628 2.76-2.439 5.803-2.439 9.108h2c0-2.962.722-5.652 2.161-8.092l-1.722-1.016zm-2.439 9.108V93h2V66.8h-2zm1 25.2h-3.2v2h3.2v-2zm-2.2 1V18h-2v75h2z"/></g><defs><filter id="filter0_d" x="90.895" y="30.4" width="39.099" height="85.7" filterUnits="userSpaceOnUse" color-interpolation-filters="sRGB"><feFlood flood-opacity="0" result="BackgroundImageFix"/><feColorMatrix in="SourceAlpha" values="0 0 0 0 0 0 0 0 0 0 0 0 0 0 0 0 0 0 127 0"/><feOffset dx="5" dy="10"/><feGaussianBlur stdDeviation="5"/><feColorMatrix values="0 0 0 0 0 0 0 0 0 0 0 0 0 0 0 0 0 0 1 0"/><feBlend in2="BackgroundImageFix" result="effect1_dropShadow"/><feBlend in="SourceGraphic" in2="effect1_dropShadow" result="shape"/></filter><filter id="filter1_d" x="22.914" y="17" width="679.245" height="98.3" filterUnits="userSpaceOnUse" color-interpolation-filters="sRGB"><feFlood flood-opacity="0" result="BackgroundImageFix"/><feColorMatrix in="SourceAlpha" values="0 0 0 0 0 0 0 0 0 0 0 0 0 0 0 0 0 0 127 0"/><feOffset dx="5" dy="10"/><feGaussianBlur stdDeviation="5"/><feColorMatrix values="0 0 0 0 0 0 0 0 0 0 0 0 0 0 0 0 0 0 1 0"/><feBlend in2="BackgroundImageFix" result="effect1_dropShadow"/><feBlend in="SourceGraphic" in2="effect1_dropShadow" result="shape"/></filter></defs></svg>