<svg width="40" height="88" fill="none" xmlns="http://www.w3.org/2000/svg"><path d="M3 0h32v81H3z"/><g filter="url(#filter0_d)" fill="red"><path d="M6.112 2.4c4.933 0 9.033 1.5 12.3 4.5 3.2 3 4.8 7.133 4.8 12.4l-.003 46.8h-3.2V48H6.21l.001-2.8h13.8l.001-25.9c0-4.4-1.3-7.867-3.9-10.4-2.666-2.467-6-3.7-10-3.7V2.4z"/><path d="M6.112 2.4v-1h-1v1h1zm12.3 4.5l.684-.73-.008-.007-.676.737zm4.797 59.2v1h1v-1h-1zm-3.2 0h-1v1h1v-1zm0-18.1h1v-1h-1v1zm-13.8 0h-1v1h1v-1zm.001-2.8v-1h-1v1h1zm13.8 0v1h1v-1h-1zM16.112 8.9l.698-.716-.01-.01-.01-.008-.678.734zm-10-3.7h-1v1h1v-1zm0-1.8c4.713 0 8.562 1.425 11.623 4.237l1.353-1.474C15.616 2.975 11.265 1.4 6.112 1.4v2zm11.616 4.23c2.958 2.773 4.483 6.62 4.483 11.67h2c0-5.483-1.674-9.903-5.115-13.13l-1.368 1.46zM22.21 19.3l-.002 46.8h2l.002-46.8h-2zm.998 45.8h-3.2v2h3.2v-2zm-2.2 1V48h-2v18.1h2zm-1-19.1H6.21v2h13.8v-2zm-12.8 1l.001-2.8h-2V48h2zm-1-1.8h13.8l.001-2H6.21v2zm14.801-1l.001-25.9h-2l-.001 25.9h2zm.001-25.9c0-4.608-1.369-8.356-4.201-11.116l-1.396 1.432c2.367 2.306 3.597 5.492 3.597 9.684h2zM16.79 8.166C13.92 5.51 10.336 4.2 6.11 4.2v2c3.777 0 6.86 1.156 9.322 3.434l1.358-1.468zM7.11 5.2V2.4h-2v2.8h2z"/></g><defs><filter id="filter0_d" x=".112" y="1.4" width="39.099" height="85.7" filterUnits="userSpaceOnUse" color-interpolation-filters="sRGB"><feFlood flood-opacity="0" result="BackgroundImageFix"/><feColorMatrix in="SourceAlpha" values="0 0 0 0 0 0 0 0 0 0 0 0 0 0 0 0 0 0 255 0"/><feOffset dx="5" dy="10"/><feGaussianBlur stdDeviation="5"/><feColorMatrix values="0 0 0 0 0 0 0 0 0 0 0 0 0 0 0 0 0 0 1 0"/><feBlend in2="BackgroundImageFix" result="effect1_dropShadow"/><feBlend in="SourceGraphic" in2="effect1_dropShadow" result="shape"/></filter></defs></svg>